<?xml version="1.0" encoding="utf-8"?>
<!-- Generator: Adobe Illustrator 18.1.1, SVG Export Plug-In . SVG Version: 6.00 Build 0)  -->
<svg version="1.1" id="Layer_1" xmlns="http://www.w3.org/2000/svg" xmlns:xlink="http://www.w3.org/1999/xlink" x="0px" y="0px"
	 viewBox="-191.3 376.2 156.7 41" enable-background="new -191.3 376.2 156.7 41" xml:space="preserve">
<g id="guides">
</g>
<g id="Layer_2">
	<g>
		<g>
			<g>
				<path fill="#FFFFFF" d="M-170.7,409.5c7,0,12.7-5.7,12.7-12.6s-6-12.6-12.7-12.6c-7,0-12.7,5.6-12.7,12.6
					C-183.5,403.9-177.7,409.5-170.7,409.5z"/>
				<polygon fill="none" points="-158.9,393.6 -158.9,393.6 -158.9,393.6 				"/>
				<path fill="#FFFFFF" d="M-164.8,388.9c-1.6,0.3-3.8,0.4-6.1,0.4c0-2.5,0.1-4.3,0.1-4.9C-168.5,384.8-166.4,386.4-164.8,388.9"/>
				<path fill="#EE3E42" d="M-162.1,397.9c-2.4,0.4-5.5,0.6-8.9,0.6c0-3.4,0-6.7,0-9.3c2.3,0,4.5-0.1,6.1-0.4
					C-163.2,391.2-162.1,394.5-162.1,397.9"/>
				<path fill="#FFFFFF" d="M-162.3,397.9c-0.7-0.1-1.2-1.2-0.9-2.3c-0.9,0.6-2-0.7-1.8-1.9c0.1-0.6,0.5-1.2,1.2-1
					c-0.3-1-0.7-2-1.1-2.9c-0.7,0.1-1.4,0.2-2.1,0.2c0.7,1,0,2-0.9,1.8c-0.7-0.1-1.3-0.8-1.1-1.7c-0.6,0.4-1.7,0.2-1.8-1
					c2.1,0,3.9-0.1,6.1-0.4l0,0c1.8,2.9,2.5,5.5,2.7,9.1C-162.1,397.9-162.2,397.9-162.3,397.9"/>
				<path fill="#FFFFFF" d="M-177.5,406.4c-1.3-0.2-2.2-0.5-2.5-0.8c-0.3-0.4-0.7-0.9-1-1.2c-0.7-1.1-0.7-1.1-1.1-1.7
					c-0.6-1.2-0.6-1.2-0.8-1.9c-0.4-1.3-0.4-1.3-0.5-2c-0.1-0.6-0.1-1.4-0.2-2l0-0.5c0,0.5,1.3,1,3.5,1.4c0,0.2,0,0.4,0,0.5
					C-179.9,401.5-179,404.4-177.5,406.4"/>
				<path fill="#FFFFFF" d="M-170.8,409.5c-0.1,0-0.1,0-0.2,0c-0.1,0-0.2,0-0.3,0c-0.8,0-1.3-0.1-1.9-0.2c-1.6-0.4-3.1-1.4-4.2-2.9
					c1.1,0.2,2.6,0.3,4.2,0.4c0.8,0,1.6,0.1,2.4,0.1C-170.8,408.5-170.8,409.5-170.8,409.5"/>
				<path fill="#EE3E42" d="M-170.9,406.8c-0.8,0-1.6,0-2.4-0.1c-1.7-0.1-3.1-0.2-4.2-0.4c-1.5-2-2.4-4.8-2.5-8.1c0-0.1,0-0.3,0-0.4
					c1.5,0.3,3.5,0.4,5.8,0.5c1.1,0,2.2,0.1,3.2,0.1c0,0.1,0,0.3,0,0.4C-170.9,402.2-170.9,404.9-170.9,406.8"/>
				<path fill="#EE3E42" d="M-170.9,407c-0.1,0.4-0.7,0.9-1.6,0.5c0.4,0.5,0.1,1-0.7,0.9c-0.6-0.1-1.2-0.5-1.3-1
					c-0.7-0.1-1.3-0.1-1.9-0.2c0.5,0.6,1.1,1.1,1.8,1.5c0.1,0,0.2,0,0.6,0.1c0.5,0.2,0.9,0.4,1.4,0.6c0,0,0,0,0,0
					c-0.4-0.1-0.4-0.1-0.7-0.1c-0.9-0.3-2.6-0.8-4.2-2.9h0h0l0,0c2,0.3,3.9,0.4,6.6,0.5C-170.9,406.9-170.9,407-170.9,407"/>
				<path fill="#FFFFFF" d="M-177.5,406.4L-177.5,406.4c-1.7-2.5-2.4-4.9-2.5-8.6c1,0.3,1.3,1.8,1,2.6c0.9-0.4,2.1,1.3,1.7,2.3
					c-0.2,0.5-0.7,0.6-1.2,0.3c0.3,0.9,0.6,1.8,1.1,2.6c0.7,0.1,1.4,0.2,2.2,0.2c-0.7-0.8-0.1-1.5,0.7-1.4c0.8,0,1.7,0.7,1.5,1.5
					c0.7-0.3,1.8-0.1,2,0.8c-0.8,0-2.1,0-3.7-0.1C-175.5,406.6-176.5,406.5-177.5,406.4"/>
				<polyline fill="#E03A3E" points="-177.5,406.4 -177.5,406.4 -177.5,406.4 				"/>
				<polyline fill="#E03A3E" points="-177.5,406.4 -177.5,406.4 -177.5,406.4 				"/>
				<path fill="#EE3E42" d="M-177.5,406.4c-1.4-0.3-2.1-0.5-2.5-0.8c-0.3-0.3-0.7-0.8-1-1.1c0.1,0.1,0.1,0.1,0.2,0.3
					c-0.1-0.2-0.8-1-0.8-1.4c0.4-0.1,1.5,1.8,1.5,1.8c0.4,0.1,0.8,0.3,1.4,0.4c-0.5-0.8-1-1.7-1.3-2.6c-0.8,0.4-1.8-1.7-1.5-2.6
					c0.1-0.2,0.3-0.6,0.8-0.1c-0.4-0.9-0.3-2.3,0.7-2.3C-179.9,400.9-179.5,403.5-177.5,406.4"/>
				<path d="M-162.1,400.1L-162.1,400.1c0-0.6,0.1-1.2,0.1-1.8c0-0.1,0-0.3,0-0.4c0,0,0,0,0,0c0,0.1,0,0.3,0,0.4
					C-162,398.9-162.1,399.5-162.1,400.1"/>
				<path d="M-168.8,409.4L-168.8,409.4c3.5-0.5,6.2-4.2,6.7-9.3l0,0C-162.6,405.1-165.3,408.8-168.8,409.4"/>
				<path fill="#231F20" d="M-164.6,407.9c-0.9,0.4-1,0.5-2,0.9c-0.3,0.1-0.6,0.2-0.9,0.3c1.8-0.5,3.3-1.5,4.6-2.9
					c-0.3,0.6-0.4,0.9-1.4,1.5C-164.4,407.8-164.5,407.9-164.6,407.9"/>
				<path fill="#FFD420" d="M-164.2,407.7c0.8-0.5,1.1-0.8,1.4-1.5c1.8-2.1,2.9-5,2.9-8.3c0-0.1,0-0.3,0-0.4c0.6-0.2,1-0.3,1.4-0.5
					c0,0.1,0,0.3,0,0.4C-158.6,401.8-160.8,405.7-164.2,407.7"/>
				<path fill="#231F20" d="M-168.1,404.4c-0.8-0.8-0.8-0.8-2.9-2.8c0-0.9,0-1.8,0-2.8c0-0.1,0-0.3,0-0.4c1.1,0,2.2,0,3.2-0.1
					c0,0.1,0,0.3,0,0.4C-167.7,400.9-167.8,402.8-168.1,404.4"/>
				<path fill="#FFD420" d="M-170.2,409.5L-170.2,409.5c-0.3,0-0.3,0-0.4,0l-0.1,0c-0.1,0-0.1-3.1-0.2-7.8c1.9,1.8,2.1,2,2.9,2.8
					C-168.5,407.5-169.3,409.5-170.2,409.5"/>
				<path fill="#231F20" d="M-169.6,409.5c-0.1,0-0.2,0-0.3,0c-0.1,0-0.2,0-0.3,0c0.9,0,1.7-2,2.2-5.1c0.9,1,1.3,1.4,1.8,2.2
					C-167.2,408.3-168.3,409.3-169.6,409.5"/>
				<path fill="#FFD420" d="M-166.3,406.6c-0.4-0.7-0.7-1-1.8-2.2c0.2-1.6,0.4-3.5,0.3-5.7c0-0.1,0-0.3,0-0.4c1,0,2-0.1,3-0.2
					c0,0.1,0,0.3,0,0.4C-164.7,401.9-165.3,404.7-166.3,406.6"/>
				<path fill="#231F20" d="M-166,408.2c0.2-0.5,0.1-0.8-0.3-1.6c1-1.9,1.6-4.7,1.6-8c0-0.1,0-0.3,0-0.4c0.4,0,0.7-0.1,1-0.1
					c0.5,0.5,1,1.2,1.6,2C-162.5,403.7-164,406.6-166,408.2"/>
				<path fill="#FFD420" d="M-168.8,409.4c-0.1,0-0.2,0-0.3,0c-0.3,0-0.3,0-0.4,0.1l0,0c1.3-0.1,2.5-1.2,3.3-2.9
					c0.3,0.7,0.5,1,0.3,1.6C-166.9,408.8-167.8,409.2-168.8,409.4"/>
				<path fill="#FFD420" d="M-167.5,409.1l-0.3,0.1c-0.5,0.1-0.5,0.1-0.8,0.2l-0.2,0c2.5-0.4,4.5-2.4,5.7-5.3
					c0.3,0.9,0.4,1.3,0.2,2.1C-164.1,407.6-165.7,408.6-167.5,409.1"/>
				<path fill="#231F20" d="M-167.8,409.2c-0.5,0.1-0.5,0.1-0.8,0.2l-0.2,0c1-0.2,1.9-0.6,2.8-1.2c-0.3,0.4-0.5,0.6-1.4,0.9
					L-167.8,409.2"/>
				<path fill="#231F20" d="M-162.9,406.2c0.2-0.7,0.2-1.1-0.2-2.1c0.7-1.7,1-3.6,1-5.8c0-0.1,0-0.3,0-0.4c0.8-0.1,1.5-0.3,2.1-0.4
					c0,0.1,0,0.3,0,0.4C-159.9,401.2-161.1,404.1-162.9,406.2"/>
				<path fill="#FFD520" d="M-164.6,407.9c0.1-0.1,0.2-0.1,0.3-0.2l-0.1,0.1L-164.6,407.9"/>
				<path fill="#231F20" d="M-158.5,397.3c0,4.5-2.3,8.4-5.9,10.5l0,0l0.1-0.1C-160.8,405.7-158.6,401.8-158.5,397.3
					c-0.1-0.1-0.1-0.2-0.1-0.4c0,0,0,0,0.1,0C-158.5,397.1-158.5,397.2-158.5,397.3"/>
				<path fill="#FFD420" d="M-163.1,404.1c-0.4-0.9-0.8-1.4-1.8-2.7c0.1-0.9,0.2-1.8,0.2-2.8c0-0.1,0-0.3,0-0.4
					c1-0.1,1.9-0.2,2.7-0.3c0,0.1,0,0.3,0,0.4C-162.1,400.5-162.4,402.4-163.1,404.1"/>
				<path fill="#231F20" d="M-164.9,401.4c-0.7-0.8-1.1-1.3-2.8-3.1c1,0,1.8-0.1,3-0.2c0,0.1,0,0.3,0,0.4
					C-164.7,399.6-164.8,400.6-164.9,401.4"/>
				<path fill="#231F20" d="M-179.9,397.8C-179.9,397.8-179.9,397.8-179.9,397.8c0-0.7,0.1-1.5,0.2-2.2l0,0
					C-179.8,396.4-179.9,397.1-179.9,397.8"/>
				<path fill="#231F20" d="M-179.7,395.7L-179.7,395.7c0.8-5.2,3.8-9.7,7.6-11l0,0C-175.9,386-179,390.4-179.7,395.7"/>
				<path fill="#231F20" d="M-172.1,384.6L-172.1,384.6c0.5-0.2,0.9-0.3,1.4-0.4l0,0C-171.2,384.4-171.7,384.5-172.1,384.6"/>
				<path fill="#FFD420" d="M-178.4,388.4c0.4-1,0.8-1.5,1.7-2.3c1.7-1,3.8-1.7,5.9-1.8C-173.7,384.5-176.4,386.1-178.4,388.4"/>
				<path fill="#231F20" d="M-181.9,397.4c-0.5-0.1-0.9-0.3-1.2-0.5c0.1-4.6,2.7-8.6,6.4-10.9c-0.9,0.8-1.3,1.2-1.7,2.3
					C-180.4,390.7-181.8,394-181.9,397.4"/>
				<path fill="#FFD420" d="M-170.9,398.4c-1.1,0-2.1,0-3.2-0.1c0,0-0.1,0-0.1,0c0-2.3,0.2-4.5,0.5-6.4c0.9,1.2,1.4,1.7,2.8,3.2
					C-170.9,396.2-170.9,397.3-170.9,398.4"/>
				<path fill="#FFD420" d="M-173.7,391.9c-0.9-1.2-1.2-1.8-1.6-2.9c1.2-2.5,2.8-4.3,4.6-4.7C-172,385-173.1,388-173.7,391.9"/>
				<path fill="#231F20" d="M-174.3,398.4c-1.1-0.1-2.1-0.1-3.1-0.2c0.1-3.4,0.8-6.6,2-9.1c0.4,1.1,0.7,1.7,1.6,2.9
					C-174.1,393.9-174.2,396.1-174.3,398.4"/>
				<path fill="#FFD420" d="M-177.3,398.2c-0.4,0-0.7-0.1-1-0.1c-0.4-0.6-1-1.5-1.4-2.4c0.5-3.7,2.2-7,4.5-9.1
					c-0.3,0.8-0.4,1.3-0.1,2.5C-176.5,391.5-177.3,394.8-177.3,398.2"/>
				<path fill="#231F20" d="M-175.3,389c-0.2-1-0.2-1.6,0.1-2.5c1.3-1.2,2.8-2,4.5-2.3C-172.5,384.8-174.2,386.5-175.3,389"/>
				<path fill="#231F20" d="M-178.5,391.4c-0.2-1.2-0.2-1.9,0.2-3c2-2.3,4.7-3.8,7.6-4.1l0,0c-0.7,0.1-0.8,0.1-1.4,0.3
					C-174.8,385.6-177.2,388.1-178.5,391.4"/>
				<path fill="#FFD420" d="M-175.2,386.5c0.4-0.7,0.7-1.1,1.8-1.7c0.9-0.3,1.8-0.5,2.7-0.6C-172.4,384.5-173.9,385.3-175.2,386.5"
					/>
				<path fill="#FFD420" d="M-179.9,397.8c-0.8-0.1-1.4-0.3-1.9-0.4c0.1-3.5,1.4-6.7,3.5-9c-0.3,1.1-0.4,1.7-0.2,3
					C-179.4,393.3-179.9,395.5-179.9,397.8"/>
				<path fill="#231F20" d="M-176.7,386.1c0.9-0.7,1.4-1,2.9-1.4c1-0.2,2-0.3,3-0.3l0,0C-172.9,384.4-174.9,385-176.7,386.1"/>
				<path fill="#FFD420" d="M-183.1,396.9c-0.3-0.2-0.4-0.3-0.4-0.5l0-0.4c0.4-5.5,4.4-10.1,9.7-11.3c-1.2,0.4-1.9,0.7-2.9,1.4
					C-180.4,388.3-182.9,392.3-183.1,396.9"/>
				<path fill="#231F20" d="M-177.3,398.2c-1-0.1-1.8-0.2-2.6-0.3c0.1-2.3,0.6-4.5,1.4-6.4c0.3,1.3,0.6,2,1.5,3.5
					C-177.2,395.9-177.3,397-177.3,398.2"/>
				<path fill="#FFD420" d="M-177.3,398.2c0-1.1,0.1-2.2,0.3-3.3c0.8,1.2,1.3,1.8,2.8,3.5C-175.3,398.3-176.1,398.3-177.3,398.2"/>
				<path fill="#231F20" d="M-173.4,384.9c0.7-0.3,1.3-0.5,2.7-0.6l0,0C-171.7,384.4-172.6,384.6-173.4,384.9"/>
				<path fill="none" d="M-158,396.8c0,0.7,0,1.7-0.4,3.2c-0.3,1.3-0.9,2.5-1.1,2.8c-0.7,1.1-1.9,3.3-4.8,5"/>
				<path fill="#231F20" d="M-158.5,396.9c0.3-0.2,0.5-0.4,0.5-0.6c0.2,5.3-2.8,9.4-6.3,11.4l0,0l0.1-0.1c3.4-2.1,5.7-5.9,5.7-10.3
					C-158.6,397.2-158.6,397.1-158.5,396.9C-158.5,396.9-158.5,396.9-158.5,396.9c0,0.1,0,0.3,0,0.4"/>
				<polygon fill="none" points="-158.9,393.6 -158.9,393.6 -158.9,393.6 				"/>
				<path fill="#EE3E42" d="M-164.8,388.8L-164.8,388.8L-164.8,388.8C-164.7,388.8-164.7,388.8-164.8,388.8L-164.8,388.8
					C-164.7,388.8-164.7,388.8-164.8,388.8c0.1,0,0.3,0,0.4-0.1c0.7-0.1,2.3-0.5,2.3-1c0,0,0.7,0.6,1.2,1.5c0.1,0.1,0.1,0.2,0.1,0.3
					c0,0.1,0.1,0.2,0.1,0.3c0,0,0,0,0,0c0,0,0,0.1,0,0.1c0,0,0,0,0,0c0,0.3-0.2,0.3-0.4,0.2c0,0,0,0-0.1,0c-0.7-0.3-0.9-0.9-1-1.1
					c-0.3,0.1-0.9,0.3-1.3,0.4c-0.1,0-0.1,0-0.2,0c0.5,0.9,1,1.9,1.4,3c0.6-0.7,1.6,0.6,1.7,1.7c0,0.7-0.3,1.3-0.9,1.1
					c0.5,0.9,0.3,2.3-0.6,2.6C-162.2,394.8-162.7,392.1-164.8,388.8L-164.8,388.8L-164.8,388.8"/>
				<path fill="#EE3E42" d="M-164.6,386.4C-164.6,386.4-164.6,386.4-164.6,386.4C-164.6,386.4-164.6,386.4-164.6,386.4
					C-164.6,386.4-164.6,386.4-164.6,386.4C-164.6,386.4-164.6,386.3-164.6,386.4C-164.6,386.3-164.6,386.3-164.6,386.4
					L-164.6,386.4c0.1-0.1,0.2-0.5,1.6,0.5c-2.5-1.9-5-2.5-6.5-2.6c0.2,0,0.3,0.1,0.4,0.1c0.1,0,0.1,0.1,0.2,0.1c0,0,0,0,0,0
					c0.2,0,0.3,0.1,0.5,0.1l0,0l0,0c0.1,0,0.1,0,0.2,0.1c0,0,0,0,0,0c0,0,0.1,0,0.1,0.1c0,0,0,0,0,0c0,0,0.1,0,0.1,0.1c0,0,0,0,0,0
					c0.1,0,0.1,0,0.2,0.1v0c0.4,0.2,0.8,0.5,0.8,0.7c-0.1,0-0.1,0.1-0.3,0c0.7,0.5,1.8,1.5,2.5,2.3c0.4-0.1,1.1-0.2,1.4-0.3
					C-163.4,387.6-164.5,386.8-164.6,386.4z"/>
				<path fill="#FFFFFF" d="M-162.1,387.7c-0.3-0.3-0.6-0.6-0.9-0.8c-0.6-0.4-1-0.6-1.2-0.7l0,0c0,0-0.7-0.2-0.3,0.3l0,0
					c0.3,0.4,1.1,1,1.1,1c-0.3,0.1-0.9,0.2-1.4,0.3c-0.6-0.7-1.7-1.7-2.5-2.3c0.2,0.1,0.2,0,0.3,0c0-0.2-0.4-0.4-0.8-0.6v0
					c-0.1,0-0.1-0.1-0.2-0.1c0,0,0,0,0,0c0,0-0.1,0-0.1-0.1c0,0,0,0,0,0c0,0-0.1,0-0.1-0.1c0,0,0,0,0,0c-0.1,0-0.1,0-0.2-0.1l0,0
					c-0.1,0-0.3-0.1-0.5-0.1c0,0,0,0,0,0c0,0,0,0,0,0l0,0c0,0,0,0,0,0c0,0-0.1-0.1-0.2-0.1c-0.1,0-0.2-0.1-0.4-0.1
					c-0.4,0-0.7,0-0.9,0c-0.2,0-0.3,0-0.3,0c0,0,0,0,0,0c-0.1,0-0.1,0-0.1,0l0.1,0c0,0-0.1,0-0.1,0c0.1,0,0.2,0,0.2,0
					c0.2,0.1,0.6,0.2,0.9,0.3c1.9,0.7,3.6,2.2,4.9,4.2c0,0,0,0,0.1,0c1.2-0.2,1.8-0.4,2.3-0.6c0,0,0,0,0,0
					C-162.1,387.9-162.1,387.7-162.1,387.7L-162.1,387.7L-162.1,387.7z"/>
				<path fill="#EE3E42" d="M-164.8,388.8L-164.8,388.8L-164.8,388.8L-164.8,388.8L-164.8,388.8c-2.1-3-4-3.9-5.7-4.4
					c0,0,0.1,0,0.1,0c-0.1,0-0.2,0-0.2-0.1c0,0,0,0-0.1,0c0.1,0,0.1,0,0.2,0c-0.1,0-0.1,0-0.2,0c0,0,0,0-0.1,0c0,0,0,0,0,0
					c0,0-0.1,0-0.1,0l0,0l0,0c0.4,0.4,0.9,0.6,1,0.6c0,0.2,0,0.5,0.5,0.8c0.1,0.1,0.2,0.1,0.2,0.1c0.8,0.4,1,0.1,1,0c0,0,0,0,0,0
					c0.3,0.2,0.7,0.6,1.3,1.2c0.3,0.4,0.6,0.7,0.8,1c-0.5,0.1-1.2,0.1-1.8,0.2c0-0.8-0.6-1.2-1-1.3c-0.8-0.3-1.1,0.6-0.7,1.3
					c-0.6-0.3-1.4,0-1.5,1C-168.4,389.1-166.7,389-164.8,388.8L-164.8,388.8L-164.8,388.8"/>
				<path fill="#231F20" d="M-170.9,395.1c-1.2-1.3-1.9-2-2.8-3.2c0.6-3.9,1.7-6.9,3-7.7l0,0l0,0
					C-170.9,385.2-170.9,389.7-170.9,395.1"/>
			</g>
			<path fill="#231F20" d="M-186,387.5L-186,387.5c-0.1,0.3,0,0.4,0.3,0.6l1,0.5c0.5,0.2,0.8,0.8,0.4,1.6c-0.4,0.7-1,0.9-1.5,0.6
				l-1.1-0.6c-0.2-0.1-0.3-0.1-0.4,0.2l-0.1,0l0.5-1l0.1,0l0,0c-0.1,0.2-0.1,0.3,0.1,0.4l1.1,0.5c0.5,0.3,1,0.1,1.3-0.5
				c0.2-0.4,0.3-1-0.4-1.3l-0.9-0.4c-0.4-0.2-0.5-0.2-0.6,0.2l-0.1,0L-186,387.5z"/>
			<path fill="#231F20" d="M-181.6,386.2l-3.2,0.2l1.4,1.2c0.2,0.2,0.3,0.2,0.6-0.1l0.1,0.1l-0.6,0.8l-0.1-0.1l0,0
				c0.2-0.2,0.2-0.3,0-0.5l-1.6-1.4c-0.1,0-0.2,0.1-0.3,0.2l-0.1-0.1l0.4-0.5l2.9-0.2l-1.3-1.1c-0.2-0.2-0.3-0.1-0.5,0.1l-0.1-0.1
				l0.6-0.8l0.1,0.1c-0.2,0.2-0.2,0.3-0.1,0.4L-181.6,386.2L-181.6,386.2z"/>
			<path fill="#231F20" d="M-180,384.8l-0.8,0.7l-0.1-0.1c0.2-0.2,0.2-0.3,0-0.5l-1.2-1.4c-0.1-0.2-0.3-0.2-0.4,0l-0.1-0.1l0.8-0.7
				l0.1,0.1c-0.2,0.2-0.2,0.3-0.1,0.5l1.2,1.4C-180.4,384.9-180.3,385-180,384.8L-180,384.8z"/>
			<path fill="#231F20" d="M-178.5,383.9l-2-1.5c-0.2-0.2-0.3-0.2-0.5-0.1l0-0.1l1-0.6l0,0.1c-0.3,0.2-0.4,0.3-0.2,0.5l1.6,1.3
				l-0.3-1.9c0-0.1,0-0.2-0.1-0.3c-0.1-0.1-0.2-0.1-0.4,0l0-0.1l0.9-0.5l0,0.1c-0.2,0.1-0.2,0.3-0.2,0.5l0.4,2.4L-178.5,383.9z"/>
			<path fill="#231F20" d="M-175.3,381.4L-175.3,381.4c-0.2-0.2-0.3-0.3-0.5-0.2l-0.7,0.2l0.3,0.9c0.1,0.2,0.1,0.2,0.3,0.1l0.6-0.2
				c0.3-0.1,0.3-0.2,0.3-0.6l0.1,0l0.1,0.6l-2.1,0.7l0-0.1l0.1,0c0.3-0.1,0.3-0.2,0.3-0.5l-0.6-1.7c-0.1-0.2-0.2-0.3-0.4-0.2l-0.1,0
				l0-0.1l1.9-0.7l0.2,0.5l-0.1,0c-0.2-0.3-0.3-0.4-0.4-0.3l-0.9,0.3l0.3,1l0.7-0.2c0.1-0.1,0.2-0.1,0.1-0.4l0.1,0L-175.3,381.4z"/>
			<path fill="#231F20" d="M-173.7,379.3c0.1,0,0.1,0,0.2,0c0.7-0.1,0.9,0.2,0.9,0.6c0.1,0.5-0.2,0.7-0.7,0.8c-0.1,0-0.2,0-0.3,0
				L-173.7,379.3z M-173.5,380.8c0.1,0,0.1,0,0.2,0c0.1,0,0.2,0,0.3,0c0.1,0.1,0.3,0.2,0.5,0.3l0.3,0.2c0.4,0.3,0.6,0.5,1.4,0.3
				l0-0.1c-0.3,0-0.6-0.1-0.9-0.3l-0.4-0.3c-0.2-0.2-0.4-0.3-0.5-0.4c0.3-0.1,0.5-0.4,0.5-0.8c-0.1-0.4-0.4-0.7-1.2-0.6
				c-0.3,0-0.4,0-0.5,0.1c-0.2,0-0.4,0.1-0.5,0.1l0,0.1l0.1,0c0.2,0,0.3,0,0.4,0.3l0.2,1.8c0,0.3,0,0.4-0.3,0.4l-0.1,0l0,0.1
				l1.2-0.1l0-0.1l-0.1,0c-0.2,0-0.3,0-0.4-0.3L-173.5,380.8z"/>
			<path fill="#231F20" d="M-170.3,381c0.1,0.4,0.3,0.6,0.7,0.7c0.3,0,0.6-0.1,0.6-0.5c0-0.6-1.3-0.9-1.2-1.6c0-0.4,0.4-0.6,0.8-0.6
				c0.4,0,0.4,0.1,0.6,0.2c0,0,0.1,0,0.1,0l0.1,0l0,0.5l-0.1,0c-0.1-0.3-0.4-0.5-0.6-0.6c-0.3,0-0.5,0.1-0.5,0.4
				c0,0.6,1.3,0.9,1.2,1.7c0,0.4-0.4,0.7-0.9,0.7c-0.2,0-0.5-0.2-0.6-0.2c0,0-0.1,0-0.1,0l-0.1,0L-170.3,381L-170.3,381z"/>
			<path fill="#231F20" d="M-167,382.1l-1-0.2l0-0.1c0.3,0,0.3,0,0.4-0.3l0.4-1.8c0.1-0.2,0-0.3-0.2-0.4l0-0.1l1,0.2l0,0.1
				c-0.3-0.1-0.4,0-0.4,0.3l-0.4,1.8C-167.3,381.9-167.3,382-167,382.1L-167,382.1z"/>
			<path fill="#231F20" d="M-164.8,382.4c-0.1,0.2,0,0.3,0.2,0.4l0.1,0.1l0,0.1l-1.2-0.5l0-0.1l0.1,0.1c0.2,0.1,0.3,0,0.4-0.2l0.8-2
				l-0.7-0.3c-0.2-0.1-0.3,0-0.5,0.3l-0.1,0l0.3-0.6l0.1,0c0,0,0,0,0,0.1c0,0,0,0,0.1,0l1.9,0.8c0.1,0,0.1,0,0.1,0l0.1,0l-0.2,0.7
				l-0.1,0c0.1-0.4,0-0.5-0.1-0.6l-0.7-0.3L-164.8,382.4z"/>
			<path fill="#231F20" d="M-160.5,382.7c0.2-0.1,0.2-0.2,0-0.4l0-0.1l0.8,0.5l0,0.1c-0.3-0.1-0.4-0.1-0.6,0l-1.3,0.6l-0.4,0.5
				c-0.1,0.2-0.1,0.3,0.1,0.5l0,0l0,0.1l-1-0.6l0-0.1l0.1,0c0.2,0.1,0.3,0.1,0.5-0.1l0.3-0.5l0-1.4c0-0.4,0-0.5-0.3-0.7l0-0.1
				l0.9,0.6l0,0.1c-0.3-0.2-0.3-0.1-0.3,0.1l0,1.3L-160.5,382.7z"/>
			<path fill="#231F20" d="M-157,387.8c-0.5,0.4-1.2,0.5-1.6-0.1c-0.4-0.5-0.3-1.3,0.3-1.8c0.4-0.3,1.1-0.5,1.6,0.1
				C-156.2,386.6-156.4,387.3-157,387.8z M-156.6,388c0.6-0.5,0.6-1.3,0.1-2c-0.6-0.7-1.4-0.9-2.1-0.4c-0.6,0.5-0.6,1.4-0.1,2
				C-158.2,388.4-157.3,388.5-156.6,388z"/>
			<path fill="#231F20" d="M-155.7,390.7L-155.7,390.7c0.2-0.2,0.2-0.3,0.1-0.5l-0.3-0.7l-0.8,0.4c-0.2,0.1-0.3,0.2-0.1,0.5l-0.1,0
				l-0.4-0.9l0.1,0c0.1,0.2,0.2,0.3,0.5,0.1l1.5-0.7c0.2-0.1,0.3-0.2,0.2-0.5l0.1,0l0.8,1.7l-0.5,0.2l0-0.1c0.2-0.1,0.3-0.2,0.2-0.5
				l-0.3-0.7l-0.9,0.4l0.4,0.8c0.1,0.1,0.2,0.2,0.4,0.1l0,0.1L-155.7,390.7z"/>
			<path fill="#231F20" d="M-185.6,407.4l1.5-2.8l0,0l-2.1,1.3c-0.2,0.1-0.2,0.4,0,0.6l-0.1,0.1l-0.7-0.9l0.1-0.1
				c0.2,0.3,0.3,0.3,0.8,0l1.8-1.1c0.3-0.2,0.4-0.3,0.2-0.5l0.1-0.1l0.5,0.7l-1.5,2.7l3-0.6l0.5,0.6l-0.1,0.1
				c-0.2-0.2-0.2-0.3-0.4-0.2l-1.9,1.6c-0.4,0.3-0.4,0.4-0.1,0.7l-0.1,0.1l-0.8-1.1l0.1-0.1c0.1,0.2,0.4,0.4,0.6,0.2l1.9-1.6l0,0
				L-185.6,407.4L-185.6,407.4z"/>
			<path fill="#231F20" d="M-180.2,410.3l-0.8-0.6l1.1-0.7L-180.2,410.3z M-180.2,410.5l-0.3,1c0,0.1,0,0.1-0.1,0.2
				c-0.1,0.1-0.2,0.1-0.5-0.1l-0.1-0.1l-0.1,0.1l1.2,0.9l0.1-0.1c-0.2-0.2-0.3-0.3-0.2-0.6l0.9-3.1l-0.4-0.3l0,0.1l-2.4,1.6
				c-0.4,0.3-0.5,0.3-0.8,0.1l-0.1,0.1l1,0.7l0.1-0.1l-0.1-0.1c-0.2-0.2-0.3-0.3-0.2-0.4c0-0.1,0.2-0.2,0.3-0.2l0.8-0.5
				L-180.2,410.5z"/>
			<path fill="#231F20" d="M-176.7,410.5c0.1,0,0.2,0,0.3,0.1c0.8,0.3,0.9,0.7,0.7,1.2c-0.2,0.6-0.7,0.7-1.2,0.5
				c-0.1,0-0.2-0.1-0.3-0.1L-176.7,410.5z M-177.4,412.2c0.1,0,0.1,0.1,0.3,0.1c0.1,0,0.2,0.1,0.4,0.1c0.1,0.1,0.2,0.3,0.4,0.6
				l0.2,0.5c0.3,0.6,0.5,0.9,1.4,1.2l0-0.1c-0.4-0.2-0.6-0.5-0.8-0.9l-0.3-0.5c-0.2-0.3-0.3-0.5-0.4-0.7c0.5,0,0.8-0.2,1-0.6
				c0.2-0.5-0.1-1.1-1.1-1.4c-0.3-0.1-0.4-0.1-0.7-0.2c-0.2-0.1-0.5-0.2-0.7-0.2l0,0.1l0.1,0c0.3,0.1,0.4,0.2,0.2,0.5l-0.8,2.2
				c-0.1,0.3-0.3,0.4-0.6,0.3l-0.1,0l0,0.1l1.5,0.5l0-0.1l-0.1,0c-0.3-0.1-0.4-0.2-0.3-0.5L-177.4,412.2z"/>
			<path fill="#231F20" d="M-171.2,412.1c0.2-0.3,0.1-0.4-0.2-0.4l0-0.1l1.2,0.1l0,0.1c-0.4,0-0.5,0.1-0.7,0.4l-1,1.4l-0.1,0.8
				c0,0.3,0.1,0.4,0.4,0.4l0.1,0l0,0.1l-1.5-0.1l0-0.1l0.1,0c0.3,0,0.4-0.1,0.5-0.4l0.1-0.8l-0.8-1.6c-0.2-0.4-0.4-0.5-0.7-0.6
				l0-0.1l1.4,0.1l0,0.1c-0.4,0-0.5,0.1-0.3,0.3l0.8,1.4L-171.2,412.1z"/>
			<path fill="#231F20" d="M-166.7,414.6l-2.4,0.4l0-0.1l0.2,0c0.2,0,0.3-0.1,0.3-0.4l-0.4-2.4c0-0.3-0.2-0.4-0.5-0.3l-0.1,0l0-0.1
				l1.6-0.3l0,0.1l-0.2,0c-0.3,0.1-0.4,0.1-0.4,0.4l0.4,2.5c0,0.1,0.1,0.2,0.2,0.2l0.8-0.1c0.3-0.1,0.4-0.2,0.7-0.7l0.1,0
				L-166.7,414.6z"/>
			<path fill="#231F20" d="M-164.1,411.9l-0.9,0.4l-0.1-1.3L-164.1,411.9z M-163.9,412l0.7,0.8c0,0,0.1,0.1,0.1,0.2
				c0.1,0.1,0,0.2-0.3,0.3l-0.1,0.1l0,0.1l1.4-0.6l0-0.1c-0.3,0.1-0.4,0.1-0.6-0.1l-2.2-2.3l-0.4,0.2l0.1,0.1l0.1,2.9
				c0,0.5,0,0.6-0.3,0.7l0,0.1l1.2-0.5l0-0.1l-0.1,0c-0.3,0.1-0.4,0.1-0.5,0c0-0.1,0-0.2,0-0.4l0-0.9L-163.9,412z"/>
			<path fill="#231F20" d="M-158,409.9l-4.1-0.5l1.5,1.8c0.3,0.3,0.4,0.3,0.7,0l0.1,0.1l-1,0.8l-0.1-0.1l0,0
				c0.3-0.2,0.3-0.4,0.1-0.6l-1.7-2.1c-0.2,0-0.3,0.1-0.4,0.2l-0.1-0.1l0.7-0.5l3.7,0.4l-1.4-1.7c-0.2-0.3-0.3-0.2-0.7,0l-0.1-0.1
				l1-0.8l0.1,0.1c-0.3,0.3-0.3,0.4-0.2,0.5l1.9,2.3L-158,409.9z"/>
			<path fill="#231F20" d="M-158.8,405.7c0-0.1,0.1-0.2,0.2-0.4c0.4-0.6,0.8-0.9,1.1-0.9c0.4-0.1,0.9,0.1,1.2,0.3
				c0.5,0.3,0.7,0.7,0.7,1c0.1,0.5,0,0.8-0.4,1.4c-0.2,0.4-0.3,0.3-0.5,0.2L-158.8,405.7z M-156.7,407.6c0.3,0.2,0.3,0.3,0.1,0.6
				l0,0.1l0.1,0.1l0.9-1.5c0.7-1.2,0.3-2.2-0.4-2.7c-0.8-0.5-1.7-0.4-2.5,0.9c-0.2,0.2-0.3,0.5-0.5,0.8s-0.3,0.5-0.4,0.7l0.1,0.1
				l0.1-0.1c0.2-0.3,0.3-0.3,0.6-0.1L-156.7,407.6z"/>
			<path fill="#231F20" d="M-188.2,395.8v2.3c0,0.1,0,0.2,0.1,0.2h0.2v0.1h-1v-0.1h0.2c0.1,0,0.2,0,0.2-0.2v-2
				c-0.1,0.1-0.4,0.3-0.5,0.3l0-0.1c0.2-0.2,0.6-0.5,0.7-0.6H-188.2z"/>
			<path fill="#231F20" d="M-185.9,397.8c0,0.3-0.2,0.6-0.5,0.6c-0.3,0-0.5-0.3-0.5-0.6c0-0.3,0.1-0.5,0.4-0.6
				C-186.1,397.3-185.9,397.5-185.9,397.8z M-185.7,396.4c0-0.3-0.3-0.6-0.7-0.6c-0.4,0-0.7,0.3-0.7,0.7c0,0.3,0.2,0.5,0.5,0.6
				c-0.4,0.2-0.6,0.4-0.6,0.7c0,0.4,0.3,0.7,0.8,0.7c0.4,0,0.8-0.3,0.8-0.7c0-0.3-0.2-0.5-0.6-0.7
				C-185.9,396.8-185.7,396.6-185.7,396.4z M-185.9,396.4c0,0.2-0.1,0.4-0.3,0.6c-0.5-0.2-0.6-0.4-0.6-0.6c0-0.3,0.2-0.5,0.5-0.5
				C-186.1,395.9-185.9,396.1-185.9,396.4z"/>
			<path fill="#231F20" d="M-155.9,396.1h1c0.1,0,0.1,0,0.1-0.1h0.1l0,0.3h-1l0,0.7c0.1-0.1,0.3-0.1,0.4-0.1c0.4,0,0.8,0.4,0.8,0.8
				c0,0.5-0.4,0.9-0.9,0.9c-0.3,0-0.6-0.1-0.6-0.3c0-0.1,0.1-0.1,0.1-0.1c0.2,0,0.3,0.3,0.5,0.3c0.3,0,0.6-0.3,0.6-0.7
				c0-0.4-0.3-0.6-0.6-0.6c-0.1,0-0.3,0.1-0.4,0.2l0,0L-155.9,396.1z"/>
			<path fill="#231F20" d="M-152.9,397.9c0,0.5-0.2,0.7-0.5,0.7c-0.3,0-0.5-0.2-0.5-0.9c0-0.1,0-0.2,0-0.2c0.2-0.2,0.4-0.2,0.5-0.2
				C-153.1,397.2-152.9,397.4-152.9,397.9z M-152.8,396c-0.8,0.2-1.3,0.8-1.3,1.6c0,0.6,0.3,1,0.8,1c0.4,0,0.8-0.4,0.8-0.8
				c0-0.4-0.3-0.7-0.7-0.7c-0.2,0-0.4,0.1-0.6,0.2C-153.8,396.7-153.4,396.3-152.8,396L-152.8,396z"/>
		</g>
		<path d="M-137.4,392.1h-2.4l1.2-3.2L-137.4,392.1z M-137.2,392.7l0.9,2.5c0.1,0.1,0.2,0.3,0.2,0.6c0,0.4-0.3,0.5-1.1,0.5h-0.4v0.2
			h3.8v-0.2c-0.7,0-1-0.1-1.2-0.9l-2.9-7.6h-1.2l0.1,0.3l-2.5,6.8c-0.4,1.2-0.6,1.3-1.5,1.4v0.2h3.2v-0.2h-0.2
			c-0.8,0-1.1-0.1-1.1-0.5c0-0.2,0.2-0.6,0.3-0.9l0.8-2.2L-137.2,392.7L-137.2,392.7z"/>
		<path d="M-131.5,396c0,0.4-0.3,0.6-0.7,0.6c-0.4,0-0.7-0.3-0.7-0.6c0-0.4,0.3-0.6,0.7-0.6C-131.8,395.3-131.5,395.6-131.5,396z"/>
		<path d="M-123.7,395.1c0,2.8-1.1,4.6-2.8,4.6c-0.8,0-1.3-0.3-1.3-0.7c0-0.3,0.2-0.5,0.5-0.5c0.5,0,0.8,0.6,1.4,0.6
			c0.7,0,1.1-0.5,1.1-2v-7.3c0-1.2-0.1-1.5-1.1-1.5h-0.2V388h3.5v0.2c-0.9,0-1.1,0.3-1.1,1L-123.7,395.1L-123.7,395.1z"/>
		<path d="M-116.4,392.1h-2.4l1.2-3.2L-116.4,392.1z M-116.1,392.7l0.9,2.5c0.1,0.1,0.2,0.3,0.2,0.6c0,0.4-0.3,0.5-1.1,0.5h-0.4v0.2
			h3.8v-0.2c-0.7,0-1-0.1-1.2-0.9l-2.9-7.6h-1.2l0.1,0.3l-2.5,6.8c-0.4,1.2-0.6,1.3-1.5,1.4v0.2h3.2v-0.2h-0.2
			c-0.8,0-1.1-0.1-1.1-0.5c0-0.2,0.2-0.6,0.3-0.9l0.8-2.2L-116.1,392.7L-116.1,392.7z"/>
		<path d="M-107.1,396.5l-3.5-7.3h0l-0.4,6.2c0,0.7,0.5,0.9,1.1,0.9v0.2h-2.8v-0.2c1,0,1.1-0.2,1.2-1.5l0.3-5.3
			c0.1-0.9,0-1.2-0.8-1.2V388h2.1l3.3,6.9l3.3-6.9h2v0.2c-0.7,0.1-0.9,0.1-0.9,0.5l0.4,6.2c0.1,1.3,0.2,1.3,1.2,1.3v0.2h-3.5v-0.2
			c0.6,0,1.3-0.2,1.2-0.9l-0.4-6.1h0l-3.4,7.3C-106.8,396.5-107.1,396.5-107.1,396.5z"/>
		<path d="M-94.3,393.4h-0.3c-0.1-1-0.4-1.1-0.9-1.1h-2.3v2.9c0,0.6,0.2,0.8,0.7,0.8h2.1c0.9,0,1.2-0.4,1.6-1.5h0.2l-0.2,2h-7.3
			v-0.2h0.4c1.1,0,1.3-0.3,1.3-1.1v-5.8c0-0.8-0.2-1.1-1.1-1.1h-0.3V388h6.6l0.1,1.9h-0.2c-0.2-1.2-0.5-1.4-1-1.4h-2.9v3.3h2.5
			c0.5,0,0.7-0.2,0.8-1h0.3L-94.3,393.4L-94.3,393.4z"/>
		<path d="M-91.9,394.4c0.3,1.2,1.2,1.9,2.3,1.9c0.9,0,1.9-0.5,1.9-1.6c0-2-4.4-2.6-4.4-5c0-1.1,1-2,2.4-2c1.1,0,1.4,0.3,1.9,0.3
			c0.1,0,0.2,0,0.2-0.1h0.2l0.2,1.7h-0.2c-0.4-1-1.3-1.6-2.2-1.6c-0.9,0-1.5,0.5-1.5,1.3c0,1.9,4.4,2.5,4.4,5c0,1.3-1.2,2.3-2.8,2.3
			c-0.8,0-1.7-0.4-1.9-0.4c-0.1,0-0.2,0.1-0.3,0.2h-0.2l-0.3-2.1L-91.9,394.4L-91.9,394.4z"/>
		<path d="M-74.6,390.2c-0.5-1.3-1.6-2.1-3.1-2.1c-2.3,0-3.7,1.7-3.7,4c0,2.5,1.8,4.3,3.9,4.3c1.1,0,2.4-0.4,3.3-2h0.3
			c-0.2,0.6-0.5,1.5-0.9,2c-0.9-0.1-1.5,0.3-3.1,0.3c-2.8,0-4.8-1.8-4.8-4.4c0-2.7,2.1-4.6,4.9-4.6c1.7,0,2.5,0.5,2.9,0.5
			c0.2,0,0.2,0,0.2-0.1h0.2l0.1,2L-74.6,390.2z"/>
		<path d="M-67,396.5h-6.1v-0.2h0.4c0.6,0,0.9-0.2,0.9-0.9v-6.1c0-0.7-0.2-1-1.1-1h-0.2V388h4v0.2h-0.5c-0.9,0-1.1,0.1-1.1,0.9v6.3
			c0,0.4,0.1,0.5,0.5,0.5h2c0.8,0,1.1-0.3,1.9-1.5h0.2L-67,396.5z"/>
		<path d="M-60.3,392.1h-2.4l1.2-3.2L-60.3,392.1z M-60.1,392.7l0.9,2.5c0.1,0.1,0.1,0.3,0.1,0.6c0,0.4-0.3,0.5-1.1,0.5h-0.4v0.2
			h3.8v-0.2c-0.7,0-1-0.1-1.2-0.9l-2.9-7.6H-62l0.1,0.3l-2.5,6.8c-0.4,1.2-0.6,1.3-1.5,1.4v0.2h3.2v-0.2h-0.2
			c-0.8,0-1.1-0.1-1.1-0.5c0-0.2,0.2-0.6,0.3-0.9l0.8-2.2L-60.1,392.7L-60.1,392.7z"/>
		<path d="M-54.2,388.1c0.2,0,0.4,0,0.7,0c2.1,0,2.7,1,2.7,2.3c0,1.6-1,2.3-2.5,2.3c-0.3,0-0.5,0-0.8,0V388.1z M-54.2,392.9
			c0.2,0,0.4,0,0.7,0c0.4,0,0.6,0,0.9,0c0.3,0.2,0.8,0.6,1.4,1.2l0.9,0.9c1.2,1.2,1.8,1.7,4.2,1.6v-0.2c-1.1-0.1-1.9-0.6-2.7-1.4
			l-1.1-1.1c-0.6-0.6-1.1-1-1.6-1.4c1.1-0.3,1.8-1.2,1.8-2.2c0-1.4-1.1-2.4-3.7-2.4c-0.9,0-1.2,0-1.7,0c-0.6,0-1.4,0.1-1.7,0.1v0.2
			h0.3c0.8,0,1,0.2,1,1.1v5.8c0,0.9-0.3,1.1-1.1,1.1h-0.2v0.2h3.9v-0.2h-0.3c-0.8,0-1.1-0.2-1.1-1L-54.2,392.9L-54.2,392.9z"/>
		<path d="M-41.5,396.5v-0.2c0.6,0,0.9-0.1,0.9-0.4c0-0.2-0.3-0.7-1.7-2.1c-1.1-1.1-1.4-1.3-2-1.2v2.6c0,0.9,0.2,1.1,1.1,1.1h0.2
			v0.2h-3.7v-0.2h0.2c0.9,0,1.1-0.3,1.1-1v-6c0-0.8-0.4-1-1.1-1h-0.2V388h3.7v0.2h-0.1c-0.8,0-1.1,0.3-1.1,1.1v3
			c0.5-0.1,1-0.3,1.5-0.9c1.1-1.1,1.9-2.3,1.9-2.7c0-0.3-0.2-0.4-0.9-0.4V388h3.6v0.2c-1,0-1.4,0.2-1.8,0.6
			c-0.4,0.4-1.3,2.1-2.7,3.2c0.2,0,0.5,0.2,1.1,0.8c1.4,1.4,2.2,2.5,2.7,3c0.2,0.2,0.6,0.4,1.5,0.4v0.2
			C-37.5,396.5-41.5,396.5-41.5,396.5z"/>
		<path d="M-142.8,405.4c0.2,0.6,0.7,1,1.2,1c0.5,0,1-0.3,1-0.9c0-1-2.3-1.4-2.3-2.6c0-0.6,0.6-1,1.3-1c0.6,0,0.7,0.2,1,0.2
			c0.1,0,0.1,0,0.1-0.1h0.1l0.1,0.9h-0.1c-0.2-0.5-0.7-0.9-1.2-0.9c-0.5,0-0.8,0.3-0.8,0.7c0,1,2.3,1.3,2.3,2.6
			c0,0.7-0.6,1.2-1.5,1.2c-0.4,0-0.9-0.2-1-0.2c-0.1,0-0.1,0-0.1,0.1h-0.1l-0.2-1.1L-142.8,405.4L-142.8,405.4z"/>
		<path d="M-134.5,403.2c-0.2-0.7-0.9-1.1-1.7-1.1c-1.2,0-2,0.9-2,2.1c0,1.3,0.9,2.3,2,2.3c0.6,0,1.3-0.2,1.8-1.1h0.1
			c-0.1,0.3-0.3,0.8-0.5,1.1c-0.5-0.1-0.8,0.2-1.6,0.2c-1.5,0-2.5-1-2.5-2.3c0-1.4,1.1-2.4,2.6-2.4c0.9,0,1.3,0.3,1.5,0.3
			c0.1,0,0.1,0,0.1,0h0.1l0.1,1.1L-134.5,403.2z"/>
		<path d="M-132,404.3v1.4c0,0.5,0.1,0.6,0.6,0.6h0v0.1h-1.8v-0.1h0c0.4,0,0.6-0.1,0.6-0.5v-3.2c0-0.4-0.1-0.5-0.5-0.5V402h1.7v0.1
			c-0.5,0-0.6,0.1-0.6,0.7v1.3h2.9v-1.4c0-0.4-0.1-0.5-0.6-0.5h-0.1V402h1.9v0.1c-0.4,0-0.6,0.1-0.6,0.6v3c0,0.5,0.1,0.6,0.6,0.6
			h0.1v0.1h-2.1v-0.1h0.2c0.5,0,0.6-0.2,0.6-0.5v-1.5L-132,404.3L-132,404.3z"/>
		<path d="M-122.3,404.3c0,1-0.6,2.1-1.7,2.1c-1.2,0-2.1-1-2.1-2.3c0-0.9,0.5-2.1,1.8-2.1C-123.2,402-122.3,403-122.3,404.3z
			 M-121.6,404.1c0-1.3-1.2-2.2-2.5-2.2c-1.5,0-2.7,1-2.7,2.5c0,1.4,1.2,2.3,2.6,2.3C-122.8,406.6-121.6,405.6-121.6,404.1z"/>
		<path d="M-115.9,404.3c0,1-0.6,2.1-1.8,2.1c-1.2,0-2.1-1-2.1-2.3c0-0.9,0.5-2.1,1.8-2.1C-116.7,402-115.9,403-115.9,404.3z
			 M-115.2,404.1c0-1.3-1.2-2.2-2.5-2.2c-1.5,0-2.7,1-2.7,2.5c0,1.4,1.2,2.3,2.6,2.3C-116.4,406.6-115.2,405.6-115.2,404.1z"/>
		<path d="M-110.9,406.5h-3.2v-0.1h0.2c0.3,0,0.5-0.1,0.5-0.5v-3.2c0-0.4-0.1-0.5-0.6-0.5h-0.1V402h2.1v0.1h-0.3
			c-0.5,0-0.6,0.1-0.6,0.5v3.3c0,0.2,0.1,0.3,0.3,0.3h1.1c0.4,0,0.6-0.2,1-0.8h0.1L-110.9,406.5z"/>
		<path d="M-102.5,404.3c0,1-0.6,2.1-1.8,2.1c-1.2,0-2.1-1-2.1-2.3c0-0.9,0.5-2.1,1.8-2.1C-103.3,402-102.5,403-102.5,404.3z
			 M-101.8,404.1c0-1.3-1.2-2.2-2.5-2.2c-1.5,0-2.7,1-2.7,2.5c0,1.4,1.2,2.3,2.6,2.3C-102.9,406.6-101.8,405.6-101.8,404.1z"/>
		<path d="M-97.5,404.7h-0.1c0-0.4-0.2-0.6-0.5-0.6h-1.3v1.6c0,0.4,0.1,0.6,0.6,0.6v0.1h-1.8v-0.1c0.4,0,0.5-0.1,0.5-0.7v-2.8
			c0-0.5,0-0.7-0.5-0.7V402h3.3v0.9h-0.1c0-0.4-0.2-0.6-0.6-0.6h-1.4v1.7h1.4c0.3,0,0.4-0.2,0.4-0.5h0.1L-97.5,404.7L-97.5,404.7z"
			/>
		<path d="M-90.7,404.8h-0.1c-0.1-0.5-0.2-0.6-0.5-0.6h-1.2v1.5c0,0.3,0.1,0.4,0.4,0.4h1.1c0.5,0,0.7-0.2,0.8-0.8h0.1l-0.1,1.1h-3.8
			v-0.1h0.2c0.6,0,0.7-0.2,0.7-0.6v-3.1c0-0.4-0.1-0.6-0.6-0.6h-0.2V402h3.5l0.1,1h-0.1c-0.1-0.6-0.3-0.7-0.5-0.7h-1.5v1.8h1.3
			c0.3,0,0.4-0.1,0.4-0.5h0.1L-90.7,404.8L-90.7,404.8z"/>
		<path d="M-84.4,406.5l-3.8-3.9v3.1c0,0.5,0.1,0.6,0.7,0.6v0.1h-1.7v-0.1h0c0.4,0,0.6-0.2,0.6-0.5v-3.6c-0.2-0.1-0.4-0.2-0.6-0.2
			V402h1.1l3.4,3.6v-2.9c0-0.4-0.1-0.5-0.7-0.5V402h1.7v0.1c-0.5,0-0.7,0.1-0.7,0.4v4.1L-84.4,406.5L-84.4,406.5z"/>
		<path d="M-78.3,406.1c-0.7,0.4-1.6,0.4-1.9,0.4c-1.6,0-2.3-1.2-2.3-2.3c0-1.1,0.8-2.4,2.5-2.4c0.8,0,1.3,0.2,1.4,0.2
			c0.1,0,0.1,0,0.2,0h0.1v1.2l-0.1,0c-0.2-0.9-0.8-1.2-1.5-1.2c-1.3,0-1.9,1.1-1.9,2.2c0,1.5,1,2.2,1.9,2.2c0.3,0,0.7-0.1,1.1-0.3
			v-0.9c0-0.4-0.1-0.6-0.6-0.6h-0.3v-0.1h2v0.1c-0.4,0-0.5,0.1-0.5,0.5L-78.3,406.1L-78.3,406.1z"/>
		<path d="M-75,406.5h-1.8v-0.1c0.4,0,0.5-0.1,0.5-0.6v-3.1c0-0.4-0.1-0.5-0.5-0.5V402h1.8v0.1c-0.5,0-0.6,0.1-0.6,0.6v3.1
			c0,0.4,0.1,0.6,0.6,0.6V406.5z"/>
		<path d="M-69.3,406.5l-3.8-3.9v3.1c0,0.5,0.1,0.6,0.7,0.6v0.1H-74v-0.1h0c0.4,0,0.6-0.2,0.6-0.5v-3.6c-0.2-0.1-0.4-0.2-0.6-0.2
			V402h1.1l3.4,3.6v-2.9c0-0.4-0.1-0.5-0.7-0.5V402h1.7v0.1c-0.5,0-0.7,0.1-0.7,0.4v4.1L-69.3,406.5L-69.3,406.5z"/>
		<path d="M-64.5,404.8h-0.1c-0.1-0.5-0.2-0.6-0.5-0.6h-1.2v1.5c0,0.3,0.1,0.4,0.4,0.4h1.1c0.5,0,0.7-0.2,0.8-0.8h0.1l-0.1,1.1h-3.8
			v-0.1h0.2c0.6,0,0.7-0.2,0.7-0.6v-3.1c0-0.4-0.1-0.6-0.6-0.6h-0.2V402h3.5l0.1,1h-0.1c-0.1-0.6-0.3-0.7-0.5-0.7h-1.5v1.8h1.3
			c0.3,0,0.4-0.1,0.4-0.5h0.1L-64.5,404.8L-64.5,404.8z"/>
		<path d="M-59.7,404.8h-0.1c-0.1-0.5-0.2-0.6-0.5-0.6h-1.2v1.5c0,0.3,0.1,0.4,0.4,0.4h1.1c0.5,0,0.7-0.2,0.8-0.8h0.1l-0.1,1.1h-3.8
			v-0.1h0.2c0.6,0,0.7-0.2,0.7-0.6v-3.1c0-0.4-0.1-0.6-0.6-0.6h-0.2V402h3.5l0.1,1h-0.1c-0.1-0.6-0.3-0.7-0.5-0.7h-1.5v1.8h1.3
			c0.3,0,0.4-0.1,0.4-0.5h0.1L-59.7,404.8L-59.7,404.8z"/>
		<path d="M-56.9,402.1c0.1,0,0.2,0,0.4,0c1.1,0,1.4,0.5,1.4,1.2c0,0.9-0.5,1.2-1.3,1.2c-0.2,0-0.3,0-0.4,0V402.1z M-56.9,404.6
			c0.1,0,0.2,0,0.4,0c0.2,0,0.3,0,0.5,0c0.2,0.1,0.4,0.3,0.7,0.6l0.5,0.5c0.6,0.7,1,0.9,2.2,0.9v-0.1c-0.6,0-1-0.3-1.4-0.7l-0.6-0.6
			c-0.3-0.3-0.6-0.5-0.8-0.8c0.6-0.2,1-0.6,1-1.2c0-0.7-0.6-1.3-1.9-1.3c-0.5,0-0.6,0-0.9,0c-0.3,0-0.7,0-0.9,0v0.1h0.2
			c0.4,0,0.5,0.1,0.5,0.6v3.1c0,0.5-0.2,0.6-0.6,0.6h-0.1v0.1h2.1v-0.1h-0.2c-0.4,0-0.6-0.1-0.6-0.5L-56.9,404.6L-56.9,404.6z"/>
		<path d="M-49.9,406.5h-1.8v-0.1c0.4,0,0.5-0.1,0.5-0.6v-3.1c0-0.4-0.1-0.5-0.5-0.5V402h1.8v0.1c-0.5,0-0.6,0.1-0.6,0.6v3.1
			c0,0.4,0.1,0.6,0.6,0.6V406.5z"/>
		<path d="M-44.2,406.5l-3.8-3.9v3.1c0,0.5,0.1,0.6,0.7,0.6v0.1h-1.7v-0.1h0c0.4,0,0.6-0.2,0.6-0.5v-3.6c-0.2-0.1-0.4-0.2-0.6-0.2
			V402h1.1l3.4,3.6v-2.9c0-0.4-0.1-0.5-0.7-0.5V402h1.7v0.1c-0.5,0-0.7,0.1-0.7,0.4v4.1L-44.2,406.5L-44.2,406.5z"/>
		<path d="M-38.1,406.1c-0.7,0.4-1.6,0.4-1.9,0.4c-1.6,0-2.3-1.2-2.3-2.3c0-1.1,0.8-2.4,2.5-2.4c0.8,0,1.3,0.2,1.4,0.2
			c0.1,0,0.1,0,0.2,0h0.1v1.2l-0.1,0c-0.2-0.9-0.8-1.2-1.5-1.2c-1.3,0-1.9,1.1-1.9,2.2c0,1.5,1,2.2,1.9,2.2c0.3,0,0.7-0.1,1.1-0.3
			v-0.9c0-0.4-0.1-0.6-0.6-0.6h-0.3v-0.1h2v0.1c-0.4,0-0.5,0.1-0.5,0.5L-38.1,406.1L-38.1,406.1z"/>
	</g>
</g>
</svg>
