<?xml version="1.0" encoding="utf-8"?>
<!-- Generator: Adobe Illustrator 18.1.1, SVG Export Plug-In . SVG Version: 6.00 Build 0)  -->
<svg version="1.1" id="Layer_1" xmlns="http://www.w3.org/2000/svg" xmlns:xlink="http://www.w3.org/1999/xlink" x="0px" y="0px"
	 viewBox="-157.8 380.8 223 34.5" enable-background="new -157.8 380.8 223 34.5" xml:space="preserve">
<g id="guides">
</g>
<g id="Layer_2">
	<g>
		<path fill="#231F20" d="M-112.8,384.4c-0.2-0.7-0.9-1.1-1.6-1.1c-1.2,0-1.9,0.9-1.9,2.1c0,1.3,0.9,2.2,2,2.2
			c0.6,0,1.3-0.2,1.7-1.1h0.1c-0.1,0.3-0.3,0.8-0.5,1c-0.5-0.1-0.8,0.2-1.6,0.2c-1.4,0-2.5-1-2.5-2.3c0-1.4,1.1-2.4,2.6-2.4
			c0.9,0,1.3,0.3,1.5,0.3c0.1,0,0.1,0,0.1,0h0.1l0.1,1L-112.8,384.4L-112.8,384.4z"/>
		<path fill="#231F20" d="M-107.8,387.8c-1.4,0-2.6-0.9-2.6-2.2c0-1.4,1.1-2.4,2.6-2.4c1.3,0,2.5,0.9,2.5,2.2
			C-105.2,386.8-106.4,387.8-107.8,387.8z M-107.9,383.3c-1.3,0-1.8,1.2-1.8,2c0,1.3,0.9,2.3,2.1,2.3c1.2,0,1.7-1,1.7-2
			C-105.9,384.3-106.7,383.3-107.9,383.3z"/>
		<path fill="#231F20" d="M-100,387.7h-3.2v-0.1h0.2c0.3,0,0.4-0.1,0.4-0.5v-3.2c0-0.4-0.1-0.5-0.6-0.5h-0.1v-0.1h2.1v0.1h-0.3
			c-0.5,0-0.6,0.1-0.6,0.5v3.3c0,0.2,0.1,0.3,0.3,0.3h1.1c0.4,0,0.5-0.2,1-0.8h0.1L-100,387.7z"/>
		<path fill="#231F20" d="M-94.6,387.7h-3.2v-0.1h0.2c0.3,0,0.4-0.1,0.4-0.5v-3.2c0-0.4-0.1-0.5-0.6-0.5h-0.1v-0.1h2.1v0.1h-0.3
			c-0.5,0-0.6,0.1-0.6,0.5v3.3c0,0.2,0.1,0.3,0.3,0.3h1c0.4,0,0.6-0.2,1-0.8h0.1L-94.6,387.7z"/>
		<path fill="#231F20" d="M-89.2,386.1h-0.1c-0.1-0.5-0.2-0.6-0.5-0.6H-91v1.5c0,0.3,0.1,0.4,0.4,0.4h1.1c0.5,0,0.6-0.2,0.8-0.8h0.1
			l-0.1,1.1h-3.8v-0.1h0.2c0.6,0,0.7-0.2,0.7-0.6v-3c0-0.4-0.1-0.6-0.6-0.6h-0.2v-0.1h3.4l0.1,1H-89c-0.1-0.6-0.3-0.7-0.5-0.7H-91
			v1.8h1.3c0.3,0,0.4-0.1,0.4-0.5h0.1L-89.2,386.1L-89.2,386.1z"/>
		<path fill="#231F20" d="M-82.1,387.4c-0.7,0.4-1.6,0.5-1.9,0.5c-1.6,0-2.3-1.2-2.3-2.3c0-1.1,0.8-2.4,2.5-2.4
			c0.8,0,1.3,0.2,1.4,0.2c0.1,0,0.1,0,0.2,0h0.1v1.2h-0.1c-0.2-0.9-0.8-1.2-1.5-1.2c-1.3,0-1.9,1-1.9,2.2c0,1.5,1,2.1,1.8,2.1
			c0.3,0,0.7-0.1,1.1-0.3v-0.9c0-0.4-0.1-0.5-0.6-0.5h-0.3v-0.1h1.9v0.1c-0.4,0-0.5,0.1-0.5,0.5L-82.1,387.4L-82.1,387.4z"/>
		<path fill="#231F20" d="M-76.7,386.1h-0.1c-0.1-0.5-0.2-0.6-0.5-0.6h-1.2v1.5c0,0.3,0.1,0.4,0.4,0.4h1.1c0.5,0,0.7-0.2,0.8-0.8
			h0.1l-0.1,1.1H-80v-0.1h0.2c0.6,0,0.7-0.2,0.7-0.6v-3c0-0.4-0.1-0.6-0.6-0.6h-0.2v-0.1h3.4l0.1,1h-0.1c-0.1-0.6-0.3-0.7-0.5-0.7
			h-1.5v1.8h1.3c0.3,0,0.4-0.1,0.4-0.5h0.1L-76.7,386.1L-76.7,386.1z"/>
		<path fill="#231F20" d="M-67.8,387.8c-1.4,0-2.6-0.9-2.6-2.2c0-1.4,1.1-2.4,2.6-2.4c1.3,0,2.5,0.9,2.5,2.2
			C-65.3,386.8-66.4,387.8-67.8,387.8z M-68,383.3c-1.3,0-1.8,1.2-1.8,2c0,1.3,0.9,2.3,2.1,2.3c1.2,0,1.7-1,1.7-2
			C-65.9,384.3-66.8,383.3-68,383.3z"/>
		<path fill="#231F20" d="M-60,386h-0.1c0-0.4-0.2-0.5-0.5-0.5H-62v1.6c0,0.4,0.1,0.5,0.6,0.5v0.1h-1.7v-0.1c0.4,0,0.5-0.1,0.5-0.7
			v-2.8c0-0.5,0-0.7-0.5-0.7v-0.1h3.2v0.8H-60c0-0.4-0.2-0.6-0.6-0.6H-62v1.7h1.4c0.3,0,0.4-0.1,0.4-0.5h0.1V386z"/>
		<path fill="#231F20" d="M-109.9,393.7c-0.4-1.2-1.5-1.9-2.9-1.9c-2.1,0-3.4,1.5-3.4,3.6c0,2.3,1.6,4,3.5,4c1,0,2.2-0.3,3.1-1.9
			h0.2c-0.2,0.6-0.5,1.3-0.8,1.8c-0.8-0.1-1.4,0.3-2.8,0.3c-2.6,0-4.4-1.7-4.4-4c0-2.4,1.9-4.2,4.5-4.2c1.6,0,2.3,0.5,2.7,0.5
			c0.1,0,0.2,0,0.2-0.1h0.2l0.1,1.8H-109.9z"/>
		<path fill="#231F20" d="M-104.2,399.6c-2.5,0-4.5-1.6-4.5-3.9c0-2.5,1.9-4.3,4.6-4.3c2.4,0,4.4,1.6,4.4,3.9
			C-99.7,397.9-101.8,399.6-104.2,399.6z M-104.5,391.7c-2.2,0-3.1,2.1-3.1,3.6c0,2.4,1.6,4,3.6,4c2.1,0,3-1.8,3-3.6
			C-100.9,393.4-102.4,391.7-104.5,391.7z"/>
		<path fill="#231F20" d="M-94.1,399.4l-3.2-6.7h0l-0.3,5.7c0,0.6,0.4,0.8,1,0.8v0.2h-2.6v-0.2c0.9,0,1-0.2,1.1-1.3l0.3-4.9
			c0.1-0.8,0-1.1-0.8-1.1v-0.2h1.9l3,6.3l3-6.3h1.9v0.2c-0.6,0-0.9,0.1-0.8,0.5l0.4,5.7c0.1,1.2,0.2,1.2,1.1,1.2v0.2h-3.2v-0.2
			c0.6,0,1.2-0.2,1.1-0.8l-0.4-5.6h0l-3.1,6.7L-94.1,399.4L-94.1,399.4z"/>
		<path fill="#231F20" d="M-85.3,398.2c0,0.7,0.2,1,1,1h0.4v0.2h-3.5v-0.2h0.2c0.7,0,0.8-0.1,0.8-0.7v-6c0-0.5-0.2-0.7-0.6-0.7h-0.6
			v-0.2c0.4,0,1-0.1,1.6-0.1c0.6,0,1.2,0,1.6,0c2.6,0,3.2,1.3,3.2,2.2c0,1.5-1.2,2.4-3,2.4c-0.4,0-0.7,0-1.1-0.1L-85.3,398.2
			L-85.3,398.2z M-85.3,395.8c0.2,0,0.4,0.1,0.7,0.1c1.4,0,2.3-0.9,2.3-2.2c0-1-0.4-2-2.1-2c-0.3,0-0.6,0-0.9,0.1L-85.3,395.8
			L-85.3,395.8z"/>
		<path fill="#231F20" d="M-70.8,391.6v0.2c-0.8,0-1.1,0.4-1.1,1.2v3.4c0,1.6-1,3.2-3.7,3.2c-2.4,0-3.6-1.4-3.6-3.2v-3.7
			c0-0.8-0.2-0.9-1.1-0.9v-0.2h3.2v0.2h-0.1c-0.7,0-1,0.2-1,0.9v3.5c0,1.7,1,2.7,2.9,2.7c1.4,0,2.9-0.6,2.9-2.7v-2.9
			c0-1.2-0.2-1.4-1.2-1.5v-0.2L-70.8,391.6L-70.8,391.6z"/>
		<path fill="#231F20" d="M-65.6,398.3c0,0.7,0.2,0.9,1,0.9h0.5v0.2h-4v-0.2h0.5c0.8,0,1-0.2,1-0.9v-6.2h-2.2
			c-0.5,0-0.7,0.3-0.9,1.4H-70l0.2-2h0.2c0,0.1,0.1,0.1,0.1,0.2c0.1,0,0.2,0,0.3,0h6.1c0.2,0,0.4,0,0.4-0.2h0.2l0.2,2h-0.2
			c-0.2-1.1-0.4-1.4-0.9-1.4h-2.2V398.3z"/>
		<path fill="#231F20" d="M-55.9,396.6h-0.2c-0.1-0.9-0.3-1-0.9-1h-2.1v2.7c0,0.6,0.2,0.7,0.7,0.7h1.9c0.9,0,1.1-0.3,1.5-1.4h0.2
			l-0.2,1.9h-6.7v-0.2h0.4c1,0,1.2-0.3,1.2-1v-5.3c0-0.7-0.2-1-1-1h-0.3v-0.2h6l0.1,1.7h-0.2c-0.2-1.1-0.5-1.3-0.9-1.3h-2.7v3.1h2.3
			c0.5,0,0.7-0.2,0.7-0.9h0.2L-55.9,396.6L-55.9,396.6z"/>
		<path fill="#231F20" d="M-51.5,398.3c0,0.8,0.3,0.9,1,0.9h0.3v0.2h-3.6v-0.2h0.2c0.7,0,1-0.2,1-1v-5.3c0-0.8-0.2-1-0.9-1h-0.3
			v-0.2c0.3,0,1.1-0.1,1.6-0.1c0.5,0,0.8,0,1.6,0c2.3,0,3.4,1,3.4,2.2c0,0.9-0.6,1.7-1.7,2c0.5,0.4,0.8,0.7,1.4,1.3l1,1
			c0.7,0.7,1.5,1.2,2.5,1.3v0.2c-2.2,0.1-2.8-0.4-3.9-1.5l-0.8-0.8c-0.6-0.6-1-0.9-1.3-1.1c-0.3,0-0.5,0-0.9,0c-0.3,0-0.4,0-0.6,0
			L-51.5,398.3L-51.5,398.3z M-51.5,395.9c0.3,0,0.5,0,0.8,0c1.4,0,2.3-0.6,2.3-2.1c0-1.2-0.5-2.1-2.5-2.1c-0.2,0-0.4,0-0.6,0
			L-51.5,395.9L-51.5,395.9z"/>
		<path fill="#231F20" d="M-43.3,401.1c0.6-0.4,1-0.8,1-1.3c0-0.1-0.1-0.3-0.2-0.3c-0.1,0-0.2,0-0.3,0c-0.3,0-0.6-0.2-0.6-0.6
			c0-0.3,0.3-0.6,0.7-0.6c0.5,0,0.9,0.4,0.9,1c0,0.8-0.6,1.5-1.4,1.9L-43.3,401.1z"/>
		<path fill="#231F20" d="M61.5,401.1c0.6-0.4,1-0.8,1-1.3c0-0.1-0.1-0.3-0.2-0.3c-0.1,0-0.2,0-0.3,0c-0.3,0-0.6-0.2-0.6-0.6
			c0-0.3,0.3-0.6,0.7-0.6c0.5,0,0.9,0.4,0.9,1c0,0.8-0.6,1.5-1.4,1.9L61.5,401.1z"/>
		<path fill="#231F20" d="M-34.2,399.4l-3.2-6.7h0l-0.3,5.7c0,0.6,0.4,0.8,1,0.8v0.2h-2.6v-0.2c0.9,0,1-0.2,1.1-1.3l0.3-4.9
			c0.1-0.8,0-1.1-0.8-1.1v-0.2h1.9l3,6.3l3-6.3h1.9v0.2c-0.6,0-0.9,0.1-0.8,0.5l0.4,5.7c0.1,1.2,0.2,1.2,1.1,1.2v0.2h-3.2v-0.2
			c0.6,0,1.2-0.2,1.1-0.8l-0.4-5.6h0l-3.1,6.7L-34.2,399.4L-34.2,399.4z"/>
		<path fill="#231F20" d="M-25.6,396l-0.7,2c-0.1,0.2-0.3,0.6-0.3,0.8c0,0.3,0.3,0.5,1,0.5h0.2v0.2h-2.9v-0.2c0.8,0,1-0.2,1.4-1.3
			l2.3-6.3l-0.1-0.3h1.1l2.6,7c0.3,0.7,0.5,0.8,1.1,0.8v0.2h-3.5v-0.2h0.3c0.7,0,1-0.1,1-0.4c0-0.2-0.1-0.4-0.1-0.5L-23,396H-25.6z
			 M-24.3,392.5l-1.1,2.9h2.2L-24.3,392.5z"/>
		<path fill="#231F20" d="M-16.1,398.3c0,0.7,0.2,0.9,1,0.9h0.5v0.2h-4v-0.2h0.5c0.8,0,1-0.2,1-0.9v-6.2h-2.2
			c-0.5,0-0.7,0.3-0.9,1.4h-0.2l0.2-2h0.2c0,0.1,0.1,0.1,0.1,0.2c0.1,0,0.2,0,0.3,0h6.1c0.2,0,0.4,0,0.4-0.2h0.2l0.2,2H-13
			c-0.2-1.1-0.4-1.4-0.9-1.4h-2.2L-16.1,398.3L-16.1,398.3z"/>
		<path fill="#231F20" d="M-9.6,395.7v2.4c0,0.8,0.2,1.1,1,1.1h0v0.2h-3.2v-0.2h0.1c0.7,0,1-0.2,1-0.9v-5.5c0-0.7-0.2-0.8-0.9-0.9
			v-0.2h3v0.2c-0.9,0-1,0.2-1,1.2v2.2h4.9v-2.5c0-0.7-0.2-0.9-1-0.9h-0.2v-0.2h3.2v0.2c-0.8,0-1,0.3-1,1v5.2c0,0.9,0.3,1.1,1,1.1
			h0.1v0.2h-3.6v-0.2h0.4c0.8,0,1-0.3,1-0.9v-2.6C-4.7,395.7-9.6,395.7-9.6,395.7z"/>
		<path fill="#231F20" d="M4.1,396.6H3.8c-0.1-0.9-0.3-1-0.9-1H0.8v2.7c0,0.6,0.2,0.7,0.7,0.7h1.9c0.9,0,1.1-0.3,1.5-1.4h0.2
			l-0.2,1.9h-6.7v-0.2h0.4c1,0,1.2-0.3,1.2-1v-5.3c0-0.7-0.2-1-1-1h-0.3v-0.2h6l0.1,1.7H4.4c-0.2-1.1-0.5-1.3-0.9-1.3H0.8v3.1h2.3
			c0.5,0,0.7-0.2,0.7-0.9h0.2L4.1,396.6L4.1,396.6z"/>
		<path fill="#231F20" d="M11.3,399.4l-3.2-6.7h0l-0.3,5.7c0,0.6,0.4,0.8,1,0.8v0.2H6.1v-0.2c0.9,0,1-0.2,1.1-1.3l0.3-4.9
			c0-0.8,0-1.1-0.8-1.1v-0.2h1.9l3,6.3l3-6.3h1.9v0.2c-0.6,0-0.9,0.1-0.8,0.5l0.4,5.7c0.1,1.2,0.2,1.2,1.1,1.2v0.2H14v-0.2
			c0.6,0,1.2-0.2,1.1-0.8l-0.4-5.6h0l-3.1,6.7L11.3,399.4L11.3,399.4z"/>
		<path fill="#231F20" d="M19.9,396l-0.7,2c-0.1,0.2-0.3,0.6-0.3,0.8c0,0.3,0.3,0.5,1,0.5h0.2v0.2h-2.9v-0.2c0.8,0,1-0.2,1.4-1.3
			l2.3-6.3l-0.1-0.3h1.1l2.6,7c0.3,0.7,0.5,0.8,1.1,0.8v0.2h-3.5v-0.2h0.3c0.7,0,1-0.1,1-0.4c0-0.2-0.1-0.4-0.1-0.5l-0.8-2.3H19.9z
			 M21.2,392.5l-1.1,2.9h2.2L21.2,392.5z"/>
		<path fill="#231F20" d="M29.2,398.3c0,0.7,0.2,0.9,1,0.9h0.5v0.2h-4v-0.2h0.5c0.8,0,1-0.2,1-0.9v-6.2H26c-0.5,0-0.7,0.3-0.9,1.4
			h-0.2l0.2-2h0.2c0,0.1,0.1,0.1,0.1,0.2c0.1,0,0.2,0,0.3,0h6.1c0.2,0,0.4,0,0.4-0.2h0.2l0.2,2h-0.2c-0.2-1.1-0.4-1.4-0.9-1.4h-2.2
			L29.2,398.3L29.2,398.3z"/>
		<path fill="#231F20" d="M36.4,399.4h-3.1v-0.2c0.8,0,0.9-0.2,0.9-1.1v-5.4c0-0.7-0.2-0.9-0.9-0.9v-0.2h3.1v0.2
			c-0.8,0-1.1,0.2-1.1,1v5.3c0,0.7,0.2,1,1.1,1V399.4z"/>
		<path fill="#231F20" d="M44.9,393.7c-0.4-1.2-1.5-1.9-2.9-1.9c-2.1,0-3.4,1.5-3.4,3.6c0,2.3,1.6,4,3.5,4c1,0,2.2-0.3,3.1-1.9h0.2
			c-0.2,0.6-0.5,1.3-0.8,1.8c-0.8-0.1-1.4,0.3-2.8,0.3c-2.6,0-4.4-1.7-4.4-4c0-2.4,1.9-4.2,4.5-4.2c1.6,0,2.3,0.5,2.7,0.5
			c0.1,0,0.2,0,0.2-0.1h0.2l0.1,1.8H44.9z"/>
		<path fill="#231F20" d="M48.3,396l-0.7,2c-0.1,0.2-0.3,0.6-0.3,0.8c0,0.3,0.3,0.5,1,0.5h0.2v0.2h-2.9v-0.2c0.8,0,1-0.2,1.4-1.3
			l2.3-6.3l-0.1-0.3h1.1l2.6,7c0.3,0.7,0.5,0.8,1.1,0.8v0.2h-3.5v-0.2h0.3c0.7,0,1-0.1,1-0.4c0-0.2-0.1-0.4-0.1-0.5l-0.8-2.3H48.3z
			 M49.6,392.5l-1.1,2.9h2.2L49.6,392.5z"/>
		<path fill="#231F20" d="M59.6,399.4H54v-0.2h0.4c0.6,0,0.8-0.2,0.8-0.8v-5.6c0-0.7-0.2-0.9-1-0.9H54v-0.2h3.7v0.2h-0.5
			c-0.8,0-1,0.1-1,0.9v5.8c0,0.3,0.1,0.5,0.5,0.5h1.9c0.7,0,1-0.3,1.8-1.4h0.2L59.6,399.4z"/>
		<path fill="#231F20" d="M-108.1,405.9v0.2c-0.7,0-0.9,0.1-1.1,0.2c-0.3,0.3-0.9,1.6-1.9,2.7c0.7,1.1,0.9,1.8,1.5,1.8
			c0.3,0,0.6-0.1,1-0.4l0.1,0.2c-0.5,0.4-1.1,0.7-1.5,0.7c-0.8,0-1-0.3-1.7-1.6c-0.9,1-2,1.6-2.9,1.6c-1.1,0-2-0.9-2-2.1
			c0-1,0.6-1.7,2.2-2.3c-0.5-0.5-0.9-1.1-0.9-1.6c0-0.9,0.7-1.5,1.7-1.5c0.9,0,1.6,0.5,1.6,1.2c0,0.6-0.5,1.1-1.4,1.6
			c0.8,0.6,1.6,1.3,2.2,2.2c0.6-0.7,1.6-2.2,1.6-2.5c0-0.2-0.1-0.3-0.7-0.3v-0.2H-108.1z M-114,410.7c0.7,0,1.7-0.5,2.2-1.1
			c-0.6-0.9-1.3-1.8-2.4-2.5c-1,0.7-1.3,1.3-1.3,2C-115.5,410.1-114.9,410.7-114,410.7z M-113.6,404.1c-0.5,0-0.8,0.4-0.8,0.9
			c0,0.5,0.3,1,0.9,1.5c0.6-0.3,0.8-0.7,0.8-1.4C-112.7,404.5-113.1,404.1-113.6,404.1z"/>
		<path fill="#231F20" d="M-37.3,409.3c0.3,1.1,1.1,1.8,2.1,1.8c0.8,0,1.7-0.5,1.7-1.5c0-1.8-4-2.4-4-4.6c0-1,1-1.8,2.2-1.8
			c1.1,0,1.3,0.3,1.7,0.3c0.1,0,0.1,0,0.2-0.1h0.2l0.2,1.6h-0.2c-0.4-0.9-1.2-1.5-2-1.5c-0.8,0-1.4,0.5-1.4,1.2c0,1.8,4,2.3,4,4.6
			c0,1.2-1.1,2.2-2.6,2.2c-0.7,0-1.6-0.3-1.8-0.3c-0.1,0-0.2,0.1-0.3,0.1h-0.2l-0.3-1.9L-37.3,409.3L-37.3,409.3z"/>
		<path fill="#231F20" d="M-24,405.4c-0.4-1.2-1.5-1.9-2.9-1.9c-2.1,0-3.4,1.5-3.4,3.6c0,2.3,1.6,4,3.5,4c1,0,2.2-0.3,3.1-1.9h0.2
			c-0.2,0.6-0.5,1.3-0.8,1.8c-0.8-0.1-1.4,0.3-2.8,0.3c-2.6,0-4.4-1.7-4.4-4c0-2.4,1.9-4.2,4.5-4.2c1.6,0,2.3,0.5,2.7,0.5
			c0.1,0,0.2,0,0.2-0.1h0.2l0.1,1.8C-23.8,405.4-24,405.4-24,405.4z"/>
		<path fill="#231F20" d="M-19.4,411.2h-3.1v-0.2c0.8,0,0.9-0.2,0.9-1.1v-5.4c0-0.7-0.2-0.9-0.9-0.9v-0.2h3.1v0.2
			c-0.8,0-1.1,0.2-1.1,1v5.3c0,0.7,0.2,1,1.1,1V411.2z"/>
		<path fill="#231F20" d="M-12.6,408.4h-0.2c-0.1-0.9-0.3-1-0.9-1h-2.1v2.7c0,0.6,0.2,0.7,0.7,0.7h1.9c0.9,0,1.1-0.3,1.5-1.4h0.2
			l-0.2,1.9h-6.7v-0.2h0.4c1,0,1.2-0.3,1.2-1v-5.3c0-0.7-0.2-1-1-1h-0.3v-0.2h6l0.1,1.7h-0.2c-0.2-1.1-0.5-1.3-0.9-1.3h-2.7v3.1h2.3
			c0.5,0,0.7-0.2,0.7-0.9h0.2L-12.6,408.4L-12.6,408.4z"/>
		<path fill="#231F20" d="M-2.1,411.3l-6.5-6.8v5.4c0,0.9,0.2,1.1,1.3,1.1v0.2h-2.9V411h0.1c0.8,0,1-0.3,1-0.8v-6.2
			c-0.3-0.2-0.6-0.3-1.1-0.3v-0.2h2l5.9,6.2v-5c0-0.8-0.2-0.9-1.2-0.9v-0.2h2.9v0.2c-0.9,0-1.1,0.2-1.1,0.7v7H-2.1z"/>
		<path fill="#231F20" d="M7.3,405.4c-0.4-1.2-1.5-1.9-2.9-1.9c-2.1,0-3.4,1.5-3.4,3.6c0,2.3,1.6,4,3.6,4c1,0,2.2-0.3,3.1-1.9h0.2
			c-0.2,0.6-0.5,1.3-0.8,1.8c-0.8-0.1-1.4,0.3-2.8,0.3c-2.6,0-4.4-1.7-4.4-4c0-2.4,1.9-4.2,4.5-4.2c1.6,0,2.3,0.5,2.7,0.5
			c0.1,0,0.2,0,0.2-0.1h0.2l0.1,1.8C7.5,405.4,7.3,405.4,7.3,405.4z"/>
		<path fill="#231F20" d="M14.2,408.4H14c-0.1-0.9-0.3-1-0.9-1H11v2.7c0,0.6,0.2,0.7,0.7,0.7h1.9c0.9,0,1.1-0.3,1.5-1.4h0.2
			l-0.2,1.9H8.4v-0.2h0.4c1,0,1.2-0.3,1.2-1v-5.3c0-0.7-0.2-1-1-1H8.7v-0.2h6l0.1,1.7h-0.2c-0.2-1.1-0.5-1.3-0.9-1.3H11v3.1h2.3
			c0.5,0,0.7-0.2,0.7-0.9h0.2L14.2,408.4L14.2,408.4z"/>
		<path fill="#231F20" d="M16.5,409.3c0.3,1.1,1.1,1.8,2.1,1.8c0.8,0,1.7-0.5,1.7-1.5c0-1.8-4-2.4-4-4.6c0-1,1-1.8,2.2-1.8
			c1.1,0,1.3,0.3,1.7,0.3c0.1,0,0.1,0,0.2-0.1h0.2l0.2,1.6h-0.2c-0.4-0.9-1.2-1.5-2-1.5c-0.8,0-1.4,0.5-1.4,1.2c0,1.8,4,2.3,4,4.6
			c0,1.2-1.1,2.2-2.6,2.2c-0.7,0-1.6-0.3-1.7-0.3c-0.1,0-0.2,0.1-0.3,0.1h-0.2l-0.3-1.9L16.5,409.3L16.5,409.3z"/>
		<g>
			<g>
				<g>
					<path fill="#FFFFFF" d="M-150.3,396.9c0,5.8,4.7,10.5,10.5,10.5c5.8,0,10.5-4.7,10.5-10.5c0-5.8-4.7-10.5-10.5-10.5
						C-145.6,386.3-150.3,391-150.3,396.9z"/>
				</g>
				<path fill="#FFD420" d="M-129.3,396.6c0,0-0.2,0.2-0.4,0.3c0,0,0,0,0,0c-0.3,0.1-0.7,0.3-1.1,0.4c-0.5,0.1-1.1,0.2-1.8,0.3
					c-0.7,0.1-1.4,0.2-2.2,0.3l0,0c-1,0.1-1.7,0.1-2.5,0.2c-0.9,0-1.8,0.1-2.7,0.1c0,0.1,0,0.2,0,0.4c0,0.8,0,1.6,0,2.4
					c0,4,0,4,0.1,6.5c5.8,0,10.5-4.7,10.5-10.5C-129.3,396.9-129.3,396.7-129.3,396.6z"/>
				<path fill="#231F20" d="M-135.9,406.3L-135.9,406.3L-135.9,406.3z"/>
				<g>
					<path fill="#231F20" d="M-139.9,398.6c0,0.8,0,1.6,0,2.4c1.7,1.6,1.7,1.6,2.4,2.3c0.2-1.3,0.3-2.9,0.3-4.7c0-0.1,0-0.2,0-0.3
						c-1.1,0-1.8,0.1-2.7,0.1C-139.9,398.3-139.9,398.4-139.9,398.6z"/>
					<path fill="#231F20" d="M-136.1,405c-0.4-0.6-0.7-1-1.5-1.8c-0.4,2.6-1,4.1-1.8,4.2c0.1,0,0.2,0,0.2,0c0.1,0,0.2,0,0.3,0
						C-137.7,407.3-136.8,406.4-136.1,405z"/>
					<path fill="#231F20" d="M-134.9,400.7c0,0-0.6,3.2-1.2,4.3c0.3,0.6,0.3,0.9,0.2,1.3c1-0.8,1.9-1.9,2.4-3.4
						C-133.8,402.2-134,401.8-134.9,400.7z"/>
					<path fill="#231F20" d="M-137.9,407.2c0.2,0,0.2,0,0.6-0.1l0.3-0.1c0.8-0.2,0.9-0.4,1.2-0.7c-0.7,0.5-1.4,0.8-2.3,1
						L-137.9,407.2z"/>
					<path fill="#231F20" d="M-133.2,404.7c1.5-1.7,2.4-4.2,2.4-6.9c0-0.1,0-0.2,0-0.4c-0.5,0.1-1.1,0.2-1.8,0.4c0,0.1,0,0.2,0,0.4
						c0,1.8-0.3,3.4-0.9,4.8C-133.1,403.7-133.1,404.1-133.2,404.7z"/>
					<path fill="#231F20" d="M-134.8,398c-1,0.1-1.7,0.1-2.5,0.2c1.4,1.5,1.8,1.9,2.4,2.6c0.1-0.7,0.1-1.5,0.1-2.4
						C-134.8,398.2-134.8,398.1-134.8,398z"/>
				</g>
				<path fill="#231F20" d="M-142.1,386.9c0.6-0.2,1.1-0.5,2.3-0.5l0,0C-140.6,386.4-141.4,386.6-142.1,386.9"/>
				<g>
					<path fill="#E03A3E" d="M-132.7,397.7c-0.5-0.1-1-1-0.8-1.9c-0.8,0.5-1.6-0.6-1.5-1.6c0.1-0.5,0.4-1,1-0.8
						c-0.3-0.9-0.6-1.7-0.9-2.4c-0.5,0.1-1.1,0.1-1.8,0.2c0.6,0.9,0,1.6-0.8,1.5c-0.6-0.1-1.1-0.7-0.9-1.4c-0.5,0.3-1.4,0.2-1.5-0.8
						c0,2.1,0,4.9,0,7.7c2.8,0,6.1-0.3,7.4-0.5c0,0,0,0,0,0C-132.6,397.7-132.7,397.7-132.7,397.7z"/>
				</g>
				<g>
					<path fill="#E03A3E" d="M-146.6,399.8c0.8-0.3,1.8,1.1,1.4,2c-0.2,0.4-0.6,0.5-1,0.3c0.2,0.8,0.5,1.5,0.9,2.2
						c0.6,0.1,1.2,0.1,1.9,0.2c-0.5-0.7-0.1-1.2,0.6-1.2c0.6,0,1.5,0.6,1.3,1.3c0.6-0.3,1.5-0.1,1.6,0.7c0-1.6,0-3.9-0.1-6.6
						c0-0.1,0-0.2,0-0.4c-0.9,0-1.8,0-2.7-0.1c-1.9-0.1-3.2-0.2-4.8-0.5c0,0,0,0,0,0C-146.6,398-146.4,399.2-146.6,399.8z"/>
				</g>
				<path fill="#E03A3E" d="M-134.8,390.1L-134.8,390.1L-134.8,390.1C-134.8,390.1-134.8,390.1-134.8,390.1L-134.8,390.1
					C-134.8,390.1-134.8,390.1-134.8,390.1c0.1,0,0.2,0,0.3-0.1c0.6-0.1,2-0.4,2-0.8c0,0,0.5,0.5,0.9,1.3c0,0.1,0.1,0.2,0.1,0.3
					c0,0.1,0.1,0.3,0.1,0.4c0,0.2-0.2,0.2-0.3,0.2c0,0,0,0,0,0c-0.5-0.2-0.7-0.7-0.8-0.9c-0.3,0.1-0.7,0.3-1.1,0.4c0,0-0.1,0-0.2,0
					c0.4,0.7,0.9,1.6,1.2,2.5c0.5-0.5,1.4,0.5,1.4,1.4c0,0.6-0.2,1.1-0.8,0.9c0.4,0.8,0.3,1.9-0.5,2.2
					C-132.7,395.2-133.1,392.9-134.8,390.1L-134.8,390.1L-134.8,390.1"/>
				<path fill="#E03A3E" d="M-134.8,390.1L-134.8,390.1L-134.8,390.1L-134.8,390.1L-134.8,390.1c-1.3-2.1-2.4-2.8-3.8-3.3
					c-0.3-0.1-1.2-0.5-1.2-0.5l0,0l0,0c0.2,0.4,0.7,0.6,0.8,0.6c0,0.1,0,0.4,0.4,0.7c0.1,0,0.1,0.1,0.2,0.1c0.7,0.4,0.8,0.1,0.9,0
					c0,0,0,0,0,0c0.2,0.2,0.6,0.5,1.1,1c0.3,0.3,0.5,0.6,0.7,0.9c-0.4,0.1-1,0.1-1.5,0.1c0-0.7-0.5-1-0.8-1.1
					c-0.7-0.2-0.9,0.5-0.6,1.1c-0.5-0.3-1.2,0-1.2,0.8C-137.8,390.5-136.4,390.4-134.8,390.1L-134.8,390.1L-134.8,390.1"/>
				<path fill="#E03A3E" d="M-134.7,388.2C-134.7,388.2-134.7,388.2-134.7,388.2c0-0.1,0-0.1,0-0.1s0,0,0.1-0.1
					c0.1-0.1,0.4-0.1,1.3,0.5c-1.8-1.4-3.8-2-5.5-2.2c-0.2,0-0.7,0-0.7,0c0.5,0,0.9,0.2,1,0.2c0.1,0,0.1,0.1,0.2,0.1c0,0,0,0,0,0
					c0.1,0,0.2,0,0.4,0.1c0.2,0,0.4,0.1,0.7,0.3c0.2,0.1,0.6,0.4,0.6,0.5c-0.1,0-0.1,0-0.2,0c0.6,0.4,1.5,1.3,2,1.9
					c0.4-0.1,0.9-0.1,1.2-0.2C-133.7,389.2-134.5,388.6-134.7,388.2z"/>
				<path fill="#E03A3E" d="M-145.4,404.8c-0.9-0.2-1.4-0.3-1.8-0.5c-0.1,0-0.1,0-0.1,0c0,0-0.5-0.5-1-1.1c-0.3-0.4-0.6-0.9-0.6-0.9
					c0,0,0.1,0,0.1,0c0.5,0.2,1.2,1.4,1.2,1.5c0.3,0.1,0.7,0.2,1.1,0.3c-0.4-0.7-0.8-1.4-1.1-2.2c-0.7,0.3-1.5-1.4-1.2-2.1
					c0.1-0.2,0.2-0.5,0.7-0.1c-0.3-0.8-0.2-1.9,0.6-1.9C-147.4,400.2-147.1,402.4-145.4,404.8"/>
				<path fill="#E03A3E" d="M-139.9,405.3c-0.1,0.4-0.6,0.7-1.3,0.4c0.3,0.4,0,0.8-0.5,0.7c-0.5-0.1-1-0.5-1.1-0.8
					c-0.6,0-1.1-0.1-1.6-0.2c0.4,0.5,0.9,0.9,1.5,1.2c0.1,0,0.2,0,0.5,0.1c0.4,0.1,0.8,0.3,1.2,0.5c0,0-0.1,0-0.1,0
					c-0.3-0.1-0.4-0.1-0.6-0.1c-0.8-0.2-2.1-0.6-3.5-2.4l0,0l0,0l0,0c1.6,0.3,3.2,0.4,5.5,0.4C-139.9,405.2-139.9,405.3-139.9,405.3
					"/>
				<path fill="#FFD420" d="M-139.8,386.3c-5.7,0-10.4,4.6-10.5,10.3l0,0c0,0,0.1,0.1,0.3,0.3l0,0l0,0c0.2,0.1,0.6,0.3,1,0.4
					c0.5,0.1,1.1,0.3,1.6,0.3l0,0c1.6,0.3,2.9,0.4,4.8,0.5c0.9,0,1.8,0.1,2.7,0.1c0-0.5,0-3.6,0-6.6c0-0.4,0-0.8,0-1.2
					C-139.9,388.5-139.8,386.6-139.8,386.3L-139.8,386.3z"/>
				<path fill="#231F20" d="M-134.8,406.1c-0.6,0.3-0.7,0.3-1.5,0.7c-0.2,0.1-0.4,0.1-0.7,0.2c1.4-0.4,3.4-2,3.7-2.4
					c-0.2,0.4-0.3,0.6-0.7,1C-134.1,405.7-134.6,406-134.8,406.1z"/>
				<path fill="#231F20" d="M-149.1,397.3c-0.4-0.1-0.8-0.3-1-0.4c0.1-3.8,2.2-7.2,5.3-9c-0.7,0.6-1.1,1-1.4,1.9
					C-147.9,391.8-149,394.5-149.1,397.3"/>
				<path fill="#231F20" d="M-144.7,387.9c0.8-0.6,1.2-1,2.4-1.3c0.9-0.2,1.6-0.3,2.5-0.3l0,0C-141.6,386.4-143.3,387-144.7,387.9"
					/>
				<path fill="#231F20" d="M-145.3,398c-0.8-0.1-1.5-0.2-2.2-0.3c0-1.9,0.4-3.7,1.1-5.4c0.3,1.1,0.5,1.6,1.2,2.9
					C-145.2,396.1-145.3,397-145.3,398"/>
				<path fill="#231F20" d="M-139.9,390.5c0,1.2,0,2.4,0,3.3c0,0.9,0,1.6,0,1.7c-1-1.1-1.6-1.7-2.4-2.7c0.5-3.3,1.4-5.9,2.5-6.5l0,0
					l0,0C-139.8,386.6-139.9,388.5-139.9,390.5z"/>
				<g>
					<path fill="#231F20" d="M-143.6,390.3c-0.7,1.4-1.2,3.1-1.4,4.9c0.6,1,1,1.5,2.3,2.9c0-1.9,0.2-3.7,0.4-5.4
						C-143.1,391.7-143.3,391.2-143.6,390.3z"/>
				</g>
				<path fill="#231F20" d="M-129.6,397c0,0.1,0,0.2,0,0.3c0,3.7-1.8,6.8-4.7,8.5l-0.1,0.1c1.3-0.8,3-2.2,4.1-4.5
					c1.2-2.3,1-4.8,1-4.8C-129.3,396.7-129.5,396.9-129.6,397z"/>
				<g>
					<path fill="#231F20" d="M-142.1,386.9c-1.5,0.6-2.9,1.6-4,2.9c-0.3,1-0.3,1.5-0.2,2.5c0.7-1.6,1.6-3,2.8-4
						C-143.2,387.7-143,387.3-142.1,386.9z"/>
				</g>
				<path fill="#231F20" d="M-143.6,390.4c-0.2-0.9-0.2-1.3,0.1-2c1.1-1,2.4-1.8,3.7-2C-141.3,386.7-142.6,388.3-143.6,390.4"/>
				<path fill="#231F20" d="M-152.5,389.1L-152.5,389.1c0,0.2,0,0.4,0.2,0.5l0.9,0.4c0.4,0.2,0.7,0.7,0.3,1.3
					c-0.3,0.6-0.8,0.7-1.3,0.5l-0.9-0.5c-0.2-0.1-0.3-0.1-0.4,0.2l-0.1,0l0.4-0.8l0.1,0l0,0c-0.1,0.2-0.1,0.3,0.1,0.4l0.9,0.4
					c0.4,0.2,0.8,0.1,1-0.4c0.2-0.4,0.2-0.8-0.3-1.1l-0.7-0.4c-0.3-0.2-0.4-0.1-0.5,0.1l-0.1,0L-152.5,389.1z"/>
				<path fill="#231F20" d="M-148.8,388l-2.7,0.2l1.2,1c0.2,0.2,0.3,0.2,0.5-0.1l0.1,0l-0.5,0.6l0,0l0,0c0.1-0.2,0.1-0.3,0-0.4
					l-1.3-1.1c-0.1,0-0.2,0.1-0.3,0.2l0,0l0.4-0.4l2.4-0.2l-1.1-0.9c-0.2-0.1-0.2-0.1-0.4,0.1l-0.1,0l0.5-0.6l0,0
					c-0.2,0.2-0.2,0.3-0.1,0.4L-148.8,388L-148.8,388z"/>
				<path fill="#231F20" d="M-147.5,386.9l-0.7,0.5l0-0.1c0.2-0.1,0.2-0.2,0-0.4l-1-1.2c-0.1-0.1-0.2-0.1-0.4,0l0-0.1l0.7-0.6l0,0.1
					c-0.2,0.1-0.2,0.2-0.1,0.4l1,1.2C-147.8,386.9-147.8,387-147.5,386.9L-147.5,386.9z"/>
				<path fill="#231F20" d="M-146.2,386l-1.6-1.3c-0.2-0.1-0.3-0.2-0.4-0.1l0-0.1l0.8-0.5l0,0.1c-0.3,0.2-0.3,0.3-0.2,0.4l1.4,1
					l-0.3-1.5c0-0.1,0-0.2-0.1-0.2c-0.1-0.1-0.2-0.1-0.4,0l0-0.1l0.7-0.4l0,0.1c-0.2,0.1-0.2,0.2-0.2,0.4l0.3,2L-146.2,386z"/>
				<path fill="#231F20" d="M-143.6,384L-143.6,384c-0.2-0.2-0.2-0.2-0.4-0.2l-0.6,0.2l0.2,0.7c0.1,0.2,0.1,0.2,0.2,0.1l0.5-0.2
					c0.2-0.1,0.3-0.2,0.3-0.5l0.1,0l0.1,0.5l-1.8,0.6l0-0.1l0.1,0c0.3-0.1,0.3-0.2,0.2-0.4l-0.5-1.4c-0.1-0.2-0.1-0.3-0.4-0.2
					l-0.1,0l0-0.1l1.6-0.6l0.2,0.5l-0.1,0c-0.1-0.3-0.2-0.3-0.4-0.3l-0.7,0.2l0.3,0.8l0.6-0.2c0.1,0,0.2-0.1,0.1-0.3l0.1,0
					L-143.6,384z"/>
				<path fill="#231F20" d="M-142.3,382.2c0.1,0,0.1,0,0.2,0c0.5-0.1,0.7,0.2,0.8,0.5c0.1,0.4-0.2,0.6-0.6,0.7c-0.1,0-0.1,0-0.2,0
					L-142.3,382.2z M-142.1,383.5c0.1,0,0.1,0,0.2,0c0.1,0,0.2,0,0.2,0c0.1,0,0.2,0.1,0.4,0.3l0.3,0.2c0.4,0.3,0.5,0.4,1.1,0.3
					l0-0.1c-0.3,0-0.5-0.1-0.7-0.3l-0.3-0.2c-0.2-0.1-0.3-0.2-0.4-0.3c0.3-0.1,0.4-0.4,0.4-0.6c0-0.4-0.4-0.6-1-0.5
					c-0.2,0-0.3,0-0.4,0.1c-0.1,0-0.4,0.1-0.4,0.1l0,0.1l0.1,0c0.2,0,0.3,0,0.3,0.3l0.2,1.5c0,0.2,0,0.3-0.2,0.3l-0.1,0l0,0.1l1-0.1
					l0-0.1l-0.1,0c-0.2,0-0.3,0-0.3-0.2L-142.1,383.5z"/>
				<path fill="#231F20" d="M-139.4,383.7c0.1,0.3,0.3,0.5,0.6,0.5c0.2,0,0.5-0.1,0.5-0.4c0-0.5-1.1-0.8-1-1.4
					c0-0.3,0.3-0.5,0.7-0.5c0.3,0,0.4,0.1,0.5,0.1c0,0,0,0,0.1,0l0.1,0l0,0.5l-0.1,0c-0.1-0.3-0.3-0.4-0.5-0.5
					c-0.2,0-0.4,0.1-0.4,0.3c0,0.5,1.1,0.7,1,1.4c0,0.3-0.4,0.6-0.8,0.5c-0.2,0-0.4-0.1-0.5-0.1c0,0-0.1,0-0.1,0l-0.1,0
					L-139.4,383.7L-139.4,383.7z"/>
				<path fill="#231F20" d="M-136.7,384.6l-0.8-0.2l0-0.1c0.2,0,0.3,0,0.3-0.2l0.3-1.5c0-0.2,0-0.3-0.2-0.3l0-0.1l0.8,0.2l0,0.1
					c-0.2,0-0.3,0-0.4,0.2l-0.3,1.5C-136.9,384.4-136.9,384.5-136.7,384.6L-136.7,384.6z"/>
				<path fill="#231F20" d="M-134.9,384.9c-0.1,0.2,0,0.3,0.2,0.3l0.1,0l0,0.1l-1-0.4l0-0.1l0.1,0c0.2,0.1,0.3,0,0.4-0.1l0.6-1.6
					l-0.6-0.2c-0.1-0.1-0.2,0-0.4,0.3l-0.1,0l0.3-0.5l0.1,0c0,0,0,0,0,0.1c0,0,0,0,0.1,0l1.6,0.6c0,0,0.1,0,0.1,0l0.1,0l-0.2,0.6
					l-0.1,0c0.1-0.3,0-0.4-0.1-0.5l-0.6-0.2L-134.9,384.9z"/>
				<path fill="#231F20" d="M-131.3,385.1c0.2-0.1,0.2-0.2,0-0.3l0-0.1l0.7,0.4l0,0.1c-0.2-0.1-0.3-0.1-0.5,0l-1,0.5l-0.3,0.4
					c-0.1,0.2-0.1,0.3,0.1,0.4l0,0l0,0.1l-0.8-0.5l0-0.1l0.1,0c0.2,0.1,0.3,0.1,0.4-0.1l0.3-0.4l0-1.2c0-0.3,0-0.4-0.2-0.5l0-0.1
					l0.8,0.5l0,0.1c-0.2-0.2-0.3-0.1-0.3,0.1l0,1L-131.3,385.1z"/>
				<path fill="#231F20" d="M-128.3,389.3c-0.4,0.3-1,0.4-1.3-0.1c-0.3-0.5-0.3-1.1,0.3-1.5c0.3-0.3,1-0.4,1.3,0.1
					C-127.7,388.3-127.8,388.9-128.3,389.3z M-128,389.5c0.5-0.4,0.5-1.1,0.1-1.7c-0.5-0.6-1.2-0.7-1.7-0.3
					c-0.5,0.4-0.5,1.1-0.1,1.7C-129.4,389.8-128.6,389.9-128,389.5z"/>
				<path fill="#231F20" d="M-127.3,391.7L-127.3,391.7c0.2-0.2,0.2-0.2,0.1-0.4l-0.3-0.6l-0.7,0.3c-0.2,0.1-0.2,0.2-0.1,0.4l-0.1,0
					l-0.4-0.8l0.1,0c0.1,0.2,0.2,0.2,0.4,0.1l1.3-0.6c0.2-0.1,0.3-0.2,0.2-0.4l0.1,0l0.7,1.4l-0.4,0.2l0-0.1
					c0.2-0.1,0.2-0.2,0.1-0.4l-0.3-0.6l-0.8,0.4l0.3,0.6c0.1,0.1,0.2,0.1,0.3,0.1l0,0.1L-127.3,391.7z"/>
				<path fill="#231F20" d="M-152.1,405.6l1.3-2.4l0,0l-1.7,1.1c-0.2,0.1-0.1,0.3,0,0.5l-0.1,0l-0.6-0.8l0.1,0
					c0.2,0.3,0.3,0.3,0.6,0l1.5-0.9c0.3-0.2,0.3-0.2,0.2-0.5l0.1-0.1l0.4,0.6l-1.2,2.2l2.5-0.5l0.4,0.5l-0.1,0
					c-0.1-0.2-0.2-0.2-0.3-0.1l-1.6,1.3c-0.3,0.3-0.3,0.3-0.1,0.6l-0.1,0.1l-0.7-0.9l0.1,0c0.1,0.2,0.3,0.3,0.5,0.1l1.6-1.3l0,0
					L-152.1,405.6L-152.1,405.6z"/>
				<path fill="#231F20" d="M-147.6,408.1l-0.6-0.5l0.9-0.6L-147.6,408.1z M-147.7,408.3l-0.2,0.8c0,0,0,0.1-0.1,0.2
					c-0.1,0.1-0.2,0.1-0.4-0.1l-0.1-0.1l-0.1,0.1l1,0.7l0-0.1c-0.2-0.1-0.2-0.2-0.2-0.5l0.7-2.6l-0.3-0.2l0,0.1l-2,1.3
					c-0.3,0.2-0.4,0.2-0.7,0.1l-0.1,0.1l0.8,0.6l0.1-0.1l-0.1,0c-0.2-0.1-0.3-0.3-0.2-0.4c0-0.1,0.2-0.1,0.2-0.2l0.6-0.4
					L-147.7,408.3z"/>
				<path fill="#231F20" d="M-144.8,408.2c0.1,0,0.1,0,0.2,0.1c0.7,0.2,0.7,0.6,0.6,1c-0.2,0.5-0.6,0.6-1,0.4
					c-0.1,0-0.2-0.1-0.3-0.1L-144.8,408.2z M-145.3,409.7c0.1,0,0.1,0.1,0.2,0.1c0.1,0,0.2,0.1,0.3,0.1c0.1,0.1,0.2,0.3,0.3,0.5
					l0.2,0.4c0.2,0.5,0.4,0.7,1.1,1l0-0.1c-0.3-0.1-0.5-0.4-0.7-0.7l-0.2-0.5c-0.1-0.3-0.2-0.4-0.3-0.6c0.4,0,0.7-0.2,0.8-0.5
					c0.2-0.4-0.1-0.9-0.9-1.2c-0.3-0.1-0.4-0.1-0.5-0.2c-0.2-0.1-0.4-0.1-0.5-0.2l0,0.1l0.1,0c0.2,0.1,0.3,0.2,0.2,0.5l-0.6,1.8
					c-0.1,0.3-0.2,0.3-0.5,0.2l-0.1,0l0,0.1l1.2,0.4l0-0.1l-0.1,0c-0.2-0.1-0.3-0.2-0.2-0.4L-145.3,409.7z"/>
				<path fill="#231F20" d="M-140.2,409.6c0.2-0.2,0.1-0.3-0.2-0.3l0-0.1l1,0.1l0,0.1c-0.3,0-0.5,0.1-0.6,0.3l-0.9,1.2l-0.1,0.7
					c0,0.2,0.1,0.3,0.3,0.4l0.1,0l0,0.1l-1.2-0.1l0-0.1l0.1,0c0.3,0,0.4-0.1,0.4-0.3l0.1-0.6l-0.7-1.3c-0.2-0.4-0.3-0.4-0.6-0.5
					l0-0.1l1.2,0.1l0,0.1c-0.4,0-0.4,0.1-0.3,0.3l0.6,1.2L-140.2,409.6z"/>
				<path fill="#231F20" d="M-136.4,411.6l-2,0.3l0-0.1l0.1,0c0.2,0,0.3-0.1,0.2-0.3l-0.3-2c0-0.2-0.1-0.3-0.4-0.3l-0.1,0l0-0.1
					l1.3-0.2l0,0.1l-0.2,0c-0.3,0.1-0.4,0.1-0.3,0.4l0.3,2.1c0,0.1,0.1,0.2,0.2,0.1l0.7-0.1c0.3,0,0.3-0.2,0.5-0.6l0.1,0
					L-136.4,411.6z"/>
				<path fill="#231F20" d="M-134.2,409.4l-0.7,0.3l-0.1-1.1L-134.2,409.4z M-134.1,409.5l0.6,0.6c0,0,0.1,0.1,0.1,0.2
					c0,0.1,0,0.2-0.3,0.3l-0.1,0l0,0.1l1.1-0.5l0-0.1c-0.2,0.1-0.3,0.1-0.5-0.1l-1.8-2l-0.4,0.2l0.1,0.1l0.1,2.4
					c0,0.4,0,0.5-0.3,0.6l0,0.1l1-0.4l0-0.1l-0.1,0c-0.2,0.1-0.4,0.1-0.4,0c0-0.1,0-0.2,0-0.3l0-0.8L-134.1,409.5z"/>
				<path fill="#231F20" d="M-129.2,407.8l-3.4-0.4l1.2,1.5c0.2,0.3,0.3,0.3,0.6,0l0.1,0.1l-0.8,0.7l-0.1-0.1l0,0
					c0.2-0.2,0.2-0.3,0.1-0.5l-1.4-1.7c-0.1,0-0.2,0.1-0.4,0.2l-0.1-0.1l0.5-0.5l3.1,0.4l-1.1-1.4c-0.2-0.2-0.3-0.2-0.6,0l-0.1-0.1
					l0.8-0.7l0.1,0.1c-0.3,0.2-0.3,0.3-0.2,0.4L-129.2,407.8L-129.2,407.8z"/>
				<path fill="#231F20" d="M-129.8,404.3c0,0,0.1-0.2,0.2-0.3c0.3-0.5,0.7-0.7,0.9-0.8c0.4-0.1,0.7,0,1,0.2
					c0.4,0.3,0.6,0.6,0.6,0.8c0.1,0.4,0,0.6-0.3,1.2c-0.2,0.3-0.3,0.3-0.4,0.2L-129.8,404.3z M-128.1,405.9c0.2,0.1,0.2,0.3,0.1,0.5
					l0,0.1l0.1,0l0.8-1.2c0.6-1,0.2-1.9-0.4-2.2c-0.6-0.4-1.4-0.3-2.1,0.7c-0.1,0.2-0.3,0.4-0.4,0.6c-0.1,0.2-0.2,0.4-0.3,0.6
					l0.1,0.1l0-0.1c0.1-0.2,0.2-0.2,0.5-0.1L-128.1,405.9z"/>
				<path fill="#231F20" d="M-154.3,396v1.9c0,0.1,0,0.1,0.1,0.1h0.2v0.1h-0.8v-0.1h0.2c0.1,0,0.1,0,0.1-0.1v-1.7
					c-0.1,0.1-0.3,0.2-0.4,0.3l0,0c0.2-0.1,0.5-0.4,0.6-0.5H-154.3z"/>
				<path fill="#231F20" d="M-152.4,397.6c0,0.3-0.2,0.5-0.4,0.5c-0.3,0-0.4-0.2-0.4-0.5c0-0.2,0.1-0.4,0.3-0.5
					C-152.6,397.3-152.4,397.4-152.4,397.6z M-152.2,396.5c0-0.3-0.3-0.5-0.6-0.5c-0.3,0-0.6,0.2-0.6,0.5c0,0.2,0.1,0.4,0.5,0.5
					c-0.3,0.1-0.5,0.3-0.5,0.5c0,0.3,0.3,0.5,0.6,0.5c0.4,0,0.7-0.3,0.7-0.6c0-0.3-0.2-0.4-0.5-0.6
					C-152.4,396.8-152.2,396.7-152.2,396.5z M-152.4,396.5c0,0.2-0.1,0.3-0.3,0.5c-0.4-0.2-0.5-0.3-0.5-0.5c0-0.2,0.2-0.4,0.4-0.4
					C-152.6,396-152.4,396.2-152.4,396.5z"/>
				<path fill="#231F20" d="M-127.3,396.2h0.8c0.1,0,0.1,0,0.1,0h0.1l0,0.3h-0.8l0,0.6c0.1-0.1,0.2-0.1,0.4-0.1
					c0.4,0,0.7,0.3,0.7,0.7c0,0.4-0.3,0.7-0.8,0.7c-0.3,0-0.5-0.1-0.5-0.2c0-0.1,0.1-0.1,0.1-0.1c0.2,0,0.2,0.2,0.5,0.2
					c0.3,0,0.5-0.3,0.5-0.6c0-0.3-0.2-0.5-0.5-0.5c-0.1,0-0.3,0-0.4,0.1l0,0L-127.3,396.2z"/>
				<path fill="#231F20" d="M-124.8,397.7c0,0.4-0.2,0.6-0.4,0.6c-0.2,0-0.5-0.2-0.5-0.7c0-0.1,0-0.2,0-0.2c0.2-0.2,0.4-0.2,0.4-0.2
					C-125,397.1-124.8,397.4-124.8,397.7z M-124.8,396.2c-0.7,0.2-1.1,0.7-1.1,1.3c0,0.5,0.3,0.9,0.7,0.9c0.4,0,0.7-0.3,0.7-0.7
					c0-0.3-0.3-0.6-0.6-0.6c-0.2,0-0.3,0.1-0.5,0.2C-125.5,396.8-125.3,396.4-124.8,396.2L-124.8,396.2z"/>
			</g>
		</g>
		<g>
			<path fill="#231F20" d="M-97.3,411.3l-6.5-6.8v5.4c0,0.9,0.2,1.1,1.3,1.1v0.2h-2.9V411h0.1c0.8,0,1-0.3,1-0.8v-6.2
				c-0.3-0.2-0.6-0.3-1.1-0.3v-0.2h2l5.9,6.2v-5c0-0.8-0.2-0.9-1.2-0.9v-0.2h2.9v0.2c-0.9,0-1.1,0.2-1.1,0.7v7H-97.3z"/>
			<path fill="#231F20" d="M-93.1,407.7l-0.7,2c-0.1,0.2-0.3,0.6-0.3,0.8c0,0.3,0.3,0.5,1,0.5h0.2v0.2h-2.9V411c0.8,0,1-0.2,1.4-1.2
				l2.3-6.3l-0.1-0.3h1.1l2.6,7c0.3,0.7,0.5,0.8,1.1,0.8v0.2h-3.5V411h0.3c0.7,0,1-0.1,1-0.4c0-0.2-0.1-0.4-0.1-0.5l-0.8-2.3
				C-90.5,407.7-93.1,407.7-93.1,407.7z M-91.9,404.2l-1.1,2.9h2.2L-91.9,404.2z"/>
			<path fill="#231F20" d="M-83.3,410c0,0.7,0.2,0.9,1,0.9h0.5v0.2h-4v-0.2h0.5c0.8,0,1-0.2,1-0.9v-6.2h-2.2c-0.5,0-0.7,0.3-0.9,1.4
				h-0.2l0.2-2h0.2c0,0.1,0.1,0.1,0.1,0.2c0.1,0,0.2,0,0.3,0h6.1c0.2,0,0.4,0,0.4-0.2h0.2l0.2,2h-0.2c-0.2-1.1-0.4-1.4-0.9-1.4h-2.2
				C-83.3,403.8-83.3,410-83.3,410z"/>
			<path fill="#231F20" d="M-69.7,403.4v0.2c-0.8,0-1.1,0.4-1.1,1.2v3.4c0,1.6-1,3.2-3.7,3.2c-2.4,0-3.6-1.4-3.6-3.2v-3.7
				c0-0.8-0.2-0.9-1.1-0.9v-0.2h3.2v0.2h-0.1c-0.7,0-1,0.2-1,0.9v3.5c0,1.7,1,2.7,2.9,2.7c1.4,0,2.9-0.6,2.9-2.7v-2.9
				c0-1.2-0.2-1.4-1.2-1.5v-0.2L-69.7,403.4L-69.7,403.4z"/>
			<path fill="#231F20" d="M-66.7,410c0,0.8,0.3,0.9,1,0.9h0.3v0.2H-69v-0.2h0.2c0.7,0,1-0.2,1-1v-5.3c0-0.8-0.2-1-0.9-1H-69v-0.2
				c0.3,0,1.1,0,1.6-0.1c0.5,0,0.8,0,1.6,0c2.3,0,3.4,1,3.4,2.2c0,0.9-0.6,1.7-1.7,2c0.5,0.4,0.8,0.7,1.4,1.3l1,1
				c0.7,0.7,1.5,1.2,2.5,1.3v0.2c-2.2,0.1-2.8-0.4-3.9-1.5l-0.8-0.8c-0.6-0.6-1-0.9-1.3-1.1c-0.3,0-0.5,0-0.9,0c-0.3,0-0.4,0-0.6,0
				V410z M-66.7,407.6c0.3,0,0.5,0,0.8,0c1.4,0,2.3-0.6,2.3-2.1c0-1.2-0.5-2.1-2.5-2.1c-0.2,0-0.4,0-0.6,0L-66.7,407.6L-66.7,407.6z
				"/>
			<path fill="#231F20" d="M-56,407.7l-0.7,2c-0.1,0.2-0.3,0.6-0.3,0.8c0,0.3,0.3,0.5,1,0.5h0.2v0.2h-2.9V411c0.8,0,1-0.2,1.4-1.2
				l2.3-6.3l-0.1-0.3h1.1l2.6,7c0.3,0.7,0.5,0.8,1.1,0.8v0.2h-3.5V411h0.3c0.7,0,1-0.1,1-0.4c0-0.2-0.1-0.4-0.1-0.5l-0.8-2.3
				C-53.4,407.7-56,407.7-56,407.7z M-54.7,404.2l-1.1,2.9h2.2L-54.7,404.2z"/>
			<path fill="#231F20" d="M-44,411.2h-5.6v-0.2h0.4c0.6,0,0.8-0.2,0.8-0.8v-5.6c0-0.7-0.2-0.9-1-0.9h-0.2v-0.2h3.7v0.2h-0.5
				c-0.8,0-1,0.1-1,0.9v5.8c0,0.3,0.1,0.5,0.5,0.5h1.9c0.7,0,1-0.3,1.8-1.4h0.2L-44,411.2z"/>
		</g>
	</g>
</g>
</svg>
