<?xml version="1.0" encoding="utf-8"?>
<!-- Generator: Adobe Illustrator 16.0.3, SVG Export Plug-In . SVG Version: 6.00 Build 0)  -->
<!DOCTYPE svg PUBLIC "-//W3C//DTD SVG 1.1//EN" "http://www.w3.org/Graphics/SVG/1.1/DTD/svg11.dtd">
<svg version="1.1" xmlns="http://www.w3.org/2000/svg" xmlns:xlink="http://www.w3.org/1999/xlink" x="0px" y="0px" width="260px"
	 height="100px" viewBox="0 0 260 100" enable-background="new 0 0 260 100" xml:space="preserve">
<g id="guides">
</g>
<g id="Layer_2">
	<g>
		<path fill="#231F20" d="M62.186,37.432c-0.234-0.662-0.85-1.1-1.625-1.1c-1.191,0-1.934,0.863-1.934,2.061
			c0,1.291,0.928,2.242,2.012,2.242c0.564,0,1.254-0.195,1.738-1.055h0.137c-0.094,0.32-0.285,0.762-0.457,1.037
			c-0.457-0.064-0.77,0.195-1.611,0.195c-1.447,0-2.488-0.959-2.488-2.277c0-1.383,1.068-2.381,2.559-2.381
			c0.898,0,1.285,0.287,1.506,0.287c0.078,0,0.113-0.023,0.129-0.045h0.107l0.063,1.035H62.186z"/>
		<path fill="#231F20" d="M67.234,40.813c-1.398,0-2.574-0.902-2.574-2.232c0-1.422,1.09-2.426,2.609-2.426
			c1.348,0,2.504,0.92,2.504,2.201C69.773,39.797,68.617,40.813,67.234,40.813z M67.084,36.332c-1.254,0-1.752,1.17-1.752,2.023
			c0,1.338,0.904,2.279,2.053,2.279c1.16,0,1.717-1.027,1.717-2.043C69.102,37.268,68.262,36.332,67.084,36.332z"/>
		<path fill="#231F20" d="M74.979,40.697h-3.188v-0.137h0.236c0.326,0,0.447-0.105,0.447-0.471v-3.158
			c0-0.377-0.113-0.535-0.561-0.535h-0.102v-0.135h2.104v0.135h-0.264c-0.463,0-0.584,0.051-0.584,0.492v3.287
			c0,0.195,0.078,0.264,0.283,0.264H74.4c0.422,0,0.549-0.162,1-0.783h0.127L74.979,40.697z"/>
		<path fill="#231F20" d="M80.412,40.697h-3.188v-0.137h0.236c0.326,0,0.447-0.105,0.447-0.471v-3.158
			c0-0.377-0.113-0.535-0.563-0.535h-0.1v-0.135h2.104v0.135h-0.264c-0.463,0-0.584,0.051-0.584,0.492v3.287
			c0,0.195,0.078,0.264,0.283,0.264h1.049c0.422,0,0.551-0.162,1-0.783h0.127L80.412,40.697z"/>
		<path fill="#231F20" d="M85.824,39.092h-0.135c-0.057-0.506-0.193-0.563-0.486-0.563h-1.205v1.521
			c0,0.324,0.121,0.389,0.385,0.389h1.1c0.5,0,0.648-0.191,0.826-0.803h0.129l-0.113,1.061h-3.787v-0.137h0.199
			c0.57,0,0.672-0.156,0.672-0.584v-3.008c0-0.402-0.094-0.572-0.57-0.572H82.68v-0.135h3.424l0.057,0.992h-0.129
			c-0.092-0.605-0.271-0.736-0.527-0.736h-1.506v1.754h1.279c0.256,0,0.377-0.123,0.412-0.533h0.135V39.092z"/>
		<path fill="#231F20" d="M92.855,40.361c-0.705,0.363-1.611,0.451-1.912,0.451c-1.561,0-2.289-1.205-2.289-2.25
			c0-1.066,0.75-2.408,2.49-2.408c0.762,0,1.27,0.242,1.42,0.242c0.064,0,0.121-0.012,0.162-0.049h0.102v1.154h-0.143
			c-0.193-0.891-0.801-1.17-1.461-1.17c-1.256,0-1.898,1.043-1.898,2.191c0,1.461,1.027,2.111,1.846,2.111
			c0.328,0,0.693-0.074,1.09-0.273v-0.896c0-0.408-0.141-0.545-0.566-0.545h-0.264v-0.127h1.924v0.127
			c-0.357,0.02-0.5,0.143-0.5,0.451V40.361z"/>
		<path fill="#231F20" d="M98.332,39.092h-0.135c-0.057-0.506-0.193-0.563-0.486-0.563h-1.205v1.521
			c0,0.324,0.121,0.389,0.385,0.389h1.1c0.5,0,0.65-0.191,0.828-0.803h0.127l-0.113,1.061h-3.787v-0.137h0.199
			c0.572,0,0.672-0.156,0.672-0.584v-3.008c0-0.402-0.092-0.572-0.572-0.572h-0.156v-0.135h3.424l0.057,0.992h-0.129
			c-0.094-0.605-0.271-0.736-0.527-0.736h-1.506v1.754h1.277c0.256,0,0.379-0.123,0.414-0.533h0.135V39.092z"/>
		<path fill="#231F20" d="M107.189,40.813c-1.396,0-2.572-0.902-2.572-2.232c0-1.422,1.088-2.426,2.609-2.426
			c1.348,0,2.5,0.92,2.5,2.201C109.727,39.797,108.574,40.813,107.189,40.813z M107.039,36.332c-1.254,0-1.754,1.17-1.754,2.023
			c0,1.338,0.906,2.279,2.055,2.279c1.162,0,1.717-1.027,1.717-2.043C109.057,37.268,108.217,36.332,107.039,36.332z"/>
		<path fill="#231F20" d="M114.984,38.994h-0.121c-0.016-0.414-0.164-0.545-0.508-0.545h-1.32v1.564
			c0,0.396,0.086,0.547,0.621,0.547v0.137h-1.732v-0.137c0.441-0.027,0.521-0.121,0.521-0.697v-2.799
			c0-0.453-0.035-0.66-0.533-0.668v-0.135h3.193v0.84h-0.121c-0.008-0.414-0.15-0.584-0.594-0.584h-1.355v1.678h1.412
			c0.266,0,0.395-0.15,0.416-0.457h0.121V38.994z"/>
		<path fill="#231F20" d="M65.074,46.678c-0.414-1.172-1.496-1.938-2.869-1.938c-2.1,0-3.408,1.523-3.408,3.635
			c0,2.283,1.635,3.955,3.549,3.955c0.994,0,2.213-0.342,3.068-1.863h0.24c-0.164,0.568-0.504,1.346-0.805,1.834
			c-0.805-0.111-1.359,0.344-2.846,0.344c-2.555,0-4.391-1.689-4.391-4.014c0-2.443,1.889-4.207,4.516-4.207
			c1.588,0,2.268,0.506,2.656,0.506c0.139,0,0.201-0.039,0.227-0.074h0.189l0.113,1.822H65.074z"/>
		<path fill="#231F20" d="M70.775,52.645c-2.465,0-4.543-1.586-4.543-3.941c0-2.5,1.926-4.279,4.607-4.279
			c2.377,0,4.416,1.627,4.416,3.891C75.256,50.857,73.217,52.645,70.775,52.645z M70.512,44.74c-2.215,0-3.096,2.064-3.096,3.574
			c0,2.352,1.598,4.016,3.623,4.016c2.053,0,3.033-1.816,3.033-3.602C74.072,46.389,72.588,44.74,70.512,44.74z"/>
		<path fill="#231F20" d="M80.893,52.443l-3.207-6.707H77.66l-0.34,5.66c-0.039,0.641,0.439,0.783,1.006,0.809v0.238h-2.617v-0.238
			c0.918,0,1.031-0.201,1.096-1.348l0.301-4.895c0.051-0.832,0.025-1.059-0.754-1.107v-0.23h1.9l3.031,6.346l3.02-6.346h1.852v0.23
			c-0.617,0.049-0.855,0.061-0.832,0.49l0.402,5.697c0.078,1.162,0.176,1.162,1.096,1.162v0.238h-3.234v-0.238
			c0.592,0,1.17-0.168,1.119-0.834l-0.363-5.635h-0.025l-3.133,6.707H80.893z"/>
		<path fill="#231F20" d="M89.729,51.234c0,0.705,0.213,0.971,1.006,0.971h0.414v0.238h-3.486v-0.238h0.178
			c0.654,0,0.844-0.139,0.844-0.73v-5.953c0-0.465-0.15-0.666-0.592-0.666h-0.629v-0.238c0.352-0.016,0.969-0.053,1.586-0.08
			c0.615-0.023,1.219-0.033,1.561-0.033c2.629,0,3.232,1.258,3.232,2.227c0,1.469-1.182,2.404-3.045,2.404
			c-0.379,0-0.691-0.029-1.068-0.104V51.234z M89.729,48.791c0.162,0.041,0.439,0.104,0.68,0.104c1.371,0,2.252-0.932,2.252-2.203
			c0-0.984-0.391-1.951-2.064-1.951c-0.289,0-0.566,0-0.867,0.053V48.791z"/>
		<path fill="#231F20" d="M104.238,44.617v0.238c-0.846,0.01-1.146,0.354-1.146,1.156v3.396c0,1.563-0.992,3.236-3.725,3.236
			c-2.404,0-3.637-1.369-3.637-3.172v-3.678c0-0.801-0.225-0.93-1.082-0.939v-0.238h3.232v0.238h-0.113
			c-0.691,0-0.994,0.188-0.994,0.916v3.5c0,1.699,0.994,2.717,2.869,2.717c1.424,0,2.869-0.592,2.869-2.732v-2.932
			c0-1.203-0.188-1.42-1.232-1.469v-0.238H104.238z"/>
		<path fill="#231F20" d="M109.359,51.283c0,0.682,0.227,0.922,0.994,0.922h0.465v0.238h-3.965v-0.238h0.467
			c0.768,0,0.994-0.24,0.994-0.922v-6.217h-2.191c-0.502,0-0.729,0.289-0.916,1.4h-0.229l0.201-2.043h0.238
			c0.016,0.08,0.064,0.129,0.141,0.154c0.074,0.023,0.164,0.039,0.252,0.039h6.051c0.176,0,0.367-0.039,0.391-0.193h0.24
			l0.201,2.043h-0.225c-0.191-1.111-0.418-1.4-0.92-1.4h-2.189V51.283z"/>
		<path fill="#231F20" d="M119.125,49.609h-0.24c-0.102-0.891-0.342-0.994-0.855-0.994h-2.127v2.684
			c0,0.578,0.213,0.689,0.678,0.689h1.939c0.881,0,1.145-0.338,1.459-1.418h0.229l-0.201,1.873h-6.682v-0.238h0.352
			c1.006,0,1.182-0.281,1.182-1.033v-5.313c0-0.705-0.162-1.004-1.006-1.004h-0.277v-0.238h6.041l0.1,1.746h-0.227
			c-0.162-1.066-0.479-1.297-0.93-1.297h-2.656v3.1h2.254c0.451,0,0.666-0.217,0.729-0.945h0.24V49.609z"/>
		<path fill="#231F20" d="M123.453,51.26c0,0.754,0.303,0.945,1.006,0.945h0.291v0.238h-3.563v-0.238h0.215
			c0.742,0,1.006-0.201,1.006-1.047v-5.299c0-0.777-0.213-1.004-0.943-1.004h-0.277v-0.238c0.303,0,1.07-0.053,1.586-0.08
			c0.516-0.023,0.768-0.033,1.586-0.033c2.328,0,3.373,0.955,3.373,2.236c0,0.945-0.643,1.738-1.674,2.043
			c0.465,0.361,0.842,0.713,1.434,1.307l0.994,0.994c0.742,0.744,1.512,1.209,2.479,1.271v0.225
			c-2.201,0.102-2.768-0.375-3.889-1.496l-0.83-0.834c-0.553-0.553-0.994-0.914-1.295-1.115c-0.316,0.01-0.518,0.025-0.855,0.025
			c-0.279,0-0.441-0.016-0.643-0.025V51.26z M123.453,48.895c0.303,0.035,0.49,0.025,0.779,0.025c1.398,0,2.316-0.594,2.316-2.1
			c0-1.172-0.529-2.08-2.469-2.08c-0.236,0-0.4,0-0.627,0.027V48.895z"/>
		<path fill="#231F20" d="M131.658,54.08c0.629-0.369,0.969-0.809,0.969-1.26c0-0.15-0.051-0.264-0.176-0.264
			c-0.113,0-0.164,0.037-0.303,0.037c-0.328,0-0.566-0.238-0.566-0.566c0-0.342,0.303-0.615,0.68-0.615
			c0.504,0,0.881,0.439,0.881,1.041c0,0.785-0.566,1.537-1.396,1.852L131.658,54.08z"/>
		<path fill="#231F20" d="M236.543,54.08c0.629-0.369,0.969-0.809,0.969-1.26c0-0.15-0.051-0.264-0.176-0.264
			c-0.113,0-0.164,0.037-0.303,0.037c-0.328,0-0.566-0.238-0.566-0.566c0-0.342,0.301-0.615,0.678-0.615
			c0.504,0,0.881,0.439,0.881,1.041c0,0.785-0.564,1.537-1.396,1.852L236.543,54.08z"/>
		<path fill="#231F20" d="M140.832,52.443l-3.207-6.707H137.6l-0.34,5.66c-0.037,0.641,0.441,0.783,1.006,0.809v0.238h-2.617v-0.238
			c0.918,0,1.031-0.201,1.094-1.348l0.303-4.895c0.051-0.832,0.027-1.059-0.754-1.107v-0.23h1.9l3.031,6.346l3.021-6.346h1.85v0.23
			c-0.617,0.049-0.855,0.061-0.83,0.49l0.402,5.697c0.074,1.162,0.176,1.162,1.094,1.162v0.238h-3.234v-0.238
			c0.592,0,1.172-0.168,1.121-0.834l-0.365-5.635h-0.025l-3.133,6.707H140.832z"/>
		<path fill="#231F20" d="M149.428,48.969l-0.73,1.977c-0.088,0.24-0.25,0.617-0.25,0.793c0,0.338,0.326,0.467,1.02,0.467h0.201
			v0.238h-2.908v-0.238c0.818-0.016,0.957-0.152,1.361-1.25l2.289-6.25l-0.113-0.281h1.094l2.631,6.988
			c0.252,0.664,0.516,0.793,1.145,0.793v0.238h-3.461v-0.238h0.328c0.717,0,0.98-0.08,0.98-0.432c0-0.201-0.088-0.387-0.137-0.514
			l-0.844-2.291H149.428z M150.711,45.482l-1.068,2.932h2.176L150.711,45.482z"/>
		<path fill="#231F20" d="M158.879,51.283c0,0.682,0.227,0.922,0.994,0.922h0.465v0.238h-3.963v-0.238h0.467
			c0.768,0,0.994-0.24,0.994-0.922v-6.217h-2.191c-0.502,0-0.729,0.289-0.918,1.4H154.5l0.203-2.043h0.238
			c0.012,0.08,0.063,0.129,0.137,0.154c0.076,0.023,0.164,0.039,0.252,0.039h6.055c0.176,0,0.363-0.039,0.389-0.193h0.238
			l0.203,2.043h-0.227c-0.189-1.111-0.416-1.4-0.918-1.4h-2.191V51.283z"/>
		<path fill="#231F20" d="M165.359,48.703v2.395c0,0.818,0.164,1.107,1.008,1.107h0.037v0.238h-3.158v-0.238h0.076
			c0.74,0,0.994-0.201,0.994-0.922v-5.537c0-0.654-0.215-0.842-0.906-0.891v-0.238h2.994v0.238c-0.893,0-1.045,0.236-1.045,1.205
			v2.193h4.934v-2.482c0-0.666-0.215-0.916-0.992-0.916h-0.24v-0.238h3.232v0.238c-0.754,0.025-0.955,0.25-0.955,1.027v5.225
			c0,0.896,0.252,1.098,1.006,1.098h0.125v0.238h-3.561v-0.238h0.393c0.816,0,0.992-0.289,0.992-0.945v-2.557H165.359z"/>
		<path fill="#231F20" d="M179.053,49.609h-0.24c-0.102-0.891-0.34-0.994-0.857-0.994h-2.123v2.684c0,0.578,0.213,0.689,0.678,0.689
			h1.938c0.881,0,1.145-0.338,1.461-1.418h0.227l-0.201,1.873h-6.682v-0.238h0.352c1.006,0,1.182-0.281,1.182-1.033v-5.313
			c0-0.705-0.162-1.004-1.006-1.004h-0.277v-0.238h6.039l0.102,1.746h-0.227c-0.162-1.066-0.477-1.297-0.932-1.297h-2.652v3.1h2.252
			c0.451,0,0.664-0.217,0.729-0.945h0.24V49.609z"/>
		<path fill="#231F20" d="M186.289,52.443l-3.211-6.707h-0.025l-0.338,5.66c-0.039,0.641,0.441,0.783,1.006,0.809v0.238h-2.617
			v-0.238c0.918,0,1.031-0.201,1.094-1.348l0.303-4.895c0.049-0.832,0.023-1.059-0.754-1.107v-0.23h1.898l3.033,6.346l3.02-6.346
			h1.85v0.23c-0.617,0.049-0.854,0.061-0.828,0.49l0.4,5.697c0.074,1.162,0.178,1.162,1.096,1.162v0.238h-3.234v-0.238
			c0.594,0,1.17-0.168,1.121-0.834l-0.367-5.635h-0.025l-3.131,6.707H186.289z"/>
		<path fill="#231F20" d="M194.883,48.969l-0.73,1.977c-0.088,0.24-0.252,0.617-0.252,0.793c0,0.338,0.328,0.467,1.02,0.467h0.201
			v0.238h-2.906v-0.238c0.818-0.016,0.957-0.152,1.357-1.25l2.291-6.25l-0.111-0.281h1.094l2.631,6.988
			c0.25,0.664,0.514,0.793,1.145,0.793v0.238h-3.459v-0.238h0.326c0.717,0,0.98-0.08,0.98-0.432c0-0.201-0.088-0.387-0.137-0.514
			l-0.844-2.291H194.883z M196.166,45.482l-1.07,2.932h2.178L196.166,45.482z"/>
		<path fill="#231F20" d="M204.207,51.283c0,0.682,0.227,0.922,0.994,0.922h0.467v0.238h-3.963v-0.238h0.465
			c0.768,0,0.994-0.24,0.994-0.922v-6.217h-2.189c-0.504,0-0.73,0.289-0.92,1.4h-0.225l0.201-2.043h0.238
			c0.012,0.08,0.063,0.129,0.139,0.154c0.074,0.023,0.162,0.039,0.25,0.039h6.055c0.176,0,0.363-0.039,0.389-0.193h0.238
			l0.203,2.043h-0.229c-0.186-1.111-0.414-1.4-0.918-1.4h-2.189V51.283z"/>
		<path fill="#231F20" d="M211.443,52.443h-3.057v-0.238c0.779-0.041,0.943-0.24,0.943-1.082v-5.361c0-0.68-0.238-0.871-0.943-0.906
			v-0.238h3.057v0.238c-0.793,0-1.068,0.178-1.068,1.02v5.336c0,0.738,0.201,0.994,1.068,0.994V52.443z"/>
		<path fill="#231F20" d="M219.938,46.678c-0.414-1.172-1.496-1.938-2.869-1.938c-2.102,0-3.408,1.523-3.408,3.635
			c0,2.283,1.635,3.955,3.547,3.955c0.996,0,2.215-0.342,3.07-1.863h0.24c-0.166,0.568-0.504,1.346-0.807,1.834
			c-0.805-0.111-1.357,0.344-2.844,0.344c-2.555,0-4.393-1.689-4.393-4.014c0-2.443,1.891-4.207,4.518-4.207
			c1.588,0,2.266,0.506,2.656,0.506c0.139,0,0.201-0.039,0.227-0.074h0.188l0.113,1.822H219.938z"/>
		<path fill="#231F20" d="M223.277,48.969l-0.732,1.977c-0.088,0.24-0.25,0.617-0.25,0.793c0,0.338,0.326,0.467,1.018,0.467h0.201
			v0.238h-2.904v-0.238c0.816-0.016,0.955-0.152,1.357-1.25l2.291-6.25l-0.113-0.281h1.096l2.629,6.988
			c0.25,0.664,0.516,0.793,1.145,0.793v0.238h-3.461v-0.238h0.328c0.717,0,0.98-0.08,0.98-0.432c0-0.201-0.088-0.387-0.137-0.514
			l-0.844-2.291H223.277z M224.561,45.482l-1.072,2.932h2.178L224.561,45.482z"/>
		<path fill="#231F20" d="M234.576,52.443h-5.625v-0.238h0.416c0.578,0,0.793-0.191,0.793-0.834v-5.576
			c0-0.664-0.201-0.939-0.994-0.939h-0.176v-0.238h3.711v0.238h-0.465c-0.818,0-1.033,0.09-1.033,0.867v5.801
			c0,0.338,0.139,0.465,0.504,0.465h1.85c0.742,0,0.969-0.289,1.764-1.385h0.225L234.576,52.443z"/>
		<path fill="#231F20" d="M66.949,58.926v0.23c-0.703,0-0.893,0.061-1.07,0.236c-0.25,0.254-0.879,1.551-1.887,2.721
			c0.693,1.066,0.906,1.822,1.512,1.822c0.25,0,0.566-0.139,0.98-0.428l0.113,0.201c-0.541,0.428-1.07,0.656-1.547,0.656
			c-0.781,0-0.996-0.289-1.688-1.563c-0.93,0.994-1.975,1.563-2.869,1.563c-1.145,0-2.039-0.906-2.039-2.076
			c0-1.033,0.617-1.697,2.203-2.342c-0.539-0.467-0.893-1.094-0.893-1.639c0-0.879,0.68-1.459,1.711-1.459
			c0.932,0,1.598,0.504,1.598,1.223c0,0.58-0.504,1.145-1.422,1.598c0.818,0.553,1.586,1.322,2.189,2.229
			c0.592-0.744,1.572-2.154,1.572-2.492c0-0.176-0.137-0.25-0.691-0.25v-0.23H66.949z M61.01,63.732c0.73,0,1.674-0.488,2.217-1.145
			c-0.555-0.93-1.334-1.76-2.393-2.492c-0.955,0.672-1.346,1.26-1.346,2.043C59.488,63.092,60.105,63.732,61.01,63.732z
			 M61.389,57.105c-0.518,0-0.83,0.352-0.83,0.906c0,0.527,0.313,1.041,0.93,1.506c0.58-0.338,0.818-0.729,0.818-1.357
			C62.307,57.518,61.941,57.105,61.389,57.105z"/>
		<path fill="#231F20" d="M137.719,62.273c0.264,1.123,1.145,1.775,2.125,1.775c0.844,0,1.738-0.492,1.738-1.486
			c0-1.811-4.039-2.363-4.039-4.566c0-1.043,0.955-1.826,2.24-1.826c1.055,0,1.27,0.318,1.711,0.318c0.1,0,0.15-0.027,0.227-0.127
			h0.199l0.215,1.596h-0.215c-0.352-0.906-1.156-1.484-2.025-1.484c-0.828,0-1.408,0.48-1.408,1.186
			c0,1.787,4.039,2.262,4.039,4.576c0,1.234-1.096,2.154-2.566,2.154c-0.693,0-1.574-0.34-1.75-0.34
			c-0.113,0-0.201,0.063-0.252,0.141h-0.213l-0.266-1.916H137.719z"/>
		<path fill="#231F20" d="M150.957,58.424c-0.416-1.17-1.498-1.936-2.869-1.936c-2.102,0-3.41,1.523-3.41,3.635
			c0,2.279,1.635,3.953,3.549,3.953c0.994,0,2.215-0.344,3.068-1.865h0.24c-0.162,0.568-0.502,1.346-0.805,1.838
			c-0.805-0.113-1.359,0.34-2.844,0.34c-2.555,0-4.393-1.686-4.393-4.014c0-2.443,1.889-4.205,4.518-4.205
			c1.586,0,2.266,0.504,2.656,0.504c0.137,0,0.201-0.037,0.227-0.072h0.188l0.113,1.822H150.957z"/>
		<path fill="#231F20" d="M155.639,64.189h-3.059v-0.24c0.779-0.041,0.943-0.24,0.943-1.082v-5.361c0-0.68-0.238-0.869-0.943-0.904
			v-0.24h3.059v0.24c-0.793,0-1.07,0.176-1.07,1.018v5.336c0,0.742,0.201,0.994,1.07,0.994V64.189z"/>
		<path fill="#231F20" d="M162.42,61.355h-0.238c-0.102-0.893-0.34-0.996-0.855-0.996h-2.127v2.684c0,0.578,0.213,0.689,0.68,0.689
			h1.938c0.881,0,1.146-0.336,1.461-1.418h0.225l-0.201,1.875h-6.682v-0.24h0.352c1.008,0,1.184-0.277,1.184-1.033v-5.311
			c0-0.705-0.162-1.004-1.006-1.004h-0.277v-0.24h6.041l0.1,1.748h-0.227c-0.164-1.068-0.479-1.297-0.93-1.297h-2.656v3.098h2.252
			c0.453,0,0.668-0.215,0.73-0.945h0.238V61.355z"/>
		<path fill="#231F20" d="M172.852,64.277l-6.516-6.82v5.395c0,0.908,0.199,1.098,1.27,1.098v0.24h-2.92v-0.24h0.051
			c0.781,0,1.031-0.266,1.031-0.842v-6.193c-0.289-0.201-0.617-0.305-1.057-0.313v-0.24h1.977l5.926,6.178v-5.008
			c0-0.77-0.227-0.906-1.232-0.93v-0.24h2.943v0.24c-0.943,0-1.145,0.16-1.145,0.652v7.023H172.852z"/>
		<path fill="#231F20" d="M182.279,58.424c-0.416-1.17-1.498-1.936-2.869-1.936c-2.104,0-3.412,1.523-3.412,3.635
			c0,2.279,1.637,3.953,3.551,3.953c0.994,0,2.213-0.344,3.068-1.865h0.24c-0.164,0.568-0.504,1.346-0.807,1.838
			c-0.805-0.113-1.357,0.34-2.844,0.34c-2.553,0-4.393-1.686-4.393-4.014c0-2.443,1.891-4.205,4.52-4.205
			c1.584,0,2.266,0.504,2.654,0.504c0.141,0,0.203-0.037,0.229-0.072h0.186l0.115,1.822H182.279z"/>
		<path fill="#231F20" d="M189.236,61.355h-0.238c-0.1-0.893-0.34-0.996-0.855-0.996h-2.127v2.684c0,0.578,0.215,0.689,0.68,0.689
			h1.939c0.881,0,1.145-0.336,1.459-1.418h0.225l-0.201,1.875h-6.682v-0.24h0.352c1.01,0,1.186-0.277,1.186-1.033v-5.311
			c0-0.705-0.166-1.004-1.008-1.004h-0.277v-0.24h6.039l0.102,1.748h-0.225c-0.166-1.068-0.48-1.297-0.932-1.297h-2.656v3.098h2.252
			c0.455,0,0.668-0.215,0.73-0.945h0.238V61.355z"/>
		<path fill="#231F20" d="M191.479,62.273c0.264,1.123,1.145,1.775,2.125,1.775c0.842,0,1.738-0.492,1.738-1.486
			c0-1.811-4.039-2.363-4.039-4.566c0-1.043,0.955-1.826,2.238-1.826c1.057,0,1.271,0.318,1.713,0.318c0.1,0,0.15-0.027,0.225-0.127
			h0.201l0.215,1.596h-0.215c-0.352-0.906-1.156-1.484-2.025-1.484c-0.83,0-1.408,0.48-1.408,1.186c0,1.787,4.039,2.262,4.039,4.576
			c0,1.234-1.096,2.154-2.568,2.154c-0.691,0-1.572-0.34-1.748-0.34c-0.113,0-0.201,0.063-0.252,0.141h-0.213l-0.266-1.916H191.479z
			"/>
		<g>
			<g>
				<g>
					<path fill="#FFFFFF" d="M24.674,49.867c0,5.822,4.717,10.541,10.539,10.541c5.818,0,10.537-4.719,10.537-10.541
						c0-5.818-4.719-10.537-10.537-10.537C29.391,39.33,24.674,44.049,24.674,49.867z"/>
				</g>
				<path fill="#FFD420" d="M45.75,49.633c0,0.049-0.188,0.205-0.389,0.324c-0.004,0.004-0.008,0.008-0.012,0.012
					c-0.275,0.146-0.66,0.283-1.137,0.412c-0.494,0.131-1.102,0.248-1.768,0.35c-0.668,0.104-1.414,0.18-2.215,0.25l0,0
					c-1.025,0.09-1.67,0.131-2.488,0.174c-0.869,0.033-1.77,0.053-2.688,0.051c0,0.117,0.002,0.234,0.002,0.35
					c0,0.826,0.004,1.609,0.008,2.35c0.02,4.045,0.027,4.043,0.148,6.504c5.818,0,10.537-4.719,10.537-10.541
					C45.75,49.867,45.75,49.719,45.75,49.633z"/>
				<polygon fill="#231F20" points="39.135,59.316 39.135,59.314 39.135,59.316 				"/>
				<g>
					<path fill="#231F20" d="M35.057,51.555c0,0.826,0.004,1.609,0.008,2.35c1.688,1.596,1.688,1.596,2.391,2.303
						c0.189-1.338,0.289-2.938,0.289-4.705c0-0.117-0.002-0.232-0.002-0.348c-1.066,0.039-1.77,0.053-2.688,0.051
						C35.055,51.322,35.057,51.439,35.057,51.555z"/>
					<path fill="#231F20" d="M38.924,58.01c-0.367-0.604-0.707-0.992-1.471-1.797c-0.357,2.564-0.998,4.146-1.783,4.178
						c0.068-0.002,0.17-0.004,0.236-0.01c0.084-0.006,0.188-0.016,0.271-0.021C37.27,60.264,38.207,59.422,38.924,58.01z"/>
					<path fill="#231F20" d="M40.105,53.707c0.002-0.018-0.607,3.164-1.182,4.303c0.33,0.635,0.344,0.885,0.211,1.305
						c1.023-0.773,1.865-1.945,2.449-3.396C41.211,55.158,40.957,54.756,40.105,53.707z"/>
					<path fill="#231F20" d="M37.088,60.242c0.229-0.037,0.215-0.045,0.641-0.141l0.25-0.072c0.781-0.242,0.916-0.365,1.16-0.725
						c-0.695,0.525-1.438,0.846-2.27,0.971L37.088,60.242z"/>
					<path fill="#231F20" d="M41.771,57.658c1.52-1.725,2.447-4.156,2.443-6.928c0-0.117,0-0.232-0.002-0.35
						c-0.494,0.131-1.102,0.248-1.768,0.35c0.01,0.115,0.012,0.234,0.012,0.352c0.004,1.805-0.301,3.445-0.859,4.828
						C41.91,56.715,41.916,57.051,41.771,57.658z"/>
					<path fill="#231F20" d="M40.23,50.98c-1.025,0.09-1.67,0.131-2.488,0.174c1.443,1.498,1.754,1.85,2.363,2.553
						c0.086-0.748,0.129-1.537,0.129-2.365C40.234,51.223,40.232,51.1,40.23,50.98z"/>
				</g>
				<path fill="#231F20" d="M32.904,39.875c0.586-0.236,1.148-0.484,2.287-0.549l0,0C34.422,39.396,33.615,39.611,32.904,39.875"/>
				<g>
					<path fill="#E03A3E" d="M42.27,50.729c-0.549-0.07-1.01-1.002-0.768-1.945c-0.771,0.533-1.641-0.559-1.512-1.576
						c0.064-0.533,0.416-1.012,1.031-0.795c-0.25-0.852-0.561-1.668-0.928-2.412c-0.543,0.066-1.143,0.125-1.773,0.17
						c0.563,0.852,0.008,1.645-0.779,1.516c-0.566-0.092-1.1-0.688-0.949-1.4c-0.463,0.322-1.412,0.193-1.5-0.813
						c-0.023,2.143-0.041,4.881-0.037,7.732c2.803,0.029,6.084-0.271,7.391-0.475c0,0,0,0.004,0,0
						C42.391,50.734,42.32,50.736,42.27,50.729z"/>
				</g>
				<g>
					<path fill="#E03A3E" d="M28.402,52.846c0.783-0.305,1.77,1.051,1.426,1.955c-0.16,0.42-0.572,0.535-1.004,0.283
						c0.234,0.791,0.537,1.514,0.896,2.152c0.553,0.076,1.176,0.143,1.859,0.193c-0.549-0.674-0.109-1.225,0.621-1.188
						c0.623,0.033,1.455,0.553,1.275,1.268c0.564-0.258,1.516-0.051,1.631,0.682c-0.029-1.58-0.045-3.898-0.051-6.637
						c0-0.119-0.002-0.229-0.002-0.35c-0.889,0.004-1.789-0.031-2.686-0.068c-1.904-0.076-3.201-0.186-4.795-0.459
						c0,0.006,0-0.006,0,0C28.393,50.951,28.615,52.17,28.402,52.846z"/>
				</g>
				<path fill="#E03A3E" d="M40.205,43.133L40.205,43.133L40.205,43.133c0.002,0,0.006,0,0.008,0l0,0c0,0,0.004,0,0.006-0.002
					c0.102-0.014,0.197-0.031,0.291-0.049c0.604-0.109,1.973-0.438,1.973-0.834c0,0,0.535,0.533,0.93,1.283
					c0.045,0.082,0.076,0.154,0.119,0.271c0.045,0.135,0.074,0.289,0.07,0.359c-0.018,0.227-0.162,0.23-0.314,0.166
					c-0.012-0.004-0.031-0.01-0.047-0.021c-0.543-0.242-0.719-0.74-0.822-0.943c-0.277,0.086-0.73,0.287-1.107,0.357
					c-0.049,0.01-0.127,0.025-0.172,0.035c0.445,0.738,0.871,1.613,1.176,2.461c0.529-0.543,1.361,0.467,1.402,1.447
					c0.023,0.572-0.234,1.084-0.762,0.898c0.42,0.777,0.289,1.92-0.51,2.168c-0.135-2.559-0.568-4.824-2.25-7.59l0,0l0,0"/>
				<path fill="#E03A3E" d="M40.195,43.141L40.195,43.141L40.195,43.141L40.195,43.141L40.195,43.141
					c-1.342-2.051-2.4-2.797-3.766-3.332c-0.27-0.107-1.191-0.469-1.238-0.482l0.004,0.01l0,0c0.238,0.352,0.723,0.559,0.824,0.592
					c-0.029,0.125-0.006,0.381,0.436,0.703c0.07,0.047,0.139,0.09,0.201,0.121c0.686,0.355,0.836,0.078,0.869-0.033
					c0.004-0.004,0.01-0.006,0.012-0.012c0.207,0.156,0.615,0.486,1.064,0.99c0.26,0.316,0.506,0.582,0.691,0.857
					c-0.426,0.053-0.988,0.104-1.543,0.141c-0.031-0.672-0.516-1.004-0.822-1.119c-0.666-0.248-0.885,0.535-0.594,1.088
					c-0.529-0.283-1.156-0.031-1.244,0.807C37.18,43.457,38.609,43.363,40.195,43.141L40.195,43.141v-0.002"/>
				<path fill="#E03A3E" d="M40.324,41.229c-0.006-0.006-0.008-0.043-0.004-0.07c0.006-0.029,0.029-0.053,0.029-0.053
					s0.012-0.027,0.053-0.051c0.105-0.063,0.424-0.094,1.307,0.52c-1.826-1.438-3.793-2.029-5.463-2.195
					c-0.234-0.027-0.674-0.043-0.674-0.043c0.531,0.045,0.893,0.188,0.977,0.217c0.068,0.025,0.123,0.061,0.154,0.088
					c0.004,0,0.008,0,0.008,0c0.102,0.01,0.225,0.031,0.375,0.076c0.16,0.045,0.434,0.146,0.676,0.262
					c0.242,0.113,0.602,0.369,0.604,0.514c-0.055,0.033-0.07,0.045-0.236,0c0.625,0.443,1.518,1.283,2.045,1.902
					c0.365-0.072,0.906-0.146,1.156-0.234C41.314,42.18,40.504,41.574,40.324,41.229z"/>
				<path fill="#E03A3E" d="M29.611,57.818c-0.904-0.16-1.422-0.299-1.771-0.477c-0.059-0.029-0.074-0.029-0.088-0.031
					c-0.006,0-0.516-0.523-0.961-1.1c-0.324-0.422-0.594-0.893-0.623-0.938c0,0.004,0.07,0,0.117,0.016
					c0.469,0.154,1.209,1.447,1.219,1.465c0.293,0.105,0.674,0.205,1.133,0.301c-0.432-0.652-0.797-1.385-1.072-2.18
					c-0.66,0.328-1.496-1.406-1.23-2.137c0.053-0.152,0.227-0.467,0.674-0.127c-0.338-0.775-0.246-1.936,0.566-1.934
					C27.592,53.238,27.943,55.447,29.611,57.818"/>
				<path fill="#E03A3E" d="M35.094,58.342c-0.092,0.367-0.604,0.717-1.33,0.42c0.342,0.449,0.049,0.834-0.549,0.725
					c-0.463-0.084-1.012-0.455-1.057-0.828c-0.57-0.045-1.096-0.1-1.563-0.164c0.443,0.516,0.936,0.932,1.467,1.246
					c0.064-0.027,0.166-0.023,0.48,0.09c0.402,0.145,0.789,0.33,1.189,0.473c0,0-0.084-0.01-0.082-0.01
					c-0.305-0.051-0.383-0.064-0.553-0.1c-0.775-0.154-2.127-0.596-3.486-2.375l0,0l0,0l0,0c1.635,0.254,3.23,0.365,5.496,0.375
					C35.104,58.242,35.104,58.301,35.094,58.342"/>
				<path fill="#FFD420" d="M35.191,39.326c-5.652,0-10.406,4.613-10.518,10.338l0.004,0.012c0.004,0.016,0.057,0.123,0.279,0.26
					l0,0l0,0c0.221,0.139,0.551,0.287,0.982,0.4c0.537,0.139,1.102,0.25,1.623,0.34l0.012,0.002
					c1.594,0.273,2.891,0.383,4.795,0.459c0.896,0.037,1.797,0.072,2.686,0.068c0-0.537-0.004-3.596,0.021-6.555
					c0.002-0.381,0.008-0.779,0.014-1.178C35.111,41.545,35.156,39.584,35.191,39.326L35.191,39.326z"/>
				<path fill="#231F20" d="M40.238,59.131c-0.594,0.338-0.711,0.348-1.51,0.674c-0.225,0.092-0.432,0.145-0.662,0.211
					c1.422-0.383,3.365-1.973,3.707-2.359c-0.172,0.383-0.305,0.635-0.723,0.973C40.936,58.723,40.434,59.025,40.238,59.131z"/>
				<path fill="#231F20" d="M25.939,50.336c-0.439-0.109-0.762-0.262-0.982-0.4c0.117-3.813,2.236-7.191,5.32-9.049
					c-0.729,0.65-1.053,1.037-1.42,1.912C27.127,44.785,26.021,47.463,25.939,50.336"/>
				<path fill="#231F20" d="M30.291,40.881c0.771-0.559,1.211-0.963,2.439-1.258c0.855-0.207,1.611-0.295,2.461-0.297l0,0
					C33.414,39.404,31.744,40.01,30.291,40.881"/>
				<path fill="#231F20" d="M29.725,50.967c-0.771-0.074-1.498-0.176-2.15-0.289c0.041-1.91,0.441-3.74,1.135-5.365
					c0.268,1.066,0.494,1.639,1.244,2.902C29.82,49.105,29.742,50.029,29.725,50.967"/>
				<path fill="#231F20" d="M35.092,43.473c-0.016,1.156-0.02,2.352-0.023,3.271c-0.006,0.914-0.012,1.572-0.012,1.701
					c-1.035-1.086-1.592-1.697-2.35-2.658c0.512-3.275,1.432-5.867,2.484-6.461l0,0l0,0C35.154,39.641,35.111,41.498,35.092,43.473z
					"/>
				<g>
					<path fill="#231F20" d="M31.391,43.346c-0.66,1.395-1.154,3.066-1.43,4.867c0.645,0.955,1.043,1.516,2.328,2.918
						c0.012-1.879,0.164-3.709,0.42-5.352C31.939,44.729,31.695,44.227,31.391,43.346z"/>
				</g>
				<path fill="#231F20" stroke="#231F20" stroke-width="0" stroke-linecap="round" stroke-linejoin="round" d="M45.35,49.969
					c0.002,0.115,0.006,0.23,0.006,0.348c0.004,3.727-1.814,6.826-4.662,8.545l-0.076,0.057c1.34-0.822,3.029-2.215,4.104-4.51
					c1.156-2.268,1.029-4.775,1.029-4.775C45.691,49.736,45.523,49.867,45.35,49.969z"/>
				<g>
					<path fill="#231F20" d="M32.904,39.875c-1.541,0.602-2.926,1.637-4.043,2.922c-0.309,0.957-0.309,1.492-0.152,2.516
						c0.682-1.598,1.639-2.98,2.764-4.018C31.824,40.695,32.041,40.334,32.904,39.875z"/>
				</g>
				<path fill="#231F20" d="M31.385,43.354c-0.186-0.863-0.203-1.301,0.086-2.047c1.1-1.018,2.371-1.77,3.721-1.98
					C33.711,39.725,32.371,41.275,31.385,43.354"/>
				<path fill="#231F20" d="M22.506,42.053l0.061,0.029c-0.102,0.217-0.055,0.336,0.148,0.434l0.859,0.43
					c0.396,0.195,0.691,0.654,0.35,1.346c-0.301,0.605-0.803,0.744-1.256,0.521l-0.926-0.459c-0.203-0.104-0.266-0.061-0.379,0.152
					l-0.061-0.029l0.41-0.818l0.061,0.029l-0.018,0.029c-0.086,0.174-0.074,0.275,0.105,0.369l0.885,0.438
					c0.434,0.215,0.814,0.09,1.049-0.385c0.176-0.361,0.209-0.799-0.328-1.068l-0.744-0.367c-0.305-0.152-0.383-0.131-0.525,0.129
					l-0.063-0.029L22.506,42.053z"/>
				<path fill="#231F20" d="M26.182,41l-2.654,0.166l1.162,0.982c0.195,0.162,0.275,0.156,0.469-0.076l0.051,0.045l-0.533,0.631
					l-0.049-0.045l0.012-0.014c0.139-0.166,0.125-0.266,0.006-0.373l-1.34-1.123c-0.096,0.025-0.176,0.076-0.26,0.168l-0.049-0.045
					l0.359-0.424l2.406-0.156l-1.08-0.912c-0.164-0.137-0.236-0.115-0.422,0.1l-0.055-0.047l0.537-0.633l0.049,0.045
					c-0.17,0.205-0.172,0.275-0.063,0.363l1.514,1.277L26.182,41z"/>
				<path fill="#231F20" d="M27.475,39.857l-0.662,0.549l-0.045-0.051c0.162-0.146,0.162-0.219,0.012-0.402l-0.967-1.162
					c-0.123-0.148-0.209-0.146-0.371-0.029l-0.039-0.053l0.66-0.551l0.047,0.051c-0.176,0.145-0.205,0.232-0.053,0.416l0.961,1.16
					c0.137,0.158,0.227,0.178,0.412,0.021L27.475,39.857z"/>
				<path fill="#231F20" d="M28.779,39.045l-1.635-1.268c-0.186-0.148-0.25-0.174-0.439-0.066l-0.035-0.057l0.846-0.494l0.031,0.059
					c-0.275,0.172-0.305,0.279-0.166,0.381l1.357,1.049l-0.258-1.547c-0.02-0.102-0.035-0.178-0.059-0.217
					c-0.057-0.094-0.152-0.086-0.361,0.033l-0.035-0.059l0.711-0.414l0.037,0.059c-0.164,0.092-0.203,0.213-0.166,0.445l0.328,2.006
					L28.779,39.045z"/>
				<path fill="#231F20" d="M31.389,36.963l-0.063,0.02c-0.111-0.227-0.18-0.234-0.322-0.184l-0.564,0.195l0.244,0.713
					c0.055,0.154,0.121,0.168,0.246,0.121l0.516-0.178c0.234-0.08,0.277-0.193,0.262-0.512l0.059-0.02l0.117,0.518l-1.781,0.615
					l-0.021-0.066l0.096-0.033c0.27-0.092,0.291-0.18,0.219-0.383l-0.488-1.414c-0.064-0.189-0.135-0.256-0.361-0.176l-0.072,0.025
					l-0.023-0.066l1.611-0.555l0.189,0.455l-0.063,0.025c-0.141-0.27-0.244-0.303-0.365-0.262l-0.709,0.244l0.283,0.826L31,36.666
					c0.119-0.043,0.154-0.119,0.107-0.32l0.063-0.02L31.389,36.963z"/>
				<path fill="#231F20" d="M32.734,35.246c0.064-0.014,0.113-0.021,0.176-0.027c0.545-0.063,0.725,0.172,0.762,0.498
					c0.053,0.424-0.186,0.619-0.58,0.668c-0.08,0.006-0.131,0.02-0.215,0.018L32.734,35.246z M32.879,36.471
					c0.059-0.004,0.107-0.006,0.182-0.018c0.098-0.008,0.152-0.02,0.24-0.033c0.092,0.047,0.227,0.135,0.398,0.27l0.262,0.205
					c0.352,0.279,0.527,0.393,1.143,0.289l-0.008-0.063c-0.277,0.016-0.508-0.088-0.738-0.271l-0.311-0.248
					c-0.188-0.146-0.303-0.232-0.445-0.318c0.275-0.119,0.43-0.361,0.398-0.627c-0.039-0.355-0.365-0.59-1.02-0.514
					c-0.227,0.027-0.299,0.041-0.443,0.064c-0.143,0.023-0.357,0.064-0.441,0.07l0.01,0.068l0.076-0.01
					c0.203-0.023,0.271,0.031,0.299,0.252l0.176,1.482c0.027,0.236-0.041,0.303-0.248,0.328l-0.059,0.008l0.006,0.066l0.998-0.119
					l-0.006-0.066l-0.082,0.01c-0.197,0.023-0.287-0.021-0.313-0.232L32.879,36.471z"/>
				<path fill="#231F20" d="M35.607,36.676c0.053,0.318,0.287,0.521,0.561,0.541c0.236,0.021,0.5-0.096,0.521-0.377
					c0.039-0.51-1.084-0.754-1.033-1.373c0.021-0.293,0.307-0.492,0.67-0.465c0.297,0.023,0.35,0.119,0.475,0.127
					c0.027,0.002,0.039-0.002,0.064-0.031l0.055,0.004l0.029,0.455l-0.061-0.006c-0.082-0.262-0.293-0.443-0.539-0.459
					c-0.234-0.02-0.406,0.1-0.424,0.301c-0.035,0.5,1.086,0.727,1.035,1.377c-0.025,0.348-0.354,0.582-0.77,0.549
					c-0.193-0.02-0.434-0.133-0.48-0.137c-0.033,0-0.059,0.016-0.078,0.033l-0.059-0.004l-0.031-0.541L35.607,36.676z"/>
				<path fill="#231F20" d="M38.338,37.604l-0.842-0.184l0.014-0.064c0.219,0.035,0.275-0.01,0.324-0.24l0.322-1.48
					c0.043-0.186-0.01-0.252-0.207-0.303l0.018-0.068l0.842,0.186l-0.014,0.063c-0.219-0.045-0.307-0.014-0.355,0.219l-0.318,1.471
					c-0.049,0.205-0.006,0.287,0.234,0.336L38.338,37.604z"/>
				<path fill="#231F20" d="M40.129,37.857c-0.072,0.18-0.037,0.264,0.166,0.346l0.119,0.049l-0.023,0.064l-1.039-0.414l0.025-0.063
					l0.121,0.045c0.203,0.084,0.287,0.045,0.355-0.133l0.646-1.629l-0.572-0.23c-0.135-0.053-0.223,0-0.387,0.271l-0.061-0.025
					l0.266-0.512l0.063,0.025c-0.006,0.021,0.004,0.037,0.02,0.055c0.02,0.01,0.041,0.025,0.063,0.035l1.588,0.627
					c0.047,0.02,0.1,0.029,0.123-0.008l0.063,0.025l-0.16,0.557l-0.059-0.025c0.066-0.311,0.037-0.41-0.096-0.463l-0.574-0.227
					L40.129,37.857z"/>
				<path fill="#231F20" d="M43.744,38.09c0.203-0.098,0.178-0.184-0.01-0.311l0.039-0.059l0.666,0.447L44.4,38.225
					c-0.211-0.119-0.348-0.1-0.523-0.018l-1.043,0.506l-0.295,0.441c-0.107,0.158-0.092,0.254,0.09,0.375l0.035,0.025l-0.035,0.059
					l-0.813-0.543l0.035-0.057l0.059,0.041c0.184,0.119,0.283,0.088,0.377-0.057l0.279-0.414l0.021-1.172
					c0.01-0.324-0.033-0.412-0.219-0.549l0.035-0.055l0.787,0.523l-0.037,0.055c-0.23-0.15-0.283-0.104-0.285,0.088l-0.016,1.049
					L43.744,38.09z"/>
				<path fill="#231F20" d="M46.676,42.318c-0.402,0.307-0.975,0.396-1.324-0.066c-0.346-0.451-0.25-1.094,0.277-1.498
					c0.342-0.26,0.955-0.412,1.334,0.086C47.318,41.305,47.203,41.92,46.676,42.318z M46.973,42.514
					c0.506-0.387,0.523-1.121,0.115-1.656c-0.459-0.602-1.186-0.73-1.748-0.303c-0.527,0.404-0.529,1.139-0.105,1.693
					C45.65,42.797,46.4,42.949,46.973,42.514z"/>
				<path fill="#231F20" d="M47.717,44.732l-0.025-0.053c0.184-0.098,0.207-0.193,0.133-0.348l-0.283-0.59l-0.699,0.332
					c-0.182,0.084-0.229,0.16-0.113,0.4l-0.063,0.027l-0.371-0.781l0.061-0.029c0.107,0.197,0.166,0.209,0.426,0.084l1.254-0.596
					c0.207-0.1,0.291-0.162,0.189-0.385l0.061-0.029l0.684,1.436l-0.379,0.182l-0.025-0.055c0.186-0.092,0.229-0.195,0.137-0.393
					l-0.291-0.607l-0.754,0.357l0.305,0.635c0.059,0.119,0.15,0.145,0.295,0.088l0.025,0.055L47.717,44.732z"/>
				<path fill="#231F20" d="M22.863,58.627l1.281-2.357l-0.006-0.01l-1.723,1.104c-0.199,0.123-0.139,0.293-0.027,0.463
					l-0.066,0.049l-0.555-0.764l0.068-0.049c0.197,0.268,0.279,0.256,0.625,0.033l1.492-0.949c0.252-0.158,0.313-0.213,0.164-0.451
					l0.064-0.053l0.404,0.555l-1.207,2.229l2.49-0.461l0.387,0.541l-0.061,0.047c-0.146-0.168-0.203-0.236-0.32-0.137l-1.582,1.324
					c-0.322,0.266-0.295,0.295-0.104,0.561l-0.072,0.057l-0.682-0.947l0.066-0.049c0.127,0.174,0.297,0.305,0.48,0.148l1.57-1.297
					l-0.004-0.01l-2.623,0.51L22.863,58.627z"/>
				<path fill="#231F20" d="M27.359,61.08l-0.635-0.465l0.938-0.625L27.359,61.08z M27.305,61.287l-0.248,0.846
					c-0.01,0.043-0.025,0.121-0.068,0.178c-0.076,0.1-0.17,0.068-0.377-0.084l-0.092-0.072l-0.055,0.07l1.006,0.74l0.049-0.07
					c-0.18-0.133-0.23-0.225-0.16-0.477l0.727-2.588l-0.316-0.234l-0.025,0.105l-2.004,1.328c-0.348,0.232-0.422,0.238-0.656,0.068
					l-0.057,0.072l0.848,0.621l0.051-0.072l-0.059-0.043c-0.199-0.146-0.27-0.254-0.197-0.352c0.037-0.053,0.168-0.127,0.242-0.176
					l0.637-0.418L27.305,61.287z"/>
				<path fill="#231F20" d="M30.213,61.221c0.082,0.018,0.137,0.041,0.217,0.068c0.66,0.236,0.729,0.605,0.588,1.002
					c-0.184,0.514-0.566,0.604-1.039,0.438c-0.1-0.035-0.166-0.055-0.264-0.105L30.213,61.221z M29.686,62.703
					c0.068,0.029,0.119,0.057,0.217,0.088c0.113,0.041,0.188,0.059,0.293,0.094c0.076,0.107,0.186,0.283,0.307,0.539l0.18,0.381
					c0.246,0.514,0.381,0.746,1.143,0.977l0.027-0.076c-0.322-0.137-0.527-0.389-0.689-0.73l-0.219-0.457
					c-0.129-0.271-0.213-0.438-0.328-0.617c0.387,0.02,0.701-0.17,0.814-0.492c0.156-0.438-0.086-0.885-0.877-1.17
					c-0.279-0.094-0.367-0.119-0.545-0.176c-0.178-0.055-0.441-0.127-0.547-0.166l-0.029,0.08l0.096,0.033
					c0.246,0.09,0.295,0.195,0.199,0.461l-0.639,1.795c-0.104,0.287-0.217,0.324-0.467,0.234l-0.074-0.025l-0.029,0.08l1.211,0.434
					l0.027-0.084l-0.1-0.033c-0.236-0.086-0.318-0.188-0.227-0.441L29.686,62.703z"/>
				<path fill="#231F20" d="M34.834,62.611c0.164-0.236,0.086-0.32-0.201-0.348l0.004-0.088l1.023,0.088l-0.008,0.088
					c-0.311-0.002-0.453,0.107-0.598,0.309l-0.857,1.209l-0.059,0.678c-0.02,0.236,0.059,0.34,0.336,0.361l0.057,0.008L34.521,65
					l-1.238-0.104l0.006-0.086l0.086,0.004c0.281,0.025,0.371-0.07,0.387-0.293l0.057-0.637l-0.699-1.328
					c-0.188-0.363-0.289-0.438-0.582-0.471L32.545,62l1.203,0.104l-0.01,0.086c-0.352-0.031-0.381,0.055-0.264,0.275l0.631,1.176
					L34.834,62.611z"/>
				<path fill="#231F20" d="M38.602,64.645l-2,0.342l-0.01-0.086l0.146-0.027c0.205-0.033,0.27-0.115,0.23-0.34l-0.336-1.98
					c-0.037-0.238-0.125-0.324-0.41-0.277l-0.063,0.012l-0.012-0.084l1.318-0.227l0.014,0.084l-0.164,0.029
					c-0.293,0.053-0.363,0.094-0.314,0.373l0.348,2.059c0.018,0.121,0.076,0.16,0.207,0.139l0.656-0.111
					c0.264-0.047,0.326-0.162,0.545-0.598l0.078-0.016L38.602,64.645z"/>
				<path fill="#231F20" d="M40.766,62.381l-0.721,0.301l-0.051-1.121L40.766,62.381z M40.914,62.535l0.602,0.643
					c0.033,0.039,0.09,0.086,0.119,0.156c0.047,0.115-0.029,0.18-0.268,0.277l-0.111,0.045l0.033,0.078l1.15-0.477l-0.033-0.084
					c-0.209,0.088-0.313,0.084-0.488-0.102l-1.846-1.957l-0.365,0.15l0.078,0.078l0.105,2.396c0.018,0.422-0.008,0.486-0.277,0.604
					l0.031,0.08l0.967-0.404l-0.031-0.082l-0.068,0.029c-0.229,0.098-0.357,0.104-0.402-0.01c-0.025-0.059-0.025-0.209-0.027-0.301
					l-0.031-0.758L40.914,62.535z"/>
				<path fill="#231F20" d="M45.824,60.777l-3.379-0.398l1.242,1.502c0.205,0.25,0.305,0.258,0.604,0.01l0.053,0.068l-0.809,0.67
					l-0.055-0.07l0.012-0.008c0.219-0.178,0.227-0.313,0.094-0.471l-1.42-1.721c-0.127,0.008-0.24,0.057-0.367,0.152l-0.055-0.064
					l0.547-0.453l3.066,0.357l-1.148-1.396c-0.176-0.209-0.271-0.195-0.557,0.027l-0.055-0.064l0.818-0.676l0.055,0.064
					c-0.264,0.215-0.281,0.309-0.168,0.443l1.611,1.953L45.824,60.777z"/>
				<path fill="#231F20" d="M45.158,57.283c0.027-0.047,0.082-0.154,0.184-0.313c0.344-0.535,0.654-0.715,0.941-0.777
					c0.369-0.084,0.734,0.037,1.016,0.223c0.395,0.25,0.574,0.619,0.617,0.848c0.086,0.389,0.02,0.65-0.309,1.16
					c-0.195,0.299-0.256,0.277-0.412,0.176L45.158,57.283z M46.922,58.871c0.221,0.143,0.217,0.277,0.082,0.482l-0.039,0.066
					l0.07,0.045l0.789-1.217c0.621-0.967,0.223-1.857-0.354-2.227c-0.629-0.41-1.43-0.293-2.078,0.709
					c-0.127,0.199-0.273,0.436-0.402,0.65c-0.127,0.215-0.242,0.404-0.324,0.551l0.074,0.051l0.047-0.08
					c0.146-0.223,0.248-0.248,0.496-0.092L46.922,58.871z"/>
				<path fill="#231F20" d="M20.664,48.984v1.939c0,0.104,0.023,0.131,0.127,0.131h0.189v0.061h-0.846v-0.061h0.182
					c0.107,0,0.129-0.031,0.129-0.133v-1.67c-0.109,0.092-0.295,0.217-0.42,0.273L20,49.48c0.191-0.133,0.473-0.383,0.551-0.496
					H20.664z"/>
				<path fill="#231F20" d="M22.605,50.639c0,0.264-0.189,0.463-0.445,0.463c-0.254,0-0.443-0.209-0.443-0.494
					c0-0.217,0.115-0.387,0.346-0.506C22.449,50.277,22.605,50.418,22.605,50.639z M22.752,49.465c0-0.268-0.27-0.48-0.604-0.48
					c-0.332,0-0.609,0.246-0.609,0.541c0,0.227,0.146,0.4,0.459,0.541c-0.33,0.127-0.488,0.313-0.488,0.547
					c0,0.309,0.287,0.549,0.646,0.549c0.379,0,0.666-0.268,0.666-0.615c0-0.258-0.152-0.436-0.506-0.592
					C22.611,49.838,22.752,49.682,22.752,49.465z M22.551,49.461c0,0.193-0.096,0.348-0.279,0.465
					c-0.436-0.184-0.533-0.322-0.533-0.502c0-0.211,0.182-0.377,0.41-0.377C22.381,49.047,22.551,49.223,22.551,49.461z"/>
				<path fill="#231F20" d="M47.654,49.223h0.793c0.061,0,0.08-0.012,0.1-0.043h0.063l-0.037,0.26h-0.848l-0.025,0.602
					c0.102-0.057,0.223-0.086,0.359-0.086c0.375,0,0.688,0.314,0.688,0.691c0,0.406-0.338,0.717-0.785,0.717
					c-0.27,0-0.49-0.094-0.49-0.211c0-0.057,0.051-0.107,0.111-0.107c0.178,0,0.242,0.236,0.453,0.236
					c0.25,0,0.459-0.258,0.459-0.564c0-0.309-0.209-0.537-0.5-0.537c-0.121,0-0.254,0.047-0.352,0.133l-0.033-0.023L47.654,49.223z"
					/>
				<path fill="#231F20" d="M50.205,50.717c0,0.381-0.16,0.588-0.395,0.588c-0.211,0-0.459-0.182-0.459-0.746
					c0-0.113,0.008-0.164,0.018-0.209c0.205-0.162,0.357-0.201,0.443-0.201C50.039,50.148,50.205,50.357,50.205,50.717z
					 M50.225,49.18c-0.701,0.197-1.121,0.688-1.121,1.309c0,0.518,0.287,0.875,0.701,0.875c0.357,0,0.652-0.309,0.652-0.676
					c0-0.346-0.266-0.617-0.594-0.617c-0.166,0-0.295,0.051-0.477,0.191c0.072-0.488,0.352-0.816,0.873-1.033L50.225,49.18z"/>
			</g>
		</g>
		<g>
			<path fill="#231F20" d="M77.697,64.277l-6.518-6.82v5.395c0,0.908,0.201,1.098,1.271,1.098v0.24h-2.922v-0.24h0.053
				c0.779,0,1.029-0.266,1.029-0.842v-6.193c-0.289-0.201-0.615-0.305-1.057-0.313v-0.24h1.979l5.926,6.178v-5.008
				c0-0.77-0.227-0.906-1.234-0.93v-0.24h2.945v0.24c-0.943,0-1.146,0.16-1.146,0.652v7.023H77.697z"/>
			<path fill="#231F20" d="M81.855,60.713l-0.73,1.977c-0.088,0.24-0.252,0.617-0.252,0.795c0,0.336,0.328,0.465,1.02,0.465h0.201
				v0.24h-2.906v-0.24c0.818-0.014,0.957-0.152,1.359-1.246l2.291-6.254l-0.113-0.279h1.094l2.631,6.986
				c0.25,0.664,0.516,0.793,1.145,0.793v0.24h-3.459v-0.24h0.326c0.717,0,0.98-0.076,0.98-0.428c0-0.203-0.088-0.391-0.139-0.518
				l-0.842-2.291H81.855z M83.139,57.227l-1.07,2.934h2.178L83.139,57.227z"/>
			<path fill="#231F20" d="M91.707,63.027c0,0.682,0.227,0.922,0.994,0.922h0.465v0.24h-3.963v-0.24h0.467
				c0.768,0,0.992-0.24,0.992-0.922v-6.215h-2.188c-0.504,0-0.73,0.293-0.92,1.398H87.33l0.199-2.041h0.24
				c0.012,0.078,0.063,0.127,0.137,0.152c0.076,0.023,0.164,0.039,0.252,0.039h6.055c0.176,0,0.363-0.039,0.389-0.191h0.238
				l0.201,2.041h-0.227c-0.188-1.105-0.414-1.398-0.918-1.398h-2.189V63.027z"/>
			<path fill="#231F20" d="M105.346,56.361v0.24c-0.844,0.008-1.146,0.352-1.146,1.154v3.396c0,1.563-0.994,3.236-3.725,3.236
				c-2.404,0-3.637-1.371-3.637-3.172v-3.672c0-0.809-0.227-0.936-1.082-0.943v-0.24h3.234v0.24h-0.113
				c-0.693,0-0.994,0.184-0.994,0.916v3.498c0,1.699,0.994,2.717,2.869,2.717c1.422,0,2.871-0.59,2.871-2.729v-2.932
				c0-1.207-0.191-1.424-1.234-1.471v-0.24H105.346z"/>
			<path fill="#231F20" d="M108.285,63.004c0,0.756,0.303,0.945,1.008,0.945h0.289v0.24h-3.561v-0.24h0.213
				c0.742,0,1.006-0.201,1.006-1.043v-5.301c0-0.779-0.213-1.004-0.943-1.004h-0.275v-0.24c0.301,0,1.068-0.049,1.586-0.076
				c0.516-0.027,0.766-0.037,1.584-0.037c2.328,0,3.373,0.955,3.373,2.236c0,0.945-0.643,1.738-1.674,2.043
				c0.467,0.361,0.844,0.713,1.436,1.307l0.994,0.992c0.74,0.746,1.51,1.211,2.479,1.273v0.227c-2.203,0.104-2.77-0.377-3.889-1.5
				l-0.83-0.828c-0.555-0.555-0.994-0.918-1.299-1.119c-0.313,0.01-0.514,0.025-0.854,0.025c-0.277,0-0.439-0.016-0.643-0.025
				V63.004z M108.285,60.639c0.303,0.039,0.492,0.025,0.781,0.025c1.396,0,2.316-0.594,2.316-2.1c0-1.17-0.529-2.076-2.469-2.076
				c-0.238,0-0.4,0-0.629,0.025V60.639z"/>
			<path fill="#231F20" d="M119.012,60.713l-0.729,1.977c-0.088,0.24-0.25,0.617-0.25,0.795c0,0.336,0.326,0.465,1.018,0.465h0.201
				v0.24h-2.908v-0.24c0.82-0.014,0.959-0.152,1.361-1.246l2.291-6.254l-0.113-0.279h1.092l2.633,6.986
				c0.252,0.664,0.516,0.793,1.145,0.793v0.24h-3.459v-0.24h0.324c0.719,0,0.982-0.076,0.982-0.428c0-0.203-0.088-0.391-0.137-0.518
				l-0.846-2.291H119.012z M120.299,57.227l-1.07,2.934h2.176L120.299,57.227z"/>
			<path fill="#231F20" d="M131.01,64.189h-5.625v-0.24h0.416c0.578,0,0.793-0.189,0.793-0.834v-5.57
				c0-0.67-0.201-0.943-0.994-0.943h-0.176v-0.24h3.711v0.24h-0.465c-0.818,0-1.031,0.088-1.031,0.865v5.801
				c0,0.342,0.137,0.465,0.502,0.465h1.85c0.742,0,0.969-0.289,1.762-1.383h0.227L131.01,64.189z"/>
		</g>
	</g>
</g>
</svg>
