<?xml version="1.0" encoding="utf-8"?>
<!-- Generator: Adobe Illustrator 18.1.1, SVG Export Plug-In . SVG Version: 6.00 Build 0)  -->
<svg version="1.1" id="Layer_1" xmlns="http://www.w3.org/2000/svg" xmlns:xlink="http://www.w3.org/1999/xlink" x="0px" y="0px"
	 viewBox="92 253 412 288" enable-background="new 92 253 412 288" xml:space="preserve">
<g>
	<defs>
		<rect id="SVGID_1_" y="223.9" width="612" height="344.3"/>
	</defs>
	<clipPath id="SVGID_2_">
		<use xlink:href="#SVGID_1_"  overflow="visible"/>
	</clipPath>
	<g clip-path="url(#SVGID_2_)">
		<path fill="#FFFFFF" d="M0,223.9h612v344.3H0V223.9z"/>
		<path fill-opacity="0" d="M222.2,329.1c0,17.4-1.9,36,5.1,51.9c6.5,14.7,27.1,24.6,43,22c7.3-1.2,9.8-11.7,12.2-18.7
			c5.8-17.3,10.3-35.5,10.3-53.8"/>
		<path fill="none" stroke="#000000" stroke-width="2" stroke-linejoin="round" stroke-miterlimit="10" d="M222.2,329.1
			c0,17.4-1.9,36,5.1,51.9c6.5,14.7,27.1,24.6,43,22c7.3-1.2,9.8-11.7,12.2-18.7c5.8-17.3,10.3-35.5,10.3-53.8"/>
		<path fill-opacity="0" d="M222.2,331.4c-7.6,0-15.7-3.5-21.1-8.9"/>
		<path fill="none" stroke="#000000" stroke-width="2" stroke-linejoin="round" stroke-miterlimit="10" d="M222.2,331.4
			c-7.6,0-15.7-3.5-21.1-8.9"/>
		<path fill-opacity="0" d="M294.2,331c7.3-1,13.9-6,19.2-11.2"/>
		<path fill="none" stroke="#000000" stroke-width="2" stroke-linejoin="round" stroke-miterlimit="10" d="M294.2,331
			c7.3-1,13.9-6,19.2-11.2"/>
		<path fill-opacity="0" d="M202.1,321.2c23.2,0,46.5,3.4,69.7,1.9c10.2-0.7,20.3-2.6,30.4-3.7c4.3-0.5,10.7-3.6,13.1,0"/>
		<path fill="none" stroke="#000000" stroke-width="2" stroke-linejoin="round" stroke-miterlimit="10" d="M202.1,321.2
			c23.2,0,46.5,3.4,69.7,1.9c10.2-0.7,20.3-2.6,30.4-3.7c4.3-0.5,10.7-3.6,13.1,0"/>
		<path fill-opacity="0" d="M221.3,322.1c0-12.4-7.9-25.5-3.3-37c5.2-13,22.2-19.5,36-21.5c9.9-1.4,23.8-0.6,29,8
			c8.5,14.1,11.9,30.8,15.9,46.8"/>
		<path fill="none" stroke="#000000" stroke-width="2" stroke-linejoin="round" stroke-miterlimit="10" d="M221.3,322.1
			c0-12.4-7.9-25.5-3.3-37c5.2-13,22.2-19.5,36-21.5c9.9-1.4,23.8-0.6,29,8c8.5,14.1,11.9,30.8,15.9,46.8"/>
		<path fill-opacity="0" d="M220.3,315.1c25,0,51.1,3.7,74.9-4.2"/>
		<path fill="none" stroke="#000000" stroke-width="2" stroke-linejoin="round" stroke-miterlimit="10" d="M220.3,315.1
			c25,0,51.1,3.7,74.9-4.2"/>
		<path fill-opacity="0" d="M223.1,329.1c23-2.3,47.3-6.8,69.2,0.5"/>
		<path fill="none" stroke="#000000" stroke-width="2" stroke-linejoin="round" stroke-miterlimit="10" d="M223.1,329.1
			c23-2.3,47.3-6.8,69.2,0.5"/>
		<path fill-opacity="0" d="M222.7,340.3c-2.4-1.4-5.3-5.4-7.5-3.7c-2.4,1.8,0,6.1,0.9,8.9"/>
		<path fill="none" stroke="#000000" stroke-width="2" stroke-linejoin="round" stroke-miterlimit="10" d="M222.7,340.3
			c-2.4-1.4-5.3-5.4-7.5-3.7c-2.4,1.8,0,6.1,0.9,8.9"/>
		<path fill-opacity="0" d="M216.1,346c3.1,9.3-0.4,25,8.9,28.1"/>
		<path fill="none" stroke="#000000" stroke-width="2" stroke-linejoin="round" stroke-miterlimit="10" d="M216.1,346
			c3.1,9.3-0.4,25,8.9,28.1"/>
		<path fill-opacity="0" d="M293.8,335.2c2.7,0,6.9-2.4,8,0c1.3,3.1-2.8,6.1-3.7,9.4c-1.9,6.5-2.3,13.4-2.3,20.1"/>
		<path fill="none" stroke="#000000" stroke-width="2" stroke-linejoin="round" stroke-miterlimit="10" d="M293.8,335.2
			c2.7,0,6.9-2.4,8,0c1.3,3.1-2.8,6.1-3.7,9.4c-1.9,6.5-2.3,13.4-2.3,20.1"/>
		<path fill-opacity="0" d="M295.2,364.2c-1,3-4,5.5-7,6.5"/>
		<path fill="none" stroke="#000000" stroke-width="2" stroke-linejoin="round" stroke-miterlimit="10" d="M295.2,364.2
			c-1,3-4,5.5-7,6.5"/>
		<path fill-opacity="0" d="M233.9,390.9c0,8.6,4.2,19.6-1.9,25.7"/>
		<path fill="none" stroke="#000000" stroke-width="2" stroke-linejoin="round" stroke-miterlimit="10" d="M233.9,390.9
			c0,8.6,4.2,19.6-1.9,25.7"/>
		<path fill-opacity="0" d="M281.2,389.5c1.7,8.5,1.9,17.5,4.7,25.7"/>
		<path fill="none" stroke="#000000" stroke-width="2" stroke-linejoin="round" stroke-miterlimit="10" d="M281.2,389.5
			c1.7,8.5,1.9,17.5,4.7,25.7"/>
		<path fill-opacity="0" d="M263.2,339.3l0.7-1.6l6.8,2.8l-0.7,1.6L263.2,339.3z"/>
		<path fill="none" stroke="#000000" stroke-width="2" stroke-linejoin="round" stroke-miterlimit="10" d="M263.2,339.3l0.7-1.6
			l6.8,2.8l-0.7,1.6L263.2,339.3z"/>
		<path fill-opacity="0" d="M246.5,382.8l0.7-1.6l6.8,2.8l-0.7,1.6L246.5,382.8z"/>
		<path fill="none" stroke="#000000" stroke-width="2" stroke-linejoin="round" stroke-miterlimit="10" d="M246.5,382.8l0.7-1.6
			l6.8,2.8l-0.7,1.6L246.5,382.8z"/>
		<path fill-opacity="0" d="M236.6,357.1l-1.6-0.7l2.5-6.9l1.6,0.6L236.6,357.1z"/>
		<path fill="none" stroke="#000000" stroke-width="2" stroke-linejoin="round" stroke-miterlimit="10" d="M236.6,357.1l-1.6-0.7
			l2.5-6.9l1.6,0.6L236.6,357.1z"/>
		<path fill-opacity="0" d="M278.5,373.4l-1.6-0.7l2.8-6.8l1.6,0.7L278.5,373.4z"/>
		<path fill="none" stroke="#000000" stroke-width="2" stroke-linejoin="round" stroke-miterlimit="10" d="M278.5,373.4l-1.6-0.7
			l2.8-6.8l1.6,0.7L278.5,373.4z"/>
		<path fill="#FFFFFF" d="M245.7,332.4l40.5,16.2l-16.1,41.5l-40-15.5L245.7,332.4z"/>
		<path fill="none" stroke="#000000" stroke-width="2" stroke-linejoin="round" stroke-miterlimit="10" d="M245.7,332.4l40.5,16.2
			l-16.1,41.5l-40-15.5L245.7,332.4z"/>
		<path fill="#FFFFFF" d="M254.8,353.6l10.7,4.3l-4.3,11l-10.6-4.1L254.8,353.6z"/>
		<path fill="none" stroke="#000000" stroke-width="2" stroke-linejoin="round" stroke-miterlimit="10" d="M254.8,353.6l10.7,4.3
			l-4.3,11l-10.6-4.1L254.8,353.6z"/>
		<path fill-opacity="0" d="M235.3,403.9c8.7,13.1,40.1,12.2,47.2-1.9"/>
		<path fill="none" stroke="#000000" stroke-width="2" stroke-linejoin="round" stroke-miterlimit="10" d="M235.3,403.9
			c8.7,13.1,40.1,12.2,47.2-1.9"/>
		<path fill-opacity="0" d="M229.7,392.3c0,32.4,12.7,63.6,21.1,95c1.4,5.4,6.7,9.2,8.4,14.5"/>
		<path fill="none" stroke="#000000" stroke-width="2" stroke-linejoin="round" stroke-miterlimit="10" d="M229.7,392.3
			c0,32.4,12.7,63.6,21.1,95c1.4,5.4,6.7,9.2,8.4,14.5"/>
		<path fill-opacity="0" d="M287.7,390.4c0,27.5-6.8,54.9-15.4,80.9c-6.8,20.3-18.7,39.9-18.7,61.3"/>
		<path fill="none" stroke="#000000" stroke-width="2" stroke-linejoin="round" stroke-miterlimit="10" d="M287.7,390.4
			c0,27.5-6.8,54.9-15.4,80.9c-6.8,20.3-18.7,39.9-18.7,61.3"/>
		<path fill-opacity="0" d="M264.8,418.7c-6.4,0-13.2-1.3-19.2,0.9"/>
		<path fill="none" stroke="#000000" stroke-width="2" stroke-linejoin="round" stroke-miterlimit="10" d="M264.8,418.7
			c-6.4,0-13.2-1.3-19.2,0.9"/>
		<path fill-opacity="0" d="M246.3,419.9c2.4,7.7,8.8,14.8,7.7,22.8c-0.6,4.6-4.7,8.1-5.1,12.6c-0.6,6.9,0.1,13.9-1.2,20.7"/>
		<path fill="none" stroke="#000000" stroke-width="2" stroke-linejoin="round" stroke-miterlimit="10" d="M246.3,419.9
			c2.4,7.7,8.8,14.8,7.7,22.8c-0.6,4.6-4.7,8.1-5.1,12.6c-0.6,6.9,0.1,13.9-1.2,20.7"/>
		<path fill-opacity="0" d="M264.5,418.5c0,8.3-4.9,16.5-3.3,24.5c2.2,10.9,9.8,20.5,9.8,31.6"/>
		<path fill="none" stroke="#000000" stroke-width="2" stroke-linejoin="round" stroke-miterlimit="10" d="M264.5,418.5
			c0,8.3-4.9,16.5-3.3,24.5c2.2,10.9,9.8,20.5,9.8,31.6"/>
		<path fill-opacity="0" d="M229.7,392.5c-8,14.1-20,27-22.7,43"/>
		<path fill="none" stroke="#000000" stroke-width="2" stroke-linejoin="round" stroke-miterlimit="10" d="M229.7,392.5
			c-8,14.1-20,27-22.7,43"/>
		<path fill-opacity="0" d="M207,435.8c1.5,2.7,4.7,5,4.7,8.2c0,2.1-4.2,1.1-5.8,2.3"/>
		<path fill="none" stroke="#000000" stroke-width="2" stroke-linejoin="round" stroke-miterlimit="10" d="M207,435.8
			c1.5,2.7,4.7,5,4.7,8.2c0,2.1-4.2,1.1-5.8,2.3"/>
		<path fill-opacity="0" d="M206.3,446.5c1.4,8.3,7,15.3,11,22.7c7.7,14.2,13.4,29.6,22.7,42.8c4.7,6.7,11,13,12.6,21.1"/>
		<path fill="none" stroke="#000000" stroke-width="2" stroke-linejoin="round" stroke-miterlimit="10" d="M206.3,446.5
			c1.4,8.3,7,15.3,11,22.7c7.7,14.2,13.4,29.6,22.7,42.8c4.7,6.7,11,13,12.6,21.1"/>
		<path fill-opacity="0" d="M218,410.3c-15.9,13.6-38.2,18-54.5,31.1"/>
		<path fill="none" stroke="#000000" stroke-width="2" stroke-linejoin="round" stroke-miterlimit="10" d="M218,410.3
			c-15.9,13.6-38.2,18-54.5,31.1"/>
		<path fill-opacity="0" d="M287.7,391.1c1.1,10.9,11.4,19.4,20.1,26"/>
		<path fill="none" stroke="#000000" stroke-width="2" stroke-linejoin="round" stroke-miterlimit="10" d="M287.7,391.1
			c1.1,10.9,11.4,19.4,20.1,26"/>
		<path fill-opacity="0" d="M308.1,417.1c0,7.5,0,15.5-2.8,22.5"/>
		<path fill="none" stroke="#000000" stroke-width="2" stroke-linejoin="round" stroke-miterlimit="10" d="M308.1,417.1
			c0,7.5,0,15.5-2.8,22.5"/>
		<path fill-opacity="0" d="M305.5,439.3c1.8,2,4.1,3.5,6.3,5.1"/>
		<path fill="none" stroke="#000000" stroke-width="2" stroke-linejoin="round" stroke-miterlimit="10" d="M305.5,439.3
			c1.8,2,4.1,3.5,6.3,5.1"/>
		<path fill-opacity="0" d="M307.8,418.5c15.9,6,31.5,12.9,47.2,19.2"/>
		<path fill="none" stroke="#000000" stroke-width="2" stroke-linejoin="round" stroke-miterlimit="10" d="M307.8,418.5
			c15.9,6,31.5,12.9,47.2,19.2"/>
		<path fill-opacity="0" d="M44,346H568v34.7H44L44,346z"/>
		<path d="M142.1,365.7c0,2.4-1,4.5-3,6.3c-2,1.8-4.7,2.7-8,2.7c-3.8,0-6.9-1.2-9.4-3.7c-2.5-2.5-3.8-5.8-3.8-10
			c0-3.8,1.3-6.9,3.8-9.2c2.6-2.3,5.8-3.5,9.6-3.5c1.6,0,3,0.3,4.2,0.8c1.2,0.5,2.2,1.3,3.1,2.2v-1.6c0-0.4,0.1-0.7,0.4-0.8
			c0.3-0.2,0.6-0.3,1-0.3c0.3,0,0.6,0.1,0.9,0.3c0.3,0.2,0.4,0.5,0.4,0.8v5.6c0,0.3-0.1,0.6-0.4,0.8c-0.3,0.2-0.5,0.3-0.9,0.3
			c-0.3,0-0.6-0.1-0.7-0.4c-0.2-0.3-0.3-0.5-0.5-0.8c-0.7-1.2-1.7-2.2-2.8-3c-1.2-0.8-2.7-1.2-4.6-1.2c-2.9,0-5.3,0.9-7,2.8
			c-1.7,1.9-2.5,4.3-2.5,7.2c0,3.3,0.8,5.8,2.5,7.7c1.7,1.9,4,2.8,7,2.8c2.1,0,3.8-0.6,5.1-1.7c1.3-1.1,2.1-2.7,2.5-4.6
			c0.1-0.4,0.3-0.6,0.6-0.8c0.3-0.2,0.6-0.3,1-0.3c0.4,0,0.8,0.1,1.1,0.3C141.9,364.9,142.1,365.2,142.1,365.7L142.1,365.7z
			 M151.4,348.3c0.2,0,0.4,0.1,0.5,0.2c0.2,0.1,0.2,0.3,0.2,0.5v22.6h3.6c0.4,0,0.7,0.1,0.8,0.4c0.2,0.3,0.3,0.6,0.3,1
			c0,0.3-0.1,0.6-0.3,0.9c-0.2,0.3-0.5,0.4-0.8,0.4h-10c-0.4,0-0.7-0.1-0.9-0.4c-0.2-0.2-0.3-0.5-0.3-0.9c0-0.4,0.1-0.7,0.3-0.9
			c0.2-0.3,0.5-0.4,0.9-0.4h3.4v-20.1l-3.5,0.9c0,0-0.1,0-0.1,0c0,0,0,0-0.1,0c-0.3,0-0.6-0.1-0.8-0.4c-0.2-0.3-0.4-0.6-0.4-0.9
			c0-0.4,0.1-0.7,0.3-0.8s0.5-0.2,0.8-0.3l5.8-1.7c0,0,0,0,0.1,0C151.3,348.3,151.4,348.3,151.4,348.3L151.4,348.3z M177.4,371.7
			c0,0.8-0.5,1.5-1.6,2s-1.9,0.8-2.6,0.8c-0.8,0-1.5-0.2-2-0.6c-0.5-0.4-0.8-1-1-1.8c-0.7,0.8-1.7,1.5-2.9,1.9
			c-1.2,0.4-2.4,0.6-3.8,0.6c-1.5,0-2.8-0.5-3.8-1.4c-1-0.9-1.5-2.1-1.5-3.6c0-2.7,1.3-4.3,3.9-4.9c2.6-0.6,5.2-1,7.7-1.2v-2.4
			c0-0.8-0.3-1.3-1-1.6c-0.7-0.3-1.4-0.5-2.1-0.5c-1.4,0-2.5,0.1-3.2,0.4s-1.6,0.8-2.5,1.4c-0.1,0.1-0.2,0.1-0.3,0.1
			c-0.1,0-0.2,0-0.3,0c-0.3,0-0.6-0.2-0.9-0.5c-0.3-0.3-0.4-0.7-0.4-1c0-1.2,0.9-2,2.6-2.4c1.7-0.4,3.2-0.6,4.5-0.6
			c2.5,0,4.2,0.5,5.2,1.6c0.9,1.1,1.4,2.8,1.4,5.3v7.5c0,0.3,0,0.6,0.1,0.8c0.1,0.2,0.3,0.3,0.5,0.3c0.4,0,0.9-0.3,1.5-0.8
			c0.6-0.5,1-0.8,1.4-0.8c0.2,0,0.5,0.1,0.7,0.4C177.3,371.1,177.4,371.4,177.4,371.7L177.4,371.7z M169.8,365.7
			c-1.6,0.2-3.4,0.4-5.4,0.8c-2,0.3-3,1.3-3,3c0,0.9,0.3,1.5,0.9,1.9c0.6,0.4,1.4,0.6,2.2,0.6c1,0,2-0.2,2.8-0.6
			c0.9-0.4,1.6-0.8,2.3-1.4V365.7z M186.1,358.5c0,0.4-0.1,0.7-0.3,1c-0.2,0.3-0.4,0.4-0.8,0.4h-1.8l5.2,11.2l4.1-11.2h-1.7
			c-0.4,0-0.7-0.1-0.8-0.4c-0.2-0.3-0.2-0.6-0.2-1c0-0.3,0.1-0.6,0.3-0.9c0.2-0.3,0.5-0.4,0.8-0.4h6c0.4,0,0.7,0.1,0.9,0.4
			c0.2,0.2,0.3,0.5,0.3,0.9c0,0.4-0.1,0.7-0.3,1c-0.2,0.3-0.5,0.4-0.9,0.4h-1.8l-6.2,16.1c-0.5,1.3-1.3,2.7-2.2,4.4
			c-0.9,1.7-2.3,2.6-4.2,2.6c-0.6,0-1.1-0.2-1.4-0.5c-0.3-0.3-0.5-0.7-0.5-1.1c0-0.4,0.1-0.7,0.4-1.1c0.3-0.4,0.7-0.6,1.3-0.6
			c0.8,0,1.6-0.3,2.2-0.9c0.6-0.6,1.1-1.3,1.4-2.1l1-2.4c0,0-0.2-0.2-0.4-0.6c-0.2-0.4-0.3-0.7-0.4-0.7l-6.4-13h-1.8
			c-0.4,0-0.7-0.1-0.9-0.4c-0.2-0.3-0.3-0.6-0.3-1c0-0.4,0.1-0.7,0.3-0.9c0.2-0.2,0.5-0.4,0.9-0.4h6.8c0.4,0,0.6,0.1,0.8,0.4
			C186,357.9,186.1,358.2,186.1,358.5L186.1,358.5z M341.6,365.7c0,2.4-1,4.5-3,6.3c-2,1.8-4.7,2.7-8,2.7c-3.8,0-6.9-1.2-9.4-3.7
			s-3.8-5.8-3.8-10c0-3.8,1.3-6.9,3.8-9.2c2.6-2.3,5.8-3.5,9.6-3.5c1.6,0,3,0.3,4.2,0.8c1.2,0.5,2.2,1.3,3.1,2.2v-1.6
			c0-0.4,0.1-0.7,0.4-0.8c0.3-0.2,0.6-0.3,1-0.3c0.3,0,0.6,0.1,0.9,0.3c0.3,0.2,0.4,0.5,0.4,0.8v5.6c0,0.3-0.1,0.6-0.4,0.8
			c-0.3,0.2-0.5,0.3-0.9,0.3c-0.3,0-0.6-0.1-0.7-0.4c-0.2-0.3-0.3-0.5-0.5-0.8c-0.7-1.2-1.7-2.2-2.8-3s-2.7-1.2-4.6-1.2
			c-2.9,0-5.3,0.9-7,2.8c-1.7,1.9-2.5,4.3-2.5,7.2c0,3.3,0.8,5.8,2.5,7.7c1.7,1.9,4,2.8,7,2.8c2.1,0,3.8-0.6,5.1-1.7
			c1.3-1.1,2.1-2.7,2.5-4.6c0.1-0.4,0.3-0.6,0.6-0.8c0.3-0.2,0.6-0.3,1-0.3c0.4,0,0.8,0.1,1.1,0.3
			C341.4,364.9,341.6,365.2,341.6,365.7L341.6,365.7z M353.5,359c-1.9,0-3.4,0.6-4.4,1.8c-1,1.2-1.6,2.8-1.6,4.7
			c0,1.9,0.5,3.5,1.6,4.7c1,1.2,2.5,1.8,4.4,1.8c1.8,0,3.3-0.6,4.3-1.9c1-1.2,1.5-2.8,1.5-4.7c0-1.9-0.5-3.4-1.5-4.7
			C356.8,359.6,355.3,359,353.5,359L353.5,359z M353.5,374.6c-2.8,0-5-0.8-6.7-2.5c-1.7-1.6-2.6-3.8-2.6-6.6c0-2.8,0.9-5,2.6-6.6
			c1.7-1.6,4-2.5,6.7-2.5c2.7,0,4.9,0.8,6.6,2.5c1.7,1.7,2.5,3.8,2.5,6.6c0,2.7-0.8,4.9-2.5,6.6
			C358.4,373.8,356.2,374.6,353.5,374.6L353.5,374.6z M391.3,356.5c1.8,0,3.4,0.6,4.6,1.7c1.2,1.1,1.8,2.6,1.8,4.4v9h2.2
			c0.4,0,0.7,0.1,0.8,0.4c0.2,0.3,0.2,0.6,0.2,1c0,0.3-0.1,0.6-0.3,0.9c-0.2,0.3-0.5,0.4-0.8,0.4h-7.3c-0.4,0-0.7-0.1-0.9-0.4
			c-0.2-0.2-0.3-0.5-0.3-0.9c0-0.4,0.1-0.7,0.3-0.9c0.2-0.3,0.5-0.4,0.9-0.4h2.2v-8.8c0-1.2-0.3-2.1-0.9-2.8c-0.6-0.7-1.5-1-2.7-1
			c-1.6,0-2.9,0.4-4,1.3c-1.1,0.9-1.9,1.8-2.6,3v8.3h2.5c0.4,0,0.7,0.1,0.8,0.4c0.2,0.3,0.3,0.6,0.3,1c0,0.3-0.1,0.6-0.3,0.9
			c-0.2,0.3-0.5,0.4-0.8,0.4H379c-0.4,0-0.7-0.1-0.9-0.4c-0.2-0.2-0.3-0.5-0.3-0.9c0-0.4,0.1-0.7,0.3-0.9c0.2-0.3,0.5-0.4,0.9-0.4
			h2.5v-8.8c0-1.2-0.3-2.1-0.9-2.8c-0.6-0.7-1.5-1-2.7-1c-1.7,0-3.1,0.4-4.3,1.2s-2,1.8-2.6,2.9v8.5h2.8c0.4,0,0.6,0.1,0.8,0.4
			c0.2,0.3,0.2,0.6,0.2,1c0,0.3-0.1,0.6-0.3,0.9c-0.2,0.3-0.5,0.4-0.8,0.4h-7.9c-0.4,0-0.7-0.1-0.9-0.4c-0.2-0.2-0.3-0.5-0.3-0.9
			c0-0.4,0.1-0.7,0.3-0.9c0.2-0.3,0.5-0.4,0.9-0.4h2.2v-12l-2.2,0.5c0,0,0,0-0.1,0c0,0-0.1,0-0.1,0c-0.3,0-0.6-0.1-0.8-0.4
			c-0.3-0.2-0.4-0.5-0.4-0.8c0-0.3,0.1-0.6,0.2-0.8c0.1-0.2,0.4-0.4,0.6-0.4l4.2-1.2c0,0,0.1,0,0.1,0c0,0,0,0,0.1,0h0.1
			c0.2,0,0.4,0.1,0.5,0.2c0.2,0.1,0.2,0.3,0.2,0.5l0.3,2.8c0.6-1,1.6-1.8,2.9-2.5c1.4-0.7,2.8-1,4.4-1c1.5,0,2.8,0.4,3.8,1.1
			c1,0.7,1.8,1.6,2.2,2.7c0.7-1,1.6-1.9,2.9-2.6C388.2,356.8,389.6,356.5,391.3,356.5L391.3,356.5z M419.2,365.5
			c0-1.8-0.4-3.3-1.3-4.6c-0.9-1.3-2.2-1.9-3.9-1.9c-1.3,0-2.4,0.2-3.4,0.7c-0.9,0.5-1.7,1.1-2.3,1.9v8.3c0.6,0.6,1.4,1.1,2.4,1.5
			c0.9,0.4,2,0.6,3.3,0.6c1.7,0,3.1-0.6,4-1.9C418.7,368.8,419.2,367.3,419.2,365.5L419.2,365.5z M422.5,365.5
			c0,2.6-0.8,4.8-2.4,6.5c-1.6,1.7-3.7,2.5-6.3,2.5c-1.2,0-2.3-0.2-3.2-0.6c-0.9-0.4-1.7-0.9-2.4-1.5v7.6h3c0.4,0,0.7,0.1,0.8,0.4
			c0.2,0.3,0.3,0.6,0.3,1c0,0.3-0.1,0.6-0.3,0.9c-0.2,0.3-0.5,0.4-0.8,0.4h-7.8c-0.4,0-0.7-0.1-0.9-0.4c-0.2-0.2-0.3-0.5-0.3-0.9
			c0-0.4,0.1-0.7,0.3-1c0.2-0.3,0.5-0.4,0.9-0.4h1.9v-20.6l-2.1,0.5c0,0,0,0-0.1,0c0,0-0.1,0-0.1,0c-0.3,0-0.6-0.1-0.8-0.4
			c-0.3-0.2-0.4-0.5-0.4-0.8c0-0.3,0.1-0.6,0.2-0.8c0.2-0.2,0.4-0.4,0.6-0.4l4.2-1.2c0,0,0.1,0,0.1,0c0,0,0,0,0.1,0h0.1
			c0.2,0,0.4,0.1,0.5,0.2c0.2,0.1,0.2,0.3,0.2,0.5l0.3,2.8c0.5-1,1.3-1.9,2.4-2.5c1.1-0.7,2.4-1,3.9-1c2.6,0,4.6,0.9,6.1,2.6
			C421.7,360.7,422.5,362.9,422.5,365.5L422.5,365.5z M433.5,372c1.3,0,2.4-0.3,3.5-0.9c1-0.6,1.8-1.3,2.2-2.2v-9.3l-2.1,0.5
			c0,0,0,0-0.1,0c0,0-0.1,0-0.1,0c-0.3,0-0.6-0.1-0.8-0.4c-0.3-0.2-0.4-0.5-0.4-0.8c0-0.3,0.1-0.6,0.2-0.8c0.2-0.2,0.4-0.4,0.6-0.4
			l4.8-1.2c0,0,0.1,0,0.1,0c0,0,0.1,0,0.1,0c0.2,0,0.4,0.1,0.5,0.2c0.1,0.1,0.2,0.3,0.2,0.5v14.2h2.3c0.3,0,0.6,0.1,0.8,0.3
			c0.2,0.2,0.3,0.5,0.3,0.9c0,0.3-0.1,0.6-0.2,0.8c-0.1,0.2-0.4,0.4-0.6,0.4l-4.1,0.4c-0.3,0-0.5-0.1-0.7-0.3
			c-0.2-0.2-0.3-0.5-0.4-1l-0.2-1.5c-0.6,0.9-1.5,1.6-2.6,2.2c-1.2,0.6-2.4,0.9-3.7,0.9c-1.8,0-3.2-0.6-4.2-1.7
			c-1-1.1-1.5-2.6-1.5-4.4v-8.9l-2.1,0.5c0,0,0,0-0.1,0c0,0-0.1,0-0.1,0c-0.3,0-0.6-0.1-0.8-0.4s-0.4-0.5-0.4-0.8
			c0-0.3,0.1-0.6,0.2-0.8c0.1-0.2,0.4-0.4,0.6-0.4l4.8-1.2c0,0,0.1,0,0.1,0c0,0,0.1,0,0.1,0c0.2,0,0.4,0.1,0.6,0.2
			c0.1,0.1,0.2,0.3,0.2,0.5v11c0,1.1,0.3,2,0.8,2.7C431.7,371.7,432.4,372,433.5,372L433.5,372z M454.3,372.2c1,0,1.6-0.3,1.9-0.8
			c0.3-0.5,0.7-0.8,1.3-0.8c0.3,0,0.6,0.1,0.8,0.3c0.2,0.2,0.3,0.5,0.3,0.8c0,0.9-0.5,1.6-1.6,2.1c-1.1,0.5-2.1,0.8-3.1,0.8
			c-1.2,0-2.2-0.4-3.1-1.2c-0.9-0.8-1.3-1.8-1.3-2.9v-10.6h-2.2c-0.4,0-0.7-0.1-0.9-0.4s-0.3-0.5-0.3-0.9c0-0.4,0.1-0.7,0.3-1
			c0.2-0.3,0.5-0.4,0.9-0.4h2.3c0-0.9,0.1-2.1,0.2-3.6c0.2-1.5,0.7-2.3,1.5-2.3c0.2,0,0.5,0,0.6,0.1c0.2,0.1,0.4,0.2,0.5,0.3v0.3
			c0,0.1,0,0.3,0,0.4c0,0.2,0,0.3,0,0.4v4.3h3.9c0.4,0,0.7,0.1,0.8,0.4c0.2,0.3,0.3,0.6,0.3,1c0,0.3-0.1,0.6-0.3,0.9
			c-0.2,0.3-0.5,0.4-0.8,0.4h-3.9V370c0,0.8,0.2,1.3,0.5,1.7C453.4,372,453.8,372.2,454.3,372.2L454.3,372.2z M463.3,365.9
			c0,2,0.6,3.4,1.8,4.5c1.2,1,2.7,1.5,4.5,1.5c1.3,0,2.3-0.2,3-0.7c0.7-0.5,1.4-1,2.1-1.6c0.1-0.1,0.3-0.2,0.5-0.3
			c0.2-0.1,0.3-0.1,0.5-0.1c0.4,0,0.7,0.1,1,0.4c0.3,0.2,0.4,0.6,0.4,1c0,1.3-0.9,2.3-2.8,3c-1.8,0.7-3.4,1.1-4.8,1.1
			c-2.7,0-5-0.8-6.8-2.4c-1.8-1.6-2.6-3.8-2.6-6.5c0-2.7,0.8-4.9,2.4-6.6c1.6-1.7,3.8-2.6,6.6-2.6c2,0,3.8,0.7,5.4,2.1
			c1.6,1.4,2.5,3.2,2.5,5.3c0,0.7-0.2,1.2-0.7,1.3c-0.5,0.1-1,0.3-1.8,0.3L463.3,365.9z M473.4,362.9c0-1.4-0.4-2.4-1.3-3
			c-0.9-0.6-1.8-0.9-2.9-0.9c-1.8,0-3.1,0.4-4.2,1.3c-1,0.9-1.6,2-1.7,3.4l9-0.2c0.3,0,0.5-0.1,0.8-0.1
			C473.2,363.3,473.4,363.1,473.4,362.9L473.4,362.9z M491.8,359.2c-1.2,0-2.3,0.3-3.2,0.8c-0.9,0.5-1.6,1.1-2.1,1.9v9.7h4
			c0.4,0,0.7,0.1,0.8,0.4c0.2,0.3,0.3,0.6,0.3,1c0,0.3-0.1,0.6-0.3,0.9c-0.2,0.3-0.5,0.4-0.8,0.4h-9.9c-0.4,0-0.7-0.1-0.9-0.4
			c-0.2-0.2-0.3-0.5-0.3-0.9c0-0.4,0.1-0.7,0.3-0.9c0.2-0.3,0.5-0.4,0.9-0.4h2.9v-12l-2.1,0.5c0,0,0,0-0.1,0c0,0-0.1,0-0.1,0
			c-0.3,0-0.6-0.1-0.8-0.4c-0.3-0.2-0.4-0.5-0.4-0.8c0-0.3,0.1-0.6,0.2-0.8c0.1-0.2,0.4-0.4,0.6-0.4l4.2-1.2c0,0,0.1,0,0.1,0
			c0,0,0,0,0.1,0h0.1c0.2,0,0.4,0.1,0.5,0.2c0.2,0.1,0.2,0.3,0.2,0.5l0.3,2.8c0.7-1,1.6-1.9,2.7-2.6c1.1-0.7,2.6-1,4.3-1
			c0.3,0,0.6,0.1,0.9,0.3c0.3,0.2,0.4,0.5,0.4,0.8v3.2c0,0.4-0.1,0.7-0.4,0.9c-0.2,0.2-0.5,0.3-0.9,0.3c-0.4,0-0.7-0.1-0.9-0.3
			c-0.3-0.2-0.4-0.5-0.4-0.9V359.2z"/>
	</g>
</g>
</svg>
