<?xml version="1.0" encoding="utf-8"?>
<!-- Generator: Adobe Illustrator 18.1.1, SVG Export Plug-In . SVG Version: 6.00 Build 0)  -->
<svg version="1.1" id="Layer_1" xmlns="http://www.w3.org/2000/svg" xmlns:xlink="http://www.w3.org/1999/xlink" x="0px" y="0px"
	 viewBox="110 500 609 410" enable-background="new 110 500 609 410" xml:space="preserve">
<g>
	<g>
		<defs>
			<rect id="SVGID_1_" x="-29.7" y="446.9" width="909.1" height="511.4"/>
		</defs>
		<clipPath id="SVGID_2_">
			<use xlink:href="#SVGID_1_"  overflow="visible"/>
		</clipPath>
		<g clip-path="url(#SVGID_2_)">
			<path fill-opacity="0" d="M300.4,603.1c0,25.8-2.8,53.5,7.6,77.1c9.7,21.8,40.3,36.5,63.9,32.7c10.8-1.8,14.6-17.4,18.1-27.8
				c8.6-25.7,15.3-52.7,15.3-79.9"/>
			<path fill="none" stroke="#000000" stroke-width="2" stroke-linejoin="round" stroke-miterlimit="10" d="M300.4,603.1
				c0,25.8-2.8,53.5,7.6,77.1c9.7,21.8,40.3,36.5,63.9,32.7c10.8-1.8,14.6-17.4,18.1-27.8c8.6-25.7,15.3-52.7,15.3-79.9"/>
			<path fill-opacity="0" d="M300.4,606.6c-11.3,0-23.3-5.2-31.3-13.2"/>
			<path fill="none" stroke="#000000" stroke-width="2" stroke-linejoin="round" stroke-miterlimit="10" d="M300.4,606.6
				c-11.3,0-23.3-5.2-31.3-13.2"/>
			<path fill-opacity="0" d="M407.4,606c10.8-1.5,20.6-8.9,28.5-16.6"/>
			<path fill="none" stroke="#000000" stroke-width="2" stroke-linejoin="round" stroke-miterlimit="10" d="M407.4,606
				c10.8-1.5,20.6-8.9,28.5-16.6"/>
			<path fill-opacity="0" d="M270.5,591.4c34.5,0,69.1,5.1,103.5,2.8c15.2-1,30.2-3.9,45.2-5.5c6.4-0.7,15.9-5.3,19.5,0"/>
			<path fill="none" stroke="#000000" stroke-width="2" stroke-linejoin="round" stroke-miterlimit="10" d="M270.5,591.4
				c34.5,0,69.1,5.1,103.5,2.8c15.2-1,30.2-3.9,45.2-5.5c6.4-0.7,15.9-5.3,19.5,0"/>
			<path fill-opacity="0" d="M299.1,592.7c0-18.4-11.7-37.9-4.9-55c7.7-19.3,33-29,53.5-31.9c14.7-2.1,35.4-0.9,43.1,11.9
				c12.6,20.9,17.7,45.8,23.6,69.5"/>
			<path fill="none" stroke="#000000" stroke-width="2" stroke-linejoin="round" stroke-miterlimit="10" d="M299.1,592.7
				c0-18.4-11.7-37.9-4.9-55c7.7-19.3,33-29,53.5-31.9c14.7-2.1,35.4-0.9,43.1,11.9c12.6,20.9,17.7,45.8,23.6,69.5"/>
			<path fill-opacity="0" d="M297.6,582.3c37.1,0,75.9,5.5,111.3-6.2"/>
			<path fill="none" stroke="#000000" stroke-width="2" stroke-linejoin="round" stroke-miterlimit="10" d="M297.6,582.3
				c37.1,0,75.9,5.5,111.3-6.2"/>
			<path fill-opacity="0" d="M301.7,603.1c34.2-3.4,70.3-10.1,102.8,0.7"/>
			<path fill="none" stroke="#000000" stroke-width="2" stroke-linejoin="round" stroke-miterlimit="10" d="M301.7,603.1
				c34.2-3.4,70.3-10.1,102.8,0.7"/>
			<path fill-opacity="0" d="M301.1,619.8c-3.6-2.1-7.9-8-11.1-5.5c-3.6,2.7,0,9.1,1.3,13.2"/>
			<path fill="none" stroke="#000000" stroke-width="2" stroke-linejoin="round" stroke-miterlimit="10" d="M301.1,619.8
				c-3.6-2.1-7.9-8-11.1-5.5c-3.6,2.7,0,9.1,1.3,13.2"/>
			<path fill-opacity="0" d="M291.3,628.2c4.6,13.8-0.6,37.1,13.2,41.7"/>
			<path fill="none" stroke="#000000" stroke-width="2" stroke-linejoin="round" stroke-miterlimit="10" d="M291.3,628.2
				c4.6,13.8-0.6,37.1,13.2,41.7"/>
			<path fill-opacity="0" d="M406.8,612.2c4,0,10.2-3.6,11.9,0c1.9,4.6-4.2,9.1-5.5,14c-2.8,9.7-3.4,19.9-3.4,29.9"/>
			<path fill="none" stroke="#000000" stroke-width="2" stroke-linejoin="round" stroke-miterlimit="10" d="M406.8,612.2
				c4,0,10.2-3.6,11.9,0c1.9,4.6-4.2,9.1-5.5,14c-2.8,9.7-3.4,19.9-3.4,29.9"/>
			<path fill-opacity="0" d="M408.8,655.3c-1.5,4.5-5.9,8.2-10.4,9.7"/>
			<path fill="none" stroke="#000000" stroke-width="2" stroke-linejoin="round" stroke-miterlimit="10" d="M408.8,655.3
				c-1.5,4.5-5.9,8.2-10.4,9.7"/>
			<path fill-opacity="0" d="M317.8,694.9c0,12.8,6.2,29.1-2.8,38.2"/>
			<path fill="none" stroke="#000000" stroke-width="2" stroke-linejoin="round" stroke-miterlimit="10" d="M317.8,694.9
				c0,12.8,6.2,29.1-2.8,38.2"/>
			<path fill-opacity="0" d="M388,692.9c2.5,12.6,2.8,26,7,38.2"/>
			<path fill="none" stroke="#000000" stroke-width="2" stroke-linejoin="round" stroke-miterlimit="10" d="M388,692.9
				c2.5,12.6,2.8,26,7,38.2"/>
			<path fill-opacity="0" d="M361.3,618.3l1-2.4l10.1,4.2l-1,2.4L361.3,618.3z"/>
			<path fill="none" stroke="#000000" stroke-width="2" stroke-linejoin="round" stroke-miterlimit="10" d="M361.3,618.3l1-2.4
				l10.1,4.2l-1,2.4L361.3,618.3z"/>
			<path fill-opacity="0" d="M336.5,682.9l1-2.4l10.1,4.2l-1,2.4L336.5,682.9z"/>
			<path fill="none" stroke="#000000" stroke-width="2" stroke-linejoin="round" stroke-miterlimit="10" d="M336.5,682.9l1-2.4
				l10.1,4.2l-1,2.4L336.5,682.9z"/>
			<path fill-opacity="0" d="M321.8,644.7l-2.4-1l3.7-10.2l2.4,0.9L321.8,644.7z"/>
			<path fill="none" stroke="#000000" stroke-width="2" stroke-linejoin="round" stroke-miterlimit="10" d="M321.8,644.7l-2.4-1
				l3.7-10.2l2.4,0.9L321.8,644.7z"/>
			<path fill-opacity="0" d="M384,668.9l-2.4-1l4.2-10.1l2.4,1L384,668.9z"/>
			<path fill="none" stroke="#000000" stroke-width="2" stroke-linejoin="round" stroke-miterlimit="10" d="M384,668.9l-2.4-1
				l4.2-10.1l2.4,1L384,668.9z"/>
			<path fill="none" stroke="#000000" stroke-width="2" stroke-linejoin="round" stroke-miterlimit="10" d="M335.3,608l60.2,24.1
				l-23.9,61.6l-59.4-23L335.3,608z"/>
			<path fill="none" stroke="#000000" stroke-width="2" stroke-linejoin="round" stroke-miterlimit="10" d="M348.8,639.5l15.9,6.4
				l-6.4,16.3l-15.7-6.1L348.8,639.5z"/>
			<path fill-opacity="0" d="M319.9,714.2c12.9,19.5,59.6,18.1,70.1-2.8"/>
			<path fill="none" stroke="#000000" stroke-width="2" stroke-linejoin="round" stroke-miterlimit="10" d="M319.9,714.2
				c12.9,19.5,59.6,18.1,70.1-2.8"/>
			<path fill-opacity="0" d="M311.5,697c0,48.1,18.9,94.5,31.3,141.1c2.1,8,10,13.7,12.5,21.5"/>
			<path fill="none" stroke="#000000" stroke-width="2" stroke-linejoin="round" stroke-miterlimit="10" d="M311.5,697
				c0,48.1,18.9,94.5,31.3,141.1c2.1,8,10,13.7,12.5,21.5"/>
			<path fill-opacity="0" d="M397.7,694.2c0,40.8-10.1,81.6-22.9,120.2c-10.1,30.2-27.8,59.3-27.8,91.1"/>
			<path fill="none" stroke="#000000" stroke-width="2" stroke-linejoin="round" stroke-miterlimit="10" d="M397.7,694.2
				c0,40.8-10.1,81.6-22.9,120.2c-10.1,30.2-27.8,59.3-27.8,91.1"/>
			<path fill-opacity="0" d="M363.7,736.2c-9.5,0-19.6-1.9-28.5,1.3"/>
			<path fill="none" stroke="#000000" stroke-width="2" stroke-linejoin="round" stroke-miterlimit="10" d="M363.7,736.2
				c-9.5,0-19.6-1.9-28.5,1.3"/>
			<path fill-opacity="0" d="M336.2,738c3.6,11.4,13.1,22,11.4,33.9c-0.9,6.8-7,12-7.6,18.7c-0.9,10.2,0.1,20.6-1.8,30.7"/>
			<path fill="none" stroke="#000000" stroke-width="2" stroke-linejoin="round" stroke-miterlimit="10" d="M336.2,738
				c3.6,11.4,13.1,22,11.4,33.9c-0.9,6.8-7,12-7.6,18.7c-0.9,10.2,0.1,20.6-1.8,30.7"/>
			<path fill-opacity="0" d="M363.2,735.9c0,12.3-7.3,24.5-4.9,36.4c3.3,16.2,14.6,30.5,14.6,46.9"/>
			<path fill="none" stroke="#000000" stroke-width="2" stroke-linejoin="round" stroke-miterlimit="10" d="M363.2,735.9
				c0,12.3-7.3,24.5-4.9,36.4c3.3,16.2,14.6,30.5,14.6,46.9"/>
			<path fill-opacity="0" d="M311.5,697.3c-11.9,20.9-29.7,40.1-33.7,63.9"/>
			<path fill="none" stroke="#000000" stroke-width="2" stroke-linejoin="round" stroke-miterlimit="10" d="M311.5,697.3
				c-11.9,20.9-29.7,40.1-33.7,63.9"/>
			<path fill-opacity="0" d="M277.8,761.6c2.2,4,7,7.4,7,12.2c0,3.1-6.2,1.6-8.6,3.4"/>
			<path fill="none" stroke="#000000" stroke-width="2" stroke-linejoin="round" stroke-miterlimit="10" d="M277.8,761.6
				c2.2,4,7,7.4,7,12.2c0,3.1-6.2,1.6-8.6,3.4"/>
			<path fill-opacity="0" d="M276.8,777.5c2.1,12.3,10.4,22.7,16.3,33.7c11.4,21.1,19.9,44,33.7,63.6c7,10,16.3,19.3,18.7,31.3"/>
			<path fill="none" stroke="#000000" stroke-width="2" stroke-linejoin="round" stroke-miterlimit="10" d="M276.8,777.5
				c2.1,12.3,10.4,22.7,16.3,33.7c11.4,21.1,19.9,44,33.7,63.6c7,10,16.3,19.3,18.7,31.3"/>
			<path fill-opacity="0" d="M294.2,723.8c-23.6,20.2-56.7,26.7-81,46.2"/>
			<path fill="none" stroke="#000000" stroke-width="2" stroke-linejoin="round" stroke-miterlimit="10" d="M294.2,723.8
				c-23.6,20.2-56.7,26.7-81,46.2"/>
			<path fill-opacity="0" d="M397.7,695.2c1.6,16.2,16.9,28.8,29.9,38.6"/>
			<path fill="none" stroke="#000000" stroke-width="2" stroke-linejoin="round" stroke-miterlimit="10" d="M397.7,695.2
				c1.6,16.2,16.9,28.8,29.9,38.6"/>
			<path fill-opacity="0" d="M428,733.9c0,11.1,0,23-4.2,33.4"/>
			<path fill="none" stroke="#000000" stroke-width="2" stroke-linejoin="round" stroke-miterlimit="10" d="M428,733.9
				c0,11.1,0,23-4.2,33.4"/>
			<path fill-opacity="0" d="M424.1,766.8c2.7,3,6.1,5.2,9.4,7.6"/>
			<path fill="none" stroke="#000000" stroke-width="2" stroke-linejoin="round" stroke-miterlimit="10" d="M424.1,766.8
				c2.7,3,6.1,5.2,9.4,7.6"/>
			<path fill-opacity="0" d="M427.6,735.9c23.6,8.9,46.8,19.2,70.1,28.5"/>
			<path fill="none" stroke="#000000" stroke-width="2" stroke-linejoin="round" stroke-miterlimit="10" d="M427.6,735.9
				c23.6,8.9,46.8,19.2,70.1,28.5"/>
			<path fill-opacity="0" d="M35.7,628.2h778.4v51.5H35.7V628.2z"/>
			<path d="M181.4,657.5c0,3.6-1.5,6.7-4.5,9.4s-7,4-11.9,4c-5.6,0-10.2-1.8-14-5.5c-3.7-3.7-5.6-8.6-5.6-14.9
				c0-5.6,1.9-10.2,5.6-13.7c3.9-3.4,8.6-5.2,14.3-5.2c2.4,0,4.5,0.4,6.2,1.2c1.8,0.7,3.3,1.9,4.6,3.3v-2.4c0-0.6,0.1-1,0.6-1.2
				c0.4-0.3,0.9-0.4,1.5-0.4c0.4,0,0.9,0.1,1.3,0.4c0.4,0.3,0.6,0.7,0.6,1.2v8.3c0,0.4-0.1,0.9-0.6,1.2c-0.4,0.3-0.7,0.4-1.3,0.4
				c-0.4,0-0.9-0.1-1-0.6c-0.3-0.4-0.4-0.7-0.7-1.2c-1-1.8-2.5-3.3-4.2-4.5c-1.8-1.2-4-1.8-6.8-1.8c-4.3,0-7.9,1.3-10.4,4.2
				s-3.7,6.4-3.7,10.7c0,4.9,1.2,8.6,3.7,11.4c2.5,2.8,5.9,4.2,10.4,4.2c3.1,0,5.6-0.9,7.6-2.5c1.9-1.6,3.1-4,3.7-6.8
				c0.1-0.6,0.4-0.9,0.9-1.2c0.4-0.3,0.9-0.4,1.5-0.4c0.6,0,1.2,0.1,1.6,0.4C181.1,656.3,181.4,656.8,181.4,657.5L181.4,657.5z
				 M195.2,631.7c0.3,0,0.6,0.1,0.7,0.3c0.3,0.1,0.3,0.4,0.3,0.7v33.6h5.3c0.6,0,1,0.1,1.2,0.6c0.3,0.4,0.4,0.9,0.4,1.5
				c0,0.4-0.1,0.9-0.4,1.3c-0.3,0.4-0.7,0.6-1.2,0.6h-14.9c-0.6,0-1-0.1-1.3-0.6c-0.3-0.3-0.4-0.7-0.4-1.3s0.1-1,0.4-1.3
				c0.3-0.4,0.7-0.6,1.3-0.6h5.1v-29.9l-5.2,1.3h-0.1c0,0,0,0-0.1,0c-0.4,0-0.9-0.1-1.2-0.6s-0.6-0.9-0.6-1.3c0-0.6,0.1-1,0.4-1.2
				c0.3-0.1,0.7-0.3,1.2-0.4l8.6-2.5c0,0,0,0,0.1,0C195.1,631.7,195.2,631.7,195.2,631.7L195.2,631.7z M233.9,666.4
				c0,1.2-0.7,2.2-2.4,3c-1.6,0.7-2.8,1.2-3.9,1.2c-1.2,0-2.2-0.3-3-0.9c-0.7-0.6-1.2-1.5-1.5-2.7c-1,1.2-2.5,2.2-4.3,2.8
				c-1.8,0.6-3.6,0.9-5.6,0.9c-2.2,0-4.2-0.7-5.6-2.1c-1.5-1.3-2.2-3.1-2.2-5.3c0-4,1.9-6.4,5.8-7.3c3.9-0.9,7.7-1.5,11.4-1.8v-3.6
				c0-1.2-0.4-1.9-1.5-2.4c-1-0.4-2.1-0.7-3.1-0.7c-2.1,0-3.7,0.1-4.8,0.6c-1,0.4-2.4,1.2-3.7,2.1c-0.1,0.1-0.3,0.1-0.4,0.1
				c-0.1,0-0.3,0-0.4,0c-0.4,0-0.9-0.3-1.3-0.7c-0.4-0.4-0.6-1-0.6-1.5c0-1.8,1.3-3,3.9-3.6c2.5-0.6,4.8-0.9,6.7-0.9
				c3.7,0,6.2,0.7,7.7,2.4c1.3,1.6,2.1,4.2,2.1,7.9v11.1c0,0.4,0,0.9,0.1,1.2c0.1,0.3,0.4,0.4,0.7,0.4c0.6,0,1.3-0.4,2.2-1.2
				c0.9-0.7,1.5-1.2,2.1-1.2c0.3,0,0.7,0.1,1,0.6C233.7,665.5,233.9,666,233.9,666.4L233.9,666.4z M222.6,657.5
				c-2.4,0.3-5.1,0.6-8,1.2c-3,0.4-4.5,1.9-4.5,4.5c0,1.3,0.4,2.2,1.3,2.8c0.9,0.6,2.1,0.9,3.3,0.9c1.5,0,3-0.3,4.2-0.9
				c1.3-0.6,2.4-1.2,3.4-2.1v-6.4H222.6z M246.8,646.8c0,0.6-0.1,1-0.4,1.5c-0.3,0.4-0.6,0.6-1.2,0.6h-2.7l7.7,16.6l6.1-16.6h-2.5
				c-0.6,0-1-0.1-1.2-0.6c-0.3-0.4-0.3-0.9-0.3-1.5c0-0.4,0.1-0.9,0.4-1.3c0.3-0.4,0.7-0.6,1.2-0.6h8.9c0.6,0,1,0.1,1.3,0.6
				c0.3,0.3,0.4,0.7,0.4,1.3s-0.1,1-0.4,1.5c-0.3,0.4-0.7,0.6-1.3,0.6h-2.7l-9.2,23.9c-0.7,1.9-1.9,4-3.3,6.5
				c-1.3,2.5-3.4,3.9-6.2,3.9c-0.9,0-1.6-0.3-2.1-0.7c-0.4-0.4-0.7-1-0.7-1.6s0.1-1,0.6-1.6c0.4-0.6,1-0.9,1.9-0.9
				c1.2,0,2.4-0.4,3.3-1.3c0.9-0.9,1.6-1.9,2.1-3.1l1.5-3.6c0,0-0.3-0.3-0.6-0.9c-0.3-0.6-0.4-1-0.6-1l-9.5-19.3h-2.7
				c-0.6,0-1-0.1-1.3-0.6s-0.4-0.9-0.4-1.5s0.1-1,0.4-1.3c0.3-0.3,0.7-0.6,1.3-0.6h10.1c0.6,0,0.9,0.1,1.2,0.6
				C246.6,645.9,246.8,646.4,246.8,646.8L246.8,646.8z M477.8,657.5c0,3.6-1.5,6.7-4.5,9.4s-7,4-11.9,4c-5.6,0-10.2-1.8-14-5.5
				c-3.7-3.7-5.6-8.6-5.6-14.9c0-5.6,1.9-10.2,5.6-13.7c3.9-3.4,8.6-5.2,14.3-5.2c2.4,0,4.5,0.4,6.2,1.2c1.8,0.7,3.3,1.9,4.6,3.3
				v-2.4c0-0.6,0.1-1,0.6-1.2c0.4-0.3,0.9-0.4,1.5-0.4c0.4,0,0.9,0.1,1.3,0.4c0.4,0.3,0.6,0.7,0.6,1.2v8.3c0,0.4-0.1,0.9-0.6,1.2
				c-0.4,0.3-0.7,0.4-1.3,0.4c-0.4,0-0.9-0.1-1-0.6c-0.3-0.4-0.4-0.7-0.7-1.2c-1-1.8-2.5-3.3-4.2-4.5c-1.6-1.2-4-1.8-6.8-1.8
				c-4.3,0-7.9,1.3-10.4,4.2c-2.5,2.8-3.7,6.4-3.7,10.7c0,4.9,1.2,8.6,3.7,11.4c2.5,2.8,5.9,4.2,10.4,4.2c3.1,0,5.6-0.9,7.6-2.5
				c1.9-1.6,3.1-4,3.7-6.8c0.1-0.6,0.4-0.9,0.9-1.2c0.4-0.3,0.9-0.4,1.5-0.4c0.6,0,1.2,0.1,1.6,0.4
				C477.5,656.3,477.8,656.8,477.8,657.5L477.8,657.5z M495.4,647.6c-2.8,0-5.1,0.9-6.5,2.7c-1.5,1.8-2.4,4.2-2.4,7
				c0,2.8,0.7,5.2,2.4,7c1.5,1.8,3.7,2.7,6.5,2.7c2.7,0,4.9-0.9,6.4-2.8c1.5-1.8,2.2-4.2,2.2-7s-0.7-5.1-2.2-7
				C500.3,648.4,498.1,647.6,495.4,647.6L495.4,647.6z M495.4,670.7c-4.2,0-7.4-1.2-10-3.7c-2.5-2.4-3.9-5.6-3.9-9.8
				s1.3-7.4,3.9-9.8c2.5-2.4,5.9-3.7,10-3.7c4,0,7.3,1.2,9.8,3.7s3.7,5.6,3.7,9.8c0,4-1.2,7.3-3.7,9.8
				C502.7,669.5,499.5,670.7,495.4,670.7L495.4,670.7z M551.6,643.8c2.7,0,5.1,0.9,6.8,2.5s2.7,3.9,2.7,6.5v13.4h3.3
				c0.6,0,1,0.1,1.2,0.6c0.3,0.4,0.3,0.9,0.3,1.5c0,0.4-0.1,0.9-0.4,1.3c-0.3,0.4-0.7,0.6-1.2,0.6h-10.8c-0.6,0-1-0.1-1.3-0.6
				c-0.3-0.3-0.4-0.7-0.4-1.3s0.1-1,0.4-1.3c0.3-0.4,0.7-0.6,1.3-0.6h3.3v-13.1c0-1.8-0.4-3.1-1.3-4.2c-0.9-1-2.2-1.5-4-1.5
				c-2.4,0-4.3,0.6-5.9,1.9c-1.6,1.3-2.8,2.7-3.9,4.5v12.3h3.7c0.6,0,1,0.1,1.2,0.6c0.3,0.4,0.4,0.9,0.4,1.5c0,0.4-0.1,0.9-0.4,1.3
				c-0.3,0.4-0.7,0.6-1.2,0.6h-11.9c-0.6,0-1-0.1-1.3-0.6c-0.3-0.3-0.4-0.7-0.4-1.3s0.1-1,0.4-1.3c0.3-0.4,0.7-0.6,1.3-0.6h3.7
				v-13.1c0-1.8-0.4-3.1-1.3-4.2c-0.9-1-2.2-1.5-4-1.5c-2.5,0-4.6,0.6-6.4,1.8c-1.8,1.2-3,2.7-3.9,4.3v12.6h4.2
				c0.6,0,0.9,0.1,1.2,0.6c0.3,0.4,0.3,0.9,0.3,1.5c0,0.4-0.1,0.9-0.4,1.3c-0.3,0.4-0.7,0.6-1.2,0.6h-11.7c-0.6,0-1-0.1-1.3-0.6
				c-0.3-0.3-0.4-0.7-0.4-1.3c0-0.6,0.1-1,0.4-1.3c0.3-0.4,0.7-0.6,1.3-0.6h3.3v-17.8l-3.3,0.7c0,0,0,0-0.1,0h-0.1
				c-0.4,0-0.9-0.1-1.2-0.6c-0.4-0.3-0.6-0.7-0.6-1.2s0.1-0.9,0.3-1.2c0.1-0.3,0.6-0.6,0.9-0.6l6.2-1.8h0.1c0,0,0,0,0.1,0h0.1
				c0.3,0,0.6,0.1,0.7,0.3c0.3,0.1,0.3,0.4,0.3,0.7l0.4,4.2c0.9-1.5,2.4-2.7,4.3-3.7c2.1-1,4.2-1.5,6.5-1.5c2.2,0,4.2,0.6,5.6,1.6
				c1.5,1,2.7,2.4,3.3,4c1-1.5,2.4-2.8,4.3-3.9C547,644.3,549.1,643.8,551.6,643.8L551.6,643.8z M593,657.2c0-2.7-0.6-4.9-1.9-6.8
				c-1.3-1.9-3.3-2.8-5.8-2.8c-1.9,0-3.6,0.3-5.1,1c-1.3,0.7-2.5,1.6-3.4,2.8v12.3c0.9,0.9,2.1,1.6,3.6,2.2c1.3,0.6,3,0.9,4.9,0.9
				c2.5,0,4.6-0.9,5.9-2.8C592.3,662.1,593,659.9,593,657.2L593,657.2z M597.9,657.2c0,3.9-1.2,7.1-3.6,9.7s-5.5,3.7-9.4,3.7
				c-1.8,0-3.4-0.3-4.8-0.9c-1.3-0.6-2.5-1.3-3.6-2.2v11.3h4.5c0.6,0,1,0.1,1.2,0.6c0.3,0.4,0.4,0.9,0.4,1.5c0,0.4-0.1,0.9-0.4,1.3
				s-0.7,0.6-1.2,0.6h-11.6c-0.6,0-1-0.1-1.3-0.6c-0.3-0.3-0.4-0.7-0.4-1.3s0.1-1,0.4-1.5c0.3-0.4,0.7-0.6,1.3-0.6h2.8v-30.6
				l-3.1,0.7c0,0,0,0-0.1,0H569c-0.4,0-0.9-0.1-1.2-0.6c-0.4-0.3-0.6-0.7-0.6-1.2s0.1-0.9,0.3-1.2c0.3-0.3,0.6-0.6,0.9-0.6l6.2-1.8
				h0.1c0,0,0,0,0.1,0h0.1c0.3,0,0.6,0.1,0.7,0.3c0.3,0.1,0.3,0.4,0.3,0.7l0.4,4.2c0.7-1.5,1.9-2.8,3.6-3.7c1.6-1,3.6-1.5,5.8-1.5
				c3.9,0,6.8,1.3,9.1,3.9C596.7,650.1,597.9,653.3,597.9,657.2L597.9,657.2z M614.3,666.9c1.9,0,3.6-0.4,5.2-1.3
				c1.5-0.9,2.7-1.9,3.3-3.3v-13.8l-3.1,0.7c0,0,0,0-0.1,0h-0.1c-0.4,0-0.9-0.1-1.2-0.6c-0.4-0.3-0.6-0.7-0.6-1.2s0.1-0.9,0.3-1.2
				c0.3-0.3,0.6-0.6,0.9-0.6l7.1-1.8h0.1h0.1c0.3,0,0.6,0.1,0.7,0.3c0.1,0.1,0.3,0.4,0.3,0.7V666h3.4c0.4,0,0.9,0.1,1.2,0.4
				c0.3,0.3,0.4,0.7,0.4,1.3c0,0.4-0.1,0.9-0.3,1.2s-0.6,0.6-0.9,0.6l-6.1,0.6c-0.4,0-0.7-0.1-1-0.4s-0.4-0.7-0.6-1.5L623,666
				c-0.9,1.3-2.2,2.4-3.9,3.3c-1.8,0.9-3.6,1.3-5.5,1.3c-2.7,0-4.8-0.9-6.2-2.5c-1.5-1.6-2.2-3.9-2.2-6.5v-13.2l-3.1,0.7
				c0,0,0,0-0.1,0h-0.1c-0.4,0-0.9-0.1-1.2-0.6s-0.6-0.7-0.6-1.2s0.1-0.9,0.3-1.2c0.1-0.3,0.6-0.6,0.9-0.6l7.1-1.8h0.1h0.1
				c0.3,0,0.6,0.1,0.9,0.3c0.1,0.1,0.3,0.4,0.3,0.7v16.3c0,1.6,0.4,3,1.2,4C611.6,666.4,612.6,666.9,614.3,666.9L614.3,666.9z
				 M645.2,667.2c1.5,0,2.4-0.4,2.8-1.2s1-1.2,1.9-1.2c0.4,0,0.9,0.1,1.2,0.4c0.3,0.3,0.4,0.7,0.4,1.2c0,1.3-0.7,2.4-2.4,3.1
				c-1.6,0.7-3.1,1.2-4.6,1.2c-1.8,0-3.3-0.6-4.6-1.8c-1.3-1.2-1.9-2.7-1.9-4.3v-15.7h-3.3c-0.6,0-1-0.1-1.3-0.6s-0.4-0.7-0.4-1.3
				s0.1-1,0.4-1.5c0.3-0.4,0.7-0.6,1.3-0.6h3.4c0-1.3,0.1-3.1,0.3-5.3c0.3-2.2,1-3.4,2.2-3.4c0.3,0,0.7,0,0.9,0.1
				c0.3,0.1,0.6,0.3,0.7,0.4v0.4c0,0.1,0,0.4,0,0.6c0,0.3,0,0.4,0,0.6v6.4h5.8c0.6,0,1,0.1,1.2,0.6c0.3,0.4,0.4,0.9,0.4,1.5
				c0,0.4-0.1,0.9-0.4,1.3c-0.3,0.4-0.7,0.6-1.2,0.6h-5.8v15.2c0,1.2,0.3,1.9,0.7,2.5C643.8,666.9,644.4,667.2,645.2,667.2
				L645.2,667.2z M658.5,657.8c0,3,0.9,5.1,2.7,6.7c1.8,1.5,4,2.2,6.7,2.2c1.9,0,3.4-0.3,4.5-1c1-0.7,2.1-1.5,3.1-2.4
				c0.1-0.1,0.4-0.3,0.7-0.4c0.3-0.1,0.4-0.1,0.7-0.1c0.6,0,1,0.1,1.5,0.6c0.4,0.3,0.6,0.9,0.6,1.5c0,1.9-1.3,3.4-4.2,4.5
				c-2.7,1-5.1,1.6-7.1,1.6c-4,0-7.4-1.2-10.1-3.6s-3.9-5.6-3.9-9.7c0-4,1.2-7.3,3.6-9.8c2.4-2.5,5.6-3.9,9.8-3.9c3,0,5.6,1,8,3.1
				s3.7,4.8,3.7,7.9c0,1-0.3,1.8-1,1.9c-0.7,0.1-1.5,0.4-2.7,0.4L658.5,657.8z M673.5,653.3c0-2.1-0.6-3.6-1.9-4.5
				c-1.3-0.9-2.7-1.3-4.3-1.3c-2.7,0-4.6,0.6-6.2,1.9c-1.5,1.3-2.4,3-2.5,5.1l13.4-0.3c0.4,0,0.7-0.1,1.2-0.1
				C673.2,653.9,673.5,653.6,673.5,653.3L673.5,653.3z M700.9,647.9c-1.8,0-3.4,0.4-4.8,1.2s-2.4,1.6-3.1,2.8v14.4h5.9
				c0.6,0,1,0.1,1.2,0.6c0.3,0.4,0.4,0.9,0.4,1.5c0,0.4-0.1,0.9-0.4,1.3c-0.3,0.4-0.7,0.6-1.2,0.6h-14.7c-0.6,0-1-0.1-1.3-0.6
				c-0.3-0.3-0.4-0.7-0.4-1.3s0.1-1,0.4-1.3c0.3-0.4,0.7-0.6,1.3-0.6h4.3v-17.8l-3.1,0.7c0,0,0,0-0.1,0h-0.1c-0.4,0-0.9-0.1-1.2-0.6
				c-0.4-0.3-0.6-0.7-0.6-1.2s0.1-0.9,0.3-1.2c0.1-0.3,0.6-0.6,0.9-0.6l6.2-1.8h0.1c0,0,0,0,0.1,0h0.1c0.3,0,0.6,0.1,0.7,0.3
				c0.3,0.1,0.3,0.4,0.3,0.7l0.4,4.2c1-1.5,2.4-2.8,4-3.9c1.6-1,3.9-1.5,6.4-1.5c0.4,0,0.9,0.1,1.3,0.4s0.6,0.7,0.6,1.2v4.8
				c0,0.6-0.1,1-0.6,1.3c-0.3,0.3-0.7,0.4-1.3,0.4c-0.6,0-1-0.1-1.3-0.4c-0.4-0.3-0.6-0.7-0.6-1.3v-2.4H700.9z"/>
		</g>
	</g>
</g>
</svg>
