<?xml version="1.0" standalone="yes"?>

<svg version="1.1" viewBox="0.0 0.0 960.0 540.0" fill="none" stroke="none" stroke-linecap="square" stroke-miterlimit="10" xmlns="http://www.w3.org/2000/svg" xmlns:xlink="http://www.w3.org/1999/xlink"><clipPath id="g12761f6dfe_1_734.0"><path d="m0 0l960.0 0l0 540.0l-960.0 0l0 -540.0z" clip-rule="nonzero"></path></clipPath><g clip-path="url(#g12761f6dfe_1_734.0)"><path fill="#ffffff" d="m0 0l960.0 0l0 540.0l-960.0 0z" fill-rule="nonzero"></path><path fill="#000000" fill-opacity="0.0" d="m348.5528 165.07436c0 27.285751 -3.0121155 56.52507 8.07135 81.458374c10.265137 23.092361 42.586334 38.639053 67.51434 34.488876c11.511353 -1.9165039 15.389923 -18.282501 19.07904 -29.353867c9.053894 -27.171417 16.145111 -55.749786 16.145111 -84.38994" fill-rule="evenodd"></path><path stroke="#000000" stroke-width="2.0" stroke-linejoin="round" stroke-linecap="butt" d="m348.5528 165.07436c0 27.285751 -3.0121155 56.52507 8.07135 81.458374c10.265137 23.092361 42.586334 38.639053 67.51434 34.488876c11.511353 -1.9165039 15.389923 -18.282501 19.07904 -29.353867c9.053894 -27.171417 16.145111 -55.749786 16.145111 -84.38994" fill-rule="evenodd"></path><path fill="#000000" fill-opacity="0.0" d="m348.55298 168.74332c-11.948456 0 -24.57425 -5.492813 -33.02307 -13.94165" fill-rule="evenodd"></path><path stroke="#000000" stroke-width="2.0" stroke-linejoin="round" stroke-linecap="butt" d="m348.55298 168.74332c-11.948456 0 -24.57425 -5.492813 -33.02307 -13.94165" fill-rule="evenodd"></path><path fill="#000000" fill-opacity="0.0" d="m461.56802 168.0103c11.505249 -1.6413269 21.871307 -9.395462 30.089111 -17.613266" fill-rule="evenodd"></path><path stroke="#000000" stroke-width="2.0" stroke-linejoin="round" stroke-linecap="butt" d="m461.56802 168.0103c11.505249 -1.6413269 21.871307 -9.395462 30.089111 -17.613266" fill-rule="evenodd"></path><path fill="#000000" fill-opacity="0.0" d="m316.9981 152.60065c36.460327 0 72.96188 5.35614 109.341675 2.93396c15.984558 -1.0642548 31.777832 -4.103073 47.700012 -5.8703003c6.807251 -0.75553894 16.746613 -5.697815 20.54721 0" fill-rule="evenodd"></path><path stroke="#000000" stroke-width="2.0" stroke-linejoin="round" stroke-linecap="butt" d="m316.9981 152.60065c36.460327 0 72.96188 5.35614 109.341675 2.93396c15.984558 -1.0642548 31.777832 -4.103073 47.700012 -5.8703003c6.807251 -0.75553894 16.746613 -5.697815 20.54721 0" fill-rule="evenodd"></path><path fill="#000000" fill-opacity="0.0" d="m347.08783 154.06483c0 -19.399872 -12.34433 -39.9609 -5.13739 -57.972427c8.150513 -20.36969 34.784363 -30.657448 56.504242 -33.755978c15.568329 -2.220951 37.409332 -1.0121574 45.498962 12.473484c13.2908325 22.156197 18.67102 48.322777 24.951721 73.384636" fill-rule="evenodd"></path><path stroke="#000000" stroke-width="2.0" stroke-linejoin="round" stroke-linecap="butt" d="m347.08783 154.06483c0 -19.399872 -12.34433 -39.9609 -5.13739 -57.972427c8.150513 -20.36969 34.784363 -30.657448 56.504242 -33.755978c15.568329 -2.220951 37.409332 -1.0121574 45.498962 12.473484c13.2908325 22.156197 18.67102 48.322777 24.951721 73.384636" fill-rule="evenodd"></path><path fill="#000000" fill-opacity="0.0" d="m345.6175 143.06058c39.200348 0 80.22266 5.77861 117.415405 -6.6055603" fill-rule="evenodd"></path><path stroke="#000000" stroke-width="2.0" stroke-linejoin="round" stroke-linecap="butt" d="m345.6175 143.06058c39.200348 0 80.22266 5.77861 117.415405 -6.6055603" fill-rule="evenodd"></path><path fill="#000000" fill-opacity="0.0" d="m350.02213 165.07335c36.024536 -3.5977783 74.2666 -10.724472 108.608765 0.73527527" fill-rule="evenodd"></path><path stroke="#000000" stroke-width="2.0" stroke-linejoin="round" stroke-linecap="butt" d="m350.02213 165.07335c36.024536 -3.5977783 74.2666 -10.724472 108.608765 0.73527527" fill-rule="evenodd"></path><path fill="#000000" fill-opacity="0.0" d="m349.28595 182.68855c-3.7521362 -2.2507935 -8.24057 -8.496017 -11.740601 -5.870285c-3.737976 2.8042297 -0.012420654 9.509491 1.4681702 13.94165" fill-rule="evenodd"></path><path stroke="#000000" stroke-width="2.0" stroke-linejoin="round" stroke-linecap="butt" d="m349.28595 182.68855c-3.7521362 -2.2507935 -8.24057 -8.496017 -11.740601 -5.870285c-3.737976 2.8042297 -0.012420654 9.509491 1.4681702 13.94165" fill-rule="evenodd"></path><path fill="#000000" fill-opacity="0.0" d="m339.01413 191.49496c4.8707275 14.604279 -0.6602478 39.152954 13.94165 44.030777" fill-rule="evenodd"></path><path stroke="#000000" stroke-width="2.0" stroke-linejoin="round" stroke-linecap="butt" d="m339.01413 191.49496c4.8707275 14.604279 -0.6602478 39.152954 13.94165 44.030777" fill-rule="evenodd"></path><path fill="#000000" fill-opacity="0.0" d="m460.8351 174.61673c4.1586 0 10.836609 -3.8219147 12.475861 0c2.077057 4.8427734 -4.4247437 9.610352 -5.8726807 14.676926c-2.9096985 10.181564 -3.6692505 20.965744 -3.6692505 31.554916" fill-rule="evenodd"></path><path stroke="#000000" stroke-width="2.0" stroke-linejoin="round" stroke-linecap="butt" d="m460.8351 174.61673c4.1586 0 10.836609 -3.8219147 12.475861 0c2.077057 4.8427734 -4.4247437 9.610352 -5.8726807 14.676926c-2.9096985 10.181564 -3.6692505 20.965744 -3.6692505 31.554916" fill-rule="evenodd"></path><path fill="#000000" fill-opacity="0.0" d="m463.03546 220.11574c-1.5878601 4.760971 -6.2459717 8.686905 -11.00769 10.27243" fill-rule="evenodd"></path><path stroke="#000000" stroke-width="2.0" stroke-linejoin="round" stroke-linecap="butt" d="m463.03546 220.11574c-1.5878601 4.760971 -6.2459717 8.686905 -11.00769 10.27243" fill-rule="evenodd"></path><path fill="#000000" fill-opacity="0.0" d="m366.9005 261.94516c0 13.48941 6.602112 30.82309 -2.9363403 40.36154" fill-rule="evenodd"></path><path stroke="#000000" stroke-width="2.0" stroke-linejoin="round" stroke-linecap="butt" d="m366.9005 261.94516c0 13.48941 6.602112 30.82309 -2.9363403 40.36154" fill-rule="evenodd"></path><path fill="#000000" fill-opacity="0.0" d="m441.0202 259.74402c2.6812134 13.408997 3.022644 27.386078 7.3384705 40.361572" fill-rule="evenodd"></path><path stroke="#000000" stroke-width="2.0" stroke-linejoin="round" stroke-linecap="butt" d="m441.0202 259.74402c2.6812134 13.408997 3.022644 27.386078 7.3384705 40.361572" fill-rule="evenodd"></path><path fill="#000000" fill-opacity="0.0" d="m412.8652 181.09143l1.1748352 -2.5354462l10.663208 4.34848l-1.0322571 2.4831696z" fill-rule="nonzero"></path><path stroke="#000000" stroke-width="2.0" stroke-linejoin="round" stroke-linecap="butt" d="m412.8652 181.09143l1.1748352 -2.5354462l10.663208 4.34848l-1.0322571 2.4831696z" fill-rule="nonzero"></path><path fill="#000000" fill-opacity="0.0" d="m386.61972 249.25862l1.1748352 -2.5354614l10.663208 4.3484955l-1.0322571 2.4831696z" fill-rule="nonzero"></path><path stroke="#000000" stroke-width="2.0" stroke-linejoin="round" stroke-linecap="butt" d="m386.61972 249.25862l1.1748352 -2.5354614l10.663208 4.3484955l-1.0322571 2.4831696z" fill-rule="nonzero"></path><path fill="#000000" fill-opacity="0.0" d="m371.1436 209.00356l-2.5871887 -1.054657l3.843872 -10.853058l2.5282898 0.9147339z" fill-rule="nonzero"></path><path stroke="#000000" stroke-width="2.0" stroke-linejoin="round" stroke-linecap="butt" d="m371.1436 209.00356l-2.5871887 -1.054657l3.843872 -10.853058l2.5282898 0.9147339z" fill-rule="nonzero"></path><path fill="#000000" fill-opacity="0.0" d="m436.85 234.556l-2.535431 -1.1748352l4.34848 -10.663208l2.4831848 1.0322723z" fill-rule="nonzero"></path><path stroke="#000000" stroke-width="2.0" stroke-linejoin="round" stroke-linecap="butt" d="m436.85 234.556l-2.535431 -1.1748352l4.34848 -10.663208l2.4831848 1.0322723z" fill-rule="nonzero"></path><path fill="#ffffff" d="m385.483 170.21979l63.527588 25.472061l-25.2229 65.129135l-62.791565 -24.387177z" fill-rule="nonzero"></path><path stroke="#000000" stroke-width="2.0" stroke-linejoin="round" stroke-linecap="butt" d="m385.483 170.21979l63.527588 25.472061l-25.2229 65.129135l-62.791565 -24.387177z" fill-rule="nonzero"></path><path fill="#ffffff" d="m399.68185 203.50778l16.789337 6.737961l-6.6722107 17.212692l-16.59491 -6.4511414z" fill-rule="nonzero"></path><path stroke="#000000" stroke-width="2.0" stroke-linejoin="round" stroke-linecap="butt" d="m399.68185 203.50778l16.789337 6.737961l-6.6722107 17.212692l-16.59491 -6.4511414z" fill-rule="nonzero"></path><path fill="#000000" fill-opacity="0.0" d="m369.1649 282.38742c13.695557 20.534485 62.944397 19.087158 73.981995 -2.9904175" fill-rule="evenodd"></path><path stroke="#000000" stroke-width="2.0" stroke-linejoin="round" stroke-linecap="butt" d="m369.1649 282.38742c13.695557 20.534485 62.944397 19.087158 73.981995 -2.9904175" fill-rule="evenodd"></path><path fill="#000000" fill-opacity="0.0" d="m360.29532 264.14627c0 50.862213 19.923737 99.82388 33.02307 148.97034c2.2582703 8.472565 10.43869 14.428986 13.208771 22.74826" fill-rule="evenodd"></path><path stroke="#000000" stroke-width="2.0" stroke-linejoin="round" stroke-linecap="butt" d="m360.29532 264.14627c0 50.862213 19.923737 99.82388 33.02307 148.97034c2.2582703 8.472565 10.43869 14.428986 13.208771 22.74826" fill-rule="evenodd"></path><path fill="#000000" fill-opacity="0.0" d="m451.2933 261.21225c0 43.080505 -10.593201 86.08276 -24.216461 126.952545c-10.595398 31.786224 -29.353851 62.62967 -29.353851 96.135284" fill-rule="evenodd"></path><path stroke="#000000" stroke-width="2.0" stroke-linejoin="round" stroke-linecap="butt" d="m451.2933 261.21225c0 43.080505 -10.593201 86.08276 -24.216461 126.952545c-10.595398 31.786224 -29.353851 62.62967 -29.353851 96.135284" fill-rule="evenodd"></path><path fill="#000000" fill-opacity="0.0" d="m415.3359 305.60922c-10.04303 0 -20.763184 -2.0754395 -30.0896 1.4681702" fill-rule="evenodd"></path><path stroke="#000000" stroke-width="2.0" stroke-linejoin="round" stroke-linecap="butt" d="m415.3359 305.60922c-10.04303 0 -20.763184 -2.0754395 -30.0896 1.4681702" fill-rule="evenodd"></path><path fill="#000000" fill-opacity="0.0" d="m386.34903 307.4449c3.703888 12.026764 13.762817 23.15506 12.107025 35.70398c-0.9435425 7.1510315 -7.4074097 12.647858 -8.07135 19.83554c-0.99850464 10.809448 0.13339233 21.876465 -1.8346252 32.529266" fill-rule="evenodd"></path><path stroke="#000000" stroke-width="2.0" stroke-linejoin="round" stroke-linecap="butt" d="m386.34903 307.4449c3.703888 12.026764 13.762817 23.15506 12.107025 35.70398c-0.9435425 7.1510315 -7.4074097 12.647858 -8.07135 19.83554c-0.99850464 10.809448 0.13339233 21.876465 -1.8346252 32.529266" fill-rule="evenodd"></path><path fill="#000000" fill-opacity="0.0" d="m414.96826 305.24182c0 12.960419 -7.65094 25.81018 -5.1374207 38.482513c3.381897 17.050232 15.412201 32.15094 15.412201 49.588837" fill-rule="evenodd"></path><path stroke="#000000" stroke-width="2.0" stroke-linejoin="round" stroke-linecap="butt" d="m414.96826 305.24182c0 12.960419 -7.65094 25.81018 -5.1374207 38.482513c3.381897 17.050232 15.412201 32.15094 15.412201 49.588837" fill-rule="evenodd"></path><path fill="#000000" fill-opacity="0.0" d="m360.29382 264.51273c-12.604279 22.09842 -31.412628 42.419464 -35.590576 67.51434" fill-rule="evenodd"></path><path stroke="#000000" stroke-width="2.0" stroke-linejoin="round" stroke-linecap="butt" d="m360.29382 264.51273c-12.604279 22.09842 -31.412628 42.419464 -35.590576 67.51434" fill-rule="evenodd"></path><path fill="#000000" fill-opacity="0.0" d="m324.7032 332.39536c2.3941345 4.3100586 7.3384705 7.9119263 7.3384705 12.842285c0 3.2932434 -6.536957 1.695343 -9.173096 3.6692505" fill-rule="evenodd"></path><path stroke="#000000" stroke-width="2.0" stroke-linejoin="round" stroke-linecap="butt" d="m324.7032 332.39536c2.3941345 4.3100586 7.3384705 7.9119263 7.3384705 12.842285c0 3.2932434 -6.536957 1.695343 -9.173096 3.6692505" fill-rule="evenodd"></path><path fill="#000000" fill-opacity="0.0" d="m323.60147 349.27377c2.1765137 13.002899 10.9991455 23.983551 17.246826 35.592987c12.004395 22.30661 21.058472 46.39685 35.590607 67.14551c7.3643494 10.514679 17.299896 20.4346 19.8143 33.02307" fill-rule="evenodd"></path><path stroke="#000000" stroke-width="2.0" stroke-linejoin="round" stroke-linecap="butt" d="m323.60147 349.27377c2.1765137 13.002899 10.9991455 23.983551 17.246826 35.592987c12.004395 22.30661 21.058472 46.39685 35.590607 67.14551c7.3643494 10.514679 17.299896 20.4346 19.8143 33.02307" fill-rule="evenodd"></path><path fill="#000000" fill-opacity="0.0" d="m341.94574 292.39917c-24.900696 21.369843 -59.87201 28.299347 -85.49167 48.801727" fill-rule="evenodd"></path><path stroke="#000000" stroke-width="2.0" stroke-linejoin="round" stroke-linecap="butt" d="m341.94574 292.39917c-24.900696 21.369843 -59.87201 28.299347 -85.49167 48.801727" fill-rule="evenodd"></path><path fill="#000000" fill-opacity="0.0" d="m451.2953 262.3116c1.7066956 17.088867 17.8078 30.434357 31.554932 40.727997" fill-rule="evenodd"></path><path stroke="#000000" stroke-width="2.0" stroke-linejoin="round" stroke-linecap="butt" d="m451.2953 262.3116c1.7066956 17.088867 17.8078 30.434357 31.554932 40.727997" fill-rule="evenodd"></path><path fill="#000000" fill-opacity="0.0" d="m483.21744 303.0407c0 11.832703 -0.012481689 24.235779 -4.40213 35.22415" fill-rule="evenodd"></path><path stroke="#000000" stroke-width="2.0" stroke-linejoin="round" stroke-linecap="butt" d="m483.21744 303.0407c0 11.832703 -0.012481689 24.235779 -4.40213 35.22415" fill-rule="evenodd"></path><path fill="#000000" fill-opacity="0.0" d="m479.18176 337.89935c2.829071 3.1846924 6.49881 5.516968 9.905975 8.07373" fill-rule="evenodd"></path><path stroke="#000000" stroke-width="2.0" stroke-linejoin="round" stroke-linecap="butt" d="m479.18176 337.89935c2.829071 3.1846924 6.49881 5.516968 9.905975 8.07373" fill-rule="evenodd"></path><path fill="#000000" fill-opacity="0.0" d="m482.8511 305.24182c24.96347 9.370148 49.361664 20.183563 74.11752 30.089142" fill-rule="evenodd"></path><path stroke="#000000" stroke-width="2.0" stroke-linejoin="round" stroke-linecap="butt" d="m482.8511 305.24182c24.96347 9.370148 49.361664 20.183563 74.11752 30.089142" fill-rule="evenodd"></path><path fill="#000000" fill-opacity="0.0" d="m68.9457 191.54224l822.1102 0l0 54.393707l-822.1102 0z" fill-rule="nonzero"></path><path fill="#000000" d="m222.87971 222.42845q0 5.625 -4.71875 9.8125q-4.703125 4.171875 -12.546875 4.171875q-8.84375 0 -14.734375 -5.828125q-5.890625 -5.828125 -5.890625 -15.609375q0 -8.921875 6.0 -14.421875q6.015625 -5.5 15.0625 -5.5q3.828125 0 6.5625 1.28125q2.75 1.28125 4.859375 3.4375l0 -2.4375q0 -0.890625 0.640625 -1.28125q0.640625 -0.40625 1.515625 -0.40625q0.765625 0 1.359375 0.453125q0.609375 0.453125 0.609375 1.28125l0 8.765625q0 0.8125 -0.609375 1.28125q-0.59375 0.453125 -1.359375 0.453125q-0.796875 0 -1.171875 -0.625q-0.375 -0.625 -0.796875 -1.203125q-1.71875 -2.8125 -4.46875 -4.6875q-2.75 -1.875 -7.140625 -1.875q-6.9375 0 -10.921875 4.46875q-3.984375 4.453125 -3.984375 11.28125q0 7.6875 3.890625 12.125q3.890625 4.4375 11.015625 4.4375q4.953125 0 8.015625 -2.671875q3.078125 -2.6875 3.9375 -7.140625q0.171875 -0.84375 0.875 -1.25q0.71875 -0.421875 1.515625 -0.421875q0.921875 0 1.703125 0.546875q0.78125 0.53125 0.78125 1.5625l0 0zm14.65625 -27.28125q0.484375 0 0.859375 0.328125q0.375 0.3125 0.375 0.828125l0 35.390625l5.71875 0q0.890625 0 1.28125 0.640625q0.40625 0.640625 0.40625 1.515625q0 0.765625 -0.453125 1.375q-0.453125 0.59375 -1.28125 0.59375l-15.65625 0q-0.984375 0 -1.453125 -0.5625q-0.46875 -0.5625 -0.46875 -1.453125q0 -0.875 0.4375 -1.484375q0.4375 -0.625 1.34375 -0.625l5.328125 0l0 -31.5l-5.515625 1.453125q-0.09375 0 -0.125 0.03125q-0.015625 0.015625 -0.109375 0.015625q-0.71875 0 -1.296875 -0.640625q-0.578125 -0.65625 -0.578125 -1.375q0 -1.015625 0.53125 -1.328125q0.53125 -0.3125 1.296875 -0.546875l9.03125 -2.609375q0.046875 -0.015625 0.125 -0.03125q0.078125 -0.015625 0.203125 -0.015625l0 0zm40.781265 36.734375q0 1.875 -2.484375 3.203125q-2.484375 1.328125 -4.078125 1.328125q-1.921875 0 -3.09375 -0.9375q-1.171875 -0.953125 -1.59375 -2.875q-1.71875 1.96875 -4.484375 2.921875q-2.765625 0.953125 -5.90625 0.953125q-3.5781403 0 -5.9843903 -2.171875q-2.40625 -2.1875 -2.40625 -5.6875q0 -6.28125 6.140625 -7.6875q6.1406403 -1.40625 12.000015 -1.921875l0 -3.796875q0 -1.828125 -1.578125 -2.53125q-1.5625 -0.71875 -3.359375 -0.71875q-3.28125 0 -4.984375 0.703125q-1.7031403 0.703125 -3.9531403 2.125q-0.203125 0.125 -0.40625 0.203125q-0.203125 0.0625 -0.40625 0.0625q-0.796875 0 -1.4375 -0.75q-0.625 -0.75 -0.625 -1.578125q0 -2.8125 4.109375 -3.78125q4.1093903 -0.96875 7.0156403 -0.96875q5.9375 0 8.109375 2.515625q2.1875 2.515625 2.1875 8.375l0 11.8125q0 0.734375 0.234375 1.21875q0.25 0.46875 0.796875 0.46875q1.046875 0 2.359375 -1.265625q1.3125 -1.265625 2.15625 -1.265625q0.515625 0 1.09375 0.703125q0.578125 0.6875 0.578125 1.34375l0 0zm-11.890625 -9.359375q-3.703125 0.40625 -8.40625 1.21875q-4.6875153 0.796875 -4.6875153 4.734375q0 2.0 1.46875 2.96875q1.4843903 0.96875 3.5156403 0.96875q2.4375 0 4.46875 -0.890625q2.03125 -0.90625 3.640625 -2.171875l0 -6.828125zm25.546875 -11.296875q0 0.875 -0.40625 1.53125q-0.390625 0.65625 -1.28125 0.65625l-2.8125 0l8.15625 17.5l6.46875 -17.5l-2.71875 0q-0.890625 0 -1.296875 -0.65625q-0.390625 -0.65625 -0.390625 -1.53125q0 -0.765625 0.453125 -1.359375q0.46875 -0.609375 1.28125 -0.609375l9.453125 0q1.0 0 1.453125 0.5625q0.46875 0.5625 0.46875 1.453125q0 0.875 -0.4375 1.515625q-0.4375 0.625 -1.34375 0.625l-2.75 0l-9.71875 25.25q-1.265625 2.96875 -3.421875 6.96875q-2.140625 4.015625 -6.5625 4.015625q-1.40625 0 -2.203125 -0.78125q-0.78125 -0.765625 -0.78125 -1.703125q0 -0.859375 0.59375 -1.78125q0.609375 -0.90625 2.109375 -0.9375q1.96875 0 3.390625 -1.4375q1.4375 -1.421875 2.203125 -3.296875l1.5 -3.75q-0.109375 0 -0.59375 -0.953125q-0.484375 -0.953125 -0.578125 -1.15625l-10.03125 -20.4375l-2.828125 0q-0.921875 0 -1.34375 -0.625q-0.421875 -0.640625 -0.421875 -1.515625q0 -0.890625 0.46875 -1.453125q0.46875 -0.5625 1.453125 -0.5625l10.734375 0q0.828125 0 1.28125 0.609375q0.453125 0.59375 0.453125 1.359375l0 0zm243.79684 11.203125q0 5.625 -4.71875 9.8125q-4.703125 4.171875 -12.546875 4.171875q-8.8437195 0 -14.7343445 -5.828125q-5.890625 -5.828125 -5.890625 -15.609375q0 -8.921875 6.0 -14.421875q6.015625 -5.5 15.0624695 -5.5q3.828125 0 6.5625 1.28125q2.75 1.28125 4.859375 3.4375l0 -2.4375q0 -0.890625 0.640625 -1.28125q0.640625 -0.40625 1.515625 -0.40625q0.765625 0 1.359375 0.453125q0.609375 0.453125 0.609375 1.28125l0 8.765625q0 0.8125 -0.609375 1.28125q-0.59375 0.453125 -1.359375 0.453125q-0.796875 0 -1.171875 -0.625q-0.375 -0.625 -0.796875 -1.203125q-1.71875 -2.8125 -4.46875 -4.6875q-2.75 -1.875 -7.140625 -1.875q-6.9375 0 -10.9218445 4.46875q-3.984375 4.453125 -3.984375 11.28125q0 7.6875 3.890625 12.125q3.890625 4.4375 11.0155945 4.4375q4.953125 0 8.015625 -2.671875q3.078125 -2.6875 3.9375 -7.140625q0.171875 -0.84375 0.875 -1.25q0.71875 -0.421875 1.515625 -0.421875q0.921875 0 1.703125 0.546875q0.78125 0.53125 0.78125 1.5625l0 0zm18.734375 -10.46875q-4.453125 0 -6.90625 2.890625q-2.453125 2.875 -2.453125 7.328125q0 4.46875 2.453125 7.359375q2.453125 2.875 6.90625 2.875q4.328125 0 6.6875 -2.921875q2.375 -2.9375 2.375 -7.3125q0 -4.390625 -2.375 -7.296875q-2.359375 -2.921875 -6.6875 -2.921875l0 0zm0 24.453125q-6.5 0 -10.53125 -3.875q-4.03125 -3.875 -4.03125 -10.359375q0 -6.515625 4.046875 -10.359375q4.046875 -3.84375 10.515625 -3.84375q6.375 0 10.3125 3.90625q3.9375 3.890625 3.9375 10.296875q0 6.390625 -3.9375 10.3125q-3.9375 3.921875 -10.3125 3.921875l0 0zm59.335938 -28.4375q4.3125 0 7.171875 2.609375q2.859375 2.59375 2.859375 6.953125l0 14.15625l3.421875 0q0.890625 0 1.28125 0.640625q0.390625 0.640625 0.390625 1.515625q0 0.765625 -0.453125 1.375q-0.4375 0.59375 -1.265625 0.59375l-11.4375 0q-0.984375 0 -1.453125 -0.5625q-0.46875 -0.5625 -0.46875 -1.453125q0 -0.875 0.4375 -1.484375q0.4375 -0.625 1.34375 -0.625l3.46875 0l0 -13.734375q0 -2.796875 -1.421875 -4.390625q-1.40625 -1.609375 -4.25 -1.609375q-3.765625 0 -6.34375 2.015625q-2.578125 2.015625 -4.015625 4.65625l0 13.0625l3.875 0q0.890625 0 1.28125 0.640625q0.40625 0.640625 0.40625 1.515625q0 0.765625 -0.46875 1.375q-0.453125 0.59375 -1.265625 0.59375l-12.375 0q-0.984375 0 -1.453125 -0.5625q-0.46875 -0.5625 -0.46875 -1.453125q0 -0.875 0.421875 -1.484375q0.4375 -0.625 1.359375 -0.625l3.9375 0l0 -13.734375q0 -2.796875 -1.421875 -4.390625q-1.421875 -1.609375 -4.25 -1.609375q-3.96875 0 -6.671875 1.875q-2.703125 1.875 -4.046875 4.5625l0 13.296875l4.34375 0q0.890625 0 1.265625 0.640625q0.390625 0.640625 0.390625 1.515625q0 0.765625 -0.453125 1.375q-0.4375 0.59375 -1.25 0.59375l-12.40625 0q-0.984375 0 -1.453125 -0.5625q-0.46875 -0.5625 -0.46875 -1.453125q0 -0.875 0.4375 -1.484375q0.4375 -0.625 1.34375 -0.625l3.46875 0l0 -18.828125l-3.375 0.828125q-0.046875 0.015625 -0.125 0.03125q-0.078125 0.015625 -0.203125 0.015625q-0.703125 0 -1.3125 -0.578125q-0.609375 -0.578125 -0.609375 -1.296875q0 -0.796875 0.34375 -1.28125q0.34375 -0.484375 1.0 -0.6875l6.53125 -1.875q0.09375 0 0.109375 -0.015625q0.03125 -0.03125 0.125 -0.03125l0.140625 0q0.5 0 0.84375 0.296875q0.359375 0.28125 0.359375 0.796875l0.484375 4.4375q1.40625 -2.375 4.609375 -3.953125q3.203125 -1.578125 6.96875 -1.578125q3.546875 0 5.984375 1.671875q2.4375 1.65625 3.421875 4.28125q1.609375 -2.34375 4.515625 -4.140625q2.90625 -1.8125 6.84375 -1.8125l0 0zm43.6875 14.203125q0 -4.15625 -2.078125 -7.1875q-2.0625 -3.03125 -6.125 -3.03125q-3.09375 0 -5.328125 1.171875q-2.234375 1.171875 -3.640625 3.0l0 13.046875q1.46875 1.484375 3.6875 2.359375q2.21875 0.875 5.140625 0.875q4.109375 0 6.21875 -3.046875q2.125 -3.0625 2.125 -7.1875l0 0zm5.1875 0q0 6.234375 -3.6875 10.234375q-3.671875 4.0 -9.84375 4.0q-2.875 0 -5.03125 -0.875q-2.140625 -0.875 -3.796875 -2.28125l0 11.921875l4.734375 0q0.890625 0 1.28125 0.65625q0.40625 0.65625 0.40625 1.515625q0 0.78125 -0.46875 1.359375q-0.453125 0.59375 -1.265625 0.59375l-12.28125 0q-0.984375 0 -1.453125 -0.5625q-0.46875 -0.5625 -0.46875 -1.453125q0 -0.875 0.421875 -1.5q0.4375 -0.609375 1.359375 -0.609375l2.921875 0l0 -32.3125l-3.34375 0.828125q-0.046875 0.015625 -0.140625 0.03125q-0.09375 0.015625 -0.21875 0.015625q-0.703125 0 -1.3125 -0.578125q-0.609375 -0.578125 -0.609375 -1.296875q0 -0.796875 0.34375 -1.28125q0.359375 -0.484375 1.015625 -0.6875l6.515625 -1.875q0.09375 0 0.109375 -0.015625q0.03125 -0.03125 0.125 -0.03125l0.171875 0q0.484375 0 0.828125 0.296875q0.359375 0.28125 0.359375 0.796875l0.46875 4.4375q1.125 -2.390625 3.75 -3.953125q2.625 -1.578125 6.046875 -1.578125q6.140625 0 9.59375 4.015625q3.46875 4.015625 3.46875 10.1875l0 0zm17.289062 10.234375q3.0 0 5.453125 -1.40625q2.453125 -1.421875 3.4375 -3.484375l0 -14.65625l-3.359375 0.828125q-0.046875 0.015625 -0.140625 0.03125q-0.09375 0.015625 -0.203125 0.015625q-0.703125 0 -1.3125 -0.578125q-0.609375 -0.578125 -0.609375 -1.296875q0 -0.75 0.34375 -1.28125q0.359375 -0.53125 1.015625 -0.6875l7.46875 -1.875q0.078125 -0.03125 0.171875 -0.03125q0.109375 -0.015625 0.234375 -0.015625q0.53125 0 0.859375 0.296875q0.328125 0.28125 0.328125 0.84375l0 22.25l3.546875 0q0.796875 0 1.21875 0.546875q0.421875 0.546875 0.421875 1.34375q0 0.75 -0.34375 1.28125q-0.34375 0.53125 -1.0 0.6875l-6.390625 0.6875q-0.6875 0 -1.09375 -0.453125q-0.40625 -0.46875 -0.578125 -1.609375l-0.34375 -2.296875q-1.359375 2.015625 -4.15625 3.4375q-2.78125 1.421875 -5.828125 1.421875q-4.171875 0 -6.515625 -2.65625q-2.328125 -2.671875 -2.328125 -6.921875l0 -13.96875l-3.34375 0.828125q-0.046875 0.015625 -0.140625 0.03125q-0.078125 0.015625 -0.1875 0.015625q-0.703125 0 -1.3125 -0.578125q-0.609375 -0.578125 -0.609375 -1.296875q0 -0.75 0.328125 -1.28125q0.34375 -0.53125 1.0 -0.6875l7.5 -1.875q0.078125 -0.03125 0.171875 -0.03125q0.09375 -0.015625 0.203125 -0.015625q0.546875 0 0.875 0.296875q0.328125 0.28125 0.328125 0.84375l0 17.296875q0 2.578125 1.203125 4.296875q1.203125 1.703125 3.6875 1.703125l0 0zm32.695312 0.265625q2.25 0 2.90625 -1.265625q0.65625 -1.265625 2.0 -1.265625q0.71875 0 1.203125 0.53125q0.484375 0.515625 0.484375 1.25q0 2.078125 -2.515625 3.3125q-2.5 1.21875 -4.875 1.21875q-2.734375 0 -4.796875 -1.9375q-2.0625 -1.9375 -2.0625 -4.515625l0 -16.59375l-3.515625 0q-0.984375 0 -1.453125 -0.5625q-0.46875 -0.5625 -0.46875 -1.453125q0 -0.875 0.421875 -1.5q0.4375 -0.640625 1.359375 -0.640625l3.65625 0q0 -2.125 0.375 -5.6875q0.375 -3.5625 2.390625 -3.5625q0.578125 0 1.015625 0.140625q0.4375 0.140625 0.859375 0.4375l0 0.46875q0 0.3125 0.015625 0.703125q0.03125 0.375 0.03125 0.6875l0 6.8125l6.140625 0q0.890625 0 1.28125 0.65625q0.40625 0.65625 0.40625 1.53125q0 0.765625 -0.46875 1.375q-0.453125 0.59375 -1.265625 0.59375l-6.09375 0l0 15.859375q0 1.828125 0.84375 2.625q0.84375 0.78125 2.125 0.78125l0 0zm14.09375 -9.96875q0 4.59375 2.859375 7.0q2.875 2.40625 7.078125 2.40625q2.96875 0 4.671875 -1.109375q1.703125 -1.125 3.25 -2.546875q0.34375 -0.3125 0.734375 -0.453125q0.40625 -0.15625 0.8125 -0.15625q0.9375 0 1.59375 0.578125q0.65625 0.5625 0.65625 1.53125q0 3.0 -4.359375 4.734375q-4.34375 1.71875 -7.546875 1.71875q-6.421875 0 -10.59375 -3.8125q-4.15625 -3.8125 -4.15625 -10.265625q0 -6.375 3.8125 -10.359375q3.828125 -4.0 10.375 -4.0q4.6875 0 8.546875 3.25q3.875 3.234375 3.875 8.375q0 1.75 -1.09375 2.109375q-1.09375 0.34375 -2.75 0.515625l-17.765625 0.484375zm15.71875 -4.609375q0 -3.359375 -2.046875 -4.75q-2.046875 -1.390625 -4.484375 -1.390625q-4.125 0 -6.5625 2.046875q-2.421875 2.03125 -2.71875 5.40625l14.078125 -0.3125q0.65625 -0.015625 1.1875 -0.234375q0.546875 -0.234375 0.546875 -0.765625l0 0zm28.921875 -5.859375q-2.8125 0 -5.015625 1.25q-2.203125 1.234375 -3.34375 2.9375l0 15.265625l6.28125 0q0.890625 0 1.28125 0.640625q0.40625 0.640625 0.40625 1.515625q0 0.765625 -0.46875 1.375q-0.453125 0.59375 -1.265625 0.59375l-15.5 0q-0.984375 0 -1.453125 -0.5625q-0.46875 -0.5625 -0.46875 -1.453125q0 -0.875 0.4375 -1.484375q0.4375 -0.625 1.34375 -0.625l4.59375 0l0 -18.828125l-3.34375 0.828125q-0.046875 0.015625 -0.140625 0.03125q-0.078125 0.015625 -0.1875 0.015625q-0.703125 0 -1.3125 -0.578125q-0.609375 -0.578125 -0.609375 -1.296875q0 -0.796875 0.328125 -1.28125q0.34375 -0.484375 1.0 -0.6875l6.546875 -1.875q0.09375 0 0.109375 -0.015625q0.03125 -0.03125 0.125 -0.03125l0.140625 0q0.484375 0 0.828125 0.296875q0.359375 0.28125 0.359375 0.796875l0.5 4.4375q1.609375 -2.46875 4.25 -4.0q2.640625 -1.53125 6.734375 -1.53125q0.78125 0 1.375 0.453125q0.59375 0.453125 0.59375 1.28125l0 4.984375q0 0.984375 -0.5625 1.453125q-0.5625 0.46875 -1.453125 0.46875q-0.859375 0 -1.484375 -0.421875q-0.625 -0.4375 -0.625 -1.359375l0 -2.59375z" fill-rule="nonzero"></path></g></svg>

