<?xml version="1.0" encoding="utf-8"?>
<!-- Generator: Adobe Illustrator 18.1.1, SVG Export Plug-In . SVG Version: 6.00 Build 0)  -->
<svg version="1.1" id="Layer_1" xmlns="http://www.w3.org/2000/svg" xmlns:xlink="http://www.w3.org/1999/xlink" x="0px" y="0px"
	 width="450px" height="124px" viewBox="0 0 450 124" enable-background="new 0 0 450 124" xml:space="preserve">
<g>
	<g>
		<g>
			<path fill="#FFFFFF" d="M125.1,2c-1.3-1.3-3-2-4.8-2H42.6c-1.8,0-3.5,0.7-4.8,2L2,37.8c-2.6,2.6-2.6,6.9,0,9.5l74.7,74.7
				c1.3,1.3,3,2,4.8,2s3.5-0.7,4.8-2l74.7-74.7c1.3-1.3,2-3,2-4.8c0-1.8-0.7-3.5-2-4.8L125.1,2z"/>
		</g>
		<path fill="#48B2E8" d="M81.5,58.1v55.2c-0.5,0-1-0.2-1.3-0.5L53.8,86.3c-0.1-0.1-0.2-0.2-0.2-0.3c0,0,0,0,0-0.1L81.5,58.1z"/>
		<path fill="#019CDB" d="M81.5,58.1L53.5,86c0-0.1-0.1-0.2-0.1-0.3V32.5c0-0.9,1.1-1.3,1.7-0.7L81.5,58.1z"/>
		<path fill="#288DC1" d="M109.4,86C109.4,86,109.4,86,109.4,86c-0.1,0.2-0.1,0.3-0.2,0.4l-26.4,26.4c0,0-0.1,0.1-0.1,0.1
			c-0.3,0.3-0.8,0.5-1.2,0.5V58.1L109.4,86z"/>
		<path fill="#019CDB" d="M107.7,10.9L82.2,36.5c-0.2,0.2-0.5,0.3-0.7,0.3V9.2H107C107.9,9.2,108.4,10.3,107.7,10.9z"/>
		<path fill="#48B2E8" d="M81.5,9.2v27.6h0c-0.3,0-0.5-0.1-0.7-0.3L55.1,10.9c-0.6-0.6-0.1-1.7,0.7-1.7H81.5z"/>
		<path fill="#48B2E8" d="M38.6,16.7v51.7c0,0.9-1.1,1.4-1.7,0.7L11.7,43.9c0,0-0.1-0.1-0.1-0.1c-0.3-0.3-0.5-0.7-0.5-1.2
			c0-0.4,0.2-0.8,0.4-1.2l0.2-0.2L36.9,16C37.5,15.4,38.6,15.8,38.6,16.7z"/>
		<path fill="#288DC1" d="M124.4,16.7v51.7c0,0.9,1.1,1.4,1.7,0.7l25.2-25.3c0,0,0.1-0.1,0.1-0.1c0.3-0.3,0.5-0.7,0.5-1.2
			c0-0.4-0.2-0.8-0.4-1.2l-0.2-0.2L126.2,16C125.5,15.4,124.4,15.8,124.4,16.7z"/>
		<path fill="#48B2E8" d="M109.4,32.5v53.1c0,0.1,0,0.2-0.1,0.3L81.5,58.1l26.3-26.3C108.4,31.1,109.4,31.6,109.4,32.5z"/>
	</g>
	<g>
		<g>
			<path fill="#FFFFFF" d="M227.9,54.9l-15.3-21.3v28.6c0,2.1-1.2,3.5-3.2,3.5h-4.6c-1.9,0-3.2-1.4-3.2-3.5V16.5
				c0-2.1,1.3-3.5,3.2-3.5h3.7c2.1,0,3,0.7,4.3,2.5l18.5,25.6L250,15.5c1.3-1.8,2.2-2.5,4.3-2.5h3.7c1.9,0,3.2,1.4,3.2,3.5v45.8
				c0,2.1-1.3,3.5-3.2,3.5h-4.6c-1.9,0-3.2-1.4-3.2-3.5V33.7l-15.3,21.3c-0.9,1.2-1.9,2.1-3.6,2.1C229.9,57,228.8,56.1,227.9,54.9z"
				/>
			<path fill="#FFFFFF" d="M302.9,13c1.7,0,2.9,0.7,3.6,2.1L327.9,61c0.3,0.6,0.5,1.3,0.5,1.8c0,1.6-1,2.9-2.9,2.9h-5.1
				c-1.7,0-2.9-0.7-3.6-2.1l-3.6-8.2h-26.5l-3.6,8.2c-0.6,1.4-1.8,2.1-3.6,2.1h-5.1c-1.9,0-2.9-1.3-2.9-2.9c0-0.6,0.1-1.2,0.5-1.8
				l21.5-45.9c0.6-1.4,1.8-2.1,3.6-2.1H302.9z M291.4,44.8h17L300,25.7L291.4,44.8z"/>
			<path fill="#FFFFFF" d="M359.3,40.9l-10,8.1v13.3c0,2.1-1.2,3.5-3.2,3.5h-4.6c-1.9,0-3.2-1.4-3.2-3.5V16.5c0-2.1,1.3-3.5,3.2-3.5
				h4.6c1.9,0,3.2,1.4,3.2,3.5v19.1l25.3-21c1-0.9,2-1.7,3.7-1.7h8.8c1.5,0,2.3,0.9,2.3,2c0,1-0.4,1.6-1,2.1l-20.6,17.1l21.8,27.4
				c0.5,0.6,0.9,1.2,0.9,2.1c0,1.1-0.8,2-2.3,2h-7.6c-1.7,0-3-0.6-3.7-1.7L359.3,40.9z"/>
			<path fill="#FFFFFF" d="M401.8,62.3V16.5c0-2.1,1.3-3.5,3.2-3.5h41.9c1.9,0,3.2,1.4,3.2,3.5v3.7c0,2.1-1.2,3.5-3.2,3.5h-34.1
				v10.1h24.2c1.9,0,3.2,1.4,3.2,3.5V41c0,2.1-1.2,3.5-3.2,3.5h-24.2v10.7h34.1c1.9,0,3.2,1.4,3.2,3.5v3.7c0,2.1-1.2,3.5-3.2,3.5
				H405C403.1,65.8,401.8,64.4,401.8,62.3z"/>
		</g>
		<g>
			<g>
				<path fill="#FFFFFF" d="M214,106.1c3.2,0,6.2-1,6.2-3.1c0-1.8-2-2.4-6.5-2.7c-7.2-0.5-11.2-2.3-11.2-6.9c0-4.7,4.3-8,11-8
					c5,0,8.5,1.8,9.8,3c0.6,0.5,0.9,1,0.9,1.8c0,0.5-0.2,1-0.5,1.5l-0.8,1c-0.3,0.4-0.7,0.6-1.1,0.6c-0.4,0-0.8-0.2-1.1-0.4
					c-2.3-1.6-4.7-2.4-7.3-2.4c-2.9,0-5.8,1-5.8,2.7c0,1.6,2.6,2,6.1,2.3c7,0.5,11.7,1.9,11.7,7.3c0,5.3-4.7,8.4-11.5,8.4
					c-4.7,0-8.8-1.5-11.3-3.7c-0.5-0.5-0.8-0.9-0.8-1.6c0-0.7,0.2-1.1,0.5-1.6l0.8-1c0.3-0.4,0.7-0.6,1-0.6s0.8,0.2,1.1,0.4
					C207.9,105.1,210.7,106.1,214,106.1z"/>
			</g>
			<g>
				<path fill="#FFFFFF" d="M256,105.9c3.4,0,6.4-2,8.3-4.4c0.3-0.4,0.7-0.6,1.1-0.6c0.3,0,0.6,0.1,0.9,0.4l0.8,0.9
					c0.6,0.7,0.9,1.3,0.9,2c0,0.4-0.1,0.9-0.6,1.6c-2,2.7-6.5,5.3-11.5,5.3c-7.1,0-12.9-5.4-12.9-12.8c0-7.4,5.8-12.8,13-12.8
					c5.1,0,9.6,2.8,11.4,5.2c0.5,0.7,0.6,1.1,0.6,1.6c0,0.7-0.3,1.3-0.9,2l-0.8,0.9c-0.3,0.3-0.6,0.4-0.9,0.4
					c-0.4,0-0.8-0.2-1.1-0.6c-1.9-2.3-4.8-4.4-8.3-4.4c-4.4,0-7.7,3.4-7.7,7.7S251.7,105.9,256,105.9z"/>
			</g>
			<g>
				<path fill="#FFFFFF" d="M307.8,109v-8.4h-13v8.4c0,1-0.6,1.6-1.5,1.6h-2.2c-0.9,0-1.5-0.6-1.5-1.6V87.5c0-1,0.6-1.6,1.5-1.6h2.2
					c0.9,0,1.5,0.7,1.5,1.6v8.1h13v-8.1c0-1,0.6-1.6,1.5-1.6h2.2c0.9,0,1.5,0.7,1.5,1.6V109c0,1-0.6,1.6-1.5,1.6h-2.2
					C308.4,110.6,307.8,110,307.8,109z"/>
			</g>
			<g>
				<path fill="#FFFFFF" d="M360.6,98.2c0,7.1-5.5,12.8-13.3,12.8c-7.8,0-13.3-5.7-13.3-12.8c0-7.1,5.5-12.8,13.3-12.8
					C355.1,85.4,360.6,91.1,360.6,98.2z M339.4,98.2c0,4.3,3.3,7.7,7.9,7.7c4.6,0,7.9-3.4,7.9-7.7s-3.3-7.7-7.9-7.7
					C342.8,90.6,339.4,94,339.4,98.2z"/>
			</g>
			<g>
				<path fill="#FFFFFF" d="M406.5,98.2c0,7.1-5.5,12.8-13.3,12.8c-7.8,0-13.3-5.7-13.3-12.8c0-7.1,5.5-12.8,13.3-12.8
					C401,85.4,406.5,91.1,406.5,98.2z M385.3,98.2c0,4.3,3.3,7.7,7.9,7.7c4.6,0,7.9-3.4,7.9-7.7s-3.3-7.7-7.9-7.7
					C388.7,90.6,385.3,94,385.3,98.2z"/>
			</g>
			<g>
				<path fill="#FFFFFF" d="M427.7,109V87.5c0-1,0.6-1.6,1.5-1.6h2.2c0.9,0,1.5,0.7,1.5,1.6v18.1h15.7c0.9,0,1.5,0.7,1.5,1.6v1.7
					c0,1-0.6,1.6-1.5,1.6h-19.3C428.3,110.6,427.7,110,427.7,109z"/>
			</g>
		</g>
	</g>
</g>
</svg>
