<?xml version="1.0" encoding="utf-8"?>
<!-- Generator: Adobe Illustrator 19.1.0, SVG Export Plug-In . SVG Version: 6.00 Build 0)  -->
<!DOCTYPE svg PUBLIC "-//W3C//DTD SVG 1.1//EN" "http://www.w3.org/Graphics/SVG/1.1/DTD/svg11.dtd">
<svg version="1.1" id="Layer_1" xmlns="http://www.w3.org/2000/svg" xmlns:xlink="http://www.w3.org/1999/xlink" x="0px" y="0px"
	 viewBox="-384 295 31 11" style="enable-background:new -384 295 31 11;" xml:space="preserve">
<style type="text/css">
	.st0{fill:#3399FF;}
</style>
<g>
	<rect x="-357" y="295" class="st0" width="1" height="11"/>
	<rect x="-354" y="295" class="st0" width="1" height="11"/>
	<polygon class="st0" points="-366,295 -366,306 -365,306 -365,296 -363,296 -363,306 -362,306 -362,296 -360,296 -360,298 
		-359,298 -359,295 	"/>
	<rect x="-360" y="300" class="st0" width="1" height="1"/>
	<rect x="-360" y="303" class="st0" width="1" height="3"/>
	<polygon class="st0" points="-384,295 -384,306 -383,306 -383,296 -381,296 -381,306 -380,306 -380,296 -378,296 -378,298 
		-377,298 -377,295 	"/>
	<rect x="-378" y="300" class="st0" width="1" height="1"/>
	<rect x="-378" y="303" class="st0" width="1" height="3"/>
	<rect x="-369" y="295" class="st0" width="1" height="1"/>
	<rect x="-369" y="298" class="st0" width="1" height="8"/>
	<polygon class="st0" points="-375,295 -375,306 -374,306 -374,296 -372,296 -372,306 -371,306 -371,295 	"/>
</g>
</svg>
