<?xml version="1.0" encoding="utf-8"?>
<!-- Generator: Adobe Illustrator 16.0.3, SVG Export Plug-In . SVG Version: 6.00 Build 0)  -->
<!DOCTYPE svg PUBLIC "-//W3C//DTD SVG 1.1//EN" "http://www.w3.org/Graphics/SVG/1.1/DTD/svg11.dtd">
<svg version="1.1" xmlns="http://www.w3.org/2000/svg" xmlns:xlink="http://www.w3.org/1999/xlink" x="0px" y="0px" width="184px"
	 height="100px" viewBox="0 0 184 100" enable-background="new 0 0 184 100" xml:space="preserve">
<g id="guides">
</g>
<g id="Layer_2">
	<g>
		<g>
			<path fill-rule="evenodd" clip-rule="evenodd" fill="#F58758" d="M50.762,54.697c0.516-0.986,0.945-1.799,1.357-2.613
				c2.07-4.066,4.148-8.121,6.189-12.199c0.693-1.383,1.641-2.43,3.201-2.742c1.729-0.352,3.229,0.117,4.338,1.508
				c1.188,1.477,1.305,3.125,0.477,4.805c-1.508,3.039-3.055,6.055-4.594,9.086c-1.299,2.561-2.604,5.122-3.914,7.686
				c-0.939,1.83-2.381,2.847-4.518,2.799c-1.795-0.046-3.598,0-5.395-0.015c-1.908-0.017-3.299-0.86-4.166-2.583
				c-2.396-4.748-4.795-9.504-7.195-14.254c-0.117-0.234-0.246-0.469-0.443-0.828c-0.219,0.359-0.385,0.609-0.52,0.875
				c-2.406,4.719-4.809,9.443-7.217,14.176c-0.988,1.941-2.867,2.896-4.828,2.489c-2.883-0.594-4.369-3.628-3.049-6.269
				c1.828-3.656,3.682-7.303,5.531-10.943c1.025-2.023,2.041-4.055,3.104-6.063c0.912-1.727,2.322-2.672,4.344-2.637
				c1.797,0.035,3.594,0.004,5.391,0.01c1.961,0.002,3.381,0.885,4.266,2.643c2.383,4.734,4.773,9.464,7.164,14.194
				C50.402,54.055,50.537,54.291,50.762,54.697z"/>
		</g>
		<g>
			<path fill-rule="evenodd" clip-rule="evenodd" fill="#6D6E71" d="M100.447,59.164c-0.422,0-0.734,0-1.094,0
				c-0.047-0.328-0.109-0.609-0.109-0.891c0-1.578,0-3.141,0-4.72c0-0.333-0.016-0.669-0.078-0.997
				c-0.266-1.563-1.422-2.195-2.875-1.563c-1.297,0.561-1.984,1.656-2.125,2.984c-0.141,1.357-0.078,2.732-0.121,4.107
				c-0.004,0.328-0.035,0.656-0.066,1.062c-0.381,0-0.701,0-1.109,0c0-3.046,0-6.052,0-9.208c0.313-0.031,0.656-0.063,1.094-0.105
				c0.047,0.645,0.094,1.167,0.125,1.707c2.984-2.707,4.672-2.68,6.359,0.14c0.172-0.226,0.328-0.437,0.5-0.632
				c1.035-1.227,2.359-1.68,3.922-1.344c1.313,0.273,1.969,1.227,2.031,2.461c0.094,2.219,0.031,4.436,0.031,6.654
				c0,0.094-0.063,0.171-0.109,0.327c-0.313,0-0.625,0-1.016,0c-0.031-0.312-0.09-0.593-0.094-0.874c0-1.438,0.01-2.875,0-4.313
				c-0.01-0.443-0.031-0.896-0.094-1.342c-0.25-1.625-1.547-2.305-3.031-1.57c-1.188,0.582-1.828,1.631-1.953,2.888
				c-0.125,1.385-0.078,2.774-0.109,4.165C100.51,58.43,100.479,58.758,100.447,59.164z"/>
		</g>
		<g>
			<path fill-rule="evenodd" clip-rule="evenodd" fill="#6D6E71" d="M156.701,58.023c0,0.766,0,1.478,0,2.186
				c0,0.641,0.014,1.297,0,1.953c-0.018,0.786-0.268,0.942-1.191,0.692c-0.045-0.25-0.139-0.548-0.139-0.849
				c-0.014-3.748-0.014-7.497,0-11.246c0-0.258,0.063-0.516,0.111-0.852c0.367,0,0.67,0,1.031,0
				c0.059,0.445,0.107,0.828,0.166,1.336c0.83-1.047,1.785-1.617,3.049-1.641c1.83-0.039,3.205,0.859,3.848,2.576
				c0.514,1.392,0.563,2.813,0.139,4.234c-0.951,3.153-4.357,4.029-6.719,1.75C156.951,58.122,156.885,58.102,156.701,58.023z
				 M156.527,54.428c0.219,0.801,0.344,1.564,0.656,2.252c0.438,0.983,1.232,1.578,2.361,1.594c1.17,0.031,2.063-0.501,2.576-1.531
				c0.768-1.515,0.75-3.094-0.076-4.576c-1.031-1.836-3.674-1.875-4.736-0.063C156.902,52.791,156.777,53.648,156.527,54.428z"/>
		</g>
		<g>
			<path fill-rule="evenodd" clip-rule="evenodd" fill="#6D6E71" d="M128.699,59.148c-0.375,0-0.691,0-1.094,0
				c0-4.327,0-8.6,0-12.951c0.375,0,0.709,0,1.158,0c0,1.813,0,3.563,0,5.313c0.061,0.012,0.107,0.021,0.154,0.031
				c0.111-0.133,0.234-0.266,0.344-0.393c1.109-1.342,2.563-1.756,4.234-1.459c0.984,0.172,1.672,0.766,1.938,1.75
				c0.141,0.539,0.223,1.102,0.234,1.656c0.031,1.726,0.016,3.459,0.016,5.193c0,0.25-0.059,0.516-0.094,0.858
				c-0.359,0-0.672,0-1.094,0c-0.031-0.343-0.078-0.671-0.094-0.988c-0.016-1.753,0.047-3.511-0.078-5.253
				c-0.125-1.795-1.203-2.451-2.938-1.943c-1.516,0.445-2.531,1.859-2.578,3.578c-0.016,1.234,0,2.477,0,3.717
				C128.793,58.539,128.746,58.817,128.699,59.148z"/>
		</g>
		<g>
			<path fill-rule="evenodd" clip-rule="evenodd" fill="#6D6E71" d="M116.588,54.549c-1.25,0-2.42,0-3.578,0
				c-1.125,0-2.266,0-3.453,0c-0.031,1.303,0.422,2.209,1.25,2.927c0.734,0.642,1.625,0.938,2.578,0.767
				c0.859-0.156,1.689-0.514,2.609-0.797c0.518,0.327,0.58,0.703,0.063,1.109c-2.031,1.576-5.438,1.092-6.953-0.985
				c-1.625-2.217-1.141-5.724,1.031-7.169c1.438-0.953,3-1.125,4.547-0.375c1.531,0.748,1.955,2.188,2.063,3.765
				C116.746,53.992,116.668,54.211,116.588,54.549z M109.682,53.492c1.906,0,3.766,0,5.611,0c0.188-1.459-0.906-2.709-2.377-2.818
				C111.291,50.549,109.76,51.861,109.682,53.492z"/>
		</g>
		<g>
			<path fill-rule="evenodd" clip-rule="evenodd" fill="#6D6E71" d="M145.277,54.569c-2.324,0-4.633,0-7.002,0
				c-0.031,1.282,0.393,2.227,1.252,2.906c1.703,1.329,3.406,0.916,5.156-0.223c0.188,0.332,0.344,0.613,0.5,0.896
				c-0.846,0.857-1.814,1.155-2.859,1.297c-2.625,0.344-4.924-1.375-5.393-4.045c-0.469-2.703,1.018-5.188,3.518-5.683
				c3.172-0.63,4.938,1.284,5,4.198C145.457,54.086,145.367,54.26,145.277,54.569z M138.418,53.492c1.891,0,3.75,0,5.604,0
				c0.141-1.531-0.994-2.779-2.479-2.826C139.918,50.611,138.404,51.947,138.418,53.492z"/>
		</g>
		<g>
			<path fill-rule="evenodd" clip-rule="evenodd" fill="#6D6E71" d="M84.652,51.541c-0.172-0.336-0.287-0.578-0.43-0.854
				c0.211-0.178,0.344-0.326,0.518-0.42c1.238-0.664,2.553-0.836,3.91-0.531c1.313,0.297,2.141,1.195,2.219,2.492
				c0.141,2.125,0.109,4.248,0.125,6.389c0,0.156-0.094,0.328-0.156,0.547c-0.305,0-0.578,0-0.938,0
				c-0.078-0.454-0.141-0.906-0.219-1.454c-0.17,0.188-0.266,0.298-0.359,0.423c-1.063,1.25-2.531,1.67-4.063,1.097
				c-1.09-0.394-1.756-1.144-1.834-2.331c-0.078-1.172,0.406-2.049,1.422-2.625c1.211-0.688,2.57-0.733,3.912-0.828
				c0.266-0.018,0.531-0.047,0.766-0.064c0.344-1.107-0.234-2.184-1.281-2.496c-0.934-0.281-1.816-0.07-2.672,0.293
				C85.303,51.291,85.041,51.393,84.652,51.541z M89.666,54.461c-1.25-0.045-2.422-0.031-3.551,0.392
				c-1.025,0.375-1.525,1.187-1.324,2.062c0.205,0.921,1.105,1.578,2.141,1.442c0.469-0.052,0.971-0.239,1.346-0.515
				C89.338,57.055,89.697,55.93,89.666,54.461z"/>
		</g>
		<g>
			<path fill-rule="evenodd" clip-rule="evenodd" fill="#6D6E71" d="M152.105,53.367c0.344-1.107-0.172-2.14-1.203-2.467
				c-0.953-0.305-1.859-0.086-2.75,0.289c-0.268,0.109-0.531,0.203-0.859,0.328c-0.172-0.275-0.326-0.508-0.484-0.766
				c0.688-0.781,1.563-0.938,2.438-1.102c0.313-0.055,0.625-0.047,0.947-0.039c2.037,0.026,3.244,1.047,3.365,3.085
				c0.109,1.97,0.031,3.952,0.031,5.921c0,0.172-0.078,0.343-0.141,0.547c-0.332,0-0.625,0-1.016,0
				c-0.031-0.5-0.078-0.938-0.125-1.485c-0.172,0.203-0.297,0.331-0.406,0.47c-1.016,1.218-2.453,1.623-3.955,1.119
				c-1.061-0.369-1.779-1.057-1.904-2.213c-0.141-1.234,0.328-2.201,1.438-2.811c1.203-0.659,2.537-0.704,3.859-0.799
				C151.605,53.424,151.871,53.392,152.105,53.367z M152.168,54.58c-0.891-0.32-3.094-0.025-3.938,0.506
				c-0.662,0.422-0.938,1.016-0.828,1.781c0.119,0.749,0.609,1.188,1.297,1.391C150.652,58.852,152.586,56.836,152.168,54.58z"/>
		</g>
		<g>
			<path fill-rule="evenodd" clip-rule="evenodd" fill="#6D6E71" d="M82.16,59.147c-0.334,0-0.654,0-1.033,0
				c-0.031-0.343-0.078-0.624-0.084-0.905c-0.01-1.453,0-2.921,0-4.375c0-0.225,0-0.452-0.01-0.67
				c-0.078-2.435-1.678-2.742-3.365-2.086c-1.551,0.602-2.182,1.93-2.244,3.523c-0.037,1.188,0,2.389-0.006,3.576
				c-0.01,0.281-0.047,0.563-0.074,0.953c-0.359,0.015-0.676,0.031-1.184,0.063c-0.039-3.125-0.023-6.154-0.008-9.295
				c0.445,0,0.781,0,1.207,0c0.033,0.57,0.059,1.078,0.096,1.68c0.141-0.141,0.244-0.219,0.313-0.313
				c1.057-1.385,2.479-1.867,4.166-1.648c1.291,0.164,2.205,0.992,2.283,2.434c0.131,2.238,0.063,4.486,0.068,6.721
				C82.285,58.898,82.227,58.977,82.16,59.147z"/>
		</g>
		<g>
			<path fill-rule="evenodd" clip-rule="evenodd" fill="#6D6E71" d="M126.121,51.002c-0.141,0.227-0.266,0.445-0.469,0.765
				c-0.359-0.187-0.697-0.339-1.016-0.507c-1.375-0.742-2.736-0.695-4,0.23c-1.313,0.973-1.643,2.377-1.346,3.908
				c0.266,1.453,1.176,2.405,2.627,2.766c1.09,0.281,2.125,0.094,3.094-0.517c0.234-0.156,0.484-0.298,0.813-0.515
				c0.203,0.266,0.391,0.483,0.547,0.687c-0.656,1.251-2.859,1.921-4.766,1.532c-2.063-0.428-3.58-2.156-3.736-4.25
				c-0.201-2.404,0.955-4.374,3.031-5.178C122.588,49.268,125.184,49.635,126.121,51.002z"/>
		</g>
	</g>
</g>
</svg>
