<?xml version="1.0" encoding="utf-8"?>
<!-- Generator: Adobe Illustrator 18.1.1, SVG Export Plug-In . SVG Version: 6.00 Build 0)  -->
<svg version="1.1" id="Layer_1" xmlns="http://www.w3.org/2000/svg" xmlns:xlink="http://www.w3.org/1999/xlink" x="0px" y="0px"
	 viewBox="-193 378.3 146.3 38.7" enable-background="new -193 378.3 146.3 38.7" xml:space="preserve">
<g id="guides">
</g>
<g id="Layer_2">
	<g>
		<g>
			<path fill="#F58758" d="M-162.2,401.7c0.5-1,0.9-1.8,1.4-2.6c2.1-4.1,4.1-8.1,6.2-12.2c0.7-1.4,1.6-2.4,3.2-2.7
				c1.7-0.4,3.2,0.1,4.3,1.5c1.2,1.5,1.3,3.1,0.5,4.8c-1.5,3-3.1,6.1-4.6,9.1c-1.3,2.6-2.6,5.1-3.9,7.7c-0.9,1.8-2.4,2.8-4.5,2.8
				c-1.8,0-3.6,0-5.4,0c-1.9,0-3.3-0.9-4.2-2.6c-2.4-4.7-4.8-9.5-7.2-14.3c-0.1-0.2-0.2-0.5-0.4-0.8c-0.2,0.4-0.4,0.6-0.5,0.9
				c-2.4,4.7-4.8,9.4-7.2,14.2c-1,1.9-2.9,2.9-4.8,2.5c-2.9-0.6-4.4-3.6-3-6.3c1.8-3.7,3.7-7.3,5.5-10.9c1-2,2-4.1,3.1-6.1
				c0.9-1.7,2.3-2.7,4.3-2.6c1.8,0,3.6,0,5.4,0c2,0,3.4,0.9,4.3,2.6c2.4,4.7,4.8,9.5,7.2,14.2C-162.6,401.1-162.5,401.3-162.2,401.7
				z"/>
		</g>
		<g>
			<path fill="#6D6E71" d="M-112.6,406.2c-0.4,0-0.7,0-1.1,0c0-0.3-0.1-0.6-0.1-0.9c0-1.6,0-3.1,0-4.7c0-0.3,0-0.7-0.1-1
				c-0.3-1.6-1.4-2.2-2.9-1.6c-1.3,0.6-2,1.7-2.1,3c-0.1,1.4-0.1,2.7-0.1,4.1c0,0.3,0,0.7-0.1,1.1c-0.4,0-0.7,0-1.1,0
				c0-3,0-6.1,0-9.2c0.3,0,0.7-0.1,1.1-0.1c0,0.6,0.1,1.2,0.1,1.7c3-2.7,4.7-2.7,6.4,0.1c0.2-0.2,0.3-0.4,0.5-0.6
				c1-1.2,2.4-1.7,3.9-1.3c1.3,0.3,2,1.2,2,2.5c0.1,2.2,0,4.4,0,6.7c0,0.1-0.1,0.2-0.1,0.3c-0.3,0-0.6,0-1,0c0-0.3-0.1-0.6-0.1-0.9
				c0-1.4,0-2.9,0-4.3c0-0.4,0-0.9-0.1-1.3c-0.3-1.6-1.5-2.3-3-1.6c-1.2,0.6-1.8,1.6-2,2.9c-0.1,1.4-0.1,2.8-0.1,4.2
				C-112.5,405.4-112.5,405.8-112.6,406.2z"/>
		</g>
		<g>
			<path fill="#6D6E71" d="M-56.3,405c0,0.8,0,1.5,0,2.2c0,0.6,0,1.3,0,2c0,0.8-0.3,0.9-1.2,0.7c0-0.3-0.1-0.5-0.1-0.8
				c0-3.7,0-7.5,0-11.2c0-0.3,0.1-0.5,0.1-0.9c0.4,0,0.7,0,1,0c0.1,0.4,0.1,0.8,0.2,1.3c0.8-1,1.8-1.6,3-1.6c1.8,0,3.2,0.9,3.8,2.6
				c0.5,1.4,0.6,2.8,0.1,4.2c-1,3.2-4.4,4-6.7,1.8C-56,405.1-56.1,405.1-56.3,405z M-56.5,401.4c0.2,0.8,0.3,1.6,0.7,2.3
				c0.4,1,1.2,1.6,2.4,1.6c1.2,0,2.1-0.5,2.6-1.5c0.8-1.5,0.8-3.1-0.1-4.6c-1-1.8-3.7-1.9-4.7-0.1
				C-56.1,399.8-56.2,400.6-56.5,401.4z"/>
		</g>
		<g>
			<path fill="#6D6E71" d="M-84.3,406.1c-0.4,0-0.7,0-1.1,0c0-4.3,0-8.6,0-13c0.4,0,0.7,0,1.2,0c0,1.8,0,3.6,0,5.3
				c0.1,0,0.1,0,0.2,0c0.1-0.1,0.2-0.3,0.3-0.4c1.1-1.3,2.6-1.8,4.2-1.5c1,0.2,1.7,0.8,1.9,1.8c0.1,0.5,0.2,1.1,0.2,1.7
				c0,1.7,0,3.5,0,5.2c0,0.3-0.1,0.5-0.1,0.9c-0.4,0-0.7,0-1.1,0c0-0.3-0.1-0.7-0.1-1c0-1.8,0-3.5-0.1-5.3c-0.1-1.8-1.2-2.5-2.9-1.9
				c-1.5,0.4-2.5,1.9-2.6,3.6c0,1.2,0,2.5,0,3.7C-84.2,405.5-84.3,405.8-84.3,406.1z"/>
		</g>
		<g>
			<path fill="#6D6E71" d="M-96.4,401.5c-1.3,0-2.4,0-3.6,0c-1.1,0-2.3,0-3.5,0c0,1.3,0.4,2.2,1.3,2.9c0.7,0.6,1.6,0.9,2.6,0.8
				c0.9-0.2,1.7-0.5,2.6-0.8c0.5,0.3,0.6,0.7,0.1,1.1c-2,1.6-5.4,1.1-7-1c-1.6-2.2-1.1-5.7,1-7.2c1.4-1,3-1.1,4.5-0.4
				c1.5,0.7,2,2.2,2.1,3.8C-96.3,401-96.3,401.2-96.4,401.5z M-103.3,400.5c1.9,0,3.8,0,5.6,0c0.2-1.5-0.9-2.7-2.4-2.8
				C-101.7,397.5-103.2,398.9-103.3,400.5z"/>
		</g>
		<g>
			<path fill="#6D6E71" d="M-67.7,401.6c-2.3,0-4.6,0-7,0c0,1.3,0.4,2.2,1.3,2.9c1.7,1.3,3.4,0.9,5.2-0.2c0.2,0.3,0.3,0.6,0.5,0.9
				c-0.8,0.9-1.8,1.2-2.9,1.3c-2.6,0.3-4.9-1.4-5.4-4c-0.5-2.7,1-5.2,3.5-5.7c3.2-0.6,4.9,1.3,5,4.2
				C-67.5,401.1-67.6,401.3-67.7,401.6z M-74.6,400.5c1.9,0,3.8,0,5.6,0c0.1-1.5-1-2.8-2.5-2.8C-73.1,397.6-74.6,398.9-74.6,400.5z"
				/>
		</g>
		<g>
			<path fill="#6D6E71" d="M-128.3,398.5c-0.2-0.3-0.3-0.6-0.4-0.9c0.2-0.2,0.3-0.3,0.5-0.4c1.2-0.7,2.6-0.8,3.9-0.5
				c1.3,0.3,2.1,1.2,2.2,2.5c0.1,2.1,0.1,4.2,0.1,6.4c0,0.2-0.1,0.3-0.2,0.5c-0.3,0-0.6,0-0.9,0c-0.1-0.5-0.1-0.9-0.2-1.5
				c-0.2,0.2-0.3,0.3-0.4,0.4c-1.1,1.3-2.5,1.7-4.1,1.1c-1.1-0.4-1.8-1.1-1.8-2.3c-0.1-1.2,0.4-2,1.4-2.6c1.2-0.7,2.6-0.7,3.9-0.8
				c0.3,0,0.5,0,0.8-0.1c0.3-1.1-0.2-2.2-1.3-2.5c-0.9-0.3-1.8-0.1-2.7,0.3C-127.7,398.3-128,398.4-128.3,398.5z M-123.3,401.5
				c-1.3,0-2.4,0-3.6,0.4c-1,0.4-1.5,1.2-1.3,2.1c0.2,0.9,1.1,1.6,2.1,1.4c0.5-0.1,1-0.2,1.3-0.5
				C-123.7,404.1-123.3,402.9-123.3,401.5z"/>
		</g>
		<g>
			<path fill="#6D6E71" d="M-60.9,400.4c0.3-1.1-0.2-2.1-1.2-2.5c-1-0.3-1.9-0.1-2.7,0.3c-0.3,0.1-0.5,0.2-0.9,0.3
				c-0.2-0.3-0.3-0.5-0.5-0.8c0.7-0.8,1.6-0.9,2.4-1.1c0.3-0.1,0.6,0,0.9,0c2,0,3.2,1,3.4,3.1c0.1,2,0,4,0,5.9
				c0,0.2-0.1,0.3-0.1,0.5c-0.3,0-0.6,0-1,0c0-0.5-0.1-0.9-0.1-1.5c-0.2,0.2-0.3,0.3-0.4,0.5c-1,1.2-2.5,1.6-4,1.1
				c-1.1-0.4-1.8-1.1-1.9-2.2c-0.1-1.2,0.3-2.2,1.4-2.8c1.2-0.7,2.5-0.7,3.9-0.8C-61.4,400.4-61.1,400.4-60.9,400.4z M-60.8,401.6
				c-0.9-0.3-3.1,0-3.9,0.5c-0.7,0.4-0.9,1-0.8,1.8c0.1,0.7,0.6,1.2,1.3,1.4C-62.3,405.9-60.4,403.8-60.8,401.6z"/>
		</g>
		<g>
			<path fill="#6D6E71" d="M-130.8,406.1c-0.3,0-0.7,0-1,0c0-0.3-0.1-0.6-0.1-0.9c0-1.5,0-2.9,0-4.4c0-0.2,0-0.5,0-0.7
				c-0.1-2.4-1.7-2.7-3.4-2.1c-1.6,0.6-2.2,1.9-2.2,3.5c0,1.2,0,2.4,0,3.6c0,0.3,0,0.6-0.1,1c-0.4,0-0.7,0-1.2,0.1
				c0-3.1,0-6.2,0-9.3c0.4,0,0.8,0,1.2,0c0,0.6,0.1,1.1,0.1,1.7c0.1-0.1,0.2-0.2,0.3-0.3c1.1-1.4,2.5-1.9,4.2-1.6
				c1.3,0.2,2.2,1,2.3,2.4c0.1,2.2,0.1,4.5,0.1,6.7C-130.7,405.9-130.8,406-130.8,406.1z"/>
		</g>
		<g>
			<path fill="#6D6E71" d="M-86.9,398c-0.1,0.2-0.3,0.4-0.5,0.8c-0.4-0.2-0.7-0.3-1-0.5c-1.4-0.7-2.7-0.7-4,0.2
				c-1.3,1-1.6,2.4-1.3,3.9c0.3,1.5,1.2,2.4,2.6,2.8c1.1,0.3,2.1,0.1,3.1-0.5c0.2-0.2,0.5-0.3,0.8-0.5c0.2,0.3,0.4,0.5,0.5,0.7
				c-0.7,1.3-2.9,1.9-4.8,1.5c-2.1-0.4-3.6-2.2-3.7-4.3c-0.2-2.4,1-4.4,3-5.2C-90.4,396.3-87.8,396.6-86.9,398z"/>
		</g>
	</g>
</g>
</svg>
