<?xml version="1.0" encoding="utf-8"?>
<!-- Generator: Adobe Illustrator 18.1.1, SVG Export Plug-In . SVG Version: 6.00 Build 0)  -->
<svg version="1.1" id="Layer_1" xmlns="http://www.w3.org/2000/svg" xmlns:xlink="http://www.w3.org/1999/xlink" x="0px" y="0px"
	 viewBox="0 0 1961 1104" enable-background="new 0 0 1961 1104" xml:space="preserve">
<g>
	<path d="M687,757c-1.8,1.2-1.8,3-2.1,4.5c-4.8,19.8-9.5,39.5-14.2,59.3c-0.7,2.8-1.3,5.5-2,8.2c-4.7,16.2-21.4,23-36.7,15.2
		c-10-5.1-14.3-14-17.3-24c-7.6-25.9-15-51.9-22.6-77.8c-5-17.1-10.1-34.2-14.9-51.4c-1.4-5.2-4-7.6-9.5-7.3
		c-2.6,0.1-6.9,1.1-6.9-2.8c0-4.3,4.4-3,7.1-3c20.7-0.1,41.3-0.1,62,0c2.6,0,6.9-1.1,6.9,2.8c0.1,4.3-4.4,3-7.1,3.1
		c-7.7,0.4-8.1,0.9-6.2,8.2c11.5,45.1,22.9,90.1,34.3,135.2c0.5,2.1,1.1,4.1,1.8,6.7c2.1-1.9,2.1-3.9,2.5-5.7
		c6.2-26.1,12.2-52.2,18.4-78.3c0.9-3.7,0.9-7.2-0.1-10.8c-4.6-16-9.2-32-13.6-48.1c-1.3-5-3.8-7.4-9.1-7.2
		c-2.7,0.1-7.2,1.3-7.1-3.1c0.1-3.8,4.4-2.7,7-2.7c20.3-0.1,40.7-0.1,61-0.1c0.8,0,1.7,0,2.5,0.1c2.1,0.2,4.9,0,4.8,3.1
		c-0.1,2.7-2.6,2.6-4.6,2.8c-9.9,0.9-9.9,0.9-7.5,10.5c11.2,44.4,22.4,88.9,33.6,133.3c0.4,1.7,0.5,3.7,1.9,5
		c1.5-0.1,1.4-1.4,1.6-2.3c11.1-46.3,22.2-92.7,33.3-139c1.6-6.8,1-7.4-6.2-7.5c-6-0.1-12,0-18-0.1c-2,0-4.4-0.1-4.5-2.9
		c0-2.7,2.5-2.9,4.4-2.9c14.2-0.1,28.3-0.1,42.5,0c2,0,4.4,0.1,4.5,2.8c0.1,2.7-2.4,2.8-4.4,2.9c-1.5,0.1-3,0.2-4.5,0.1
		c-3.5,0-5.6,1.7-6.4,5.1c-1.6,6.7-3.2,13.3-4.8,19.9c-9.5,39.2-19,78.4-28.3,117.6c-2.5,10.5-7.5,18.2-18.8,20
		c-13.7,2.2-25.3-2.9-31.4-13.5c-2.5-4.4-3.9-9.2-5.1-14c-4.8-19.1-9.7-38.1-14.6-57.2C688.6,760.3,688.4,758.4,687,757z"/>
	<path d="M371.8,468.1c1.7-2.2,1.2-4.1,1.2-5.8c0-69.2,0-138.3,0-207.5c0-8.2-0.6-8.8-8.8-8.8c-6.3,0-12.7,0-19-0.1
		c-2,0-4.4-0.2-4.4-2.9c0-2.7,2.5-2.8,4.5-2.9c16.8-0.1,33.7-0.1,50.5,0c2,0,4.4,0.1,4.4,2.9c0,2.7-2.5,2.8-4.4,2.9
		c-3.7,0.1-7.3,0.2-11,0.1c-4,0-5.8,1.9-5.7,5.8c0,2,0,4,0,6c0,74.5,0,149,0,223.5c0,10.4-2.3,12.8-12.7,13.5
		c-21.4,1.5-36.5-7.9-46.2-26.7c-9-17.3-18-34.6-26.9-51.9c-21.6-42.1-43.1-84.2-64.7-126.4c-4.7-9.2-9.5-18.4-14.3-27.5
		c-0.6-1.1-0.8-2.6-2.4-3c-1.4,1.6-0.8,3.5-0.8,5.2c0,71.2,0,142.3,0,213.5c0,8.3,0.6,8.9,8.7,8.9c6.3,0,12.7,0,19,0.1
		c1.8,0,4.2,0,4.2,2.4c0,2.4-2.5,2.3-4.3,2.3c-16.5,0.1-33,0.1-49.5,0c-1.7,0-4.2,0-4.1-2.5c0.1-2.1,2.3-2.1,3.9-2.2
		c3.5-0.1,7-0.2,10.5-0.2c3.7,0,5.5-1.9,5.5-5.6c0-1.7,0-3.3,0-5c0-73.3,0-146.7,0-220c0-0.8,0-1.7,0-2.5c-0.1-7-0.9-7.8-7.7-7.9
		c-2.5,0-5,0-7.5-0.1c-1.8-0.1-4-0.4-4-2.8c0-2.5,2.1-2.8,3.9-2.9c5.2-0.1,10.3-0.3,15.5-0.1c10.3,0.4,20.7,0.6,30.9,2.4
		c13.8,2.5,23.5,10.8,30.3,22.5c5.3,9,10.1,18.4,14.9,27.7c16.2,31.6,32.3,63.2,48.5,94.8c12.4,24.2,24.8,48.3,37.3,72.5
		C368.4,462.6,370.1,465.2,371.8,468.1z"/>
	<path d="M1332,452.9c-3.7,8.8-7.5,16.8-12.9,23.9c-17.4,22.8-53.7,24.8-69.8,3.9c-6.2-8.1-9.2-17.3-9.3-27.4
		c-0.1-36.6,0-73.3,0-109.9c0-1.8-0.1-3.7,0-5.5c0.1-3.9-1.8-5.9-5.7-5.9c-2.3,0-4.7-0.1-7-0.4c-1.4-0.2-2.5-1-2.5-2.6
		c0-1.6,1.1-2.4,2.5-2.6c1.6-0.3,3.3-0.3,5-0.3c14.8,0,29.7,0,44.5,0c7.6,0,8.3,0.7,8.3,8.3c0,48.6,0,97.3,0,145.9
		c0,9.5,1.6,10.6,10.6,7.1c17.9-7.2,27-22,32.7-39.3c3.7-11.4,4.5-23.2,4.7-35c0.4-24.3,0.1-48.6,0.1-73c0-7.2-0.8-7.9-8.1-8
		c-2.5,0-5,0-7.5-0.2c-1.7-0.1-3.6-0.5-3.6-2.7c-0.1-2.5,1.9-2.8,3.8-3c1.2-0.1,2.3-0.1,3.5-0.1c16.3,0,32.7,0,49,0
		c7.2,0,7.9,0.8,7.9,8.2c0,43,0,86,0,128.9c0,4.9,0.3,9.7,1.2,14.4c1.2,6.6,5.6,9.6,12.2,8.7c1.7-0.2,4-1.5,4.7,1
		c0.7,2.2-1.5,3.1-3.2,3.8c-10.2,3.9-20.7,5.6-31.4,2.8c-16.2-4.2-27.1-18.1-28.5-35.4C1333,456.9,1333.4,455.2,1332,452.9z"/>
	<path d="M276,844c-27.5,0-55,0-82.5-0.1c-2.6,0-7.2,1.2-7.2-2.2c0-4.1,4.6-2.6,7.3-2.6c14-0.2,13.4,0.8,13.4-13.3
		c0-71.8,0-143.6,0-215.4c0-2-0.1-4,0-6c0.2-4.4-1.8-6.4-6.3-6.4c-3.8,0.1-7.7,0-11.5-0.2c-1.7-0.1-3.5-0.6-3.5-2.8
		c0-2.2,1.8-2.6,3.5-2.8c1.3-0.2,2.7-0.2,4-0.2c24.2,0,48.3-0.1,72.5,0.1c2.7,0,7.2-1.3,7.3,2.9c0,4.2-4.5,2.9-7.2,3
		c-14.7,0.2-13.8-1-13.8,13.9c0,71.5,0,143,0,214.4c0,1.8,0,3.7,0,5.5c0.1,6.3,1,7.2,7.4,7.3c27.8,0,55.6,0,83.5,0c3.7,0,7.3,0,11,0
		c7.4-0.1,8.2-0.8,8.2-8.4c0-10.5,0-21,0-31.5c0-1.5-0.1-3,0.1-4.5c0.2-2.1,0-4.9,3.1-4.8c2.6,0.1,2.7,2.6,2.7,4.6
		c0.1,14.7,0,29.3,0.1,44c0,4.9-3.1,5.6-7,5.6c-19.7,0-39.3,0-59,0C293.3,844,284.6,844,276,844z"/>
	<path d="M815,352c0,36.8,0,73.7,0,110.5c0,4.5,0.3,9,1.1,13.4c1.4,8.4,5.9,11.5,14.2,9.5c2.7-0.6,5.3-2,7.9-3
		c1-0.4,2.2-1.4,3.2-0.1c0.8,1,0.5,2.2,0,3.3c-0.6,1.5-1.8,2.4-3.1,3.1c-15.3,8-31.1,9.3-46.4,0.9c-14.7-8.1-21.6-21.7-21.7-38.1
		c-0.3-62.5-0.1-125-0.1-187.5c0-6.6,1.2-13,4.2-18.9c3.5-6.9,8.8-11.7,16.3-13.8c6-1.7,12.1-2,18.3-2.4c4.2-0.3,6.2,1.7,6.1,5.9
		c-0.1,1.8,0,3.7,0,5.5C815,277.7,815,314.8,815,352z"/>
	<path d="M564.9,376.6c-6.8-26.9-24.6-43-51-50.2c-36.9-10.1-72.9,8.6-86.4,44.3c-7.3,19.4-9.1,39.2-6.1,59.4
		c1.9,12.5,6.5,24.2,14,34.4c13.5,18.1,32,27.8,54.3,30.1c28.1,2.8,51.2-6.1,67.1-30.4c1.5-2.2,3.4-4.5,0.2-6.9
		c-3.4-2.5-4.8,0.3-6.2,2.5c-4.6,7.3-10.7,13.2-17.5,18.3c-20.4,15.2-57.8,15.2-64.6-24.7c-1.6-9.5-1.9-19.2-1.7-28.9
		c0.2-6.6,1-7.5,7.6-7.6c13.7-0.1,27.3,0,41,0v0c14.2,0,28.3-0.1,42.5,0c4.4,0,6.5-1.7,7.4-6.2C567.8,399.3,567.8,387.9,564.9,376.6
		z M520,402.8c0,6.3-1,7.2-7.3,7.2c-12.8,0.1-25.7,0.1-38.5,0c-6,0-7.1-1-7.1-7c-0.1-10.2,0-20.3,0-30.5c0-9.5,0.2-19-0.1-28.5
		c-0.1-5.1,1.9-8.2,6.8-9.6c8.4-2.5,16.8-4,25.6-2.7c9.1,1.3,14.7,6.5,17.6,14.9c2.3,6.5,2.8,13.4,2.9,20.2
		C520.2,378.7,520,390.8,520,402.8z"/>
	<path d="M733.9,372.6c-8.4-26.5-27-41.5-53.8-47.2c-37.4-8-72.3,12.7-83.8,49.1c-6.2,19.8-6.9,39.6-2.7,59.7
		c2.6,12.4,7.8,23.8,16,33.5c14.5,17.3,33.5,26,55.9,27c28.2,1.2,50.8-9,65.3-34.1c1.3-2.3,3.2-4.7-0.2-6.9c-3.6-2.3-4.8,0.6-6,2.8
		c-4.1,7.6-9.9,13.8-16.4,19.3c-19.5,16.3-56.9,18.4-66-21c-2.2-9.4-3-19.1-3.3-28.7c-0.2-6.6,0.5-7.6,7.1-8
		c13.6-0.8,27.3-1.6,40.9-2.4l0,0c14.1-0.8,28.3-1.7,42.4-2.4c4.4-0.2,6.4-2.1,7.1-6.6C738.1,395.1,737.4,383.7,733.9,372.6z
		 M690.6,401.3c0.3,6.3-0.6,7.2-6.9,7.6c-12.8,0.8-25.6,1.5-38.4,2.2c-6,0.3-7.1-0.6-7.5-6.6c-0.7-10.1-1.2-20.3-1.8-30.4
		c-0.5-9.5-0.9-19-1.7-28.4c-0.4-5.1,1.4-8.3,6.2-10c8.2-2.9,16.5-4.9,25.4-4.2c9.2,0.8,15.1,5.6,18.5,13.9c2.6,6.4,3.5,13.2,4.1,20
		C689.4,377.3,689.9,389.3,690.6,401.3z"/>
	<path d="M1644.4,363.7c1.4-3.2,2.7-6.3,4.1-9.5c4.4-10,10.6-18.5,19.9-24.4c13.5-8.6,31.3-8.2,44.3,1c12,8.5,17.9,25.1,14.2,40.5
		c-2,8.4-6.7,14.6-14.8,17.5c-13.2,4.7-25.2-3.7-25.9-18.3c-0.5-11.1-0.2-22.3-0.2-33.5c0-7.3-1.8-8.8-8.7-5.9
		c-12.8,5.4-20.1,16-25.8,28c-6.7,14.4-8.2,29.9-8.4,45.4c-0.4,24.8-0.1,49.7-0.1,74.5c0,7,0.9,7.8,7.7,7.9c3.5,0.1,7,0.1,10.5,0.3
		c1.4,0.1,2.8,0.6,2.8,2.3c0,1.7-1.5,2.1-2.9,2.2c-1.5,0.2-3,0.2-4.5,0.2c-22.2,0-44.3,0.1-66.5-0.1c-2.5,0-6.9,1.3-6.9-2.5
		c0-3.3,4.2-2.2,6.7-2.3c7.3-0.3,8-0.9,8-8.1c0-46.3,0-92.6,0-139c0-7-0.8-7.7-7.7-8c-2.7-0.1-7.4,1.2-7.3-2.8c0-4.4,4.8-3,7.6-3
		c7.8,0,15.6-0.2,23.5,0.5c18.4,1.6,27.4,13.9,28.8,31.3c0.1,1.8,0.2,3.6,0.3,5.4C1643.6,363.5,1644,363.6,1644.4,363.7z"/>
	<path d="M1291.1,804c-1.7,8.1-6.2,14.8-11,21.3c-18,24.3-49.6,23.7-71.2,14.1c-18.1-8-30.6-21.8-37.7-40.1
		c-12.5-32.4-11.2-64.3,6.3-94.7c12.6-21.9,32.5-31,57.2-30.8c12.6,0.1,24.6,2.7,35.4,9c11.8,6.9,19.4,16.6,18.7,31.2
		c-0.1,2.9-0.8,5.6-2.1,8.2c-2.8,5.5-7,8.8-13.4,8.7c-5.8-0.1-10.9-4-13.2-9.9c-1.1-2.9-1.2-5.8-1.2-8.9c0-8.8,0-17.7,0-26.5
		c0-3-0.5-5.8-4-6.7c-9.9-2.7-20-4.3-30.1-1.9c-16.6,3.9-27.5,17.8-28.8,36.6c-1.9,28.9-2,57.9,0,86.8c2.4,34,32.5,51.9,63.5,37.9
		c11.4-5.2,19.1-14.2,24.8-25.1c1.7-3.3,3.4-6.6,5.1-10C1290.1,803.4,1290.6,803.7,1291.1,804z"/>
	<path d="M1018.5,842.4c-1.9,2.1-4,1.5-5.9,1.5c-33,0-65.9,0-98.9,0c-6.8,0-7.7-0.9-7.7-7.9c0-51.1,0-102.2,0-153.4
		c0-6.7,0.9-7.6,7.4-7.7c5.8-0.1,11.7,0.1,17.5,0c4.2-0.1,6.1,1.9,6,6.1c-0.1,1.8,0,3.7,0,5.5c0,48.3,0,96.6,0,144.9
		c0,9.2,0.4,9.5,9.6,9.5c21.6,0,43.3,0,64.9,0C1013.8,841.1,1016.2,840.4,1018.5,842.4z"/>
	<path d="M1150.5,842.4c-1.8,2.1-4,1.6-5.8,1.6c-33,0-65.9,0.1-98.9,0c-6.9,0-7.7-0.9-7.7-7.8c0-51.1,0-102.2,0-153.4
		c0-6.9,0.9-7.7,7.9-7.7c5.8,0,11.7,0,17.5,0c3.7,0,5.6,1.8,5.5,5.5c0,2,0.1,4,0.1,6c0,48.3,0,96.6,0,144.9c0,9.2,0.4,9.6,9.5,9.6
		c21.6,0,43.3,0,64.9,0C1145.7,841.1,1148.1,840.5,1150.5,842.4z"/>
	<path d="M1022.6,397.7c-1.2-16.8-5.8-32.7-15-47.2c-14.7-23.3-44.1-32.9-69-22.1c-7.6,3.3-14.1,8.2-19.8,14.2c-1,1-2,2.9-3.6,2.3
		c-1.9-0.7-1.2-2.9-1.3-4.4c-0.1-2,0-4,0-6c0-24.8,0.1-49.7-0.1-74.5c-0.1-18.5-10-28.7-28.4-30.1c-1.7-0.1-3.3-0.3-5-0.5
		C870,228.1,869,229,869,239.6c0,81,0,162,0,243c0,2.2,0,4.3,0.2,6.5c0.1,2.2,1.2,3.7,3.3,4.6c7.7,3.5,24.9,0.7,31.4-5.1
		c6.9-6.1,9.5-14.2,10.5-23.6c2.3,1.2,2.5,3,3.4,4.3c8.8,12.7,19.3,23.2,35.5,25.3c23.2,3,45.9-9.5,57-30.1
		C1021.5,443.6,1024.4,421,1022.6,397.7z M976,419.6c0,19.3,0,38.6,0,57.9c0,7.3-1.4,8.9-8.6,10.4c-15.4,3.1-31.8-4.8-41.7-19.8
		c-9-13.6-11.5-28.9-11.7-44.8c-0.3-17.6,0.4-35.3-0.2-52.9c-0.3-9.1,1.9-16.5,8.4-22.9c8.2-8.2,17.1-14.7,29-16.1
		c11.6-1.4,20.8,4.9,23.1,16.4c1.1,5.5,1.7,11.2,1.7,16.9C976,383,976,401.3,976,419.6z"/>
	<path d="M1208.9,488.2c-0.5-2.1-2.4-1-3.8-0.8c-7.3,0.8-11.4-2.2-12.9-9.3c-0.9-4.1-1.3-8.2-1.2-12.4c0.1-13,0-26,0-39c0,0,0,0,0,0
		c0-13.8,0.3-27.7-0.1-41.5c-0.7-22.6-9.4-41.1-29.8-52.6c-15.8-8.8-32.9-10.3-50.5-7.8c-15.6,2.2-30.1,7.3-41.3,19.3
		c-6.7,7.2-8.6,15.6-6.3,25c2,7.9,10.1,13.8,18.3,13.7c8-0.1,14.2-5.3,16.4-13.6c0.9-3.4,1.2-6.9,1.2-10.4c0-6.3,0.1-12.7,0-19
		c-0.1-4.5,1.6-7,6.1-8.3c6.4-1.8,12.8-2.1,19.3-1.5c11.9,1.1,19,8.3,20.6,20.1c1.8,13.3,0.7,26.6,1.1,39.9c0.1,4.8-1.9,6.7-6.7,7.1
		c-15.1,1-30.4,1.5-45,5.9c-14.9,4.5-28.7,10.9-36.7,25.6c-4.9,9.1-6.3,18.9-5.6,29c0.8,11.3,5.3,21,14.5,27.9
		c23,17.4,60.6,10.2,75.8-14.4c0.8-1.4,1.2-3.6,3.1-3.6c2.3,0,2.3,2.5,3,4.1c10,21,36.8,30.2,57.6,19.6
		C1207.4,490.6,1209.3,490,1208.9,488.2z M1142.8,457.7c-4.7,16.4-20.9,29.7-37.9,31.2c-6.1,0.5-6.9-0.2-6.9-6.4
		c0-5.2,0-10.3,0-17.6c-0.2-9.2-0.2-20.5,2.9-31.5c5.2-18.4,20.9-30.3,39.8-30.4c2.8,0,5.2,0.3,5.1,3.8
		C1145.7,423.7,1147.6,440.9,1142.8,457.7z"/>
	<path d="M550.8,840c-0.6-1.9-2.6-0.7-4-0.5c-6.7,0.8-11-2.2-12.5-8.6c-1-4.2-1.4-8.5-1.4-12.9c0.1-13.2,0-26.3,0-39.5c0,0,0,0,0,0
		c0-13.7,0.3-27.3-0.1-41c-0.6-21-8.1-38.7-26.2-50.6c-15.1-9.9-32-12.3-49.4-10.6c-17.2,1.7-33.3,6.6-45.8,19.7
		c-6.8,7.2-8.8,15.5-6.5,24.9c1.9,7.9,9.9,13.9,18.1,13.9c8,0,14.3-5.1,16.6-13.4c0.9-3.4,1.3-6.9,1.3-10.4c0-6.7,0.1-13.3,0-20
		c0-3.9,1.6-6.1,5.4-7.2c6.3-1.9,12.8-2.3,19.3-1.8c12.4,1,19.7,8.1,21.3,20.4c1.8,13.1,0.6,26.3,1,39.4c0.2,5.1-2,7-7,7.3
		c-15.1,1-30.4,1.5-45,5.9c-19.6,5.9-36.1,15.5-40.8,37.5c-3.3,15.7-1.9,30.7,10.5,42.6c21.1,20.2,62.6,13.9,78.5-11.8
		c0.9-1.5,1.3-3.9,3.5-3.7c2,0.1,2,2.4,2.7,3.9c9.9,21.2,36.3,30.3,57.5,19.9C549.3,842.6,551.6,842,550.8,840z M484.8,809.7
		c-4.7,16.4-20.9,29.7-37.8,31.2c-6.1,0.6-6.9-0.2-7-6.4c0-5.2,0-10.3,0-17.6c-0.2-9.2-0.2-20.5,2.9-31.5
		c5.2-18.4,20.8-30.3,39.8-30.5c2.8,0,5.2,0.2,5.2,3.7C487.7,775.7,489.6,792.9,484.8,809.7z"/>
	<path d="M1559.9,376.6c-6.9-26.9-24.7-43-51-50.2c-36.9-10.1-72.8,8.6-86.4,44.4c-7.4,19.4-9.4,39.2-6,59.4
		c3.3,19.6,12,36.5,28.3,48.9c17.2,13.1,36.8,17.6,57.9,15.6c21.7-2,38-13.1,49.7-31.3c2-3.1,1.7-5.4-1.8-6.7
		c-2.8-1.1-3.7,1.6-4.9,3.3c-7,10.5-15.9,18.7-27.5,23.9c-24.3,10.9-48.7-1.5-54.1-27.5c-2.2-10.5-2.5-21.1-2.2-31.8
		c0.1-6.6,1-7.5,7.6-7.5c13.7-0.1,27.3,0,41,0c0,0,0,0,0,0c14,0,28-0.1,42,0.1c4.9,0.1,7.1-1.9,8-6.7
		C1562.8,399,1562.7,387.7,1559.9,376.6z M1508.2,410c-13.2-0.1-26.3-0.1-39.5,0c-5,0.1-6.8-2.2-6.7-7c0.2-10,0-20,0.1-30
		c0-10,0.1-20,0-30c0-4,1.4-6.7,5.3-8.1c8.8-3.1,17.7-4.6,27-3.3c9.4,1.3,14.9,6.6,17.9,15.3c2.1,6.2,2.6,12.8,2.8,19.2
		c0.3,12.3,0,24.7,0.2,37C1515.1,408.1,1513.1,410.1,1508.2,410z"/>
	<path fill="none" d="M1209.9,681c-14.1,11.8-17.1,27.1-16.9,43.7c0.2,23-0.1,45.9,0.1,68.9c0.1,13.4,3.2,26.1,11.6,37
		c1.6,2.1,3.5,4,5.1,6.3c-5.4-1.7-9.8-5.1-14.1-8.7c-20.4-16.9-28.4-39.5-29.7-65.2c-0.8-17.1,1.9-33.6,9.3-49
		c6.4-13.3,15.4-24.5,28.9-31.4C1205.6,681.7,1207,680.6,1209.9,681z"/>
	<path fill="none" d="M1286.4,712.2c-0.3,9.6-5,15.9-12.2,16.2c-7.1,0.4-12.5-5.6-13-15.4c-0.5-9-0.2-18-0.2-27
		c0-2.2,0.5-4.3,3.5-3.1C1276,687.6,1286.6,697.4,1286.4,712.2z"/>
	<path fill="none" d="M935,759.8c0,24.2,0,48.3,0,72.5c0,8.1-0.6,8.7-8.9,8.7c-4,0-8,0-12-0.1c-3.2-0.1-4.9-1.7-5-5
		c0-1.7-0.1-3.3-0.1-5c0-47.7,0-95.3,0-143c0-9.8,0.2-10,10.2-10c3,0,6,0.1,9,0c4.9-0.2,6.9,1.9,6.9,6.8c-0.1,15.3,0,30.7,0,46
		C935,740.5,935,750.1,935,759.8z"/>
	<path fill="none" d="M1067,759.5c0,24.3,0,48.7,0,73c0,7.8-0.7,8.5-8.6,8.5c-4,0-8,0-12-0.1c-3.4,0-5.3-1.7-5.3-5.2
		c0-1.3-0.1-2.7-0.1-4c0-48.2,0-96.3,0-144.5c0-8.8,0.5-9.2,9.4-9.3c2.8,0,5.7,0,8.5,0c7.3,0.1,8.1,0.8,8.1,8c0,20.8,0,41.7,0,62.5
		C1067,752.2,1067,755.8,1067,759.5z"/>
</g>
</svg>
