<?xml version="1.0" encoding="utf-8"?>
<!-- Generator: Adobe Illustrator 18.1.1, SVG Export Plug-In . SVG Version: 6.00 Build 0)  -->
<!DOCTYPE svg PUBLIC "-//W3C//DTD SVG 1.1//EN" "http://www.w3.org/Graphics/SVG/1.1/DTD/svg11.dtd">
<svg version="1.1" xmlns="http://www.w3.org/2000/svg" xmlns:xlink="http://www.w3.org/1999/xlink" x="0px" y="0px"
	 viewBox="0 0 682 406" enable-background="new 0 0 682 406" xml:space="preserve">
<g id="Logo_1_White_Reverse_Alternate">
	<g display="none">
		
			<image display="inline" overflow="visible" opacity="0.75" width="2937" height="1802" xlink:href="942ACFEEA21CF1B5.png"  transform="matrix(0.24 0 0 0.24 -784.1812 -13.9912)">
		</image>
		<g display="inline">
			<rect x="-777.6" y="-3.6" fill="#404040" width="682" height="409.6"/>
		</g>
	</g>
	<g>
		
			<image overflow="visible" opacity="0.75" width="2963" height="622" xlink:href="942ACFEEA21CF1B7.png"  transform="matrix(0.24 0 0 0.24 -782.2935 285.6003)">
		</image>
		<g>
			<text transform="matrix(1 0 0 1 -770.5681 389.957)"><tspan x="0" y="0" fill="#FFFFFF" font-family="'Raleway-Medium'" font-size="100.5041">Venture</tspan><tspan x="377.5" y="0" fill="#F28D1A" font-family="'Raleway-Bold'" font-size="100.5041">Storm</tspan></text>
		</g>
	</g>
	<g>
		
			<image overflow="visible" opacity="0.75" width="1240" height="1292" xlink:href="942ACFEEA21CF1B2.png"  transform="matrix(0.24 0 0 0.24 -576.4203 -5.8087)">
		</image>
		<g>
			<g>
				<path fill="#F28D1A" d="M-449.7,233.3c-9.5,30.7,0.3,49-13.3,49c-1.4,0-2.6-0.3-3.8-0.9l0,0c-21.4-11.5-42.8-32.3-50.5-57.1
					c6.2,2.2,12.6,3.8,19.1,4.9c6.3,12.4,16.8,23.2,27.7,31.1c0.7-9.9,2.2-18.9,4.3-27.1C-460.6,233.8-455.2,233.8-449.7,233.3
					L-449.7,233.3z M-336.4,31.4c1.4,3.4,2.7,6.8,3.8,10.1c2.4,7.3,4.4,17.5,4.7,25.1l-4,3c-3.5,2.6-7.8,4.9-12.3,6.8
					c0.7-7,0.4-14.5-1.4-22.5c-2.7,2.1-23.8,15.7-27.1,5.3c-2.6-8.4,8.8-7.4,18.5-13.8c2.4-1.6,5.5-4.2,4.2-5.6
					c-14-7.4-58.1-11.7-100.7-11.4c-22,0.2-43.3,1.7-59.8,4.7c-14.2,2.6-24,5.7-26,9.4c0,4.1,9,8.5,23.5,12.4
					c28.5,7.7,69.7,9.1,103,5.3c7.8-0.9,9.2,10.9,1.4,11.8C-443,76-484.4,74.6-514.2,67c13.5,9.4,28.2,19.3,35.2,35.3
					c3.7,8.3,4.9,17.2,3.8,26.2c-1.6,14.1-7.5,24.1-14.6,36c-4.5-1.7-9.5-3.9-14.7-6.2c3-5.1,6.2-10.3,8.8-15.7
					c3.9-8.2,6.3-17.2,4.5-26.3c-1.5-7.7-5.7-14.4-11.1-20c-4.3-4.5-9.2-7.9-14.2-11.5c-15.7-11.2-33.4-21.3-35.9-40.2
					c-4-30.5,77.9-31.8,101.6-32C-408.2,12.3-342,17.9-336.4,31.4L-336.4,31.4z M-408.5,178.4c-8.4-0.1-14.9-0.7-22.9-1.9
					c22.2-20.2,53.1-37.7,72.1-63.7l1.2-0.3c7.5-2,14.8-4.5,21.9-7.4c-3.6,7.4-8.1,14.3-13.3,20.8c-6.5,8.1-13.6,15.2-21.3,22.1
					c-4.2,3.7-8.6,7.4-13,11C-391.9,165.5-400.3,171.8-408.5,178.4L-408.5,178.4z"/>
				<g>
					<g>
						<path fill="#FFFFFF" d="M-515,159c-1.5,0.5-3,1.1-4.4,1.7c13.4,7.3,27.5,12.6,42.2,16.9c10,2.9,20.5,5.2,30.8,6.9
							c17,3,36.7,4.2,54.1,2.5c0.5-3.6,0-6.5-1.4-9.1l9.4-7.3c2.8,4.3,4.5,9.2,4.3,14.6c31.5-6.1,37.9-20.4,22.1-37.1
							c2.9-2.8,5.7-5.6,8.3-8.5c24.6,26,10.6,52.1-35,58.4c-9.5,13.6-30.4,20.8-49.7,23.9c-18.7,3-37.8,2.7-56.5-0.5
							c-13.1-2.3-21.6-4.4-33.8-10.3c-24.4-12-36-32.6-17-50.5c-39.6-29.7-25.5-59.7,21.5-67.5l1.3,0.9c3.9,2.7,8,5.9,11.3,9.6
							c-18,1.6-41.9,6.7-44.7,20.2c-1.9,8.8,6.2,19.4,20.9,29.6c6.8-3.8,15.2-6.9,24.9-9.2c-1.6,2.8-3.2,5.6-4.8,8.4L-515,159
							L-515,159z M-466.9,133.4c8.8,7,23.2,12.9,34.5,10.6c7.6-1.5,15.2,14.8-10,12.1c-9.6-1-19.5-4.8-27.8-10.4
							C-468.7,141.7-467.6,137.5-466.9,133.4L-466.9,133.4z M-320.7,65.8c0.8,2.9-1.1,6.8-3.3,8.7c-10.2,9.1-27.3,14.6-40.8,18.2
							c-28.9,7.8-66.3,11.4-92.3,5.5c-7.6-1.7-10.3,9.9-2.6,11.6c30.1,6.8,73.4,1.9,103.7-7.2c12-3.6,23.6-8.3,34.3-14.9
							c15.6-10.5,19.4-24.4,6.1-34c-2.6-1.8-3.7-2.7-7.6-4.1C-321.4,55.2-321,59.6-320.7,65.8L-320.7,65.8z M-512.2,203.6
							c5.7,2.2,11.7,3.9,17.8,5.1c8.7,1.8,18.2,3,28.2,3.3c21.1,0.2,44-2.4,62.4-12.4c-8.5,0.2-17.5-0.1-27-1.1
							c-0.6,0.7-1.1,1.4-1.7,2.1c-6.8,1.6-13.7,2.6-20.7,2.7l4.2-7.2c-17.5-2.9-34.7-7.5-50.4-13.4c-1.9,4.6-3.5,9.3-4.3,14.5
							c-5.2-1.7-10.2-3.8-15-6.4c1.1-5.1,2.7-9.8,4.6-14.2c-6.2-2.9-12-5.9-17.2-9.1c-9,7.1-9.4,14.3-4.6,20.8
							C-530.7,195.4-520.3,200.4-512.2,203.6L-512.2,203.6z"/>
					</g>
				</g>
			</g>
		</g>
	</g>
</g>
<g id="Logo_1_White">
	<rect x="3.6" y="-30.7" display="none" fill="#FFFFFF" width="682" height="459"/>
	<text transform="matrix(1 0 0 1 6.9995 384.8514)"><tspan x="0" y="0" fill="#2B2B2B" font-family="'Raleway-Medium'" font-size="100.8736">Venture</tspan><tspan x="378.9" y="0" fill="#F28D1A" font-family="'Raleway-Bold'" font-size="100.8736">Storm</tspan></text>
	<g>
		<path fill="#F28D1A" d="M328.1,234.4c-9.5,30.7,0.3,49-13.3,49c-1.4,0-2.6-0.3-3.8-0.9l0,0c-21.4-11.6-42.8-32.4-50.5-57.1
			c6.2,2.2,12.6,3.8,19.1,4.9c6.3,12.4,16.8,23.2,27.7,31.2c0.7-10,2.2-18.9,4.3-27.1C317.2,234.9,322.7,234.9,328.1,234.4
			L328.1,234.4z M441.6,32.3c1.4,3.4,2.7,6.8,3.8,10.1c2.4,7.3,4.4,17.5,4.7,25.2l-4,3c-3.5,2.6-7.8,4.9-12.3,6.9
			c0.7-7,0.4-14.5-1.4-22.5c-2.7,2.1-23.8,15.8-27.1,5.3c-2.6-8.4,8.8-7.4,18.5-13.8c2.4-1.6,5.5-4.2,4.2-5.6
			c-14-7.4-58.2-11.7-100.8-11.4c-22,0.2-43.4,1.7-59.9,4.7c-14.2,2.6-24.1,5.7-26,9.4c0,4.1,9,8.5,23.6,12.4
			c28.6,7.7,69.8,9.1,103.1,5.3c7.8-0.9,9.2,11,1.4,11.9c-34.3,3.9-75.7,2.5-105.6-5.1c13.6,9.4,28.2,19.3,35.3,35.3
			c3.7,8.3,4.9,17.2,3.9,26.3c-1.6,14.1-7.5,24.1-14.6,36c-4.6-1.7-9.5-3.9-14.8-6.2c3-5.1,6.2-10.3,8.8-15.7
			c3.9-8.2,6.3-17.2,4.5-26.4c-1.5-7.7-5.7-14.4-11.1-20c-4.3-4.5-9.2-7.9-14.2-11.5c-15.7-11.2-33.4-21.3-35.9-40.2
			c-4-30.6,78-31.8,101.7-32C369.7,13.2,436,18.8,441.6,32.3L441.6,32.3z M369.4,179.4c-8.4-0.1-14.9-0.7-22.9-1.9
			c22.2-20.2,53.1-37.7,72.2-63.8l1.2-0.3c7.5-2,14.8-4.5,22-7.4c-3.6,7.4-8.1,14.3-13.3,20.8c-6.5,8.1-13.6,15.2-21.3,22.1
			c-4.2,3.8-8.6,7.4-13,11C386,166.5,377.6,172.8,369.4,179.4L369.4,179.4z"/>
		<path fill="#2B2B2B" d="M262.8,160c-1.5,0.5-3,1.1-4.4,1.7c13.4,7.3,27.5,12.7,42.2,16.9c10,2.9,20.5,5.2,30.9,7
			c17,3,36.7,4.2,54.1,2.5c0.5-3.6,0-6.5-1.4-9.1l9.4-7.3c2.8,4.3,4.5,9.2,4.3,14.7c31.5-6.1,37.9-20.4,22.1-37.1
			c2.9-2.8,5.7-5.6,8.3-8.5c24.6,26,10.6,52.1-35,58.5c-9.5,13.7-30.5,20.8-49.8,23.9c-18.7,3-37.8,2.7-56.6-0.5
			c-13.1-2.3-21.6-4.4-33.8-10.4c-24.4-12-36.1-32.6-17-50.5c-39.6-29.7-25.5-59.8,21.5-67.6l1.3,0.9c3.9,2.7,8,5.9,11.3,9.6
			c-18.1,1.6-41.9,6.7-44.8,20.2c-1.9,8.8,6.2,19.5,20.9,29.6c6.8-3.8,15.2-6.9,24.9-9.2c-1.6,2.8-3.2,5.6-4.8,8.4L262.8,160
			L262.8,160z M311,134.4c8.8,7,23.2,12.9,34.6,10.6c7.6-1.5,15.2,14.8-10,12.1c-9.6-1-19.5-4.8-27.8-10.4
			C309.2,142.7,310.3,138.5,311,134.4L311,134.4z M457.3,66.8c0.8,2.9-1.1,6.8-3.3,8.7c-10.2,9.1-27.3,14.6-40.9,18.3
			c-28.9,7.8-66.4,11.4-92.4,5.5c-7.6-1.7-10.3,9.9-2.6,11.6c30.1,6.8,73.4,1.9,103.8-7.2c12-3.6,23.6-8.3,34.4-14.9
			c15.6-10.5,19.4-24.5,6.1-34c-2.6-1.8-3.7-2.7-7.6-4.2C456.6,56.1,456.9,60.5,457.3,66.8L457.3,66.8z M265.6,204.7
			c5.8,2.2,11.7,3.9,17.8,5.1c8.7,1.8,18.2,3,28.3,3.3c21.1,0.2,44.1-2.4,62.5-12.4c-8.5,0.2-17.6-0.1-27-1.1
			c-0.6,0.7-1.1,1.4-1.7,2.1c-6.8,1.6-13.7,2.6-20.8,2.7l4.2-7.2c-17.5-2.9-34.8-7.5-50.5-13.4c-2,4.6-3.5,9.4-4.3,14.5
			c-5.2-1.7-10.2-3.8-15-6.4c1.1-5.1,2.7-9.8,4.6-14.2c-6.2-2.9-12-5.9-17.2-9.1c-9,7.1-9.4,14.3-4.6,20.8
			C247.1,196.4,257.5,201.5,265.6,204.7L265.6,204.7z"/>
	</g>
</g>
</svg>
