<?xml version="1.0" encoding="utf-8"?>
<!-- Generator: Adobe Illustrator 18.1.1, SVG Export Plug-In . SVG Version: 6.00 Build 0)  -->
<svg version="1.1" id="Layer_1" xmlns="http://www.w3.org/2000/svg" xmlns:xlink="http://www.w3.org/1999/xlink" x="0px" y="0px"
	 viewBox="-177 374.7 201 46.3" enable-background="new -177 374.7 201 46.3" xml:space="preserve">
<g id="guides">
</g>
<g id="Layer_2">
	<g>
		<g>
			<g>
				<g>
					<circle fill="#FFFFFF" cx="-151.2" cy="396.8" r="12.6"/>
				</g>
				<path fill="#FFD420" d="M-138.5,396.6c0,0.1-0.2,0.2-0.5,0.4c0,0,0,0,0,0c-0.3,0.2-0.8,0.3-1.4,0.5c-0.6,0.2-1.3,0.3-2.1,0.4
					c-0.8,0.1-1.7,0.2-2.7,0.3c0,0,0,0,0,0c-1.2,0.1-2,0.2-3,0.2c-1,0-2.1,0.1-3.2,0.1c0,0.1,0,0.3,0,0.4c0,1,0,1.9,0,2.8
					c0,4.9,0,4.9,0.2,7.8c7,0,12.6-5.7,12.6-12.6C-138.5,396.8-138.5,396.7-138.5,396.6z"/>
				<path fill="#231F20" d="M-146.5,408.2L-146.5,408.2L-146.5,408.2z"/>
				<g>
					<path fill="#231F20" d="M-151.4,398.9c0,1,0,1.9,0,2.8c2,1.9,2,1.9,2.9,2.8c0.2-1.6,0.3-3.5,0.3-5.6c0-0.1,0-0.3,0-0.4
						c-1.3,0.1-2.1,0.1-3.2,0.1C-151.4,398.6-151.4,398.7-151.4,398.9z"/>
					<path fill="#231F20" d="M-146.7,406.6c-0.4-0.7-0.8-1.2-1.8-2.2c-0.4,3.1-1.2,5-2.1,5c0.1,0,0.2,0,0.3,0c0.1,0,0.2,0,0.3,0
						C-148.7,409.3-147.6,408.3-146.7,406.6z"/>
					<path fill="#231F20" d="M-145.3,401.4c0,0-0.7,3.8-1.4,5.2c0.4,0.8,0.4,1.1,0.3,1.6c1.2-0.9,2.2-2.3,2.9-4.1
						C-144,403.2-144.3,402.7-145.3,401.4z"/>
					<path fill="#231F20" d="M-148.9,409.3c0.3,0,0.3-0.1,0.8-0.2l0.3-0.1c0.9-0.3,1.1-0.4,1.4-0.9c-0.8,0.6-1.7,1-2.7,1.2
						L-148.9,409.3z"/>
					<path fill="#231F20" d="M-143.3,406.2c1.8-2.1,2.9-5,2.9-8.3c0-0.1,0-0.3,0-0.4c-0.6,0.2-1.3,0.3-2.1,0.4c0,0.1,0,0.3,0,0.4
						c0,2.2-0.4,4.1-1,5.8C-143.1,405.1-143.1,405.5-143.3,406.2z"/>
					<path fill="#231F20" d="M-145.1,398.2c-1.2,0.1-2,0.2-3,0.2c1.7,1.8,2.1,2.2,2.8,3.1c0.1-0.9,0.2-1.8,0.2-2.8
						C-145.1,398.5-145.1,398.3-145.1,398.2z"/>
				</g>
				<path fill="#231F20" d="M-153.9,384.8c0.7-0.3,1.4-0.6,2.7-0.7l0,0C-152.1,384.3-153.1,384.5-153.9,384.8"/>
				<g>
					<path fill="#E03A3E" d="M-142.7,397.9c-0.7-0.1-1.2-1.2-0.9-2.3c-0.9,0.6-2-0.7-1.8-1.9c0.1-0.6,0.5-1.2,1.2-1
						c-0.3-1-0.7-2-1.1-2.9c-0.7,0.1-1.4,0.2-2.1,0.2c0.7,1,0,2-0.9,1.8c-0.7-0.1-1.3-0.8-1.1-1.7c-0.6,0.4-1.7,0.2-1.8-1
						c0,2.6,0,5.9,0,9.3c3.4,0,7.3-0.3,8.9-0.6c0,0,0,0,0,0C-142.6,397.9-142.6,397.9-142.7,397.9z"/>
				</g>
				<g>
					<path fill="#E03A3E" d="M-159.3,400.4c0.9-0.4,2.1,1.3,1.7,2.3c-0.2,0.5-0.7,0.6-1.2,0.3c0.3,0.9,0.6,1.8,1.1,2.6
						c0.7,0.1,1.4,0.2,2.2,0.2c-0.7-0.8-0.1-1.5,0.7-1.4c0.8,0,1.7,0.7,1.5,1.5c0.7-0.3,1.8-0.1,2,0.8c0-1.9-0.1-4.7-0.1-8
						c0-0.1,0-0.3,0-0.4c-1.1,0-2.1,0-3.2-0.1c-2.3-0.1-3.8-0.2-5.8-0.6c0,0,0,0,0,0C-159.4,398.1-159.1,399.6-159.3,400.4z"/>
				</g>
				<path fill="#E03A3E" d="M-145.2,388.8L-145.2,388.8L-145.2,388.8C-145.2,388.8-145.2,388.8-145.2,388.8L-145.2,388.8
					C-145.2,388.8-145.2,388.8-145.2,388.8c0.1,0,0.3,0,0.4-0.1c0.7-0.1,2.4-0.5,2.4-1c0,0,0.6,0.6,1.1,1.5c0.1,0.1,0.1,0.2,0.1,0.3
					c0.1,0.2,0.1,0.3,0.1,0.4c0,0.3-0.2,0.3-0.4,0.2c0,0,0,0-0.1,0c-0.6-0.3-0.9-0.9-1-1.1c-0.3,0.1-0.9,0.3-1.3,0.4
					c-0.1,0-0.1,0-0.2,0c0.5,0.9,1,1.9,1.4,3c0.6-0.7,1.6,0.6,1.7,1.7c0,0.7-0.3,1.3-0.9,1.1c0.5,0.9,0.3,2.3-0.6,2.6
					C-142.6,394.8-143.2,392.1-145.2,388.8L-145.2,388.8L-145.2,388.8"/>
				<path fill="#E03A3E" d="M-145.2,388.8L-145.2,388.8L-145.2,388.8L-145.2,388.8L-145.2,388.8c-1.6-2.5-2.9-3.4-4.5-4
					c-0.3-0.1-1.4-0.6-1.5-0.6l0,0l0,0c0.3,0.4,0.9,0.7,1,0.7c0,0.2,0,0.5,0.5,0.8c0.1,0.1,0.2,0.1,0.2,0.1c0.8,0.4,1,0.1,1,0
					c0,0,0,0,0,0c0.3,0.2,0.7,0.6,1.3,1.2c0.3,0.4,0.6,0.7,0.8,1c-0.5,0.1-1.2,0.1-1.8,0.2c0-0.8-0.6-1.2-1-1.3
					c-0.8-0.3-1.1,0.6-0.7,1.3c-0.6-0.3-1.4,0-1.5,1C-148.8,389.1-147.1,389-145.2,388.8L-145.2,388.8L-145.2,388.8"/>
				<path fill="#E03A3E" d="M-145,386.5C-145,386.5-145,386.4-145,386.5c0-0.1,0-0.1,0-0.1s0,0,0.1-0.1c0.1-0.1,0.5-0.1,1.6,0.6
					c-2.2-1.7-4.6-2.4-6.6-2.6c-0.3,0-0.8-0.1-0.8-0.1c0.6,0.1,1.1,0.2,1.2,0.3c0.1,0,0.1,0.1,0.2,0.1c0,0,0,0,0,0
					c0.1,0,0.3,0,0.5,0.1c0.2,0.1,0.5,0.2,0.8,0.3c0.3,0.1,0.7,0.4,0.7,0.6c-0.1,0-0.1,0.1-0.3,0c0.7,0.5,1.8,1.5,2.5,2.3
					c0.4-0.1,1.1-0.2,1.4-0.3C-143.8,387.6-144.8,386.9-145,386.5z"/>
				<path fill="#E03A3E" d="M-157.9,406.4c-1.1-0.2-1.7-0.4-2.1-0.6c-0.1,0-0.1,0-0.1,0c0,0-0.6-0.6-1.2-1.3
					c-0.4-0.5-0.7-1.1-0.8-1.1c0,0,0.1,0,0.1,0c0.6,0.2,1.5,1.7,1.5,1.8c0.4,0.1,0.8,0.3,1.4,0.4c-0.5-0.8-1-1.7-1.3-2.6
					c-0.8,0.4-1.8-1.7-1.5-2.6c0.1-0.2,0.3-0.6,0.8-0.1c-0.4-0.9-0.3-2.3,0.7-2.3C-160.3,400.9-159.9,403.5-157.9,406.4"/>
				<path fill="#E03A3E" d="M-151.3,407c-0.1,0.4-0.7,0.9-1.6,0.5c0.4,0.5,0.1,1-0.7,0.9c-0.6-0.1-1.2-0.5-1.3-1
					c-0.7-0.1-1.3-0.1-1.9-0.2c0.5,0.6,1.1,1.1,1.8,1.5c0.1,0,0.2,0,0.6,0.1c0.5,0.2,0.9,0.4,1.4,0.6l-0.1,0
					c-0.4-0.1-0.5-0.1-0.7-0.1c-0.9-0.2-2.6-0.7-4.2-2.8l0,0l0,0l0,0c2,0.3,3.9,0.4,6.6,0.5C-151.3,406.9-151.3,407-151.3,407"/>
				<path fill="#FFD420" d="M-151.2,384.2c-6.8,0-12.5,5.5-12.6,12.4l0,0c0,0,0.1,0.1,0.3,0.3l0,0l0,0c0.3,0.2,0.7,0.3,1.2,0.5
					c0.6,0.2,1.3,0.3,1.9,0.4l0,0c1.9,0.3,3.5,0.5,5.8,0.6c1.1,0,2.2,0.1,3.2,0.1c0-0.6,0-4.3,0-7.9c0-0.5,0-0.9,0-1.4
					C-151.3,386.9-151.2,384.5-151.2,384.2L-151.2,384.2z"/>
				<path fill="#231F20" d="M-145.1,408c-0.7,0.4-0.9,0.4-1.8,0.8c-0.3,0.1-0.5,0.2-0.8,0.3c1.7-0.5,4-2.4,4.4-2.8
					c-0.2,0.5-0.4,0.8-0.9,1.2C-144.3,407.5-144.9,407.8-145.1,408z"/>
				<path fill="#231F20" d="M-162.3,397.4c-0.5-0.1-0.9-0.3-1.2-0.5c0.1-4.6,2.7-8.6,6.4-10.9c-0.9,0.8-1.3,1.2-1.7,2.3
					C-160.9,390.7-162.2,394-162.3,397.4"/>
				<path fill="#231F20" d="M-157.1,386.1c0.9-0.7,1.5-1.2,2.9-1.5c1-0.2,1.9-0.4,3-0.4l0,0C-153.3,384.3-155.3,385-157.1,386.1"/>
				<path fill="#231F20" d="M-157.8,398.2c-0.9-0.1-1.8-0.2-2.6-0.3c0.1-2.3,0.5-4.5,1.4-6.4c0.3,1.3,0.6,2,1.5,3.5
					C-157.6,395.9-157.7,397-157.8,398.2"/>
				<path fill="#231F20" d="M-151.3,389.2c0,1.4,0,2.8,0,3.9c0,1.1,0,1.9,0,2c-1.2-1.3-1.9-2-2.8-3.2c0.6-3.9,1.7-7,3-7.8l0,0l0,0
					C-151.2,384.6-151.3,386.8-151.3,389.2z"/>
				<g>
					<path fill="#231F20" d="M-155.8,389c-0.8,1.7-1.4,3.7-1.7,5.8c0.8,1.1,1.3,1.8,2.8,3.5c0-2.3,0.2-4.5,0.5-6.4
						C-155.1,390.7-155.4,390.1-155.8,389z"/>
				</g>
				<path fill="#231F20" d="M-139,397c0,0.1,0,0.3,0,0.4c0,4.5-2.2,8.2-5.6,10.2l-0.1,0.1c1.6-1,3.6-2.7,4.9-5.4
					c1.4-2.7,1.2-5.7,1.2-5.7C-138.6,396.7-138.8,396.8-139,397z"/>
				<g>
					<path fill="#231F20" d="M-153.9,384.8c-1.8,0.7-3.5,2-4.8,3.5c-0.4,1.1-0.4,1.8-0.2,3c0.8-1.9,2-3.6,3.3-4.8
						C-155.2,385.8-155,385.4-153.9,384.8z"/>
				</g>
				<path fill="#231F20" d="M-155.8,389c-0.2-1-0.2-1.6,0.1-2.5c1.3-1.2,2.8-2.1,4.5-2.4C-153,384.7-154.6,386.5-155.8,389"/>
				<path fill="#231F20" d="M-166.4,387.5L-166.4,387.5c-0.1,0.3,0,0.4,0.3,0.6l1,0.5c0.5,0.2,0.8,0.8,0.4,1.6
					c-0.4,0.7-1,0.9-1.5,0.6l-1.1-0.6c-0.2-0.1-0.3-0.1-0.4,0.2l-0.1,0l0.5-1l0.1,0l0,0c-0.1,0.2-0.1,0.3,0.1,0.4l1.1,0.5
					c0.5,0.3,1,0.1,1.3-0.5c0.2-0.4,0.3-1-0.4-1.3l-0.9-0.4c-0.4-0.2-0.5-0.2-0.6,0.2l-0.1,0L-166.4,387.5z"/>
				<path fill="#231F20" d="M-162,386.2l-3.2,0.2l1.4,1.2c0.2,0.2,0.3,0.2,0.6-0.1l0.1,0.1l-0.6,0.8l-0.1-0.1l0,0
					c0.2-0.2,0.2-0.3,0-0.4l-1.6-1.4c-0.1,0-0.2,0.1-0.3,0.2l-0.1-0.1l0.4-0.5l2.9-0.2l-1.3-1.1c-0.2-0.2-0.3-0.1-0.5,0.1l-0.1-0.1
					l0.6-0.8l0.1,0.1c-0.2,0.2-0.2,0.3-0.1,0.4L-162,386.2L-162,386.2z"/>
				<path fill="#231F20" d="M-160.5,384.8l-0.8,0.7l-0.1-0.1c0.2-0.2,0.2-0.3,0-0.5l-1.2-1.4c-0.1-0.2-0.3-0.2-0.4,0l-0.1-0.1
					l0.8-0.7l0.1,0.1c-0.2,0.2-0.2,0.3-0.1,0.5l1.2,1.4C-160.8,384.9-160.7,385-160.5,384.8L-160.5,384.8z"/>
				<path fill="#231F20" d="M-158.9,383.9l-2-1.5c-0.2-0.2-0.3-0.2-0.5-0.1l0-0.1l1-0.6l0,0.1c-0.3,0.2-0.4,0.3-0.2,0.5l1.6,1.3
					l-0.3-1.9c0-0.1,0-0.2-0.1-0.3c-0.1-0.1-0.2-0.1-0.4,0l0-0.1l0.9-0.5l0,0.1c-0.2,0.1-0.2,0.3-0.2,0.5l0.4,2.4L-158.9,383.9z"/>
				<path fill="#231F20" d="M-155.8,381.4L-155.8,381.4c-0.2-0.2-0.3-0.3-0.5-0.2l-0.7,0.2l0.3,0.9c0.1,0.2,0.1,0.2,0.3,0.1l0.6-0.2
					c0.3-0.1,0.3-0.2,0.3-0.6l0.1,0l0.1,0.6l-2.1,0.7l0-0.1l0.1,0c0.3-0.1,0.3-0.2,0.3-0.5l-0.6-1.7c-0.1-0.2-0.2-0.3-0.4-0.2
					l-0.1,0l0-0.1l1.9-0.7l0.2,0.5l-0.1,0c-0.2-0.3-0.3-0.4-0.4-0.3l-0.8,0.3l0.3,1l0.7-0.2c0.1-0.1,0.2-0.1,0.1-0.4l0.1,0
					L-155.8,381.4z"/>
				<path fill="#231F20" d="M-154.1,379.3c0.1,0,0.1,0,0.2,0c0.7-0.1,0.9,0.2,0.9,0.6c0.1,0.5-0.2,0.7-0.7,0.8c-0.1,0-0.2,0-0.3,0
					L-154.1,379.3z M-154,380.8c0.1,0,0.1,0,0.2,0c0.1,0,0.2,0,0.3,0c0.1,0.1,0.3,0.2,0.5,0.3l0.3,0.2c0.4,0.3,0.6,0.5,1.4,0.3
					l0-0.1c-0.3,0-0.6-0.1-0.9-0.3l-0.4-0.3c-0.2-0.2-0.4-0.3-0.5-0.4c0.3-0.1,0.5-0.4,0.5-0.8c-0.1-0.4-0.4-0.7-1.2-0.6
					c-0.3,0-0.4,0-0.5,0.1c-0.2,0-0.4,0.1-0.5,0.1l0,0.1l0.1,0c0.2,0,0.3,0,0.4,0.3l0.2,1.8c0,0.3,0,0.4-0.3,0.4l-0.1,0l0,0.1
					l1.2-0.1l0-0.1l-0.1,0c-0.2,0-0.3,0-0.4-0.3L-154,380.8z"/>
				<path fill="#231F20" d="M-150.7,381c0.1,0.4,0.3,0.6,0.7,0.7c0.3,0,0.6-0.1,0.6-0.5c0-0.6-1.3-0.9-1.2-1.6
					c0-0.4,0.4-0.6,0.8-0.6c0.4,0,0.4,0.1,0.6,0.2c0,0,0.1,0,0.1,0l0.1,0l0,0.5l-0.1,0c-0.1-0.3-0.4-0.5-0.6-0.6
					c-0.3,0-0.5,0.1-0.5,0.4c0,0.6,1.3,0.9,1.2,1.7c0,0.4-0.4,0.7-0.9,0.7c-0.2,0-0.5-0.2-0.6-0.2c0,0-0.1,0-0.1,0l-0.1,0
					L-150.7,381L-150.7,381z"/>
				<path fill="#231F20" d="M-147.4,382.1l-1-0.2l0-0.1c0.3,0,0.3,0,0.4-0.3l0.4-1.8c0-0.2,0-0.3-0.2-0.4l0-0.1l1,0.2l0,0.1
					c-0.3-0.1-0.4,0-0.4,0.3l-0.4,1.8C-147.7,381.9-147.7,382-147.4,382.1L-147.4,382.1z"/>
				<path fill="#231F20" d="M-145.3,382.4c-0.1,0.2,0,0.3,0.2,0.4l0.1,0.1l0,0.1l-1.2-0.5l0-0.1l0.1,0.1c0.2,0.1,0.3,0,0.4-0.2
					l0.8-2l-0.7-0.3c-0.2-0.1-0.3,0-0.5,0.3l-0.1,0l0.3-0.6l0.1,0c0,0,0,0,0,0.1c0,0,0,0,0.1,0l1.9,0.8c0.1,0,0.1,0,0.1,0l0.1,0
					l-0.2,0.7l-0.1,0c0.1-0.4,0-0.5-0.1-0.6l-0.7-0.3L-145.3,382.4z"/>
				<path fill="#231F20" d="M-140.9,382.7c0.2-0.1,0.2-0.2,0-0.4l0-0.1l0.8,0.5l0,0.1c-0.3-0.1-0.4-0.1-0.6,0l-1.3,0.6l-0.4,0.5
					c-0.1,0.2-0.1,0.3,0.1,0.5l0,0l0,0.1l-1-0.6l0-0.1l0.1,0c0.2,0.1,0.3,0.1,0.5-0.1l0.3-0.5l0-1.4c0-0.4,0-0.5-0.3-0.7l0-0.1
					l0.9,0.6l0,0.1c-0.3-0.2-0.3-0.1-0.3,0.1l0,1.3L-140.9,382.7z"/>
				<path fill="#231F20" d="M-137.4,387.8c-0.5,0.4-1.2,0.5-1.6-0.1c-0.4-0.5-0.3-1.3,0.3-1.8c0.4-0.3,1.1-0.5,1.6,0.1
					C-136.6,386.6-136.8,387.3-137.4,387.8z M-137.1,388c0.6-0.5,0.6-1.3,0.1-2c-0.5-0.7-1.4-0.9-2.1-0.4c-0.6,0.5-0.6,1.4-0.1,2
					C-138.6,388.4-137.7,388.5-137.1,388z"/>
				<path fill="#231F20" d="M-136.2,390.7L-136.2,390.7c0.2-0.2,0.2-0.3,0.1-0.5l-0.3-0.7l-0.8,0.4c-0.2,0.1-0.3,0.2-0.1,0.5l-0.1,0
					l-0.4-0.9l0.1,0c0.1,0.2,0.2,0.2,0.5,0.1l1.5-0.7c0.2-0.1,0.3-0.2,0.2-0.5l0.1,0l0.8,1.7l-0.5,0.2l0-0.1
					c0.2-0.1,0.3-0.2,0.2-0.5l-0.3-0.7l-0.9,0.4l0.4,0.8c0.1,0.1,0.2,0.2,0.4,0.1l0,0.1L-136.2,390.7z"/>
				<path fill="#231F20" d="M-166,407.3l1.5-2.8l0,0l-2.1,1.3c-0.2,0.1-0.2,0.4,0,0.6l-0.1,0.1l-0.7-0.9l0.1-0.1
					c0.2,0.3,0.3,0.3,0.7,0l1.8-1.1c0.3-0.2,0.4-0.3,0.2-0.5l0.1-0.1l0.5,0.7l-1.4,2.7l3-0.6l0.5,0.6l-0.1,0.1
					c-0.2-0.2-0.2-0.3-0.4-0.2l-1.9,1.6c-0.4,0.3-0.4,0.4-0.1,0.7l-0.1,0.1l-0.8-1.1l0.1-0.1c0.1,0.2,0.4,0.4,0.6,0.2l1.9-1.6l0,0
					l-3.1,0.6L-166,407.3z"/>
				<path fill="#231F20" d="M-160.6,410.3l-0.8-0.6l1.1-0.7L-160.6,410.3z M-160.7,410.5l-0.3,1c0,0.1,0,0.1-0.1,0.2
					c-0.1,0.1-0.2,0.1-0.5-0.1l-0.1-0.1l-0.1,0.1l1.2,0.9l0.1-0.1c-0.2-0.2-0.3-0.3-0.2-0.6l0.9-3.1l-0.4-0.3l0,0.1l-2.4,1.6
					c-0.4,0.3-0.5,0.3-0.8,0.1l-0.1,0.1l1,0.7l0.1-0.1l-0.1-0.1c-0.2-0.2-0.3-0.3-0.2-0.4c0-0.1,0.2-0.2,0.3-0.2l0.8-0.5
					L-160.7,410.5z"/>
				<path fill="#231F20" d="M-157.2,410.5c0.1,0,0.2,0,0.3,0.1c0.8,0.3,0.9,0.7,0.7,1.2c-0.2,0.6-0.7,0.7-1.2,0.5
					c-0.1,0-0.2-0.1-0.3-0.1L-157.2,410.5z M-157.8,412.2c0.1,0,0.1,0.1,0.3,0.1c0.1,0,0.2,0.1,0.4,0.1c0.1,0.1,0.2,0.3,0.4,0.6
					l0.2,0.5c0.3,0.6,0.5,0.9,1.4,1.2l0-0.1c-0.4-0.2-0.6-0.5-0.8-0.9l-0.3-0.5c-0.2-0.3-0.3-0.5-0.4-0.7c0.5,0,0.8-0.2,1-0.6
					c0.2-0.5-0.1-1.1-1.1-1.4c-0.3-0.1-0.4-0.1-0.7-0.2c-0.2-0.1-0.5-0.2-0.7-0.2l0,0.1l0.1,0c0.3,0.1,0.4,0.2,0.2,0.5l-0.8,2.2
					c-0.1,0.3-0.3,0.4-0.6,0.3l-0.1,0l0,0.1l1.5,0.5l0-0.1l-0.1,0c-0.3-0.1-0.4-0.2-0.3-0.5L-157.8,412.2z"/>
				<path fill="#231F20" d="M-151.6,412.1c0.2-0.3,0.1-0.4-0.2-0.4l0-0.1l1.2,0.1l0,0.1c-0.4,0-0.5,0.1-0.7,0.4l-1,1.4l-0.1,0.8
					c0,0.3,0.1,0.4,0.4,0.4l0.1,0l0,0.1l-1.5-0.1l0-0.1l0.1,0c0.3,0,0.4-0.1,0.5-0.4l0.1-0.8l-0.8-1.6c-0.2-0.4-0.3-0.5-0.7-0.6
					l0-0.1l1.4,0.1l0,0.1c-0.4,0-0.5,0.1-0.3,0.3l0.8,1.4L-151.6,412.1z"/>
				<path fill="#231F20" d="M-147.1,414.6l-2.4,0.4l0-0.1l0.2,0c0.2,0,0.3-0.1,0.3-0.4l-0.4-2.4c0-0.3-0.2-0.4-0.5-0.3l-0.1,0l0-0.1
					l1.6-0.3l0,0.1l-0.2,0c-0.3,0.1-0.4,0.1-0.4,0.4l0.4,2.5c0,0.1,0.1,0.2,0.2,0.2l0.8-0.1c0.3-0.1,0.4-0.2,0.7-0.7l0.1,0
					L-147.1,414.6z"/>
				<path fill="#231F20" d="M-144.5,411.9l-0.9,0.4l-0.1-1.3L-144.5,411.9z M-144.3,412l0.7,0.8c0,0,0.1,0.1,0.1,0.2
					c0.1,0.1,0,0.2-0.3,0.3l-0.1,0.1l0,0.1l1.4-0.6l0-0.1c-0.3,0.1-0.4,0.1-0.6-0.1l-2.2-2.4l-0.4,0.2l0.1,0.1l0.1,2.9
					c0,0.5,0,0.6-0.3,0.7l0,0.1l1.2-0.5l0-0.1l-0.1,0c-0.3,0.1-0.4,0.1-0.5,0c0-0.1,0-0.3,0-0.4l0-0.9L-144.3,412z"/>
				<path fill="#231F20" d="M-138.4,409.9l-4.1-0.5l1.5,1.8c0.2,0.3,0.4,0.3,0.7,0l0.1,0.1l-1,0.8l-0.1-0.1l0,0
					c0.3-0.2,0.3-0.4,0.1-0.6l-1.7-2.1c-0.2,0-0.3,0.1-0.4,0.2l-0.1-0.1l0.7-0.5l3.7,0.4l-1.4-1.7c-0.2-0.3-0.3-0.2-0.7,0l-0.1-0.1
					l1-0.8l0.1,0.1c-0.3,0.3-0.3,0.4-0.2,0.5l1.9,2.3L-138.4,409.9z"/>
				<path fill="#231F20" d="M-139.2,405.7c0-0.1,0.1-0.2,0.2-0.4c0.4-0.6,0.8-0.9,1.1-0.9c0.4-0.1,0.9,0.1,1.2,0.3
					c0.5,0.3,0.7,0.7,0.7,1c0.1,0.5,0,0.8-0.4,1.4c-0.2,0.4-0.3,0.3-0.5,0.2L-139.2,405.7z M-137.1,407.6c0.3,0.2,0.3,0.3,0.1,0.6
					l-0.1,0.1l0.1,0.1l0.9-1.5c0.7-1.2,0.3-2.2-0.4-2.7c-0.8-0.5-1.7-0.3-2.5,0.9c-0.2,0.2-0.3,0.5-0.5,0.8
					c-0.2,0.3-0.3,0.5-0.4,0.7l0.1,0.1l0.1-0.1c0.2-0.3,0.3-0.3,0.6-0.1L-137.1,407.6z"/>
				<path fill="#231F20" d="M-168.6,395.8v2.3c0,0.1,0,0.2,0.1,0.2h0.2v0.1h-1v-0.1h0.2c0.1,0,0.2,0,0.2-0.2v-2
					c-0.1,0.1-0.4,0.3-0.5,0.3l0-0.1c0.2-0.2,0.6-0.5,0.7-0.6L-168.6,395.8L-168.6,395.8z"/>
				<path fill="#231F20" d="M-166.3,397.8c0,0.3-0.2,0.6-0.5,0.6c-0.3,0-0.5-0.3-0.5-0.6c0-0.3,0.1-0.5,0.4-0.6
					C-166.5,397.3-166.3,397.5-166.3,397.8z M-166.1,396.4c0-0.3-0.3-0.6-0.7-0.6c-0.4,0-0.7,0.3-0.7,0.7c0,0.3,0.2,0.5,0.5,0.6
					c-0.4,0.2-0.6,0.4-0.6,0.7c0,0.4,0.3,0.7,0.8,0.7c0.4,0,0.8-0.3,0.8-0.7c0-0.3-0.2-0.5-0.6-0.7
					C-166.3,396.8-166.1,396.6-166.1,396.4z M-166.4,396.4c0,0.2-0.1,0.4-0.3,0.6c-0.5-0.2-0.6-0.4-0.6-0.6c0-0.3,0.2-0.5,0.5-0.5
					C-166.6,395.9-166.4,396.1-166.4,396.4z"/>
				<path fill="#231F20" d="M-136.2,396.1h1c0.1,0,0.1,0,0.1-0.1h0.1l0,0.3h-1l0,0.7c0.1-0.1,0.3-0.1,0.4-0.1c0.5,0,0.8,0.4,0.8,0.8
					c0,0.5-0.4,0.9-0.9,0.9c-0.3,0-0.6-0.1-0.6-0.3c0-0.1,0.1-0.1,0.1-0.1c0.2,0,0.3,0.3,0.5,0.3c0.3,0,0.6-0.3,0.6-0.7
					c0-0.4-0.3-0.6-0.6-0.6c-0.1,0-0.3,0.1-0.4,0.2l0,0L-136.2,396.1z"/>
				<path fill="#231F20" d="M-133.2,397.9c0,0.5-0.2,0.7-0.5,0.7c-0.3,0-0.5-0.2-0.5-0.9c0-0.1,0-0.2,0-0.3c0.2-0.2,0.4-0.2,0.5-0.2
					C-133.4,397.2-133.2,397.4-133.2,397.9z M-133.2,396c-0.8,0.2-1.3,0.8-1.3,1.6c0,0.6,0.3,1,0.8,1c0.4,0,0.8-0.4,0.8-0.8
					c0-0.4-0.3-0.7-0.7-0.7c-0.2,0-0.4,0.1-0.6,0.2C-134.1,396.7-133.7,396.3-133.2,396L-133.2,396z"/>
			</g>
		</g>
		<path fill="#231F20" d="M-119.6,398.7h-3.7v-0.3c0.9,0,1.1-0.3,1.1-1.3v-6.4c0-0.8-0.3-1-1.1-1.1v-0.3h3.7v0.3
			c-1,0-1.3,0.2-1.3,1.2v6.4c0,0.9,0.2,1.2,1.3,1.2V398.7z"/>
		<path fill="#231F20" d="M-108.6,398.8l-7.8-8.2v6.5c0,1.1,0.2,1.3,1.5,1.3v0.3h-3.5v-0.3h0.1c0.9,0,1.2-0.3,1.2-1V390
			c-0.3-0.2-0.7-0.4-1.3-0.4v-0.3h2.4l7.1,7.4v-6c0-0.9-0.3-1.1-1.5-1.1v-0.3h3.5v0.3c-1.1,0-1.4,0.2-1.4,0.8v8.4L-108.6,398.8
			L-108.6,398.8z"/>
		<path fill="#231F20" d="M-97.5,398.8l-7.8-8.2v6.5c0,1.1,0.2,1.3,1.5,1.3v0.3h-3.5v-0.3h0.1c0.9,0,1.2-0.3,1.2-1V390
			c-0.3-0.2-0.7-0.4-1.3-0.4v-0.3h2.4l7.1,7.4v-6c0-0.9-0.3-1.1-1.5-1.1v-0.3h3.5v0.3c-1.1,0-1.4,0.2-1.4,0.8v8.4L-97.5,398.8
			L-97.5,398.8z"/>
		<path fill="#231F20" d="M-90,399c-3,0-5.5-1.9-5.5-4.7c0-3,2.3-5.1,5.5-5.1c2.9,0,5.3,1.9,5.3,4.7C-84.6,396.8-87,399-90,399z
			 M-90.3,389.5c-2.7,0-3.7,2.5-3.7,4.3c0,2.8,1.9,4.8,4.3,4.8c2.5,0,3.6-2.2,3.6-4.3C-86,391.5-87.8,389.5-90.3,389.5z"/>
		<path fill="#231F20" d="M-79.9,399l-3.3-8.2c-0.4-1-0.6-1.2-1.5-1.2v-0.3h4.2v0.3c-1.4,0-1.7,0.3-1.4,1l2.7,6.8l2.4-6.2
			c0.2-0.4,0.3-0.7,0.3-0.9c0-0.5-0.4-0.6-1.4-0.6v-0.3h3.5v0.3c-0.8,0-1.2,0.4-1.6,1.3l-3.1,8H-79.9z"/>
		<path fill="#231F20" d="M-73.5,394.6l-0.9,2.4c-0.1,0.3-0.3,0.7-0.3,1c0,0.4,0.4,0.6,1.2,0.6h0.2v0.3h-3.5v-0.3
			c1,0,1.1-0.2,1.6-1.5l2.7-7.5l-0.1-0.3h1.3l3.2,8.4c0.3,0.8,0.6,1,1.4,1v0.3h-4.2v-0.3h0.4c0.9,0,1.2-0.1,1.2-0.5
			c0-0.2-0.1-0.5-0.2-0.6l-1-2.7C-70.4,394.6-73.5,394.6-73.5,394.6z M-72,390.4l-1.3,3.5h2.6L-72,390.4z"/>
		<path fill="#231F20" d="M-62.9,397.4c0,0.8,0.3,1.1,1.2,1.1h0.6v0.3h-4.8v-0.3h0.6c0.9,0,1.2-0.3,1.2-1.1v-7.5h-2.6
			c-0.6,0-0.9,0.3-1.1,1.7h-0.3l0.2-2.4h0.3c0,0.1,0.1,0.2,0.2,0.2c0.1,0,0.2,0,0.3,0h7.3c0.2,0,0.4,0,0.5-0.2h0.3l0.2,2.4h-0.3
			c-0.2-1.3-0.5-1.7-1.1-1.7h-2.6L-62.9,397.4L-62.9,397.4z"/>
		<path fill="#231F20" d="M-54,398.7h-3.7v-0.3c0.9,0,1.1-0.3,1.1-1.3v-6.4c0-0.8-0.3-1-1.1-1.1v-0.3h3.7v0.3c-1,0-1.3,0.2-1.3,1.2
			v6.4c0,0.9,0.2,1.2,1.3,1.2V398.7z"/>
		<path fill="#231F20" d="M-47.9,399c-3,0-5.5-1.9-5.5-4.7c0-3,2.3-5.1,5.5-5.1c2.9,0,5.3,1.9,5.3,4.7
			C-42.5,396.8-44.9,399-47.9,399z M-48.2,389.5c-2.7,0-3.7,2.5-3.7,4.3c0,2.8,1.9,4.8,4.3,4.8c2.5,0,3.6-2.2,3.6-4.3
			C-43.9,391.5-45.7,389.5-48.2,389.5z"/>
		<path fill="#231F20" d="M-32.2,398.8l-7.8-8.2v6.5c0,1.1,0.2,1.3,1.5,1.3v0.3H-42v-0.3h0.1c0.9,0,1.2-0.3,1.2-1V390
			c-0.3-0.2-0.7-0.4-1.3-0.4v-0.3h2.4l7.1,7.4v-6c0-0.9-0.3-1.1-1.5-1.1v-0.3h3.5v0.3c-1.1,0-1.4,0.2-1.4,0.8v8.4L-32.2,398.8
			L-32.2,398.8z"/>
		<path fill="#231F20" d="M-120.6,379.2l1.7,4.6c0.2,0.6,0.2,0.7,0.9,0.7v0.2h-2.6v-0.2c0.4,0,0.8,0,0.8-0.4c0-0.2-0.1-0.4-0.2-0.7
			l-0.4-1h-1.8l-0.3,0.7c-0.1,0.2-0.2,0.6-0.2,0.9c0,0.4,0.4,0.4,0.8,0.5v0.2h-2.1v-0.2c0.6-0.1,0.7-0.3,1-1l1.5-3.9l-0.1-0.4
			L-120.6,379.2L-120.6,379.2z M-122,382h1.5l-0.7-2L-122,382z"/>
		<path fill="#231F20" d="M-111.1,380.7h-0.2c-0.2-0.5-0.7-1.3-1.9-1.3c-1.3,0-2,1.3-2,2.7c0,1.6,1,2.5,1.9,2.5
			c1.2,0,1.9-0.9,2.2-1.2h0.2c-0.2,0.5-0.3,0.7-0.7,1.4c-0.3,0-0.4,0-0.7,0c-0.7,0.1-0.8,0.1-1.1,0.1c-1.8,0-2.8-1.2-2.8-2.7
			c0-1.8,1.5-2.9,2.9-2.9c0.9,0,1.4,0.4,1.7,0.4c0.1,0,0.2,0,0.3-0.1h0.2L-111.1,380.7z"/>
		<path fill="#231F20" d="M-106.4,379.2l1.7,4.6c0.2,0.6,0.2,0.7,0.9,0.7v0.2h-2.6v-0.2c0.4,0,0.8,0,0.8-0.4c0-0.2-0.1-0.4-0.2-0.7
			l-0.4-1h-1.8l-0.3,0.7c-0.1,0.2-0.2,0.6-0.2,0.9c0,0.4,0.4,0.4,0.8,0.5v0.2h-2.1v-0.2c0.6-0.1,0.7-0.3,1-1l1.5-3.9l-0.1-0.4
			L-106.4,379.2L-106.4,379.2z M-107.8,382h1.5l-0.7-2L-107.8,382z"/>
		<path fill="#231F20" d="M-102,384.5c0.8,0,1-0.1,1-0.8v-3.2c0-0.6-0.1-0.7-1-0.8v-0.2c0.9-0.1,1.9-0.1,2.7-0.1
			c0.7,0,3.4,0.1,3.4,2.6c0,1.6-1.3,2.4-2,2.6c-0.6,0.1-1.3,0.2-1.9,0.2h-2.1L-102,384.5L-102,384.5z M-100.2,383.8
			c0,0.2,0,0.3,0,0.4c0.1,0.1,0.5,0.2,0.7,0.2c2.2,0,2.5-1.6,2.5-2.5c0-0.5-0.1-1.7-1.2-2.1c-0.6-0.3-1.4-0.3-2.1-0.2V383.8z"/>
		<path fill="#231F20" d="M-92,381.8h1.3c0.4,0,0.6,0,0.6-0.7h0.2v1.7H-90c0-0.7-0.1-0.7-0.7-0.7H-92v1.8c0,0.5,0,0.5,0.6,0.5h0.9
			c0.6,0,0.8-0.1,1.1-1h0.2l-0.1,1.3h-4.4v-0.2c0.8,0,0.9-0.2,0.9-0.7v-3.5c0-0.6-0.2-0.7-0.9-0.7v-0.2h4.2l0,1.2h-0.2
			c-0.1-0.8-0.3-0.9-0.9-0.9H-92L-92,381.8L-92,381.8z"/>
		<path fill="#231F20" d="M-79.7,379.3v0.2c-0.6,0-0.8,0-0.8,0.4c0,0.1,0,0.4,0,0.7l0.2,2.9c0.1,0.7,0.1,1,0.9,0.9v0.2h-2.5v-0.2
			c0.5,0,0.9-0.1,0.9-0.5c0-0.1,0-0.4,0-0.6l-0.2-3.4l-2,4.6h-0.2l-2-4.6l-0.3,3.7c0,0.1,0,0.3,0,0.4c0,0.3,0.3,0.4,0.7,0.4v0.2
			h-2.1v-0.2c0.3,0,0.7,0,0.8-0.2c0.1-0.1,0.1-0.6,0.2-0.9l0.3-3.2c0-0.5,0-0.5-0.7-0.6v-0.2h1.8l1.7,4.1l1.8-4.1H-79.7z"/>
		<path fill="#231F20" d="M-75.1,379.3v0.2c-0.5,0-0.5,0-0.6,0.1c0,0-0.1,0.1-0.1,0.1c0,0.1,0.2,0.4,0.3,0.6l1.2,1.7l1-1.7
			c0.1-0.2,0.3-0.5,0.3-0.6c0-0.2-0.3-0.2-0.7-0.2v-0.2h2v0.2c-0.7,0-0.7,0.1-1.1,0.7l-1.3,2.3v1.1c0,0.7,0.1,0.9,0.6,0.9h0.3v0.2
			H-76v-0.2h0.3c0.7,0,0.7-0.1,0.7-0.8v-1.1l-1.6-2.4c-0.3-0.5-0.4-0.6-1.1-0.6v-0.2L-75.1,379.3L-75.1,379.3z"/>
		<path fill="#231F20" d="M-60.9,379.3v1.1h-0.2c-0.1-0.6-0.1-0.6-0.2-0.7c-0.1-0.1-0.2-0.1-0.6-0.1h-1.2v2.1h1.3
			c0.4,0,0.6-0.1,0.7-0.6h0.2v1.5h-0.2c0-0.6-0.2-0.6-0.6-0.6h-1.4v1.9c0,0.5,0,0.5,0.8,0.6v0.2h-2.4v-0.2c0.6-0.1,0.7-0.2,0.7-0.6
			v-3.5c0-0.6-0.1-0.7-0.7-0.7v-0.2C-64.7,379.3-60.9,379.3-60.9,379.3z"/>
		<path fill="#231F20" d="M-55.5,379.1c1.4,0,2.9,0.9,2.9,2.8c0,2.1-1.6,2.9-2.9,2.9c-1.3,0-2.9-0.8-2.9-2.9
			C-58.5,380.1-56.9,379.1-55.5,379.1z M-55.6,379.3c-1.3,0-1.9,1.2-1.9,2.5c0,1.3,0.3,1.9,0.7,2.2c0.4,0.4,0.8,0.5,1.3,0.5
			c0.9,0,2-0.7,2-2.7C-53.6,380.1-54.5,379.3-55.6,379.3z"/>
		<path fill="#231F20" d="M-45.4,383.8l-0.7-0.7c-0.4-0.4-0.7-0.6-1-0.9c0.4-0.1,1.1-0.4,1.1-1.4c0-1.3-1.3-1.5-2.4-1.5
			c-0.9,0-1.6,0.1-2.2,0.1v0.2c0.6,0,0.7,0,0.8,0.2c0.1,0.1,0.1,0.3,0.1,0.5v3.5c0,0.5-0.1,0.7-0.7,0.7h-0.2v0.2h2.7v-0.2h-0.4
			c-0.5,0-0.6-0.1-0.6-0.9v-1.2h0.8c0.2,0.1,0.6,0.5,1,0.9l0.6,0.6c0.8,0.8,1.1,1.1,2.6,1v-0.2C-44.4,384.6-44.9,384.3-45.4,383.8z
			 M-48.1,382.1h-0.6v-2.6c0.1,0,0.3,0,0.5,0c0.5,0,1.3,0.3,1.3,1.3C-46.8,381.8-47.5,382.1-48.1,382.1z"/>
		<g>
			<path fill="#231F20" d="M-15,391.9v0.3c-0.9,0-1.2,0.1-1.4,0.3c-0.3,0.3-1.2,2-2.5,3.6c0.9,1.4,1.2,2.4,2,2.4
				c0.3,0,0.7-0.2,1.3-0.6l0.1,0.3c-0.7,0.6-1.4,0.9-2,0.9c-1,0-1.3-0.4-2.2-2c-1.2,1.3-2.6,2-3.8,2c-1.5,0-2.7-1.2-2.7-2.7
				c0-1.4,0.8-2.2,2.9-3.1c-0.7-0.6-1.2-1.4-1.2-2.1c0-1.2,0.9-1.9,2.2-1.9c1.2,0,2.1,0.7,2.1,1.6c0,0.8-0.7,1.5-1.9,2.1
				c1.1,0.7,2.1,1.7,2.9,2.9c0.8-1,2.1-2.8,2.1-3.3c0-0.2-0.2-0.3-0.9-0.3v-0.3H-15z M-22.8,398.2c1,0,2.2-0.6,2.9-1.5
				c-0.7-1.2-1.8-2.3-3.1-3.3c-1.3,0.9-1.8,1.7-1.8,2.7C-24.8,397.4-24,398.2-22.8,398.2z M-22.3,389.5c-0.7,0-1.1,0.5-1.1,1.2
				c0,0.7,0.4,1.4,1.2,2c0.8-0.4,1.1-1,1.1-1.8C-21.1,390-21.6,389.5-22.3,389.5z"/>
		</g>
		<g>
			<path fill="#231F20" d="M-76.6,410.6c-0.4,1.3-0.7,1.7-1.8,1.7h-2.3c-0.6,0-0.8-0.1-0.8-0.8v-3.2h2.6c0.6,0,0.9,0.1,1,1.2h0.3
				v-2.9h-0.3c-0.1,0.9-0.3,1.1-0.9,1.1h-2.7V404h3.2c0.5,0,0.9,0.3,1.1,1.6h0.3l-0.1-2.1h-7.2v0.3h0.3c1,0,1.2,0.4,1.2,1.2v6.4
				c0,0.9-0.2,1.2-1.4,1.2c-0.5,0-1-0.3-1.7-1.4l-1.8-2.7c1.8-0.6,2-2,2-2.4c0-1.3-0.9-1.9-1.5-2.2c-0.6-0.3-1.3-0.5-2.5-0.5
				c-1.3,0-2.6,0.1-3.8,0.2v0.3c1.2,0,1.5,0.3,1.5,1v6.1c0,1.3,0,1.7-1.5,1.7v0.3h4.3v-0.3c-1.5,0-1.6-0.3-1.6-1.7v-2h2
				c0.2,0.2,1.1,1.6,1.3,1.9c1.3,2,2.3,2.1,3.4,2.1l0,0h7.6l0.2-2.3C-76.3,410.6-76.6,410.6-76.6,410.6z M-88.5,408.4
				c-0.5,0.2-1,0.2-1.7,0.2h-0.6v-5c0.8,0,1.8,0,2.5,0.3c1,0.5,1.2,1.5,1.2,2.1C-87.1,407-87.5,408.1-88.5,408.4z"/>
			<path fill="#231F20" d="M-51.4,410.6c-0.4,1.3-0.7,1.7-1.8,1.7h-2.3c-0.6,0-0.8-0.1-0.8-0.8v-3.2h2.6c0.6,0,0.9,0.1,1,1.2h0.3
				v-2.9h-0.3c-0.1,0.9-0.3,1.1-0.9,1.1h-2.7V404h3.2c0.5,0,0.9,0.3,1.1,1.6h0.3l-0.1-2.1h-7.2v0.3h0.3c1,0,1.2,0.4,1.2,1.2v6.4
				c0,0.9-0.2,1.2-1.4,1.2c-0.5,0-1-0.3-1.7-1.4l-1.8-2.7c1.8-0.6,2-2,2-2.4c0-1.3-0.9-1.9-1.5-2.2c-0.6-0.3-1.3-0.5-2.5-0.5
				c-1.3,0-2.6,0.1-3.8,0.2v0.3c1.2,0,1.5,0.3,1.5,1v6.1c0,1.3,0,1.7-1.5,1.7v0.3h4.3v-0.3c-1.5,0-1.6-0.3-1.6-1.7v-2h2
				c0.2,0.2,1.1,1.6,1.3,1.9c1.3,2,2.3,2.1,3.4,2.1l0,0h7.6l0.2-2.3C-51.1,410.6-51.4,410.6-51.4,410.6z M-63.3,408.4
				c-0.5,0.2-1,0.2-1.7,0.2h-0.6v-5c0.8,0,1.8,0,2.5,0.3c1,0.5,1.2,1.5,1.2,2.1C-61.9,407-62.3,408.1-63.3,408.4z"/>
			<g>
				<path fill="#231F20" d="M-10.3,412.8c-1.1,0-2.1,0-3.5-2.1c-0.2-0.3-1-1.7-1.3-1.9h-2v2c0,1.3,0.1,1.7,1.6,1.7v0.3h-4.3v-0.3
					c1.5,0,1.5-0.4,1.5-1.7v-6.1c0-0.8-0.2-1-1.5-1v-0.3c1.3-0.1,2.6-0.2,3.8-0.2c1.2,0,1.9,0.1,2.5,0.5c0.6,0.3,1.5,1,1.5,2.2
					c0,0.4-0.1,1.8-2,2.5l1.9,2.8c0.7,1.1,1.2,1.2,1.7,1.3L-10.3,412.8z M-17,408.6h0.6c0.7,0,1.1,0,1.7-0.2c1-0.3,1.4-1.5,1.4-2.4
					c0-0.6-0.2-1.7-1.2-2.2c-0.7-0.3-1.7-0.3-2.5-0.3L-17,408.6L-17,408.6z"/>
				<path fill="#231F20" d="M-10.3,410.5c0.3,1.3,1.4,2.1,2.6,2.1c1,0,2.1-0.6,2.1-1.8c0-2.2-4.9-2.8-4.9-5.5c0-1.3,1.2-2.2,2.7-2.2
					c1.3,0,1.5,0.4,2.1,0.4c0.1,0,0.2,0,0.3-0.2h0.2l0.3,1.9h-0.3c-0.4-1.1-1.4-1.8-2.4-1.8c-1,0-1.7,0.6-1.7,1.4
					c0,2.2,5.3,2.8,5.3,5.6c0,1.5-1.8,2.5-3.5,2.5c-0.8,0-1.9-0.4-2.1-0.4c-0.1,0-0.2,0.1-0.3,0.2h-0.3l-0.3-2.3L-10.3,410.5
					L-10.3,410.5z"/>
			</g>
			<path fill="#231F20" d="M-116.9,409.4h-0.3c-0.1-1.1-0.4-1.2-1-1.2h-2.6v3.2c0,0.7,0.3,0.8,0.8,0.8h2.3c1.1,0,1.4-0.4,1.8-1.7
				h0.3l-0.2,2.3h-8v-0.3h0.4c1.2,0,1.4-0.3,1.4-1.2v-6.4c0-0.8-0.2-1.2-1.2-1.2h-0.3v-0.3h7.2l0.1,2.1h-0.3
				c-0.2-1.3-0.6-1.6-1.1-1.6h-3.2v3.7h2.7c0.5,0,0.8-0.3,0.9-1.1h0.3V409.4z"/>
			<path fill="#231F20" d="M-105.5,412.9l-7.8-8.2v6.5c0,1.1,0.2,1.3,1.5,1.3v0.3h-3.5v-0.3h0.1c0.9,0,1.2-0.3,1.2-1v-7.4
				c-0.3-0.2-0.7-0.4-1.3-0.4v-0.3h2.4l7.1,7.4v-6c0-0.9-0.3-1.1-1.5-1.1v-0.3h3.5v0.3c-1.1,0-1.4,0.2-1.4,0.8v8.4L-105.5,412.9
				L-105.5,412.9z"/>
			<path fill="#231F20" d="M-98,411.4c0,0.8,0.3,1.1,1.2,1.1h0.6v0.3h-4.8v-0.3h0.6c0.9,0,1.2-0.3,1.2-1.1V404h-2.6
				c-0.6,0-0.9,0.3-1.1,1.7h-0.3l0.2-2.4h0.3c0,0.1,0.1,0.2,0.2,0.2c0.1,0,0.2,0,0.3,0h7.3c0.2,0,0.4,0,0.5-0.2h0.3l0.2,2.4h-0.3
				c-0.2-1.3-0.5-1.7-1.1-1.7H-98V411.4z"/>
			<path fill="#231F20" d="M-73.3,411.4c0,0.8,0.3,1.2,1.2,1.2h0.5v0.3h-4.2v-0.3h0.2c0.8,0,1-0.2,1-0.9v-7.1c0-0.6-0.2-0.8-0.7-0.8
				H-76v-0.3c0.4,0,1.2-0.1,1.9-0.1c0.7,0,1.5,0,1.9,0c3.2,0,3.9,1.5,3.9,2.7c0,1.8-1.4,2.9-3.7,2.9c-0.5,0-0.8,0-1.3-0.1
				C-73.3,408.7-73.3,411.4-73.3,411.4z M-73.3,408.5c0.2,0,0.5,0.1,0.8,0.1c1.6,0,2.7-1.1,2.7-2.6c0-1.2-0.5-2.3-2.5-2.3
				c-0.3,0-0.7,0-1,0.1L-73.3,408.5L-73.3,408.5z"/>
			<path fill="#231F20" d="M-40.9,412.9l-7.8-8.2v6.5c0,1.1,0.2,1.3,1.5,1.3v0.3h-3.5v-0.3h0.1c0.9,0,1.2-0.3,1.2-1v-7.4
				c-0.3-0.2-0.7-0.4-1.3-0.4v-0.3h2.4l7.1,7.4v-6c0-0.9-0.3-1.1-1.5-1.1v-0.3h3.5v0.3c-1.1,0-1.4,0.2-1.4,0.8v8.4L-40.9,412.9
				L-40.9,412.9z"/>
			<path fill="#231F20" d="M-32.7,409.4H-33c-0.1-1.1-0.4-1.2-1-1.2h-2.6v3.2c0,0.7,0.3,0.8,0.8,0.8h2.3c1.1,0,1.4-0.4,1.8-1.7h0.3
				l-0.2,2.3h-8v-0.3h0.4c1.2,0,1.4-0.3,1.4-1.2v-6.4c0-0.8-0.2-1.2-1.2-1.2h-0.3v-0.3h7.2l0.1,2.1h-0.3c-0.2-1.3-0.6-1.6-1.1-1.6
				h-3.2v3.7h2.7c0.5,0,0.8-0.3,0.9-1.1h0.3L-32.7,409.4L-32.7,409.4z"/>
			<path fill="#231F20" d="M-19.7,403.4v0.3c-1,0-1.4,0.4-1.4,1.4v4.1c0,1.9-1.2,3.9-4.5,3.9c-2.9,0-4.4-1.6-4.4-3.8v-4.4
				c0-1-0.3-1.1-1.3-1.1v-0.3h3.9v0.3h-0.1c-0.8,0-1.2,0.2-1.2,1.1v4.2c0,2,1.2,3.3,3.4,3.3c1.7,0,3.4-0.7,3.4-3.3v-3.5
				c0-1.4-0.2-1.7-1.5-1.8v-0.3C-23.3,403.4-19.7,403.4-19.7,403.4z"/>
			<path fill="#231F20" d="M-1.7,408.3v2.9c0,1,0.2,1.3,1.2,1.3h0v0.3h-3.8v-0.3h0.1c0.9,0,1.2-0.2,1.2-1.1v-6.6
				c0-0.8-0.3-1-1.1-1.1v-0.3h3.6v0.3c-1.1,0-1.3,0.3-1.3,1.5v2.6h5.9v-3c0-0.8-0.3-1.1-1.2-1.1H2.8v-0.3h3.9v0.3
				c-0.9,0-1.1,0.3-1.1,1.2v6.3c0,1.1,0.3,1.3,1.2,1.3h0.2v0.3H2.6v-0.3h0.5c1,0,1.2-0.3,1.2-1.1v-3.1L-1.7,408.3L-1.7,408.3z"/>
			<path fill="#231F20" d="M11.2,412.8H7.5v-0.3c0.9,0,1.1-0.3,1.1-1.3v-6.4c0-0.8-0.3-1-1.1-1.1v-0.3h3.7v0.3c-1,0-1.3,0.2-1.3,1.2
				v6.4c0,0.9,0.2,1.2,1.3,1.2V412.8z"/>
			<path fill="#231F20" d="M14.5,411.4c0,0.8,0.3,1.2,1.2,1.2h0.5v0.3H12v-0.3h0.2c0.8,0,1-0.2,1-0.9v-7.1c0-0.6-0.2-0.8-0.7-0.8
				h-0.8v-0.3c0.4,0,1.2-0.1,1.9-0.1c0.7,0,1.5,0,1.9,0c3.2,0,3.9,1.5,3.9,2.7c0,1.8-1.4,2.9-3.7,2.9c-0.5,0-0.8,0-1.3-0.1
				L14.5,411.4L14.5,411.4z M14.5,408.5c0.2,0,0.5,0.1,0.8,0.1c1.6,0,2.7-1.1,2.7-2.6c0-1.2-0.5-2.3-2.5-2.3c-0.3,0-0.7,0-1,0.1
				L14.5,408.5L14.5,408.5z"/>
		</g>
	</g>
</g>
</svg>
