<?xml version="1.0" encoding="utf-8"?>
<!-- Generator: Adobe Illustrator 16.0.3, SVG Export Plug-In . SVG Version: 6.00 Build 0)  -->
<!DOCTYPE svg PUBLIC "-//W3C//DTD SVG 1.1//EN" "http://www.w3.org/Graphics/SVG/1.1/DTD/svg11.dtd">
<svg version="1.1" xmlns="http://www.w3.org/2000/svg" xmlns:xlink="http://www.w3.org/1999/xlink" x="0px" y="0px" width="174px"
	 height="100px" viewBox="0 0 174 100" enable-background="new 0 0 174 100" xml:space="preserve">
<g id="guides">
</g>
<g id="Layer_2">
	<g>
		<g>
			<g>
				<g>
					<path d="M141.624,60.538l-3.811-3.916c-0.111-0.091-0.16-0.278-0.057-0.428l2.91-4.873c0.064-0.131,0.071-0.229,0.071-0.271
						c0-0.308-0.25-0.561-0.562-0.561h-2.13c-0.216,0-0.403,0.111-0.508,0.291l-1.843,3.168c-0.084,0.119-0.268,0.15-0.4,0.061
						l-2.977-3.048l-0.068-0.181l0.094-0.21l0.034-0.032c1.685-0.975,3.604-2.405,3.604-4.929c0-2.897-2.092-4.843-5.201-4.843
						c-3.049,0-5.359,2.03-5.359,5.058c0,1.335,0.561,2.66,1.711,4.06l0.027,0.031l0.059,0.206c-0.01,0.079-0.049,0.149-0.109,0.196
						c-2.533,1.433-3.813,3.331-3.813,5.654c0,3.938,3.313,6.001,6.589,6.001c2.246,0,4-0.858,5.689-2.788l0.031-0.043
						c0.104-0.098,0.288-0.098,0.402,0.019l2.047,2.106l0.053,0.057c0.11,0.106,0.254,0.161,0.4,0.161l2.512,0.004h0.197
						c0.313,0,0.566-0.254,0.566-0.563C141.784,60.782,141.724,60.642,141.624,60.538 M130.833,43.691
						c1.277,0,1.968,0.878,1.968,1.948c0,1.254-1.125,1.979-2.479,2.731l-0.068,0.032c-0.105,0.058-0.246,0.035-0.331-0.056
						l-0.03-0.03c-0.588-0.642-1.283-1.66-1.283-2.398C128.608,44.667,129.508,43.691,130.833,43.691 M133.563,57.066l-0.009,0.015
						c-0.984,1.165-2.063,1.943-3.637,1.943c-1.864,0-3.324-1.334-3.324-3.033c0-1.51,0.648-2.406,2.566-3.558
						c0.132-0.077,0.281-0.063,0.374,0.03l4.004,4.168c0.071,0.068,0.103,0.139,0.105,0.217l0.001,0.006L133.563,57.066z"/>
				</g>
				<g>
					<path d="M120.774,58.985l-0.121,0.003c-3.06,0-4.611-1.613-4.611-4.794v-9.373c0-0.161,0.134-0.295,0.299-0.295h4.799
						c0.313,0,0.568-0.256,0.568-0.566v-2.081c0-0.313-0.256-0.566-0.568-0.566h-4.784c-0.173,0-0.313-0.14-0.313-0.312v-4.306
						c0.012-0.304-0.234-0.57-0.547-0.585h-0.068l-2.451,0.19c-0.301,0-0.559,0.254-0.559,0.566v4.147
						c0,0.165-0.136,0.298-0.301,0.298l-3.01-0.005c-0.314,0-0.572,0.256-0.572,0.567l-0.006,2.094
						c0.006,0.156,0.068,0.297,0.179,0.398c0.113,0.106,0.258,0.161,0.41,0.159h3.001c0.166,0,0.3,0.134,0.3,0.295l-0.001,10.002
						c0,5.365,4.061,7.281,7.623,7.281c0,0,0.418,0.006,0.742-0.026c0.323-0.028,0.565-0.254,0.565-0.566V59.55
						C121.348,59.237,121.09,58.985,120.774,58.985"/>
				</g>
				<g>
					<path d="M107.043,60.677c-0.194-0.544-0.247-1.145-0.262-1.406c-0.012-0.193-0.019-0.982-0.019-0.982v-9.901
						c0-5.23-3.72-7.093-7.2-7.093c-2.757,0-5.267,0.719-6.886,1.793c-0.135,0.089-0.221,0.222-0.252,0.358
						c-0.03,0.146,0,0.293,0.082,0.417l1.281,1.725c0.184,0.246,0.531,0.303,0.782,0.123l0.172-0.112
						c1.266-0.782,2.759-1.231,4.281-1.231c4.292,0,4.165,3.344,4.165,3.777c0,0.224-0.134,0.278-0.295,0.273l-0.664-0.014
						c-3.331-0.122-11.784,1.008-11.784,7.674c0,3.915,3.284,5.914,6.341,5.914c2.967,0,5.352-1.172,6.542-2.604l0.013-0.017
						l0.061-0.031l0.078,0.076c-0.002,0.183,0,0.598,0.037,0.957c0.027,0.326,0.069,0.566,0.125,0.745
						c0.049,0.156,0.15,0.313,0.3,0.388c0.075,0.038,0.156,0.059,0.241,0.063l2.38,0.002c0.309,0,0.562-0.249,0.562-0.546
						C107.124,60.926,107.043,60.677,107.043,60.677 M103.343,52.923c-0.484,3.42-2.178,5.391-5.3,5.9
						c-2.198,0.359-4.188-0.541-4.297-2.883c-0.12-2.573,2.886-4.734,8.434-4.498c0,0,0.409,0.023,0.683,0.058
						c0.243,0.026,0.393,0.103,0.485,0.246C103.437,51.882,103.453,52.155,103.343,52.923"/>
				</g>
				<g>
					<path d="M153.063,58.985l-0.12,0.003c-3.06,0-4.613-1.613-4.613-4.794v-9.373c0-0.161,0.137-0.295,0.303-0.295h4.794
						c0.316,0,0.574-0.256,0.574-0.566v-2.081c0-0.313-0.258-0.566-0.574-0.566h-4.78c-0.176,0-0.316-0.14-0.316-0.312v-4.306
						c0.016-0.304-0.23-0.57-0.544-0.585h-0.067l-2.452,0.19c-0.302,0-0.56,0.254-0.56,0.566v4.147c0,0.165-0.136,0.298-0.299,0.298
						l-3.013-0.005c-0.313,0-0.57,0.256-0.57,0.567l-0.004,2.094c0.004,0.156,0.067,0.297,0.176,0.398
						c0.11,0.106,0.255,0.161,0.411,0.159h3.003c0.163,0,0.297,0.134,0.297,0.295v10.002c0,5.365,4.062,7.281,7.62,7.281
						c0,0,0.423,0.006,0.746-0.026c0.321-0.028,0.563-0.254,0.563-0.566V59.55C153.636,59.237,153.38,58.985,153.063,58.985"/>
				</g>
				<g>
					<path fill="#309DD2" d="M21.116,41.879c0.48-1.718,1.115-3.364,1.877-4.938c-0.342,0.806-0.525,1.701-0.525,2.986
						c0,7.312,15.881,14.522,35.353,9.233c7.582-2.066,18.927-6.02,18.927-12.083c0-0.304,0.131-0.995-0.879-2.734
						c1.262,2.043,2.276,4.239,3.025,6.572c0.357,1.215,0.307,2.074,0.307,2.401c0,1.489-1.867,10.586-20.129,12.242
						c-1.582,0.138-13.184,0.319-23.274-2.219c-6.715-1.688-13.452-4.956-14.727-9.493C20.872,43.141,20.965,42.487,21.116,41.879
						 M49.517,70.887c-3.805,0.419-25.911,1.417-29.127-16.042c0.453,2.789,1.29,5.44,2.461,7.91
						c1.383,2.494,4.834,5.905,9.821,7.96c25.927,10.653,41.874-2.03,44.946-8.333c1.236-2.713,2.077-5.636,2.459-8.706
						C79.71,56.009,77.32,67.817,49.517,70.887 M48.859,76.929c-4.593,0-14.583-0.737-21.083-6.816
						C33.293,76.185,41.274,80,50.149,80c11.549,0,21.588-6.46,26.651-15.952C75.227,66.77,68.29,76.929,48.859,76.929
						 M31.062,62.267c6.523,2.656,16.873,4.67,22.755,4.464c21.212-0.759,25.911-11.415,26.406-14.522
						c0.046-0.731,0.075-1.467,0.075-2.204c0-2.454-0.289-4.833-0.855-7.121c0.23,0.988,0.291,1.953,0.291,2.44
						c0,1.024,0.2,10.243-20.961,14.938c-12.679,2.813-18.034,2.724-26.757-0.007c-7.629-2.402-11.801-7.963-11.914-12.736
						C20.028,48.341,20,49.168,20,50.004c0,0.684,0.016,1.354,0.067,2.028C20.62,55.993,25.813,60.144,31.062,62.267 M40.914,42.184
						c3.177,0.402,11.587,1.544,18.097,1.012c13.146-1.079,16.063-5.648,16.063-8.612c0-0.813-0.441-1.997-0.886-2.688
						c-1.168-1.536-2.489-2.957-3.925-4.241c0.374,0.404,0.495,0.913,0.511,1.226c0.121,2.019-3.2,4.733-9.914,6.952
						c-4.187,1.383-9.731,2.704-16.601,2.704c-11.587,0-15.58-4.368-15.58-7.104c0-0.29-0.063-2.63,2.626-4.85
						c-2.458,1.953-4.599,4.286-6.331,6.91c-0.192,0.31-0.299,0.668-0.299,1.092C24.675,37.374,31.542,41,40.914,42.184
						 M32.282,27.319c0.217,3.001,8.219,5.364,17.873,5.121c9.656-0.25,17.052-3.008,17.052-6.018c0-0.857-0.649-1.634-1.796-2.295
						C60.937,21.505,55.719,20,50.149,20c-5.82,0-11.244,1.642-15.85,4.478C32.933,25.344,32.215,26.323,32.282,27.319"/>
				</g>
			</g>
		</g>
	</g>
</g>
</svg>
