<?xml version="1.0" encoding="utf-8"?>
<!-- Generator: Adobe Illustrator 16.0.3, SVG Export Plug-In . SVG Version: 6.00 Build 0)  -->
<!DOCTYPE svg PUBLIC "-//W3C//DTD SVG 1.1//EN" "http://www.w3.org/Graphics/SVG/1.1/DTD/svg11.dtd">
<svg version="1.1" xmlns="http://www.w3.org/2000/svg" xmlns:xlink="http://www.w3.org/1999/xlink" x="0px" y="0px" width="286px"
	 height="100px" viewBox="0 0 286 100" enable-background="new 0 0 286 100" xml:space="preserve">
<g id="guides">
</g>
<g id="Layer_2">
	<g>
		<g>
			<path d="M27.234,48.333h6.2c5.223,0,7.917,1.195,7.917,4.918c0,4.686-4.609,5.243-7.938,5.243h-6.18V48.333z M20.457,64.142
				h13.059c6.863,0,14.284-2.649,14.284-10.389c0-4.579-3.271-8.115-7.825-8.606v-0.102c3.743-1.109,6.291-4.058,6.291-8.089
				c0-6.494-5.633-8.956-11.119-8.956H20.457V64.142z M27.234,33.648h5.319c4.867,0,7.264,1.483,7.264,4.543
				c0,2.685-2.148,4.493-6.448,4.493h-6.135V33.648z"/>
		</g>
		<g>
			<rect x="50.951" y="28" width="6.777" height="36.142"/>
		</g>
		<g>
			<path d="M62.267,51.848c0,7.599,5.947,12.674,13.373,12.674c7.421,0,13.368-5.075,13.368-12.674
				c0-7.607-5.947-12.704-13.368-12.704C68.214,39.144,62.267,44.24,62.267,51.848z M68.417,51.848c0-3.788,2.71-7.259,7.223-7.259
				c4.498,0,7.219,3.471,7.219,7.259c0,3.764-2.721,7.233-7.219,7.233C71.127,59.081,68.417,55.611,68.417,51.848z"/>
		</g>
		<g>
			<path d="M91.778,51.848c0,7.599,5.946,12.674,13.362,12.674c7.421,0,13.363-5.075,13.363-12.674
				c0-7.607-5.942-12.704-13.363-12.704C97.725,39.144,91.778,44.24,91.778,51.848z M97.928,51.848c0-3.788,2.71-7.259,7.213-7.259
				c4.509,0,7.219,3.471,7.219,7.259c0,3.764-2.71,7.233-7.219,7.233C100.638,59.081,97.928,55.611,97.928,51.848z"/>
		</g>
		<g>
			<path d="M120.976,39.296h6.777v4.229h0.102c1.073-2.254,3.769-4.382,7.871-4.382c3.784,0,6.403,1.47,7.685,4.483
				c1.788-3.064,4.554-4.483,8.241-4.483c6.55,0,8.854,4.585,8.854,10.374v14.624h-6.777V50.45c0-3.024-0.607-5.861-4.245-5.861
				c-3.839,0-4.792,3.115-4.792,6.236v13.316h-6.772v-14.4c0-2.974-1.889-5.152-4.857-5.152c-4.042,0-5.309,2.913-5.309,6.145
				v13.408h-6.777V39.296z"/>
		</g>
		<g>
			<path d="M163.89,64.142h6.782v-3.389h0.102c1.799,2.913,5.521,4.225,8.956,4.225c7.578,0,12.132-5.987,12.132-13.13
				c0-7.157-4.873-12.704-11.884-12.704c-4.604,0-7.872,2.128-9.148,3.688h-0.157V28h-6.782V64.142z M185.712,51.848
				c0,3.764-2.71,7.233-7.214,7.233c-4.508,0-7.218-3.464-7.218-7.233c0-3.788,2.71-7.259,7.218-7.259
				C183.002,44.589,185.712,48.06,185.712,51.848z"/>
		</g>
		<g>
			<path d="M219.528,53.955v-1.661c0-8.398-4.665-13.15-11.529-13.15c-7.421,0-13.362,5.097-13.362,12.704
				c0,7.599,5.941,12.674,13.362,12.674c3.896,0,7.538-1.367,10.405-4.832l-4.407-3.272c-1.535,1.864-3.536,3.272-6.605,3.272
				c-3.435,0-6.205-2.163-6.61-5.734H219.528L219.528,53.955z M200.781,49.427c0.461-3.485,2.71-5.734,6.347-5.734
				c3.84,0,6.2,2.209,6.246,5.734H200.781z"/>
		</g>
		<g>
			<path d="M222.629,39.757h7.046v3.835h0.111c1.322-2.776,4.042-4.448,7.264-4.448c0.765,0,1.489,0.162,2.203,0.365v5.84
				c-1.018-0.258-2.001-0.455-2.979-0.455c-5.779,0-6.6,4.781-6.6,6.094v12.927h-7.046V39.757z"/>
		</g>
		<g>
			<path d="M259.895,39.296v3.622l0.273,0.471c-1.798-2.928-5.015-4.245-8.449-4.245c-7.577,0-12.142,5.547-12.142,12.704
				c0,6.839,4.868,12.37,12.243,12.37c3.075,0,6.18-1.155,7.974-3.521h0.101v1.758c0,4.792-1.839,8.115-7.78,8.115
				c-3.435,0-5.927-1.267-8.378-3.476l-3.698,4.929c3.48,3.029,7.071,3.977,11.625,3.977c9.574,0,13.88-5.531,13.88-14.239V39.296
				H259.895z M252.99,44.589c4.468,0,7.279,2.913,7.279,7.092c0,4.032-2.771,7.107-7.319,7.107c-4.144,0-7.224-3.177-7.224-7.006
				C245.727,47.502,248.695,44.589,252.99,44.589z"/>
		</g>
	</g>
</g>
</svg>
