<?xml version="1.0" encoding="utf-8"?>
<!-- Generator: Adobe Illustrator 16.0.3, SVG Export Plug-In . SVG Version: 6.00 Build 0)  -->
<!DOCTYPE svg PUBLIC "-//W3C//DTD SVG 1.1//EN" "http://www.w3.org/Graphics/SVG/1.1/DTD/svg11.dtd">
<svg version="1.1" xmlns="http://www.w3.org/2000/svg" xmlns:xlink="http://www.w3.org/1999/xlink" x="0px" y="0px" width="268px"
	 height="100px" viewBox="0 0 268 100" enable-background="new 0 0 268 100" xml:space="preserve">
<g id="guides">
</g>
<g id="Layer_2">
	<g>
		<path fill="#262626" d="M20,38h13.657c2.277,0,4.024,0.563,5.242,1.691c1.22,1.128,1.829,2.523,1.829,4.188
			c0,1.396-0.435,2.594-1.304,3.592c-0.581,0.665-1.429,1.191-2.546,1.578c1.697,0.408,2.944,1.108,3.745,2.102
			c0.8,0.993,1.2,2.242,1.2,3.746c0,1.224-0.284,2.324-0.854,3.301c-0.567,0.978-1.348,1.751-2.335,2.319
			c-0.612,0.354-1.536,0.612-2.77,0.773c-1.644,0.216-2.734,0.322-3.271,0.322H20V38z M27.361,47.261h3.172
			c1.137,0,1.931-0.194,2.375-0.586c0.445-0.392,0.669-0.96,0.669-1.699c0-0.688-0.224-1.224-0.669-1.61
			c-0.444-0.388-1.221-0.581-2.327-0.581h-3.22V47.261z M27.361,56.539h3.72c1.256,0,2.143-0.223,2.658-0.668
			c0.516-0.446,0.772-1.043,0.772-1.795c0-0.698-0.256-1.26-0.767-1.684c-0.509-0.424-1.403-0.637-2.682-0.637h-3.702V56.539z"/>
		<path fill="#262626" d="M44.4,53.108c0-2.608,0.881-4.76,2.642-6.451c1.763-1.69,4.141-2.536,7.137-2.536
			c3.426,0,6.013,0.994,7.764,2.98c1.406,1.599,2.108,3.57,2.108,5.911c0,2.631-0.871,4.786-2.616,6.467S57.275,62,54.194,62
			c-2.748,0-4.972-0.698-6.668-2.094C45.442,58.178,44.4,55.911,44.4,53.108z M50.973,53.093c0,1.524,0.31,2.652,0.927,3.382
			c0.617,0.731,1.393,1.096,2.327,1.096c0.945,0,1.721-0.359,2.327-1.079s0.91-1.874,0.91-3.463c0-1.48-0.307-2.586-0.918-3.31
			c-0.612-0.727-1.369-1.088-2.271-1.088c-0.956,0-1.745,0.368-2.367,1.103C51.283,50.471,50.973,51.589,50.973,53.093z"/>
		<path fill="#262626" d="M66.403,53.108c0-2.608,0.88-4.76,2.643-6.451c1.76-1.69,4.138-2.536,7.135-2.536
			c3.425,0,6.014,0.994,7.764,2.98c1.406,1.599,2.11,3.57,2.11,5.911c0,2.631-0.872,4.786-2.618,6.467
			C81.691,61.16,79.279,62,76.196,62c-2.749,0-4.972-0.698-6.669-2.094C67.444,58.178,66.403,55.911,66.403,53.108z M72.975,53.093
			c0,1.524,0.309,2.652,0.927,3.382c0.618,0.731,1.393,1.096,2.328,1.096c0.943,0,1.72-0.359,2.327-1.079
			c0.606-0.72,0.909-1.874,0.909-3.463c0-1.48-0.306-2.586-0.917-3.31c-0.613-0.727-1.37-1.088-2.271-1.088
			c-0.955,0-1.746,0.368-2.368,1.103C73.286,50.471,72.975,51.589,72.975,53.093z"/>
		<path fill="#262626" d="M89.212,38h6.7v12.188l4.896-5.68h8.069l-6.135,5.991l6.489,11.113h-7.387l-3.463-6.856l-2.47,2.411v4.445
			h-6.7V38z"/>
		<path fill="#E21E28" d="M111.68,38h7.298v8.263h7.974V38h7.328v23.613h-7.328v-9.551h-7.974v9.551h-7.298V38z"/>
		<path fill="#E21E28" d="M137.887,53.108c0-2.608,0.88-4.76,2.641-6.451c1.762-1.69,4.14-2.536,7.136-2.536
			c3.424,0,6.013,0.994,7.763,2.98c1.406,1.599,2.11,3.57,2.11,5.911c0,2.631-0.872,4.786-2.616,6.467
			C153.175,61.16,150.761,62,147.68,62c-2.75,0-4.972-0.698-6.668-2.094C138.928,58.178,137.887,55.911,137.887,53.108z
			 M144.458,53.093c0,1.524,0.308,2.652,0.926,3.382c0.617,0.731,1.394,1.096,2.328,1.096c0.944,0,1.72-0.359,2.327-1.079
			s0.91-1.874,0.91-3.463c0-1.48-0.307-2.586-0.918-3.31c-0.612-0.727-1.37-1.088-2.272-1.088c-0.955,0-1.744,0.368-2.366,1.103
			C144.77,50.471,144.458,51.589,144.458,53.093z"/>
		<path fill="#E21E28" d="M160.919,38h6.572v23.613h-6.572V38z"/>
		<path fill="#E21E28" d="M189.687,38v23.613h-6.137v-2.528c-0.859,1.073-1.644,1.798-2.353,2.174
			C180.254,61.752,179.2,62,178.041,62c-2.33,0-4.11-0.887-5.34-2.657c-1.23-1.772-1.843-3.926-1.843-6.46
			c0-2.835,0.678-5.003,2.036-6.507c1.358-1.503,3.084-2.255,5.179-2.255c1.02,0,1.947,0.172,2.777,0.516
			c0.833,0.344,1.571,0.858,2.215,1.546V38H189.687z M183.115,53.013c0-1.343-0.285-2.344-0.854-3.005s-1.289-0.99-2.158-0.99
			c-0.762,0-1.4,0.317-1.916,0.95c-0.516,0.634-0.773,1.697-0.773,3.188c0,1.396,0.266,2.419,0.797,3.069
			c0.532,0.649,1.189,0.975,1.975,0.975c0.837,0,1.534-0.328,2.093-0.982C182.835,55.563,183.115,54.493,183.115,53.013z"/>
		<path fill="#E21E28" d="M212.672,54.688h-13.144c0.117,1.052,0.403,1.836,0.854,2.352c0.633,0.741,1.461,1.111,2.48,1.111
			c0.645,0,1.257-0.161,1.837-0.483c0.353-0.204,0.733-0.563,1.143-1.08l6.46,0.596c-0.989,1.72-2.181,2.951-3.576,3.697
			c-1.396,0.747-3.399,1.12-6.009,1.12c-2.265,0-4.049-0.32-5.348-0.959c-1.298-0.638-2.375-1.653-3.229-3.044
			c-0.853-1.39-1.279-3.025-1.279-4.904c0-2.674,0.855-4.837,2.568-6.491c1.713-1.653,4.078-2.48,7.095-2.48
			c2.45,0,4.383,0.37,5.8,1.111c1.418,0.741,2.496,1.815,3.237,3.222s1.111,3.237,1.111,5.492V54.688z M206.004,51.548
			c-0.129-1.268-0.471-2.176-1.024-2.724c-0.553-0.548-1.279-0.82-2.182-0.82c-1.042,0-1.874,0.413-2.496,1.239
			c-0.397,0.516-0.65,1.283-0.757,2.305H206.004z"/>
		<path fill="#E21E28" d="M215.748,44.509h6.137v2.802c0.59-1.213,1.199-2.049,1.827-2.505c0.629-0.457,1.403-0.685,2.327-0.685
			c0.968,0,2.024,0.301,3.174,0.902l-2.03,4.67c-0.771-0.321-1.385-0.482-1.835-0.482c-0.86,0-1.525,0.354-1.998,1.063
			c-0.676,0.998-1.015,2.868-1.015,5.605v5.734h-6.587V44.509z"/>
		<path fill="#E21E28" d="M229.987,56.861l6.506-0.611c0.269,0.773,0.645,1.326,1.127,1.659c0.484,0.332,1.128,0.498,1.933,0.498
			c0.881,0,1.563-0.186,2.047-0.562c0.375-0.279,0.563-0.627,0.563-1.045c0-0.472-0.247-0.837-0.741-1.096
			c-0.354-0.181-1.295-0.407-2.819-0.675c-2.276-0.396-3.857-0.764-4.742-1.102c-0.887-0.337-1.633-0.91-2.239-1.715
			c-0.606-0.803-0.91-1.721-0.91-2.751c0-1.126,0.326-2.097,0.982-2.912c0.655-0.815,1.557-1.424,2.707-1.826
			c1.147-0.402,2.689-0.604,4.622-0.604c2.039,0,3.546,0.155,4.517,0.468c0.973,0.311,1.784,0.794,2.433,1.448
			c0.649,0.656,1.189,1.541,1.62,2.658l-6.22,0.613c-0.159-0.548-0.428-0.952-0.804-1.209c-0.516-0.344-1.14-0.515-1.868-0.515
			c-0.741,0-1.281,0.131-1.62,0.393c-0.337,0.263-0.506,0.582-0.506,0.958c0,0.418,0.214,0.733,0.644,0.948
			c0.431,0.215,1.363,0.407,2.803,0.579c2.18,0.247,3.802,0.591,4.864,1.03c1.063,0.439,1.876,1.066,2.44,1.882
			c0.563,0.815,0.847,1.711,0.847,2.688c0,0.987-0.299,1.947-0.896,2.88c-0.596,0.933-1.534,1.676-2.817,2.229
			c-1.283,0.551-3.031,0.828-5.242,0.828c-3.126,0-5.352-0.445-6.676-1.337C231.212,59.771,230.361,58.505,229.987,56.861z"/>
	</g>
</g>
</svg>
