<?xml version="1.0" encoding="UTF-8" ?>
<!DOCTYPE svg PUBLIC "-//W3C//DTD SVG 1.1//EN" "http://www.w3.org/Graphics/SVG/1.1/DTD/svg11.dtd">
<svg width="518pt" height="475pt" viewBox="0 0 518 475" version="1.1" xmlns="http://www.w3.org/2000/svg">
<path fill="#ffffff" d=" M 0.00 0.00 L 518.00 0.00 L 518.00 475.00 L 0.00 475.00 L 0.00 0.00 Z" />
<path fill="#030101" d=" M 10.52 201.33 C 20.08 198.13 29.48 194.48 39.04 191.29 C 41.66 190.51 44.32 191.70 46.93 191.98 C 61.96 194.16 76.96 196.53 91.95 198.96 C 93.66 199.29 95.83 199.79 96.31 201.75 C 95.87 202.30 94.99 203.42 94.55 203.98 C 94.44 207.67 94.45 211.36 94.54 215.05 C 94.63 216.44 96.69 217.37 95.94 218.79 C 94.69 220.36 93.09 221.59 91.64 222.96 C 94.65 224.24 98.46 224.71 100.18 227.86 C 103.58 232.03 102.45 238.96 97.72 241.67 C 95.03 242.76 92.24 243.58 89.52 244.61 C 92.39 245.35 95.92 245.16 97.74 247.96 C 97.19 248.45 96.10 249.42 95.56 249.90 C 95.49 253.89 95.43 257.89 95.61 261.88 C 96.37 262.99 98.25 264.19 96.73 265.54 C 89.14 272.39 81.38 279.06 73.72 285.83 C 71.95 287.70 69.04 287.15 66.86 286.38 C 48.05 279.39 29.13 272.67 10.28 265.75 C 7.47 264.95 5.39 262.60 4.51 259.88 C 3.02 255.92 5.30 251.74 8.16 249.07 C 10.20 247.90 12.54 247.39 14.72 246.56 C 12.58 244.55 9.76 242.97 8.76 240.05 C 9.25 239.80 10.23 239.29 10.72 239.04 C 10.79 234.67 11.13 230.31 10.71 225.94 C 10.19 225.68 9.16 225.15 8.64 224.89 C 9.53 222.24 12.43 222.02 14.73 221.39 C 11.26 220.06 6.90 219.68 4.80 216.21 C 0.50 211.18 4.39 202.60 10.52 201.33 Z" />
<path fill="#e72027" d=" M 15.28 203.38 C 23.85 200.00 32.43 196.62 41.09 193.48 C 53.73 195.64 66.40 197.61 79.07 199.55 C 82.02 200.13 85.43 199.64 87.87 201.75 C 80.74 207.73 72.56 212.26 64.85 217.44 C 48.35 212.68 31.75 208.27 15.28 203.38 Z" />
<path fill="#030101" d=" M 110.26 200.23 C 118.83 200.23 127.40 200.19 135.97 200.23 C 140.77 200.19 145.96 203.07 147.04 208.03 C 148.60 212.77 145.86 217.96 141.37 219.89 C 143.56 220.74 145.93 221.62 147.32 223.64 C 151.29 228.88 149.32 237.36 143.48 240.34 C 140.23 241.84 136.56 241.88 133.06 242.23 C 125.46 242.36 117.85 242.26 110.25 242.27 C 110.25 228.26 110.23 214.24 110.26 200.23 Z" />
<path fill="#030101" d=" M 232.51 200.22 C 236.61 200.22 240.71 200.22 244.81 200.22 C 245.09 207.11 244.50 214.02 245.20 220.89 C 247.76 217.78 250.41 214.74 253.06 211.70 C 258.01 211.67 262.95 211.64 267.90 211.72 C 264.26 215.27 260.71 218.92 257.04 222.44 C 260.80 229.09 264.78 235.62 268.58 242.26 C 264.00 242.30 259.44 242.30 254.87 242.26 C 252.89 238.30 250.91 234.34 248.92 230.38 C 247.61 231.78 245.82 232.85 244.96 234.61 C 244.73 237.16 244.90 239.72 244.83 242.28 C 240.72 242.29 236.61 242.30 232.50 242.27 C 232.50 228.25 232.48 214.24 232.51 200.22 Z" />
<path fill="#e72027" d=" M 272.25 200.22 C 276.72 200.20 281.18 200.19 285.65 200.24 C 285.70 205.04 285.69 209.84 285.66 214.64 C 290.11 214.67 294.55 214.84 299.00 214.64 C 299.59 209.88 299.07 205.02 299.25 200.23 C 303.74 200.20 308.24 200.18 312.74 200.24 C 312.78 214.26 312.80 228.27 312.73 242.29 C 308.23 242.30 303.74 242.30 299.25 242.28 C 299.24 236.66 299.21 231.03 299.28 225.40 C 294.74 225.33 290.20 225.34 285.66 225.41 C 285.65 231.04 285.82 236.68 285.53 242.31 C 281.10 242.29 276.67 242.31 272.24 242.27 C 272.24 228.25 272.23 214.23 272.25 200.22 Z" />
<path fill="#e72027" d=" M 359.25 200.22 C 363.30 200.20 367.35 200.20 371.41 200.21 C 371.47 214.23 371.51 228.26 371.39 242.28 C 367.34 242.31 363.29 242.31 359.24 242.27 C 359.24 228.25 359.23 214.23 359.25 200.22 Z" />
<path fill="#e72027" d=" M 398.24 200.22 C 402.34 200.20 406.44 200.20 410.55 200.21 C 410.60 214.24 410.63 228.26 410.53 242.29 C 406.68 242.30 402.83 242.31 398.99 242.27 C 398.99 241.39 399.00 239.63 399.00 238.75 C 394.46 244.25 384.68 244.48 380.32 238.68 C 376.08 232.91 375.70 224.81 378.20 218.26 C 381.32 210.58 392.11 208.60 398.26 213.84 C 398.22 209.30 398.24 204.76 398.24 200.22 Z" />
<path fill="#e72027" d=" M 9.23 205.90 C 26.91 210.89 44.62 215.82 62.28 220.91 C 60.55 225.66 60.48 230.95 62.34 235.67 C 44.63 228.90 26.61 222.91 8.93 216.09 C 5.76 213.26 6.66 208.78 9.23 205.90 Z" />
<path fill="#ffffff" d=" M 123.65 209.07 C 126.41 209.10 129.22 208.76 131.94 209.32 C 135.15 210.12 135.08 215.44 131.88 216.21 C 129.15 216.65 126.37 216.38 123.62 216.44 C 123.62 213.98 123.63 211.53 123.65 209.07 Z" />
<path fill="#030101" d=" M 165.44 211.59 C 171.46 210.22 178.32 210.85 183.36 214.67 C 190.60 220.65 190.57 233.37 183.14 239.21 C 178.22 243.15 171.39 243.44 165.43 242.32 C 158.42 240.92 153.01 234.16 153.45 226.96 C 153.03 219.74 158.46 213.07 165.44 211.59 Z" />
<path fill="#030101" d=" M 204.37 211.55 C 211.37 210.04 220.08 211.08 224.62 217.24 C 230.32 224.73 227.86 237.16 219.04 241.07 C 210.74 244.69 198.89 243.39 194.14 234.81 C 189.11 226.07 194.18 213.42 204.37 211.55 Z" />
<path fill="#e72027" d=" M 330.43 211.58 C 336.43 210.18 343.27 210.80 348.30 214.59 C 355.31 220.20 355.68 232.01 349.27 238.22 C 345.86 241.76 340.70 243.02 335.92 242.87 C 331.43 243.01 326.69 241.79 323.39 238.60 C 316.73 232.79 316.88 221.20 323.33 215.29 C 325.34 213.49 327.82 212.23 330.43 211.58 Z" />
<path fill="#e72027" d=" M 421.38 214.32 C 426.03 210.77 432.29 210.43 437.88 211.28 C 441.84 211.77 445.68 213.71 448.08 216.96 C 450.97 220.58 451.05 225.47 451.28 229.88 C 443.46 230.26 435.63 229.88 427.81 230.12 C 428.45 232.17 429.17 234.60 431.45 235.39 C 434.10 236.52 436.79 234.97 438.62 233.09 C 442.61 233.29 446.60 233.73 450.58 234.18 C 448.29 238.56 444.10 241.93 439.11 242.49 C 433.36 243.04 426.91 243.57 421.87 240.21 C 413.55 234.46 413.26 220.37 421.38 214.32 Z" />
<path fill="#e72027" d=" M 467.33 215.37 C 469.72 210.18 476.28 210.02 480.62 212.68 C 479.23 215.29 478.04 218.01 477.12 220.83 C 475.13 220.68 473.15 220.38 471.17 220.60 C 469.97 221.98 468.85 223.52 468.55 225.37 C 467.50 230.92 467.97 236.59 467.86 242.21 C 463.90 242.21 459.95 242.23 456.00 242.28 C 456.00 232.09 456.00 221.91 456.00 211.72 C 459.84 211.61 463.69 211.62 467.54 211.65 C 467.49 212.58 467.39 214.44 467.33 215.37 Z" />
<path fill="#e72027" d=" M 485.21 214.16 C 489.05 211.04 494.31 210.89 499.03 210.89 C 504.84 210.61 511.34 213.33 512.92 219.41 C 509.13 219.77 505.34 220.15 501.54 220.48 C 500.47 219.00 499.13 217.27 497.07 217.51 C 495.01 217.16 492.30 218.64 493.62 220.97 C 499.28 223.01 506.14 221.86 511.00 225.94 C 515.45 229.75 514.24 237.42 509.36 240.30 C 503.71 243.69 496.71 243.09 490.44 242.35 C 485.71 241.76 482.11 238.09 480.88 233.61 C 484.92 233.13 488.98 232.72 493.04 232.39 C 494.19 234.70 496.25 236.80 499.10 236.22 C 501.47 236.43 504.21 233.11 501.22 231.78 C 496.15 229.99 490.25 230.47 485.70 227.33 C 481.48 224.38 481.25 217.42 485.21 214.16 Z" />
<path fill="#e72027" d=" M 70.70 221.65 C 75.50 218.06 80.52 214.74 85.80 211.88 C 82.83 214.78 79.53 217.34 76.43 220.10 C 79.45 218.68 82.44 217.19 85.48 215.81 C 83.53 217.65 81.54 219.46 79.52 221.22 L 79.08 220.84 C 78.83 220.63 78.34 220.22 78.09 220.02 C 77.05 220.38 74.93 221.19 75.53 222.62 C 76.73 222.74 77.83 222.39 78.83 221.58 C 82.66 221.28 85.43 218.07 89.01 216.90 C 83.17 222.19 76.91 226.99 70.83 232.01 C 70.80 228.55 70.81 225.10 70.70 221.65 Z" />
<path fill="#ffffff" d=" M 427.79 223.81 C 428.36 220.80 430.55 217.53 434.06 218.26 C 437.10 218.31 438.16 221.44 438.87 223.86 C 435.18 223.92 431.48 223.92 427.79 223.81 Z" />
<path fill="#ffffff" d=" M 169.51 219.61 C 172.50 218.31 175.80 221.09 176.19 224.07 C 177.06 227.84 176.54 233.82 171.86 234.66 C 164.32 235.11 163.34 222.15 169.51 219.61 Z" />
<path fill="#ffffff" d=" M 208.49 219.51 C 211.94 218.29 215.12 221.68 215.19 224.98 C 215.55 228.38 215.34 233.02 211.57 234.44 C 207.71 235.88 204.11 231.73 204.54 228.03 C 204.17 224.77 204.99 220.71 208.49 219.51 Z" />
<path fill="#ffffff" d=" M 334.51 219.64 C 337.52 218.28 340.87 221.05 341.27 224.08 C 341.85 227.56 341.83 232.44 338.19 234.26 C 335.10 235.73 331.46 233.27 330.99 230.05 C 330.25 226.41 330.43 221.21 334.51 219.64 Z" />
<path fill="#e47158" d=" M 75.53 222.62 C 74.93 221.19 77.05 220.38 78.09 220.02 C 78.34 220.22 78.83 220.63 79.08 220.84 L 78.83 221.58 C 77.83 222.39 76.73 222.74 75.53 222.62 Z" />
<path fill="#ffffff" d=" M 391.42 220.55 C 394.47 218.67 398.15 221.85 398.18 225.04 C 398.41 227.97 398.53 232.00 395.47 233.54 C 393.13 235.08 389.94 233.22 389.36 230.69 C 388.38 227.38 388.33 222.75 391.42 220.55 Z" />
<path fill="#cfbebf" d=" M 468.55 225.37 C 468.85 223.52 469.97 221.98 471.17 220.60 C 467.98 227.40 469.30 234.96 469.04 242.19 C 464.71 242.65 460.34 242.49 456.00 242.28 C 459.95 242.23 463.90 242.21 467.86 242.21 C 467.97 236.59 467.50 230.92 468.55 225.37 Z" />
<path fill="#e72027" d=" M 68.77 233.06 C 66.56 229.87 67.43 226.06 68.77 222.74 C 69.01 226.17 69.07 229.62 68.77 233.06 Z" />
<path fill="#ffffff" d=" M 123.63 224.81 C 126.91 224.91 130.32 224.33 133.51 225.31 C 136.47 226.18 136.87 230.70 134.13 232.14 C 130.86 233.61 127.12 232.76 123.65 232.93 C 123.62 230.22 123.62 227.51 123.63 224.81 Z" />
<path fill="#96221a" d=" M 87.44 226.11 C 88.64 225.18 89.35 225.38 89.59 226.72 C 88.38 227.64 87.66 227.44 87.44 226.11 Z" />
<path fill="#e72027" d=" M 13.82 227.55 C 21.54 233.03 29.57 238.11 37.06 243.89 C 39.64 247.98 40.74 254.75 36.13 257.94 C 32.56 254.77 28.28 252.31 25.20 248.64 C 24.38 246.81 22.86 245.50 20.89 245.10 C 18.17 243.94 16.13 241.68 13.80 239.93 C 13.79 235.80 13.79 231.68 13.82 227.55 Z" />
<path fill="#e72027" d=" M 42.97 243.80 C 60.67 238.73 78.34 233.51 96.09 228.60 C 97.59 230.78 99.59 233.47 98.18 236.20 C 97.07 239.60 93.20 240.16 90.31 241.30 C 74.52 246.95 58.70 252.53 42.99 258.39 C 44.69 253.67 44.73 248.51 42.97 243.80 Z" />
<path fill="#e72027" d=" M 24.72 229.92 C 29.15 230.28 33.61 229.47 38.03 229.97 C 43.77 231.83 49.42 234.03 55.08 236.17 C 50.09 237.43 45.20 239.01 40.22 240.29 C 35.05 236.84 29.84 233.44 24.72 229.92 Z" />
<path fill="#030101" d=" M 21.35 239.28 C 23.85 239.44 25.73 241.78 27.96 242.83 C 28.32 243.03 29.03 243.44 29.39 243.65 C 30.69 244.03 32.02 244.24 33.35 244.43 C 34.35 247.30 34.30 250.37 34.15 253.37 C 31.95 251.70 29.77 250.01 27.68 248.20 C 27.66 248.17 27.60 248.12 27.57 248.09 C 26.86 247.32 25.44 245.76 24.73 244.98 C 27.43 246.40 30.10 247.88 32.86 249.18 C 30.95 246.93 28.87 244.83 26.53 243.02 C 25.13 241.40 22.15 241.23 21.35 239.28 Z" />
<path fill="#96221a" d=" M 25.13 237.98 C 28.79 239.73 31.94 242.31 35.25 244.62 C 34.65 247.83 35.48 251.31 34.11 254.36 L 34.15 253.37 C 34.30 250.37 34.35 247.30 33.35 244.43 C 32.02 244.24 30.69 244.03 29.39 243.65 C 29.69 241.99 29.21 241.71 27.96 242.83 C 27.31 241.05 26.22 239.50 25.13 237.98 Z" />
<path fill="#e72027" d=" M 27.96 242.83 C 29.21 241.71 29.69 241.99 29.39 243.65 C 29.03 243.44 28.32 243.03 27.96 242.83 Z" />
<path fill="#96221a" d=" M 20.89 242.15 C 22.91 243.10 24.89 244.15 26.85 245.24 C 26.77 244.68 26.61 243.58 26.53 243.02 C 28.87 244.83 30.95 246.93 32.86 249.18 C 30.10 247.88 27.43 246.40 24.73 244.98 C 25.44 245.76 26.86 247.32 27.57 248.09 C 24.98 246.56 22.55 244.71 20.89 242.15 Z" />
<path fill="#96221a" d=" M 20.89 245.10 C 22.86 245.50 24.38 246.81 25.20 248.64 C 23.42 249.01 20.67 246.96 20.89 245.10 Z" />
<path fill="#ffffff" d=" M 27.57 248.09 C 27.60 248.12 27.66 248.17 27.68 248.20 C 27.66 248.17 27.60 248.12 27.57 248.09 Z" />
<path fill="#96221a" d=" M 16.84 249.09 C 18.24 248.69 18.86 249.17 18.72 250.53 C 17.32 250.93 16.69 250.45 16.84 249.09 Z" />
<path fill="#e72027" d=" M 74.56 263.87 C 80.34 259.31 86.58 255.36 92.50 250.99 C 92.40 254.98 92.65 258.97 92.58 262.96 C 92.05 263.73 91.36 264.37 90.72 265.05 C 90.50 264.40 90.08 263.09 89.87 262.43 C 89.02 262.40 88.17 262.37 87.32 262.35 C 86.47 261.32 85.63 260.29 84.77 259.29 L 84.37 259.78 C 84.30 259.29 84.17 258.30 84.10 257.80 C 85.56 258.20 86.97 258.74 88.35 259.37 C 89.25 256.39 85.58 255.56 84.10 257.80 C 81.16 260.18 77.82 261.98 74.56 263.87 Z" />
<path fill="#030101" d=" M 212.00 252.24 C 213.83 252.24 215.67 252.24 217.51 252.25 C 217.50 258.67 217.51 265.09 217.50 271.51 C 215.66 271.50 213.83 271.50 212.00 271.50 C 212.00 265.08 212.00 258.66 212.00 252.24 Z" />
<path fill="#030101" d=" M 221.00 252.24 C 222.83 252.24 224.67 252.24 226.51 252.25 C 226.50 258.67 226.51 265.09 226.50 271.51 C 224.66 271.50 222.83 271.50 221.00 271.50 C 221.00 265.08 220.99 258.66 221.00 252.24 Z" />
<path fill="#030101" d=" M 283.48 252.25 C 285.40 252.24 287.33 252.24 289.25 252.24 C 289.25 258.66 289.25 265.08 289.25 271.49 C 287.52 271.50 285.80 271.51 284.08 271.53 L 284.00 270.15 C 281.51 272.36 277.21 272.70 275.15 269.75 C 272.97 266.12 272.83 260.27 276.76 257.75 C 278.91 256.48 281.33 257.31 283.54 257.96 C 283.50 256.05 283.49 254.15 283.48 252.25 Z" />
<path fill="#030101" d=" M 371.00 252.24 C 372.92 252.24 374.83 252.24 376.76 252.25 C 376.75 254.18 376.75 256.12 376.73 258.05 C 379.55 256.75 383.61 256.47 385.38 259.55 C 387.49 263.30 387.14 269.71 382.64 271.57 C 380.35 272.53 378.02 271.40 376.11 270.16 C 376.14 270.50 376.19 271.17 376.22 271.51 C 374.48 271.50 372.74 271.50 371.00 271.50 C 371.00 265.08 371.00 258.66 371.00 252.24 Z" />
<path fill="#e72027" d=" M 12.51 263.42 C 7.32 262.43 6.21 254.72 10.86 252.41 C 15.83 253.61 20.78 254.95 25.65 256.51 C 28.89 258.35 31.42 261.24 34.26 263.62 C 37.62 263.73 40.63 261.88 43.89 261.65 C 50.40 263.41 56.92 265.20 63.38 267.16 C 61.71 271.95 61.65 277.14 63.44 281.91 C 46.50 275.65 29.50 269.56 12.51 263.42 Z" />
<path fill="#e72027" d=" M 65.42 253.47 C 70.77 252.88 76.17 253.65 81.54 253.56 C 76.40 257.00 71.18 260.30 66.07 263.78 C 60.68 262.15 55.21 260.76 49.82 259.12 C 55.00 257.20 60.09 254.94 65.42 253.47 Z" />
<path fill="#030101" d=" M 109.75 252.25 C 111.67 252.24 113.60 252.24 115.53 252.25 C 115.51 254.29 115.49 256.33 115.41 258.37 C 118.36 256.21 123.29 256.76 124.73 260.44 C 126.01 264.02 125.77 269.09 122.17 271.25 C 119.90 272.57 117.15 271.77 115.23 270.22 C 115.10 270.56 114.84 271.24 114.71 271.58 C 113.05 271.53 111.40 271.50 109.75 271.48 C 109.75 265.06 109.75 258.66 109.75 252.25 Z" />
<path fill="#030101" d=" M 350.08 257.44 C 349.37 253.78 353.74 253.52 355.98 252.05 C 355.99 253.86 356.00 255.68 356.01 257.49 C 357.00 257.49 358.00 257.49 359.01 257.50 C 359.00 258.83 358.99 260.17 359.00 261.51 C 358.24 261.51 356.73 261.51 355.98 261.50 C 356.00 263.60 355.92 265.70 356.19 267.79 C 356.83 267.74 358.12 267.63 358.76 267.58 C 358.84 268.93 358.92 270.28 358.99 271.63 C 356.44 271.66 353.29 272.63 351.23 270.68 C 349.82 267.87 350.38 264.58 350.23 261.56 C 349.79 261.53 348.92 261.47 348.49 261.45 C 348.48 260.15 348.48 258.85 348.49 257.56 C 348.89 257.53 349.68 257.47 350.08 257.44 Z" />
<path fill="#030101" d=" M 424.75 252.25 C 426.58 252.24 428.41 252.24 430.25 252.25 C 430.25 255.47 430.27 258.70 430.20 261.93 C 431.46 260.42 432.76 258.94 434.07 257.48 C 436.43 257.49 438.79 257.49 441.16 257.52 C 439.44 259.16 437.69 260.75 435.95 262.36 C 437.72 265.41 439.49 268.47 441.31 271.50 C 439.16 271.50 437.02 271.50 434.88 271.51 C 433.99 269.73 433.10 267.95 432.21 266.18 C 431.72 266.68 430.73 267.67 430.24 268.16 C 430.24 269.00 430.25 270.67 430.26 271.50 C 428.42 271.50 426.58 271.50 424.75 271.50 C 424.74 265.08 424.75 258.67 424.75 252.25 Z" />
<path fill="#e47158" d=" M 84.10 257.80 C 85.58 255.56 89.25 256.39 88.35 259.37 C 86.97 258.74 85.56 258.20 84.10 257.80 Z" />
<path fill="#030101" d=" M 179.75 257.77 C 183.76 256.40 189.57 256.42 191.47 261.00 C 189.94 261.23 188.40 261.37 186.85 261.42 C 185.31 260.90 182.70 259.10 182.00 261.62 C 184.70 262.37 187.75 262.24 190.18 263.79 C 192.82 265.84 191.61 270.41 188.49 271.27 C 184.29 272.48 178.02 272.58 176.31 267.57 C 178.09 267.33 179.89 267.13 181.69 266.99 C 183.13 268.93 185.40 269.24 186.95 267.27 C 184.39 266.20 181.54 266.08 179.00 264.96 C 176.22 263.38 176.77 258.81 179.75 257.77 Z" />
<path fill="#030101" d=" M 197.49 257.73 C 200.98 256.52 205.75 256.65 208.19 259.84 C 209.62 261.55 209.44 263.89 209.61 265.98 C 205.95 266.03 202.28 265.95 198.62 266.06 C 199.68 268.63 202.26 269.03 204.29 267.24 C 206.06 267.38 207.85 267.55 209.55 268.13 C 206.62 272.31 200.59 272.91 196.28 270.77 C 191.78 267.82 192.23 259.64 197.49 257.73 Z" />
<path fill="#030101" d=" M 238.00 261.58 C 239.38 256.73 245.05 256.63 249.15 257.30 C 251.25 257.44 253.20 258.92 253.41 261.11 C 253.68 264.59 253.21 268.12 253.99 271.56 C 252.08 271.29 249.69 272.16 248.24 270.52 C 244.99 272.35 240.11 272.81 237.93 269.17 C 237.94 268.34 237.97 266.68 237.99 265.85 C 240.68 262.98 244.92 263.27 248.40 262.01 C 247.15 259.75 244.74 260.33 243.36 262.10 C 241.57 261.96 239.78 261.77 238.00 261.58 Z" />
<path fill="#030101" d=" M 261.76 259.03 C 264.20 256.76 268.83 256.00 270.79 259.25 C 272.16 263.16 271.26 267.44 271.50 271.50 C 269.58 271.50 267.66 271.50 265.74 271.50 C 265.70 268.43 265.91 265.34 265.61 262.27 C 264.55 261.13 263.52 261.15 262.54 262.32 C 261.55 265.27 262.15 268.46 262.00 271.51 C 260.17 271.50 258.33 271.50 256.50 271.50 C 256.49 266.84 256.49 262.17 256.49 257.51 C 258.21 257.49 259.93 257.48 261.66 257.46 C 261.68 257.86 261.74 258.64 261.76 259.03 Z" />
<path fill="#030101" d=" M 306.19 258.74 C 308.03 257.14 310.30 256.66 312.59 257.65 C 312.00 259.03 311.42 260.41 310.83 261.79 C 309.47 261.34 307.71 261.41 307.31 263.09 C 306.55 265.83 306.78 268.70 306.73 271.51 C 304.90 271.50 303.06 271.50 301.23 271.50 C 301.26 266.83 301.24 262.16 301.25 257.50 C 302.99 257.49 304.73 257.49 306.48 257.48 L 306.19 258.74 Z" />
<path fill="#030101" d=" M 312.92 265.98 C 312.16 262.39 314.32 258.14 318.08 257.40 C 321.29 256.73 325.27 256.88 327.60 259.51 C 329.15 261.29 329.08 263.78 329.39 265.99 C 325.67 266.02 321.94 265.93 318.23 266.10 C 319.16 267.20 320.10 269.41 321.89 268.13 C 324.11 266.81 326.69 267.55 329.10 267.76 C 325.96 273.97 313.97 273.54 312.92 265.98 Z" />
<path fill="#030101" d=" M 336.41 259.04 C 338.97 257.03 343.62 255.78 345.62 259.17 C 346.95 263.09 345.95 267.42 346.25 271.50 C 344.41 271.50 342.57 271.50 340.74 271.50 C 340.06 268.23 342.40 263.29 339.01 261.26 C 335.33 263.20 337.64 268.20 337.01 271.51 C 335.17 271.50 333.33 271.50 331.50 271.50 C 331.49 266.83 331.49 262.17 331.50 257.50 C 333.15 257.49 334.81 257.49 336.47 257.49 L 336.41 259.04 Z" />
<path fill="#030101" d=" M 393.31 257.49 C 396.43 256.64 400.33 256.89 402.63 259.44 C 405.97 262.80 404.77 269.40 400.31 271.20 C 396.82 272.50 392.25 272.20 389.75 269.16 C 386.60 265.40 388.39 258.69 393.31 257.49 Z" />
<path fill="#030101" d=" M 413.08 257.09 C 415.70 256.88 418.67 257.42 420.56 259.40 C 422.50 261.43 422.58 264.52 421.98 267.11 C 419.67 274.07 407.20 273.43 406.21 265.92 C 405.16 261.57 408.66 257.23 413.08 257.09 Z" />
<path fill="#030101" d=" M 444.72 257.78 C 448.73 256.39 454.56 256.42 456.47 261.00 C 454.93 261.22 453.40 261.37 451.86 261.43 C 450.30 260.88 447.78 259.15 446.96 261.59 C 449.49 262.26 452.19 262.35 454.60 263.41 C 457.88 265.10 456.88 270.42 453.44 271.29 C 449.24 272.48 443.01 272.55 441.31 267.57 C 443.09 267.32 444.89 267.13 446.69 267.00 C 448.07 268.68 449.88 269.10 451.80 268.03 C 451.51 267.67 450.93 266.97 450.65 266.61 C 448.40 266.15 446.05 265.96 443.98 264.95 C 441.26 263.36 441.70 258.79 444.72 257.78 Z" />
<path fill="#030101" d=" M 127.75 257.50 C 129.59 257.49 131.42 257.49 133.26 257.50 C 133.93 260.76 131.60 265.73 135.00 267.73 C 138.65 265.78 136.36 260.79 136.99 257.49 C 138.83 257.49 140.66 257.49 142.50 257.50 C 142.51 262.16 142.50 266.82 142.51 271.49 C 140.79 271.50 139.08 271.52 137.36 271.54 C 137.34 271.19 137.29 270.50 137.27 270.15 C 134.66 272.30 129.41 273.01 128.06 269.12 C 127.37 265.29 127.90 261.36 127.75 257.50 Z" />
<path fill="#030101" d=" M 143.98 257.52 C 145.96 257.50 147.95 257.49 149.93 257.49 C 150.84 260.41 151.75 263.33 152.64 266.26 C 153.48 263.34 154.35 260.43 155.17 257.51 C 157.02 257.50 158.88 257.49 160.75 257.50 C 158.58 263.15 156.73 268.94 154.30 274.49 C 152.71 277.98 148.26 277.34 145.16 276.86 C 145.04 275.61 144.91 274.37 144.78 273.13 C 146.62 273.27 148.54 273.32 150.01 272.03 C 148.09 267.15 145.97 262.36 143.98 257.52 Z" />
<path fill="#e47158" d=" M 74.56 263.87 C 77.82 261.98 81.16 260.18 84.10 257.80 C 84.17 258.30 84.30 259.29 84.37 259.78 L 84.77 259.29 C 85.63 260.29 86.47 261.32 87.32 262.35 C 88.17 262.37 89.02 262.40 89.87 262.43 C 90.08 263.09 90.50 264.40 90.72 265.05 C 84.68 269.61 78.94 274.57 72.97 279.22 C 72.50 279.12 71.54 278.93 71.06 278.84 C 70.84 274.57 70.99 270.30 70.98 266.03 C 72.18 265.32 73.36 264.58 74.56 263.87 Z" />
<path fill="#ffffff" d=" M 198.73 263.21 C 199.40 262.26 199.70 260.68 201.08 260.54 C 202.84 260.01 203.50 262.06 204.20 263.22 C 202.37 263.24 200.55 263.24 198.73 263.21 Z" />
<path fill="#ffffff" d=" M 318.22 263.20 C 319.00 261.22 320.78 259.71 322.89 261.03 C 323.13 261.77 323.38 262.51 323.63 263.25 C 321.82 263.24 320.01 263.23 318.22 263.20 Z" />
<path fill="#96221a" d=" M 78.59 263.83 C 79.94 262.29 81.78 261.33 83.63 260.53 C 81.73 262.50 79.70 264.33 77.72 266.23 C 80.36 265.16 82.97 264.03 85.65 263.06 C 84.35 264.09 83.17 265.39 81.55 265.92 C 78.93 266.76 76.35 267.73 73.82 268.80 C 75.43 267.16 77.02 265.50 78.59 263.83 Z" />
<path fill="#ffffff" d=" M 117.87 267.90 C 114.30 267.19 114.89 261.90 117.99 260.83 C 120.12 262.56 120.80 266.61 117.87 267.90 Z" />
<path fill="#ffffff" d=" M 280.91 268.05 C 278.60 266.15 278.85 262.73 281.05 260.84 C 283.74 261.75 284.07 264.64 283.22 267.01 C 282.64 267.27 281.49 267.79 280.91 268.05 Z" />
<path fill="#ffffff" d=" M 378.49 261.43 C 381.80 261.03 381.92 267.07 379.04 267.91 C 376.04 267.58 375.79 262.28 378.49 261.43 Z" />
<path fill="#ffffff" d=" M 395.32 261.31 C 400.09 259.35 400.04 269.93 395.05 267.82 C 393.51 266.05 393.13 262.71 395.32 261.31 Z" />
<path fill="#ffffff" d=" M 413.31 261.25 C 417.18 259.93 417.99 266.55 414.98 268.02 C 411.35 268.65 410.53 262.72 413.31 261.25 Z" />
<path fill="#030101" d=" M 72.67 267.78 C 74.60 266.40 76.57 265.07 78.59 263.83 C 77.02 265.50 75.43 267.16 73.82 268.80 C 76.35 267.73 78.93 266.76 81.55 265.92 C 80.77 266.81 80.02 267.74 79.20 268.59 C 77.27 268.95 75.58 270.21 74.88 272.08 C 76.93 271.91 78.57 270.61 79.80 269.06 C 81.64 268.16 83.45 267.15 85.38 266.46 L 85.92 266.42 L 85.93 266.42 C 83.41 268.36 80.91 270.31 78.53 272.43 C 78.49 272.47 78.41 272.53 78.37 272.57 C 76.51 274.14 74.61 275.67 72.71 277.20 C 72.70 274.05 72.70 270.91 72.67 267.78 Z" />
<path fill="#e72027" d=" M 85.38 266.46 C 85.16 264.95 87.43 263.50 88.76 264.15 C 88.97 265.62 87.00 266.09 85.92 266.42 L 85.38 266.46 Z" />
<path fill="#ffffff" d=" M 243.21 267.11 C 244.75 266.14 246.46 265.49 248.21 265.01 C 248.39 267.40 246.55 268.70 244.39 268.84 C 244.09 268.41 243.51 267.54 243.21 267.11 Z" />
<path fill="#e72027" d=" M 70.00 281.38 C 65.46 277.55 66.43 269.37 70.98 266.03 C 70.99 270.30 70.84 274.57 71.06 278.84 C 71.54 278.93 72.50 279.12 72.97 279.22 C 71.99 279.94 70.99 280.66 70.00 281.38 Z" />
<path fill="#030101" d=" M 159.75 266.00 C 161.76 265.99 163.78 266.00 165.79 266.01 C 165.72 268.44 165.91 270.95 165.20 273.31 C 164.60 275.26 162.61 276.11 161.07 277.19 C 160.72 276.57 160.01 275.33 159.65 274.71 C 160.71 273.76 161.75 272.79 162.77 271.81 C 162.02 271.70 160.50 271.48 159.74 271.37 C 159.74 269.58 159.75 267.79 159.75 266.00 Z" />
<path fill="#e72027" d=" M 74.88 272.08 C 75.58 270.21 77.27 268.95 79.20 268.59 L 79.80 269.06 C 78.57 270.61 76.93 271.91 74.88 272.08 Z" />
<path fill="#96221a" d=" M 78.37 272.57 C 78.41 272.53 78.49 272.47 78.53 272.43 C 78.49 272.47 78.41 272.53 78.37 272.57 Z" />
</svg>
