<?xml version="1.0" encoding="utf-8"?>
<!-- Generator: Adobe Illustrator 16.0.3, SVG Export Plug-In . SVG Version: 6.00 Build 0)  -->
<!DOCTYPE svg PUBLIC "-//W3C//DTD SVG 1.1//EN" "http://www.w3.org/Graphics/SVG/1.1/DTD/svg11.dtd">
<svg version="1.1" xmlns="http://www.w3.org/2000/svg" xmlns:xlink="http://www.w3.org/1999/xlink" x="0px" y="0px" width="418px"
	 height="100px" viewBox="0 0 418 100" enable-background="new 0 0 418 100" xml:space="preserve">
<g id="guides">
</g>
<g id="Layer_2">
	<g>
		<g>
			<g>
				<g>
					<g>
						<path d="M23.234,59.398V49.051h6.176c1.535,0,3.229,0,4.535,1.049c1.271,1.037,1.98,2.678,1.98,4.354
							c0,1.488-0.557,2.895-1.699,3.791c-1.189,0.961-2.848,1.154-4.348,1.154H23.234z M23.234,46.531v-9.158h6.117
							c1.354,0,2.584,0,3.762,0.68c1.389,0.873,2.033,2.109,2.033,3.768c0,1.354-0.609,2.854-1.711,3.674
							c-1.383,1.084-3.24,1.037-4.951,1.037H23.234z M29.961,62.059c2.479,0,4.611-0.129,6.686-1.758
							c1.811-1.406,2.607-3.439,2.607-5.742c0-3.498-2.262-6.217-5.613-6.92v-0.064c2.971-0.709,4.775-3.041,4.775-6.123
							c0-2.232-1.014-4.125-2.854-5.361c-1.811-1.195-3.475-1.283-5.561-1.283H20v27.252H29.961z"/>
					</g>
					<g>
						<path d="M45.652,51.805c0-1.629,0.252-3.598,1.008-5.08c0.879-1.775,2.637-2.906,4.588-2.906c1.746,0,3.428,0.92,4.389,2.408
							c1.049,1.646,1.277,3.656,1.277,5.578c0,1.77-0.146,3.615-0.99,5.215c-0.961,1.863-2.602,2.93-4.676,2.93
							c-1.828,0-3.563-0.984-4.43-2.566C45.934,55.783,45.652,53.662,45.652,51.805z M42.271,51.805
							c0,5.32,2.689,10.646,8.695,10.646c6.082,0,9.328-4.969,9.328-10.605c0-5.314-2.93-10.482-8.818-10.482
							C45.441,41.363,42.271,46.203,42.271,51.805z"/>
					</g>
					<g>
						<path d="M66.688,51.805c0-1.629,0.234-3.598,0.99-5.08c0.879-1.775,2.637-2.906,4.594-2.906c1.758,0,3.428,0.92,4.395,2.408
							c1.031,1.646,1.283,3.656,1.283,5.578c0,1.77-0.17,3.615-1.008,5.215c-0.955,1.863-2.596,2.93-4.67,2.93
							c-1.834,0-3.551-0.984-4.441-2.566C66.963,55.783,66.688,53.662,66.688,51.805z M63.289,51.805
							c0,5.32,2.695,10.646,8.713,10.646c6.076,0,9.316-4.969,9.316-10.605c0-5.314-2.918-10.482-8.813-10.482
							C66.465,41.363,63.289,46.203,63.289,51.805z"/>
					</g>
					<g>
						<path d="M98.018,43.59L86.979,59.633h11.039v2.426H83.234v-2.426l10.664-15.287h-9.844v-2.484h13.963V43.59z"/>
					</g>
					<g>
						<path d="M118.068,71h-2.525V29h2.525V71z"/>
					</g>
					<g>
						<path d="M148.25,51.523h-8.35l4.207-13.066L148.25,51.523z M146.158,34.807h-3.691l-8.777,27.252h2.854l2.414-7.951h10.02
							l2.748,7.951h3.234L146.158,34.807z"/>
					</g>
					<g>
						<path d="M178.033,49.906c0.111-3.164,2.438-6.164,5.777-6.164c3.574,0,5.566,2.813,5.537,6.164H178.033z M189.412,56.012
							c-0.855,2.391-2.824,3.896-5.432,3.896c-2.098,0-4.348-1.23-5.291-3.135c-0.738-1.5-0.826-2.994-0.826-4.559h14.742
							c0.152-5.602-2.549-10.852-8.795-10.852c-5.994,0-9.275,5.051-9.275,10.605c0,5.654,3.123,10.482,9.217,10.482
							c3.814,0,7.342-2.232,8.531-5.918L189.412,56.012z"/>
					</g>
					<g>
						<path d="M199.977,45.318h0.082c1.061-2.309,3.504-3.955,6.252-3.955c2.402,0,4.412,1.049,5.666,3.141
							c1.066,1.699,0.979,4.412,0.979,6.398v11.156h-3.094V49.59c0-1.195,0.047-2.707-0.568-3.727
							c-0.656-1.154-2.127-1.852-3.428-1.852c-1.623,0-3.076,0.779-4.148,2.039c-1.307,1.588-1.576,3.41-1.576,5.438v10.57h-3.094
							V41.861h2.93V45.318z"/>
					</g>
					<g>
						<path d="M385.039,45.318h0.076c1.025-2.309,3.486-3.955,6.229-3.955c2.408,0,4.436,1.049,5.695,3.141
							c1.025,1.699,0.961,4.412,0.961,6.398v11.156h-3.1V49.59c0-1.195,0.029-2.707-0.557-3.727
							c-0.668-1.154-2.109-1.852-3.439-1.852c-1.611,0-3.094,0.779-4.154,2.039c-1.283,1.588-1.57,3.41-1.57,5.438v10.57h-3.088
							V41.861h2.947V45.318z"/>
					</g>
					<g>
						<path d="M233.199,71h-2.496V29h2.496V71z"/>
					</g>
					<g>
						<path d="M268.203,62.059V48.957h-12.539v13.102h-3.211V34.807h3.211v11.549h12.539V34.807h3.205v27.252H268.203z"/>
					</g>
					<g>
						<path d="M289.438,53.205c0,3.568-2.502,6.82-6.217,6.82c-2.561,0-4.33-1.031-4.33-3.539c0-4.16,4.354-4.6,8.045-4.6h2.502
							V53.205z M286.895,49.555c-2.449,0-5.344,0.105-7.518,1.184c-2.203,0.984-3.662,3.176-3.662,5.596
							c0,4.014,3.158,6.117,6.85,6.117c3.123,0,5.502-1.271,6.873-4.178l0.346,3.785h3.029c-0.393-1.301-0.428-2.789-0.428-4.242
							v-7.852c0-2.279,0-4.822-1.617-6.609c-1.494-1.746-3.891-1.992-6.082-1.992c-3.568,0-7.91,1.318-8.449,5.52l2.865,0.469
							c0.533-2.76,2.883-3.563,5.344-3.563c3.51,0,4.992,1.354,4.992,4.887v0.879H286.895z"/>
					</g>
					<g>
						<path d="M300.553,41.861v3.627h0.059c0.943-2.25,3.299-4.125,6.041-4.125c2.818,0,5.104,2.08,5.631,4.5
							c1.002-2.578,3.498-4.5,6.504-4.5c2.039,0,4.008,1.16,5.057,2.918c0.967,1.658,0.938,3.855,0.938,5.754v12.023h-3.082V50.035
							c0-1.359,0.076-2.801-0.563-4.031c-0.656-1.295-1.951-2.115-3.357-2.115c-1.518,0-2.971,0.967-3.873,2.279
							c-1.154,1.641-1.107,3.1-1.107,5.027v10.863h-3.1V49.268c0-1.131-0.07-2.402-0.656-3.404
							c-0.697-1.195-1.992-1.975-3.363-1.975c-1.377,0-2.801,0.932-3.633,1.986c-1.031,1.324-1.23,2.959-1.23,4.617v11.566h-3.064
							V41.861H300.553z"/>
					</g>
					<g>
						<path d="M333.518,62.059h-3.047V41.861h3.047V62.059z M333.67,38.316h-3.381v-3.51h3.381V38.316z"/>
					</g>
					<g>
						<path d="M339.863,62.059V34.807h2.994v27.252H339.863z"/>
					</g>
					<g>
						<path d="M158.141,62.059V34.807h3v27.252H158.141z"/>
					</g>
					<g>
						<path d="M167.363,62.059V34.807h3v27.252H167.363z"/>
					</g>
					<g>
						<path d="M358.449,62.211l-2.959,0.24c-4.389,0-5.719-2.572-5.719-6.604V44.182h-3.545v-2.467h3.545v-5.01l3.1-0.322v5.332
							h4.465v2.467h-4.465v12.182c0,2.355,0.68,3.586,3.223,3.586l2.355-0.182V62.211z"/>
					</g>
					<g>
						<path d="M363.359,51.805c0-1.629,0.246-3.598,0.996-5.08c0.891-1.775,2.637-2.906,4.611-2.906c1.74,0,3.434,0.92,4.377,2.408
							c1.031,1.646,1.283,3.656,1.283,5.578c0,1.77-0.176,3.615-0.996,5.215c-0.943,1.863-2.59,2.93-4.664,2.93
							c-1.846,0-3.551-0.984-4.436-2.566C363.658,55.783,363.359,53.662,363.359,51.805z M360.002,51.805
							c0,5.32,2.666,10.646,8.695,10.646c6.07,0,9.328-4.969,9.328-10.605c0-5.314-2.941-10.482-8.83-10.482
							C363.143,41.363,360.002,46.203,360.002,51.805z"/>
					</g>
				</g>
			</g>
		</g>
	</g>
</g>
</svg>
