<?xml version="1.0" encoding="UTF-8" standalone="no"?>
<!-- Created with Inkscape (http://www.inkscape.org/) -->

<svg
   xmlns:dc="http://purl.org/dc/elements/1.1/"
   xmlns:cc="http://creativecommons.org/ns#"
   xmlns:rdf="http://www.w3.org/1999/02/22-rdf-syntax-ns#"
   xmlns:svg="http://www.w3.org/2000/svg"
   xmlns="http://www.w3.org/2000/svg"
   xmlns:sodipodi="http://sodipodi.sourceforge.net/DTD/sodipodi-0.dtd"
   xmlns:inkscape="http://www.inkscape.org/namespaces/inkscape"
   width="316.68124"
   height="44.928562"
   id="svg2"
   version="1.1"
   inkscape:version="0.48.2 r9819"
   sodipodi:docname="New document 1">
  <defs
     id="defs4">
    <clipPath
       id="clipPath3089"
       clipPathUnits="userSpaceOnUse">
      <path
         id="path3091"
         d="M 0,0 612,0 612,792 0,792 0,0 z"
         inkscape:connector-curvature="0" />
    </clipPath>
    <clipPath
       id="clipPath3013"
       clipPathUnits="userSpaceOnUse">
      <path
         id="path3015"
         d="M 0,0 612,0 612,792 0,792 0,0 z"
         inkscape:connector-curvature="0" />
    </clipPath>
    <clipPath
       id="clipPath2999"
       clipPathUnits="userSpaceOnUse">
      <path
         id="path3001"
         d="M 0,0 612,0 612,792 0,792 0,0 z"
         inkscape:connector-curvature="0" />
    </clipPath>
  </defs>
  <sodipodi:namedview
     id="base"
     pagecolor="#ffffff"
     bordercolor="#666666"
     borderopacity="1.0"
     inkscape:pageopacity="0.0"
     inkscape:pageshadow="2"
     inkscape:zoom="0.94"
     inkscape:cx="301.08"
     inkscape:cy="92.92858"
     inkscape:document-units="px"
     inkscape:current-layer="g2993"
     showgrid="false"
     fit-margin-top="0"
     fit-margin-left="0"
     fit-margin-right="0"
     fit-margin-bottom="0"
     inkscape:window-width="1440"
     inkscape:window-height="853"
     inkscape:window-x="-4"
     inkscape:window-y="-4"
     inkscape:window-maximized="1" />
  <metadata
     id="metadata7">
    <rdf:RDF>
      <cc:Work
         rdf:about="">
        <dc:format>image/svg+xml</dc:format>
        <dc:type
           rdf:resource="http://purl.org/dc/dcmitype/StillImage" />
        <dc:title></dc:title>
      </cc:Work>
    </rdf:RDF>
  </metadata>
  <g
     inkscape:label="Layer 1"
     inkscape:groupmode="layer"
     id="layer1"
     transform="translate(-73.92,-100.3622)">
    <g
       transform="matrix(1.25,0,0,-1.25,-7.5,1027.3622)"
       inkscape:label="Carlyle 2009 Annual Report"
       id="g2993">
      <g
         id="g3009"
         transform="matrix(1.475123,0,0,1.475123,-30.947612,-352.35122)">
        <g
           clip-path="url(#clipPath3013)"
           id="g3011">
          <g
             transform="translate(74.1957,726.1245)"
             id="g3021">
            <path
               id="path3023"
               style="fill:#00679f;fill-opacity:1;fill-rule:nonzero;stroke:none"
               d="m 0,0 c 0,-0.663 -0.036,-1.119 -0.16,-1.311 -0.103,-0.175 -0.313,-0.243 -0.733,-0.263 l -0.838,-0.052 0,-0.524 c 0.909,0.034 1.731,0.051 2.588,0.051 0.804,0 1.625,-0.017 2.536,-0.051 l 0,0.524 -0.841,0.052 C 2.135,-1.554 1.923,-1.486 1.819,-1.311 1.696,-1.119 1.661,-0.663 1.661,0 l 0,7.4 c 0,0.665 0.017,1.223 0.07,1.748 l 2.712,0 c 0.524,0 0.664,-0.157 0.698,-0.577 l 0.07,-1.382 0.543,0 c 0,0.947 0.034,1.906 0.122,2.817 -1.259,0 -2.519,-0.052 -3.778,-0.052 l -2.536,0 c -1.26,0 -2.519,0.052 -3.778,0.052 0.088,-0.911 0.122,-1.87 0.122,-2.817 l 0.542,0 0.071,1.382 c 0.035,0.42 0.176,0.577 0.699,0.577 l 2.712,0 C -0.018,8.623 0,8.065 0,7.4 L 0,0 z"
               inkscape:connector-curvature="0" />
          </g>
          <g
             transform="translate(82.2839,725.6356)"
             id="g3025">
            <path
               id="path3027"
               style="fill:#00679f;fill-opacity:1;fill-rule:nonzero;stroke:none"
               d="m 0,0 c 0,-0.979 -0.209,-1.172 -1.573,-1.172 l 0,-0.489 c 0.734,0.017 1.469,0.051 2.203,0.051 0.823,0 1.662,-0.034 2.45,-0.051 l 0,0.489 C 1.819,-1.172 1.577,-1.085 1.577,0 l 0,2.606 C 2.274,2.624 3.009,2.64 3.83,2.64 4.653,2.64 5.388,2.624 6.087,2.606 L 6.087,0 c 0,-1.085 -0.245,-1.172 -1.504,-1.172 l 0,-0.489 c 0.789,0.017 1.625,0.051 2.449,0.051 0.735,0 1.469,-0.034 2.203,-0.051 l 0,0.489 C 7.872,-1.172 7.663,-0.979 7.663,0 l 0,5.352 c 0,1.033 0.243,1.066 1.643,1.066 l 0,0.491 C 8.588,6.892 7.663,6.857 6.979,6.857 6.175,6.857 5.493,6.892 4.583,6.909 l 0,-0.491 c 1.312,0 1.504,-0.033 1.504,-1.066 l 0,-2.118 C 5.388,3.219 4.653,3.202 3.83,3.202 3.009,3.202 2.274,3.219 1.577,3.234 l 0,2.118 c 0,1.033 0.19,1.066 1.503,1.066 l 0,0.491 C 2.169,6.892 1.488,6.857 0.684,6.857 0,6.857 -0.927,6.892 -1.643,6.909 l 0,-0.491 C -0.243,6.418 0,6.385 0,5.352 L 0,0 z"
               inkscape:connector-curvature="0" />
          </g>
          <g
             transform="translate(94.7339,725.916)"
             id="g3029">
            <path
               id="path3031"
               style="fill:#00679f;fill-opacity:1;fill-rule:nonzero;stroke:none"
               d="m 0,0 c 0,-1.242 -0.105,-1.453 -1.504,-1.453 l 0,-0.489 c 0.857,0.018 1.47,0.052 2.256,0.052 0.84,0 1.696,-0.052 2.71,-0.052 0.823,0 1.681,0.018 2.381,0.087 0.069,0.683 0.121,1.486 0.138,2.379 l -0.454,0 C 5.439,-0.054 5.317,-0.577 5.143,-1.051 4.722,-1.172 3.952,-1.259 3.183,-1.259 c -0.594,0 -1.066,0.033 -1.54,0.069 -0.051,0.821 -0.07,1.976 -0.07,3.376 0.282,0.017 0.562,0.034 0.998,0.034 1.521,0 1.661,-0.209 1.661,-1.31 l 0.526,0 C 4.739,1.399 4.722,1.993 4.722,2.536 c 0,0.471 0.017,1.016 0.036,1.486 l -0.526,0 C 4.232,3.042 4.092,2.85 3.254,2.85 2.448,2.85 1.977,2.866 1.573,2.886 1.573,3.899 1.557,5.038 1.61,5.947 1.924,5.999 2.292,6.053 2.711,6.053 3.55,6.053 4.39,5.999 5.071,5.876 5.176,5.509 5.193,5.142 5.247,4.479 l 0.49,0 C 5.772,5.317 5.843,5.982 5.947,6.576 5.388,6.664 4.53,6.716 3.83,6.716 3.201,6.716 2.553,6.681 1.924,6.647 1.294,6.611 0.664,6.576 0.018,6.576 c -0.612,0 -1.102,0.035 -1.644,0.052 l 0,-0.472 C -0.314,6.156 0,6.086 0,4.933 L 0,0 z"
               inkscape:connector-curvature="0" />
          </g>
          <g
             transform="translate(118.2121,725.4948)"
             id="g3033">
            <path
               id="path3035"
               style="fill:#00679f;fill-opacity:1;fill-rule:nonzero;stroke:none"
               d="m 0,0 -0.156,0.175 c -0.805,-0.594 -2.292,-1.048 -3.55,-1.048 -3.465,0 -5.755,2.237 -5.755,5.703 0,2.973 1.731,5.368 5.02,5.368 0.647,0 1.399,-0.104 1.957,-0.297 0.805,-0.297 1.506,-0.595 1.506,-1.086 l 0,-1.257 0.541,0 c 0,0.908 0.158,1.836 0.333,2.659 -0.84,0.295 -2.414,0.715 -4.041,0.715 -1.958,0 -3.743,-0.594 -5.054,-1.679 -1.346,-1.1 -2.134,-2.694 -2.134,-4.705 0,-3.971 2.833,-6.366 7.03,-6.366 1.068,0 2.799,0.332 3.815,0.945 L 0,0 z"
               inkscape:connector-curvature="0" />
          </g>
          <g
             transform="translate(122.7644,730.8491)"
             id="g3037">
            <path
               id="path3039"
               style="fill:#00679f;fill-opacity:1;fill-rule:nonzero;stroke:none"
               d="m 0,0 1.469,-3.43 c -0.578,-0.016 -1.032,-0.035 -1.592,-0.035 -0.507,0 -0.962,0.019 -1.416,0.035 L 0,0 z m 0.087,1.887 -2.903,-6.382 c -0.786,-1.784 -1.067,-1.891 -1.853,-1.891 l 0,-0.489 c 0.786,0.018 1.188,0.051 1.712,0.051 0.63,0 1.242,-0.033 1.819,-0.051 l 0,0.489 c -0.891,0 -1.293,0.139 -1.293,0.629 0,0.648 0.436,1.224 0.594,1.594 0.595,0.016 1.189,0.033 1.767,0.033 0.612,0 1.207,-0.017 1.8,-0.033 0.228,-0.491 0.7,-1.366 0.7,-1.749 0,-0.335 -0.262,-0.474 -1.293,-0.474 l 0,-0.489 c 0.768,0.018 1.417,0.051 2.15,0.051 0.752,0 1.801,-0.033 2.082,-0.051 l 0,0.489 c -0.664,0 -1.032,0.071 -1.574,1.363 l -3.044,6.91 -0.664,0 z"
               inkscape:connector-curvature="0" />
          </g>
          <g
             transform="translate(128.9837,723.9744)"
             id="g3041">
            <path
               id="path3043"
               style="fill:#00679f;fill-opacity:1;fill-rule:nonzero;stroke:none"
               d="M 0,0 C 0.805,0.018 1.594,0.051 2.38,0.051 3.656,0.051 4.269,0.018 4.688,0 l 0,0.489 c -1.33,0 -1.54,0.035 -1.54,0.857 l 0,6.472 c 0.316,0.14 0.737,0.176 1.121,0.176 1.259,0 1.856,-0.508 1.856,-1.644 0,-1.051 -0.805,-1.819 -1.856,-1.819 -0.245,0 -0.437,0.016 -0.63,0.034 l -0.07,-0.28 3.497,-4.234 2.17,0 0,0.438 c -0.542,0 -0.682,0.139 -1.031,0.56 L 5.528,4.322 C 6.367,4.636 7.872,5.054 7.872,6.681 7.872,8.134 6.718,8.57 5.161,8.57 4.234,8.57 3.219,8.518 2.31,8.518 1.47,8.518 0.753,8.57 0,8.57 L 0,8.08 c 1.435,0 1.575,-0.122 1.575,-1.032 l 0,-5.491 C 1.575,0.524 1.259,0.489 0,0.489 L 0,0 z"
               inkscape:connector-curvature="0" />
          </g>
          <g
             transform="translate(141.1873,725.8451)"
             id="g3045">
            <path
               id="path3047"
               style="fill:#00679f;fill-opacity:1;fill-rule:nonzero;stroke:none"
               d="m 0,0 c 0,-1.155 -0.246,-1.259 -1.016,-1.382 l 0,-0.489 c 0.614,0.018 1.085,0.051 1.82,0.051 0.821,0 1.329,-0.051 3.008,-0.051 0.77,0 1.574,0.018 2.15,0.051 0.053,0.824 0.142,1.558 0.298,2.311 l -0.524,0 -0.35,-1.419 c -0.49,-0.173 -1.469,-0.244 -2.554,-0.244 -0.489,0 -0.839,0.017 -1.189,0.036 -0.052,0.559 -0.07,1.031 -0.07,1.627 l 0,4.634 c 0,1.068 0.385,1.084 1.505,1.084 l 0,0.49 C 2.115,6.682 1.259,6.647 0.663,6.647 c -0.803,0 -1.433,0.035 -2.237,0.052 l 0,-0.49 C -0.281,6.209 0,6.193 0,5.388 L 0,0 z"
               inkscape:connector-curvature="0" />
          </g>
          <g
             transform="translate(149.2913,723.9744)"
             id="g3049">
            <path
               id="path3051"
               style="fill:#00679f;fill-opacity:1;fill-rule:nonzero;stroke:none"
               d="M 0,0 C 0.764,0.018 1.389,0.051 2.294,0.051 2.923,0.051 3.832,0.018 4.604,0 l 0,0.489 c -1.051,0 -1.506,0.035 -1.506,1.224 l 0,1.803 c 0.979,1.732 2.083,3.587 3.113,4.758 l 0,0.244 -1.188,0 C 4.393,7.311 3.131,5.071 2.749,4.39 L 1.181,7.294 C 0.78,8.047 0.33,8.518 -0.122,8.676 -0.607,8.534 -1.378,8.466 -1.92,8.378 l 0,-0.49 c 0.631,0 0.824,-0.104 1.555,-1.136 0.47,-0.665 1.111,-1.716 1.894,-3.131 l 0,-2.292 C 1.529,0.752 1.284,0.489 0,0.489 L 0,0 z"
               inkscape:connector-curvature="0" />
          </g>
          <g
             transform="translate(158.3946,725.8451)"
             id="g3053">
            <path
               id="path3055"
               style="fill:#00679f;fill-opacity:1;fill-rule:nonzero;stroke:none"
               d="m 0,0 c 0,-1.155 -0.244,-1.259 -1.015,-1.382 l 0,-0.489 c 0.613,0.018 1.086,0.051 1.819,0.051 0.822,0 1.331,-0.051 3.009,-0.051 0.771,0 1.574,0.018 2.153,0.051 0.054,0.824 0.138,1.558 0.298,2.311 l -0.527,0 -0.35,-1.419 C 4.899,-1.101 3.92,-1.172 2.835,-1.172 c -0.492,0 -0.842,0.017 -1.192,0.036 -0.052,0.559 -0.069,1.031 -0.069,1.627 l 0,4.634 c 0,1.068 0.385,1.084 1.507,1.084 l 0,0.49 C 2.116,6.682 1.259,6.647 0.666,6.647 c -0.806,0 -1.435,0.035 -2.24,0.052 l 0,-0.49 C -0.279,6.209 0,6.193 0,5.388 L 0,0 z"
               inkscape:connector-curvature="0" />
          </g>
          <g
             transform="translate(166.8066,725.916)"
             id="g3057">
            <path
               id="path3059"
               style="fill:#00679f;fill-opacity:1;fill-rule:nonzero;stroke:none"
               d="m 0,0 c 0,-1.242 -0.105,-1.453 -1.505,-1.453 l 0,-0.489 c 0.857,0.018 1.468,0.052 2.257,0.052 0.84,0 1.695,-0.052 2.71,-0.052 0.822,0 1.68,0.018 2.381,0.087 0.068,0.683 0.121,1.486 0.137,2.379 l -0.452,0 C 5.439,-0.054 5.317,-0.577 5.142,-1.051 4.723,-1.172 3.954,-1.259 3.183,-1.259 2.589,-1.259 2.115,-1.226 1.64,-1.19 1.592,-0.369 1.573,0.786 1.573,2.186 1.851,2.203 2.134,2.22 2.57,2.22 4.094,2.22 4.233,2.011 4.233,0.91 l 0.524,0 C 4.739,1.399 4.723,1.993 4.723,2.536 c 0,0.471 0.016,1.016 0.034,1.486 l -0.524,0 C 4.233,3.042 4.094,2.85 3.254,2.85 2.447,2.85 1.974,2.866 1.573,2.886 1.573,3.899 1.556,5.038 1.607,5.947 1.921,5.999 2.29,6.053 2.711,6.053 3.55,6.053 4.389,5.999 5.073,5.876 5.177,5.509 5.194,5.142 5.247,4.479 l 0.489,0 C 5.771,5.317 5.843,5.982 5.946,6.576 5.388,6.664 4.529,6.716 3.829,6.716 3.201,6.716 2.553,6.681 1.921,6.647 1.294,6.611 0.663,6.576 0.016,6.576 c -0.61,0 -1.101,0.035 -1.642,0.052 l 0,-0.472 C -0.314,6.156 0,6.086 0,4.933 L 0,0 z"
               inkscape:connector-curvature="0" />
          </g>
          <g
             transform="translate(188.6379,725.7397)"
             id="g3061">
            <path
               id="path3063"
               style="fill:#00679f;fill-opacity:1;fill-rule:nonzero;stroke:none"
               d="m 0,0 c 0,-0.437 -0.014,-0.524 -0.087,-0.716 -0.103,-0.315 -1.101,-0.613 -2.451,-0.613 -3.6,0 -5.63,2.502 -5.63,5.985 0,3.111 1.732,5.297 5.055,5.297 1.139,0 1.888,-0.122 2.45,-0.313 0.821,-0.3 1.451,-0.579 1.451,-1.401 l 0,-0.926 0.541,0 c 0,0.908 0.141,1.836 0.349,2.659 -0.803,0.227 -2.167,0.715 -4.336,0.715 -4.215,0 -7.38,-2.483 -7.38,-6.33 0,-4.391 3.15,-6.42 7.048,-6.42 1.206,0 3.095,0.455 4.6,0.894 l 0,2.937 c 0,0.505 0,0.576 0.192,0.646 L 2.31,2.588 2.241,3.026 C 1.522,3.01 0.809,2.99 0.088,2.99 c -0.698,0 -1.417,0.02 -2.134,0.036 l 0,-0.525 1.45,-0.122 C -0.137,2.344 0,2.169 0,1.768 L 0,0 z"
               inkscape:connector-curvature="0" />
          </g>
          <g
             transform="translate(192.63,723.9744)"
             id="g3065">
            <path
               id="path3067"
               style="fill:#00679f;fill-opacity:1;fill-rule:nonzero;stroke:none"
               d="M 0,0 C 0.803,0.018 1.59,0.051 2.378,0.051 3.656,0.051 4.27,0.018 4.686,0 l 0,0.489 c -1.328,0 -1.538,0.035 -1.538,0.857 l 0,6.472 c 0.314,0.14 0.737,0.176 1.122,0.176 1.258,0 1.852,-0.508 1.852,-1.644 0,-1.051 -0.807,-1.819 -1.852,-1.819 -0.247,0 -0.44,0.016 -0.631,0.034 l -0.071,-0.28 3.496,-4.234 2.17,0 0,0.438 c -0.542,0 -0.682,0.139 -1.033,0.56 L 5.528,4.322 C 6.364,4.636 7.871,5.054 7.871,6.681 7.871,8.134 6.718,8.57 5.161,8.57 4.235,8.57 3.219,8.518 2.307,8.518 1.468,8.518 0.752,8.57 0,8.57 L 0,8.08 c 1.434,0 1.573,-0.122 1.573,-1.032 l 0,-5.491 C 1.573,0.524 1.257,0.489 0,0.489 L 0,0 z"
               inkscape:connector-curvature="0" />
          </g>
          <g
             transform="translate(207.202,732.1421)"
             id="g3069">
            <path
               id="path3071"
               style="fill:#00679f;fill-opacity:1;fill-rule:nonzero;stroke:none"
               d="m 0,0 c 2.169,0 3.079,-1.818 3.079,-3.989 0,-1.678 -0.524,-3.671 -2.587,-3.671 -2.453,0 -3.183,2.273 -3.183,4.196 C -2.691,-1.259 -1.505,0 0,0 m 0.334,0.594 c -2.539,0 -4.776,-1.573 -4.776,-4.583 0,-2.798 2.413,-4.372 4.514,-4.372 2.971,0 4.757,2.414 4.757,4.776 0,2.151 -1.488,4.179 -4.495,4.179"
               inkscape:connector-curvature="0" />
          </g>
          <g
             transform="translate(215.8861,731.3566)"
             id="g3073">
            <path
               id="path3075"
               style="fill:#00679f;fill-opacity:1;fill-rule:nonzero;stroke:none"
               d="m 0,0 c 0,0.506 0.209,0.697 1.33,0.734 l 0,0.454 C 0.316,1.17 -0.245,1.136 -0.802,1.136 -1.54,1.136 -2.29,1.17 -3.043,1.188 l 0,-0.491 c 1.017,0 1.471,-0.085 1.471,-0.873 l 0,-4.092 c 0,-2.116 0.663,-3.307 3.567,-3.307 2.937,0 3.447,1.661 3.447,3.463 l 0,3.761 c 0,0.926 0.224,1.048 1.487,1.048 l 0,0.491 C 6.473,1.17 5.896,1.136 5.124,1.136 c -0.61,0 -1.24,0.034 -1.869,0.052 l 0,-0.491 c 1.363,0 1.487,-0.156 1.487,-1.117 l 0,-3.78 c 0,-1.782 -0.858,-2.466 -2.38,-2.466 C 0.561,-6.666 0,-5.739 0,-4.234 L 0,0 z"
               inkscape:connector-curvature="0" />
          </g>
          <g
             transform="translate(225.6255,725.5313)"
             id="g3077">
            <path
               id="path3079"
               style="fill:#00679f;fill-opacity:1;fill-rule:nonzero;stroke:none"
               d="m 0,0 c 0,-0.805 -0.315,-1.068 -1.574,-1.068 l 0,-0.489 c 0.805,0.018 1.593,0.051 2.378,0.051 1.276,0 1.889,-0.033 2.31,-0.051 l 0,0.489 C 1.784,-0.997 1.574,-0.805 1.574,0 l 0,6.296 c 0.298,0.088 0.629,0.211 1.085,0.211 1.051,0 1.889,-0.666 1.889,-1.714 0,-1.088 -0.525,-1.819 -1.749,-1.819 -0.21,0 -0.421,0.051 -0.56,0.138 L 2.342,2.588 C 2.501,2.518 2.799,2.446 3.114,2.446 5.211,2.446 6.189,3.831 6.189,5.003 6.189,6.192 5.596,7.1 3.237,7.1 2.782,7.1 2.327,7.065 1.889,7.032 1.451,6.996 1.034,6.961 0.577,6.961 c -0.718,0 -1.661,0.035 -2.151,0.052 l 0,-0.49 C -0.141,6.523 0,6.401 0,5.491 L 0,0 z"
               inkscape:connector-curvature="0" />
          </g>
        </g>
      </g>
      <path
         id="path3081"
         style="fill:#00679f;fill-opacity:1;fill-rule:nonzero;stroke:none"
         d="m 65.136,740.67067 253.345,0 0,0.92933 -253.345,0 0,-0.92933 z"
         inkscape:connector-curvature="0" />
      <path
         id="path3083"
         style="fill:#00679f;fill-opacity:1;fill-rule:nonzero;stroke:none"
         d="m 65.136,705.65715 253.345,0 0,0.92933 -253.345,0 0,-0.92933 z"
         inkscape:connector-curvature="0" />
      <g
         id="g3085" />
    </g>
  </g>
</svg>
