<?xml version="1.0" encoding="UTF-8" ?>
<!DOCTYPE svg PUBLIC "-//W3C//DTD SVG 1.1//EN" "http://www.w3.org/Graphics/SVG/1.1/DTD/svg11.dtd">
<svg width="1927pt" height="283pt" viewBox="0 0 1927 283" version="1.1" xmlns="http://www.w3.org/2000/svg">
<path fill="#fefefd" d=" M 0.00 0.00 L 1927.00 0.00 L 1927.00 283.00 L 0.00 283.00 L 0.00 0.00 Z" />
<path fill="#040403" d=" M 1563.02 5.22 C 1577.65 4.94 1592.29 5.81 1606.93 5.21 C 1611.91 5.18 1616.91 5.16 1621.91 5.24 C 1620.96 17.08 1620.67 28.96 1620.13 40.82 C 1600.79 40.58 1581.47 40.67 1562.15 40.81 C 1562.42 28.94 1563.25 17.10 1563.02 5.22 Z" />
<path fill="#040403" d=" M 492.85 8.65 C 515.22 9.73 537.62 8.96 559.99 8.22 C 579.61 8.13 599.33 7.09 618.86 9.47 C 635.50 11.45 652.03 17.93 664.19 29.70 C 679.14 43.74 686.46 64.04 689.17 83.97 C 667.49 83.64 645.79 83.69 624.12 82.95 C 621.38 73.12 616.14 63.24 607.18 57.82 C 600.96 53.99 593.70 52.31 586.50 51.68 C 574.51 50.18 562.46 51.55 550.46 52.02 C 549.76 61.95 549.85 71.92 549.06 81.85 C 529.19 81.80 509.33 81.32 489.47 80.83 C 490.03 77.25 490.01 73.61 490.10 69.99 C 490.58 50.66 491.49 31.35 491.18 12.00 C 491.22 10.72 490.76 8.35 492.85 8.65 Z" />
<path fill="#fefefd" d=" M 550.46 52.02 C 562.46 51.55 574.51 50.18 586.50 51.68 C 593.70 52.31 600.96 53.99 607.18 57.82 C 616.14 63.24 621.38 73.12 624.12 82.95 C 609.40 82.44 594.66 83.07 579.95 82.38 C 569.64 82.47 559.36 81.80 549.06 81.85 C 549.85 71.92 549.76 61.95 550.46 52.02 Z" />
<path fill="#040403" d=" M 965.92 67.77 C 979.71 57.78 997.37 55.08 1014.04 55.68 C 1027.17 56.43 1041.04 59.04 1051.48 67.59 C 1058.46 72.99 1062.89 81.15 1064.66 89.71 C 1008.41 88.96 952.16 87.93 895.91 87.27 C 896.14 77.98 896.45 68.69 896.37 59.40 C 902.56 59.42 908.76 59.31 914.95 59.43 C 928.54 60.14 942.12 59.09 955.72 59.44 C 955.12 65.89 954.90 72.37 954.12 78.79 C 957.86 74.92 961.43 70.81 965.92 67.77 Z" />
<path fill="#040403" d=" M 1112.38 64.94 C 1137.49 59.27 1163.18 55.26 1188.99 55.63 C 1200.50 55.92 1212.10 57.51 1222.98 61.42 C 1231.56 64.81 1240.13 70.32 1243.95 79.08 C 1246.02 83.28 1246.71 87.97 1247.28 92.56 C 1227.52 92.26 1207.76 91.75 1188.00 91.66 C 1185.67 91.72 1183.37 91.34 1181.23 90.45 C 1176.16 87.95 1170.42 88.33 1164.95 88.37 C 1158.96 88.44 1153.06 89.50 1147.16 90.38 C 1134.39 91.29 1121.55 90.37 1108.76 90.43 C 1110.10 81.96 1111.32 73.45 1112.38 64.94 Z" />
<path fill="#040403" d=" M 1367.45 57.54 C 1378.76 54.94 1390.71 54.89 1402.02 57.55 C 1409.85 59.43 1417.46 63.23 1422.74 69.44 C 1425.19 72.31 1427.02 75.62 1428.98 78.83 C 1433.60 72.90 1438.53 66.85 1445.25 63.22 C 1454.89 57.86 1466.04 55.67 1477.00 55.61 C 1487.22 55.45 1497.57 57.09 1506.98 61.17 C 1515.93 65.41 1523.46 73.14 1526.25 82.77 C 1527.72 87.28 1527.87 92.04 1527.86 96.73 C 1473.24 95.99 1418.63 95.02 1364.01 94.28 C 1336.38 93.60 1308.74 93.77 1281.12 92.82 C 1281.52 81.72 1281.70 70.61 1281.68 59.50 C 1294.37 59.01 1307.07 60.01 1319.76 59.56 C 1325.70 59.25 1331.66 59.41 1337.61 59.42 C 1337.66 65.64 1336.95 71.84 1336.76 78.06 C 1341.24 73.17 1345.27 67.70 1351.10 64.27 C 1352.78 63.46 1354.63 61.22 1356.59 62.57 C 1356.61 62.31 1356.64 61.78 1356.66 61.51 C 1359.79 59.20 1363.77 58.54 1367.45 57.54 Z" />
<path fill="#040403" d=" M 1692.86 59.76 C 1704.29 56.71 1716.16 55.42 1727.98 55.63 C 1743.69 55.47 1759.35 57.62 1774.58 61.39 C 1775.36 74.47 1775.85 87.56 1776.89 100.61 C 1767.95 100.12 1758.96 100.73 1750.07 99.49 C 1745.06 98.76 1739.99 98.88 1734.96 99.06 C 1725.67 100.28 1716.30 99.42 1706.98 99.47 C 1688.26 99.36 1669.56 98.56 1650.85 98.67 C 1658.29 80.40 1673.74 65.27 1692.86 59.76 Z" />
<path fill="#040403" d=" M 1841.03 57.97 C 1866.61 52.83 1892.84 57.00 1918.31 60.79 C 1918.78 74.60 1919.80 88.38 1920.39 102.19 C 1908.49 97.63 1895.80 94.73 1882.99 95.34 C 1876.51 95.54 1868.38 95.64 1864.56 101.85 C 1844.76 101.49 1824.95 101.43 1805.16 100.83 C 1804.52 91.60 1807.33 82.35 1812.66 74.82 C 1819.01 65.22 1830.16 60.39 1841.03 57.97 Z" />
<path fill="#040403" d=" M 702.87 59.44 C 709.25 59.35 715.63 59.37 722.02 59.40 C 735.25 60.13 748.50 59.04 761.74 59.42 C 763.56 68.12 766.45 76.56 768.27 85.26 C 749.28 84.86 730.29 84.69 711.30 84.39 C 708.44 76.09 705.54 67.80 702.87 59.44 Z" />
<path fill="#040403" d=" M 821.76 62.12 C 822.31 61.14 822.40 59.15 824.03 59.43 C 831.37 59.31 838.72 59.31 846.05 59.64 C 857.44 59.69 868.81 59.16 880.20 59.40 C 876.26 68.54 872.11 77.58 868.19 86.73 C 849.64 86.54 831.10 86.29 812.55 85.84 C 815.64 77.94 818.77 70.06 821.76 62.12 Z" />
<path fill="#040403" d=" M 1561.11 59.50 C 1575.09 58.96 1589.07 60.18 1603.05 59.40 C 1609.15 59.42 1615.27 59.24 1621.38 59.56 C 1620.45 72.32 1619.02 85.04 1618.52 97.82 C 1598.99 98.01 1579.45 97.44 1559.92 97.27 C 1560.45 84.81 1560.37 72.33 1560.75 59.87 L 1561.11 59.50 Z" />
<path fill="#e5a22f" d=" M 15.95 75.98 C 48.63 75.70 81.31 75.99 113.99 75.83 C 117.47 75.84 121.02 75.47 124.43 76.38 C 124.03 85.77 122.74 95.12 123.33 104.54 C 120.90 104.99 118.44 105.49 115.97 105.19 C 102.03 103.45 87.97 104.46 73.97 104.18 C 68.47 103.94 63.01 104.78 57.51 104.65 C 56.31 111.98 55.88 119.41 56.25 126.84 C 64.51 126.40 72.73 127.13 80.97 127.32 C 90.69 126.48 100.45 126.81 110.20 126.75 C 112.14 128.97 110.99 132.33 111.14 135.04 C 110.20 141.92 109.94 148.87 110.26 155.81 C 91.63 156.78 72.91 155.21 54.34 157.43 C 52.92 165.12 53.32 172.96 53.26 180.74 C 67.52 180.99 81.77 180.72 96.01 179.93 C 103.55 179.64 111.13 180.32 118.62 179.16 C 119.38 182.73 119.52 186.42 118.84 190.02 C 117.70 196.21 118.68 202.53 117.73 208.74 C 112.85 209.59 107.90 209.19 102.99 209.24 C 74.33 209.26 45.67 209.23 17.01 209.26 C 14.39 209.25 11.79 208.96 9.19 208.68 C 9.40 194.74 11.67 180.93 12.04 167.00 C 12.96 160.33 12.61 153.57 13.41 146.89 C 14.20 139.95 13.47 132.94 14.25 126.00 C 15.22 117.02 14.25 107.97 15.22 99.00 C 15.92 91.34 15.78 83.66 15.95 75.98 Z" />
<path fill="#e5a22f" d=" M 436.56 95.91 C 442.18 86.90 452.58 81.93 462.94 81.08 C 471.76 80.42 480.63 80.87 489.47 80.83 C 509.33 81.32 529.19 81.80 549.06 81.85 C 559.36 81.80 569.64 82.47 579.95 82.38 C 594.66 83.07 609.40 82.44 624.12 82.95 C 645.79 83.69 667.49 83.64 689.17 83.97 C 696.54 84.29 703.92 84.24 711.30 84.39 C 730.29 84.69 749.28 84.86 768.27 85.26 C 774.17 85.41 780.08 85.17 785.96 85.75 C 794.82 86.02 803.69 85.75 812.55 85.84 C 831.10 86.29 849.64 86.54 868.19 86.73 C 877.44 86.72 886.68 86.74 895.91 87.27 C 952.16 87.93 1008.41 88.96 1064.66 89.71 C 1079.37 89.76 1094.05 90.23 1108.76 90.43 C 1121.55 90.37 1134.39 91.29 1147.16 90.38 C 1155.37 91.62 1163.67 91.12 1171.94 91.47 C 1175.03 91.44 1178.35 91.95 1181.23 90.45 C 1183.37 91.34 1185.67 91.72 1188.00 91.66 C 1207.76 91.75 1227.52 92.26 1247.28 92.56 C 1258.55 93.09 1269.84 92.60 1281.12 92.82 C 1308.74 93.77 1336.38 93.60 1364.01 94.28 C 1418.63 95.02 1473.24 95.99 1527.86 96.73 C 1538.56 96.62 1549.24 96.93 1559.92 97.27 C 1579.45 97.44 1598.99 98.01 1618.52 97.82 C 1629.26 98.65 1640.08 98.22 1650.85 98.67 C 1669.56 98.56 1688.26 99.36 1706.98 99.47 C 1716.30 99.42 1725.67 100.28 1734.96 99.06 C 1739.99 98.88 1745.06 98.76 1750.07 99.49 C 1758.96 100.73 1767.95 100.12 1776.89 100.61 C 1786.32 101.36 1795.72 100.64 1805.16 100.83 C 1824.95 101.43 1844.76 101.49 1864.56 101.85 C 1879.39 102.92 1894.29 101.65 1909.13 102.54 C 1902.76 102.85 1896.39 102.72 1890.03 102.82 C 1881.50 102.62 1872.95 103.89 1864.49 102.42 C 1864.46 103.09 1864.40 104.44 1864.37 105.12 C 1864.31 104.57 1864.19 103.49 1864.12 102.94 C 1844.47 103.03 1824.81 103.30 1805.17 102.87 C 1795.80 102.64 1786.41 102.64 1777.05 102.88 C 1773.91 103.03 1770.78 103.15 1767.67 103.29 C 1751.75 103.11 1735.76 103.12 1719.88 103.40 C 1709.93 102.67 1699.95 103.28 1689.99 103.05 C 1676.40 103.13 1662.81 102.97 1649.23 103.16 C 1638.84 103.40 1628.45 103.13 1618.07 103.09 C 1598.60 103.08 1579.13 103.01 1559.66 103.17 C 1558.89 103.19 1557.35 103.24 1556.58 103.27 C 1556.57 103.63 1556.54 104.37 1556.53 104.73 L 1556.54 103.26 C 1546.98 103.15 1537.42 103.32 1527.87 103.17 C 1505.57 103.00 1483.28 103.02 1460.99 103.15 C 1459.63 103.29 1458.05 103.02 1457.00 104.02 C 1453.78 102.36 1449.73 103.63 1446.20 103.15 C 1446.32 103.52 1446.56 104.26 1446.68 104.63 C 1446.32 104.32 1445.61 103.70 1445.25 103.39 C 1435.51 102.64 1425.72 103.26 1415.96 103.06 C 1399.56 103.26 1383.13 102.66 1366.74 103.39 C 1361.53 103.15 1356.31 103.29 1351.11 103.19 C 1327.68 102.94 1304.24 103.08 1280.81 103.12 C 1280.77 103.54 1280.68 104.39 1280.64 104.82 C 1280.48 104.45 1280.16 103.72 1280.00 103.36 C 1269.03 102.99 1258.03 103.43 1247.05 103.15 C 1226.93 103.06 1206.80 102.94 1186.68 103.20 C 1146.32 103.22 1105.96 103.29 1065.61 103.17 C 1046.09 102.94 1026.56 103.13 1007.04 103.07 C 1000.13 103.17 993.18 102.68 986.30 103.62 C 984.42 103.82 982.53 103.79 980.67 103.59 C 976.79 103.09 972.89 102.99 968.99 103.05 C 944.40 103.18 919.80 102.89 895.21 103.20 C 883.80 103.30 872.40 103.25 860.99 103.18 C 842.70 102.88 824.41 103.23 806.12 102.98 C 795.21 103.44 784.29 103.20 773.38 103.18 C 754.83 102.90 736.28 103.20 717.72 103.01 C 708.52 103.35 699.29 103.36 690.08 103.00 C 668.80 103.20 647.51 102.91 626.22 103.16 C 600.17 103.30 574.11 103.24 548.06 103.15 C 528.25 103.05 508.43 102.94 488.62 103.20 C 482.42 103.60 473.95 101.30 470.41 108.13 C 454.05 144.43 438.43 181.08 422.70 217.67 C 418.29 227.47 414.71 238.13 406.73 245.73 C 401.01 251.44 393.09 253.99 385.35 255.50 C 380.31 256.62 375.13 256.03 370.02 256.20 C 363.08 256.44 356.31 254.61 349.53 253.36 C 348.49 247.93 348.07 242.40 347.25 236.94 C 346.80 232.95 345.76 228.99 346.21 224.96 C 351.75 226.47 357.11 229.12 363.02 228.76 C 369.35 229.33 376.42 227.51 380.12 221.94 C 382.99 217.77 386.92 212.55 384.58 207.31 C 377.09 184.87 369.73 162.39 362.19 139.97 C 358.57 129.81 354.91 119.65 351.93 109.29 C 360.95 109.31 369.96 109.30 378.98 109.31 C 382.85 109.17 386.73 108.84 390.60 109.38 C 393.15 115.95 394.17 122.98 396.32 129.69 C 398.63 138.51 401.03 147.32 403.38 156.14 C 404.63 163.15 406.38 170.07 407.54 177.10 C 414.43 153.97 422.70 131.27 431.90 108.97 C 433.73 104.71 434.59 100.10 436.56 95.91 Z" />
<path fill="#fefefd" d=" M 1147.16 90.38 C 1153.06 89.50 1158.96 88.44 1164.95 88.37 C 1170.42 88.33 1176.16 87.95 1181.23 90.45 C 1178.35 91.95 1175.03 91.44 1171.94 91.47 C 1163.67 91.12 1155.37 91.62 1147.16 90.38 Z" />
<path fill="#040403" d=" M 488.62 103.20 C 508.43 102.94 528.25 103.05 548.06 103.15 C 547.52 123.73 546.30 144.28 545.58 164.85 C 562.22 165.80 579.37 166.16 595.40 160.89 C 596.03 161.20 596.69 161.51 597.36 161.79 L 595.36 160.70 C 607.75 155.69 616.85 144.60 621.17 132.15 C 624.24 122.81 626.34 113.03 626.22 103.16 C 647.51 102.91 668.80 103.20 690.08 103.00 C 689.91 120.79 686.19 138.59 679.01 154.87 C 670.85 173.35 656.48 189.24 638.25 198.17 C 628.66 203.45 617.78 205.62 607.03 206.99 C 585.81 209.62 564.38 209.07 543.05 208.80 C 522.66 208.92 502.28 208.25 481.91 209.11 C 485.19 173.89 487.71 138.58 488.62 103.20 Z" />
<path fill="#fefefd" d=" M 548.06 103.15 C 574.11 103.24 600.17 103.30 626.22 103.16 C 626.34 113.03 624.24 122.81 621.17 132.15 C 616.85 144.60 607.75 155.69 595.36 160.70 L 597.36 161.79 C 596.69 161.51 596.03 161.20 595.40 160.89 C 579.37 166.16 562.22 165.80 545.58 164.85 C 546.30 144.28 547.52 123.73 548.06 103.15 Z" />
<path fill="#040403" d=" M 717.72 103.01 C 736.28 103.20 754.83 102.90 773.38 103.18 C 778.31 122.91 784.25 142.52 786.30 162.83 C 791.60 142.47 798.86 122.70 806.12 102.98 C 824.41 103.23 842.70 102.88 860.99 103.18 C 843.31 142.42 826.74 182.16 809.51 221.62 C 802.95 236.29 797.76 252.42 785.70 263.69 C 774.15 274.98 757.61 279.07 741.96 280.27 C 727.67 280.71 713.30 279.23 699.39 275.87 C 697.83 261.21 695.69 246.59 693.27 232.04 C 704.06 237.04 715.97 240.69 727.98 239.09 C 733.46 238.13 739.00 236.00 742.80 231.78 C 747.74 225.97 752.25 219.43 753.84 211.84 C 741.92 175.53 729.86 139.25 717.72 103.01 Z" />
<path fill="#fefefd" d=" M 773.38 103.18 C 784.29 103.20 795.21 103.44 806.12 102.98 C 798.86 122.70 791.60 142.47 786.30 162.83 C 784.25 142.52 778.31 122.91 773.38 103.18 Z" />
<path fill="#040403" d=" M 895.21 103.20 C 919.80 102.89 944.40 103.18 968.99 103.05 C 972.89 102.99 976.79 103.09 980.67 103.59 C 971.79 104.19 964.24 110.32 959.65 117.62 C 954.22 126.47 952.85 136.99 951.56 147.10 C 949.30 167.65 948.84 188.34 947.97 208.98 C 941.62 208.96 935.27 209.13 928.93 208.86 C 915.03 208.51 901.14 209.30 887.24 208.91 C 891.79 173.85 894.03 138.51 895.21 103.20 Z" />
<path fill="#040403" d=" M 986.30 103.62 C 993.18 102.68 1000.13 103.17 1007.04 103.07 C 1026.56 103.13 1046.09 102.94 1065.61 103.17 C 1065.45 118.16 1064.04 133.12 1063.67 148.12 C 1062.82 168.39 1061.47 188.66 1061.60 208.95 C 1041.55 208.83 1021.51 208.86 1001.47 208.96 C 1003.72 184.03 1004.93 159.00 1005.63 133.97 C 1005.49 126.46 1005.28 118.45 1001.19 111.87 C 997.84 107.04 992.21 103.81 986.30 103.62 Z" />
<path fill="#040403" d=" M 1186.68 103.20 C 1206.80 102.94 1226.93 103.06 1247.05 103.15 C 1246.04 127.47 1243.42 151.70 1242.79 176.04 C 1242.56 187.06 1241.70 198.05 1241.77 209.07 C 1227.51 209.08 1213.25 208.47 1198.99 209.00 C 1193.83 208.98 1188.67 209.06 1183.52 208.94 C 1186.13 186.93 1186.84 164.76 1188.21 142.66 C 1177.50 148.51 1165.21 150.21 1154.01 154.81 C 1150.27 156.57 1146.62 158.90 1144.21 162.33 C 1140.59 167.93 1142.86 176.59 1149.36 178.91 C 1157.68 182.01 1166.97 180.24 1175.17 177.50 C 1171.22 188.45 1168.41 199.77 1164.96 210.87 C 1154.41 212.85 1143.64 213.10 1132.94 212.70 C 1121.00 211.81 1108.45 208.94 1099.35 200.68 C 1089.38 191.13 1084.01 176.70 1086.04 162.97 C 1087.28 152.97 1093.15 144.12 1100.30 137.27 C 1109.01 128.89 1120.69 124.82 1132.04 121.40 C 1146.00 117.13 1160.58 115.45 1174.62 111.47 C 1179.27 110.00 1184.56 108.03 1186.68 103.20 Z" />
<path fill="#040403" d=" M 1280.81 103.12 C 1304.24 103.08 1327.68 102.94 1351.11 103.19 L 1351.27 103.56 C 1344.70 107.68 1341.21 115.11 1339.57 122.44 C 1337.09 133.76 1337.04 145.42 1336.05 156.92 C 1335.33 174.25 1334.29 191.57 1334.46 208.91 C 1321.99 209.30 1309.52 208.56 1297.05 208.84 C 1289.76 209.21 1282.46 208.84 1275.17 209.09 C 1276.36 181.01 1278.70 152.98 1279.70 124.89 C 1280.25 118.21 1280.07 111.49 1280.64 104.82 C 1280.68 104.39 1280.77 103.54 1280.81 103.12 Z" />
<path fill="#040403" d=" M 1366.74 103.39 C 1383.13 102.66 1399.56 103.26 1415.96 103.06 C 1425.72 103.26 1435.51 102.64 1445.25 103.39 C 1436.31 109.43 1433.52 120.89 1432.10 130.95 C 1429.42 156.86 1429.53 182.95 1428.58 208.96 C 1414.72 209.26 1400.86 208.40 1387.00 208.98 C 1381.06 208.97 1375.12 209.13 1369.19 208.87 C 1371.73 184.02 1372.55 159.01 1373.95 134.07 C 1373.99 126.78 1374.75 119.33 1372.76 112.20 C 1371.36 108.84 1369.81 105.12 1366.34 103.42 L 1366.74 103.39 Z" />
<path fill="#040403" d=" M 1460.99 103.15 C 1483.28 103.02 1505.57 103.00 1527.87 103.17 C 1526.10 126.08 1525.10 149.04 1523.85 171.99 C 1523.49 184.31 1522.46 196.61 1522.64 208.94 C 1509.41 209.24 1496.17 208.41 1482.94 208.96 C 1476.61 209.06 1470.28 208.97 1463.95 209.00 C 1465.64 180.68 1467.90 152.37 1468.41 123.99 C 1468.42 116.58 1467.74 107.70 1460.99 103.15 Z" />
<path fill="#040403" d=" M 1559.66 103.17 C 1579.13 103.01 1598.60 103.08 1618.07 103.09 C 1616.33 132.03 1616.38 161.02 1615.81 189.99 C 1615.82 196.32 1615.76 202.65 1615.86 208.98 C 1602.92 209.20 1589.99 208.61 1577.05 208.83 C 1568.99 209.23 1560.93 208.82 1552.87 209.07 C 1557.04 173.92 1558.90 138.55 1559.66 103.17 Z" />
<path fill="#040403" d=" M 1649.23 103.16 C 1662.81 102.97 1676.40 103.13 1689.99 103.05 C 1699.95 103.28 1709.93 102.67 1719.88 103.40 C 1710.61 107.57 1704.88 117.11 1703.41 126.92 C 1701.93 137.26 1702.38 148.65 1708.28 157.65 C 1713.64 165.24 1723.14 168.60 1732.09 169.33 C 1746.03 170.04 1759.92 166.92 1772.91 162.02 C 1770.78 177.24 1767.93 192.36 1765.66 207.56 C 1753.91 210.03 1742.05 212.11 1730.06 212.73 C 1717.64 213.00 1705.02 213.19 1692.95 209.86 C 1690.50 209.01 1687.17 209.14 1686.09 206.32 C 1685.76 206.71 1685.45 207.10 1685.17 207.49 C 1668.03 200.38 1653.40 186.02 1648.26 167.93 C 1641.63 147.02 1642.03 123.87 1649.23 103.16 Z" />
<path fill="#040403" d=" M 1767.67 103.29 C 1770.78 103.15 1773.91 103.03 1777.05 102.88 C 1777.05 103.69 1777.06 105.29 1777.06 106.09 C 1773.91 105.20 1770.76 104.31 1767.67 103.29 Z" />
<path fill="#040403" d=" M 1805.17 102.87 C 1824.81 103.30 1844.47 103.03 1864.12 102.94 C 1864.19 103.49 1864.31 104.57 1864.37 105.12 C 1864.20 109.07 1867.68 111.48 1870.38 113.74 C 1878.53 119.50 1886.80 125.09 1894.75 131.13 C 1901.65 136.53 1908.56 142.44 1912.59 150.40 C 1920.27 164.54 1918.33 184.12 1906.23 195.23 C 1899.21 202.55 1889.58 206.72 1879.98 209.49 C 1853.10 216.15 1825.14 211.84 1798.44 206.49 C 1797.58 191.66 1795.80 176.90 1794.28 162.12 C 1806.09 166.91 1818.25 171.17 1830.92 172.95 C 1838.42 173.36 1846.49 173.94 1853.40 170.39 C 1857.31 168.54 1859.56 162.97 1856.83 159.26 C 1853.10 154.48 1847.68 151.48 1842.99 147.77 C 1834.22 141.00 1824.88 134.83 1817.25 126.71 C 1810.51 120.52 1806.54 111.82 1805.17 102.87 Z" />
<path fill="#e5a22f" d=" M 152.65 112.69 C 171.54 109.08 190.73 105.58 210.04 106.97 C 219.28 108.35 229.22 110.08 236.29 116.72 C 241.19 121.34 242.56 128.46 242.19 134.95 C 242.59 148.36 240.10 161.61 240.00 175.00 C 238.69 186.32 239.79 197.73 238.59 209.05 C 225.78 209.23 212.90 209.72 200.11 208.66 C 200.70 201.78 201.37 194.91 201.82 188.02 C 201.54 180.65 203.17 173.37 202.77 165.99 C 200.12 166.39 197.55 167.13 195.08 168.17 C 188.67 170.72 181.46 171.67 175.75 175.74 C 173.12 177.44 173.20 180.67 173.11 183.43 L 174.79 183.39 C 174.31 183.45 173.33 183.56 172.84 183.62 C 172.94 185.99 174.50 187.27 176.78 186.50 C 176.27 186.89 175.25 187.65 174.73 188.03 C 180.56 191.89 187.71 189.67 194.15 189.37 C 191.64 196.27 190.30 203.56 187.41 210.33 C 183.98 210.98 180.49 211.42 176.99 211.23 C 170.32 210.98 163.51 211.89 156.98 210.09 C 149.70 208.17 142.18 204.21 138.96 197.02 C 135.40 191.40 134.15 184.54 135.07 177.99 C 135.88 171.74 139.72 166.40 143.72 161.74 C 150.37 155.41 159.33 152.36 168.01 150.01 C 177.83 146.88 188.42 146.51 197.93 142.42 C 201.51 140.82 202.90 136.90 202.31 133.19 C 199.11 129.22 193.94 127.78 189.00 128.15 C 175.22 128.78 161.89 132.91 149.05 137.71 C 149.83 129.31 151.94 121.10 152.65 112.69 Z" />
<path fill="#e5a22f" d=" M 284.84 109.09 C 294.24 105.95 304.26 106.73 314.00 106.88 C 322.47 107.98 331.05 108.68 339.40 110.52 C 338.77 119.60 341.44 128.69 339.65 137.72 C 330.69 133.54 320.47 132.50 310.72 133.61 C 307.76 134.21 303.35 135.09 303.45 138.96 C 303.48 143.49 307.88 145.60 311.01 147.97 C 319.31 154.22 328.87 159.42 334.62 168.39 C 339.62 176.70 339.23 187.35 334.97 195.89 C 329.40 202.74 321.42 207.61 312.78 209.45 C 312.65 209.68 312.40 210.12 312.27 210.35 C 306.47 210.21 300.76 211.69 294.95 211.22 C 283.08 211.68 271.33 209.60 259.77 207.17 C 258.47 197.80 258.43 188.30 256.84 178.97 C 257.08 177.34 259.03 178.73 259.95 178.90 C 270.26 183.54 281.78 186.11 293.06 184.24 C 296.72 183.71 299.49 180.36 298.70 176.62 C 292.05 169.02 282.75 164.52 275.44 157.62 C 271.48 154.88 269.06 150.65 266.52 146.68 C 261.78 137.98 263.64 126.95 269.15 119.06 C 272.95 113.95 278.74 110.68 284.84 109.09 Z" />
</svg>
