<?xml version="1.0" encoding="UTF-8" ?>
<!DOCTYPE svg PUBLIC "-//W3C//DTD SVG 1.1//EN" "http://www.w3.org/Graphics/SVG/1.1/DTD/svg11.dtd">
<svg width="1055pt" height="948pt" viewBox="0 0 1055 948" version="1.1" xmlns="http://www.w3.org/2000/svg">
<path fill="#fefefe" d=" M 0.00 0.00 L 1055.00 0.00 L 1055.00 707.64 C 707.51 707.65 360.02 707.63 12.53 707.66 C 12.51 708.61 12.48 710.51 12.46 711.46 C 359.98 711.50 707.49 711.47 1055.00 711.48 L 1055.00 948.00 L 37.87 948.00 C 44.51 947.41 49.77 942.51 53.14 937.09 C 56.24 931.89 57.94 925.97 58.95 920.04 C 60.42 911.44 61.91 902.85 63.42 894.26 C 65.77 894.27 68.12 894.28 70.48 894.32 C 70.91 893.11 71.34 891.91 71.76 890.73 C 69.19 890.70 66.61 890.71 64.04 890.70 C 65.23 885.62 65.83 880.38 67.56 875.45 C 68.65 872.70 70.77 869.54 74.01 869.46 C 77.31 870.91 80.38 873.18 84.18 872.96 C 84.11 871.17 85.16 868.90 83.44 867.61 C 79.17 864.27 73.04 866.06 69.13 869.13 C 62.34 874.37 59.82 883.08 58.06 891.10 C 55.87 891.48 53.69 891.87 51.50 892.28 C 51.49 892.78 51.48 893.77 51.47 894.27 C 53.49 894.28 55.51 894.30 57.52 894.35 C 55.21 906.56 53.29 918.85 50.96 931.07 C 49.78 935.99 48.41 942.02 43.32 944.33 C 40.55 945.71 38.03 943.46 35.70 942.26 C 34.02 941.06 31.91 941.25 29.96 941.13 C 29.78 942.48 29.45 943.85 29.55 945.24 C 30.76 946.65 32.54 947.34 34.23 948.00 L 0.00 948.00 L 0.00 590.38 C 14.40 590.34 28.79 590.41 43.19 590.35 C 43.19 589.44 43.20 587.62 43.20 586.71 C 39.14 586.50 34.62 587.33 31.03 584.98 C 28.33 582.89 27.61 579.19 27.60 575.97 C 27.57 566.79 27.63 557.61 27.60 548.44 C 33.60 548.91 39.66 548.17 45.63 548.67 C 59.58 558.70 69.40 573.35 82.74 584.10 C 92.07 591.57 104.62 592.59 116.12 592.21 C 118.14 592.70 118.00 590.06 118.74 588.95 C 114.05 588.26 109.32 587.39 105.03 585.30 C 97.75 582.00 91.85 576.45 86.47 570.66 C 77.54 561.59 69.14 551.97 59.39 543.74 C 65.36 541.51 71.09 538.04 74.67 532.62 C 80.84 523.80 80.92 511.19 74.62 502.43 C 70.40 496.52 63.66 492.96 56.79 491.08 C 48.40 488.81 39.62 488.58 30.98 488.77 C 20.65 489.38 10.32 489.76 0.00 490.41 L 0.00 0.00 Z" />
<path fill="#22221f" d=" M 514.40 8.25 C 516.96 7.33 519.69 5.41 522.47 6.77 C 524.75 7.79 527.22 8.12 529.70 8.21 C 529.72 10.44 529.76 12.67 529.81 14.90 C 529.41 14.67 528.62 14.22 528.22 13.99 C 527.29 9.26 522.14 7.37 517.83 8.23 C 516.24 9.92 515.72 12.10 515.62 14.36 C 519.76 19.48 526.57 22.05 529.71 28.05 C 530.95 29.96 530.18 32.18 529.63 34.17 C 527.23 37.59 523.09 39.49 518.93 38.78 C 515.99 38.61 512.86 36.29 510.31 38.61 C 510.24 35.48 510.00 32.36 510.12 29.23 C 512.17 32.03 513.35 36.07 517.11 37.05 C 520.62 38.51 524.71 36.50 526.14 33.09 C 526.70 30.33 524.38 28.26 522.68 26.45 C 519.99 24.35 517.22 22.36 514.59 20.19 C 512.21 17.38 510.56 13.73 512.48 10.19 C 513.13 9.55 513.76 8.91 514.40 8.25 Z" />
<path fill="#22221f" d=" M 461.61 10.88 C 465.82 9.24 470.42 9.63 474.75 8.48 C 479.16 7.13 483.61 9.12 487.38 11.29 C 488.31 13.71 489.93 16.28 488.86 18.95 C 488.13 21.58 485.91 23.25 483.96 24.95 C 488.77 27.26 492.08 31.67 496.68 34.29 C 499.15 35.47 501.84 36.13 504.45 36.96 C 498.61 38.84 492.20 37.36 487.85 33.06 C 487.05 32.48 486.26 31.90 485.47 31.33 C 483.57 29.39 481.22 28.00 479.09 26.34 C 477.22 26.76 475.37 27.19 473.51 27.61 C 474.14 31.04 474.60 34.50 474.77 37.99 C 476.79 38.24 478.81 38.42 480.84 38.69 C 476.14 41.35 470.57 40.70 465.41 40.57 C 466.77 40.03 468.15 39.55 469.54 39.07 C 470.08 29.98 468.55 20.87 466.63 12.01 C 464.97 11.54 463.27 11.32 461.61 10.88 Z" />
<path fill="#fefefe" d=" M 473.00 25.85 C 473.40 20.37 471.26 15.15 471.34 9.68 C 474.93 10.14 479.37 8.83 482.11 11.87 C 484.74 15.63 485.08 22.05 480.60 24.58 C 478.49 26.45 475.54 25.68 473.00 25.85 Z" />
<path fill="#22221f" d=" M 543.77 10.28 C 547.94 10.96 552.15 11.66 555.99 13.52 C 554.92 13.65 552.78 13.90 551.70 14.03 C 549.63 19.50 548.77 25.34 547.67 31.06 C 546.74 34.03 545.73 37.01 545.67 40.17 C 547.05 41.08 548.43 41.97 549.83 42.87 C 545.35 42.28 540.78 41.91 536.61 39.99 C 537.89 39.67 539.15 39.43 540.46 39.20 C 541.21 37.87 541.95 36.50 542.18 34.96 C 543.60 27.96 545.25 21.00 546.26 13.94 C 545.54 12.64 544.62 11.48 543.77 10.28 Z" />
<path fill="#22221f" d=" M 432.06 20.00 C 437.42 18.36 442.70 16.44 448.14 15.11 C 449.01 16.97 449.82 18.85 450.66 20.73 C 450.35 20.76 449.73 20.80 449.42 20.83 C 448.39 19.78 447.34 18.74 446.28 17.73 C 442.59 18.89 438.89 20.07 435.13 20.99 C 435.68 22.94 436.30 24.88 437.05 26.77 C 437.41 28.78 438.15 30.68 439.11 32.48 C 442.44 31.49 445.85 30.57 448.75 28.56 C 448.76 27.65 448.77 25.83 448.77 24.92 C 450.91 27.87 452.10 31.29 452.99 34.79 C 451.71 33.72 450.48 32.59 449.10 31.67 C 445.89 32.05 442.93 33.57 439.90 34.64 C 440.57 38.32 442.43 41.60 443.34 45.20 C 443.74 45.44 444.53 45.93 444.93 46.17 C 447.30 45.38 449.68 44.62 452.02 43.72 C 452.54 43.64 453.60 43.48 454.13 43.40 C 454.91 42.70 455.69 42.02 456.49 41.33 C 456.50 39.66 456.54 37.99 456.59 36.32 C 457.01 36.33 457.87 36.35 458.30 36.35 C 458.39 38.78 458.69 41.19 459.39 43.52 C 455.38 44.98 451.32 46.27 447.27 47.59 C 443.01 49.60 438.50 51.04 433.87 51.89 C 435.47 50.83 437.11 49.85 438.78 48.90 C 439.05 45.65 437.68 42.71 436.86 39.66 C 434.81 34.35 432.77 29.04 431.05 23.62 C 429.23 22.70 427.25 23.23 425.35 23.49 C 427.47 22.13 429.57 20.62 432.06 20.00 Z" />
<path fill="#22221f" d=" M 565.06 23.24 C 565.75 20.51 566.92 17.94 568.23 15.46 C 575.85 19.58 584.37 21.89 592.17 25.69 C 592.95 25.74 594.50 25.82 595.28 25.86 C 594.68 28.42 594.25 31.06 592.83 33.31 C 592.62 31.56 592.50 29.79 592.41 28.03 C 589.43 26.25 586.07 25.31 582.83 24.18 C 579.44 32.14 576.76 40.39 573.20 48.27 C 573.80 49.07 574.41 49.87 575.05 50.66 C 576.35 51.18 577.72 51.72 578.52 52.98 C 573.13 51.47 567.68 49.71 562.97 46.60 C 564.90 46.77 566.82 46.89 568.77 46.99 C 572.34 38.95 575.64 30.81 578.67 22.54 C 575.82 20.86 572.59 20.03 569.64 18.58 C 567.99 20.01 566.49 21.60 565.06 23.24 Z" />
<path fill="#22221f" d=" M 406.28 31.96 C 409.74 30.64 412.47 27.69 416.25 27.19 C 415.46 28.15 414.63 29.07 413.80 29.99 C 414.70 40.52 417.00 50.91 418.84 61.32 C 417.22 63.94 414.78 62.40 413.19 60.62 C 406.26 55.32 399.37 49.97 392.51 44.59 C 391.02 43.14 388.94 44.24 387.19 44.42 C 387.39 43.90 387.59 43.39 387.81 42.88 C 391.79 41.13 395.27 38.48 399.04 36.33 C 399.17 36.57 399.42 37.06 399.55 37.31 C 397.83 38.36 396.29 39.69 395.65 41.66 C 400.67 45.16 405.17 49.32 410.13 52.88 C 411.79 54.25 413.52 55.54 415.35 56.69 C 415.27 54.02 414.65 51.43 413.70 48.95 C 413.91 43.85 412.38 38.98 411.68 33.99 C 411.31 33.45 410.56 32.38 410.19 31.84 C 408.95 32.46 407.74 33.10 406.52 33.73 C 406.46 33.29 406.34 32.40 406.28 31.96 Z" />
<path fill="#22221f" d=" M 604.64 31.38 C 608.65 33.87 612.85 36.20 616.27 39.50 L 616.90 39.60 L 614.24 40.89 L 615.82 40.00 C 614.98 39.53 613.30 38.59 612.47 38.12 C 612.02 43.84 612.20 49.58 611.73 55.30 C 614.04 54.22 616.33 53.08 618.71 52.13 C 621.27 50.92 623.83 49.68 626.21 48.12 C 625.43 47.11 624.66 46.10 623.89 45.09 C 624.48 45.15 625.67 45.27 626.27 45.33 C 628.62 47.14 631.01 48.93 633.51 50.55 C 633.32 50.73 632.95 51.11 632.76 51.29 C 626.63 49.05 621.55 54.36 616.05 56.16 C 611.53 57.54 609.42 61.81 606.73 65.25 C 606.68 66.01 606.57 67.51 606.52 68.27 C 607.99 68.66 609.02 69.51 608.97 71.17 C 604.70 68.79 600.62 66.02 597.10 62.61 C 598.55 63.00 599.97 63.44 601.41 63.91 C 604.16 61.89 606.03 58.92 607.41 55.86 C 608.07 50.59 607.97 45.26 608.17 39.96 C 608.62 36.59 605.86 34.23 604.64 31.38 Z" />
<path fill="#22221f" d=" M 369.26 58.58 C 372.42 55.69 375.37 52.06 379.61 50.79 C 378.75 52.10 377.05 53.23 377.43 54.99 C 379.03 58.39 382.19 60.61 384.40 63.57 C 387.23 67.33 390.11 71.10 393.50 74.38 C 395.07 74.50 396.65 74.55 398.23 74.54 C 396.07 76.30 393.83 77.97 391.90 80.00 C 390.72 80.70 389.47 81.25 388.17 81.67 C 388.65 80.88 389.63 79.30 390.12 78.51 C 386.15 71.96 380.67 66.55 375.96 60.56 C 375.53 60.04 374.67 59.00 374.23 58.48 C 372.57 58.52 370.92 58.56 369.26 58.58 Z" />
<path fill="#22221f" d=" M 352.53 75.30 C 354.81 71.55 357.80 68.22 361.15 65.40 C 360.61 66.94 359.87 68.39 359.04 69.80 C 365.91 77.13 374.72 82.40 381.59 89.72 C 368.94 90.44 356.42 92.78 343.72 92.66 C 345.01 93.69 346.32 94.72 347.65 95.71 C 351.01 98.52 354.24 101.50 357.75 104.13 C 359.32 105.54 361.02 106.81 362.82 107.93 C 364.23 106.70 365.70 105.54 367.23 104.46 C 366.52 105.83 365.76 107.18 364.97 108.50 C 363.02 110.56 361.11 112.67 358.94 114.50 C 359.40 113.20 359.89 111.93 360.44 110.67 C 358.31 107.08 354.44 105.20 351.48 102.43 C 348.02 99.03 344.02 96.27 340.35 93.11 C 338.72 93.84 337.09 94.55 335.44 95.22 C 337.21 92.74 339.34 90.54 341.27 88.19 C 352.33 88.52 363.23 85.83 374.31 86.49 C 368.99 82.26 364.20 77.41 358.63 73.48 C 356.63 71.16 354.60 74.85 352.53 75.30 Z" />
<path fill="#22221f" d=" M 462.76 74.50 C 475.27 69.24 488.96 68.51 502.34 68.11 C 500.10 69.71 497.63 70.91 495.17 72.10 C 482.40 78.78 472.72 89.91 464.62 101.58 C 460.89 107.67 456.84 113.63 454.03 120.21 C 452.38 123.37 454.33 126.73 455.35 129.75 C 459.27 139.20 464.72 147.99 470.87 156.15 C 473.45 137.65 477.87 119.43 483.80 101.71 C 486.03 95.55 488.68 89.53 491.61 83.68 C 494.49 77.93 499.11 73.39 502.98 68.34 C 503.60 68.31 504.85 68.24 505.47 68.20 C 505.24 75.41 505.71 82.64 504.75 89.81 C 504.52 100.47 504.18 111.13 504.29 121.80 C 504.28 122.32 504.26 123.36 504.25 123.88 C 504.24 125.03 504.22 126.18 504.20 127.34 C 503.38 149.39 503.88 171.48 503.49 193.54 C 492.46 182.32 481.68 170.74 472.26 158.12 C 471.88 158.18 471.13 158.31 470.76 158.38 C 469.72 166.57 468.66 174.76 467.46 182.93 C 467.36 191.34 465.54 199.63 465.70 208.05 C 465.76 215.78 465.74 223.51 465.36 231.24 C 457.37 222.60 449.55 213.77 442.61 204.26 C 439.22 199.98 436.44 195.25 432.97 191.04 C 433.04 188.75 433.02 186.45 433.46 184.19 C 435.82 173.70 437.75 163.08 441.03 152.82 C 444.53 142.73 447.52 132.38 452.61 122.93 C 451.82 118.98 450.97 115.02 450.55 111.00 C 450.03 105.55 451.76 100.25 453.32 95.10 C 446.51 100.66 441.11 107.68 435.72 114.57 C 431.13 120.24 427.59 126.66 423.86 132.91 C 420.88 137.91 419.01 143.51 415.74 148.35 C 416.03 154.07 418.54 159.31 420.11 164.74 C 422.80 173.51 428.04 181.14 432.06 189.30 C 432.66 197.88 429.89 206.37 429.98 214.97 C 429.93 219.53 429.69 224.08 429.51 228.63 C 419.97 227.51 410.36 226.83 400.92 225.00 L 400.12 224.85 L 399.66 224.79 C 399.72 207.30 402.24 189.83 407.14 173.04 C 409.62 165.52 411.51 157.72 415.34 150.72 C 414.56 144.49 413.02 138.29 413.65 131.97 C 414.29 126.14 415.57 120.35 417.68 114.87 C 401.75 132.97 390.14 154.77 383.60 177.95 C 379.67 191.43 377.20 205.43 377.16 219.51 C 372.76 218.93 368.78 216.95 364.68 215.42 C 363.84 214.67 362.98 213.99 362.16 213.24 C 362.46 213.22 363.07 213.17 363.37 213.15 C 364.54 207.79 363.77 202.24 364.90 196.88 C 366.13 190.86 366.91 184.75 368.58 178.83 C 378.83 142.24 402.81 109.40 435.42 89.65 C 431.20 94.35 426.55 98.71 423.11 104.05 C 421.08 107.13 419.75 110.59 418.21 113.93 C 426.72 104.10 436.70 95.62 447.48 88.38 C 455.28 83.56 463.15 78.60 472.02 75.97 C 464.44 80.16 457.87 86.17 453.85 93.92 C 460.00 88.60 466.43 83.55 473.41 79.36 C 480.02 75.86 486.86 72.76 493.89 70.19 C 485.47 70.86 476.84 71.25 468.96 74.56 C 458.70 77.42 449.09 81.98 439.74 87.01 C 446.47 81.24 454.58 77.67 462.76 74.50 Z" />
<path fill="#edce0d" d=" M 502.34 68.11 L 502.51 68.00 C 503.49 68.06 504.48 68.13 505.47 68.20 C 504.85 68.24 503.60 68.31 502.98 68.34 C 499.11 73.39 494.49 77.93 491.61 83.68 C 488.68 89.53 486.03 95.55 483.80 101.71 C 477.87 119.43 473.45 137.65 470.87 156.15 C 464.72 147.99 459.27 139.20 455.35 129.75 C 454.33 126.73 452.38 123.37 454.03 120.21 C 456.84 113.63 460.89 107.67 464.62 101.58 C 472.72 89.91 482.40 78.78 495.17 72.10 C 497.63 70.91 500.10 69.71 502.34 68.11 Z" />
<path fill="#f9123c" d=" M 505.75 68.50 C 513.32 69.39 520.55 72.21 527.33 75.60 C 538.02 80.12 547.07 87.67 555.31 95.70 C 562.76 102.91 568.75 111.40 574.95 119.67 C 579.31 119.17 583.69 118.54 587.79 116.88 C 592.45 116.63 596.54 114.13 601.05 113.21 C 603.12 111.94 605.13 110.44 605.98 108.05 C 611.33 112.78 615.04 118.90 619.24 124.59 C 620.95 128.54 622.65 132.86 621.11 137.16 C 613.54 136.29 608.79 129.51 605.53 123.29 C 599.42 124.24 594.01 127.81 587.81 128.37 C 594.13 137.89 598.44 148.53 603.10 158.91 C 603.20 159.70 603.38 161.27 603.47 162.06 C 605.81 161.13 608.29 159.72 610.89 160.58 C 614.74 162.63 618.36 165.58 620.05 169.72 C 623.36 176.25 624.73 183.93 622.40 191.01 C 621.31 192.43 620.32 193.97 618.91 195.08 C 617.04 195.37 615.16 195.36 613.29 195.48 C 613.88 196.97 614.49 198.45 615.13 199.92 C 616.64 205.19 616.61 210.62 615.17 215.90 C 613.26 219.38 610.95 225.11 606.07 224.14 C 605.19 218.75 605.18 212.80 604.67 207.18 C 602.89 195.38 601.90 183.34 597.88 171.99 C 594.55 158.76 588.93 146.25 582.90 134.06 C 579.84 129.40 577.96 124.04 574.42 119.70 C 569.78 121.26 564.78 120.35 560.07 121.57 C 555.76 122.69 551.30 122.16 546.93 122.63 C 532.79 124.65 518.48 123.66 504.25 123.88 C 504.26 123.36 504.28 122.32 504.29 121.80 C 505.19 118.86 506.25 115.73 508.88 113.87 C 512.17 110.84 517.01 111.52 520.92 112.78 C 518.47 108.50 518.60 103.17 521.56 99.18 C 524.73 96.20 529.33 97.28 532.58 99.51 C 537.04 102.81 541.09 107.58 541.03 113.45 C 548.16 113.95 555.12 112.09 562.19 111.58 C 555.18 102.17 547.35 93.14 537.93 86.06 C 537.52 86.67 536.71 87.89 536.30 88.50 C 533.79 89.12 531.23 88.72 528.74 88.26 C 523.07 85.52 516.73 81.66 516.25 74.67 C 515.67 74.61 514.51 74.48 513.93 74.42 C 511.10 72.60 508.05 71.01 505.75 68.50 Z" />
<path fill="#edce0d" d=" M 494.38 69.34 C 495.54 68.38 496.25 68.57 496.50 69.92 C 495.32 70.88 494.61 70.68 494.38 69.34 Z" />
<path fill="#f9123c" d=" M 522.83 69.66 C 523.84 69.37 524.85 69.12 525.89 68.90 C 538.70 70.76 551.06 74.77 563.06 79.56 C 565.47 80.56 567.88 81.60 570.05 83.08 C 575.34 85.61 580.48 88.44 585.28 91.80 C 586.18 92.48 587.10 93.17 587.99 93.87 C 584.15 92.41 580.46 90.18 576.24 90.07 C 576.38 97.86 584.99 100.84 589.34 106.14 C 584.75 108.13 579.64 107.62 574.93 109.12 C 566.13 100.52 557.77 91.38 547.75 84.14 C 549.67 83.55 550.28 81.59 548.32 80.55 C 544.17 76.94 538.91 75.01 533.99 72.73 C 530.34 71.46 526.44 71.08 522.83 69.66 Z" />
<path fill="#edce0d" d=" M 468.96 74.56 C 476.84 71.25 485.47 70.86 493.89 70.19 C 486.86 72.76 480.02 75.86 473.41 79.36 C 466.43 83.55 460.00 88.60 453.85 93.92 C 457.87 86.17 464.44 80.16 472.02 75.97 C 463.15 78.60 455.28 83.56 447.48 88.38 C 436.70 95.62 426.72 104.10 418.21 113.93 C 419.75 110.59 421.08 107.13 423.11 104.05 C 426.55 98.71 431.20 94.35 435.42 89.65 C 402.81 109.40 378.83 142.24 368.58 178.83 C 366.91 184.75 366.13 190.86 364.90 196.88 C 363.77 202.24 364.54 207.79 363.37 213.15 C 363.07 213.17 362.46 213.22 362.16 213.24 C 361.78 213.24 361.02 213.24 360.63 213.24 C 356.99 207.33 359.08 200.26 359.96 193.89 C 360.48 188.85 361.27 183.83 362.56 178.93 C 365.42 169.36 367.98 159.60 372.69 150.73 C 388.08 118.22 416.19 92.17 449.44 78.61 C 453.84 77.15 458.10 75.04 462.76 74.50 C 454.58 77.67 446.47 81.24 439.74 87.01 C 449.09 81.98 458.70 77.42 468.96 74.56 Z" />
<path fill="#22221f" d=" M 649.57 81.43 C 652.47 80.72 655.53 79.79 658.54 80.50 C 663.86 80.83 667.78 84.96 671.29 88.56 C 673.86 93.64 676.42 99.84 673.37 105.30 C 671.63 110.27 666.95 113.47 661.90 114.36 C 658.38 115.44 654.84 114.13 651.41 113.43 C 648.82 111.89 646.52 109.95 644.62 107.63 C 639.71 102.04 638.78 93.60 642.44 87.12 C 644.76 85.17 646.85 82.86 649.57 81.43 Z" />
<path fill="#fefefe" d=" M 646.42 90.38 C 649.72 86.78 653.93 83.60 659.06 83.59 C 664.35 83.07 669.30 87.08 670.81 92.02 C 671.82 96.01 671.22 100.28 669.12 103.81 C 667.16 105.71 665.14 107.54 663.23 109.49 C 659.56 111.52 655.22 112.44 651.13 111.28 C 647.30 109.72 644.94 105.75 644.06 101.86 C 643.06 97.87 644.83 93.96 646.42 90.38 Z" />
<path fill="#edce0d" d=" M 435.72 114.57 C 441.11 107.68 446.51 100.66 453.32 95.10 C 451.76 100.25 450.03 105.55 450.55 111.00 C 450.97 115.02 451.82 118.98 452.61 122.93 C 447.52 132.38 444.53 142.73 441.03 152.82 C 437.75 163.08 435.82 173.70 433.46 184.19 C 433.02 186.45 433.04 188.75 432.97 191.04 C 436.44 195.25 439.22 199.98 442.61 204.26 C 449.55 213.77 457.37 222.60 465.36 231.24 C 465.74 223.51 465.76 215.78 465.70 208.05 C 465.54 199.63 467.36 191.34 467.46 182.93 C 468.66 174.76 469.72 166.57 470.76 158.38 C 471.13 158.31 471.88 158.18 472.26 158.12 C 481.68 170.74 492.46 182.32 503.49 193.54 C 503.49 206.25 503.32 218.95 503.41 231.66 C 490.63 231.77 477.83 232.00 465.07 231.29 C 457.36 230.95 449.75 229.51 442.03 229.45 C 437.84 229.43 433.65 229.31 429.51 228.63 C 429.69 224.08 429.93 219.53 429.98 214.97 C 429.89 206.37 432.66 197.88 432.06 189.30 C 428.04 181.14 422.80 173.51 420.11 164.74 C 418.54 159.31 416.03 154.07 415.74 148.35 C 419.01 143.51 420.88 137.91 423.86 132.91 C 427.59 126.66 431.13 120.24 435.72 114.57 Z" />
<path fill="#22221f" d=" M 328.35 106.02 C 328.61 104.91 329.68 104.67 330.61 104.39 C 330.39 106.09 328.75 108.19 330.49 109.61 C 336.17 114.41 344.74 115.11 349.42 121.28 C 350.54 123.96 352.34 126.84 351.28 129.85 C 350.04 133.69 348.99 137.90 345.85 140.68 C 343.02 143.59 338.93 145.00 334.91 144.48 C 328.73 141.97 322.93 138.61 316.73 136.15 C 316.27 136.34 315.34 136.72 314.87 136.90 C 314.14 137.73 313.40 138.54 312.64 139.34 C 314.01 134.81 315.97 130.39 318.72 126.51 C 318.69 128.45 318.52 130.42 319.06 132.32 C 324.73 134.09 329.49 137.88 335.10 139.80 C 337.97 140.61 341.01 140.01 343.53 138.49 C 345.37 135.76 348.08 133.32 348.38 129.86 C 348.94 127.56 348.26 125.24 347.87 122.98 C 342.70 118.34 336.14 115.79 329.89 112.99 C 327.63 111.88 326.06 114.61 324.07 115.20 C 325.41 112.10 326.98 109.10 328.35 106.02 Z" />
<path fill="#edce0d" d=" M 383.60 177.95 C 390.14 154.77 401.75 132.97 417.68 114.87 C 415.57 120.35 414.29 126.14 413.65 131.97 C 413.02 138.29 414.56 144.49 415.34 150.72 C 411.51 157.72 409.62 165.52 407.14 173.04 C 402.24 189.83 399.72 207.30 399.66 224.79 C 399.12 224.73 398.06 224.62 397.52 224.56 C 390.62 223.67 384.07 221.05 377.17 220.16 L 377.16 219.51 C 377.20 205.43 379.67 191.43 383.60 177.95 Z" />
<path fill="#22221f" d=" M 686.50 114.34 C 691.08 120.26 692.48 127.99 696.87 134.06 C 694.77 135.39 692.69 136.81 690.22 137.37 C 691.33 135.98 692.45 134.61 693.55 133.22 C 692.66 131.27 691.79 129.33 690.81 127.44 C 690.18 125.59 689.32 123.84 688.41 122.12 C 687.99 122.58 687.57 123.03 687.16 123.48 C 684.12 124.46 681.29 125.97 678.56 127.59 C 679.35 129.02 680.05 130.51 680.64 132.04 C 680.84 132.33 681.22 132.89 681.42 133.17 C 681.93 134.73 682.51 136.28 683.58 137.57 C 685.07 137.55 686.61 137.58 688.10 137.87 C 684.83 139.36 681.55 140.81 678.25 142.24 C 679.12 140.83 680.75 139.76 680.88 138.00 C 680.02 134.57 678.18 131.53 676.73 128.34 C 673.15 130.26 669.32 131.66 665.74 133.55 C 663.62 134.93 665.43 137.24 665.61 139.13 C 662.61 137.04 662.04 132.83 660.19 129.79 C 659.93 129.38 659.42 128.54 659.17 128.12 C 661.26 128.91 663.60 130.31 665.74 128.77 C 672.61 125.06 679.92 122.22 686.69 118.31 C 686.64 117.31 686.54 115.33 686.50 114.34 Z" />
<path fill="#f9123c" d=" M 504.20 127.34 C 505.64 132.20 509.28 136.93 514.59 137.65 C 517.92 138.93 521.29 137.24 524.50 136.36 C 522.92 145.07 529.35 153.68 537.88 155.30 C 543.32 156.46 549.58 153.32 551.33 147.91 C 552.32 143.33 551.62 138.51 549.38 134.40 C 556.99 132.63 564.94 133.48 572.53 131.61 C 574.04 132.56 574.81 134.11 575.27 135.79 C 579.31 145.21 583.30 154.76 585.86 164.70 C 583.26 164.66 580.45 164.06 578.07 165.45 C 575.36 166.65 574.16 169.53 572.59 171.83 C 571.04 177.77 571.12 184.37 574.13 189.85 C 576.34 194.04 579.36 198.48 584.21 199.75 C 587.02 200.73 589.92 199.56 592.72 199.20 C 591.23 208.11 592.49 218.66 600.39 224.30 C 601.57 224.66 602.75 225.04 603.93 225.44 C 594.44 226.99 584.86 227.65 575.32 228.73 C 564.06 229.18 552.84 230.01 541.64 231.11 C 541.88 231.56 542.38 232.46 542.63 232.91 C 542.29 232.48 541.61 231.63 541.27 231.20 C 528.58 231.83 515.89 231.41 503.20 231.67 C 503.35 244.20 503.08 256.74 503.40 269.28 C 503.55 288.31 503.58 307.34 503.80 326.37 C 500.73 319.63 492.85 317.35 486.01 317.63 C 484.62 318.29 483.21 318.90 481.83 319.53 C 481.90 315.99 481.94 312.20 479.40 309.39 C 473.67 302.79 463.44 299.32 455.30 303.44 C 453.92 305.05 452.34 306.62 451.77 308.73 C 451.27 311.41 452.63 313.87 453.59 316.28 C 454.01 316.78 454.85 317.79 455.27 318.30 C 446.77 316.69 438.06 316.93 429.56 315.30 C 428.68 313.83 427.79 312.37 426.88 310.93 C 426.74 310.43 426.46 309.44 426.32 308.94 C 422.05 302.08 420.03 294.09 417.39 286.51 C 421.16 287.52 426.13 288.54 429.00 285.10 C 432.33 281.48 431.66 276.38 431.48 271.88 C 430.17 264.95 425.62 258.96 419.80 255.13 C 417.21 253.93 414.17 253.41 411.42 254.42 C 413.85 243.87 411.27 230.45 400.92 225.00 C 410.36 226.83 419.97 227.51 429.51 228.63 C 433.65 229.31 437.84 229.43 442.03 229.45 C 449.75 229.51 457.36 230.95 465.07 231.29 C 477.83 232.00 490.63 231.77 503.41 231.66 C 503.32 218.95 503.49 206.25 503.49 193.54 C 503.88 171.48 503.38 149.39 504.20 127.34 Z" />
<path fill="#22221f" d=" M 317.81 202.93 C 321.83 200.05 327.13 200.21 331.20 202.90 C 331.91 205.03 333.61 207.29 332.51 209.58 C 331.94 212.27 329.14 213.21 327.09 214.51 C 329.87 215.50 331.97 217.59 333.73 219.88 C 334.20 223.29 333.54 226.58 331.20 229.19 C 329.12 230.04 327.22 231.41 324.96 231.73 C 322.32 231.78 320.05 230.24 317.72 229.23 C 317.01 228.25 316.28 227.28 315.56 226.32 C 315.59 224.48 315.55 222.65 315.73 220.83 C 316.77 218.55 319.26 217.40 321.36 216.28 C 319.18 214.52 317.19 212.55 315.44 210.37 C 315.31 207.64 316.30 205.15 317.81 202.93 Z" />
<path fill="#22221f" d=" M 294.01 208.48 C 296.83 206.13 299.34 203.44 302.02 200.94 C 302.43 200.91 303.26 200.85 303.68 200.82 C 303.93 210.24 303.68 219.68 303.79 229.11 C 305.59 229.16 307.40 229.24 309.21 229.41 C 308.89 229.72 308.25 230.33 307.93 230.64 C 303.85 230.96 299.74 230.82 295.67 230.56 C 296.52 228.59 298.81 229.34 300.48 229.05 C 300.75 221.04 300.52 213.02 300.60 205.01 C 298.63 206.52 296.68 208.44 294.01 208.48 Z" />
<path fill="#fefefe" d=" M 319.10 205.95 C 318.80 203.12 322.22 202.76 324.03 201.59 C 327.47 202.13 329.43 204.88 330.52 207.96 C 329.24 210.09 327.97 212.26 326.10 213.92 C 323.01 212.17 317.79 210.58 319.10 205.95 Z" />
<path fill="#22221f" d=" M 676.83 204.07 C 681.40 203.93 686.09 204.63 690.54 203.26 C 690.33 204.65 690.11 206.05 689.92 207.45 C 686.05 207.52 682.19 207.51 678.33 207.48 C 678.17 209.96 677.96 212.44 677.75 214.92 C 681.38 214.15 685.44 214.00 688.56 216.35 C 691.99 219.31 693.82 224.82 690.90 228.75 C 688.37 234.69 680.96 234.35 675.70 233.23 C 673.67 232.77 674.53 230.50 674.30 229.03 C 677.10 228.84 678.90 230.99 680.92 232.54 C 683.33 233.57 685.41 231.53 687.14 230.11 C 689.24 226.07 688.87 219.70 683.89 218.10 C 681.29 216.45 678.61 218.79 676.10 219.45 C 675.72 214.30 676.30 209.18 676.83 204.07 Z" />
<path fill="#22221f" d=" M 699.46 212.40 C 702.64 207.84 707.77 204.57 713.18 203.34 C 710.24 206.40 706.10 208.06 703.59 211.55 C 702.35 213.51 701.60 215.72 700.80 217.87 C 703.15 217.18 705.35 215.72 707.83 215.57 C 712.22 216.39 716.69 220.23 715.91 225.08 C 716.05 227.27 714.72 229.10 713.94 231.04 C 712.77 231.84 711.62 232.66 710.50 233.50 C 706.88 233.30 702.20 234.82 699.81 231.17 C 695.94 225.76 696.38 218.08 699.46 212.40 Z" />
<path fill="#22221f" d=" M 646.12 214.41 C 648.77 212.98 650.85 210.79 653.14 208.89 C 653.50 216.95 652.43 224.98 651.18 232.92 C 651.03 239.48 648.98 245.76 647.58 252.12 C 646.14 256.68 645.18 261.42 642.88 265.67 C 639.89 274.02 636.04 282.07 631.15 289.50 C 629.53 292.04 628.03 294.65 626.36 297.16 C 622.09 302.59 618.02 308.19 613.31 313.25 C 612.42 314.03 611.55 314.83 610.67 315.61 C 609.77 316.67 608.90 317.75 608.04 318.84 C 605.11 320.88 602.76 323.61 599.78 325.56 C 605.33 319.51 611.47 313.97 616.44 307.39 C 628.73 291.38 638.10 272.88 642.24 253.04 C 645.65 240.68 646.35 227.83 646.10 215.07 L 646.12 214.41 Z" />
<path fill="#edce0d" d=" M 630.41 220.13 C 635.84 219.07 640.85 216.71 646.10 215.07 C 646.35 227.83 645.65 240.68 642.24 253.04 C 638.10 272.88 628.73 291.38 616.44 307.39 C 611.47 313.97 605.33 319.51 599.78 325.56 C 595.55 329.95 590.23 333.07 585.15 336.36 C 589.71 332.36 594.41 328.15 596.26 322.14 C 584.78 333.83 571.74 344.26 556.56 350.69 C 554.69 351.47 552.75 352.06 550.80 352.56 C 555.84 350.69 558.73 346.08 562.37 342.47 C 575.65 331.76 585.36 317.25 592.41 301.84 C 594.69 297.22 592.20 292.30 589.57 288.46 C 585.05 280.51 579.11 273.55 573.63 266.27 C 574.57 261.58 575.11 256.81 574.98 252.02 C 574.80 244.25 575.49 236.49 575.32 228.73 C 584.86 227.65 594.44 226.99 603.93 225.44 C 604.40 225.53 605.34 225.70 605.81 225.78 C 606.54 232.18 605.57 238.60 605.38 245.00 C 604.40 262.50 600.81 279.84 594.44 296.20 C 595.45 301.14 597.39 305.94 597.48 311.04 C 597.55 314.39 597.35 317.74 597.29 321.09 C 615.98 299.28 626.78 271.41 629.88 243.01 C 629.81 235.37 630.93 227.76 630.41 220.13 Z" />
<path fill="#fefefe" d=" M 319.24 219.59 C 320.21 218.80 321.15 218.00 322.08 217.16 C 325.38 216.78 327.66 219.37 330.16 221.07 C 330.21 223.07 330.23 225.08 330.26 227.09 C 328.02 229.15 324.85 231.19 321.83 229.34 C 317.86 227.86 318.45 222.89 319.24 219.59 Z" />
<path fill="#fefefe" d=" M 700.80 219.91 C 702.75 218.27 705.27 216.86 707.92 217.29 C 709.80 218.07 711.80 219.71 711.51 221.98 C 711.30 225.35 712.55 229.50 709.81 232.12 C 708.01 233.52 705.66 232.78 703.64 232.51 C 700.84 228.99 700.00 224.28 700.80 219.91 Z" />
<path fill="#22221f" d=" M 613.09 224.07 C 618.94 223.10 624.66 221.58 630.41 220.13 C 630.93 227.76 629.81 235.37 629.88 243.01 C 626.78 271.41 615.98 299.28 597.29 321.09 C 597.35 317.74 597.55 314.39 597.48 311.04 C 597.39 305.94 595.45 301.14 594.44 296.20 C 600.81 279.84 604.40 262.50 605.38 245.00 C 605.57 238.60 606.54 232.18 605.81 225.78 L 606.08 225.06 C 608.28 224.08 610.75 224.45 613.09 224.07 Z" />
<path fill="#f9123c" d=" M 397.52 224.56 C 398.06 224.62 399.12 224.73 399.66 224.79 L 400.12 224.85 C 399.25 239.69 401.07 254.56 403.68 269.13 C 405.89 279.01 409.01 288.70 413.18 297.93 C 414.83 302.56 417.74 306.56 419.82 310.98 C 422.50 315.29 424.96 319.77 428.20 323.71 C 417.43 321.28 404.98 320.67 396.98 312.02 C 391.01 304.57 383.80 297.42 381.12 288.01 C 382.52 288.81 383.89 289.68 385.25 290.56 C 389.83 296.16 394.43 301.77 397.99 308.10 C 399.33 308.78 400.68 309.46 402.03 310.14 C 405.97 311.30 409.98 312.13 414.03 312.80 C 410.28 306.56 406.72 300.20 403.65 293.60 C 402.41 289.96 400.83 286.46 399.61 282.82 C 397.28 282.63 394.52 283.26 392.63 281.53 C 387.72 277.86 385.30 271.99 383.27 266.42 C 381.68 262.45 382.18 258.07 382.27 253.90 C 382.33 252.12 383.85 250.92 384.77 249.55 C 386.22 249.55 387.68 249.56 389.14 249.57 C 389.61 249.93 390.55 250.66 391.02 251.02 C 390.09 245.27 388.17 239.43 389.74 233.56 C 390.54 231.25 391.74 229.10 392.94 226.97 C 394.45 226.16 395.94 225.27 397.52 224.56 Z" />
<path fill="#22221f" d=" M 541.64 231.11 C 552.84 230.01 564.06 229.18 575.32 228.73 C 575.49 236.49 574.80 244.25 574.98 252.02 C 575.11 256.81 574.57 261.58 573.63 266.27 C 579.11 273.55 585.05 280.51 589.57 288.46 C 592.20 292.30 594.69 297.22 592.41 301.84 C 585.36 317.25 575.65 331.76 562.37 342.47 C 558.73 346.08 555.84 350.69 550.80 352.56 C 544.80 355.11 538.40 356.58 531.96 357.46 C 535.76 356.09 539.87 355.65 543.49 353.77 C 548.64 351.21 553.85 348.71 558.59 345.42 C 560.65 344.01 561.06 341.31 561.37 339.02 C 561.55 334.31 558.60 330.31 557.42 325.91 C 558.97 321.40 561.40 317.24 562.72 312.64 C 568.63 297.97 571.19 282.24 573.27 266.64 C 563.72 254.81 552.64 244.33 542.63 232.91 C 542.38 232.46 541.88 231.56 541.64 231.11 Z" />
<path fill="#22221f" d=" M 503.20 231.67 C 515.89 231.41 528.58 231.83 541.27 231.20 C 540.55 240.51 541.30 249.86 540.72 259.17 C 540.50 266.14 539.33 273.05 539.34 280.03 C 539.05 286.89 537.47 293.62 536.74 300.44 C 542.29 307.78 549.27 313.97 554.19 321.79 C 555.27 323.39 556.38 324.97 557.47 326.56 C 554.79 330.27 552.68 334.35 550.12 338.15 C 543.04 348.03 533.31 357.20 520.80 359.01 C 518.38 359.64 515.88 360.01 513.39 359.73 C 519.35 357.01 523.00 351.29 525.48 345.48 C 527.84 339.82 530.02 334.06 531.57 328.13 C 533.46 318.90 535.96 309.72 536.22 300.27 C 524.97 290.28 514.80 279.12 503.40 269.28 C 503.08 256.74 503.35 244.20 503.20 231.67 Z" />
<path fill="#edce0d" d=" M 541.27 231.20 C 541.61 231.63 542.29 232.48 542.63 232.91 C 552.64 244.33 563.72 254.81 573.27 266.64 C 571.19 282.24 568.63 297.97 562.72 312.64 C 561.40 317.24 558.97 321.40 557.42 325.91 C 558.60 330.31 561.55 334.31 561.37 339.02 C 561.06 341.31 560.65 344.01 558.59 345.42 C 553.85 348.71 548.64 351.21 543.49 353.77 C 539.87 355.65 535.76 356.09 531.96 357.46 C 528.34 358.53 524.49 358.33 520.80 359.01 C 533.31 357.20 543.04 348.03 550.12 338.15 C 552.68 334.35 554.79 330.27 557.47 326.56 C 556.38 324.97 555.27 323.39 554.19 321.79 C 549.27 313.97 542.29 307.78 536.74 300.44 C 537.47 293.62 539.05 286.89 539.34 280.03 C 539.33 273.05 540.50 266.14 540.72 259.17 C 541.30 249.86 540.55 240.51 541.27 231.20 Z" />
<path fill="#edce0d" d=" M 503.40 269.28 C 514.80 279.12 524.97 290.28 536.22 300.27 C 535.96 309.72 533.46 318.90 531.57 328.13 C 530.02 334.06 527.84 339.82 525.48 345.48 C 523.00 351.29 519.35 357.01 513.39 359.73 C 510.68 359.85 507.97 359.72 505.27 359.73 C 505.33 356.28 505.33 352.82 504.88 349.40 C 504.14 343.16 504.65 336.86 504.00 330.63 C 503.98 330.20 503.93 329.35 503.90 328.92 C 503.88 328.28 503.82 327.01 503.80 326.37 C 503.58 307.34 503.55 288.31 503.40 269.28 Z" />
<path fill="#22221f" d=" M 351.20 293.70 C 354.66 294.83 356.36 298.35 358.21 301.20 C 353.23 311.38 347.05 321.06 342.26 331.37 C 353.63 330.13 364.88 327.64 376.10 325.38 C 376.88 326.70 377.71 328.01 378.58 329.29 C 380.04 330.59 380.97 332.28 381.14 334.26 C 379.71 333.38 378.79 331.29 376.88 331.54 C 371.72 335.06 367.57 339.82 362.50 343.47 C 359.26 346.58 355.53 349.12 352.28 352.21 C 350.23 353.66 350.99 357.57 353.69 357.51 C 352.81 357.89 351.91 358.25 351.02 358.61 C 348.62 354.41 345.74 350.51 342.50 346.92 C 342.51 346.45 342.51 345.53 342.52 345.06 C 343.68 345.91 344.77 346.88 346.04 347.57 C 348.45 348.52 350.33 346.36 352.15 345.19 C 357.71 339.62 364.53 335.40 370.13 329.81 C 365.94 329.65 362.08 331.52 357.94 331.67 C 350.00 332.95 342.23 335.31 334.17 335.76 C 335.18 331.20 338.41 327.67 340.35 323.53 C 343.75 316.42 347.96 309.75 351.43 302.69 C 345.64 305.86 340.43 309.95 334.69 313.19 C 332.37 314.72 329.91 316.01 327.65 317.61 C 325.33 319.51 327.10 322.32 327.89 324.49 C 326.83 323.83 325.82 323.14 324.81 322.43 C 323.56 320.34 322.17 318.35 320.81 316.34 C 320.06 315.38 319.32 314.42 318.62 313.43 C 319.21 313.44 320.39 313.47 320.98 313.48 C 321.85 314.63 323.23 316.50 324.89 315.39 C 330.99 312.63 336.24 308.35 341.99 304.97 C 345.81 302.33 350.42 300.48 353.15 296.53 C 352.48 295.60 351.83 294.65 351.20 293.70 Z" />
<path fill="#22221f" d=" M 647.15 307.64 C 651.63 301.60 657.84 295.05 666.00 295.51 C 673.48 295.13 680.04 300.55 683.24 306.98 C 685.26 312.11 686.04 317.99 683.79 323.19 C 683.67 323.64 683.43 324.54 683.32 324.99 C 680.80 330.31 677.08 334.88 674.13 339.94 C 672.28 341.94 671.85 345.31 669.05 346.29 C 669.49 344.43 670.11 342.63 670.74 340.83 C 662.49 333.85 652.63 329.15 643.96 322.75 C 643.15 322.68 641.54 322.52 640.74 322.44 C 639.50 323.75 638.30 325.11 636.98 326.33 C 638.65 319.32 643.84 313.89 647.15 307.64 Z" />
<path fill="#fefefe" d=" M 653.02 304.20 C 657.28 300.68 663.00 300.88 668.15 301.71 C 673.84 304.17 679.42 308.24 681.42 314.37 C 681.98 317.90 681.75 321.50 681.45 325.05 C 679.79 328.54 677.69 331.77 675.29 334.80 C 674.25 334.70 673.24 334.52 672.25 334.28 C 664.38 329.73 656.96 324.49 649.24 319.70 C 647.42 318.60 645.72 317.32 644.03 316.06 C 646.39 311.67 648.88 307.17 653.02 304.20 Z" />
<path fill="#22221f" d=" M 556.56 350.69 C 571.74 344.26 584.78 333.83 596.26 322.14 C 594.41 328.15 589.71 332.36 585.15 336.36 C 580.61 340.07 575.09 342.21 570.06 345.10 C 565.76 347.43 561.16 349.09 556.56 350.69 Z" />
<path fill="#f9123c" d=" M 428.35 324.20 C 440.67 323.82 452.67 327.41 464.96 327.98 C 477.94 328.37 490.92 328.93 503.90 328.92 C 503.93 329.35 503.98 330.20 504.00 330.63 C 503.10 334.37 499.80 337.12 496.11 337.92 C 492.72 339.51 489.24 337.66 485.90 336.96 C 486.30 337.48 487.09 338.52 487.48 339.05 C 487.36 341.54 488.12 345.07 485.03 346.03 C 481.42 348.43 477.06 346.86 473.39 345.54 C 469.01 343.06 463.79 340.20 463.14 334.64 C 456.10 335.00 449.15 334.10 442.23 332.91 C 444.24 336.07 446.72 338.94 449.69 341.26 C 453.45 344.15 456.78 347.82 461.29 349.58 C 465.19 350.80 469.35 351.18 473.02 353.10 C 476.36 354.91 480.02 356.05 483.38 357.83 C 476.26 357.59 469.45 354.99 463.04 352.05 C 461.23 351.30 459.40 350.61 457.65 349.76 C 451.20 346.33 445.43 341.85 439.96 337.05 C 436.03 332.82 431.45 329.14 428.35 324.20 Z" />
<path fill="#22221f" d=" M 623.98 336.86 C 627.20 334.35 630.24 331.62 633.45 329.11 C 633.46 329.55 633.48 330.43 633.50 330.87 C 632.58 332.03 630.76 333.13 631.26 334.88 C 631.70 337.23 633.83 338.76 635.34 340.47 C 637.01 342.48 638.59 344.58 640.25 346.61 C 642.29 349.57 645.01 351.96 647.11 354.88 C 649.20 357.25 650.82 360.13 653.50 361.93 C 653.53 362.90 653.56 363.88 653.60 364.86 C 650.73 364.51 647.86 364.05 644.97 363.98 C 638.88 364.03 633.05 361.88 627.00 361.57 C 619.96 361.85 613.22 359.26 606.16 359.67 C 606.90 360.25 607.62 360.82 608.38 361.40 C 611.61 366.15 615.48 370.44 619.28 374.74 C 621.32 377.39 623.11 380.35 625.86 382.35 C 628.23 383.11 630.03 380.99 632.03 380.11 C 631.61 383.14 628.24 384.19 626.39 386.23 C 624.48 387.83 622.59 389.48 620.55 390.92 C 620.60 389.40 621.48 388.17 622.40 387.02 C 622.41 386.25 622.43 384.69 622.45 383.92 C 616.43 376.52 610.30 369.22 604.26 361.84 C 603.48 360.89 602.76 359.91 601.93 359.03 C 600.19 359.30 598.62 360.13 597.02 360.81 C 596.60 360.74 595.76 360.61 595.35 360.54 C 598.17 358.30 600.99 356.06 603.80 353.79 C 613.48 355.13 623.25 355.78 632.96 356.95 C 637.17 357.96 641.49 358.15 645.82 358.18 C 644.10 356.21 642.33 354.30 640.73 352.25 C 636.64 347.18 632.65 342.00 628.05 337.40 C 625.80 337.16 624.03 339.32 621.97 340.07 C 622.32 338.81 622.80 337.57 623.98 336.86 Z" />
<path fill="#22221f" d=" M 402.67 348.32 C 404.08 349.39 405.46 350.49 406.88 351.56 C 403.74 361.88 401.62 372.53 397.95 382.69 C 397.54 385.56 396.26 388.25 396.12 391.18 C 397.37 392.34 398.36 393.75 399.17 395.27 C 394.68 393.06 390.76 389.88 386.72 386.97 C 385.64 386.40 385.29 385.23 384.92 384.18 C 386.96 384.86 390.60 388.21 391.99 384.92 C 393.28 380.57 394.30 376.13 395.81 371.85 C 392.29 369.33 388.82 366.72 385.20 364.35 C 381.23 367.00 377.28 369.68 373.24 372.21 C 373.13 375.16 375.90 376.64 377.12 379.01 C 374.63 377.91 372.46 376.25 370.18 374.79 C 368.22 373.21 366.24 371.65 364.08 370.36 C 364.34 369.82 364.61 369.29 364.89 368.77 C 366.36 369.59 367.92 371.83 369.78 370.73 C 374.14 368.12 378.36 365.26 382.62 362.48 C 389.14 357.55 396.71 353.91 402.67 348.32 Z" />
<path fill="#fefefe" d=" M 388.31 362.36 C 392.33 359.52 396.47 356.85 400.68 354.30 C 399.67 359.22 397.36 363.74 396.44 368.69 C 395.15 367.66 393.83 366.67 392.55 365.65 C 391.10 364.60 389.41 363.80 388.31 362.36 Z" />
<path fill="#22221f" d=" M 425.04 366.92 C 426.36 366.89 427.67 366.91 429.00 366.96 C 434.50 368.88 440.07 370.61 445.52 372.73 C 448.68 374.77 451.69 377.11 453.62 380.42 C 453.57 382.92 453.71 385.43 453.47 387.92 C 452.11 390.61 449.50 392.22 447.08 393.84 C 445.47 393.88 443.86 393.93 442.25 394.01 C 444.32 398.23 446.71 402.30 448.41 406.70 C 450.59 412.16 454.70 416.51 459.19 420.17 C 455.04 419.84 451.20 417.71 447.82 415.39 C 446.81 413.74 445.73 412.14 444.56 410.60 C 441.91 405.22 439.44 399.71 436.27 394.61 C 433.99 393.29 431.47 392.42 428.88 392.00 C 427.69 396.09 426.15 400.06 424.59 404.01 C 425.06 407.07 429.42 406.65 430.04 409.62 C 429.55 409.45 428.58 409.10 428.09 408.92 C 424.60 407.94 421.22 406.62 417.87 405.28 C 415.97 404.53 413.78 404.23 412.45 402.53 C 414.46 402.53 416.47 402.64 418.48 402.75 C 422.56 397.18 422.71 389.77 426.16 383.84 C 426.38 382.89 426.60 381.95 426.83 381.01 C 428.00 378.10 429.38 375.19 429.85 372.07 C 430.54 368.97 426.83 368.41 425.04 366.92 Z" />
<path fill="#22221f" d=" M 568.38 371.33 C 569.97 370.70 571.52 369.96 573.07 369.21 C 581.64 378.60 590.68 387.54 599.27 396.91 C 601.19 399.06 604.23 398.17 606.75 398.36 C 603.52 401.09 599.19 401.75 595.50 403.64 C 593.31 404.40 591.12 406.21 588.75 405.15 C 590.69 404.05 592.67 403.01 594.67 401.99 C 593.39 396.56 588.01 393.56 584.65 389.44 C 580.71 391.25 576.56 392.56 572.60 394.31 C 572.74 399.26 572.70 404.30 573.76 409.15 C 575.76 410.75 578.35 409.07 580.58 408.98 C 576.64 412.45 571.18 413.18 566.70 415.73 C 566.05 413.98 567.47 413.32 568.83 412.73 C 569.41 411.91 569.99 411.08 570.58 410.26 C 570.63 402.52 569.95 394.79 569.17 387.09 C 568.71 381.85 569.80 376.47 568.38 371.33 Z" />
<path fill="#fefefe" d=" M 436.27 371.08 C 439.51 371.70 442.38 373.36 445.23 374.91 C 448.39 377.59 447.78 381.88 447.38 385.55 C 446.48 388.02 445.27 390.65 442.69 391.75 C 438.35 393.18 433.47 392.40 429.54 390.18 C 431.58 383.74 434.18 377.49 436.27 371.08 Z" />
<path fill="#fefefe" d=" M 572.31 376.42 C 574.98 378.87 577.34 381.65 579.86 384.25 C 580.61 385.21 581.36 386.20 582.08 387.20 C 579.02 388.62 575.88 389.85 572.66 390.82 C 572.69 386.02 572.36 381.22 572.31 376.42 Z" />
<path fill="#22221f" d=" M 468.53 381.43 C 472.74 381.73 476.91 382.36 481.12 382.66 C 482.62 382.87 484.46 382.75 485.39 384.23 C 483.76 384.49 482.14 384.75 480.53 385.02 C 483.20 391.58 486.73 397.80 490.42 403.82 C 493.64 399.51 496.52 394.94 499.94 390.78 C 500.48 389.61 501.63 388.37 501.00 387.01 C 500.14 385.79 498.70 385.19 497.58 384.25 C 502.28 384.88 507.02 384.75 511.75 384.78 C 511.76 385.25 511.78 386.20 511.79 386.68 C 511.03 386.66 509.50 386.63 508.73 386.61 C 503.06 389.80 500.41 395.93 496.61 400.88 C 494.89 403.19 492.78 405.31 491.80 408.08 C 490.89 411.81 490.83 415.68 490.67 419.49 C 492.28 421.48 494.65 422.21 497.07 422.72 C 494.86 423.76 492.42 423.09 490.14 422.74 C 486.34 422.03 482.47 422.30 478.65 422.26 C 478.60 421.82 478.50 420.94 478.45 420.50 C 480.41 420.40 482.37 420.32 484.34 420.24 C 485.24 416.06 486.01 411.68 485.56 407.42 C 482.31 399.82 477.97 392.74 474.20 385.40 C 472.55 384.17 470.68 383.35 468.64 383.08 C 468.61 382.67 468.56 381.84 468.53 381.43 Z" />
<path fill="#22221f" d=" M 519.02 384.42 C 524.88 383.05 530.86 382.32 536.78 381.26 C 536.74 381.73 536.64 382.66 536.59 383.13 C 534.46 383.45 531.86 382.94 530.56 385.11 C 530.11 388.11 531.22 391.02 531.76 393.93 C 532.45 401.94 534.73 409.72 535.59 417.73 C 536.39 419.58 538.75 418.56 540.22 418.29 C 543.14 417.34 546.26 417.32 549.20 416.46 C 552.48 414.53 553.01 410.21 555.94 407.87 C 555.23 411.64 553.43 415.09 552.85 418.89 C 543.06 419.24 533.67 422.91 523.79 422.70 C 526.71 421.42 531.72 420.48 530.17 416.04 C 529.70 415.91 528.77 415.65 528.31 415.53 C 528.62 415.39 529.25 415.13 529.57 415.00 C 528.29 409.41 527.73 403.71 526.46 398.13 C 526.02 393.69 525.56 389.09 523.20 385.18 C 521.86 385.24 520.53 385.30 519.20 385.38 C 519.16 385.14 519.07 384.66 519.02 384.42 Z" />
<path fill="#22221f" d=" M 672.84 495.85 C 680.02 488.56 691.19 486.63 700.96 488.41 C 704.76 488.81 708.23 490.49 711.88 491.50 C 714.60 492.53 716.94 490.28 719.53 489.83 C 720.70 496.79 721.33 503.81 722.37 510.79 C 721.63 510.80 720.15 510.81 719.41 510.81 C 716.14 502.65 709.77 495.28 701.07 492.86 C 695.01 491.35 688.01 491.93 683.06 496.05 C 678.02 500.32 677.02 508.11 679.99 513.87 C 684.11 521.31 691.60 525.95 698.47 530.57 C 707.43 536.66 717.39 542.29 723.23 551.75 C 728.05 559.32 728.30 569.39 724.07 577.27 C 718.85 587.41 707.08 592.91 695.96 592.60 C 689.24 592.74 682.87 590.37 676.48 588.67 C 673.69 587.45 671.64 590.89 668.81 589.88 C 668.10 581.67 666.31 573.57 666.03 565.32 C 666.75 565.43 668.21 565.66 668.94 565.77 C 670.79 572.42 674.14 578.91 679.86 583.04 C 688.30 589.56 701.40 589.62 709.52 582.52 C 716.22 576.64 717.16 565.58 711.38 558.74 C 701.61 546.78 686.35 541.30 675.53 530.46 C 671.01 526.09 667.40 520.45 666.63 514.10 C 665.73 507.49 668.01 500.49 672.84 495.85 Z" />
<path fill="#22221f" d=" M 0.00 490.41 C 10.32 489.76 20.65 489.38 30.98 488.77 C 39.62 488.58 48.40 488.81 56.79 491.08 C 63.66 492.96 70.40 496.52 74.62 502.43 C 80.92 511.19 80.84 523.80 74.67 532.62 C 71.09 538.04 65.36 541.51 59.39 543.74 C 69.14 551.97 77.54 561.59 86.47 570.66 C 91.85 576.45 97.75 582.00 105.03 585.30 C 109.32 587.39 114.05 588.26 118.74 588.95 C 118.00 590.06 118.14 592.70 116.12 592.21 C 104.62 592.59 92.07 591.57 82.74 584.10 C 69.40 573.35 59.58 558.70 45.63 548.67 C 39.66 548.17 33.60 548.91 27.60 548.44 C 27.63 557.61 27.57 566.79 27.60 575.97 C 27.61 579.19 28.33 582.89 31.03 584.98 C 34.62 587.33 39.14 586.50 43.20 586.71 C 43.20 587.62 43.19 589.44 43.19 590.35 C 28.79 590.41 14.40 590.34 0.00 590.38 L 0.00 586.62 C 3.69 586.66 7.77 587.14 11.02 585.00 C 14.04 582.74 14.45 578.57 14.51 575.08 C 14.49 551.70 14.50 528.33 14.50 504.96 C 14.51 501.71 14.00 498.03 11.47 495.75 C 8.12 493.50 3.85 493.81 0.00 493.58 L 0.00 490.41 Z" />
<path fill="#22221f" d=" M 500.12 493.30 C 500.21 492.12 500.31 490.97 500.42 489.81 C 512.49 489.96 524.58 489.62 536.65 489.99 C 536.65 491.12 536.66 492.26 536.68 493.40 C 533.57 493.58 530.15 493.50 527.49 495.34 C 524.57 497.62 524.29 501.64 524.19 505.05 C 524.16 515.47 524.21 525.89 524.18 536.31 C 543.81 536.32 563.45 536.35 583.09 536.29 C 583.11 525.85 583.11 515.42 583.10 504.98 C 582.94 501.81 582.91 498.05 580.26 495.84 C 576.94 492.99 572.30 493.58 568.26 493.47 C 568.32 492.24 568.41 491.03 568.50 489.81 C 581.50 490.01 594.52 489.51 607.52 490.08 C 607.51 491.16 607.50 492.25 607.51 493.34 C 604.14 493.81 599.94 493.89 597.90 497.11 C 595.92 500.35 596.24 504.34 596.03 507.99 C 596.00 529.00 595.98 550.00 596.04 571.01 C 596.29 575.21 595.81 579.95 598.49 583.52 C 601.22 586.77 605.91 586.37 609.74 586.66 C 609.73 587.73 609.72 588.81 609.73 589.90 C 595.33 590.02 580.94 589.92 566.55 589.95 C 566.53 589.11 566.49 587.43 566.47 586.59 C 570.86 586.41 575.73 587.11 579.63 584.65 C 583.03 582.27 583.00 577.71 583.11 573.99 C 582.98 563.50 583.35 553.00 582.90 542.53 C 563.33 542.59 543.76 542.53 524.19 542.55 C 524.17 553.05 524.20 563.55 524.17 574.06 C 524.21 577.27 524.23 580.87 526.41 583.47 C 528.85 586.55 533.19 586.30 536.73 586.70 C 536.69 587.76 536.67 588.82 536.65 589.90 C 523.81 589.99 510.98 589.98 498.15 589.90 C 498.12 588.82 498.11 587.74 498.10 586.67 C 501.54 586.36 505.45 586.63 508.24 584.21 C 510.55 582.18 510.96 578.89 510.89 575.99 C 510.86 551.67 510.90 527.34 510.88 503.01 C 510.90 500.37 510.33 497.40 508.09 495.73 C 505.79 494.03 502.83 493.78 500.12 493.30 Z" />
<path fill="#fefefe" d=" M 27.60 492.62 C 37.02 492.02 47.41 491.96 55.53 497.47 C 62.48 502.15 64.74 511.07 64.54 519.02 C 64.64 527.33 61.73 536.58 54.19 541.03 C 46.22 545.59 36.47 545.83 27.58 544.69 C 27.63 527.33 27.59 509.98 27.60 492.62 Z" />
<path fill="#fefefe" d=" M 0.00 493.58 C 3.85 493.81 8.12 493.50 11.47 495.75 C 14.00 498.03 14.51 501.71 14.50 504.96 C 14.50 528.33 14.49 551.70 14.51 575.08 C 14.45 578.57 14.04 582.74 11.02 585.00 C 7.77 587.14 3.69 586.66 0.00 586.62 L 0.00 493.58 Z" />
<path fill="#22221f" d=" M 392.82 508.41 C 394.63 507.55 396.27 508.35 397.67 509.58 C 417.44 509.80 437.22 509.62 457.00 509.68 C 459.41 509.81 461.41 508.25 463.65 507.63 C 464.31 514.94 465.53 522.23 465.51 529.59 C 464.96 529.34 463.84 528.84 463.29 528.60 C 461.87 523.61 461.75 516.95 456.17 514.65 C 448.68 514.83 441.19 514.67 433.70 514.75 C 433.57 535.52 433.69 556.29 433.63 577.06 C 433.72 579.91 433.82 583.51 436.51 585.23 C 439.95 587.19 444.08 586.35 447.86 586.63 C 447.73 587.29 447.48 588.59 447.35 589.24 C 434.83 589.65 422.26 588.89 409.75 589.63 C 409.66 588.92 409.47 587.48 409.38 586.76 C 413.19 586.28 417.46 587.21 420.85 584.98 C 423.29 582.72 423.32 579.11 423.38 576.04 C 423.36 555.60 423.44 535.17 423.34 514.74 C 415.86 514.82 408.38 514.52 400.91 514.87 C 395.28 516.52 394.79 523.52 394.08 528.39 C 393.39 528.64 392.02 529.16 391.33 529.42 C 391.55 522.39 392.82 515.44 392.82 508.41 Z" />
<path fill="#22221f" d=" M 884.29 507.58 C 886.55 508.16 888.55 509.74 890.97 509.67 C 909.99 509.69 929.01 509.67 948.04 509.68 C 950.42 509.82 952.38 508.28 954.59 507.64 C 955.61 514.74 956.03 521.92 956.65 529.07 C 955.73 528.90 954.84 528.73 953.95 528.57 C 953.16 523.64 952.71 516.63 947.05 514.86 C 939.63 514.51 932.18 514.84 924.76 514.73 C 924.64 535.82 924.76 556.91 924.70 578.01 C 924.80 580.55 925.06 583.79 927.51 585.24 C 930.90 587.16 934.95 586.39 938.67 586.57 C 938.62 587.48 938.58 588.41 938.56 589.34 C 925.83 589.32 913.11 589.33 900.39 589.35 C 900.33 588.42 900.28 587.50 900.25 586.59 C 904.30 586.33 909.07 587.41 912.42 584.49 C 914.33 582.11 914.22 578.87 914.26 575.99 C 914.18 555.57 914.32 535.15 914.19 514.73 C 907.06 514.78 899.94 514.62 892.83 514.78 C 888.52 514.87 886.78 519.47 885.99 523.00 C 885.05 525.34 885.81 529.16 882.47 529.61 C 882.41 522.23 883.61 514.91 884.29 507.58 Z" />
<path fill="#22221f" d=" M 169.63 509.71 C 183.44 509.33 197.25 508.16 211.07 509.01 C 217.75 509.70 225.17 510.75 230.05 515.87 C 236.21 521.65 236.66 532.57 230.59 538.58 C 228.32 541.20 225.07 542.57 221.93 543.83 C 228.10 546.04 234.12 549.82 237.14 555.85 C 241.47 564.71 238.87 576.07 231.84 582.79 C 227.04 587.25 220.43 589.32 213.96 589.34 C 198.77 589.32 183.58 589.35 168.39 589.32 C 168.38 588.64 168.35 587.27 168.34 586.59 C 172.21 586.43 176.44 587.03 179.96 585.04 C 183.01 583.14 182.89 579.15 183.10 576.00 C 183.16 560.00 183.09 543.99 183.13 527.99 C 183.13 524.73 183.16 521.44 182.65 518.22 C 182.28 515.76 180.50 513.40 177.97 512.93 C 175.19 512.35 172.33 512.60 169.51 512.51 C 169.54 511.57 169.58 510.64 169.63 509.71 Z" />
<path fill="#22221f" d=" M 315.28 509.69 C 327.88 509.61 340.49 507.98 353.09 509.08 C 360.12 509.87 367.47 511.98 372.60 517.13 C 379.45 523.96 380.07 535.74 374.55 543.55 C 371.79 547.92 367.09 550.42 362.55 552.56 C 370.36 558.69 376.80 566.34 383.67 573.46 C 390.07 580.62 398.27 587.09 408.18 587.99 C 408.63 588.86 409.09 589.74 409.54 590.63 C 399.71 591.18 388.87 590.90 380.83 584.40 C 370.48 575.75 362.42 564.62 351.73 556.35 C 346.92 555.75 342.00 556.66 337.15 556.10 C 337.21 563.07 337.14 570.05 337.17 577.02 C 337.27 579.65 337.25 582.74 339.38 584.64 C 342.21 587.10 346.22 586.44 349.67 586.61 C 349.64 587.52 349.61 588.43 349.59 589.35 C 338.09 589.31 326.60 589.37 315.11 589.32 C 315.12 588.64 315.14 587.29 315.15 586.62 C 318.13 586.44 321.49 586.92 324.03 585.02 C 326.68 582.88 326.60 579.13 326.78 576.05 C 326.85 560.04 326.78 544.03 326.82 528.02 C 326.45 523.26 328.00 516.84 323.45 513.64 C 320.85 512.44 317.88 512.68 315.09 512.45 C 315.14 511.52 315.21 510.60 315.28 509.69 Z" />
<path fill="#22221f" d=" M 124.51 510.73 C 133.24 509.50 142.54 510.74 150.02 515.64 C 158.23 520.80 163.98 530.14 163.78 539.97 C 164.30 549.94 160.12 560.09 152.50 566.59 C 139.04 578.44 116.34 576.81 104.37 563.59 C 93.55 551.84 94.87 532.02 105.54 520.61 C 110.45 515.20 117.39 512.00 124.51 510.73 Z" />
<path fill="#22221f" d=" M 243.69 509.67 C 263.04 509.67 282.38 509.71 301.72 509.65 C 302.33 515.76 302.65 521.90 302.73 528.04 L 300.55 527.41 C 299.34 523.97 299.11 520.12 296.91 517.10 C 295.49 515.40 293.17 514.60 291.00 514.71 C 282.81 514.72 274.61 514.74 266.42 514.72 C 266.27 525.02 266.36 535.31 266.36 545.61 C 274.10 545.49 281.87 545.88 289.60 545.44 C 293.77 544.55 294.05 539.61 294.69 536.22 C 295.31 536.21 296.56 536.19 297.18 536.18 C 297.24 544.28 297.19 552.39 297.22 560.50 C 296.38 560.53 295.54 560.57 294.71 560.62 C 293.91 556.96 293.74 551.26 288.93 550.74 C 281.42 550.45 273.90 550.73 266.39 550.62 C 266.33 559.99 266.28 569.36 266.39 578.72 C 266.26 581.32 267.80 584.31 270.72 584.35 C 276.79 584.76 282.89 584.38 288.97 584.53 C 292.65 584.54 296.94 584.56 299.70 581.72 C 303.21 578.34 303.55 573.12 305.94 569.06 C 306.30 569.47 307.03 570.28 307.39 570.69 C 307.15 576.93 306.21 583.15 305.57 589.37 C 284.11 589.26 262.66 589.39 241.20 589.31 C 241.22 588.63 241.25 587.26 241.27 586.58 C 245.20 586.45 249.45 587.02 253.01 584.99 C 255.62 583.31 255.88 579.84 255.85 577.05 C 255.83 558.35 255.87 539.65 255.83 520.95 C 255.90 518.22 255.10 515.01 252.45 513.70 C 249.69 512.46 246.58 512.68 243.63 512.46 C 243.65 511.76 243.68 510.37 243.69 509.67 Z" />
<path fill="#22221f" d=" M 738.28 512.30 C 738.34 511.41 738.41 510.54 738.49 509.67 C 744.62 509.69 750.75 509.66 756.88 509.69 C 764.76 527.08 772.65 544.46 780.52 561.85 C 782.28 565.76 784.22 569.60 785.46 573.73 C 785.68 573.71 786.11 573.69 786.33 573.67 C 789.65 564.38 794.28 555.60 798.17 546.53 C 803.71 534.24 809.24 521.94 814.83 509.67 C 820.74 509.68 826.66 509.70 832.58 509.66 C 832.66 510.55 832.76 511.45 832.87 512.35 C 829.93 512.95 824.29 512.32 825.09 516.92 C 825.84 536.59 827.76 556.21 828.77 575.87 C 829.19 578.96 828.92 582.47 830.88 585.11 C 833.25 587.03 836.52 586.42 839.37 586.65 C 839.36 587.32 839.34 588.65 839.33 589.31 C 828.81 589.35 818.29 589.34 807.77 589.33 C 807.76 588.68 807.74 587.38 807.73 586.73 C 811.78 586.46 817.30 585.79 818.40 581.03 C 818.95 575.32 817.70 569.64 817.67 563.93 C 816.89 549.94 815.91 535.97 815.10 521.99 C 804.83 544.31 795.15 566.91 785.13 589.34 C 784.33 589.33 782.72 589.30 781.92 589.28 C 771.78 567.03 761.93 544.63 751.49 522.53 C 750.61 528.28 750.60 534.11 750.30 539.91 C 749.48 551.95 748.83 564.00 748.17 576.06 C 748.26 578.74 747.51 581.99 749.70 584.08 C 751.83 586.14 754.94 586.31 757.71 586.74 C 757.73 587.37 757.75 588.65 757.76 589.28 C 749.26 589.37 740.75 589.36 732.25 589.29 C 732.27 588.64 732.29 587.35 732.31 586.71 C 735.03 586.39 738.30 586.62 740.34 584.43 C 742.71 580.75 742.42 576.17 742.68 571.99 C 743.67 557.65 744.39 543.30 745.29 528.97 C 745.44 524.66 746.12 520.29 745.38 516.02 C 744.56 512.82 740.88 512.88 738.28 512.30 Z" />
<path fill="#22221f" d=" M 846.66 509.67 C 856.61 509.69 866.56 509.66 876.51 509.69 C 876.42 510.36 876.22 511.69 876.12 512.35 C 873.41 513.12 869.88 512.52 867.96 515.00 C 866.08 517.24 866.29 520.31 866.21 523.05 C 866.21 541.03 866.20 559.01 866.21 576.99 C 866.31 579.41 866.12 582.21 867.89 584.15 C 869.98 586.54 873.46 586.39 876.38 586.70 C 876.36 587.35 876.32 588.67 876.30 589.33 C 866.43 589.33 856.55 589.34 846.68 589.33 C 846.66 588.69 846.63 587.42 846.61 586.78 C 849.33 586.22 852.74 586.21 854.42 583.62 C 855.67 580.95 855.76 577.94 855.77 575.04 C 855.75 558.02 855.75 541.00 855.77 523.98 C 855.72 521.11 855.90 518.02 854.34 515.48 C 852.61 513.01 849.33 513.04 846.67 512.52 C 846.67 511.81 846.67 510.38 846.66 509.67 Z" />
<path fill="#22221f" d=" M 962.39 512.46 C 962.42 511.52 962.47 510.59 962.54 509.67 C 972.17 509.69 981.80 509.67 991.43 509.68 C 991.45 510.59 991.49 511.51 991.54 512.43 C 988.86 512.91 985.74 512.64 983.62 514.61 C 981.68 516.94 981.62 520.15 981.57 523.04 C 981.59 530.89 981.59 538.74 981.58 546.60 C 997.24 546.71 1012.91 546.63 1028.58 546.64 C 1028.63 538.09 1028.60 529.53 1028.62 520.98 C 1028.73 518.16 1027.81 514.83 1025.05 513.55 C 1022.47 512.57 1019.68 512.62 1016.98 512.48 C 1016.94 511.78 1016.86 510.38 1016.82 509.69 C 1027.37 509.70 1037.93 509.62 1048.49 509.73 C 1049.15 513.58 1044.75 512.54 1042.47 513.74 C 1039.52 515.36 1039.15 519.04 1039.17 522.05 C 1039.15 540.04 1039.18 558.02 1039.16 576.01 C 1039.25 578.88 1039.19 582.15 1041.20 584.46 C 1043.45 586.73 1046.87 586.49 1049.82 586.62 C 1049.93 587.29 1050.15 588.62 1050.26 589.29 C 1038.66 589.40 1027.07 589.31 1015.47 589.33 C 1015.46 588.65 1015.45 587.29 1015.44 586.60 C 1018.80 586.42 1022.46 587.03 1025.57 585.36 C 1028.10 583.93 1028.64 580.72 1028.61 578.06 C 1028.62 569.19 1028.60 560.33 1028.60 551.47 C 1012.93 551.48 997.26 551.40 981.59 551.51 C 981.58 559.65 981.60 567.79 981.57 575.93 C 981.58 578.85 981.64 582.11 983.56 584.51 C 985.75 586.43 988.80 586.46 991.55 586.75 C 991.53 587.39 991.49 588.67 991.48 589.32 C 981.17 589.33 970.87 589.38 960.57 589.29 C 960.68 588.67 960.90 587.42 961.01 586.80 C 963.83 586.28 967.14 586.62 969.35 584.41 C 970.96 582.32 971.07 579.54 971.20 577.03 C 971.18 558.66 971.20 540.30 971.19 521.94 C 971.02 519.49 971.07 516.66 969.21 514.81 C 967.38 513.04 964.70 513.02 962.39 512.46 Z" />
<path fill="#fefefe" d=" M 193.56 512.29 L 193.87 511.91 C 201.17 511.53 209.10 510.52 215.82 514.08 C 223.98 518.27 225.93 529.92 221.27 537.35 C 218.51 541.17 213.59 542.76 209.04 542.84 C 203.83 542.92 198.63 542.84 193.43 542.84 C 193.53 532.66 193.25 522.46 193.56 512.29 Z" />
<path fill="#fefefe" d=" M 337.20 511.68 C 345.11 511.26 353.97 511.19 360.47 516.43 C 365.75 520.90 366.93 528.41 366.41 534.97 C 366.03 540.91 363.47 547.22 358.07 550.26 C 351.77 553.90 344.22 553.59 337.21 553.29 C 337.14 539.42 337.16 525.55 337.20 511.68 Z" />
<path fill="#fefefe" d=" M 121.76 514.11 C 129.35 511.51 138.12 513.48 144.29 518.50 C 149.81 523.12 153.06 530.00 154.23 537.02 C 155.74 546.87 154.16 557.84 147.35 565.52 C 139.76 573.92 125.88 573.46 117.45 566.56 C 105.32 556.86 102.89 538.16 109.96 524.77 C 112.39 519.91 116.58 515.90 121.76 514.11 Z" />
<path fill="#fefefe" d=" M 193.49 545.76 C 201.87 546.11 211.11 544.30 218.59 549.12 C 229.90 555.83 230.62 574.42 220.03 582.09 C 214.32 585.96 206.79 586.32 200.24 584.79 C 195.47 583.68 193.37 578.50 193.47 574.03 C 193.40 564.61 193.41 555.18 193.49 545.76 Z" />
<path fill="#22221f" d=" M 631.55 578.77 C 635.47 577.49 640.49 580.53 639.83 584.99 C 640.28 590.55 632.27 592.85 628.87 589.06 C 625.72 586.05 627.16 579.81 631.55 578.77 Z" />
<path fill="#22221f" d=" M 15.94 626.84 C 21.14 622.26 28.91 623.14 34.99 625.29 C 36.04 625.00 37.10 624.72 38.16 624.45 C 38.57 627.89 39.59 631.35 38.97 634.83 C 36.49 631.77 34.50 627.82 30.52 626.46 C 27.10 624.89 22.68 625.32 19.94 628.02 C 17.39 630.59 18.13 635.01 20.63 637.37 C 26.92 643.83 37.38 646.09 41.15 654.95 C 43.67 662.26 37.86 669.87 30.54 670.82 C 24.83 672.55 19.37 668.57 13.71 669.91 C 13.20 666.00 12.48 662.10 12.33 658.16 C 14.85 659.69 15.27 662.87 17.13 664.97 C 21.00 669.16 28.03 670.06 32.71 666.73 C 36.28 664.42 36.88 658.79 33.99 655.73 C 28.65 649.59 20.14 647.29 15.01 640.91 C 11.62 636.96 11.72 630.18 15.94 626.84 Z" />
<path fill="#22221f" d=" M 72.23 630.30 C 79.53 623.43 90.50 622.38 99.91 624.55 C 102.95 625.43 106.01 626.25 109.18 626.54 C 109.24 629.95 109.36 633.37 109.46 636.80 C 109.06 636.75 108.25 636.66 107.85 636.61 C 105.93 632.09 102.31 628.09 97.53 626.61 C 89.69 623.82 79.95 626.66 75.48 633.84 C 69.02 644.04 71.73 659.42 82.08 666.05 C 85.57 668.40 89.82 669.12 93.95 669.25 C 94.58 669.83 95.21 670.41 95.85 671.00 C 87.12 671.96 77.44 670.34 71.06 663.86 C 62.15 654.86 62.87 638.70 72.23 630.30 Z" />
<path fill="#22221f" d=" M 235.44 626.92 C 231.72 625.00 227.09 626.71 223.74 624.02 C 232.90 622.48 243.10 624.40 249.73 631.31 C 258.31 639.75 257.35 654.82 249.12 663.16 C 238.85 674.20 219.32 673.69 209.06 662.93 C 200.32 653.76 202.14 637.61 211.69 629.70 C 214.85 627.03 218.73 625.42 222.66 624.22 C 223.42 624.80 224.19 625.38 224.96 625.96 C 218.24 626.97 213.36 632.77 211.68 639.07 C 209.01 647.65 211.32 657.85 218.00 664.01 C 224.23 669.74 234.72 671.12 241.51 665.57 C 253.02 655.33 250.34 632.62 235.44 626.92 Z" />
<path fill="#22221f" d=" M 296.66 624.89 C 305.67 622.29 316.18 623.29 323.64 629.33 C 329.53 633.85 332.73 641.52 331.69 648.90 C 330.92 659.48 322.27 668.56 311.97 670.55 C 302.12 672.57 290.67 669.81 284.16 661.78 C 276.54 652.46 278.61 637.40 287.70 629.80 C 290.32 627.60 293.42 625.98 296.66 624.89 Z" />
<path fill="#22221f" d=" M 456.70 624.94 C 464.72 622.62 473.91 623.01 481.13 627.50 C 486.04 630.29 489.70 635.06 491.30 640.46 C 492.87 647.99 491.43 656.38 486.21 662.24 C 475.85 674.57 454.37 674.03 444.23 661.72 C 436.67 652.40 438.74 637.51 447.74 629.89 C 450.34 627.64 453.44 626.00 456.70 624.94 Z" />
<path fill="#22221f" d=" M 594.43 626.17 C 595.16 624.20 597.31 624.67 598.95 624.48 C 608.26 624.09 617.84 622.84 626.96 625.38 C 631.79 626.78 635.64 631.89 634.22 637.01 C 633.49 640.52 630.28 642.69 627.17 643.99 C 630.80 645.64 634.54 647.86 636.18 651.70 C 638.05 657.21 636.28 664.04 631.25 667.27 C 625.61 671.15 618.44 669.90 612.01 670.11 C 606.09 669.85 600.08 670.68 594.23 669.61 C 594.26 669.34 594.33 668.81 594.36 668.55 C 597.47 667.97 603.11 668.82 603.04 664.17 C 603.27 654.46 603.02 644.73 603.15 635.01 C 603.06 632.69 603.42 630.25 602.47 628.08 C 600.52 625.65 597.09 626.64 594.43 626.17 Z" />
<path fill="#22221f" d=" M 732.70 634.00 C 732.95 629.34 736.58 625.38 741.01 624.19 C 745.67 622.98 750.63 623.59 755.12 625.22 C 755.94 625.02 757.57 624.62 758.39 624.42 C 759.13 627.87 759.68 631.39 759.36 634.93 C 756.88 631.80 754.95 627.79 750.87 626.47 C 746.67 624.50 740.30 625.70 738.79 630.58 C 737.96 633.65 739.90 636.56 742.13 638.50 C 747.58 643.26 754.86 645.75 759.47 651.51 C 763.08 655.78 762.79 662.86 758.66 666.69 C 756.19 669.40 752.57 670.69 749.01 671.10 C 743.84 671.83 739.01 668.76 733.83 669.68 C 733.59 665.80 732.77 661.99 732.61 658.11 C 735.02 659.33 735.24 662.30 736.91 664.20 C 740.75 669.42 749.20 670.40 753.98 665.95 C 756.70 663.22 756.89 658.52 754.25 655.66 C 749.31 650.09 741.83 647.69 736.61 642.43 C 734.37 640.19 732.78 637.20 732.70 634.00 Z" />
<path fill="#22221f" d=" M 898.03 626.01 C 898.97 624.72 900.49 624.50 901.97 624.61 C 912.74 624.66 923.51 624.57 934.29 624.66 C 934.36 628.06 934.48 631.46 934.67 634.86 C 934.25 634.82 933.42 634.75 933.00 634.72 C 932.28 632.27 932.14 628.70 929.29 627.79 C 923.74 627.35 918.15 627.71 912.59 627.62 C 912.55 633.44 912.55 639.25 912.60 645.08 C 917.08 645.03 921.58 645.30 926.07 644.97 C 929.53 645.01 928.42 640.18 931.22 639.13 C 931.38 643.78 931.63 648.49 931.18 653.13 L 930.03 654.28 C 929.20 652.42 929.21 650.01 927.66 648.57 C 922.77 647.21 917.56 647.82 912.56 648.10 C 912.89 654.24 911.83 660.54 913.29 666.58 C 918.79 667.52 924.47 667.48 930.00 666.86 C 933.71 666.32 934.77 662.22 935.87 659.25 C 936.29 659.21 937.13 659.12 937.55 659.07 C 937.26 662.76 936.77 666.43 936.31 670.11 C 924.18 670.09 912.04 670.14 899.91 670.10 C 898.57 670.40 897.66 669.40 896.80 668.63 C 900.16 667.99 906.27 669.01 906.28 663.98 C 906.37 652.62 906.54 641.23 906.19 629.89 C 905.84 625.87 900.78 626.60 898.03 626.01 Z" />
<path fill="#22221f" d=" M 963.77 626.75 C 967.91 623.05 974.02 623.09 979.14 624.25 C 981.40 624.88 983.76 624.85 986.09 624.73 C 986.39 628.01 986.89 631.27 987.06 634.57 C 984.30 632.51 983.11 628.88 979.97 627.29 C 976.32 625.02 971.03 624.72 967.85 627.94 C 965.27 630.33 965.71 634.69 968.11 637.05 C 973.65 642.99 982.24 645.23 987.17 651.83 C 989.57 654.89 990.24 659.26 988.64 662.83 C 987.03 667.27 982.59 670.06 978.09 670.84 C 973.68 671.87 969.22 670.49 964.98 669.35 C 963.82 669.57 962.67 669.80 961.53 670.04 C 961.02 666.36 960.27 662.69 960.20 658.97 L 961.13 658.28 C 962.85 661.62 964.25 665.60 967.93 667.29 C 973.47 670.66 983.14 668.27 983.69 660.96 C 983.67 655.28 978.02 652.29 973.90 649.52 C 969.77 646.96 965.53 644.34 962.46 640.49 C 959.28 636.50 959.68 629.95 963.77 626.75 Z" />
<path fill="#22221f" d=" M 1013.13 630.13 C 1015.07 626.03 1019.65 623.67 1024.09 623.62 C 1028.77 623.13 1033.19 625.35 1037.89 624.83 C 1038.51 628.14 1039.14 631.54 1038.50 634.90 C 1036.39 631.91 1034.60 628.32 1031.05 626.81 C 1027.20 624.68 1021.60 625.14 1018.98 628.96 C 1017.38 631.73 1018.19 635.43 1020.52 637.56 C 1026.12 643.05 1034.32 645.42 1039.13 651.82 C 1042.46 655.98 1042.06 662.48 1038.50 666.38 C 1035.15 670.05 1029.88 671.52 1025.03 671.12 C 1021.17 670.88 1017.43 668.59 1013.57 670.07 C 1013.20 666.03 1011.37 661.79 1012.82 657.85 C 1014.64 660.95 1015.72 664.81 1019.02 666.76 C 1023.50 669.81 1030.62 669.53 1034.13 665.09 C 1036.40 662.30 1035.98 658.05 1033.56 655.49 C 1028.20 649.64 1020.02 647.27 1014.94 641.10 C 1012.22 638.22 1011.70 633.73 1013.13 630.13 Z" />
<path fill="#22221f" d=" M 133.55 624.64 C 139.26 624.62 144.98 624.61 150.69 624.64 L 150.80 626.12 C 148.91 626.60 145.85 626.61 145.38 629.07 C 144.56 634.57 145.20 640.18 145.05 645.72 C 154.31 645.70 163.57 645.71 172.83 645.71 C 172.66 639.96 173.30 634.13 172.48 628.43 C 171.06 625.47 166.75 627.64 165.25 624.82 C 171.99 624.52 178.76 624.45 185.49 624.88 C 183.94 627.04 179.53 626.62 179.54 629.90 C 179.25 640.27 179.53 650.66 179.41 661.04 C 179.49 663.16 179.11 665.71 180.89 667.31 C 182.55 668.20 184.49 668.25 186.29 668.70 C 185.19 670.59 182.89 670.02 181.06 670.13 C 176.01 670.01 170.96 670.27 165.93 670.01 C 165.60 669.64 164.94 668.88 164.61 668.51 C 167.21 668.04 171.25 668.92 172.56 665.96 C 173.21 660.15 172.72 654.28 172.81 648.45 C 163.57 648.48 154.32 648.48 145.08 648.45 C 145.13 654.04 144.70 659.65 145.26 665.22 C 145.61 668.14 149.26 667.91 151.33 668.84 C 149.72 670.68 147.09 669.96 144.96 670.14 C 140.69 669.93 136.33 670.59 132.14 669.57 C 133.37 667.09 138.31 668.65 138.43 665.09 C 138.66 653.41 138.52 641.71 138.49 630.03 C 138.78 627.25 135.43 626.82 133.52 626.08 L 133.55 624.64 Z" />
<path fill="#22221f" d=" M 353.58 624.64 C 360.80 624.64 368.01 624.58 375.22 624.67 L 375.15 626.31 C 372.94 626.42 370.68 626.25 368.53 626.82 C 366.78 627.33 366.64 629.46 366.66 630.98 C 366.67 642.80 366.62 654.63 366.70 666.45 C 371.67 667.66 376.92 667.38 381.96 666.90 C 386.64 666.26 387.29 659.90 391.64 659.05 C 389.91 662.69 388.15 666.36 386.00 669.78 C 381.03 670.53 375.96 669.92 370.95 670.11 C 364.83 669.90 358.63 670.67 352.58 669.49 C 354.52 667.84 357.22 668.06 359.56 667.46 C 360.93 660.72 359.94 653.78 360.24 646.96 C 359.93 640.47 360.97 633.86 359.48 627.48 C 357.56 626.82 355.57 626.41 353.57 626.15 L 353.58 624.64 Z" />
<path fill="#22221f" d=" M 510.67 624.63 C 521.57 624.63 532.46 624.62 543.36 624.63 C 543.37 627.80 543.46 630.97 543.11 634.13 C 541.24 632.14 541.43 627.98 538.03 627.77 C 532.79 627.37 527.53 627.68 522.29 627.65 C 522.31 633.18 522.29 638.72 522.31 644.25 C 527.38 644.21 532.45 644.45 537.51 644.17 C 539.68 644.04 540.03 641.64 540.80 640.08 C 541.17 640.11 541.92 640.17 542.29 640.21 C 542.27 644.32 542.28 648.45 542.28 652.57 C 541.92 652.58 541.19 652.60 540.83 652.61 C 540.17 650.83 540.09 648.17 537.91 647.59 C 532.73 647.06 527.50 647.47 522.31 647.37 C 522.85 654.00 521.06 661.03 523.46 667.38 C 525.42 667.84 527.40 668.33 529.35 668.89 C 528.28 669.38 527.26 670.21 526.02 670.08 C 520.83 670.16 515.63 670.14 510.44 670.03 C 511.12 667.99 513.36 667.92 515.00 667.06 C 516.07 665.26 515.93 663.03 516.15 661.02 C 516.23 653.36 516.12 645.70 516.19 638.05 C 516.18 634.86 516.36 631.60 515.45 628.51 C 514.63 626.62 512.24 626.66 510.59 626.10 L 510.67 624.63 Z" />
<path fill="#fefefe" d=" M 609.68 625.78 C 614.07 625.77 618.73 625.14 622.80 627.21 C 628.37 629.66 629.51 638.90 623.99 642.07 C 619.52 644.31 614.37 643.22 609.57 643.44 C 609.58 637.55 609.45 631.66 609.68 625.78 Z" />
<path fill="#22221f" d=" M 656.01 624.89 C 662.56 624.35 669.15 624.74 675.72 624.64 L 675.73 626.16 C 674.00 626.52 672.09 626.43 670.63 627.54 C 669.00 628.86 669.48 631.15 669.32 632.98 C 669.41 639.90 669.16 646.82 669.45 653.74 C 669.66 659.84 674.34 665.31 680.35 666.43 C 687.01 667.58 695.46 667.11 699.56 660.89 C 702.85 655.91 702.00 649.64 702.12 643.98 C 701.95 639.01 702.63 633.91 701.36 629.04 C 700.11 626.20 696.02 627.35 694.29 624.90 C 700.53 624.46 706.82 624.47 713.07 624.88 C 711.57 626.74 709.02 626.73 707.15 627.96 C 705.99 629.38 705.90 631.32 705.73 633.07 C 705.57 640.07 705.81 647.07 705.66 654.08 C 705.51 660.03 701.89 665.69 696.62 668.44 C 691.22 671.25 684.84 671.68 678.91 670.78 C 673.36 669.98 667.86 667.01 665.16 661.96 C 662.18 656.81 663.18 650.69 663.03 645.03 C 662.88 639.22 663.50 633.35 662.41 627.60 C 660.25 626.75 657.60 626.80 656.01 624.89 Z" />
<path fill="#22221f" d=" M 784.00 624.87 C 790.13 624.38 796.29 624.72 802.43 624.63 L 802.47 626.13 C 799.95 626.48 796.46 627.11 796.50 630.38 C 796.21 640.58 796.50 650.80 796.37 661.01 C 796.46 662.68 796.17 664.51 796.96 666.07 C 797.95 668.13 800.64 667.79 802.44 668.73 C 803.53 670.24 800.71 669.75 800.01 670.07 C 794.67 669.77 788.97 671.11 783.90 669.06 C 785.63 668.37 787.45 667.85 789.12 667.00 C 790.07 665.16 790.10 663.00 790.18 660.98 C 790.17 651.98 790.14 642.98 790.19 633.98 C 790.14 631.90 790.24 629.67 789.16 627.82 C 787.43 626.83 785.28 626.54 784.00 624.87 Z" />
<path fill="#22221f" d=" M 823.55 624.83 C 827.65 624.51 831.77 624.61 835.89 624.68 C 847.18 636.31 858.30 648.11 869.60 659.73 C 869.59 649.79 869.74 639.85 869.55 629.92 C 869.66 626.37 864.99 626.71 862.60 626.17 L 862.62 624.65 C 868.68 624.72 874.77 624.36 880.84 624.89 C 878.96 627.58 873.13 625.59 873.40 629.88 C 873.23 643.52 873.45 657.18 873.30 670.83 C 872.58 670.57 871.12 670.05 870.39 669.79 C 858.11 657.24 846.24 644.29 833.87 631.83 C 833.89 642.59 833.61 653.38 834.00 664.13 C 833.83 668.27 838.70 667.98 841.53 668.68 C 841.18 669.00 840.48 669.65 840.13 669.98 C 835.42 670.24 830.68 670.14 825.96 670.05 C 824.96 670.04 824.17 669.61 823.62 668.74 C 825.52 668.02 828.00 668.22 829.50 666.67 C 830.39 664.93 830.23 662.94 830.27 661.07 C 830.18 650.02 830.32 638.96 830.21 627.91 C 827.96 626.96 825.12 626.88 823.55 624.83 Z" />
<path fill="#fefefe" d=" M 301.83 625.73 C 309.50 624.68 317.74 628.56 321.39 635.48 C 326.05 643.83 325.98 655.24 320.05 662.97 C 316.27 668.14 309.22 670.20 303.12 668.60 C 294.64 666.99 288.39 659.25 287.16 650.92 C 284.92 640.64 290.38 627.30 301.83 625.73 Z" />
<path fill="#fefefe" d=" M 461.04 625.90 C 469.23 624.27 478.21 628.60 481.89 636.13 C 486.29 644.89 485.93 656.70 479.15 664.16 C 473.09 670.91 462.01 670.31 455.29 664.89 C 445.35 656.99 444.02 640.77 452.10 631.10 C 454.36 628.37 457.63 626.69 461.04 625.90 Z" />
<path fill="#fefefe" d=" M 609.57 645.27 C 615.23 645.35 621.83 644.28 626.37 648.51 C 632.55 653.75 630.12 665.64 621.89 667.22 C 617.76 668.03 610.92 668.53 609.80 663.15 C 609.22 657.22 609.72 651.22 609.57 645.27 Z" />
<path fill="#22221f" d=" M 106.69 662.61 C 108.28 661.05 109.11 658.44 111.56 658.04 C 110.60 661.96 108.84 665.62 106.97 669.18 C 103.72 669.23 100.49 669.73 97.36 670.63 C 96.54 670.09 95.72 669.56 94.91 669.04 C 99.41 668.27 103.82 666.26 106.69 662.61 Z" />
<path fill="#22221f" d=" M 12.53 707.66 C 360.02 707.63 707.51 707.65 1055.00 707.64 L 1055.00 711.48 C 707.49 711.47 359.98 711.50 12.46 711.46 C 12.48 710.51 12.51 708.61 12.53 707.66 Z" />
<path fill="#f9123c" d=" M 314.23 756.24 C 319.12 753.70 324.84 753.93 330.15 754.54 C 336.18 755.45 341.10 759.51 344.83 764.11 C 342.88 765.67 340.90 767.20 338.94 768.74 C 336.10 765.21 332.62 761.72 327.92 761.04 C 320.98 759.38 313.69 763.12 310.17 769.16 C 305.13 777.68 304.53 788.43 307.33 797.81 C 309.27 804.22 313.74 810.50 320.49 812.34 C 325.92 813.46 332.34 812.53 336.12 808.11 C 339.66 804.21 340.33 798.73 340.51 793.68 C 336.74 793.66 332.97 793.67 329.20 793.65 C 329.22 791.34 329.26 789.03 329.35 786.74 C 335.40 786.79 341.46 786.75 347.52 786.76 C 347.82 794.53 347.84 802.85 343.50 809.65 C 338.22 818.49 326.38 821.38 316.92 818.50 C 309.97 816.40 304.62 810.68 301.75 804.15 C 298.14 795.96 297.62 786.63 299.19 777.89 C 300.82 769.03 305.88 760.25 314.23 756.24 Z" />
<path fill="#f9123c" d=" M 574.53 762.59 C 579.18 756.84 586.60 753.50 594.01 754.19 C 601.65 753.86 608.94 758.08 613.12 764.38 C 611.18 765.85 609.22 767.29 607.19 768.65 C 604.62 765.32 601.41 762.04 597.11 761.23 C 591.15 759.59 584.41 761.74 580.50 766.53 C 575.31 772.75 573.76 781.23 574.19 789.13 C 574.63 796.52 577.09 804.31 582.95 809.18 C 587.77 813.52 595.28 813.76 600.90 810.90 C 603.87 809.46 606.08 806.92 608.29 804.55 C 609.90 805.88 611.53 807.19 613.19 808.48 C 606.79 820.10 589.46 822.98 578.94 815.31 C 571.25 809.78 567.68 800.18 566.88 791.03 C 566.07 781.11 568.12 770.46 574.53 762.59 Z" />
<path fill="#f9123c" d=" M 160.53 754.81 C 171.85 755.27 184.43 753.00 194.47 759.58 C 203.50 765.41 206.48 776.85 206.34 787.01 C 206.20 797.07 203.00 808.27 193.98 813.89 C 184.04 820.39 171.67 818.24 160.46 818.54 C 160.50 797.30 160.37 776.05 160.53 754.81 Z" />
<path fill="#f9123c" d=" M 218.59 754.84 C 220.92 754.82 223.25 754.80 225.59 754.77 C 225.90 776.04 225.65 797.32 225.71 818.59 C 223.32 818.58 220.93 818.57 218.54 818.55 C 218.62 797.31 218.50 776.08 218.59 754.84 Z" />
<path fill="#f9123c" d=" M 240.66 755.31 C 243.43 755.05 247.43 753.54 249.02 756.74 C 259.07 773.24 269.60 789.45 279.38 806.11 C 279.65 789.01 279.32 771.91 279.54 754.81 C 281.85 754.81 284.15 754.82 286.45 754.83 C 286.55 776.07 286.47 797.32 286.50 818.56 C 284.25 818.56 282.00 818.57 279.76 818.59 C 269.09 801.96 258.37 785.37 247.95 768.60 C 247.55 785.26 247.92 801.94 247.76 818.61 C 245.41 818.58 243.05 818.55 240.69 818.49 C 240.71 797.43 240.76 776.37 240.66 755.31 Z" />
<path fill="#f9123c" d=" M 358.63 755.30 C 361.56 755.14 366.64 753.19 367.78 757.13 C 373.85 772.84 380.21 788.43 386.15 804.19 C 392.53 787.76 399.03 771.39 405.67 755.07 C 408.30 755.07 410.94 755.08 413.58 755.12 C 413.59 776.27 413.60 797.42 413.57 818.58 C 411.23 818.57 408.89 818.57 406.56 818.55 C 406.48 802.41 406.72 786.26 406.42 770.11 C 403.13 780.14 398.61 789.70 394.73 799.49 C 391.73 806.37 389.19 813.46 385.90 820.21 C 379.16 803.94 372.59 787.60 365.95 771.29 C 365.57 787.06 365.92 802.84 365.77 818.61 C 363.40 818.58 361.03 818.55 358.67 818.48 C 358.72 797.42 358.80 776.35 358.63 755.30 Z" />
<path fill="#f9123c" d=" M 424.52 818.51 C 431.90 797.26 439.11 775.96 446.72 754.79 C 449.28 754.81 451.84 754.82 454.41 754.80 C 461.98 775.99 469.24 797.29 476.60 818.55 C 474.00 818.58 471.42 818.58 468.83 818.56 C 467.03 813.17 465.12 807.82 463.40 802.41 C 454.81 802.39 446.22 802.39 437.64 802.41 C 435.84 807.80 433.86 813.13 432.16 818.55 C 429.61 818.57 427.07 818.56 424.52 818.51 Z" />
<path fill="#f9123c" d=" M 487.58 754.83 C 489.82 754.81 492.08 754.80 494.34 754.78 C 505.19 771.57 515.47 788.75 526.10 805.69 C 526.57 788.68 525.95 771.66 526.44 754.66 C 528.75 754.77 531.07 754.97 533.38 755.28 C 533.23 776.36 533.31 797.44 533.35 818.51 C 531.04 818.55 528.73 818.56 526.43 818.57 C 515.87 801.91 505.11 785.37 494.70 768.63 C 494.36 785.27 494.68 801.93 494.54 818.59 C 492.21 818.57 489.88 818.56 487.55 818.55 C 487.54 797.31 487.48 776.07 487.58 754.83 Z" />
<path fill="#f9123c" d=" M 624.41 755.08 C 637.12 754.51 649.87 755.01 662.60 754.80 C 662.68 757.07 662.72 759.35 662.75 761.64 C 652.41 761.70 642.06 761.61 631.72 761.70 C 631.70 768.20 631.69 774.71 631.72 781.22 C 637.73 781.28 643.74 781.19 649.76 781.28 C 649.58 783.53 650.22 786.04 649.22 788.14 C 643.37 788.42 637.51 788.01 631.67 788.36 C 631.72 796.13 631.73 803.91 631.66 811.69 C 642.50 811.99 653.34 811.73 664.18 811.84 C 664.20 814.05 664.22 816.27 664.25 818.50 C 650.96 818.67 637.68 818.58 624.39 818.57 C 624.43 797.40 624.40 776.24 624.41 755.08 Z" />
<path fill="#f9123c" d=" M 675.66 754.75 C 678.15 754.76 680.65 754.91 683.12 755.34 C 693.19 772.23 703.75 788.85 714.13 805.56 C 714.59 788.64 714.01 771.70 714.43 754.78 C 716.76 754.80 719.09 754.81 721.43 754.83 C 721.51 776.08 721.45 797.33 721.46 818.58 C 718.69 818.16 714.66 819.92 713.25 816.61 C 703.11 800.40 692.32 784.58 682.69 768.07 C 682.48 784.91 682.67 801.75 682.58 818.59 C 680.25 818.58 677.93 818.58 675.61 818.57 C 675.62 797.30 675.53 776.02 675.66 754.75 Z" />
<path fill="#f9123c" d=" M 731.97 754.81 C 746.82 755.00 761.69 754.53 776.54 755.05 C 776.52 757.24 776.51 759.44 776.49 761.65 C 770.29 761.68 764.09 761.64 757.90 761.67 C 757.87 780.63 757.88 799.59 757.89 818.54 C 755.43 818.56 752.97 818.57 750.51 818.58 C 750.49 799.61 750.55 780.64 750.48 761.67 C 744.28 761.66 738.08 761.65 731.88 761.67 C 731.89 759.38 731.91 757.09 731.97 754.81 Z" />
<path fill="#f9123c" d=" M 787.22 818.59 C 787.26 797.31 786.96 776.03 787.37 754.77 C 800.11 754.90 812.84 754.82 825.58 754.80 C 825.65 757.08 825.69 759.36 825.73 761.66 C 815.34 761.69 804.95 761.61 794.55 761.69 C 794.53 768.20 794.54 774.72 794.55 781.24 C 800.55 781.28 806.55 781.21 812.55 781.28 C 812.55 783.50 812.55 785.72 812.55 787.96 C 806.54 788.51 800.49 788.03 794.47 788.33 C 794.64 796.16 794.46 804.00 794.58 811.83 C 805.32 811.81 816.07 811.81 826.81 811.84 C 826.80 814.08 826.78 816.33 826.76 818.58 C 813.58 818.59 800.40 818.58 787.22 818.59 Z" />
<path fill="#f9123c" d=" M 838.41 754.95 C 845.94 754.66 853.47 754.90 861.01 754.82 C 866.72 754.93 873.06 755.42 877.56 759.37 C 884.10 764.77 884.99 774.93 881.25 782.19 C 878.79 787.01 873.80 789.81 868.72 791.12 C 873.14 800.33 877.81 809.43 882.54 818.49 C 879.64 818.57 876.75 818.58 873.86 818.52 C 869.32 809.57 864.95 800.53 860.31 791.64 C 855.45 791.67 850.58 791.62 845.72 791.69 C 845.71 800.65 845.73 809.61 845.72 818.57 C 843.27 818.57 840.83 818.58 838.39 818.57 C 838.39 797.37 838.36 776.16 838.41 754.95 Z" />
<path fill="#fefefe" d=" M 167.76 761.71 C 175.40 761.63 183.90 760.84 190.42 765.66 C 197.36 770.68 199.10 779.93 198.79 787.99 C 198.73 795.63 196.63 804.49 189.58 808.67 C 183.08 812.83 175.05 811.70 167.75 811.77 C 167.76 795.08 167.74 778.40 167.76 761.71 Z" />
<path fill="#fefefe" d=" M 845.73 761.69 C 851.82 761.68 857.91 761.61 864.00 761.69 C 868.32 761.78 873.23 763.54 874.97 767.86 C 877.20 773.43 876.05 781.76 869.53 783.83 C 861.81 786.06 853.64 784.76 845.72 785.10 C 845.72 777.30 845.71 769.49 845.73 761.69 Z" />
<path fill="#fefefe" d=" M 450.44 763.78 C 453.95 774.40 457.64 784.99 460.96 795.68 C 453.97 795.72 446.98 795.73 439.99 795.66 C 443.30 784.97 447.36 774.53 450.44 763.78 Z" />
<path fill="#f9123c" d=" M 151.68 863.55 C 164.53 863.44 177.38 863.42 190.23 863.56 C 190.26 865.61 190.29 867.66 190.34 869.72 C 179.87 870.90 169.27 869.69 158.75 870.37 C 158.87 876.75 158.80 883.14 158.80 889.53 C 164.96 889.65 171.13 889.54 177.30 889.63 C 177.30 891.87 177.30 894.11 177.31 896.36 C 171.18 896.42 165.06 896.37 158.93 896.41 C 158.95 904.30 158.26 912.30 159.29 920.13 C 170.05 920.57 180.83 920.06 191.59 920.38 C 191.55 922.56 191.52 924.76 191.49 926.96 C 178.23 926.89 164.96 927.06 151.69 926.87 C 151.67 905.76 151.70 884.66 151.68 863.55 Z" />
<path fill="#f9123c" d=" M 203.15 863.46 C 205.48 863.46 207.82 863.49 210.15 863.55 C 220.54 880.49 231.20 897.28 241.48 914.30 C 241.78 897.38 241.55 880.45 241.60 863.53 C 243.93 863.49 246.26 863.48 248.60 863.47 C 248.63 884.62 248.59 905.77 248.61 926.92 C 246.33 926.70 243.57 927.53 241.58 926.41 C 236.65 919.24 232.19 911.74 227.43 904.45 C 221.81 895.44 215.80 886.68 210.52 877.47 C 210.02 879.27 209.71 881.12 209.78 883.00 C 209.86 897.64 209.78 912.28 209.82 926.93 C 207.49 926.93 205.16 926.91 202.84 926.85 C 203.06 905.72 202.43 884.57 203.15 863.46 Z" />
<path fill="#f9123c" d=" M 259.24 863.51 C 274.08 863.45 288.92 863.50 303.76 863.48 C 303.76 865.70 303.75 867.93 303.73 870.16 C 297.58 870.24 291.44 870.16 285.30 870.22 C 285.25 889.13 285.31 908.03 285.26 926.94 C 282.75 926.94 280.24 926.91 277.73 926.85 C 277.76 907.98 277.74 889.11 277.74 870.24 C 271.63 870.06 265.50 870.45 259.40 870.05 C 259.19 867.87 259.24 865.68 259.24 863.51 Z" />
<path fill="#f9123c" d=" M 314.50 863.51 C 323.33 863.47 332.16 863.47 341.00 863.49 C 347.48 863.43 354.37 866.45 357.50 872.37 C 361.15 879.79 360.10 889.98 353.48 895.41 C 351.01 897.48 347.89 898.52 344.90 899.61 C 349.27 908.78 354.00 917.79 358.60 926.85 C 355.72 926.92 352.84 926.95 349.96 926.92 C 345.59 917.99 341.07 909.14 336.63 900.24 C 331.67 900.18 326.69 900.07 321.73 900.37 C 321.84 909.21 321.77 918.05 321.77 926.90 C 319.36 926.93 316.95 926.93 314.54 926.95 C 314.44 905.80 314.52 884.66 314.50 863.51 Z" />
<path fill="#f9123c" d=" M 371.41 863.49 C 384.22 863.48 397.02 863.47 409.83 863.50 C 409.79 865.74 409.74 867.99 409.64 870.25 C 399.36 870.14 389.07 870.19 378.78 870.23 C 378.74 876.66 378.79 883.10 378.73 889.55 C 384.74 889.62 390.75 889.57 396.75 889.61 C 396.76 891.85 396.77 894.11 396.77 896.37 C 390.76 896.42 384.74 896.33 378.73 896.45 C 378.79 904.39 378.72 912.32 378.79 920.27 C 389.54 920.41 400.31 920.09 411.06 920.41 C 411.39 922.54 411.30 924.71 411.32 926.87 C 398.02 927.02 384.71 926.96 371.40 926.90 C 371.44 905.76 371.42 884.63 371.41 863.49 Z" />
<path fill="#f9123c" d=" M 422.58 863.51 C 431.08 863.48 439.58 863.45 448.08 863.50 C 454.71 863.64 461.92 866.74 464.71 873.13 C 468.70 881.79 466.82 894.10 457.97 899.03 C 449.47 903.86 439.36 901.65 430.07 902.19 C 429.84 910.43 430.01 918.68 429.93 926.93 C 427.48 926.93 425.03 926.93 422.59 926.93 C 422.57 905.79 422.60 884.65 422.58 863.51 Z" />
<path fill="#f9123c" d=" M 476.46 863.50 C 485.30 863.48 494.15 863.46 503.00 863.49 C 509.97 863.38 517.56 866.96 520.18 873.76 C 522.84 880.79 521.89 889.85 515.99 895.02 C 513.47 897.40 510.10 898.49 506.91 899.66 C 511.38 908.79 516.06 917.82 520.64 926.90 C 517.74 926.94 514.84 926.94 511.95 926.89 C 507.58 918.03 503.29 909.12 498.66 900.41 C 493.69 899.91 488.67 900.19 483.70 900.37 C 483.85 909.22 483.73 918.07 483.76 926.93 C 481.31 926.93 478.87 926.92 476.44 926.90 C 476.47 905.77 476.43 884.63 476.46 863.50 Z" />
<path fill="#f9123c" d=" M 533.37 863.51 C 546.18 863.46 558.99 863.47 571.80 863.51 C 571.76 865.75 571.71 868.00 571.62 870.26 C 561.32 870.13 551.03 870.21 540.73 870.21 C 540.66 876.66 540.73 883.10 540.69 889.55 C 546.69 889.62 552.69 889.57 558.69 889.61 C 558.69 891.86 558.69 894.11 558.68 896.38 C 552.68 896.42 546.68 896.34 540.69 896.43 C 540.75 904.37 540.65 912.31 540.74 920.26 C 551.58 920.32 562.43 920.29 573.29 920.27 C 573.29 922.48 573.30 924.70 573.30 926.93 C 559.99 926.95 546.68 926.99 533.37 926.91 C 533.37 905.78 533.36 884.64 533.37 863.51 Z" />
<path fill="#f9123c" d=" M 623.42 863.47 C 625.75 863.47 628.07 863.49 630.41 863.53 C 630.37 884.66 630.42 905.80 630.39 926.94 C 627.88 926.48 624.15 928.16 622.58 925.51 C 612.35 909.39 601.97 893.37 591.86 877.18 C 591.52 893.75 591.81 910.33 591.72 926.90 C 589.32 926.93 586.92 926.94 584.54 926.96 C 584.52 905.80 584.54 884.63 584.53 863.47 C 586.97 863.47 589.41 863.49 591.86 863.54 C 602.30 880.50 612.86 897.38 623.30 914.33 C 623.55 897.38 623.31 880.42 623.42 863.47 Z" />
<path fill="#f9123c" d=" M 644.70 863.57 C 657.61 863.40 670.53 863.49 683.44 863.52 C 683.42 865.74 683.40 867.98 683.36 870.22 C 673.02 870.17 662.67 870.19 652.33 870.21 C 652.32 876.67 652.30 883.13 652.33 889.60 C 658.33 889.60 664.34 889.55 670.34 889.63 C 670.35 891.86 670.35 894.11 670.37 896.36 C 664.36 896.41 658.34 896.39 652.33 896.39 C 652.35 904.36 652.19 912.33 652.43 920.30 C 663.21 920.28 674.00 920.27 684.78 920.31 C 684.79 922.50 684.79 924.70 684.79 926.91 C 671.43 926.93 658.06 927.08 644.70 926.84 C 644.73 905.75 644.73 884.66 644.70 863.57 Z" />
<path fill="#f9123c" d=" M 695.58 863.55 C 698.00 863.50 700.43 863.47 702.86 863.46 C 703.62 877.29 702.83 891.18 703.27 905.03 C 703.48 910.74 705.88 917.08 711.34 919.67 C 717.13 922.17 724.76 922.00 729.54 917.52 C 733.69 913.11 733.80 906.66 734.22 900.98 C 734.27 888.48 734.20 875.98 734.25 863.48 C 736.67 863.47 739.10 863.49 741.53 863.53 C 741.50 876.33 741.55 889.13 741.50 901.94 C 741.35 909.44 739.82 917.70 734.02 922.98 C 728.37 928.04 720.22 928.45 713.06 927.50 C 707.02 926.62 701.43 922.81 698.79 917.25 C 695.21 910.06 695.47 901.84 695.59 894.03 C 695.58 883.87 695.59 873.71 695.58 863.55 Z" />
<path fill="#f9123c" d=" M 755.52 863.53 C 764.35 863.45 773.17 863.47 782.00 863.49 C 785.50 863.46 789.00 864.28 792.09 865.96 C 803.50 871.88 803.32 891.00 792.14 897.05 C 790.15 898.13 788.01 898.88 785.93 899.71 C 790.33 908.86 795.12 917.81 799.59 926.92 C 796.74 926.94 793.89 926.94 791.05 926.91 C 786.67 917.98 781.98 909.21 777.70 900.24 C 772.72 900.15 767.73 900.20 762.75 900.18 C 762.71 909.09 762.75 917.99 762.73 926.90 C 760.34 926.93 757.95 926.94 755.57 926.94 C 755.47 905.80 755.57 884.67 755.52 863.53 Z" />
<path fill="#f9123c" d=" M 816.52 866.56 C 822.28 862.14 830.07 861.91 836.97 862.93 C 841.93 863.62 846.22 866.35 850.29 869.09 C 848.79 871.10 847.22 873.06 845.65 875.02 C 842.10 872.61 838.44 869.93 834.04 869.47 C 829.61 869.11 824.53 868.87 820.97 872.02 C 818.05 874.46 817.70 878.78 818.89 882.18 C 821.64 886.94 827.35 888.52 832.14 890.49 C 838.68 893.05 846.36 895.52 849.92 902.12 C 852.62 908.31 852.04 916.23 847.45 921.41 C 843.60 925.75 837.67 927.80 831.97 927.85 C 823.62 928.33 814.80 925.36 809.14 919.08 C 810.56 917.09 812.28 915.33 813.94 913.55 C 818.73 918.26 825.20 921.69 832.08 921.24 C 836.53 920.89 841.66 919.07 843.35 914.52 C 845.35 910.50 843.83 905.34 840.25 902.75 C 833.35 897.65 824.32 896.76 817.34 891.77 C 808.76 886.51 808.55 872.46 816.52 866.56 Z" />
<path fill="#f9123c" d=" M 864.17 863.46 C 866.59 863.46 869.02 863.48 871.46 863.51 C 871.45 872.48 871.41 881.45 871.48 890.43 C 881.82 890.43 892.17 890.45 902.52 890.41 C 902.54 881.44 902.52 872.48 902.54 863.52 C 904.97 863.48 907.41 863.47 909.85 863.46 C 909.89 884.61 909.88 905.76 909.86 926.91 C 907.42 926.92 904.98 926.93 902.55 926.94 C 902.52 917.05 902.52 907.15 902.55 897.26 C 892.18 897.19 881.81 897.23 871.44 897.26 C 871.44 907.16 871.46 917.05 871.44 926.95 C 869.01 926.94 866.59 926.94 864.18 926.94 C 863.48 914.97 864.42 902.99 864.09 891.01 C 864.40 881.82 863.45 872.63 864.17 863.46 Z" />
<path fill="#f9123c" d=" M 924.66 863.53 C 927.18 863.49 929.70 863.49 932.23 863.56 C 932.18 884.67 932.21 905.78 932.22 926.90 C 929.70 926.93 927.18 926.93 924.68 926.91 C 924.69 905.78 924.72 884.65 924.66 863.53 Z" />
<path fill="#f9123c" d=" M 947.22 863.49 C 955.82 863.52 964.43 863.41 973.04 863.52 C 979.93 863.65 987.15 867.47 989.71 874.15 C 992.79 882.41 991.27 893.34 983.42 898.45 C 974.85 904.10 964.11 901.61 954.47 902.19 C 954.49 910.43 954.49 918.68 954.47 926.92 C 952.04 926.93 949.62 926.93 947.21 926.91 C 947.19 905.77 947.16 884.63 947.22 863.49 Z" />
<path fill="#f9123c" d=" M 69.13 869.13 C 73.04 866.06 79.17 864.27 83.44 867.61 C 85.16 868.90 84.11 871.17 84.18 872.96 C 80.38 873.18 77.31 870.91 74.01 869.46 C 70.77 869.54 68.65 872.70 67.56 875.45 C 65.83 880.38 65.23 885.62 64.04 890.70 C 66.61 890.71 69.19 890.70 71.76 890.73 C 71.34 891.91 70.91 893.11 70.48 894.32 C 68.12 894.28 65.77 894.27 63.42 894.26 C 61.91 902.85 60.42 911.44 58.95 920.04 C 57.94 925.97 56.24 931.89 53.14 937.09 C 49.77 942.51 44.51 947.41 37.87 948.00 L 34.23 948.00 C 32.54 947.34 30.76 946.65 29.55 945.24 C 29.45 943.85 29.78 942.48 29.96 941.13 C 31.91 941.25 34.02 941.06 35.70 942.26 C 38.03 943.46 40.55 945.71 43.32 944.33 C 48.41 942.02 49.78 935.99 50.96 931.07 C 53.29 918.85 55.21 906.56 57.52 894.35 C 55.51 894.30 53.49 894.28 51.47 894.27 C 51.48 893.77 51.49 892.78 51.50 892.28 C 53.69 891.87 55.87 891.48 58.06 891.10 C 59.82 883.08 62.34 874.37 69.13 869.13 Z" />
<path fill="#fefefe" d=" M 321.74 870.39 C 327.50 870.05 333.27 870.22 339.04 870.19 C 342.49 870.13 346.23 870.71 348.88 873.10 C 352.67 876.92 352.99 883.19 350.78 887.90 C 348.74 891.85 344.06 893.21 339.92 893.39 C 334.03 893.61 328.14 893.34 322.25 893.52 C 321.26 885.85 322.05 878.09 321.74 870.39 Z" />
<path fill="#fefefe" d=" M 430.06 870.21 C 436.08 870.24 442.10 870.05 448.12 870.30 C 452.64 870.39 457.02 873.26 458.50 877.61 C 459.85 881.97 459.62 887.12 456.91 890.95 C 454.33 894.26 449.93 895.27 445.95 895.42 C 440.63 895.57 435.30 895.42 429.98 895.47 C 429.96 887.05 429.85 878.63 430.06 870.21 Z" />
<path fill="#fefefe" d=" M 762.76 870.21 C 769.18 870.26 775.62 870.09 782.05 870.26 C 785.77 870.36 789.88 871.92 791.68 875.39 C 793.87 879.61 793.77 885.04 791.13 889.04 C 788.59 892.53 783.98 893.30 779.96 893.45 C 774.22 893.51 768.48 893.43 762.75 893.46 C 762.73 885.71 762.70 877.96 762.76 870.21 Z" />
<path fill="#fefefe" d=" M 483.73 870.30 C 490.15 870.15 496.58 870.13 503.01 870.26 C 507.36 870.27 512.06 872.57 513.41 876.97 C 514.71 881.31 514.60 886.78 511.12 890.11 C 508.49 892.77 504.53 893.27 500.97 893.44 C 495.37 893.53 489.77 893.38 484.17 893.52 C 483.29 885.82 484.00 878.04 483.73 870.30 Z" />
<path fill="#fefefe" d=" M 954.48 870.22 C 960.64 870.27 966.80 870.03 972.95 870.31 C 977.80 870.48 982.48 873.97 983.39 878.85 C 984.11 882.94 984.06 887.69 981.31 891.08 C 978.55 894.38 974.01 895.33 969.92 895.44 C 964.77 895.55 959.63 895.42 954.49 895.48 C 954.47 887.06 954.49 878.64 954.48 870.22 Z" />
<path fill="#f9123c" d=" M 75.77 898.75 C 80.22 894.14 85.75 889.77 92.43 889.50 C 94.81 891.42 97.44 893.40 98.41 896.45 C 101.97 906.60 96.90 918.34 88.02 923.97 C 84.49 926.17 80.44 928.65 76.09 927.66 C 72.79 926.01 71.23 922.28 70.36 918.90 C 68.41 911.84 70.69 903.94 75.77 898.75 Z" />
<path fill="#f9123c" d=" M 103.09 900.46 C 106.61 896.22 109.87 890.84 115.53 889.34 C 117.05 898.45 113.38 907.26 111.48 916.03 C 113.96 909.70 116.13 903.23 119.05 897.08 C 120.58 894.08 122.47 890.71 125.88 889.62 C 128.98 889.26 129.20 893.12 128.28 895.18 C 127.45 897.68 124.29 896.73 122.34 897.51 C 120.51 899.12 119.45 901.38 118.43 903.56 C 115.05 911.38 112.15 919.44 110.39 927.80 C 108.62 927.88 106.85 927.99 105.09 928.12 C 105.97 918.47 108.37 909.04 109.79 899.48 C 109.86 898.21 109.71 896.98 109.34 895.78 C 107.27 897.29 106.23 901.11 103.09 900.46 Z" />
<path fill="#fefefe" d=" M 85.38 893.54 C 88.88 892.64 91.37 896.00 92.41 898.88 C 94.35 905.02 93.02 911.78 90.29 917.48 C 88.87 920.52 86.56 923.48 83.17 924.36 C 79.85 925.08 77.43 921.77 76.66 918.94 C 74.82 911.67 76.56 903.74 80.64 897.52 C 81.82 895.83 83.34 894.13 85.38 893.54 Z" />
</svg>
