<?xml version="1.0" encoding="utf-8"?>
<!-- Generator: Adobe Illustrator 18.1.1, SVG Export Plug-In . SVG Version: 6.00 Build 0)  -->
<svg version="1.1" id="Layer_1" xmlns="http://www.w3.org/2000/svg" xmlns:xlink="http://www.w3.org/1999/xlink" x="0px" y="0px"
	 viewBox="0 340 612 116.1" enable-background="new 0 340 612 116.1" xml:space="preserve">
<g id="Full_Logo_1_">
	<g id="Medium_Shape_1_">
		<defs>
			<filter id="Adobe_OpacityMaskFilter" filterUnits="userSpaceOnUse">
				<feColorMatrix  type="matrix" values="1 0 0 0 0  0 1 0 0 0  0 0 1 0 0  0 0 0 1 0"/>
			</filter>
		</defs>
		<mask maskUnits="userSpaceOnUse" id="Color_Fill_6_xA0_Image_2_">
			<g id="Color_Fill_6Opacity_Mask_5_" filter="url(#Adobe_OpacityMaskFilter)">
				
					<image overflow="visible" enable-background="new    " width="3079" height="675" id="Color_Fill_6Opacity_Mask_6_" xlink:href="576F76C2.jpeg"  transform="matrix(0.1988 0 0 0.1981 -21.2846 347.5376)">
				</image>
			</g>
		</mask>
		<g id="Color_Fill_6_xA0_Image_1_" mask="url(#Color_Fill_6_xA0_Image_2_)">
		</g>
		<defs>
			<filter id="Adobe_OpacityMaskFilter_1_" filterUnits="userSpaceOnUse">
				<feColorMatrix  type="matrix" values="1 0 0 0 0  0 1 0 0 0  0 0 1 0 0  0 0 0 1 0"/>
			</filter>
		</defs>
		<mask maskUnits="userSpaceOnUse" id="Color_Fill_6_copy_xA0_Image_2_">
			<g id="Color_Fill_6_copyOpacity_Mask_7_" filter="url(#Adobe_OpacityMaskFilter_1_)">
				
					<image overflow="visible" enable-background="new    " width="3079" height="675" id="Color_Fill_6_copyOpacity_Mask_8_" xlink:href="576F76C6.jpeg"  transform="matrix(0.1988 0 0 0.1981 -68.5513 349.5831)">
				</image>
			</g>
		</mask>
		<g id="Color_Fill_6_copy_xA0_Image_1_" mask="url(#Color_Fill_6_copy_xA0_Image_2_)">
		</g>
		<g id="Layer_9_xA0_Image_1_">
		</g>
		<g id="Layer_9_copy_3_xA0_Image_1_">
		</g>
		<g id="Layer_9_copy_2_xA0_Image_1_">
			
				<image overflow="visible" enable-background="new    " width="329" height="167" id="Layer_9_copy_2_xA0_Image" xlink:href="576F76C6.png"  transform="matrix(0.1966 0 0 0.1943 481.042 331.3171)">
			</image>
		</g>
		<g id="Layer_10_xA0_Image_1_">
		</g>
		<g id="Layer_9_copy_xA0_Image_1_">
		</g>
		<g id="Layer_10_copy_xA0_Image_1_">
		</g>
		<g id="Layer_10_copy_3_xA0_Image_1_">
			
				<image overflow="visible" enable-background="new    " width="329" height="167" id="Layer_10_copy_3_xA0_Image" xlink:href="576F76C2.png"  transform="matrix(0.1966 0 0 0.1943 448.4019 395.801)">
			</image>
		</g>
		<g id="Layer_10_copy_2_xA0_Image_1_">
		</g>
	</g>
	<g id="Drakontas">
		<g>
			<path fill="#022454" d="M19.3,398.7H1v-52.5h17.4c2.6,0,4.8,0.1,6.8,0.4c2.3,0.3,4.3,0.8,6.1,1.5c4.1,1.5,7.5,4.1,10.3,8
				c3.2,4.5,4.8,9.9,4.8,16.3C46.4,389.9,37.4,398.7,19.3,398.7z M29.9,362.1c-2.2-2.8-5.5-4.2-9.7-4.2h-5.8v29h5.8
				c4.4,0,7.7-1.3,9.8-4c2-2.4,3-5.9,3-10.4C33,368.1,31.9,364.6,29.9,362.1z"/>
			<path fill="#022454" d="M79.4,398.7l-12.1-16.9h-0.1v16.9H54.3v-52.5h16.6c1.8,0,3.2,0,4.2,0.1c1.6,0.1,3,0.2,4.2,0.5
				c3.1,0.5,5.7,1.6,7.7,3.2c4.3,3.5,6.5,8.2,6.5,14.3c0,4.2-1.1,7.8-3.4,10.8c-2.4,3.2-5.6,5.1-9.6,5.8l14.2,17.9H79.4z
				 M78.1,359.6c-1.5-1.1-3.5-1.6-6.1-1.6h-4.9v14.6h4.7c5.9,0,8.8-2.5,8.8-7.5C80.7,362.6,79.8,360.8,78.1,359.6z"/>
			<path fill="#022454" d="M131.9,398.7l-2.6-7.6h-18.2l-2.8,7.6H94l21.1-52.5h10.6l20.9,52.5H131.9z M120.4,362.5h-0.2l-5.4,17.9
				h11L120.4,362.5z"/>
			<path fill="#022454" d="M181.2,398.7L166.8,376h-0.1v22.7h-13.4v-52.5h13.4v23.6h0.1l14.8-23.6h14.1l-17.4,26.2l18.5,26.3
				L181.2,398.7L181.2,398.7z"/>
			<path fill="#022454" d="M243.1,391.9c-5.4,5.2-11.9,7.8-19.7,7.8c-7.5,0-14-2.6-19.4-7.7c-5.5-5.2-8.2-11.5-8.2-18.9
				c0-4,0.7-7.7,2-11.2c0.7-1.9,1.9-3.8,3.4-5.9c5.4-7.2,12.9-10.8,22.2-10.8c7.7,0,14.2,2.6,19.6,7.8c5.4,5.2,8.1,11.7,8.1,19.4
				C251.2,380.1,248.5,386.6,243.1,391.9z M233.9,361.7c-2.7-3.1-6.2-4.7-10.4-4.7c-4.2,0-7.7,1.5-10.4,4.6
				c-2.6,2.9-3.9,6.5-3.9,10.7c0,4.3,1.3,8,4,10.9c2.7,3.1,6.2,4.7,10.5,4.7c4.1,0,7.5-1.6,10.2-4.7c2.6-3,3.9-6.5,3.9-10.7
				C237.8,368.3,236.5,364.7,233.9,361.7z"/>
			<path fill="#022454" d="M291.1,398.7l-20-31.9l-0.2,0.1l0.4,31.9h-12.9v-52.5H270l20.3,33l0.1-0.1l-0.6-32.9h12.9v52.5H291.1
				L291.1,398.7z"/>
			<path fill="#022454" d="M332,357.9v40.7h-13.4v-40.7h-10.4v-11.8h34.1v11.8H332z"/>
			<path fill="#022454" d="M375,398.7l-2.6-7.6h-18.2l-2.8,7.6H337l21.1-52.5h10.6l20.9,52.5H375z M363.5,362.5h-0.2l-5.4,17.9h11
				L363.5,362.5z"/>
			<path fill="#022454" d="M422.6,395.7c-3.2,2.6-7.6,3.9-13,3.9c-5.6,0-10-1.4-13.4-4.2c-3.7-3-5.5-7.1-5.5-12.5v-1.7H404
				c0,1.9,0.4,3.6,1.3,4.9c1,1.5,2.4,2.3,4.2,2.3c3.4,0,5.1-1.7,5.1-5c0-1.5-0.6-2.8-1.8-3.7c-0.5-0.4-1.1-0.7-1.8-1.1l-1-0.5
				l-5.7-2.5c-1.9-0.8-3.5-1.6-4.9-2.4c-1.6-0.9-3-2-4.1-3.1c-2.6-2.6-3.8-5.8-3.8-9.6c0-4.6,1.9-8.4,5.8-11.4
				c3.6-2.7,7.7-4.1,12.5-4.1c2.7,0,5.3,0.5,7.8,1.5c2.7,1.1,4.8,2.6,6.4,4.5c2.2,2.7,3.3,6.1,3.5,10.4h-13.3
				c-0.5-3.4-2.1-5.1-4.8-5.1c-3.1,0-4.6,1.4-4.6,4.1c0,1,0.2,1.7,0.5,2.2c0.5,0.9,2.1,2,4.8,3.3l5.5,2.5c1.9,0.9,3.6,1.7,4.8,2.5
				c1.6,1,2.9,2,3.9,3.1c2.4,2.5,3.5,5.6,3.5,9.4C427.9,388.8,426.1,392.9,422.6,395.7z"/>
		</g>
	</g>
	<g id="C_o_n_s_u_l_t_i_n_g_xA0_Image_1_">
		
			<image overflow="visible" enable-background="new    " width="2142" height="167" id="C_o_n_s_u_l_t_i_n_g_xA0_Image" xlink:href="576F76C1.png"  transform="matrix(0.1986 0 0 0.1954 1.9902 423.4654)">
		</image>
	</g>
</g>
<g id="Layer_15">
	<polygon fill="#2DAEBD" points="481,332.1 513.3,364.4 545.7,332.1 	"/>
	<polygon fill="#2DAEBD" points="544.6,460.1 512.4,427.8 479.9,460.1 	"/>
	<polygon fill="#022454" points="576.7,363.7 544.6,395.8 545,396.1 576.7,427.9 608.5,396.1 608.8,395.8 	"/>
	<polygon fill="#2F9997" points="512.8,363.9 480.7,396 481.1,396.4 512.8,428.1 544.6,396.4 545,396 	"/>
	<g>
		<polygon fill="#0082D6" points="577.1,363.9 545,331.8 512.8,363.9 513.2,364.2 576.7,364.2 		"/>
		<polygon fill="#1A62A9" points="513.2,364.2 545,396 576.7,364.2 		"/>
	</g>
	<g>
		<polygon fill="#0082D6" points="577.1,428.1 545,460.2 512.8,428.1 513.2,427.7 576.7,427.7 		"/>
		<polygon fill="#1A62A9" points="513.2,427.7 545,395.9 576.7,427.7 		"/>
	</g>
	<g>
		<polygon fill="#63C1DA" points="449.3,427.7 481,395.9 512.8,427.7 		"/>
	</g>
	<g>
		<polygon fill="#63C1DA" points="512.8,364.2 481,396 449.3,364.2 		"/>
	</g>
</g>
</svg>
