<?xml version="1.0" encoding="UTF-8" ?>
<!DOCTYPE svg PUBLIC "-//W3C//DTD SVG 1.1//EN" "http://www.w3.org/Graphics/SVG/1.1/DTD/svg11.dtd">
<svg width="1631pt" height="613pt" viewBox="0 0 1631 613" version="1.1" xmlns="http://www.w3.org/2000/svg">
<path fill="#3c5a98" d=" M 0.00 0.00 L 1631.00 0.00 L 1631.00 613.00 L 0.00 613.00 L 0.00 0.00 Z" />
<path fill="#fbfbfd" d=" M 229.77 182.47 C 240.12 177.74 251.71 176.66 262.97 176.69 C 274.43 176.72 285.88 176.68 297.34 176.72 C 297.34 191.63 297.35 206.53 297.33 221.44 C 288.69 221.56 280.04 221.32 271.40 221.56 C 267.32 221.87 262.67 222.55 259.88 225.87 C 257.04 229.21 257.28 233.88 257.13 238.00 C 257.22 245.89 256.75 253.76 256.88 261.65 C 270.44 261.74 283.99 261.64 297.55 261.70 C 295.84 276.63 294.48 291.61 292.68 306.53 C 280.75 306.50 268.82 306.49 256.88 306.54 C 256.87 349.79 256.89 393.04 256.88 436.29 C 239.04 436.30 221.20 436.30 203.36 436.30 C 203.35 393.04 203.36 349.78 203.36 306.52 C 194.41 306.49 185.46 306.53 176.51 306.50 C 176.52 291.56 176.48 276.62 176.53 261.69 C 185.48 261.67 194.42 261.70 203.36 261.67 C 203.94 243.49 201.32 224.65 207.43 207.13 C 211.07 196.29 219.22 187.02 229.77 182.47 Z" />
<path fill="#fbfbfd" d=" M 778.19 190.02 C 796.06 187.29 813.85 184.08 831.70 181.22 C 831.73 209.37 831.68 237.53 831.72 265.68 C 850.34 259.27 870.49 257.96 889.95 260.34 C 902.90 261.97 916.55 266.67 924.53 277.61 C 932.94 289.19 934.14 304.14 934.50 317.98 C 934.52 336.00 934.61 354.02 934.45 372.03 C 933.87 386.97 931.44 402.84 921.90 414.90 C 913.28 425.90 899.96 431.96 886.61 434.96 C 871.99 438.31 856.91 438.84 841.97 438.53 C 820.54 438.44 799.33 434.98 778.18 431.86 C 778.10 351.25 778.08 270.64 778.19 190.02 Z" />
<path fill="#fbfbfd" d=" M 1293.50 190.17 C 1311.39 187.13 1329.29 184.12 1347.22 181.22 C 1347.29 234.01 1347.10 286.80 1347.31 339.59 C 1363.59 313.53 1379.97 287.54 1396.50 261.65 C 1415.82 261.74 1435.15 261.63 1454.47 261.71 C 1438.30 287.44 1422.05 313.11 1405.83 338.80 C 1404.22 341.46 1402.22 343.92 1401.10 346.84 C 1409.41 361.68 1418.56 376.08 1427.18 390.75 C 1436.27 405.93 1445.37 421.10 1454.47 436.27 C 1435.11 436.34 1415.75 436.26 1396.40 436.32 C 1379.98 409.02 1363.54 381.73 1347.31 354.32 C 1347.11 381.64 1347.28 408.97 1347.22 436.29 C 1329.31 436.31 1311.41 436.31 1293.50 436.29 C 1293.49 354.25 1293.51 272.21 1293.50 190.17 Z" />
<path fill="#fbfbfd" d=" M 519.09 260.57 C 543.57 257.03 568.30 260.99 592.28 265.99 C 592.39 280.58 592.31 295.17 592.32 309.76 C 571.93 306.42 551.26 302.24 530.52 304.70 C 525.33 305.46 519.75 307.05 516.35 311.33 C 512.34 316.24 512.01 322.93 511.76 328.98 C 511.76 342.66 511.70 356.33 511.79 370.01 C 512.05 376.82 512.97 384.74 518.91 389.09 C 526.18 394.21 535.56 393.73 544.04 393.80 C 560.33 394.26 576.30 390.58 592.32 388.20 C 592.34 402.72 592.32 417.25 592.33 431.77 C 569.71 436.88 546.38 440.31 523.18 437.90 C 506.34 436.06 489.02 430.50 476.91 418.12 C 464.24 405.62 458.89 387.47 458.33 370.06 C 458.21 356.38 458.26 342.69 458.30 329.01 C 458.68 311.72 463.64 293.62 475.89 280.90 C 487.01 268.85 503.16 262.79 519.09 260.57 Z" />
<path fill="#fbfbfd" d=" M 637.26 269.32 C 654.05 260.05 673.85 258.65 692.66 259.46 C 709.99 260.40 728.22 264.62 741.39 276.62 C 753.96 288.08 759.23 305.40 759.93 321.96 C 760.50 336.17 760.04 350.41 760.19 364.63 C 727.36 364.69 694.53 364.60 661.71 364.68 C 661.81 371.65 661.60 379.26 665.44 385.40 C 669.65 391.81 677.91 393.29 685.03 393.68 C 698.05 393.85 711.12 394.08 724.09 392.66 C 734.67 391.65 745.16 389.87 755.65 388.19 C 755.66 402.74 755.70 417.30 755.63 431.85 C 735.36 436.01 714.75 438.92 694.02 438.61 C 674.86 439.14 654.77 436.95 638.04 426.89 C 624.26 418.72 614.63 404.54 610.99 389.05 C 607.19 375.35 608.52 361.03 608.28 346.99 C 608.53 332.34 607.11 317.33 611.38 303.08 C 615.07 288.97 624.39 276.33 637.26 269.32 Z" />
<path fill="#fbfbfd" d=" M 1013.18 260.11 C 1030.88 258.49 1049.20 259.15 1066.12 265.07 C 1079.55 269.75 1091.53 279.17 1098.05 291.94 C 1105.89 306.63 1106.81 323.71 1106.44 340.01 C 1106.04 356.69 1107.83 373.66 1103.84 390.05 C 1100.67 404.15 1092.56 417.36 1080.37 425.38 C 1065.32 435.46 1046.73 438.03 1029.01 438.35 C 1013.74 438.19 998.06 436.46 984.10 429.86 C 970.85 423.79 960.21 412.39 955.22 398.68 C 948.44 381.29 950.14 362.30 949.89 344.04 C 949.75 327.00 949.70 309.10 957.60 293.53 C 964.20 279.54 977.23 269.35 991.80 264.63 C 998.70 262.22 1005.92 260.91 1013.18 260.11 Z" />
<path fill="#fbfbfd" d=" M 1177.66 261.11 C 1192.25 258.77 1207.24 258.73 1221.85 261.00 C 1237.27 263.42 1252.80 269.77 1263.05 281.97 C 1275.12 295.91 1278.33 315.09 1278.24 332.98 C 1277.94 348.62 1278.97 364.33 1277.40 379.93 C 1275.65 396.60 1268.42 413.50 1254.59 423.62 C 1239.05 435.29 1218.95 438.10 1200.03 438.36 C 1182.00 438.07 1163.03 435.55 1147.75 425.23 C 1136.20 417.69 1128.38 405.39 1124.86 392.20 C 1120.33 375.84 1122.01 358.72 1121.69 341.97 C 1121.46 327.28 1121.68 312.14 1127.23 298.31 C 1132.03 285.64 1141.66 274.94 1153.73 268.80 C 1161.20 264.91 1169.37 262.51 1177.66 261.11 Z" />
<path fill="#fbfbfd" d=" M 310.53 306.49 C 312.29 291.57 313.35 276.56 315.28 261.65 C 332.18 261.73 349.09 261.66 365.99 261.68 C 381.84 261.98 398.24 262.68 413.01 269.05 C 423.11 273.28 431.30 281.74 435.02 292.06 C 440.73 307.35 440.30 323.99 440.35 340.06 C 440.35 372.23 440.35 404.40 440.35 436.57 C 425.44 436.63 410.53 436.58 395.62 436.60 C 394.93 432.85 394.28 429.09 393.57 425.35 C 377.29 434.44 358.55 439.05 339.91 438.44 C 327.40 437.93 314.57 433.50 305.96 424.09 C 294.66 412.05 291.53 394.44 293.11 378.49 C 294.00 367.48 298.15 356.15 306.98 349.05 C 317.83 340.17 332.42 338.43 345.94 337.74 C 359.49 337.60 373.04 337.73 386.59 337.68 C 386.29 330.43 387.46 322.88 385.00 315.90 C 383.62 311.81 379.68 309.25 375.66 308.23 C 369.24 306.61 362.57 306.44 355.99 306.50 C 340.84 306.51 325.68 306.53 310.53 306.49 Z" />
<path fill="#3c5a98" d=" M 666.61 305.56 C 671.46 300.28 679.19 299.32 685.98 299.56 C 692.26 299.75 699.22 301.61 702.92 307.11 C 707.20 313.44 706.42 321.44 706.50 328.69 C 691.57 328.67 676.64 328.77 661.71 328.64 C 661.77 320.83 661.12 311.88 666.61 305.56 Z" />
<path fill="#3c5a98" d=" M 831.67 311.43 C 841.30 306.44 852.12 303.07 863.08 304.31 C 868.28 304.78 873.73 306.76 876.95 311.09 C 879.87 315.06 880.77 320.12 880.75 324.96 C 880.76 339.63 880.77 354.30 880.75 368.97 C 880.74 376.24 879.21 384.42 873.10 389.11 C 865.99 394.50 856.55 394.72 848.01 394.59 C 842.56 394.53 837.07 394.71 831.68 393.78 C 831.72 366.33 831.73 338.88 831.67 311.43 Z" />
<path fill="#3c5a98" d=" M 1018.60 305.17 C 1026.98 303.41 1036.47 303.33 1044.00 307.93 C 1050.12 311.63 1052.78 319.09 1052.69 325.97 C 1052.69 341.33 1052.70 356.68 1052.68 372.04 C 1052.78 378.90 1050.13 386.32 1044.07 390.06 C 1038.20 393.99 1030.83 394.05 1024.04 393.71 C 1017.70 393.42 1011.15 390.76 1007.43 385.43 C 1004.44 381.29 1003.58 376.02 1003.59 371.02 C 1003.59 356.68 1003.62 342.35 1003.58 328.01 C 1003.58 323.36 1003.96 318.48 1006.32 314.36 C 1008.80 309.66 1013.53 306.48 1018.60 305.17 Z" />
<path fill="#3c5a98" d=" M 1190.72 305.08 C 1199.07 303.44 1208.54 303.35 1215.97 308.06 C 1221.94 311.84 1224.59 319.12 1224.53 325.95 C 1224.54 341.30 1224.54 356.66 1224.53 372.02 C 1224.56 378.62 1222.17 385.69 1216.55 389.57 C 1210.38 394.12 1202.30 394.10 1194.99 393.65 C 1188.80 393.17 1182.40 390.41 1178.95 385.04 C 1176.19 380.95 1175.37 375.89 1175.39 371.03 C 1175.39 356.34 1175.39 341.65 1175.39 326.96 C 1175.35 321.87 1176.29 316.55 1179.37 312.37 C 1182.01 308.55 1186.32 306.26 1190.72 305.08 Z" />
<path fill="#3c5a98" d=" M 349.53 376.45 C 352.47 374.11 356.45 373.86 360.06 373.64 C 368.89 373.50 377.72 373.63 386.56 373.58 C 386.61 380.13 386.59 386.67 386.57 393.22 C 377.31 397.86 366.93 401.85 356.41 399.98 C 351.52 399.18 347.62 395.22 346.82 390.36 C 346.19 385.69 345.73 379.97 349.53 376.45 Z" />
<path fill="#fbfbfd" d=" M 1480.24 406.37 C 1488.48 403.56 1498.18 408.77 1500.52 417.13 C 1504.10 426.75 1496.47 438.67 1486.04 438.71 C 1478.44 439.52 1471.04 434.03 1469.19 426.71 C 1466.66 418.41 1471.87 408.73 1480.24 406.37 Z" />
<path fill="#3c5a98" d=" M 1481.58 408.71 C 1488.47 406.65 1496.06 411.37 1497.73 418.26 C 1499.98 425.43 1495.60 434.21 1488.10 435.92 C 1481.18 437.80 1473.81 432.72 1472.25 425.93 C 1470.22 418.92 1474.45 410.67 1481.58 408.71 Z" />
<path fill="#fbfbfd" d=" M 1479.06 413.32 C 1483.13 413.48 1488.66 411.83 1491.32 415.96 C 1492.35 418.64 1490.82 421.02 1488.79 422.64 C 1491.02 425.24 1491.54 428.67 1491.94 431.96 C 1490.89 431.83 1489.87 431.70 1488.86 431.59 C 1488.32 429.22 1487.75 426.86 1487.19 424.51 C 1485.37 424.36 1483.56 424.17 1481.79 424.00 C 1481.77 426.65 1481.78 429.32 1481.75 431.98 C 1480.73 431.82 1479.74 431.67 1478.76 431.52 C 1478.89 425.45 1478.56 419.37 1479.06 413.32 Z" />
<path fill="#3c5a98" d=" M 1481.81 415.17 C 1484.21 415.26 1486.59 415.77 1488.83 416.72 C 1488.43 418.48 1487.72 420.13 1486.69 421.60 C 1485.04 421.56 1483.41 421.54 1481.79 421.52 C 1481.78 419.40 1481.78 417.28 1481.81 415.17 Z" />
</svg>
