<?xml version="1.0" encoding="utf-8"?>
<!-- Generator: Adobe Illustrator 18.1.1, SVG Export Plug-In . SVG Version: 6.00 Build 0)  -->
<svg version="1.1" id="Layer_1" xmlns="http://www.w3.org/2000/svg" xmlns:xlink="http://www.w3.org/1999/xlink" x="0px" y="0px"
	 viewBox="0 0 288 144" enable-background="new 0 0 288 144" xml:space="preserve">
<path d="M155.8,71.5L155.8,71.5c0,11.2-8.2,19.3-19.3,19.3h-4.6v-7.3h4.6c7.1,0,12.1-5,12.1-12.1c0-7.1-5-12.1-12.1-12.1h-4.6v-7.3
	h4.6C147.7,52.1,155.8,60.2,155.8,71.5L155.8,71.5C155.8,71.4,155.8,71.4,155.8,71.5C155.8,71.5,155.8,71.5,155.8,71.5z M155.8,59.1
	h8.7c2.6,0,4.4,0.6,5.7,1.8c1.2,1.2,1.8,2.7,1.8,4.4c0,3.9-3.4,6.2-7.1,6.2h-2.2l-2.6,5.5l14.3,14.8l5.6-4.7L169.9,77
	c5.6-1,9.4-6.2,9.4-11.5c0-4-1.1-7.1-4-9.8c-3-2.8-6.3-3.5-11.3-3.5h-8.2V59.1z M132.1,67.6h-16.3V52.1H108v38.7h7.8V75.3h16.3V67.6
	z"/>
</svg>
