<?xml version="1.0" encoding="utf-8"?>
<!-- Generator: Adobe Illustrator 18.1.1, SVG Export Plug-In . SVG Version: 6.00 Build 0)  -->
<svg version="1.1" id="Layer_1" xmlns="http://www.w3.org/2000/svg" xmlns:xlink="http://www.w3.org/1999/xlink" x="0px" y="0px"
	 viewBox="229.5 348 153 90.1" enable-background="new 229.5 348 153 90.1" xml:space="preserve">
<path d="M331.1,394.9L331.1,394.9c0,23.8-17.4,41-41,41h-9.8v-15.5h9.8c15.1,0,25.7-10.6,25.7-25.7S305.2,369,290.1,369h-9.8v-15.5
	h9.8C313.9,353.7,331.1,370.9,331.1,394.9L331.1,394.9C331.1,394.7,331.1,394.7,331.1,394.9L331.1,394.9z M331.1,368.6h18.5
	c5.5,0,9.3,1.3,12.1,3.8c2.5,2.5,3.8,5.7,3.8,9.3c0,8.3-7.2,13.2-15.1,13.2h-4.7l-5.5,11.7l30.4,31.5l11.9-10L361,406.6
	c11.9-2.1,20-13.2,20-24.4c0-8.5-2.3-15.1-8.5-20.8c-6.4-5.9-13.4-7.4-24-7.4h-17.4L331.1,368.6L331.1,368.6z M280.7,386.6h-34.6
	v-32.9h-16.6V436h16.6V403h34.6V386.6z"/>
</svg>
