<?xml version="1.0" encoding="utf-8"?>
<!-- Generator: Adobe Illustrator 18.1.1, SVG Export Plug-In . SVG Version: 6.00 Build 0)  -->
<svg version="1.1" id="Layer_1" xmlns="http://www.w3.org/2000/svg" xmlns:xlink="http://www.w3.org/1999/xlink" x="0px" y="0px"
	 viewBox="-170 367 208 55" enable-background="new -170 367 208 55" xml:space="preserve">
<g id="guides">
</g>
<g id="Layer_2">
	<g>
		<path fill="#F25022" d="M-165.3,376h20c0,6.7,0,13.3,0,20c-6.7,0-13.3,0-20,0V376L-165.3,376z"/>
		<path fill="#80BA01" d="M-143.3,376h20c0,6.7,0,13.3,0,20c-6.7,0-13.3,0-20,0C-143.3,389.3-143.3,382.7-143.3,376L-143.3,376z"/>
		<path fill="#777777" d="M-77.7,383.9c0.9-0.1,1.8,0.2,2.4,0.8c0.7,0.7,0.8,1.9,0.3,2.8c-0.6,1-1.8,1.4-2.9,1.2
			c-1.1-0.2-2.1-1.2-2-2.4C-79.9,385.1-78.9,384-77.7,383.9L-77.7,383.9z"/>
		<path fill="#777777" d="M-110.8,384.4c2.1,0,4.2,0,6.3,0c2,5,3.9,9.9,5.9,14.9c0.5,1.2,1,2.5,1.5,3.7c2.5-6.2,5.1-12.4,7.6-18.6
			c2,0,4,0,6,0c0,8.4,0,16.8,0,25.2c-1.5,0-2.9,0-4.4,0c0-6.2,0-12.4,0-18.6c0-0.3,0-0.6,0-0.8c-0.1,0.1-0.2,0.3-0.2,0.4
			c-2.5,6.3-5,12.7-7.5,19c-1,0-2.1,0-3.1,0c-2.6-6.3-5.1-12.7-7.7-19.1c-0.1-0.1-0.1-0.3-0.2-0.4c-0.1,2.7,0,5.4,0,8.1
			c0,3.8,0,7.5,0,11.3c-1.4,0-2.7,0-4.1,0C-110.8,401.2-110.8,392.8-110.8,384.4L-110.8,384.4z"/>
		<path fill="#777777" d="M-65.8,391.5c2.1-0.6,4.3-0.6,6.4,0c0.4,0.1,0.8,0.3,1.2,0.5c0,1.4,0,2.8,0,4.1c-1.4-1.1-3.2-1.7-4.9-1.5
			c-1.4,0.1-2.7,0.9-3.6,2c-1.1,1.4-1.3,3.3-1.1,5c0.1,1.3,0.7,2.7,1.7,3.6c1.1,1,2.6,1.3,4,1.2c1.4-0.2,2.7-0.8,3.9-1.6
			c0,1.3,0,2.6,0,3.9c-1.8,1.1-3.9,1.3-5.9,1.2c-2.1-0.1-4.1-0.9-5.6-2.3c-1.6-1.6-2.5-3.8-2.6-6c-0.1-2.3,0.4-4.8,1.7-6.7
			C-69.5,393.2-67.7,392.1-65.8,391.5L-65.8,391.5z"/>
		<path fill="#777777" d="M-18.6,391.2c2-0.4,4.1-0.1,6,0.6c0,1.3,0,2.6,0,4c-1.3-0.9-2.9-1.4-4.5-1.3c-0.8,0-1.7,0.4-2.1,1.1
			c-0.3,0.8-0.1,1.8,0.6,2.2c1.2,0.8,2.7,1.2,4,1.9c1,0.6,2,1.3,2.5,2.4c1,2,0.5,4.6-1.1,6.1c-1.6,1.5-3.9,1.9-6,1.8
			c-1.5-0.1-3-0.4-4.4-1c0-1.4,0-2.8,0-4.2c1.2,0.8,2.5,1.4,3.9,1.7c1,0.2,2.1,0.2,3-0.3c0.9-0.4,1-1.7,0.5-2.5
			c-0.5-0.6-1.2-0.9-1.9-1.2c-1.3-0.6-2.6-1.1-3.7-1.9c-0.8-0.6-1.4-1.5-1.6-2.5c-0.3-1.4-0.2-3.1,0.6-4.3
			C-21.9,392.4-20.3,391.5-18.6,391.2L-18.6,391.2z"/>
		<path fill="#777777" d="M-48.5,391.8c1.2-0.7,2.7-0.8,4-0.3c0,1.4,0,2.9,0,4.3c-0.9-0.6-1.9-0.8-2.9-0.7c-1.2,0.1-2.2,1.1-2.7,2.2
			c-0.5,1.1-0.6,2.4-0.6,3.7c0,2.9,0,5.8,0,8.6c-1.4,0-2.8,0-4.3,0c0-6,0-12,0-18.1c1.4,0,2.8,0,4.3,0c0,1,0,2.1,0,3.1
			C-50.3,393.5-49.6,392.4-48.5,391.8L-48.5,391.8z"/>
		<path fill="#777777" d="M-79.5,391.5c1.4,0,2.9,0,4.3,0c0,6,0,12,0,18c-1.4,0-2.9,0-4.3,0C-79.5,403.6-79.5,397.6-79.5,391.5
			L-79.5,391.5z"/>
		<path fill="#777777" d="M-26.6,395.8c-0.8-1.7-2.1-3.1-3.8-3.8c-1.9-0.9-4.1-1-6.2-0.7c-2.2,0.3-4.3,1.3-5.7,3
			c-1.3,1.5-1.9,3.5-2,5.5c-0.2,2.3,0.2,4.8,1.6,6.7c1.2,1.7,3,2.8,5,3.3c1.7,0.4,3.4,0.4,5.1,0c1.9-0.4,3.8-1.5,5-3.1
			c1.2-1.5,1.8-3.4,1.9-5.3C-25.6,399.5-25.8,397.5-26.6,395.8z M-30.7,404c-0.4,0.9-1.2,1.7-2.1,2.1c-1.1,0.4-2.4,0.5-3.5,0.2
			c-1.2-0.3-2.2-1.2-2.7-2.2c-0.7-1.4-0.8-3-0.7-4.5c0.1-1.4,0.6-2.8,1.7-3.8c0.8-0.7,1.8-1.1,2.8-1.1c1.3-0.1,2.7,0.3,3.6,1.2
			c1,1,1.4,2.4,1.5,3.8C-30,401.1-30.1,402.7-30.7,404z"/>
		<path fill="#777777" d="M8.1,396.3c-0.7-1.8-2-3.3-3.7-4.2c-2-1-4.3-1.1-6.4-0.9c-1.7,0.2-3.4,0.9-4.8,2c-1.6,1.4-2.6,3.4-2.9,5.5
			c-0.3,2.1-0.2,4.3,0.7,6.3c0.8,1.9,2.4,3.5,4.4,4.3c1.9,0.8,4.1,0.8,6.1,0.5c2.1-0.3,4-1.4,5.3-3.1c1.4-1.7,2-4,2-6.2
			C8.8,399.1,8.6,397.6,8.1,396.3z M4.2,402.4c-0.2,1-0.5,1.9-1.1,2.6c-0.6,0.8-1.6,1.2-2.5,1.4c-1,0.2-2.1,0.1-3.1-0.3
			c-1-0.4-1.9-1.3-2.3-2.4c-0.5-1.2-0.6-2.6-0.5-3.9c0.1-1.3,0.5-2.6,1.3-3.6c0.8-0.9,2-1.4,3.2-1.5c1.2-0.1,2.5,0.2,3.5,1
			c0.9,0.7,1.3,1.8,1.6,2.9C4.4,399.8,4.4,401.1,4.2,402.4z"/>
		<path fill="#777777" d="M31.3,395v-3.5c-1.4,0-2.9,0-4.3,0c0-1.8,0-3.6,0-5.4c-1.4,0.4-2.8,0.9-4.3,1.3c0,1.4,0,2.7,0,4.1
			c-2.1,0-4.2,0-6.3,0c0-1.1-0.1-2.2,0.1-3.2c0.1-0.8,0.6-1.7,1.4-2c1-0.4,2.2-0.1,3.2,0.3c0-1.2,0-2.5,0-3.7
			c-2.1-0.6-4.5-0.5-6.3,0.7c-1.2,0.8-2,2-2.4,3.3c-0.5,1.5-0.2,3.1-0.3,4.6c-1,0-2,0-3,0c0,1.2,0,2.3,0,3.5c1,0,2,0,3,0
			c0,4.9,0,9.7,0,14.6c1.4,0,2.9,0,4.3,0c0-4.9,0-9.7,0-14.6c2.1,0,4.2,0,6.3,0c0,3.1,0,6.2,0,9.3c0,1.4,0.3,3,1.2,4.1
			c0.8,1,2.1,1.5,3.4,1.6c1.3,0.1,2.7-0.1,4-0.6v-3.5c-0.9,0.6-2.3,0.9-3.3,0.3c-0.6-0.3-0.9-1.1-0.9-1.7c-0.1-1.1,0-2.2-0.1-3.4
			c0-2,0-4,0-6.1C28.5,395,29.9,395,31.3,395z"/>
		<path fill="#02A4EF" d="M-165.3,398c6.7,0,13.3,0,20,0c0,6.7,0,13.3,0,20h-20V398L-165.3,398z"/>
		<path fill="#FFB902" d="M-143.3,398c6.7,0,13.3,0,20,0c0,6.7,0,13.3,0,20h-20C-143.3,411.3-143.3,404.7-143.3,398L-143.3,398z"/>
	</g>
</g>
</svg>
