<?xml version="1.0" encoding="utf-8"?>
<!-- Generator: Adobe Illustrator 19.2.1, SVG Export Plug-In . SVG Version: 6.00 Build 0)  -->
<svg version="1.1" id="Layer_1" xmlns="http://www.w3.org/2000/svg" xmlns:xlink="http://www.w3.org/1999/xlink" x="0px" y="0px"
	 viewBox="0 0 502.9 108" style="enable-background:new 0 0 502.9 108;" xml:space="preserve">
<g>
	<path d="M90.3,107.7c-13.4,0-26.9,0.7-40.3-0.1C21.3,105.7-0.9,81,0,52.6c0.9-29,24.5-52.3,53.6-52.5C77.8,0,102,0,126.2,0.1
		c29.1,0.2,52.8,23.6,53.6,52.5c0.8,28.5-21.3,53.1-50,54.9C116.7,108.4,103.5,107.7,90.3,107.7z M89.9,71.9
		C89.9,72,89.9,72,89.9,71.9c11.9,0,23.9,0.3,35.8-0.1c10.4-0.3,17.7-7.9,17.9-17.5c0.2-9.8-7.1-18.1-17.6-18.3
		c-24-0.4-48.1-0.4-72.1,0c-10.3,0.2-17.6,8.2-17.6,17.8c-0.1,9.7,7.2,17.6,17.4,18C65.7,72.3,77.8,71.9,89.9,71.9z"/>
	<g>
		<path d="M273.1,56.8c0,13.2-9,23.9-23.9,23.9c-14.9,0-23.8-10.7-23.8-23.9c0-13.1,9.1-23.9,23.7-23.9
			C263.8,32.9,273.1,43.7,273.1,56.8z M236.8,56.8c0,7,4.2,13.5,12.5,13.5c8.3,0,12.4-6.5,12.4-13.5c0-6.9-4.8-13.6-12.4-13.6
			C241.1,43.2,236.8,49.9,236.8,56.8z"/>
		<path d="M322.5,73.8c-5.3,5.2-10.9,7.2-17.7,7.2c-13.3,0-24.3-8-24.3-24.3c0-16.3,11.1-24.2,24.3-24.2c6.5,0,12.7,3.3,14.8,5.2
			l-5.4,9.1c-2.7-2.4-6-3.6-9.2-3.6c-7.6,0-13.2,5.6-13.2,13.6c0,8.7,5.9,13.4,13,13.4c3.6,0,7.2-1,10-3.8L322.5,73.8z"/>
		<path d="M340.9,33.8v24c0,7,4.1,13.5,11.3,13.5c7,0,11.4-7.1,11.4-14.1V33.8h11.2v45.9h-10.4l-0.3-4.6c-4.7,4.6-9.3,5.3-15.7,5.3
			c-11,0-19-8.3-19-22.5V33.8H340.9z"/>
		<path d="M398,9.7v69.9h-11.2V9.7H398z"/>
		<path d="M495.8,44.6c-3.1-2.2-6-3-10.3-3.3c-6-0.3-8.4,1.8-8.4,4.7c0,3.9,6.2,5.2,11.6,6.4c9.4,2.1,14.2,7.7,14.2,13.9
			c0,6.1-5.9,14-16.7,14c-5,0-14.6-0.9-21.7-7l5.8-8c3.3,3.6,9.4,6.2,14.5,6.5c3.1,0.2,8.9-2.1,8.9-5.4c0-1.7-1.6-5.1-8.7-6.1
			c-10.7-1.5-18-7.2-18-13.7c0-10.6,9.2-14.6,17.6-14.6c7.2,0,13.7,2.3,16.5,4.9L495.8,44.6z"/>
		<path d="M421.8,33.8v24c0,7,4.1,13.5,11.3,13.5c7,0,11.4-7.1,11.4-14.1V33.8h11.2v45.9h-10.4l-0.3-4.6c-4.7,4.6-9.3,5.3-15.7,5.3
			c-11,0-19-8.3-19-22.5V33.8H421.8z"/>
	</g>
</g>
</svg>
