<?xml version="1.0" encoding="utf-8"?>
<!-- Generator: Adobe Illustrator 18.1.1, SVG Export Plug-In . SVG Version: 6.00 Build 0)  -->
<svg version="1.1" id="Layer_1" xmlns="http://www.w3.org/2000/svg" xmlns:xlink="http://www.w3.org/1999/xlink" x="0px" y="0px"
	 viewBox="-110 366 338 60" enable-background="new -110 366 338 60" xml:space="preserve">
<g id="guides">
</g>
<g id="Layer_2">
	<g>
		<g>
			<path fill="#5177BA" d="M-58.2,390.4c-3.7,0-6.6,3-6.6,6.6c0,3.7,3,6.6,6.6,6.6c3.7,0,6.6-3,6.6-6.6
				C-51.5,393.3-54.5,390.4-58.2,390.4"/>
		</g>
		<g>
			<path d="M33,411.3c-3.5,3.6-7.9,5.4-13.4,5.4c-2.7,0-5.2-0.5-7.5-1.4c-2.3-0.9-4.3-2.3-5.9-4c-1.7-1.7-3-3.8-3.9-6.2
				c-0.9-2.4-1.4-5.1-1.4-8.1c0-3,0.5-5.6,1.4-8c0.9-2.4,2.2-4.5,3.9-6.2c1.6-1.7,3.6-3.1,5.9-4c2.3-0.9,4.8-1.4,7.5-1.4
				c2.7,0,5.2,0.5,7.5,1.4c2.3,0.9,4.3,2.3,5.9,4c1.6,1.7,2.9,3.8,3.9,6.2c0.9,2.4,1.4,5.1,1.4,8C38.2,402.9,36.5,407.6,33,411.3
				 M27.8,387.5c-1.9-2.4-4.7-3.6-8.2-3.6c-1.8,0-3.4,0.3-4.8,1c-1.4,0.6-2.5,1.5-3.5,2.7c-0.9,1.1-1.6,2.5-2.1,4.1
				c-0.5,1.6-0.7,3.4-0.7,5.4c0,2,0.2,3.7,0.7,5.3c0.5,1.6,1.2,3,2.1,4.1c0.9,1.1,2.1,2,3.5,2.7c1.4,0.6,3,1,4.8,1
				c1.8,0,3.4-0.3,4.8-1c1.4-0.6,2.5-1.5,3.5-2.7c0.9-1.1,1.6-2.5,2.1-4.1c0.5-1.6,0.7-3.4,0.7-5.3
				C30.6,393.1,29.7,389.9,27.8,387.5"/>
		</g>
		<g>
			<path d="M51.9,416.4c-2.1,0-3.9-0.4-5.6-1.1c-1.6-0.7-3-1.7-4.1-2.9c-1.1-1.2-2-2.7-2.6-4.4c-0.6-1.7-0.9-3.6-0.9-5.5
				c0-2,0.3-3.8,0.9-5.5c0.6-1.7,1.5-3.2,2.6-4.4c1.1-1.3,2.5-2.3,4.1-3c1.6-0.7,3.5-1.1,5.6-1.1c3.3,0,6,0.7,8.1,2l-0.6,5.7
				c-2.2-1.5-4.5-2.2-6.9-2.2c-2.2,0-3.8,0.8-5,2.3c-1.2,1.5-1.8,3.6-1.8,6.2c0,2.6,0.6,4.7,1.8,6.2c1.2,1.5,2.9,2.3,5,2.3
				c2.4,0,4.7-0.7,6.9-2.2l0.6,5.7C58,415.8,55.3,416.4,51.9,416.4"/>
		</g>
		<g>
			<path d="M85.7,415.9h-6.3l-0.1-1.6c-1.9,1.4-3.9,2.1-6,2.1c-7.6,0-11.5-4.3-11.5-13v-14.5h6.7v14.5c0,2.5,0.4,4.4,1.3,5.6
				c0.9,1.2,2.2,1.8,4.1,1.8c2.1,0,3.8-0.8,5.1-2.3v-19.7h6.7L85.7,415.9L85.7,415.9z"/>
		</g>
		<g>
			<path d="M99.3,410.9l-0.6,5.5h-2.4c-2.3,0-4-0.7-5.2-2c-1.2-1.3-1.7-3-1.7-5.1v-34h6.7v31.2c0,1,0,1.9,0.1,2.4
				c0,0.6,0.2,1,0.4,1.3c0.2,0.3,0.5,0.4,1,0.5C98,410.9,98.6,410.9,99.3,410.9"/>
		</g>
		<g>
			<path d="M124.4,415.9h-6.3l-0.1-1.6c-1.9,1.4-3.9,2.1-6,2.1c-7.6,0-11.5-4.3-11.5-13v-14.5h6.7v14.5c0,2.5,0.4,4.4,1.3,5.6
				c0.8,1.2,2.2,1.8,4.1,1.8c2.1,0,3.8-0.8,5.1-2.3v-19.7h6.7L124.4,415.9L124.4,415.9z"/>
		</g>
		<g>
			<path d="M135.8,416.4c-4.1,0-7.2-0.7-9.1-2l0.6-5.7c0.4,0.3,1,0.6,1.7,1c0.7,0.3,1.4,0.6,2.1,0.9c0.7,0.3,1.5,0.5,2.3,0.6
				c0.8,0.2,1.6,0.3,2.3,0.3c1.5,0,2.6-0.3,3.2-0.9c0.6-0.6,0.9-1.3,0.9-2.1c0-0.8-0.2-1.4-0.6-1.8c-0.4-0.4-1.1-0.8-1.9-1.1
				c-0.8-0.3-1.8-0.6-2.9-1c-1.2-0.3-2.5-0.9-3.9-1.6c-1.1-0.6-1.9-1.4-2.4-2.3c-0.5-0.9-0.9-2.1-1-3.7c0-1.1,0.2-2.2,0.6-3.2
				c0.4-1,1-1.9,1.7-2.7c0.8-0.8,1.8-1.4,3.1-1.9c1.3-0.5,2.7-0.7,4.5-0.7c1.7,0,3.3,0.2,4.9,0.6c1.6,0.4,2.8,0.9,3.6,1.4l-0.6,5.7
				c-0.4-0.4-0.9-0.7-1.4-1.1c-0.6-0.4-1.1-0.7-1.8-0.9c-0.7-0.3-1.3-0.5-2.1-0.6c-0.7-0.2-1.4-0.3-2.1-0.3c-1.3,0-2.4,0.3-3.2,0.7
				c-0.9,0.5-1.3,1.2-1.3,2.2c0,0.9,0.3,1.5,0.8,2c0.6,0.4,1.3,0.8,2.2,1.2l0.9,0.3c0.2,0.1,0.6,0.2,1.1,0.3
				c0.5,0.1,0.9,0.2,1.1,0.3c1.1,0.3,2.1,0.7,3.1,1.1c0.9,0.4,1.7,1,2.4,1.6c0.6,0.6,1.1,1.4,1.5,2.3c0.3,0.9,0.5,2,0.5,3.2
				C146.4,413.8,142.8,416.4,135.8,416.4"/>
		</g>
		<g>
			<polygon points="190.2,378.1 176.9,415.9 168.5,415.9 154.9,378.1 162.1,378.1 172.7,406.8 183.1,378.1 			"/>
		</g>
		<g>
			<path d="M221,415.9h-7.2l-7.8-14.1h-7v14.1H192v-37.8h13.8c8.7,0,13,3.6,13,10.9c0,2.7-0.6,4.9-1.7,6.6c-1.1,1.7-2.7,3.2-4.8,4.4
				L221,415.9z M204.3,383.8h-5.4v11.5h5.1c2.9,0,4.9-0.5,6-1.5c1.1-1,1.6-2.5,1.6-4.4c0-1.9-0.5-3.3-1.6-4.2
				C209,384.3,207.1,383.8,204.3,383.8"/>
		</g>
		<g>
			<path d="M-13.3,397c0,0-17.1,24.4-44.8,24.4c-27.7,0-44.8-24.4-44.8-24.4s17.1-24.4,44.8-24.4C-30.5,372.6-13.3,397-13.3,397
				 M-58.2,382c-8.3,0-15,6.7-15,15c0,8.3,6.7,15,15,15c8.3,0,15-6.7,15-15C-43.2,388.7-49.9,382-58.2,382"/>
		</g>
	</g>
</g>
</svg>
