<?xml version="1.0" encoding="utf-8"?>
<!-- Generator: Adobe Illustrator 16.0.3, SVG Export Plug-In . SVG Version: 6.00 Build 0)  -->
<!DOCTYPE svg PUBLIC "-//W3C//DTD SVG 1.1//EN" "http://www.w3.org/Graphics/SVG/1.1/DTD/svg11.dtd">
<svg version="1.1" xmlns="http://www.w3.org/2000/svg" xmlns:xlink="http://www.w3.org/1999/xlink" x="0px" y="0px" width="170px"
	 height="100px" viewBox="0 0 170 100" enable-background="new 0 0 170 100" xml:space="preserve">
<g id="guides">
</g>
<g id="Layer_2">
	<g>
		<g>
			<g>
				<g>
					<path fill-rule="evenodd" clip-rule="evenodd" fill="#E72130" d="M51.342,67.8c-3.084-4.288-2.541-10.281,1.629-17.979
						c1.699-3.137,3.805-6.176,6.301-9.121c-0.031-0.319-0.051-0.646-0.063-0.98c-3.055,3.278-5.648,6.637-7.775,10.077
						c-4.887,7.902-5.891,13.879-3.016,17.93c1.715,2.412,4.537,3.74,8.449,4.002C54.512,70.954,52.668,69.647,51.342,67.8z"/>
					<path fill-rule="evenodd" clip-rule="evenodd" fill="#E72130" d="M73.262,28.037c9.268-6.661,18.309-10.757,27.117-12.287
						c8.625-1.5,14.479-0.104,17.563,4.187c2.512,3.494,2.615,8.119,0.314,13.875c4.789-7.814,5.76-13.732,2.906-17.752
						c-2.877-4.051-8.852-5.07-17.922-3.06c-9.285,2.059-18.99,6.683-29.115,13.875c-2.406,1.708-4.662,3.442-6.779,5.201
						c0.084,0.12,0.166,0.251,0.246,0.382C69.367,30.956,71.252,29.481,73.262,28.037z"/>
				</g>
			</g>
			<g>
				<path fill="#231F20" d="M73.684,49.291c0,6.961-0.098,19.807-9.621,19.807s-9.621-12.846-9.621-19.807
					s0.098-19.809,9.621-19.809S73.684,42.33,73.684,49.291z M59.645,49.291c0,8.189,0.539,14.996,4.418,14.996
					c3.877,0,4.418-6.807,4.418-14.996s-0.541-14.997-4.418-14.997C60.184,34.294,59.645,41.102,59.645,49.291z"/>
				<path fill="#231F20" d="M77.223,68.587V29.995h5.891c4.223,0,9.621,0.409,9.621,10.338c0,7.832-2.945,11.465-10.602,11.158
					v17.096H77.223z M82.133,34.345v12.796c4.221,0.308,5.398-2.099,5.398-6.397c0-3.48-0.982-6.398-4.713-6.398H82.133z"/>
				<path fill="#231F20" d="M99.281,68.587h-4.908V29.995h4.908V68.587z"/>
				<path fill="#231F20" d="M114.762,35.932c-1.275-0.973-2.502-1.638-4.172-1.638c-2.699,0-4.369,2.304-4.369,4.965
					c0,1.688,0.393,2.866,1.375,4.197l3.73,4.248c3.338,3.531,5.252,6.091,5.252,11.312c0,5.425-3.24,10.082-8.688,10.082
					c-1.914,0-3.879-0.562-5.4-1.842v-5.17c1.473,1.127,2.945,1.996,4.859,1.996c3.045,0,4.32-2.507,4.32-5.374
					c0-7.677-10.357-9.213-10.357-19.348c0-5.425,2.748-9.878,8.297-9.878c1.863,0,3.631,0.308,5.203,1.28L114.762,35.932z"/>
			</g>
		</g>
		<g>
			<path fill="#231F20" d="M26.387,78.067c0,2.085-0.031,5.933-3.006,5.933c-2.973,0-3.004-3.848-3.004-5.933
				s0.031-5.933,3.004-5.933C26.355,72.135,26.387,75.982,26.387,78.067z M22.002,78.067c0,2.453,0.168,4.492,1.379,4.492
				s1.381-2.039,1.381-4.492s-0.17-4.491-1.381-4.491S22.002,75.614,22.002,78.067z"/>
			<path fill="#231F20" d="M29.02,83.847h-1.236v-9.321h1.236V83.847z"/>
			<path fill="#231F20" d="M31.766,74.525v8.246h2.076v1.075h-3.313v-9.321H31.766z"/>
			<path fill="#231F20" d="M37.336,83.847V72.288h1.84c1.318,0,3.004,0.122,3.004,3.097c0,2.345-0.92,3.434-3.311,3.342v5.12H37.336
				z M38.869,73.591v3.832c1.318,0.093,1.686-0.628,1.686-1.916c0-1.042-0.307-1.916-1.471-1.916H38.869z"/>
			<path fill="#231F20" d="M43.104,74.525h1.482c0.902,0,2.313,0.049,2.313,2.386c0,0.878-0.26,2.213-1.285,2.398l1.719,4.537
				h-1.287l-1.682-4.562H44.34v4.562h-1.236V74.525z M45.588,77.184c0-0.891-0.111-1.632-1.051-1.607H44.34v3.078
				C45.266,78.716,45.588,78.122,45.588,77.184z"/>
			<path fill="#231F20" d="M49.482,83.847h-1.236v-9.321h1.236V83.847z"/>
			<path fill="#231F20" d="M54.6,75.799c-0.246-0.124-0.506-0.235-0.791-0.235c-1.73,0-1.742,2.522-1.742,3.685
				c0,1.236,0.098,3.561,1.793,3.561c0.271,0,0.506-0.062,0.74-0.186v1.088c-0.309,0.197-0.631,0.26-0.988,0.26
				c-2.521,0-2.855-2.683-2.855-4.637c0-1.866,0.234-4.933,2.768-4.933c0.422,0,0.719,0.062,1.076,0.272V75.799z"/>
			<path fill="#231F20" d="M58.877,74.525v1.075h-2.088v2.93h1.865v1.076h-1.865v3.165h2.088v1.075h-3.324v-9.321H58.877z"/>
			<path fill="#231F20" d="M64.09,83.847h-1.533V72.288h1.533V83.847z"/>
			<path fill="#231F20" d="M66.83,77.294l0.186,3.128v3.425h-1.236v-9.321h1.188l2.176,7.083l0.023-0.024l-0.297-3.733v-3.325h1.236
				v9.321h-1.148l-2.176-7.183l-0.025,0.024L66.83,77.294z"/>
			<path fill="#231F20" d="M74.965,74.525v1.075h-2.113v2.93h1.902v1.076h-1.902v4.24h-1.236v-9.321H74.965z"/>
			<path fill="#231F20" d="M80.453,79.186c0,1.682-0.023,4.785-2.422,4.785s-2.424-3.104-2.424-4.785s0.025-4.784,2.424-4.784
				S80.453,77.504,80.453,79.186z M76.918,79.186c0,1.979,0.137,3.623,1.113,3.623s1.111-1.645,1.111-3.623
				c0-1.978-0.135-3.622-1.111-3.622S76.918,77.208,76.918,79.186z"/>
			<path fill="#231F20" d="M81.729,74.525h1.482c0.902,0,2.313,0.049,2.313,2.386c0,0.878-0.26,2.213-1.287,2.398l1.719,4.537H84.67
				l-1.682-4.562h-0.023v4.562h-1.236V74.525z M84.213,77.184c0-0.891-0.111-1.632-1.051-1.607h-0.197v3.078
				C83.891,78.716,84.213,78.122,84.213,77.184z"/>
			<path fill="#231F20" d="M88.242,74.525l1.322,6.726h0.025l0.037-0.384l0.371-2.237l0.803-4.104h1.088l0.867,9.321h-1.213
				l-0.223-3.475l-0.074-1.729l-0.023-1.225h-0.025l-0.211,1.335l-0.963,5.094H89.17l-1.199-6.429h-0.025l-0.357,6.429h-1.176
				l0.768-9.321H88.242z"/>
			<path fill="#231F20" d="M96.105,74.525l2.002,9.321h-1.248l-0.346-1.817h-1.855l-0.346,1.817h-1.211l2.027-9.321H96.105z
				 M96.08,79.718l-0.469-3.388h-0.025l-0.742,4.735h1.484L96.08,79.718z"/>
			<path fill="#231F20" d="M101.756,74.525v1.075h-1.398v8.246h-1.236v-8.246h-1.459v-1.075H101.756z"/>
			<path fill="#231F20" d="M103.697,83.847h-1.236v-9.321h1.236V83.847z"/>
			<path fill="#231F20" d="M109.816,79.186c0,1.682-0.025,4.785-2.424,4.785s-2.424-3.104-2.424-4.785s0.025-4.784,2.424-4.784
				S109.816,77.504,109.816,79.186z M106.279,79.186c0,1.979,0.137,3.623,1.113,3.623s1.113-1.645,1.113-3.623
				c0-1.978-0.137-3.622-1.113-3.622S106.279,77.208,106.279,79.186z"/>
			<path fill="#231F20" d="M112.141,77.294l0.186,3.128v3.425h-1.236v-9.321h1.186l2.176,7.083l0.025-0.024l-0.297-3.733v-3.325
				h1.236v9.321h-1.15l-2.176-7.183l-0.023,0.024L112.141,77.294z"/>
			<path fill="#231F20" d="M123.197,74.066c-0.398-0.292-0.783-0.49-1.305-0.49c-0.842,0-1.363,0.689-1.363,1.486
				c0,0.506,0.123,0.858,0.43,1.257l1.164,1.272c1.043,1.058,1.641,1.824,1.641,3.389c0,1.625-1.012,3.02-2.713,3.02
				c-0.598,0-1.211-0.169-1.688-0.552V81.9c0.461,0.337,0.92,0.598,1.518,0.598c0.951,0,1.35-0.752,1.35-1.61
				c0-2.299-3.234-2.759-3.234-5.795c0-1.624,0.857-2.958,2.59-2.958c0.584,0,1.135,0.092,1.625,0.383L123.197,74.066z"/>
			<path fill="#231F20" d="M128.211,74.525v1.075h-2.09v2.93h1.867v1.076h-1.867v3.165h2.09v1.075h-3.326v-9.321H128.211z"/>
			<path fill="#231F20" d="M129.176,74.525h1.482c0.902,0,2.313,0.049,2.313,2.386c0,0.878-0.26,2.213-1.285,2.398l1.719,4.537
				h-1.287l-1.682-4.562h-0.023v4.562h-1.236V74.525z M131.66,77.184c0-0.891-0.111-1.632-1.051-1.607h-0.197v3.078
				C131.34,78.716,131.66,78.122,131.66,77.184z"/>
			<path fill="#231F20" d="M134.775,74.525l1.064,7.01h0.023l0.063-0.581l0.494-3.141l0.568-3.288h1.176l-1.83,9.321h-0.99
				l-1.805-9.321H134.775z"/>
			<path fill="#231F20" d="M140.229,83.847h-1.236v-9.321h1.236V83.847z"/>
			<path fill="#231F20" d="M145.346,75.799c-0.246-0.124-0.506-0.235-0.791-0.235c-1.73,0-1.742,2.522-1.742,3.685
				c0,1.236,0.098,3.561,1.791,3.561c0.273,0,0.508-0.062,0.742-0.186v1.088c-0.309,0.197-0.631,0.26-0.988,0.26
				c-2.523,0-2.855-2.683-2.855-4.637c0-1.866,0.234-4.933,2.77-4.933c0.42,0,0.717,0.062,1.074,0.272V75.799z"/>
			<path fill="#231F20" d="M149.623,74.525v1.075h-2.088v2.93h1.865v1.076h-1.865v3.165h2.088v1.075h-3.324v-9.321H149.623z"/>
		</g>
	</g>
</g>
</svg>
