<?xml version="1.0" encoding="utf-8"?>
<!-- Generator: Adobe Illustrator 18.1.1, SVG Export Plug-In . SVG Version: 6.00 Build 0)  -->
<svg version="1.1" id="Layer_1" xmlns="http://www.w3.org/2000/svg" xmlns:xlink="http://www.w3.org/1999/xlink" x="0px" y="0px"
	 viewBox="0 284 612 216.8" enable-background="new 0 284 612 216.8" xml:space="preserve">
<g>
	<g>
		<g>
			<g>
				<path d="M333.5,471.2L333.5,471.2L333.5,471.2z"/>
			</g>
			<g>
				<path d="M205.3,462.5L205.3,462.5C205.3,462.5,205.7,462.5,205.3,462.5L205.3,462.5z"/>
			</g>
			<g>
				<path d="M376.2,419.8c1.7-0.4,3.5-1.3,5.2-1.7c3.9-0.9,7.8-1.3,11.8-1.7c0.9,0,1.3,0,1.7-0.4l0.4-0.4c0.4-2.2,0.4-4.4,0-7
					c0-0.4-0.4-0.9-0.9-0.9c-0.9,0-2.2,0-3.1,0c-3.1,0-5.7,0-8.7,0c-1.3,0-2.6,0-3.5,0c-5.2,0-10.5,0-15.7,0c-1.3,0-2.6,0-3.9,0
					c-0.4,0-0.9,0-1.7,0c-2.6,0-5.2,0-7.8,0c-3.1,0-6.1,0-8.7,0c-0.4,0-1.3,0-1.7-0.4c-0.9,0.4-1.3,0.4-2.2,0.4c-0.4,0-1.3,0-1.7,0
					l0,0c-4.8,0-9.6,0-14.4,0c-4.4,0-8.7,0-13.1,0l0,0c-0.4,0-0.9,0-1.3,0c-0.4,0-0.4,0-0.9,0c-0.4,0-0.4,0-0.9,0
					c-2.6,0-2.6,0.4-2.6,3.5c0,1.3,0,2.6,0,3.9c0,0.4,0.4,0.9,0.9,0.9c3.1,0.4,5.7,0.9,8.7,0.9c2.6,0.4,5.2,0.9,7.8,1.7
					c1.3,0.4,2.6,0.9,3.9,1.7c2.6,1.3,4.8,3.9,5.7,7c0.4,0.9,0.4,2.2,0.4,3.1c0.4,3.1,0.9,5.7,0.9,8.7c0,4.8,0,9.6,0,14.4
					c0,3.9-0.4,7.4-1.3,10.9c-1.3,6.5-4.8,11.8-10,16.1c-3.5,3.1-7.4,5.2-11.8,6.5c-0.4,0-0.9,0-1.3,0c-0.4,0.4-0.9,0.4-1.3,0.9
					c-3.5,1.3-7.4,2.2-11.3,2.2c-1.7,0-3.1,0-4.4,0c-4.8,0-9.6-0.4-13.9-1.7c-0.4,0-0.9-0.4-1.3-0.9h-0.4c-0.9,0-1.3-0.4-2.2-0.4
					c-8.7-3.1-16.6-7.8-23.1-14.4c-5.7-5.7-10.5-11.8-14.4-19.2c-5.7-10.5-9.6-21.4-11.8-33.1c-1.3-7.8-2.2-16.1-2.2-24.4
					c0-2.6,0-5.2,0-7.8c0-7.8,0.9-15.7,2.6-23.5c0-0.4,0-0.4,0.4-0.9c0.9-7,3.5-13.9,6.1-20.5s5.7-12.2,9.6-17.9
					c4.8-7,10.5-12.6,17.4-17.4c7.4-5.2,15.7-8.7,24.8-9.6c2.6-0.4,5.7-0.4,8.3-0.4c11.8,0,23.1,3.1,33.6,9.6
					c7.4,4.8,13.5,10.5,19.2,17c6.5,7.4,12.2,16.1,16.6,24.8c0.4,0.9,0.9,1.7,1.3,3.1c0.4,0.9,1.3,0.9,1.7,1.3c0.9,0,1.7,0,2.6,0
					c0.9,0,1.7,0,2.2,0c0.4,0,0.9-0.4,0.9-0.9c0-0.9,0-1.3,0-2.2c0-2.2,0-3.9,0-6.1c0-2.2,0-4.4-0.4-6.5c0-1.7,0-3.1-0.4-4.8
					c-0.4-9.6-0.9-20.1-1.3-30.5c0-3.5-0.4-7.4-0.4-10.9c0-0.9-0.4-1.3-1.3-1.3c-2.6,0-4.8,0-7.4,0l0,0c-0.9,0-1.7,0.4-2.6,1.3
					c-2.2,2.6-5.7,4.4-8.7,5.2c-2.6,0.9-5.2,0.9-8.3,0.9c-1.7,0-3.5,0-5.2-0.4c-6.1-0.9-12.2-2.2-17.9-3.5
					c-7.4-1.7-14.8-3.1-22.2-3.5c-4.8-0.4-9.2-0.9-13.9-0.9c-4.4,0-9.2,0.4-13.5,0.9c-6.5,0.9-12.6,2.2-19.2,4.4
					c-14.4,5.2-26.6,13.5-37.1,24.4c-0.9,0.9-1.7,1.7-2.6,2.6c-0.9,1.3-1.7,2.6-3.1,3.9c-7,9.2-12.6,19.2-16.6,29.6
					c-3.9,10-6.1,20.5-7,31.4c0,1.7-0.4,3.5-0.9,5.7c0,0.9,0,1.3,0,2.2c0,4.4,0,8.7,0.4,13.1c1.7,20.1,8.3,38.8,20.9,54.9
					c3.1,3.9,6.5,7.8,10.5,11.8c0.9,0.9,1.7,1.7,2.6,2.6c0.4,0,0.4,0.4,0.4,0.9l0,0c0.9,0,1.3,0.4,1.7,0.9
					c12.2,10,26.6,16.1,41.8,19.6c5.7,1.3,10.9,2.2,16.6,2.6c2.2,0,4.8,0.4,7,0.9c1.3,0,3.1,0,4.4,0c4.8,0,9.2,0,13.9-0.4
					c0.4,0,1.3,0,1.7,0c0.4,0,0.9,0,1.3,0h0.4c3.1-0.4,6.1-0.9,9.6-1.7c3.9-0.4,7.8-1.3,11.8-2.2c0.4,0,0.9,0,1.7,0
					c1.7-0.9,3.5-1.3,5.2-1.7c11.8-3.1,23.1-7.4,34-12.6c0.9-0.4,1.3-0.9,2.2-0.9c0.9-0.4,1.3-0.9,1.3-2.2c0-0.9,0-2.2,0-3.1
					c0-8.7,0-17.4,0-26.6c0-2.6,0-5.7,0-8.3c0-3.1,0.4-6.1,0.9-9.2c0-1.3,0.4-2.6,0.9-3.9C370.5,424.1,372.7,421.5,376.2,419.8z
					 M325.2,304.2C325.2,304.2,325.2,303.8,325.2,304.2L325.2,304.2c0.9,0,1.7,0,2.6,0c3.1,0.9,6.1,1.3,9.6,1.3h0.4
					c2.6,0,4.8-0.4,7.4-1.3c0.9-0.4,1.7-0.4,2.6-0.9c0.4,0,0.4,0,0.4,0c0.4,0,0.4,0.4,0.9,0.9c0.4,2.2,0.4,3.9,0.4,6.1
					c0,2.2,0.4,3.9,0.4,6.1l0,0c0.4,3.9,0.4,7.8,0.9,11.3v0.4l0,0c-0.4,0-0.4,0-0.9,0c-0.9-0.9-1.7-1.7-2.2-2.6
					c-5.2-6.1-10.9-11.8-17-16.6C328.7,307.3,326.9,306,325.2,304.2L325.2,304.2z M227.1,481.7c-7.4-4.4-13.9-10-19.6-16.6
					c-0.4-0.4-1.3-1.3-1.3-1.7c-0.4,0-0.9-0.4-0.9-0.9c-0.9-0.4-1.3-0.9-1.7-1.7c-6.1-8.3-10.9-17-14.4-26.6
					c-3.1-7.8-4.8-16.1-6.1-24.8c0-0.4,0-0.9,0-1.7c-0.9-6.5-0.9-13.5-0.4-20.5c0.4-5.7,1.3-11.8,2.6-17.4
					c3.9-15.3,10.5-28.8,19.6-41c0.4-0.4,0.9-1.3,1.7-1.7c0-0.4,0.4-0.9,0.4-0.9c8.3-10,17.9-18.7,29.6-24.4
					c6.1-3.1,12.2-5.2,18.7-6.5c0.9-0.4,2.2-0.4,3.1-0.9c0.4,0,0.4,0.4,0,0.4c0,0,0,0-0.4,0.4c-0.9,0.4-1.7,0.9-2.6,1.3
					c-3.1,1.3-6.1,3.1-8.7,4.4c-7.4,3.9-13.9,8.7-20.1,14.8c-5.2,5.2-10,10.5-13.9,16.6c-0.9,0.9-1.3,2.2-2.2,2.6
					c0,0.9-0.9,1.7-1.3,2.6c-5.7,9.6-10,19.6-13.1,30.5c-1.3,5.2-2.6,10.5-3.1,16.1c-0.4,3.1-0.4,6.5-0.9,9.6
					c-0.4,10.9,1.3,21.4,4.8,31.4c7.4,22.7,20.5,40.5,39.7,54.9c3.1,2.2,6.5,4.4,10,6.1c4.8,2.6,9.6,4.8,14.4,7.4
					c0.4,0.4,1.3,0.4,1.7,1.3C249.8,492.1,238,488.2,227.1,481.7z M344.8,463.3c-0.4,2.2-0.9,4.8-1.7,7c-2.6,6.5-7,11.3-13.5,14.4
					c-3.1,1.7-6.1,2.6-9.6,3.5l0,0c0,0-0.4,0-0.4-0.4v-0.4l0.4-0.4c0.4-0.4,0.9-0.4,1.3-0.9c4.8-3.5,8.7-7.4,10.9-13.1
					c0.4-0.9,0.4-1.7,1.3-1.7c0-0.9,0-1.3,0-1.7c0.9-1.7,1.3-3.9,1.7-5.7c0.4-2.2,0.4-4.4,0.4-6.5c0-6.5,0-13.1,0-19.6
					c0-1.7,0-3.9-0.4-5.7c-0.4-2.6-1.3-5.2-2.6-7.4c0-0.4,0-0.4-0.4-0.9c-2.2-2.2-4.4-4.4-6.1-6.5v-0.4c0,0,0,0,0.4,0l0,0
					c3.1,0,5.7,0.4,8.3,2.2c1.7,0,3.1,1.3,4.4,2.2c2.2,1.7,3.5,3.9,4.4,6.5c0.4,0.9,0.9,2.2,0.9,3.1c0.4,4.8,1.3,9.2,0.9,13.9
					C346.1,451.1,345.7,457.2,344.8,463.3z"/>
			</g>
		</g>
		<g>
			<path d="M527.4,496.9c0.9,0,1.7,0,2.6,0c16.1,0,31.8,0,47.9,0c10.5,0,20.5,0,30.9,0c0.9,0,1.3,0,2.2,0c0.4,0,0.4,0,0.9,0l0.4-0.4
				c0-2.2,0-4.4,0-6.5c0-0.4-0.4-0.9-0.9-0.9c-0.9-0.4-2.2-0.4-3.1-0.9c-2.6-0.9-5.7-1.7-8.3-3.1c-3.9-1.7-7-4.4-9.2-7.8
				c-1.3-1.7-2.2-3.5-3.5-5.7c-1.7-3.5-3.5-7.4-4.8-10.9c-6.5-16.6-13.1-33.1-19.6-49.7c-14.8-37.5-29.2-75-44-112.5
				c-0.4-1.3-0.9-2.6-1.3-4.4c0-0.4-0.4-0.4-0.4-0.9c-0.9-1.7-1.7-2.2-3.1-2.2l0,0c-1.3,0-2.6,0-3.9,0c-1.7,0-3.1,0-4.8,0l0,0
				c-1.7,0-3.1,0.4-4.4,0.9c-9.6,3.5-19.2,6.5-28.8,10c-0.9,0.4-1.7,0.4-2.6,0.9c-0.4,0-0.9,0.4-0.9,1.3c0,1.7,0,3.5,0,5.2
				c0,0.4,0.4,0.9,0.9,0.9s0.9,0,1.7,0.4c2.2,0.4,4.8,0.9,7,1.7c2.2,0.9,3.9,1.7,5.7,3.1c2.2,1.7,3.9,3.9,5.2,6.5
				c0.4,0.4,0.4,0.9,0,1.7c0,0.4-0.4,0.9-0.4,1.3c-7,17.9-13.9,36.2-20.9,54.1c-0.4,0.9-0.9,1.3-0.9,2.2c-0.4,0.9-0.4,1.7-0.9,2.6
				c-6.5,16.6-13.1,33.6-19.6,50.1c-0.4,0.9-0.4,1.3-0.9,2.2c-2.6,6.1-4.8,12.6-7.4,18.7c-0.9,2.6-2.2,4.8-3.5,7.4
				c0,0.4-0.4,0.4-0.9,0.9c-0.4,1.7-1.3,3.1-2.6,4.4c-2.6,4.4-5.7,8.3-9.2,11.8c-4.4,4.4-9.6,7.4-15.7,9.2c-0.4,0-0.9,0.4-1.7,0.4
				c-0.4,0-0.9,0.4-0.9,0.9c0,2.2,0,3.9,0,6.1c0,0.4,0.4,0.9,1.3,0.9c1.3,0,2.2,0,3.5,0s3.1,0,4.4,0c2.2,0,4.4,0,6.5,0
				c3.5,0,7,0,10.5,0c1.3,0,2.6,0,3.9,0c1.7,0,3.9,0,5.7,0c1.7,0,3.9,0,5.7,0.4c3.5,0,7-0.4,10.5-0.4s7.4,0,10.9,0
				c0.9,0,1.3,0,2.2,0c1.7,0,2.2,0,2.2-2.2c0-1.7,0-3.1,0-4.8c0-0.4-0.4-0.9-0.9-1.3c-0.9-0.4-2.2,0-3.1-0.4
				c-4.4-0.4-8.3-2.2-11.3-5.2c-5.2-4.8-7.8-10.9-7.8-18.3c0-6.5,1.3-13.1,3.5-19.6c2.2-6.1,4.8-12.2,7.4-18.7
				c0.9-1.7,1.3-3.9,2.2-5.7c0.4-0.4,0.9-1.3,1.3-1.3l0,0c1.7,0,3.1,0,4.8,0c0.9,0,1.7,0,2.6,0c7.8,0,15.7,0,23.5,0s15.7,0,23.5,0
				c0.9,0,1.7,0,2.2,0c3.1,0,6.5,0,9.6,0l0,0c0.4,0,0.9,0.4,1.3,0.9c0.4,0.9,0.9,1.7,1.3,2.6c5.2,13.5,10.9,27.5,16.1,41
				c0.9,2.2,1.3,4.4,2.2,6.5c0.9,2.6,0.9,5.2,0.4,7.8c-0.4,2.6-1.7,4.8-4.4,6.1c-1.3,0.4-2.6,1.3-3.5,1.3c-2.6,0.4-4.8,1.3-7.4,1.7
				c-1.7,0.4-3.5,0.4-5.7,0.9c-0.9,0-1.3,0.4-1.3,1.3s0,1.7,0,2.6s0,2.2,0,3.1C526.6,496.5,527,496.9,527.4,496.9z M444.6,489.1
				L444.6,489.1c-3.9,0-7.8,0-11.8,0c-2.2,0-3.9,0-6.1,0c-2.2,0-4.4,0-7,0h-0.4c-0.4-0.4,0-0.4,0-0.9c0.4-0.4,0.9-0.9,1.3-1.3
				c3.9-3.1,7.4-6.5,10-10.9c0.4-0.4,0.9-0.9,1.3-1.3c0.9-2.2,2.2-3.9,3.5-5.7l0,0c0,0,0,0,0.4,0c0,0,0,0,0,0.4c0,0.9,0,1.3,0,2.2
				c0,6.1,2.2,11.8,7,16.1c0.4,0.4,0.4,0.4,0.9,0.9c0,0,0.4,0.4,0.4,0.9C445.1,488.6,445.1,489.1,444.6,489.1z M523.9,410.2
				c0,0.4-0.4,0.4-0.4,0.4c-0.9,0-1.7,0.4-3.1,0.4c-0.9,0-2.2,0-3.1-0.4c-0.9,0-1.7,0.4-2.6,0.4c-7.8,0-15.3,0-23.1,0
				c-7.8,0-15.7,0-23.5,0c-0.9,0-1.7,0-2.6-0.4c-0.4,0-0.9,0-0.9,0l0,0c-0.4,0-0.9-0.4-0.9-0.9c0.4-1.7,0.9-3.1,1.7-4.4
				c0-1.3,0.4-2.2,0.9-3.1c4.8-12.6,10-25.7,14.8-38.4c3.5-8.7,7-17.9,10.5-26.6c0.4-0.9,0.9-1.7,1.3-3.1c0,0,0.4-0.4,0.9-0.4l0,0
				h0.4c0.4,0.9,0.9,2.2,1.3,3.1c6.1,15.3,11.8,30.1,17.9,45.3c1.3,3.1,2.6,6.5,3.9,9.6c0,0.4,0.4,0.9,0.4,1.7l0.4,0.4
				c1.7,4.8,3.9,9.6,5.7,14.4C523.9,409.7,524.4,409.7,523.9,410.2z M546.6,488.6c0-0.4,0-0.4,0.4-0.4c0.9-0.9,1.7-1.3,2.6-2.2
				c0.9-0.4,1.3-1.3,2.2-1.7c0.9-0.9,1.3-2.2,1.7-3.5c0.4-3.1,0-5.7-0.4-8.7c-0.9-3.5-2.2-7-3.5-10.5c-10-24.8-19.6-50.1-29.2-75
				c-0.9-2.2-1.7-3.9-2.2-6.5c-0.9-1.3-1.3-3.1-2.2-4.8c-6.1-15.7-12.2-31.4-18.3-47.1c-1.3-3.1-2.6-6.5-4.4-9.2
				c-2.2-3.9-5.2-7-9.2-8.7c-0.4-0.4-0.9-0.4-1.3-0.9c0,0,0-0.4,0-0.9c0,0,0-0.4,0.4-0.4c1.7-0.4,3.1-0.4,4.4-0.4
				c3.1,0,5.7,0.9,8.7,2.2c1.3,0.9,2.6,1.7,3.5,3.1c1.3,1.7,2.2,3.1,3.5,4.8c0.9,1.7,1.7,3.9,2.6,5.7c4.4,10.5,8.3,20.9,12.2,31.4
				c0,0.4,0.4,0.9,0.4,1.7c0.9,0.9,1.3,2.2,1.7,3.1c4.4,11.3,8.7,22.7,13.5,34c7.8,20.5,16.1,40.5,24,61c1.7,4.8,3.5,9.2,4.8,13.9
				c0.4,2.6,1.3,5.2,1.3,7.8c0.4,6.5-4.4,12.2-11.3,13.1c-0.9,0-1.7,0-2.2,0h-0.4h-0.4l0,0C547.1,489.1,546.6,488.6,546.6,488.6z"/>
		</g>
		<g>
			<path d="M32.7,488.2c3.1,0,5.7,0.4,8.3,1.3c6.5,1.7,13.1,3.9,19.2,6.1c0,0,0,0,0.4,0.4c0.9,0,1.7,0.4,2.2,0.4
				c2.2,0.9,4.4,1.3,6.5,2.2c2.6,0.9,5.2,1.3,8.3,1.7c0.4,0,1.3,0,1.7,0.4c0.9,0,2.2,0,3.1,0c1.3,0,2.6,0,3.9,0
				c4.8,0,9.6-0.4,14.4-1.3c17-3.9,30.5-12.6,40.1-27c9.2-13.5,12.6-28.8,10.9-45.3c-0.9-8.3-3.9-16.1-8.3-23.5
				c-7.4-11.8-17.9-19.6-30.5-24.8c-4.8-1.7-9.2-3.1-14.4-3.9c-5.7-1.3-11.3-2.2-17.4-3.1c-0.9,0-1.7,0-2.2-0.9c-0.4,0-0.4,0-0.9,0
				c-1.7,0-3.1-0.4-4.8-0.9c-4.8-0.9-9.6-1.7-14.4-3.1c-6.5-1.3-12.6-2.6-18.3-5.2c-3.9-1.7-7.8-3.9-11.3-6.5
				c-3.1-3.5-6.1-7.4-7.4-12.2c-0.9-2.2-1.3-4.4-1.3-6.5c-0.4-4.8,0-9.6,1.3-13.9c2.2-6.5,5.7-11.8,10.5-16.1
				c7.4-7,16.6-10,26.6-10.5l0,0c0.4,0,0.9,0,1.3,0c0.4,0,0.9,0,0.9,0l0,0c5.7,0.4,11.3,1.3,17,3.5c0.4,0,0.9,0.4,0.9,0.4
				c0.4,0,1.3,0.4,1.7,0.4c5.7,2.6,10.9,6.1,15.3,10.5c4.4,3.9,8.3,8.3,11.8,13.1c6.5,8.3,11.8,17,16.6,26.2c2.2,0,4.4,0,6.5,0
				c0.4,0,0.9,0,0.9,0c0.4,0,0.9,0,1.3-0.4l0.4-0.4c0-0.9,0-1.3,0.4-2.2c0-0.4-0.4-1.3-0.4-1.7c-0.9-7-1.7-14.4-2.2-21.4
				c-0.4-3.5-0.9-7.4-1.3-10.9c1.3-3.9,0.9-7.4,0.9-11.3c-0.4-3.1-0.4-5.7-0.9-8.7c0-0.4,0-0.9,0-1.3c0-0.4-0.4-0.9-0.9-0.9
				c-2.2,0-4.4,0-6.5,0c-0.9,0-1.7,0-2.6,0c-0.4,0-1.3,0.4-1.7,0.4c-1.3,0.4-2.6,0.9-3.9,1.3c-2.6,0.9-5.7,1.3-8.3,1.3
				c-0.9,0-2.2,0-3.1,0c0,0,0,0-0.4,0s-1.3,0-1.7,0c-0.4,0-0.9,0-1.7,0c-6.1-0.9-12.6-1.7-18.7-3.5c-0.4,0-0.4,0-0.9,0h-0.4
				c-5.2-0.9-10.9-1.7-16.1-1.7c-0.4,0-0.9,0-1.7,0c-0.9,0-1.7,0-2.6,0.4c-2.6,0-5.2,0.4-7.8,0.9c-12.6,2.6-23.1,8.3-31.4,17.4
				C6.1,321.7,0.4,342.6,5.7,362.7c3.1,12.2,10,22.2,20.5,29.6c6.5,4.8,13.9,7.8,21.8,10c3.9,0.9,7.4,1.7,11.3,2.6
				c0.4,0,1.3,0.4,1.7,0.4c0.9,0,1.7,0,2.6,0.4c4.4,0.9,9.2,1.7,13.5,2.2c0.9,0,1.7,0.4,2.6,0.9c0.4,0,0.4,0,0.9,0
				c1.3,0,3.1,0.4,4.4,0.9c5.7,0.9,10.9,2.6,16.1,3.9c7.4,2.2,13.9,6.1,19.6,11.8c4.4,4.4,7,9.2,8.3,15.3c1.3,6.1,1.7,12.2,0.9,18.7
				c-0.9,6.5-3.5,12.2-7.8,17.4c-6.5,7.8-14.8,12.6-24.8,14.8c-3.5,0.9-7,1.3-10.5,1.3c-2.6,0-4.8,0-7.4-0.4c-2.6,0-5.2-0.9-7.8-1.3
				c-3.5-0.9-7-2.6-10.5-3.9c-0.4,0-0.4-0.4-0.9-0.9c-1.7-0.4-3.1-1.3-4.4-2.6c-6.1-3.9-11.3-8.7-16.1-14.4
				c-5.2-6.1-9.2-12.2-13.1-19.2c-3.9-7.4-7.4-15.3-10.5-23.1c-0.9-3.1-0.9-2.6-3.5-2.6c-0.4,0-0.9,0-1.3,0c-0.9,0-1.3,0-2.2,0
				c-0.4,0-0.9,0-1.7,0c-1.3,0-1.7,0.4-1.7,1.7c0,0.9,0,1.3,0,2.2c0,21.8,0,44,0,65.8c0,0.9,0,1.7,0,2.2c0,0.4,0.4,0.9,0.9,1.3
				c2.2,0,4.4,0,6.5,0l0,0c0.4,0,0.9-0.4,1.3-0.9s0.9-0.9,0.9-1.3c4.4-4.8,9.6-6.5,16.1-7C32.3,488.2,32.7,488.2,32.7,488.2z
				 M97.2,303.4L97.2,303.4L97.2,303.4c2.6,0.4,4.8,0.4,7.4,0.9c0.9,0,1.3,0,2.2,0.4c2.6-0.4,4.8-0.9,7.4-1.3l0,0
				c0.4,0,0.9,0.4,0.9,0.9c0.4,0.9,0.4,1.7,0.4,2.6c0.9,5.7,2.2,11.8,3.1,17.4c0.4,1.3,0.9,3.1,0.4,4.8l0,0l0,0h0.4l0,0
				c0,0,0,0,0-0.4l0,0l0,0H119c-1.7-1.7-4.4-5.2-6.1-7.8c-0.9-0.9-1.7-2.2-2.6-3.1c-2.6-3.1-4.8-6.1-7.8-8.7
				c-1.7-1.7-3.9-3.5-5.7-4.8c0,0,0-0.4-0.4-0.9C96.8,303.4,96.8,303.4,97.2,303.4z M131.6,469.4L131.6,469.4
				C131.2,469.4,131.2,469.4,131.6,469.4c-0.4-0.4,0-0.4,0-0.4l0,0l0,0C131.6,469,131.6,469.4,131.6,469.4z M120.7,418.4
				c-3.1-2.6-6.5-4.8-10.5-6.5c-4.8-2.2-9.6-3.5-14.4-4.8c-4.4-0.9-8.7-1.7-13.5-2.6c-0.9,0-1.7-0.4-2.6-0.9c-0.4,0-0.4,0-0.9,0
				c-1.7,0-3.1-0.4-4.8-0.9c-3.5-0.4-7.4-1.3-10.9-1.7c-0.9,0-1.7-0.4-2.6-0.9h-0.4c-1.3,0-2.2-0.4-3.5-0.9c-3.5-0.9-7-1.3-10.5-2.2
				c-3.5-0.9-6.5-2.2-9.6-3.5c-13.5-7-22.2-17.9-26.2-32.7c-1.7-6.5-2.2-13.5-0.9-20.1c0.4-2.2,0.4-4.4,1.3-6.1c0,0,0,0,0.4-0.4
				c0.4,2.2,0,4.4,0,6.1c0,3.9,0.4,7.4,1.3,10.9c3.1,12.2,9.6,21.4,20.1,28.3c7,4.8,14.4,7.8,22.7,9.2c1.7,0.4,3.1,0.4,4.8,0.9
				c0.4,0,0.9,0.4,0.9,0.4c0.9,0,2.2,0,3.1,0.4c4.4,0.9,8.7,1.3,12.6,2.2c0.9,0,2.2,0.4,3.1,0.9c0.4,0,0.4,0,0.9,0
				c1.3,0,2.6,0.4,3.9,0.9c7.4,1.3,15.3,3.1,22.7,5.7c3.5,1.3,7,2.6,10.5,3.9c5.2,2.6,9.6,5.7,13.5,10c5.2,5.2,8.3,11.8,9.6,19.2
				c0.4,3.1,0.9,6.5,0.9,9.6c0,8.7-2.6,16.6-7.8,23.5c-0.4,0.4-0.9,0.9-0.9,1.3l0,0l0,0l-0.4-0.4c0-0.4,0-0.9,0-1.3
				c0.4-0.9,0.4-1.3,0.9-2.2c2.2-5.7,2.6-11.8,2.6-17.9C134.3,435,129.5,425.9,120.7,418.4z M28.3,480.3l-0.4,0.4
				c-1.3,0-3.1,0-4.4,0c-0.9,0-1.7,0-2.6,0.4c-2.2,0.4-4.4,1.7-5.7,3.5c-0.9,0.9-2.2,2.2-3.1,3.1c0,0,0,0-0.4,0l0,0l-0.4-0.4
				c0-0.9,0-1.7,0-2.2c0-4.8,0-10,0-14.8l0,0c0-5.7,0-10.9,0-16.6c0-0.4,0-0.9,0.4-0.9l0,0c0,0,0.4,0.4,0.9,0.9
				c0,0.4,0.4,1.3,0.4,2.2c1.3,3.1,2.6,6.1,4.4,8.7c2.2,3.9,5.2,7.8,8.3,11.3c0.9,1.3,1.7,2.2,2.6,3.5
				C28.8,479.5,28.8,479.9,28.3,480.3z"/>
		</g>
	</g>
</g>
</svg>
