<?xml version="1.0" encoding="UTF-8" ?>
<!DOCTYPE svg PUBLIC "-//W3C//DTD SVG 1.1//EN" "http://www.w3.org/Graphics/SVG/1.1/DTD/svg11.dtd">
<svg width="498pt" height="130pt" viewBox="0 0 498 130" version="1.1" xmlns="http://www.w3.org/2000/svg">
<path fill="#fa6423" d=" M 365.23 0.00 L 367.17 0.00 L 365.75 0.01 C 371.72 4.46 377.55 9.70 380.20 16.87 C 384.71 28.38 381.81 40.93 379.33 52.56 C 378.12 58.36 376.99 64.63 379.64 70.23 C 380.65 63.01 382.28 55.33 388.12 50.37 C 387.03 56.30 388.67 62.18 391.48 67.38 C 396.41 76.78 399.77 87.32 398.85 98.04 C 398.21 106.86 393.73 115.27 386.83 120.79 C 381.15 125.34 374.26 128.54 367.06 129.62 C 355.04 127.63 343.16 120.38 338.12 108.92 C 333.79 99.25 334.90 88.11 338.10 78.28 C 343.17 63.29 353.20 50.80 361.62 37.61 C 365.87 30.71 370.21 23.32 370.53 15.00 C 370.80 9.51 368.38 4.34 365.23 0.00 Z" />
<path fill="#55555a" d=" M 3.72 76.84 C 5.23 70.51 10.81 65.84 16.97 64.31 C 27.28 61.85 38.52 64.50 46.84 71.02 C 44.50 74.43 42.12 77.81 39.82 81.24 C 34.53 77.91 28.53 74.54 22.05 75.44 C 19.27 75.79 16.14 77.80 16.48 80.99 C 16.68 84.61 20.66 85.66 23.47 86.64 C 31.27 89.09 40.55 90.18 45.85 97.15 C 51.60 105.76 47.89 119.25 38.04 123.09 C 25.53 128.07 10.75 124.37 0.68 115.81 C 3.16 112.43 5.92 109.26 8.67 106.10 C 14.33 110.66 21.48 114.32 28.95 113.22 C 31.72 112.94 35.14 111.20 35.05 107.99 C 35.28 106.07 34.14 104.24 32.41 103.46 C 24.62 99.46 14.96 99.69 8.03 93.90 C 3.07 89.84 2.48 82.71 3.72 76.84 Z" />
<path fill="#55555a" d=" M 56.25 64.25 C 64.51 64.25 72.77 64.24 81.03 64.24 C 87.54 64.21 94.45 66.13 98.95 71.08 C 104.05 76.63 105.10 84.97 103.05 92.04 C 101.28 98.17 96.08 102.92 90.08 104.84 C 83.55 107.18 76.52 106.31 69.73 106.57 C 69.75 112.56 69.82 118.56 69.67 124.55 C 65.18 124.48 60.70 124.52 56.21 124.45 C 56.30 104.38 56.23 84.32 56.25 64.25 Z" />
<path fill="#55555a" d=" M 122.32 63.86 C 126.48 63.70 130.66 63.72 134.83 63.80 C 143.36 84.05 152.08 104.23 160.59 124.49 C 155.84 124.50 151.09 124.56 146.34 124.41 C 144.67 119.89 142.78 115.47 140.99 111.00 C 132.62 111.00 124.26 110.99 115.89 111.01 C 114.04 115.51 112.23 120.04 110.34 124.53 C 105.77 124.48 101.20 124.52 96.63 124.47 C 105.11 104.23 113.90 84.12 122.32 63.86 Z" />
<path fill="#55555a" d=" M 166.44 64.35 C 175.63 64.13 184.82 64.30 194.01 64.24 C 200.29 64.21 207.03 65.73 211.61 70.31 C 217.13 75.92 217.96 84.86 215.47 92.06 C 213.71 97.35 209.04 100.90 204.15 103.14 C 208.99 110.25 213.90 117.31 218.68 124.46 C 213.42 124.53 208.16 124.49 202.91 124.50 C 198.59 118.07 194.38 111.58 189.94 105.24 C 186.63 105.26 183.33 105.25 180.03 105.23 C 179.97 111.65 180.01 118.07 180.00 124.49 C 175.51 124.50 171.01 124.50 166.51 124.51 C 166.44 104.45 166.59 84.40 166.44 64.35 Z" />
<path fill="#55555a" d=" M 225.55 64.21 C 230.02 64.27 234.49 64.26 238.96 64.22 C 239.06 72.47 238.94 80.73 239.03 88.99 C 245.85 80.79 252.65 72.57 259.37 64.28 C 264.90 64.22 270.43 64.27 275.96 64.22 C 268.08 73.92 259.43 83.02 251.83 92.93 C 260.14 103.66 269.24 113.78 277.63 124.46 C 272.42 124.48 267.21 124.57 262.01 124.49 C 260.43 124.86 259.56 123.40 258.68 122.43 C 252.16 114.32 245.63 106.22 239.04 98.16 C 238.95 106.94 239.02 115.72 239.00 124.50 C 234.50 124.50 230.00 124.50 225.50 124.49 C 225.54 104.40 225.43 84.30 225.55 64.21 Z" />
<path fill="#55555a" d=" M 286.57 64.20 C 294.40 64.34 302.23 64.15 310.06 64.28 C 316.17 64.50 322.64 66.37 326.80 71.12 C 331.12 75.87 331.65 83.02 329.96 88.97 C 327.40 96.93 318.94 101.31 311.04 101.90 C 304.43 102.19 297.81 101.86 291.21 102.06 C 291.30 109.53 291.23 117.01 291.25 124.49 C 289.67 124.49 288.08 124.50 286.50 124.50 C 286.55 104.40 286.40 84.30 286.57 64.20 Z" />
<path fill="#55555a" d=" M 416.26 64.46 C 426.01 61.79 436.92 64.14 444.59 70.78 C 443.54 72.02 442.50 73.26 441.46 74.49 C 437.32 71.04 432.37 68.35 426.93 67.87 C 421.51 67.25 415.29 68.11 411.51 72.40 C 407.79 76.57 408.19 84.01 413.00 87.18 C 421.35 92.71 432.41 91.38 440.60 97.30 C 447.32 101.75 447.95 112.06 443.13 118.14 C 438.93 123.61 431.64 125.59 425.00 125.29 C 416.33 125.34 408.17 121.40 401.81 115.70 C 402.85 114.47 403.88 113.25 404.94 112.03 C 409.42 116.10 414.72 119.63 420.82 120.57 C 426.46 121.50 432.91 121.28 437.52 117.48 C 441.54 114.38 442.73 108.27 440.25 103.86 C 437.74 100.10 433.20 98.61 429.05 97.48 C 422.37 95.81 415.11 94.96 409.46 90.68 C 404.03 86.69 402.94 78.65 405.82 72.82 C 407.87 68.66 411.94 65.86 416.26 64.46 Z" />
<path fill="#55555a" d=" M 450.88 64.21 C 465.25 64.28 479.62 64.26 494.00 64.22 C 495.41 64.31 497.61 63.83 497.99 65.81 C 497.74 66.50 497.25 67.88 497.00 68.58 C 490.12 68.40 483.24 68.60 476.36 68.44 C 476.12 87.10 476.29 105.77 476.28 124.44 C 474.75 124.45 473.24 124.46 471.72 124.46 C 471.80 105.82 471.69 87.19 471.78 68.55 C 464.74 68.43 457.70 68.58 450.66 68.45 C 450.72 67.04 450.80 65.62 450.88 64.21 Z" />
<path fill="#E5D8CE" d=" M 291.25 97.75 C 291.31 87.98 291.13 78.21 291.35 68.44 C 297.87 68.67 304.40 68.22 310.91 68.75 C 315.15 69.07 319.46 70.50 322.57 73.50 C 327.41 78.54 327.45 87.47 322.45 92.42 C 318.72 96.23 313.23 97.62 308.05 97.74 C 302.45 97.80 296.85 97.72 291.25 97.75 Z" />
<path fill="#E5D8CE" d=" M 363.10 75.24 C 368.64 74.09 374.62 75.44 379.18 78.77 C 385.52 83.25 389.05 91.48 387.65 99.15 C 386.58 105.89 381.87 111.83 375.71 114.67 C 368.94 117.87 360.44 116.93 354.53 112.34 C 347.76 107.38 344.56 98.06 347.02 90.01 C 349.04 82.56 355.56 76.72 363.10 75.24 Z" />
<path fill="#E5D8CE" d=" M 69.75 76.52 C 74.95 76.78 80.39 75.68 85.41 77.44 C 91.81 79.85 91.99 89.99 86.03 93.01 C 81.00 95.55 75.16 94.17 69.75 94.49 C 69.75 88.50 69.75 82.51 69.75 76.52 Z" />
<path fill="#E5D8CE" d=" M 180.00 76.51 C 185.28 76.62 190.58 76.23 195.84 76.68 C 200.00 77.03 203.45 80.76 203.17 84.99 C 203.38 89.47 199.30 93.09 194.99 93.18 C 190.00 93.40 185.00 93.18 180.00 93.25 C 180.00 87.67 180.00 82.09 180.00 76.51 Z" />
<path fill="#E5D8CE" d=" M 120.76 99.00 C 123.37 92.84 125.62 86.51 128.54 80.48 C 131.09 86.65 133.58 92.84 136.13 99.00 C 131.01 99.00 125.88 99.00 120.76 99.00 Z" />
</svg>
