<?xml version="1.0" encoding="utf-8"?>
<!-- Generator: Adobe Illustrator 19.2.0, SVG Export Plug-In . SVG Version: 6.00 Build 0)  -->
<svg version="1.1" id="Layer_1" xmlns="http://www.w3.org/2000/svg" xmlns:xlink="http://www.w3.org/1999/xlink" x="0px" y="0px"
	 viewBox="0 0 221.5 92.6" style="enable-background:new 0 0 221.5 92.6;" xml:space="preserve">
<style type="text/css">
	.st0{fill:#CCF2FF;}
	.st1{fill:#806D60;}
</style>
<g>
	
		<rect x="19.3" y="10.5" transform="matrix(-1 -4.489088e-011 4.489088e-011 -1 229.7484 56.2434)" class="st0" width="191.1" height="35.2"/>
	<polygon class="st0" points="4,62.4 214.5,64.3 214.5,48.9 4.8,59.6 	"/>
	<g>
		<path class="st1" d="M106.3,57.6l6.3,4.8H4l-1.1,4C1,73.2,6.1,79.9,13.1,79.9h19c0.4-6.9,6.1-12.5,13.1-12.5
			c7,0,12.8,5.5,13.1,12.5H148c0.4-6.9,6.1-12.5,13.1-12.5c7,0,12.8,5.5,13.1,12.5h29.6c5.9,0,10.6-4.8,10.6-10.6V57.6H106.3z"/>
		<path class="st1" d="M207,37.4c0,2.7-2.2,4.9-4.9,4.9h-11.8c-2.7,0-4.9-2.2-4.9-4.9V17.6c0-2.7,2.2-4.9,4.9-4.9h11.8
			c2.7,0,4.9,2.2,4.9,4.9V37.4z M180.2,37.4c0,2.7-2.2,4.9-4.9,4.9h-26.4c-2.7,0-4.9-2.2-4.9-4.9V17.6c0-2.7,2.2-4.9,4.9-4.9h26.4
			c2.7,0,4.9,2.2,4.9,4.9V37.4z M139,37.4c0,2.7-2.2,4.9-4.9,4.9h-26.4c-2.7,0-4.9-2.2-4.9-4.9V17.6c0-2.7,2.2-4.9,4.9-4.9h26.4
			c2.7,0,4.9,2.2,4.9,4.9V37.4z M97.9,37.4c0,2.7-2.2,4.9-4.9,4.9H66.5c-2.7,0-4.9-2.2-4.9-4.9V17.6c0-2.7,2.2-4.9,4.9-4.9h26.4
			c2.7,0,4.9,2.2,4.9,4.9V37.4z M50.3,37.4c0,2.7-2.2,4.9-4.9,4.9H24.3c-3.2,0-5.6-3.1-4.8-6.2l5.9-19.8c0.6-2.2,2.5-3.7,4.8-3.7
			h15.2c2.7,0,4.9,2.2,4.9,4.9V37.4z M214.5,15.1c0-5.9-4.8-10.6-10.6-10.6H28.4c-4.8,0-8.9,3.2-10.2,5.4L4.6,60.3h101.8l-6.3-4.8
			h114.4V15.1z"/>
		<path class="st1" d="M55.4,80.6c0,5.6-4.5,10.1-10.1,10.1s-10.1-4.5-10.1-10.1c0-5.6,4.5-10.1,10.1-10.1S55.4,75,55.4,80.6"/>
		<path class="st1" d="M171.3,80.6c0,5.6-4.5,10.1-10.1,10.1s-10.1-4.5-10.1-10.1c0-5.6,4.5-10.1,10.1-10.1S171.3,75,171.3,80.6"/>
	</g>
</g>
</svg>
