<?xml version="1.0" encoding="utf-8"?>
<!-- Generator: Adobe Illustrator 19.2.0, SVG Export Plug-In . SVG Version: 6.00 Build 0)  -->
<svg version="1.1" id="Layer_1" xmlns="http://www.w3.org/2000/svg" xmlns:xlink="http://www.w3.org/1999/xlink" x="0px" y="0px"
	 viewBox="0 0 49.8 36" style="enable-background:new 0 0 49.8 36;" xml:space="preserve">
<style type="text/css">
	.st0{fill:#806D60;}
</style>
<g>
	<g>
		<path class="st0" d="M38.2,4.1C38.2,4.1,38.2,4.1,38.2,4.1L38.2,4.1l-12.5,0v0c-0.4,0-0.7,0.6-0.7,1.3c0,0.7,0.3,1.3,0.7,1.3v0
			h12.5v0c0,0,0,0,0,0c0.4,0,0.7-0.6,0.7-1.3C38.9,4.7,38.6,4.1,38.2,4.1z"/>
		<path class="st0" d="M40.7,7.7C40.7,7.7,40.7,7.7,40.7,7.7L40.7,7.7l-14.8,0v0C25.4,7.7,25,8.3,25,9c0,0.7,0.4,1.3,0.9,1.3v0h14.8
			v0c0,0,0,0,0,0c0.5,0,0.9-0.6,0.9-1.3C41.6,8.3,41.2,7.7,40.7,7.7z"/>
		<path class="st0" d="M43.3,11.3C43.3,11.3,43.3,11.3,43.3,11.3L43.3,11.3l-17.3,0v0c-0.6,0-1,0.6-1,1.3c0,0.7,0.4,1.3,1,1.3v0
			h17.3v0c0,0,0,0,0,0c0.6,0,1-0.6,1-1.3C44.3,11.8,43.9,11.3,43.3,11.3z"/>
	</g>
	<g>
		<path class="st0" d="M23.8,18.3C23.8,18.3,23.8,18.3,23.8,18.3H2.4c-0.7,0-1.2,0.6-1.2,1.3c0,0.7,0.6,1.3,1.2,1.3l21.4,0
			c0,0,0,0,0,0c0.7,0,1.2-0.6,1.2-1.3C25,18.8,24.5,18.3,23.8,18.3z"/>
		<path class="st0" d="M23.8,21.8C23.8,21.8,23.8,21.8,23.8,21.8H2.4c-0.7,0-1.2,0.6-1.2,1.3c0,0.7,0.6,1.3,1.2,1.3l21.4,0
			c0,0,0,0,0,0c0.7,0,1.2-0.6,1.2-1.3C25,22.4,24.5,21.8,23.8,21.8z"/>
		<path class="st0" d="M23.8,25.4C23.8,25.4,23.8,25.4,23.8,25.4H2.4c-0.7,0-1.2,0.6-1.2,1.3c0,0.7,0.6,1.3,1.2,1.3l21.4,0
			c0,0,0,0,0,0c0.7,0,1.2-0.6,1.2-1.3C25,26,24.5,25.4,23.8,25.4z"/>
		<path class="st0" d="M23.8,29C23.8,29,23.8,29,23.8,29H2.4c-0.7,0-1.2,0.6-1.2,1.3c0,0.7,0.6,1.3,1.2,1.3l21.4,0c0,0,0,0,0,0
			c0.7,0,1.2-0.6,1.2-1.3C25,29.6,24.5,29,23.8,29z"/>
		<path class="st0" d="M23.8,32.6C23.8,32.6,23.8,32.6,23.8,32.6H2.4c-0.7,0-1.2,0.6-1.2,1.3c0,0.7,0.6,1.3,1.2,1.3l21.4,0
			c0,0,0,0,0,0c0.7,0,1.2-0.6,1.2-1.3C25,33.1,24.5,32.6,23.8,32.6z"/>
	</g>
	<g>
		<path class="st0" d="M26.1,20.8l19.4,0c0,0,0,0,0,0c0.6,0,1.1-0.6,1.1-1.3c0-0.7-0.5-1.3-1.1-1.3c0,0,0,0,0,0l-19.4,0
			c-0.6,0-1.1,0.6-1.1,1.3C25,20.2,25.5,20.8,26.1,20.8z"/>
		<path class="st0" d="M45.6,21.8C45.6,21.8,45.6,21.8,45.6,21.8H26.1c-0.6,0-1.1,0.6-1.1,1.3c0,0.7,0.5,1.3,1.1,1.3l19.4,0
			c0,0,0,0,0,0c0.6,0,1.1-0.6,1.1-1.3C46.7,22.4,46.2,21.8,45.6,21.8z"/>
		<g>
			<path class="st0" d="M32.2,31.6V29l-6.1,0c-0.6,0-1.1,0.6-1.1,1.3c0,0.7,0.5,1.3,1.1,1.3L32.2,31.6z"/>
			<path class="st0" d="M45.6,29C45.6,29,45.6,29,45.6,29l-5.8,0v2.6l5.8,0c0,0,0,0,0,0c0.6,0,1.1-0.6,1.1-1.3
				C46.7,29.6,46.2,29,45.6,29z"/>
		</g>
		<g>
			<path class="st0" d="M45.6,25.4C45.6,25.4,45.6,25.4,45.6,25.4l-7.2,0c0.8,0.6,1.3,1.5,1.4,2.6l5.8,0c0,0,0,0,0,0
				c0.6,0,1.1-0.6,1.1-1.3C46.7,26,46.2,25.4,45.6,25.4z"/>
			<path class="st0" d="M32.2,28c0.1-1,0.7-2,1.5-2.6l-7.6,0c-0.6,0-1.1,0.6-1.1,1.3c0,0.7,0.5,1.3,1.1,1.3L32.2,28z"/>
		</g>
		<g>
			<path class="st0" d="M32.2,34.1v-1.6l-6.1,0c-0.6,0-1.1,0.6-1.1,1.3c0,0.7,0.5,1.3,1.1,1.3l6.1,0V34.1z"/>
			<path class="st0" d="M45.6,32.6C45.6,32.6,45.6,32.6,45.6,32.6l-5.8,0l0.2,2.6l5.6,0c0,0,0,0,0,0c0.6,0,1.1-0.6,1.1-1.3
				C46.7,33.1,46.2,32.6,45.6,32.6z"/>
		</g>
	</g>
	<path class="st0" d="M46.7,15.3L36.7,1.3c0,0,0,0,0,0c-0.1-0.2-0.3-0.3-0.6-0.3l0,0l0,0c-0.1,0-0.2,0-0.4,0l-23.9,0L1.6,15
		c-0.3,0.2-0.4,0.6-0.4,1c0,0.7,0.6,1.3,1.2,1.3l18.8,0h2.6h2.4h1.6l17.8,0C45.8,16.5,46,16.5,46.7,15.3z M28.4,14.7l7.5-10.3
		l7.5,10.3H28.4z"/>
	<path class="st0" d="M44.9,15.5c0.4-0.6,1-0.8,1.5-0.5c0.4,0.3,0.6,0.9,0.1,1.6c-0.4,0.6-0.9,0.9-1.5,0.5
		C44.5,16.8,44.5,16.1,44.9,15.5z"/>
	<path class="st0" d="M36.2,23.6h-0.2c-2.6,0-4.7,2.1-4.7,4.7v6.8h1v-1v-2.5v-3.1c0-2.1,1.7-3.8,3.8-3.8h0c2,0,3.7,1.7,3.7,3.7v3.2
		v2.5v1h1v-6.9C40.8,25.6,38.7,23.6,36.2,23.6z"/>
</g>
</svg>
