<?xml version="1.0" encoding="utf-8"?>
<!-- Generator: Adobe Illustrator 19.2.1, SVG Export Plug-In . SVG Version: 6.00 Build 0)  -->
<svg version="1.1" id="Layer_1" xmlns="http://www.w3.org/2000/svg" xmlns:xlink="http://www.w3.org/1999/xlink" x="0px" y="0px"
	 viewBox="0 0 587 241" style="enable-background:new 0 0 587 241;" xml:space="preserve">
<style type="text/css">
	.st0{fill:#FFAF40;}
	.st1{fill:#26434C;}
	.st2{fill:#FF7040;}
</style>
<g>
	<g>
		<g>
			<rect x="273" y="42.2" class="st0" width="27.4" height="27.4"/>
			<rect x="259.3" y="55.9" class="st0" width="27.4" height="27.4"/>
			<rect x="245.6" y="69.6" class="st0" width="27.4" height="27.4"/>
			<rect x="286.7" y="28.4" class="st0" width="27.4" height="27.4"/>
			<rect x="300.4" y="14.7" class="st0" width="27.4" height="27.4"/>
			<rect x="314.2" y="1" class="st0" width="27.4" height="27.4"/>
			<rect x="259.3" y="69.6" class="st0" width="13.7" height="13.7"/>
			<rect x="273" y="55.9" class="st0" width="13.7" height="13.7"/>
			<rect x="286.7" y="42.2" class="st0" width="13.7" height="13.7"/>
			<rect x="300.4" y="28.4" class="st0" width="13.7" height="13.7"/>
			<rect x="314.2" y="14.7" class="st0" width="13.7" height="13.7"/>
			<rect x="327.9" y="1" class="st0" width="13.7" height="13.7"/>
			
				<rect x="225.1" y="81.6" transform="matrix(0.7071 0.7071 -0.7071 0.7071 136.0521 -156.0426)" class="st1" width="62.5" height="9.1"/>
			
				<rect x="198.4" y="120.4" transform="matrix(0.7071 0.7071 -0.7071 0.7071 152.1257 -117.2374)" class="st1" width="38.4" height="9.1"/>
			
				<rect x="228.8" y="74.9" transform="matrix(0.7071 0.7071 -0.7071 0.7071 142.7495 -139.8738)" class="st1" width="22.9" height="54.9"/>
		</g>
		<g>
			
				<rect x="286.7" y="42.2" transform="matrix(-1 -4.494550e-011 4.494550e-011 -1 600.8129 111.7593)" class="st2" width="27.4" height="27.4"/>
			
				<rect x="300.4" y="55.9" transform="matrix(-1 -4.484603e-011 4.484603e-011 -1 628.2524 139.1987)" class="st2" width="27.4" height="27.4"/>
			
				<rect x="314.1" y="69.6" transform="matrix(-1 -4.491220e-011 4.491220e-011 -1 655.6918 166.6381)" class="st2" width="27.4" height="27.4"/>
			
				<rect x="273" y="28.4" transform="matrix(-1 -4.487933e-011 4.487933e-011 -1 573.3735 84.3199)" class="st2" width="27.4" height="27.4"/>
			
				<rect x="259.2" y="14.7" transform="matrix(-1 -4.497881e-011 4.497881e-011 -1 545.9341 56.8804)" class="st2" width="27.4" height="27.4"/>
			
				<rect x="245.5" y="1" transform="matrix(-1 -4.491220e-011 4.491220e-011 -1 518.4947 29.441)" class="st2" width="27.4" height="27.4"/>
			
				<rect x="314.1" y="69.6" transform="matrix(-1 -4.487889e-011 4.487889e-011 -1 641.972 152.9184)" class="st2" width="13.7" height="13.7"/>
			
				<rect x="300.4" y="55.9" transform="matrix(-1 -4.507784e-011 4.507784e-011 -1 614.5327 125.479)" class="st2" width="13.7" height="13.7"/>
			
				<rect x="286.7" y="42.2" transform="matrix(-1 -4.507784e-011 4.507784e-011 -1 587.0932 98.0396)" class="st2" width="13.7" height="13.7"/>
			
				<rect x="273" y="28.4" transform="matrix(-1 -4.501167e-011 4.501167e-011 -1 559.6538 70.6002)" class="st2" width="13.7" height="13.7"/>
			
				<rect x="259.2" y="14.7" transform="matrix(-1 -4.494550e-011 4.494550e-011 -1 532.2144 43.1607)" class="st2" width="13.7" height="13.7"/>
			
				<rect x="245.5" y="1" transform="matrix(-1 -4.501167e-011 4.501167e-011 -1 504.775 15.7213)" class="st2" width="13.7" height="13.7"/>
			
				<rect x="299.6" y="81.6" transform="matrix(-0.7071 0.7071 -0.7071 -0.7071 625.5582 -86.6985)" class="st1" width="62.2" height="9.1"/>
			
				<rect x="350.5" y="120.4" transform="matrix(-0.7071 0.7071 -0.7071 -0.7071 719.2422 -47.8933)" class="st1" width="38.1" height="9.1"/>
			
				<rect x="335.5" y="74.9" transform="matrix(-0.7071 0.7071 -0.7071 -0.7071 664.5932 -70.5296)" class="st1" width="22.9" height="54.9"/>
		</g>
	</g>
	<g>
		<path class="st1" d="M37.5,241C16,241,0,226.1,0,204.2c0-22.3,16.5-36.6,37.8-36.6c9.7,0,20.3,3.5,26.1,10.2l-11.4,11.4
			c-3.1-4.3-8.8-6.4-14.1-6.4c-11.7,0-20.1,9.1-20.1,21.4c0,12.7,8.2,21.4,19.8,21.4c6.6,0,11.8-3,14.8-7.1l11.7,11
			C58.5,236.6,49.2,241,37.5,241z"/>
		<path class="st1" d="M105.2,241c-21.8,0-37.9-15-37.9-37c0-22.3,16.1-36.4,37.9-36.4c21.9,0,38,14.1,38,36.4
			C143.2,226.1,127.1,241,105.2,241z M105.2,182.8c-11.8,0-19.9,9.1-19.9,21.3c0,12.6,8.2,21.7,19.9,21.7c11.7,0,20-9.1,20-21.7
			C125.2,191.8,117,182.8,105.2,182.8z"/>
		<path class="st1" d="M154.1,241v-69.7H171v55h27V241H154.1z"/>
		<path class="st1" d="M240.8,241c-21.8,0-37.9-15-37.9-37c0-22.3,16.1-36.4,37.9-36.4c21.9,0,38,14.1,38,36.4
			C278.8,226.1,262.7,241,240.8,241z M240.8,182.8c-11.8,0-19.9,9.1-19.9,21.3c0,12.6,8.2,21.7,19.9,21.7c11.7,0,20-9.1,20-21.7
			C260.8,191.8,252.7,182.8,240.8,182.8z"/>
		<path class="st1" d="M327.3,241l-15.1-27.7h-5.7V241H290v-69.7h26.6c13.4,0,26.7,5.1,26.7,21.1c0,9.4-5.5,16-14.5,18.8L347,241
			H327.3z M315.4,184.9h-9v16.2h8c5.4,0,12.2-1.4,12.2-8.5C326.6,186.2,320.4,184.9,315.4,184.9z"/>
		<path class="st1" d="M435.1,241h-16.6l-13.8-47.1h-0.3L390.6,241h-16.7l-19.8-69.7h18.1l11,46.4h0.3l12.4-46.4h17.5l12.5,46.4h0.3
			l11.2-46.4H455L435.1,241z"/>
		<path class="st1" d="M502.8,241l-5.4-13.7h-27l-5.1,13.7H447l29.2-69.7h16.3l28.9,69.7H502.8z M484.1,190l-8.9,23.9h17.5
			L484.1,190z"/>
		<path class="st1" d="M567.3,241l-15.1-27.7h-5.7V241H530v-69.7h26.6c13.4,0,26.7,5.1,26.7,21.1c0,9.4-5.5,16-14.5,18.8L587,241
			H567.3z M555.4,184.9h-9v16.2h8c5.4,0,12.2-1.4,12.2-8.5C566.6,186.2,560.4,184.9,555.4,184.9z"/>
	</g>
</g>
</svg>
