<?xml version="1.0" encoding="utf-8"?>
<!-- Generator: Adobe Illustrator 19.2.1, SVG Export Plug-In . SVG Version: 6.00 Build 0)  -->
<svg version="1.1" id="Layer_1" xmlns="http://www.w3.org/2000/svg" xmlns:xlink="http://www.w3.org/1999/xlink" x="0px" y="0px"
	 viewBox="0 0 47.3 45.3" style="enable-background:new 0 0 47.3 45.3;" xml:space="preserve">
<style type="text/css">
	.st0{fill:#806D60;}
	.st1{fill:#FF7040;}
	.st2{fill:#FFFFFF;}
	.st3{fill:#1A2E33;}
</style>
<g>
	<circle class="st0" cx="21.5" cy="22.5" r="11.2"/>
	<g>
		<polygon class="st0" points="20.1,19 24.9,19 22.5,-0.3 		"/>
		<polygon class="st0" points="20.1,26 24.9,26 22.5,45.3 		"/>
	</g>
	<g>
		<polygon class="st0" points="18.4,23 22.9,18.5 11.8,11.9 		"/>
		<polygon class="st0" points="22.2,26.8 26.7,22.3 33.2,33.3 		"/>
	</g>
	<g>
		<polygon class="st0" points="22.9,26.8 18.4,22.3 11.8,33.3 		"/>
		<polygon class="st0" points="26.7,23 22.2,18.5 33.2,11.9 		"/>
	</g>
	<g>
		<polygon class="st0" points="19,25 19,20.2 -0.3,22.6 		"/>
		<polygon class="st0" points="28,25 28,20.2 47.3,22.6 		"/>
	</g>
	<g>
		<g>
			<g>
				<polygon class="st1" points="19.3,18 27,25.6 42.1,2.9 				"/>
			</g>
			<polygon class="st2" points="18,19.3 25.7,27 2.9,42.1 			"/>
		</g>
		<ellipse transform="matrix(0.7071 -0.7071 0.7071 0.7071 -9.5133 21.8157)" class="st3" cx="21.6" cy="22.4" rx="4.1" ry="4.1"/>
	</g>
</g>
</svg>
