<?xml version="1.0" encoding="utf-8"?>
<!-- Generator: Adobe Illustrator 19.2.0, SVG Export Plug-In . SVG Version: 6.00 Build 0)  -->
<svg version="1.1" id="Layer_1" xmlns="http://www.w3.org/2000/svg" xmlns:xlink="http://www.w3.org/1999/xlink" x="0px" y="0px"
	 viewBox="0 0 122.7 104.5" style="enable-background:new 0 0 122.7 104.5;" xml:space="preserve">
<style type="text/css">
	.st0{fill:#FF7040;}
	.st1{fill:#FF4046;}
	.st2{fill:#FFAF40;}
	.st3{fill:#FFEF40;}
	.st4{fill:#FFFFFF;}
	.st5{fill:#806D60;}
	.st6{fill:#A68E7C;}
</style>
<g>
	<g>
		<g>
			<polygon class="st0" points="55.1,35.9 55.1,31.5 50.7,31.5 50.7,35.9 41.9,35.9 41.9,53.5 46.3,53.5 46.3,40.3 59.5,40.3 
				59.5,35.9 			"/>
			<polygon class="st1" points="50.7,22.7 50.7,27.1 46.3,27.1 46.3,31.5 41.9,31.5 41.9,35.9 50.7,35.9 50.7,31.5 55.1,31.5 
				55.1,22.7 			"/>
			<rect x="55.1" y="18.3" class="st1" width="4.4" height="4.4"/>
			<rect x="68.3" y="31.5" class="st1" width="4.4" height="4.4"/>
			<rect x="63.9" y="27.1" class="st1" width="4.4" height="4.4"/>
			<polygon class="st0" points="72.7,40.3 72.7,35.9 63.9,35.9 63.9,40.3 68.3,40.3 68.3,44.7 72.7,44.7 72.7,53.5 77.1,53.5 
				77.1,40.3 			"/>
			<polygon class="st2" points="68.3,44.7 68.3,40.3 46.3,40.3 46.3,57.9 50.7,57.9 50.7,44.7 63.9,44.7 63.9,49.1 68.3,49.1 
				68.3,57.9 72.7,57.9 72.7,44.7 			"/>
			<path class="st3" d="M63.9,49.1v-4.4H50.7v17.6h17.6V49.1H63.9z M63.9,57.9h-8.8v-8.8h4.4v4.4h4.4V57.9z"/>
			<polygon class="st4" points="59.5,53.5 59.5,49.1 55.1,49.1 55.1,57.9 63.9,57.9 63.9,53.5 			"/>
		</g>
		<g>
			<path class="st5" d="M94.7,82.1c0,3.6-2.9,6.6-6.6,6.6l0,0c-3.6,0-6.6-2.9-6.6-6.6l0,0c0-3.6,3-6.6,6.6-6.6l0,0
				C91.7,75.5,94.7,78.4,94.7,82.1L94.7,82.1z"/>
			<path class="st5" d="M29.1,75.7L29.1,75.7c0.1,0,0.1,0,0.2,0L29.1,75.7z"/>
			<path class="st5" d="M94.7,68.9c0-3.6-2.9-6.6-6.6-6.6c-0.6,0-1.2,0.1-1.7,0.2l0,0L29.7,75.6c0.4-0.1,0.8-0.1,1.2-0.1
				c3.6,0,6.6,3,6.6,6.6c0,3-2.1,5.6-4.9,6.4l0,0l57.2-13.2l0,0C92.6,74.4,94.7,71.9,94.7,68.9z"/>
			<path class="st6" d="M37.5,82.1c0,3.6-3,6.6-6.6,6.6l0,0c-3.6,0-6.6-2.9-6.6-6.6l0,0c0-3.6,2.9-6.6,6.6-6.6l0,0
				C34.6,75.5,37.5,78.4,37.5,82.1L37.5,82.1z"/>
			<path class="st6" d="M81.5,82.1c0-3.6,3-6.6,6.6-6.6c0.4,0,0.8,0,1.2,0.1L32.7,62.5l0,0c-0.5-0.1-1.1-0.2-1.7-0.2
				c-3.6,0-6.4,2.9-6.4,6.6c0,3,2.3,5.5,4.9,6.3l0,0c0.2,0.1,0.3,0.1,0.4,0.1l56.5,13.1l0,0C83.6,87.7,81.5,85.1,81.5,82.1z"/>
			<path class="st6" d="M89.9,75.7L89.9,75.7l-0.2-0.1C89.8,75.7,89.8,75.7,89.9,75.7z"/>
		</g>
	</g>
</g>
</svg>
