<?xml version="1.0" encoding="iso-8859-1"?>
<!-- Generator: Adobe Illustrator 18.1.1, SVG Export Plug-In . SVG Version: 6.00 Build 0)  -->
<!DOCTYPE svg PUBLIC "-//W3C//DTD SVG 1.1//EN" "http://www.w3.org/Graphics/SVG/1.1/DTD/svg11.dtd">
<svg version="1.1" xmlns="http://www.w3.org/2000/svg" xmlns:xlink="http://www.w3.org/1999/xlink" x="0px" y="0px"
	 viewBox="0 0 40 40" style="enable-background:new 0 0 40 40;" xml:space="preserve">
<g id="github">
	<g>
		<path style="fill:#1A2E33;" d="M0,0v40h40V0H0z M23.801,31.682c-0.609,0.118-0.825-0.256-0.825-0.577
			c0-0.394,0.015-1.688,0.015-3.292c0-1.12-0.384-1.852-0.814-2.223c2.673-0.297,5.479-1.311,5.479-5.922
			c0-1.31-0.465-2.381-1.232-3.22c0.123-0.304,0.535-1.523-0.12-3.176c0,0-1.005-0.322-3.297,1.23
			c-0.959-0.267-1.984-0.399-3.004-0.404c-1.021,0.005-2.047,0.138-3.005,0.404c-2.293-1.553-3.3-1.23-3.3-1.23
			c-0.653,1.652-0.241,2.872-0.118,3.176c-0.767,0.839-1.234,1.91-1.234,3.22c0,4.599,2.802,5.629,5.467,5.932
			c-0.344,0.3-0.653,0.828-0.763,1.604c-0.684,0.306-2.422,0.835-3.492-0.998c0,0-0.634-1.152-1.839-1.237
			c0,0-1.172-0.015-0.082,0.729c0,0,0.787,0.369,1.332,1.756c0,0,0.705,2.333,4.043,1.608c0.006,1,0.017,1.755,0.017,2.041
			c0,0.318-0.219,0.688-0.819,0.578C11.437,30.097,8,25.598,8,20.297c0-6.629,5.373-12.001,11.999-12.001
			C26.627,8.296,32,13.668,32,20.297C32,25.598,28.565,30.093,23.801,31.682z"/>
	</g>
</g>
<g id="Layer_1">
</g>
</svg>
