<?xml version="1.0" encoding="utf-8"?>
<!-- Generator: Adobe Illustrator 19.2.0, SVG Export Plug-In . SVG Version: 6.00 Build 0)  -->
<svg version="1.1" id="Layer_1" xmlns="http://www.w3.org/2000/svg" xmlns:xlink="http://www.w3.org/1999/xlink" x="0px" y="0px"
	 viewBox="0 0 207.4 74.7" style="enable-background:new 0 0 207.4 74.7;" xml:space="preserve">
<style type="text/css">
	.st0{fill:#538DA6;}
	.st1{fill:#1A2E33;}
	.st2{fill:#CCF2FF;}
	.st3{fill:#806D60;}
	.st4{fill:none;stroke:#A68E7C;stroke-miterlimit:10;}
</style>
<g>
	<path class="st0" d="M202.9,45.8c3.1-8.9-10.9-21.4-32.9-25.1c-12-2-36.3-8.9-42.2-12.7c-9.1-6-61.1-11-87.1-3.7s-3.5,10.4-21,20.3
		S6,49.4,22,54.3c20.3,6.3,19.2,11.3,37.4,16.1C88.7,78.1,196.1,65.4,202.9,45.8z"/>
	<g>
		<g>
			<path class="st1" d="M112.2,28.6c0,0,24.7,2.7,44.3,0C147.3,34.1,116.9,32.9,112.2,28.6z"/>
			<path class="st2" d="M156.5,28.6c-2.2,1.6-11.3,2.8-22.2,2.8s-20-1.2-22.2-2.8c-0.8,0.9-0.5,2.4-0.5,3.5c0,4.6,6.1,5.9,10,5.9h21
				c1.2,0,7.6-0.2,12.5-4.3C156.1,32.9,157.3,29.5,156.5,28.6z"/>
		</g>
		<path class="st3" d="M130.8,37.6l0.2-1.6c0,0,0,0,0,0l11.6-11.6c0.2-0.2,0.2-0.5,0-0.7l0,0c-0.2-0.2-0.5-0.2-0.7,0l-11.6,11.6
			l-1.6,0.2c-0.1,0-0.3,0.1-0.4,0.2l-4.3,4.3c-0.3,0.3-0.3,0.7,0,0.9l1.3,1.3c0.3,0.3,0.7,0.3,0.9,0l4.3-4.3
			C130.7,37.8,130.8,37.7,130.8,37.6z"/>
	</g>
	<g>
		<rect x="3.5" y="25.8" class="st3" width="38.6" height="16.9"/>
		<line class="st4" x1="35.9" y1="25.8" x2="35.9" y2="42.7"/>
		<line class="st4" x1="29.3" y1="25.9" x2="29.3" y2="42.8"/>
		<line class="st4" x1="22.7" y1="25.8" x2="22.7" y2="42.7"/>
		<line class="st4" x1="16.1" y1="25.9" x2="16.1" y2="42.8"/>
		<line class="st4" x1="9.5" y1="25.9" x2="9.5" y2="42.8"/>
	</g>
</g>
</svg>
