<?xml version="1.0" encoding="utf-8"?>
<!-- Generator: Adobe Illustrator 19.2.1, SVG Export Plug-In . SVG Version: 6.00 Build 0)  -->
<svg version="1.1" id="Layer_1" xmlns="http://www.w3.org/2000/svg" xmlns:xlink="http://www.w3.org/1999/xlink" x="0px" y="0px"
	 viewBox="0 0 1126 316" style="enable-background:new 0 0 1126 316;" xml:space="preserve">
<style type="text/css">
	.st0{fill:none;stroke:#A68E7C;stroke-miterlimit:10;}
	.st1{fill:none;stroke:#A68E7C;stroke-miterlimit:10;stroke-dasharray:11.994,11.994;}
	.st2{fill:none;stroke:#A68E7C;stroke-miterlimit:10;stroke-dasharray:12;}
</style>
<g>
	<g>
		<line class="st0" x1="1100.6" y1="283.4" x2="1094.6" y2="283.4"/>
		<path class="st1" d="M1082.6,283.4H659.3c-5.7,0-10.3-4.6-10.3-10.3V160.7c0-5.7-4.6-10.3-10.3-10.3H469.3
			c-5.7,0-10.3-4.6-10.3-10.3v-21.5c0-5.7-4.6-10.3-10.3-10.3H22.6"/>
		<line class="st0" x1="16.6" y1="108.4" x2="10.6" y2="108.4"/>
	</g>
</g>
<path class="st2" d="M650.1,149.9v-30.2c0-6.8,5.5-12.3,12.3-12.3h123.3c6.8,0,12.3-5.5,12.3-12.3V17.5"/>
<path class="st2" d="M326.1,109.9v88.5c0,9.4-7.6,17-17,17H23.6"/>
</svg>
