<?xml version="1.0" encoding="iso-8859-1"?>
<!-- Generator: Adobe Illustrator 18.1.1, SVG Export Plug-In . SVG Version: 6.00 Build 0)  -->
<!DOCTYPE svg PUBLIC "-//W3C//DTD SVG 1.1//EN" "http://www.w3.org/Graphics/SVG/1.1/DTD/svg11.dtd">
<svg version="1.1" xmlns="http://www.w3.org/2000/svg" xmlns:xlink="http://www.w3.org/1999/xlink" x="0px" y="0px"
	 viewBox="0 0 40 40" style="enable-background:new 0 0 40 40;" xml:space="preserve">
<g id="medium">
	<g>
		<path style="fill:#1A2E33;" d="M0,0v40h40V0H0z M29.783,14.551h-0.776c-0.287,0-0.618,0.375-0.618,0.64v9.617
			c0,0.267,0.332,0.662,0.618,0.662h0.776v2.233h-6.942V25.47h1.393V15.368h-0.067L20.74,27.704h-2.653l-3.382-12.336h-0.067V25.47
			h1.459v2.233h-5.881V25.47h0.752c0.311,0,0.643-0.396,0.643-0.662v-9.617c0-0.265-0.332-0.64-0.643-0.64h-0.752V12.23h7.34
			l2.41,8.975h0.067l2.431-8.975h7.319V14.551z"/>
	</g>
</g>
<g id="Layer_1">
</g>
</svg>
