<?xml version="1.0" encoding="utf-8"?>
<!-- Generator: Adobe Illustrator 19.2.0, SVG Export Plug-In . SVG Version: 6.00 Build 0)  -->
<svg version="1.1" id="Layer_1" xmlns="http://www.w3.org/2000/svg" xmlns:xlink="http://www.w3.org/1999/xlink" x="0px" y="0px"
	 viewBox="0 0 295.3 175.3" style="enable-background:new 0 0 295.3 175.3;" xml:space="preserve">
<style type="text/css">
	.st0{clip-path:url(#SVGID_2_);fill:#7F6C5F;}
	.st1{clip-path:url(#SVGID_2_);fill:#FFFFFF;}
	.st2{fill:#A68E7C;}
</style>
<g>
	<defs>
		<polygon id="SVGID_1_" points="9.9,169.3 81.7,79.4 91.3,75.5 143.8,9.8 220.6,99.9 231.4,103.3 279.9,169.3 		"/>
	</defs>
	<clipPath id="SVGID_2_">
		<use xlink:href="#SVGID_1_"  style="overflow:visible;"/>
	</clipPath>
	<polygon class="st0" points="9.9,169.3 81.7,79.4 91.3,75.5 143.8,9.8 220.6,99.9 231.4,103.3 279.9,169.3 	"/>
	<path class="st1" d="M92,52.8c0,0,21.4,20.1,44.6,6.8c16.7-9.6,26.9,2,35,5.6c6.2,2.7,13.5-0.8,18.3-19.9c4.8-19.1-45.1-47-45.1-47
		L100,9.8L92,52.8z"/>
</g>
<g>
	<rect x="188" y="101.8" class="st2" width="13.2" height="66.8"/>
	<g>
		<polygon class="st2" points="174.5,112.3 194.5,79 214.5,112.3 		"/>
		<polygon class="st2" points="169.9,128.3 194.5,95 219.1,128.3 		"/>
		<polygon class="st2" points="167.1,142.3 194.5,109 221.9,142.3 		"/>
	</g>
</g>
</svg>
