<?xml version="1.0" encoding="utf-8"?>
<!-- Generator: Adobe Illustrator 19.2.0, SVG Export Plug-In . SVG Version: 6.00 Build 0)  -->
<svg version="1.1" id="Layer_1" xmlns="http://www.w3.org/2000/svg" xmlns:xlink="http://www.w3.org/1999/xlink" x="0px" y="0px"
	 viewBox="0 0 344.7 175.3" style="enable-background:new 0 0 344.7 175.3;" xml:space="preserve">
<style type="text/css">
	.st0{clip-path:url(#SVGID_2_);fill:#7F6C5F;}
	.st1{clip-path:url(#SVGID_2_);fill:#FFFFFF;}
	.st2{clip-path:url(#SVGID_4_);fill:#7F6C5F;}
	.st3{clip-path:url(#SVGID_4_);fill:#FFFFFF;}
	.st4{fill:#A68E7C;}
</style>
<g>
	<g>
		<defs>
			<polygon id="SVGID_1_" points="69.5,169.3 141.4,79.4 150.9,75.5 203.5,9.8 280.3,99.9 291,103.3 339.6,169.3 			"/>
		</defs>
		<clipPath id="SVGID_2_">
			<use xlink:href="#SVGID_1_"  style="overflow:visible;"/>
		</clipPath>
		<polygon class="st0" points="69.5,169.3 141.4,79.4 150.9,75.5 203.5,9.8 280.3,99.9 291,103.3 339.6,169.3 		"/>
		<path class="st1" d="M151.7,52.8c0,0,21.4,20.1,44.6,6.8c16.7-9.6,26.9,2,35,5.6c6.2,2.7,13.5-0.8,18.3-19.9
			c4.8-19.1-45.1-47-45.1-47L159.7,9.8L151.7,52.8z"/>
	</g>
	<g>
		<defs>
			<polygon id="SVGID_3_" points="4.1,169.3 62.2,96.6 70,93.3 112.5,40.2 174.6,113.1 183.3,115.9 222.6,169.3 			"/>
		</defs>
		<clipPath id="SVGID_4_">
			<use xlink:href="#SVGID_3_"  style="overflow:visible;"/>
		</clipPath>
		<polygon class="st2" points="4.1,169.3 62.2,96.6 70,93.3 112.5,40.2 174.6,113.1 183.3,115.9 222.6,169.3 		"/>
		<path class="st3" d="M70.5,74.9c0,0,17.3,16.3,36.1,5.5c13.5-7.7,21.8,1.6,28.3,4.5c5,2.2,10.9-0.6,14.8-16.1s-36.5-38-36.5-38
			L77,40.2L70.5,74.9z"/>
	</g>
	<g>
		<rect x="227.7" y="101.8" class="st4" width="13.2" height="66.8"/>
		<g>
			<polygon class="st4" points="214.2,112.3 234.2,79 254.2,112.3 			"/>
			<polygon class="st4" points="209.6,128.3 234.2,95 258.8,128.3 			"/>
			<polygon class="st4" points="206.8,142.3 234.2,109 261.6,142.3 			"/>
		</g>
	</g>
	<g>
		<rect x="138.4" y="129" class="st4" width="7.9" height="39.7"/>
		<g>
			<polygon class="st4" points="130.4,134.3 142.2,114.6 154.1,134.3 			"/>
			<polygon class="st4" points="127.6,144.3 142.2,124.6 156.8,144.3 			"/>
			<polygon class="st4" points="126,153.3 142.2,133.6 158.5,153.3 			"/>
		</g>
	</g>
</g>
</svg>
