<?xml version="1.0" standalone="no"?>
<!DOCTYPE svg PUBLIC "-//W3C//DTD SVG 1.1//EN" "http://www.w3.org/Graphics/SVG/1.1/DTD/svg11.dtd" >
<svg>
<metadata>
Created by FontForge 20110222 at Wed Apr  1 13:54:48 2015
 By deploy user
Copyright (c) 1987, 1990, 1994, 2001 Adobe Systems Incorporated.  All Rights Reserved.
</metadata>
<defs>
<font id="HoboStd" horiz-adv-x="580" >
  <font-face 
    font-family="Hobo Std"
    font-weight="500"
    font-stretch="normal"
    units-per-em="1000"
    panose-1="0 0 6 0 0 0 0 0 0 0"
    ascent="853"
    descent="-147"
    x-height="640"
    cap-height="832"
    bbox="-123 -315 1264 1101"
    underline-thickness="50"
    underline-position="-50"
    unicode-range="U+0020-FB02"
  />
<missing-glyph horiz-adv-x="500" 
d="M0 0v700h500v-700h-500zM250 395l170 255h-340zM280 350l170 -255v510zM80 50h340l-170 255zM50 605v-510l170 255z" />
    <glyph glyph-name="fi" unicode="fi" horiz-adv-x="604" 
d="M505 0h-68q-27 0 -33 5q-16 14 -19 128q-1 58 -1 198q0 129 3 167q0 18 -18.5 28t-41.5 10h-47q-19 0 -31 -10t-16 -30.5t-5 -31.5t-1 -35q0 -58 9.5 -157.5t18.5 -175.5t9 -78q0 -5 -1.5 -9t-2.5 -5.5t-5.5 -2.5t-6 -1h-8h-8.5h-107q-11 0 -13 2q-20 19 -20 297
q0 25 1.5 75t1.5 75q0 3 0.5 16t0.5 20t-2 18.5t-5.5 17t-11 10.5t-18.5 5q-10 0 -22 -6t-17 -6q-9 0 -10.5 6.5t-1.5 24.5q0 53 14 69t46 16q16 0 26.5 12t14.5 26t9.5 38.5t8.5 35.5q14 45 53 73t80 28q195 0 195 -34q0 -18 -15 -66t-29 -48q-6 0 -15 5t-34.5 10t-69.5 5
q-19 0 -33 -22t-14 -42q0 -11 7.5 -21t18.5 -10q22 0 72 5t155 5q33 0 33 -20q0 -6 -6 -60t-6 -118q0 -71 4 -138.5t9.5 -115t11.5 -84t10 -57t4 -21.5q0 -8 -2.5 -13t-5.5 -8t-10 -4l-10.5 -1.5t-12.5 0t-12 0.5z" />
    <glyph glyph-name="fl" unicode="fl" horiz-adv-x="594" 
d="M529 0h-102q-34 0 -34 358q0 87 1.5 151.5t3.5 96t3.5 50t3 27t1.5 13.5q0 11 -4 18t-13.5 9t-16.5 3t-23 0t-22 -1q-82 0 -82 -64q0 -11 7 -18.5t18 -7.5q6 0 19 2.5t19 2.5q26 0 32.5 -14.5t6.5 -46.5q0 -52 -21 -52q-3 0 -19.5 4.5t-26.5 4.5q-19 0 -31 -10t-16 -30.5
t-5 -31.5t-1 -35q0 -58 9.5 -157.5t18.5 -175.5t9 -78q0 -5 -1.5 -9t-2.5 -5.5t-5.5 -2.5t-6 -1h-8h-8.5h-107q-11 0 -13 2q-19 19 -20 297q0 100 3 150q0 3 0.5 16t0.5 20t-2 18.5t-5.5 17t-11 10.5t-18.5 5q-10 0 -22 -6t-17 -6q-9 0 -10.5 6.5t-1.5 24.5q0 53 14 69
t46 16q16 0 26.5 12t14.5 26t9.5 38.5t8.5 35.5q14 47 59.5 74t113.5 27q271 0 269 -34q0 -2 -10 -46.5t-20.5 -136t-10.5 -201.5q0 -77 4 -147.5t9.5 -117.5t11 -82t9.5 -54.5t4 -21.5q0 -5 -2.5 -8t-7.5 -3.5t-9 -1t-10 0t-8 0.5z" />
    <glyph glyph-name=".notdef" horiz-adv-x="500" 
d="M0 0v700h500v-700h-500zM250 395l170 255h-340zM280 350l170 -255v510zM80 50h340l-170 255zM50 605v-510l170 255z" />
    <glyph glyph-name=".null" horiz-adv-x="0" 
 />
    <glyph glyph-name="nonmarkingreturn" horiz-adv-x="333" 
 />
    <glyph glyph-name="space" unicode=" " horiz-adv-x="290" 
 />
    <glyph glyph-name="exclam" unicode="!" horiz-adv-x="325" 
d="M161 -15q-46 0 -78.5 32.5t-32.5 78.5q0 45 32.5 77t77.5 32q47 0 80.5 -32t33.5 -78t-33 -78t-80 -32zM106 832h133q35 0 35 -19q0 -3 -20 -48t-39.5 -114t-19.5 -131q0 -60 8 -150l8 -90q0 -14 -70 -14q-31 0 -61 161t-30 259q0 27 0.5 48t2 36.5t2.5 26t5 17.5t6 11
t8 5.5t8.5 2t11 0t12.5 -0.5z" />
    <glyph glyph-name="quotedbl" unicode="&#x22;" horiz-adv-x="333" 
d="M74 847q49 0 49 -59q0 -12 -20 -226q-2 -12 -10 -21.5t-19 -9.5t-19 9.5t-10 21.5q-20 214 -20 226q0 59 49 59zM259 847q49 0 49 -59q0 -12 -20 -226q-2 -12 -10 -21.5t-19 -9.5t-19 9.5t-10 21.5q-20 214 -20 226q0 59 49 59z" />
    <glyph glyph-name="numbersign" unicode="#" horiz-adv-x="618" 
d="M191 0h-97l37 235h-100v103h115l25 140h-106v103h119l37 230h96l-37 -230h110l36 230h98l-36 -230h99v-103h-114l-25 -140h104v-103h-117l-39 -235h-95l36 235h-109zM242 338h110l24 140h-110z" />
    <glyph glyph-name="dollar" unicode="$" 
d="M315 297v-91q0 -15 1 -21.5t7.5 -12t20.5 -5.5q35 0 57.5 23t22.5 56q0 28 -32 59t-57 31q-14 0 -17 -8.5t-3 -25.5v-5zM243 590v56v11.5v11v9t-1.5 7.5t-3.5 5t-6 4t-9 1q-32 0 -49.5 -25.5t-17.5 -59.5q0 -31 26 -58.5t43 -27.5q18 0 18 66zM243 215v93q0 31 -1.5 41
t-11.5 20t-36 19q-173 63 -173 213q0 82 51 143t138 77q16 3 23 9.5t8 24.5q1 20 48 20h4q12 0 15 -4.5t3 -15.5v-4q0 -8 3.5 -13t11 -7.5t14.5 -3.5t18.5 -2t17.5 -2q120 -23 120 -44q0 -10 -22.5 -67.5t-31.5 -57.5q-8 0 -40.5 20.5t-65.5 20.5q-5 0 -9 -2t-6 -5.5
t-3.5 -7t-2 -9.5t-0.5 -9v-9.5v-7.5v-87q0 -38 8.5 -52.5t42.5 -27.5q193 -68 193 -240q0 -105 -60 -171.5t-149 -66.5q-31 0 -31 -40q0 -6 -1.5 -10t-3 -6t-6 -3t-7 -1h-9.5h-10t-10.5 -0.5t-10 0t-7 2t-6 5.5t-1.5 10q-1 24 -13 33.5t-38 9.5q-40 0 -100.5 26.5
t-60.5 41.5q0 22 20 90t32 68t27 -9t27 -20.5t32.5 -20.5t42.5 -9q5 0 9 1t6.5 3t4.5 4t3.5 6t2 6t1 7t0.5 6.5v7.5v7z" />
    <glyph glyph-name="percent" unicode="%" horiz-adv-x="794" 
d="M594 103q27 0 43 37t16 77q0 36 -16 63.5t-43 27.5t-43 -37t-16 -78q0 -36 16 -63t43 -27zM607 753l-306 -694q0 -1 -4 -10t-5.5 -12t-6.5 -11.5t-8.5 -12.5t-10 -10.5t-13 -9.5t-15 -5.5t-18.5 -2.5q-21 0 -21 16q0 19 32 99l239 623q33 86 52.5 105t70.5 19
q15 0 28 -6.5t13 -20.5q0 -5 -27 -67zM594 -15q-73 0 -113.5 61t-40.5 137q0 75 41 136t113 61q49 0 85.5 -31t52.5 -75t16 -91q0 -76 -41 -137t-113 -61zM200 431q-73 0 -113.5 61t-40.5 137q0 75 41 136t113 61q49 0 85.5 -31t52.5 -75t16 -91q0 -76 -41 -137t-113 -61z
M200 549q27 0 43 37t16 77q0 36 -16 63.5t-43 27.5t-43 -37t-16 -78q0 -36 16 -63t43 -27z" />
    <glyph glyph-name="ampersand" unicode="&#x26;" horiz-adv-x="958" 
d="M295 328q-26 0 -54.5 -39t-28.5 -75t28.5 -59.5t62.5 -23.5q30 0 64.5 16.5t34.5 36.5q0 14 -45 79t-62 65zM379 562q20 0 49.5 37t29.5 65q0 65 -69 65q-33 0 -53 -18t-20 -50q0 -26 20 -62.5t43 -36.5zM267 -15q-104 0 -160.5 53.5t-56.5 140.5q0 52 17.5 96.5t42 72.5
t49.5 49.5t42.5 38.5t17.5 28t-16.5 38.5t-32.5 66t-16 78.5q0 22 5 45t21.5 52t42.5 51t72.5 37t107.5 15q54 0 95 -18t63 -45.5t32.5 -54.5t10.5 -51q0 -41 -16 -77t-39 -59.5t-45.5 -43.5t-38.5 -38t-16 -33q0 -22 26.5 -61t47.5 -43q8 0 22.5 15.5t36 38t50 45t74 38
t97.5 15.5q44 0 74.5 -25.5t30.5 -67.5q0 -19 -13 -41.5t-29 -22.5q-8 0 -32 14.5t-45 14.5q-36 0 -78 -31.5t-66.5 -65t-24.5 -46.5q0 -15 28.5 -28t51.5 -13q30 0 56 11t40.5 22t17.5 11q6 0 6 -17q0 -85 -46 -145t-123 -60q-31 0 -58 11.5t-42 24.5t-31.5 24.5
t-28.5 11.5q-14 0 -34.5 -11.5t-41 -24.5t-60 -24.5t-88.5 -11.5z" />
    <glyph glyph-name="quotesingle" unicode="'" horiz-adv-x="222" 
d="M111 847q49 0 49 -59q0 -12 -20 -226q-2 -12 -10 -21.5t-19 -9.5t-19 9.5t-10 21.5q-20 214 -20 226q0 59 49 59z" />
    <glyph glyph-name="parenleft" unicode="(" horiz-adv-x="461" 
d="M75 440q0 407 223 407q24 0 42.5 -17.5t27.5 -42t13.5 -42.5t4.5 -26q0 -7 -28 -7q-44 0 -75 -16t-48.5 -40.5t-27 -67.5t-12 -82.5t-2.5 -99.5q0 -72 6 -137.5t14.5 -107.5t17.5 -73t15 -48t6 -19q0 -11 -27.5 -23.5t-45.5 -12.5t-42.5 68.5t-43 178t-18.5 208.5z" />
    <glyph glyph-name="parenright" unicode=")" horiz-adv-x="461" 
d="M386 392q0 -407 -223 -407q-24 0 -42.5 17.5t-27.5 42t-13.5 42.5t-4.5 26q0 7 28 7q44 0 75 16t48.5 40.5t27 67.5t12 82.5t2.5 99.5q0 72 -6 137.5t-15 107.5t-17.5 73t-14.5 48t-6 19q0 11 27.5 23.5t45.5 12.5t42.5 -68.5t43 -178t18.5 -208.5z" />
    <glyph glyph-name="asterisk" unicode="*" horiz-adv-x="647" 
d="M374 720q26 16 60 29t44 13q9 0 25 -43t16 -54t-22.5 -17t-74.5 -14q-19 -2 -29 -4q76 -79 79 -84q1 -3 1 -5q0 -8 -41 -35t-49 -27q-3 0 -5.5 1t-5 4.5t-5 7.5t-7 12t-9 16.5t-12 22.5t-15.5 28q-10 -18 -20 -36.5t-14.5 -27t-9.5 -16t-8.5 -10t-8.5 -2.5
q-10 0 -49.5 26t-39.5 35q0 7 35 43q26 27 45 47q-109 16 -121 24q-5 4 -5 8q0 14 14.5 57t25.5 43q7 0 105 -42l-10 105q0 7 0.5 12t3.5 8t4 4.5t6 2.5t6 1h7.5h7.5h51h7.5h8t6.5 -0.5t5.5 -1.5t3.5 -3.5t3 -6t1 -8.5z" />
    <glyph glyph-name="plus" unicode="+" 
d="M529 282h-192v-245h-93v245h-194v94h194v232h93v-232h192v-94z" />
    <glyph glyph-name="comma" unicode="," horiz-adv-x="290" 
d="M45 126l83 67q26 19 38 19q40 0 69.5 -36t29.5 -77q0 -53 -34 -92.5t-73.5 -55t-72.5 -15.5q-8 0 -8 5q0 1 6.5 11.5t13 28.5t6.5 36q0 29 -12 48t-27 25t-27 10t-12 7q0 6 20 19z" />
    <glyph glyph-name="hyphen" unicode="-" horiz-adv-x="250" 
d="M194 251h-148q-1 0 -10.5 -0.5t-13 0t-10 2t-9.5 5.5t-3 11q0 20 15.5 65t40.5 45h148q1 0 10.5 0.5t13 0t10 -2t9.5 -5.5t3 -11q0 -20 -15.5 -65t-40.5 -45z" />
    <glyph glyph-name="period" unicode="." horiz-adv-x="290" 
d="M144 -15q-46 0 -78.5 32.5t-32.5 78.5q0 45 32.5 77t77.5 32q47 0 80.5 -32t33.5 -78t-33 -78t-80 -32z" />
    <glyph glyph-name="slash" unicode="/" horiz-adv-x="527" 
d="M454 753l-306 -694q0 -1 -4 -10t-5.5 -12t-6.5 -11.5t-8.5 -12.5t-10 -10.5t-13 -9.5t-15 -5.5t-18.5 -2.5q-21 0 -21 16q0 19 32 99l239 623q33 86 52.5 105t70.5 19q15 0 28 -6.5t13 -20.5q0 -5 -27 -67z" />
    <glyph glyph-name="zero" unicode="0" 
d="M290 -15q-108 0 -182.5 108t-74.5 312t74.5 312.5t182.5 108.5t182.5 -108.5t74.5 -312.5t-74.5 -312t-182.5 -108zM290 163q46 0 78.5 61.5t32.5 196.5q0 84 -10 141t-27.5 83.5t-34.5 36t-39 9.5t-39 -9.5t-34.5 -36t-27.5 -83.5t-10 -141q0 -135 32.5 -196.5
t78.5 -61.5z" />
    <glyph glyph-name="one" unicode="1" 
d="M211 226q0 80 5.5 208.5t5.5 181.5q0 29 -13 49t-28 28t-28 17.5t-13 20.5q0 23 57 59t127 36q20 0 40.5 -10.5t20.5 -29.5q0 -4 -7 -47t-14 -113t-7 -141q0 -63 16.5 -222t16.5 -251q0 -12 -51.5 -19.5t-98.5 -7.5q-12 0 -16.5 7.5t-8.5 61.5t-4 172z" />
    <glyph glyph-name="two" unicode="2" 
d="M213 183q0 -23 20 -23q4 0 21.5 6t36.5 6q30 0 70.5 -10t50.5 -10q29 0 49.5 24t20.5 60q0 4 -0.5 8t-1.5 7t-1.5 6.5t-1.5 6.5t-2 5.5t-1 4.5v3.5t1 2.5t3 1q5 0 18 -16t25.5 -47t12.5 -63q0 -71 -47.5 -120.5t-98.5 -49.5q-25 0 -88 13.5t-85 13.5q-28 0 -74.5 -13.5
t-55.5 -13.5q-39 0 -39 54q0 71 18.5 131t48.5 102t66 78t72 64.5t66 54.5t48.5 55.5t18.5 60.5q0 46 -21.5 76t-64.5 30q-36 0 -67 -24.5t-47.5 -54t-30.5 -54t-19 -24.5q-7 0 -39 56t-32 65q0 48 68 109.5t164 61.5q105 0 170 -57t65 -158q0 -58 -23.5 -110t-58.5 -87.5
t-76.5 -69.5t-76.5 -58t-58.5 -51t-23.5 -52z" />
    <glyph glyph-name="three" unicode="3" 
d="M130 811h330q3 0 13 0.5t14 0t11.5 -1.5t11 -4t6.5 -9t3 -15q0 -56 -23.5 -109t-52 -84t-52 -55.5t-23.5 -30.5t17 -15t41.5 -23t49 -36t41.5 -63.5t17 -95.5q0 -121 -72 -203t-190 -82q-41 0 -79 10.5t-63.5 25.5t-45.5 31.5t-29 28.5t-9 17q0 7 48.5 71.5t55.5 64.5
q6 0 18 -11t25 -24.5t37.5 -24.5t53.5 -11q42 0 73 36t31 79q0 66 -54.5 99t-143.5 33q-35 0 -35 21t95 121t95 114q0 17 -48 17q-47 0 -113 -18t-68 -18q-10 0 -23 60t-13 82q0 6 2.5 10.5t6 7t10 3.5t10 1h11.5h10z" />
    <glyph glyph-name="four" unicode="4" 
d="M431 10q0 -11 -43.5 -18t-82.5 -7q-18 0 -24.5 8t-5.5 30q0 29 8.5 88.5t8.5 94.5q0 25 -36 25q-41 0 -109.5 -16.5t-75.5 -16.5q-31 0 -40.5 26t-9.5 70q0 65 38 158.5t87.5 170.5t98.5 132.5t71 55.5h110q35 0 35 -19q0 -4 -44.5 -50.5t-98 -105t-98 -136t-44.5 -136.5
q0 -9 4.5 -12t17.5 -3q27 0 66.5 16t46.5 45q18 80 51 139t60.5 82.5t46.5 23.5q10 0 10 -10q0 -1 -8 -27t-16 -68.5t-8 -84.5q0 -57 14 -70.5t64 -13.5q25 0 28 -2q10 -8 10 -85v-26q0 -39 -13 -39q-9 0 -35 5t-39 5q-28 0 -38.5 -18t-10.5 -82q0 -21 2 -60.5t2 -68.5z" />
    <glyph glyph-name="five" unicode="5" 
d="M142 811h337q20 0 20 -12q0 -22 -8.5 -76.5t-20.5 -54.5q-4 0 -54 7.5t-106 7.5q-42 0 -65 -9q-13 -6 -28.5 -48t-15.5 -80q0 -39 21 -39q2 0 12 4.5t32 8.5t52 4q101 0 158 -73t57 -177q0 -136 -78 -212.5t-204 -76.5q-61 0 -110.5 20t-71.5 41.5t-22 34.5
q0 10 33.5 82.5t44.5 72.5q9 0 20.5 -11.5t23 -25t38 -25t62.5 -11.5q53 0 85.5 31t32.5 82q0 56 -34 93t-89 37q-41 0 -83 -24.5t-50 -24.5q-59 0 -59 72q0 127 20.5 254.5t49.5 127.5z" />
    <glyph glyph-name="six" unicode="6" 
d="M294 152q54 0 86 38t32 92q0 51 -28.5 87t-79.5 36q-53 0 -89 -35t-36 -86q0 -50 33.5 -91t81.5 -41zM384 826q31 0 76 -10.5t45 -33.5q0 -10 -23.5 -67.5t-33.5 -57.5q-5 0 -32.5 17t-59.5 17q-62 0 -116 -62t-54 -118q0 -7 5 -14.5t12 -7.5q5 0 26 11t53.5 22t64.5 11
q91 0 145.5 -79t54.5 -174q0 -75 -24.5 -134t-63 -93t-81.5 -51t-85 -17q-115 0 -187.5 96t-72.5 286q0 214 95.5 336.5t255.5 122.5z" />
    <glyph glyph-name="seven" unicode="7" 
d="M103 811h391q20 0 23 -11t3 -75q0 -27 -3.5 -36t-20.5 -37q-113 -182 -149.5 -264t-36.5 -165q0 -52 24 -86t74 -34q9 0 18.5 3.5t12.5 3.5q6 0 6 -8q0 -33 -42.5 -75t-110.5 -42q-71 0 -115.5 54t-44.5 127q0 84 38 173.5t83 148.5t83 109t38 66q0 5 -2 8.5t-6.5 6
t-8.5 3.5t-10.5 1.5t-10 0.5h-10.5h-9h-84q-40 0 -68 -12t-38.5 -26.5t-19.5 -26.5t-16 -12q-12 0 -15 30l-16 157q0 5 1.5 8t5 5t6.5 3.5t8 1.5h8h8h6z" />
    <glyph glyph-name="eight" unicode="8" 
d="M285 -15q-107 0 -183.5 52.5t-76.5 149.5q0 50 18.5 91.5t40 63.5t40 42t18.5 32q0 14 -13 32.5t-28 36t-28 51t-13 74.5q0 103 66 159.5t169 56.5t161 -58.5t58 -133.5q0 -37 -14.5 -69.5t-32.5 -50t-32.5 -34.5t-14.5 -28t14 -24.5t33.5 -30.5t39.5 -38.5t34 -55.5
t14 -74q0 -119 -74.5 -181.5t-195.5 -62.5zM284 152q46 0 77.5 21.5t31.5 57.5q0 45 -35 82.5t-70 37.5q-42 0 -71.5 -38t-29.5 -81q0 -36 26 -58t71 -22zM284 708q-36 0 -62.5 -25.5t-26.5 -61.5q0 -46 34 -82.5t59 -36.5q28 0 59.5 37t31.5 80q0 38 -28 63.5t-67 25.5z
" />
    <glyph glyph-name="nine" unicode="9" 
d="M286 691q-54 0 -86 -38t-32 -92q0 -51 28.5 -87t79.5 -36q53 0 89 35t36 86q0 50 -33.5 91t-81.5 41zM196 -15q-31 0 -76 10.5t-45 33.5q0 11 23.5 84t33.5 73q5 0 32.5 -17t59.5 -17q62 0 116 62t54 118q0 7 -5 14.5t-12 7.5q-5 0 -26 -11t-53.5 -22t-64.5 -11
q-93 0 -146.5 64.5t-53.5 156.5q0 75 24.5 134t63 93t81.5 51t85 17q115 0 187.5 -96t72.5 -286q0 -214 -95.5 -336.5t-255.5 -122.5z" />
    <glyph glyph-name="colon" unicode=":" horiz-adv-x="290" 
d="M144 -15q-46 0 -78.5 32.5t-32.5 78.5q0 45 32.5 77t77.5 32q47 0 80.5 -32t33.5 -78t-33 -78t-80 -32zM144 435q-46 0 -78.5 32.5t-32.5 78.5q0 45 32.5 77t77.5 32q47 0 80.5 -32t33.5 -78t-33 -78t-80 -32z" />
    <glyph glyph-name="semicolon" unicode=";" horiz-adv-x="290" 
d="M45 126l83 67q26 19 38 19q40 0 69.5 -36t29.5 -77q0 -53 -34 -92.5t-73.5 -55t-72.5 -15.5q-8 0 -8 5q0 1 6.5 11.5t13 28.5t6.5 36q0 29 -12 48t-27 25t-27 10t-12 7q0 6 20 19zM144 435q-46 0 -78.5 32.5t-32.5 78.5q0 45 32.5 77t77.5 32q47 0 80.5 -32t33.5 -78
t-33 -78t-80 -32z" />
    <glyph glyph-name="less" unicode="&#x3c;" 
d="M528 23l-475 258v98l474 257v-106l-389 -198v-2l390 -199v-108z" />
    <glyph glyph-name="equal" unicode="=" 
d="M529 404h-478v93h478v-93zM529 161h-478v94h478v-94z" />
    <glyph glyph-name="greater" unicode="&#x3e;" 
d="M53 636l475 -257v-98l-474 -258v108l389 198v3l-390 198v106z" />
    <glyph glyph-name="question" unicode="?" horiz-adv-x="480" 
d="M132 305v72q0 41 15.5 70.5t38 48t45 35.5t38 42.5t15.5 59.5t-18 60t-51 26q-25 0 -43 -15.5t-28 -31t-16 -15.5q-8 0 -43 40t-35 49q0 28 52.5 64.5t115.5 36.5q92 0 152 -70.5t60 -164.5q0 -50 -20.5 -92.5t-49.5 -70t-58 -50t-49.5 -44.5t-20.5 -43q0 -9 -0.5 -14.5
t-1 -10t-3.5 -7t-4.5 -4t-7.5 -2t-9 -0.5h-12.5h-14.5h-12.5h-11.5t-8.5 0.5t-7 2.5t-4 5.5t-3 9t-0.5 13.5zM184 -15q-46 0 -78.5 32.5t-32.5 78.5q0 45 32.5 77t77.5 32q47 0 80.5 -32t33.5 -78t-33 -78t-80 -32z" />
    <glyph glyph-name="at" unicode="@" horiz-adv-x="873" 
d="M591 -39l25 -69q-91 -52 -211 -52q-160 0 -259.5 110.5t-99.5 285.5q0 124 50.5 228.5t151 170.5t230.5 66q169 0 262 -104t93 -256q0 -135 -62 -213t-154 -78q-46 0 -72 29t-30 82h-3q-23 -48 -64 -79.5t-90 -31.5q-55 0 -90 45.5t-35 117.5q0 125 74.5 207.5
t190.5 82.5q85 0 141 -33l-36 -208q-22 -124 34 -126q40 0 75.5 51.5t35.5 153.5q0 127 -74.5 207.5t-209.5 80.5q-57 0 -114.5 -27.5t-105.5 -76t-78.5 -123t-30.5 -160.5q0 -149 82.5 -238.5t202.5 -89.5q95 0 171 47zM496 298l22 111q-16 8 -43 8q-44 0 -79.5 -49
t-35.5 -119q0 -74 51 -74q27 0 51 36.5t34 86.5z" />
    <glyph glyph-name="A" unicode="A" horiz-adv-x="698" 
d="M592 0h-112q-38 0 -38 12q0 9 19 46.5t38.5 91.5t19.5 104q0 32 -25.5 47t-62.5 15q-236 0 -236 -130q0 -35 16.5 -76t32.5 -70t16 -33q0 -7 -19 -7h-143q-65 0 -65 220q0 121 31.5 229t76 178t94.5 122t86.5 75t52.5 23q13 0 43 -17.5t73.5 -63.5t82 -111t65.5 -174.5
t27 -240.5q0 -39 -1.5 -71.5t-3 -56t-5.5 -42t-7 -30.5t-8.5 -20t-9 -12.5t-10 -6.5t-9.5 -2t-10 0.5t-9 0.5zM378 676q-40 0 -100.5 -88.5t-60.5 -143.5q0 -19 19 -19l75 13q75 13 128 13q28 0 39.5 6.5t11.5 26.5q0 47 -42 119.5t-70 72.5z" />
    <glyph glyph-name="B" unicode="B" horiz-adv-x="662" 
d="M406 0h-301h-3q-10 0 -15.5 2t-13.5 20t-12 53.5t-7.5 106.5t-3.5 174q0 217 14.5 332.5t26 129.5t26.5 14h2h259q204 0 204 -146q0 -37 -18 -73.5t-39 -59t-39 -42.5t-18 -30q0 -9 16.5 -26.5t40 -41.5t47.5 -54t40.5 -74t16.5 -92q0 -82 -54.5 -137.5t-168.5 -55.5z
M310 388l-65 -35q-31 -17 -37 -28q-6 -10 -6 -26q0 -74 14 -112t37.5 -48.5t68.5 -10.5q61 0 103 26t42 80q0 33 -23 74.5t-50.5 69t-41.5 27.5q-11 0 -42 -17zM276 491l73 52q26 18 48.5 50.5t22.5 60.5q0 60 -80 60q-77 0 -110.5 -43t-33.5 -156q0 -35 11 -42q5 -4 15 -4
q22 0 54 22z" />
    <glyph glyph-name="C" unicode="C" horiz-adv-x="645" 
d="M358 -15q-66 0 -121.5 23t-94 62.5t-65.5 92t-39.5 110.5t-12.5 120q0 83 23.5 162.5t67.5 145.5t115 106t159 40q35 0 71.5 -8t71 -24t56.5 -45.5t22 -67.5q0 -43 -27.5 -67t-75.5 -24q-13 0 -17.5 14.5t-6.5 32.5t-24 32.5t-65 14.5q-69 0 -118 -43.5t-69.5 -103.5
t-20.5 -127q0 -68 21.5 -122t55 -84.5t69.5 -46t71 -15.5q46 0 81 15t53 36.5t29 43t16 36.5t7 15q9 0 15.5 -37t6.5 -53q0 -108 -72.5 -171t-181.5 -63z" />
    <glyph glyph-name="D" unicode="D" horiz-adv-x="670" 
d="M364 0h-259h-3q-10 0 -15.5 2t-13.5 20t-12 53.5t-7.5 106.5t-3.5 174q0 217 14.5 332.5t26 129.5t26.5 14h2h170q40 0 85.5 -17t94.5 -56.5t87.5 -97t63.5 -147t25 -196.5q0 -91 -27 -160t-92 -113.5t-162 -44.5zM206 522v-143q0 -65 7.5 -112.5t19 -73.5t28.5 -41
t32.5 -19.5t34.5 -4.5q23 0 47.5 11.5t50 36t41.5 72t16 111.5q0 87 -20.5 158.5t-51.5 112.5t-63 62.5t-58 21.5q-25 0 -42.5 -20.5t-26 -52.5t-12 -61.5t-3.5 -57.5z" />
    <glyph glyph-name="E" unicode="E" horiz-adv-x="597" 
d="M551 0h-459q-29 -1 -35 19.5t-6 100.5q0 69 -1 116q0 111 32 353.5t52 242.5h394q48 0 48 -17q0 -8 -34 -78t-43 -70q-5 0 -21.5 11.5t-48.5 23.5t-75 12q-58 0 -100 -35t-42 -102q0 -57 32 -57q10 0 74 23.5t113 23.5q14 0 29.5 -5t15.5 -16q0 -5 -30 -84.5t-38 -79.5
q-1 0 -32.5 10t-54.5 10q-46 0 -85.5 -34.5t-39.5 -101.5q0 -62 32.5 -100t93.5 -38q43 0 83.5 16.5t66.5 33t34 16.5q10 0 46 -84t36 -95q0 -5 -2.5 -8.5t-7.5 -5t-8 -2t-11 0.5h-8z" />
    <glyph glyph-name="F" unicode="F" horiz-adv-x="548" 
d="M119 832h409q48 0 48 -17q0 -8 -34 -78t-43 -70q-5 0 -21.5 11.5t-48.5 23.5t-75 12q-58 0 -100 -35t-42 -102q0 -48 5.5 -63.5t26.5 -15.5q25 0 49 11.5t60.5 23t93.5 11.5q34 0 34 -17q0 -10 -22.5 -85.5t-33.5 -75.5q-1 0 -27 7t-49 7q-65 0 -98.5 -35t-33.5 -98
q0 -38 10 -95t19.5 -98.5t9.5 -44.5q1 -9 -33 -9h-118h-3q-10 0 -15.5 2t-13.5 20t-12 53.5t-7.5 106.5t-3.5 174q0 217 14.5 332.5t26 129.5t26.5 14h2z" />
    <glyph glyph-name="G" unicode="G" horiz-adv-x="659" 
d="M372 -15q-169 0 -258 105t-89 278q0 122 41.5 229t128 178.5t200.5 71.5q35 0 71.5 -8t71 -24t56.5 -45.5t22 -67.5q0 -43 -27.5 -67t-75.5 -24q-13 0 -17.5 14.5t-6.5 32.5t-24 32.5t-65 14.5q-56 0 -99.5 -29.5t-67 -78t-35 -101.5t-11.5 -109q0 -224 162 -224
q53 0 91 23.5t38 72.5q0 28 -12.5 48.5t-27 29.5t-27 18.5t-12.5 17.5q0 9 86 42t98 33q13 0 28 -118t15 -156q0 -62 -38.5 -106.5t-94.5 -63.5t-121 -19z" />
    <glyph glyph-name="H" unicode="H" horiz-adv-x="711" 
d="M629 0h-144q-37 0 -37 15q0 8 3 14q64 168 64 285q0 50 -21.5 70.5t-72.5 20.5q-85 0 -147 -41.5t-62 -122.5q0 -119 41 -216q4 -8 4 -15q0 -4 -2.5 -6.5t-7 -3t-8 -1t-8.5 0t-6 0.5h-147q-28 0 -28 331q0 109 18.5 305t49.5 196h136q30 0 30 -9q0 -3 -17 -47.5t-34 -107
t-17 -109.5q0 -20 6.5 -34.5t17.5 -14.5q10 0 24 7.5t48.5 15t94.5 7.5q9 0 23.5 -0.5t21.5 -0.5t17 1t14.5 4.5t8 10t3.5 16.5q0 42 -22 101.5t-44 103t-22 46.5q0 10 36 10h131q28 0 57.5 -170t29.5 -331q0 -331 -32 -331z" />
    <glyph glyph-name="I" unicode="I" horiz-adv-x="327" 
d="M239 0h-122h-3q-10 0 -15.5 2t-13.5 20t-12 53.5t-7.5 106.5t-3.5 174q0 217 14.5 332.5t26 129.5t26.5 14h2h108h6h7.5t7 -0.5t7 -1.5t5 -2.5t4 -4.5t1.5 -7q0 -2 -5.5 -23t-13.5 -56.5t-15.5 -79t-13 -100.5t-5.5 -111q0 -72 5 -141.5t12.5 -119t15 -88t12.5 -61
t5 -25.5q0 -11 -15 -11h-20z" />
    <glyph glyph-name="J" unicode="J" horiz-adv-x="400" 
d="M167 832h131q14 0 19 -7q33 -46 33 -504q0 -63 -7.5 -114.5t-19.5 -85t-28 -60t-33 -39.5t-34.5 -23t-32.5 -11t-26.5 -3.5t-16.5 0.5h-3q-54 0 -101.5 29.5t-47.5 51.5q0 36 23.5 96.5t39.5 60.5q6 0 26.5 -35.5t37.5 -35.5q2 0 11 -0.5t11.5 0t9.5 4.5t10 12.5t7.5 25
t6.5 40.5t3.5 60t1.5 83q0 77 -5.5 149.5t-13 122t-14.5 87.5t-12.5 59.5t-5.5 23.5q0 5 1.5 8t5.5 4t7 1.5t9 0t7 -0.5z" />
    <glyph glyph-name="K" unicode="K" horiz-adv-x="652" 
d="M469 832h96q1 0 7 0.5t9 0t7.5 -1.5t6.5 -3.5t2 -7.5q0 -51 -26.5 -110.5t-58.5 -101t-58.5 -75t-26.5 -38.5t20 -29t48 -64t56 -93t48 -129.5t20 -158.5q0 -8 -2 -12.5t-7.5 -6.5t-8.5 -2.5t-12.5 0t-12.5 0.5h-122q-5 0 -8.5 1.5t-5.5 3t-4 5t-2.5 6t-1 7t-0.5 6.5v7v4
q-1 64 -11.5 121.5t-24.5 95t-29.5 65t-27 40t-17.5 12.5q-22 0 -66 -46t-44 -85q0 -24 17 -125l17 -101q0 -17 -19 -17h-122h-3q-10 0 -15.5 2t-13.5 20t-12 53.5t-7.5 106.5t-3.5 174q0 217 14.5 332.5t26 129.5t26.5 14h2h101h5.5h7t6.5 -0.5t6 -1.5t4.5 -2.5t3.5 -4.5
t1 -7l-2 -6q-1 -5 -4 -14.5t-6.5 -22.5t-7.5 -30t-8.5 -36t-8 -41t-6.5 -44t-4.5 -46.5t-1.5 -47.5q0 -63 17 -63q12 0 54 48t92 131.5t72 160.5q1 2 2 6t1.5 5t1.5 4t1.5 3.5t2 2.5t2.5 2.5l3 1.5t4 1t4.5 0.5t6.5 0.5z" />
    <glyph glyph-name="L" unicode="L" horiz-adv-x="551" 
d="M499 0h-407q-29 -1 -35 19.5t-6 100.5q0 69 -1 116q0 111 32 353.5t52 242.5h159q19 0 19 -20q0 -5 -12 -34.5t-29 -77t-34 -107t-29 -138.5t-12 -156q0 -94 33 -132.5t82 -38.5q40 0 77.5 21t62 42.5t33.5 21.5q12 0 35 -92.5t23 -105.5q0 -6 -3 -9.5t-9 -4.5
t-10.5 -1.5t-12 0t-8.5 0.5z" />
    <glyph glyph-name="M" unicode="M" horiz-adv-x="867" 
d="M212 0h-107h-3q-10 0 -15.5 2t-13.5 20t-12 53.5t-7.5 106.5t-3.5 174q0 217 14.5 332.5t26 129.5t26.5 14h2h92q33 0 50.5 -10t51.5 -57q40 -55 66.5 -107.5t36 -73.5t17.5 -21q5 0 14 21.5t38 73t75 107.5q39 47 58 57t52 10h78q18 0 27 -17q42 -72 42 -459
q0 -103 -3.5 -174t-7.5 -106.5t-12.5 -53.5t-13.5 -20t-15 -2h-3h-128h-4.5h-6h-6t-6 0.5t-5 1.5t-4.5 3t-3 4.5t-1 5.5t6 27t14 65t16.5 93t14.5 124.5t6 145.5q0 144 -30 144q-26 0 -77 -123q-22 -55 -37.5 -109t-21 -85.5t-12 -57.5t-17 -36.5t-29.5 -10.5
q-24 0 -37.5 10.5t-22.5 36.5t-16 57t-24 86t-40 109q-2 4 -8.5 21t-13 32.5t-15.5 32.5t-18.5 27t-18.5 10q-32 0 -32 -144q0 -73 6.5 -145.5t15.5 -124.5t18.5 -93t16 -65t6.5 -27q0 -4 -1 -6.5t-4 -4t-5.5 -2.5t-6.5 -1.5t-6.5 -0.5h-7h-5.5z" />
    <glyph glyph-name="N" unicode="N" horiz-adv-x="709" 
d="M604 0h-105q-20 0 -28 8t-14.5 35t-15 64t-36 111t-69.5 160q-23 48 -68 121.5t-65 73.5q-7 0 -11.5 -10.5t-6 -29.5t-1.5 -34t0.5 -34.5t0.5 -20.5q0 -124 10.5 -220.5t20.5 -148t10 -66.5q0 -4 -2 -6t-5.5 -2.5t-6.5 -1t-7.5 0t-6.5 0.5h-93h-3q-10 0 -15.5 2t-13.5 20
t-12 53.5t-7.5 106.5t-3.5 174q0 217 14.5 332.5t26 129.5t26.5 14h2h79q71 0 301 -426q11 -18 17 -18q8 0 8 57q0 82 -13 170.5t-25.5 144.5t-12.5 61q0 3 1 5t3.5 3.5t5.5 2t7 0.5h7.5h8.5h8h76h2q18 0 29 -14.5t24.5 -129t13.5 -332.5q0 -103 -3.5 -174t-7.5 -106.5
t-12.5 -53.5t-13.5 -20t-15 -2h-3z" />
    <glyph glyph-name="O" unicode="O" horiz-adv-x="712" 
d="M406 -15h-100q-97 0 -162 44.5t-92 113.5t-27 160q0 129 43 254t120.5 207.5t167.5 82.5t167.5 -82.5t120.5 -207.5t43 -254q0 -91 -27 -160t-92 -113.5t-162 -44.5zM356 163q169 0 169 162q0 154 -56 257t-113 103t-113 -103t-56 -257q0 -162 169 -162z" />
    <glyph glyph-name="P" unicode="P" horiz-adv-x="624" 
d="M243 427q43 0 131 72.5t88 122.5q0 48 -34.5 70t-85.5 22q-26 0 -42 -3t-35 -16t-29 -37.5t-17 -71t-7 -113.5q0 -22 5.5 -34t25.5 -12zM119 832h307q58 0 99.5 -19t61.5 -48.5t28.5 -57t8.5 -53.5q0 -74 -40.5 -134.5t-98 -98.5t-114.5 -69.5t-97.5 -64t-40.5 -66.5
q0 -37 9 -88.5t18 -87.5l8 -36q0 -9 -30 -9h-133h-3q-10 0 -15.5 2t-13.5 20t-12 53.5t-7.5 106.5t-3.5 174q0 217 14.5 332.5t26 129.5t26.5 14h2z" />
    <glyph glyph-name="Q" unicode="Q" horiz-adv-x="723" 
d="M630 -13l-83 71q-31 -35 -85 -54t-101 -19q-137 0 -224 104t-87 313q0 64 8.5 123t31 119t56.5 104t89.5 71.5t125.5 27.5t125.5 -27.5t89.5 -71.5t56.5 -104t31 -119t8.5 -123q2 -121 -54 -242q72 -66 72 -154q0 -48 -17 -48q-11 0 -43 29zM361 705q-46 0 -77.5 -28
t-46 -75t-20 -88.5t-5.5 -87.5q0 -139 39.5 -206.5t109.5 -67.5q30 0 49 12q-99 74 -99 184q0 12 4 33.5t11 21.5q16 0 16 -17q7 -21 20.5 -38.5t38 -34t38.5 -24.5t49 -27q22 71 22 179q0 264 -149 264z" />
    <glyph glyph-name="R" unicode="R" horiz-adv-x="664" 
d="M243 447q20 0 69.5 25t96 69.5t46.5 86.5q0 44 -33.5 65t-79.5 21q-49 0 -75.5 -15t-40.5 -60.5t-14 -130.5q0 -61 31 -61zM119 832h265q66 0 114 -17t72.5 -45.5t35.5 -59t11 -65.5q0 -45 -15.5 -83t-37.5 -62t-44 -42t-37.5 -30.5t-15.5 -19.5t28 -41t62 -78t62 -119.5
t28 -156.5q0 -8 -4.5 -10.5t-20.5 -2.5h-113h-8h-9.5h-9t-9 1t-7 2.5t-5 4t-1.5 5.5q0 88 -48 202t-90 114q-28 0 -65.5 -29.5t-37.5 -67.5q0 -34 9.5 -87t18.5 -92.5t9 -40.5q0 -5 -2.5 -8t-7 -3.5t-8.5 -1t-10 0t-7 0.5h-116h-3q-10 0 -15.5 2t-13.5 20t-12 53.5
t-7.5 106.5t-3.5 174q0 217 14.5 332.5t26 129.5t26.5 14h2z" />
    <glyph glyph-name="S" unicode="S" horiz-adv-x="646" 
d="M488 622q-8 0 -22.5 14t-31.5 31t-48 31t-66 14q-43 0 -78.5 -21.5t-35.5 -61.5q0 -11 3 -20.5t7 -17.5t13 -16t15 -13.5t19 -12t19 -10t21 -9t19.5 -7.5t20 -7t17.5 -6q144 -48 198.5 -115.5t54.5 -150.5q0 -46 -17 -90t-50.5 -82.5t-92 -62.5t-134.5 -24
q-116 0 -201 61.5t-85 173.5q0 38 13.5 71.5t27.5 48.5t20 15q4 0 8 -21t14 -50.5t29 -59.5t61.5 -51t102.5 -21t101 25t41 70q0 26 -13.5 46.5t-40 35t-46 22.5t-48.5 17q-63 20 -109 44.5t-71.5 48.5t-40 53.5t-18.5 53t-4 52.5q0 35 13 71.5t40.5 73t81 59.5t125.5 23
q67 0 127 -21t90.5 -45t30.5 -40q0 -23 -30 -71t-50 -48z" />
    <glyph glyph-name="T" unicode="T" horiz-adv-x="626" 
d="M371 0h-105q-2 0 -6 -1q-16 -3 -25.5 3.5t-20.5 67t-11 180.5q0 98 11 189.5t22 147t11 65.5v12v10.5v8.5t-1.5 7.5t-3.5 5t-6 3.5t-9 1q-31 0 -80.5 -29t-88 -57.5t-44.5 -28.5h-8.5t-3 5.5t-2.5 18.5q0 24 15.5 93.5t26.5 89.5q8 16 97 35.5t183 19.5q120 0 212 -27.5
t92 -62.5q0 -30 -25.5 -84.5t-34.5 -54.5q-5 0 -17.5 13t-26.5 28.5t-37.5 28.5t-48.5 13q-21 0 -36.5 -30t-22 -78t-9.5 -90.5t-3 -84.5q0 -114 13.5 -208.5t27.5 -143t14 -49.5q0 -6 -3.5 -10t-10.5 -5.5t-11.5 -2t-13.5 0t-10 0.5z" />
    <glyph glyph-name="U" unicode="U" horiz-adv-x="673" 
d="M483 832h98q8 0 14 -4t15 -25t15 -58.5t10.5 -111.5t4.5 -177q0 -471 -304 -471q-144 0 -223.5 112t-79.5 332q0 146 10.5 244t21 128.5t19.5 30.5h139q22 0 22 -13q0 -4 -12.5 -47t-25 -126.5t-12.5 -185.5q0 -154 43.5 -225.5t97.5 -71.5q20 0 36 3t40.5 19.5t41 45
t28.5 85t12 134.5q0 73 -5 136t-12 102t-14.5 67.5t-12.5 44t-5 19.5q0 13 38 13z" />
    <glyph glyph-name="V" unicode="V" horiz-adv-x="644" 
d="M453 832h116q13 0 25.5 -26t22.5 -89t10 -148q0 -98 -26 -193.5t-65 -165t-82 -124t-79 -82.5t-55 -28q-5 0 -23 9.5t-46 32.5t-59 55.5t-62 83.5t-56 111t-41 144t-16 177q0 68 4 116.5t9.5 72.5t14 37t13.5 15t13 2h114q47 0 47 -16q0 -6 -13 -37.5t-26.5 -99
t-13.5 -160.5q0 -51 12.5 -102.5t30.5 -90t38 -69.5t36 -47.5t24 -16.5q20 0 47 26.5t52.5 69t43.5 105t18 125.5q0 72 -10.5 131t-22.5 87.5t-22.5 50t-10.5 28.5q0 4 1.5 7t4 4.5t5.5 2.5t7.5 1.5t7 0.5h7h5.5z" />
    <glyph glyph-name="W" unicode="W" horiz-adv-x="851" 
d="M687 832h92q23 0 30 -5q26 -22 26 -162q0 -108 -23.5 -218.5t-57.5 -191.5t-70 -146.5t-62 -99t-33 -33.5q-19 0 -56.5 66t-73.5 132t-49 66t-49 -66t-73.5 -132t-56.5 -66q-7 0 -30 28.5t-54 84t-60.5 125.5t-50 166.5t-20.5 192.5q0 122 6 182t12 68.5t19 8.5h3h124
q23 0 23 -14q0 -1 -7.5 -27t-14.5 -76.5t-7 -108.5q0 -113 16.5 -200.5t35 -124t31.5 -36.5q17 0 42.5 43t48 135.5t22.5 201.5q0 59 -4.5 104t-9 66.5t-4.5 23.5q0 13 17 13h130q25 0 25 -17q0 -4 -5 -28.5t-9.5 -67t-4.5 -91.5q0 -104 15.5 -196t35.5 -139.5t36 -47.5
q31 0 69.5 112.5t38.5 231.5q0 47 -8.5 100.5t-17 89t-8.5 38.5q0 15 21 15z" />
    <glyph glyph-name="X" unicode="X" horiz-adv-x="636" 
d="M572 0h-99h-13h-11.5t-8 1t-6.5 3t-3.5 6t-3.5 9.5t-2 14.5l-3 43q-4 48 -14.5 90t-23 68.5t-26 46t-24 28t-16.5 8.5t-18.5 -7.5t-29.5 -27.5t-33 -48.5t-30 -76t-20 -105.5q-1 -5 -2 -14t-1.5 -12t-1 -8.5t-2 -7t-2.5 -5t-4 -3.5t-5 -1.5t-7.5 -1.5h-9.5h-12h-74
q-2 0 -9.5 -0.5t-11.5 0t-9.5 1.5t-8 4.5t-2.5 9.5q0 73 20 137.5t49 107.5t58 77t49 58t20 38q0 16 -16 38t-38.5 50t-45.5 64t-39 94t-16 126q0 6 1 11t5 8l6 4.5t8.5 2.5t8.5 1h10.5h9.5h110q19 -2 21.5 -8t6.5 -60q4 -49 13 -90t19.5 -66.5t22.5 -43.5t21.5 -25.5
t16.5 -7.5q27 0 54.5 72.5t27.5 136.5q0 7 -1.5 39t-1.5 34q0 9 5.5 14t10 5.5t15.5 -0.5h10h78q17 0 26.5 -3t13.5 -12.5t4.5 -17t0.5 -26.5q0 -67 -14 -121.5t-33.5 -87t-39 -56.5t-33.5 -42.5t-14 -32.5t24.5 -49t53.5 -77.5t53.5 -117.5t24.5 -159v-10t-1 -7.5
t-1.5 -5.5t-3 -3.5t-3.5 -2t-5.5 -1t-6.5 -0.5h-8.5h-9.5z" />
    <glyph glyph-name="Y" unicode="Y" horiz-adv-x="644" 
d="M505 832h75q29 0 38.5 -11.5t9.5 -41.5q0 -73 -19.5 -138.5t-49 -111.5t-63.5 -97.5t-63.5 -97.5t-49 -111.5t-19.5 -139.5q0 -11 3 -32.5t3 -31.5q0 -19 -46 -19h-116q-31 0 -31 58q0 52 16.5 105t33.5 88.5t17 47.5q0 8 -23.5 34.5t-57 66.5t-67 90t-57 121t-23.5 145
q0 53 11 64.5t48 11.5h80q47 0 55 -16q2 -4 2 -10q0 -3 -4.5 -35.5t-4.5 -42.5q0 -66 26 -132t56 -103t46 -37q15 0 49 43.5t64 111t30 122.5q0 19 -4.5 50t-4.5 32q0 5 2 8.5t5 5t8 2.5t8 1h9.5h7.5z" />
    <glyph glyph-name="Z" unicode="Z" horiz-adv-x="620" 
d="M535 0h-452h-14h-13t-11 0.5t-10.5 2.5t-7.5 5t-6.5 7.5t-3 11t-1.5 15.5q0 65 34 147.5t82 156.5t96 140t82 116.5t34 68.5q0 43 -62 43q-36 0 -64.5 -9t-42.5 -19.5t-25.5 -19.5t-16.5 -9q-16 0 -42 75.5t-26 90.5q0 4 3.5 6t9 2.5t10 1t10.5 0t7 -0.5h460q15 0 27 -8
t12 -24q0 -40 -57 -128.5t-125 -175t-125 -176t-57 -131.5q0 -30 29.5 -45.5t67.5 -15.5q36 0 66.5 11.5t47 25t31 25t20.5 11.5q12 0 45 -88.5t33 -97.5q0 -15 -45 -15z" />
    <glyph glyph-name="bracketleft" unicode="[" horiz-adv-x="400" 
d="M208 0h-82q-51 0 -51 358q0 489 61 489h72h11t22 0.5t27.5 0.5t29.5 -1t26 -2t19 -4t7 -6q0 -15 -8.5 -21t-22.5 -8.5t-30.5 -8.5t-33.5 -27.5t-31 -57.5t-22.5 -107.5t-8.5 -169.5q0 -103 8.5 -178t22 -113.5t30 -62t32.5 -30t29.5 -9.5t22 -9t8.5 -21q0 -3 -7 -6
t-18.5 -4t-25 -2t-28.5 -1t-26.5 0.5t-21.5 0.5h-11z" />
    <glyph glyph-name="backslash" unicode="\" horiz-adv-x="362" 
d="M352 -49h-97l-245 902h96z" />
    <glyph glyph-name="bracketright" unicode="]" horiz-adv-x="400" 
d="M274 0h-82h-11t-22 -0.5t-27.5 -0.5t-29.5 1t-26 2t-19 4t-7 6q0 15 8.5 21t22.5 9t30.5 9.5t33.5 30t31 62t22.5 113.5t8.5 178q0 98 -8.5 169.5t-22.5 107.5t-31 57.5t-33.5 27.5t-30.5 8.5t-22.5 8.5t-8.5 21q0 3 7 6t19 4t26 2t29.5 1t27.5 -0.5t22 -0.5h11h72
q61 0 61 -489q0 -358 -51 -358z" />
    <glyph glyph-name="asciicircum" unicode="^" horiz-adv-x="586" 
d="M542 362h-105l-146 344l-148 -344h-100l203 445h93z" />
    <glyph glyph-name="underscore" unicode="_" horiz-adv-x="500" 
d="M469 -195h-448q-1 0 -10.5 -0.5t-13 0t-10 2t-9.5 5.5t-3 11q0 19 15.5 59.5t40.5 40.5h448q1 0 10.5 0.5t13 0t10 -2t9.5 -5.5t3 -11q0 -19 -15.5 -59.5t-40.5 -40.5z" />
    <glyph glyph-name="grave" unicode="`" horiz-adv-x="385" 
d="M180 861l76 -142q12 -20 12 -26q0 -7 -13 -7q-28 -3 -78.5 38.5t-88.5 87t-38 58.5q0 8 4.5 13.5t14 7.5t16 2.5t18 0t12.5 -0.5h14.5h12t8 -0.5t7.5 -2t5.5 -3t5.5 -6t5 -8.5t7 -12z" />
    <glyph glyph-name="a" unicode="a" horiz-adv-x="520" 
d="M331 197v44v13v14t-0.5 12.5t-2.5 12.5l-5 10t-7.5 8.5t-11 4.5t-15.5 2q-46 0 -83.5 -33t-37.5 -78q0 -40 30 -64.5t72 -24.5q21 0 34 5t18.5 17t7 23.5t1.5 33.5zM33 184q0 89 72 152.5t164 79.5q18 3 27 6t17 12t8 25q0 36 -30 57t-67 21q-35 0 -57 -13.5t-28 -29.5
t-11.5 -29.5t-12.5 -13.5q-25 0 -46 25t-21 57q0 54 51.5 88t123.5 34q169 0 220 -139q23 -64 23 -389q0 -23 4 -55.5t4 -48.5q0 -23 -183 -23q-258 0 -258 184z" />
    <glyph glyph-name="b" unicode="b" horiz-adv-x="536" 
d="M259 167q35 0 60 18.5t37.5 49t18 60.5t5.5 61q0 109 -35.5 156.5t-77.5 47.5q-53 0 -69 -35t-16 -146q0 -62 6 -105t13 -63.5t20 -31t19.5 -11.5t18.5 -1zM88 853h96q36 0 36 -22q0 -2 -7.5 -32t-15 -69.5t-7.5 -65.5q0 -32 22 -32q12 0 41 11q41 12 58 12q34 0 68 -16
t65.5 -48t51 -90t19.5 -133q0 -174 -102 -290q-67 -78 -158 -78h-177q-31 0 -31 358q0 495 41 495z" />
    <glyph glyph-name="c" unicode="c" horiz-adv-x="488" 
d="M257 -15q-60 0 -106.5 26.5t-74 70.5t-41.5 96.5t-14 109.5q0 67 17 130.5t50.5 117t89.5 86.5t127 33q64 0 107 -30.5t43 -73.5q0 -27 -17 -57.5t-42 -30.5q-8 0 -16.5 18.5t-28.5 37t-55 18.5q-48 0 -81.5 -39t-46 -86.5t-12.5 -94.5q0 -77 36.5 -127.5t104.5 -50.5
q30 0 55 10t39.5 24.5t24.5 29.5t15.5 25t7.5 10q3 0 6 -6t6 -20t3 -33q0 -89 -54 -141.5t-143 -52.5z" />
    <glyph glyph-name="d" unicode="d" horiz-adv-x="542" 
d="M267 146q20 0 35 7.5t25 17t17 28.5t10.5 32.5t5 38t2 36.5t0 36.5t-0.5 29.5q0 64 -4.5 103.5t-14 57t-19.5 22.5t-26 5q-45 0 -93 -59t-48 -179q0 -28 5.5 -57t17.5 -56.5t35 -45t53 -17.5zM465 0h-234q-89 0 -149.5 78.5t-60.5 222.5q0 81 25 151t62.5 112.5t78 66.5
t74.5 24q11 0 31 -11.5t26 -11.5q23 0 23 52q0 46 -12.5 93.5t-12.5 61.5t35 14h104q41 0 41 -495q0 -358 -31 -358z" />
    <glyph glyph-name="e" unicode="e" horiz-adv-x="525" 
d="M274 -15q-126 0 -189.5 88.5t-63.5 219.5q0 171 79.5 266.5t188.5 95.5q87 0 145 -47.5t58 -132.5q0 -60 -33 -100.5t-80.5 -59.5t-95 -33.5t-80.5 -33.5t-33 -47q0 -33 42 -57t84 -24q46 0 80 13t50 31t26 36.5t14.5 31.5t7.5 13q10 0 14 -22.5t4 -37.5
q0 -92 -62.5 -146t-155.5 -54zM284 537q-56 0 -92 -47.5t-36 -97.5q0 -22 18 -22q26 0 110 29.5t84 61.5q0 34 -26.5 55t-57.5 21z" />
    <glyph glyph-name="f" unicode="f" horiz-adv-x="358" 
d="M232 0h-107q-11 0 -13 2q-20 19 -20 297q0 25 1.5 75t1.5 75q0 3 0.5 16t0.5 20t-2 18.5t-5.5 17t-11 10.5t-18.5 5q-10 0 -22 -6t-17 -6q-9 0 -10.5 6.5t-1.5 24.5q0 53 14 69t46 16q16 0 26.5 12t14.5 26t9.5 38.5t8.5 35.5q14 45 53 73t80 28h17h18t16.5 -0.5t16 -2
t11.5 -4t8.5 -7t2.5 -10.5q0 -20 -9 -66.5t-20 -46.5q-7 0 -15.5 4.5t-13.5 4.5q-19 0 -33 -22t-14 -42q0 -11 7 -18.5t18 -7.5q6 0 19 2.5t19 2.5q26 0 32.5 -14.5t6.5 -46.5q0 -52 -21 -52q-3 0 -19.5 4.5t-26.5 4.5q-19 0 -31 -10t-16 -30.5t-5 -31.5t-1 -35
q0 -58 9.5 -157.5t18.5 -175.5t9 -78q0 -5 -1.5 -9t-2.5 -5.5t-5.5 -2.5t-6 -1h-8h-8.5z" />
    <glyph glyph-name="g" unicode="g" horiz-adv-x="556" 
d="M282 356q42 0 69.5 27.5t27.5 74.5t-27.5 74.5t-69.5 27.5t-69.5 -27.5t-27.5 -74.5q0 -45 26.5 -73.5t70.5 -28.5zM282 655q20 0 42 -4q4 -1 8.5 -2t7.5 -1.5t4 -0.5q19 0 39 23t39 46t35 23q19 0 50.5 -36.5t31.5 -50.5q0 -10 -14.5 -13.5t-32 -4t-32 -8.5t-14.5 -26
q0 -9 8 -22.5t17.5 -27t17.5 -42.5t8 -66q0 -86 -55.5 -150t-159.5 -64q-41 0 -81.5 -20.5t-40.5 -42.5q0 -14 10 -24t24 -10t90 25t129 25q25 0 65.5 -17t40.5 -41q0 -25 -25 -81.5t-45 -56.5q-10 0 -19 12.5t-24 25t-39 12.5q-31 0 -94 -25q-67 -25 -104 -25
q-62 0 -103 34.5t-41 93.5q0 40 18 69.5t39 42t39 24.5t18 20t-18 30t-36 60.5t-18 85.5q0 98 57 154t158 56z" />
    <glyph glyph-name="h" unicode="h" horiz-adv-x="544" 
d="M107 853h109q7 0 11.5 -6.5t4.5 -14.5q0 -4 -9.5 -36t-19 -76.5t-9.5 -79.5q0 -31 17 -31q9 0 46 22q46 24 84 24q36 0 63.5 -14.5t49.5 -48t33.5 -94.5t11.5 -149q0 -100 -12 -224.5t-33 -124.5h-104q-36 0 -36 13q0 1 5 24.5t12.5 60t15 78.5t12.5 90t5 85
q0 110 -17.5 148t-57.5 38q-104 0 -104 -227q0 -88 5.5 -154.5t11 -99.5t5.5 -40q0 -16 -29 -16h-99q-15 0 -17 2q-10 10 -12 159v249q0 52 1.5 106.5t6 141t17.5 141t32 54.5z" />
    <glyph glyph-name="i" unicode="i" horiz-adv-x="266" 
d="M167 0h-68q-27 0 -33 5q-16 14 -19 128q-1 58 -1 198q0 57 0.5 101t2 76t2.5 55t5 37.5t5 23t7 12.5t7.5 4.5t9.5 0t10 -0.5h55q30 0 36.5 -2.5t6.5 -12.5q0 -9 -6 -64t-6 -119q0 -71 4 -138.5t9.5 -115t11.5 -84t10 -57t4 -21.5q0 -8 -2.5 -13t-5.5 -8t-10 -4
l-10.5 -1.5t-12.5 0t-12 0.5zM134 718q-32 0 -54.5 17.5t-22.5 48.5t23 50t54 19t54 -19t23 -50t-22.5 -48.5t-54.5 -17.5z" />
    <glyph glyph-name="j" unicode="j" horiz-adv-x="302" 
d="M143 640h79q34 0 34 -394q0 -52 -6 -92.5t-22.5 -81.5t-51.5 -64t-87 -23q-30 0 -59.5 11t-29.5 35q0 35 9.5 81t27.5 46q8 0 19.5 -12.5t21.5 -12.5q13 0 20.5 7t15 46.5t7.5 113.5q0 57 -10.5 181t-10.5 140q0 5 1.5 8.5t4.5 5.5t6 3t7.5 1.5t7.5 0.5h8.5h7.5zM166 718
q-32 0 -54.5 17.5t-22.5 48.5t23 50t54 19t54 -19t23 -50t-22.5 -48.5t-54.5 -17.5z" />
    <glyph glyph-name="k" unicode="k" horiz-adv-x="514" 
d="M193 0h-115q-31 0 -31 358q0 495 41 495h107q24 0 24 -22q0 -2 -9 -42.5t-18.5 -127.5t-9.5 -202q0 -80 13 -80q17 0 46.5 36.5t54 95t24.5 108.5q0 6 1 10t2 6.5t5 3.5t5.5 1h8.5h9h61q2 0 11.5 0.5t12.5 0t9 -2.5t8 -7t2 -13q0 -47 -17 -93.5t-37.5 -75t-37.5 -51.5
t-17 -28q0 -9 11 -19.5t32.5 -29t38.5 -39.5q82 -102 82 -255q0 -5 -0.5 -9t-2.5 -6.5t-3 -4.5t-4.5 -3.5t-5 -2t-6.5 -1t-6.5 -0.5h-7.5h-8h-81q-13 0 -17.5 0.5t-10.5 3t-7.5 9t-1.5 18.5q0 64 -18 124t-40 92.5t-38 32.5t-37.5 -16t-21.5 -47q0 -54 6.5 -100.5t12.5 -73
t6 -31.5q0 -12 -25 -12z" />
    <glyph glyph-name="l" unicode="l" horiz-adv-x="257" 
d="M191 0h-105q-31 0 -31 358q0 495 41 495h95h5h8t7.5 -0.5t8 -2t6 -3.5t5 -5t1.5 -8l-4 -19q-5 -19 -11 -53.5t-12 -79.5t-10.5 -111t-4.5 -136q0 -77 4 -147.5t9.5 -117.5t11 -82t9.5 -54.5t4 -21.5q0 -5 -2.5 -8t-7.5 -3.5t-9 -1t-10 0t-8 0.5z" />
    <glyph glyph-name="m" unicode="m" horiz-adv-x="845" 
d="M180 0h-79q-3 0 -11 -0.5t-10 0t-8 3t-8 10t-6 19.5t-5.5 32t-3.5 47.5t-2.5 65.5t-0.5 87q0 279 3 316q6 69 33 83q21 9 87 9q43 0 43 -16q0 -6 -6 -22t-6 -23t6 -12t14 -5q5 0 11.5 3t17.5 9.5t19 10.5q42 23 94 23q28 0 62 -23t44 -23q29 0 59 18q50 28 92 28
q37 0 66.5 -14t48 -34t32 -54.5t19.5 -61t9.5 -70t4 -66t0.5 -61.5v-8q0 -45 -1 -82t-3 -63.5t-5 -47.5t-6 -34.5t-8 -22.5t-8 -13.5t-9 -6.5t-9 -2t-9 0.5t-9 0.5h-68q-38 0 -38 16q0 3 9.5 43t19 109t9.5 143q0 211 -106 211q-15 0 -21 -1t-17.5 -9t-16.5 -24t-9 -48
t-4 -80q0 -141 -1 -209t-6 -105t-10.5 -41.5t-19.5 -4.5h-90q-4 0 -11 -0.5t-10 0t-7 1t-5.5 3t-1.5 6.5t9.5 62.5t19 132.5t9.5 116q0 35 -1.5 59t-8.5 62t-25 59t-47 21q-103 0 -103 -241q0 -89 7 -148.5t14 -85.5t7 -33q0 -4 -1.5 -7t-3.5 -4.5t-5.5 -2t-5.5 -0.5h-7h-6z
" />
    <glyph glyph-name="n" unicode="n" horiz-adv-x="552" 
d="M441 0h-86h-6h-7t-6 0.5t-6.5 1.5t-5 2.5t-3.5 4.5t-1 7q0 2 5.5 20t13 48.5t14.5 70t12.5 95t5.5 112.5q0 32 -2 55.5t-9 50t-23 40.5t-40 14q-18 0 -35 -8t-37 -28.5t-32 -68.5t-12 -118q0 -53 7.5 -121.5t14.5 -115.5t7 -49q0 -13 -27 -13h-85h-6q-20 -1 -27.5 8.5
t-13 63.5t-5.5 175q0 71 1 127t3.5 99t6 74.5t8.5 53t11 35.5t13.5 21.5t16 10.5t18.5 4t21 0h13h14.5h15h13t12 -1t8.5 -3t6 -5.5t2 -8.5q0 -4 -4.5 -16t-4.5 -20q0 -19 15 -19q3 0 46 20.5t81 20.5q14 0 26.5 -2t36 -16.5t39.5 -40.5t29 -80t13 -128q0 -109 -3.5 -182.5
t-8 -111t-14 -56t-15.5 -21t-19 -2.5h-5z" />
    <glyph glyph-name="o" unicode="o" horiz-adv-x="544" 
d="M272 -15q-45 0 -88 20t-80.5 59t-60 106t-22.5 151q0 85 25.5 158.5t84 124.5t141.5 51t141.5 -51t84 -124.5t25.5 -158.5q0 -84 -22.5 -151t-60 -106t-80.5 -59t-88 -20zM272 152q36 0 62 18.5t39.5 49t19.5 62t6 64.5q0 32 -6 63.5t-20 61t-40 48t-61 18.5t-61 -18.5
t-40 -48t-20 -61t-6 -63.5q0 -33 6 -64.5t19.5 -62t39.5 -49t62 -18.5z" />
    <glyph glyph-name="p" unicode="p" horiz-adv-x="525" 
d="M227 259q65 0 113 52t48 116q0 48 -34 79t-82 31q-20 0 -30.5 -2t-24 -12.5t-20 -31t-11.5 -60t-5 -97.5q0 -23 1.5 -36t12.5 -26t32 -13zM173 0h-82q-20 0 -26.5 4t-12.5 40t-6 119v294q0 32 0.5 54t2 43t4.5 33.5t7 25.5t10.5 18t15 12t19.5 7.5t25.5 3.5t31.5 1t39 0
h31q280 0 280 -211q0 -56 -25 -114.5t-61 -101t-75.5 -70t-68.5 -27.5q-17 0 -53 43q-4 4 -9 10.5t-8.5 10.5l-7 8t-6.5 6t-5 2q-3 0 -4.5 -2t-2 -6t-0.5 -7.5v-10.5v-10q0 -31 5 -68.5t9.5 -63.5t4.5 -29q0 -14 -32 -14z" />
    <glyph glyph-name="q" unicode="q" horiz-adv-x="525" 
d="M298 259q21 0 32 13t12.5 26t1.5 36q0 58 -5 97.5t-11.5 60t-20 31t-24 12.5t-30.5 2q-48 0 -82 -31t-34 -79q0 -64 48 -116t113 -52zM434 0h-82q-32 0 -32 14q0 3 5 29t9.5 63.5t4.5 68.5v10v10.5t-0.5 7.5t-2 6t-4.5 2t-7.5 -4.5t-14.5 -16t-14 -16.5q-36 -43 -53 -43
q-29 0 -68.5 27.5t-75.5 70t-61 101t-25 114.5q0 211 280 211h31h48t35.5 -3t28.5 -6.5t18 -14.5t13.5 -23.5t6.5 -35.5t4.5 -49t0.5 -66v-294q0 -83 -6 -119t-12.5 -40t-26.5 -4z" />
    <glyph glyph-name="r" unicode="r" horiz-adv-x="426" 
d="M182 0h-80q-2 0 -11.5 -0.5t-10.5 0.5t-8 4.5t-8 11.5t-6 22.5t-5.5 36.5t-2.5 53.5t-2.5 74t-0.5 97.5q0 59 -1 149q-1 123 2 156.5t19 34.5h83q2 0 8.5 0.5t9.5 0t7.5 -1.5t6.5 -4.5t2 -8.5q1 -11 2.5 -16.5t7 -11.5t14.5 -6q4 0 8.5 1.5t10.5 5.5t10 6.5t12 9t12 9.5
q43 31 72 31q38 0 65.5 -29t27.5 -69q0 -48 -30 -80t-57 -32q-3 0 -6 16.5t-17 33.5t-44 17q-90 0 -90 -195q0 -88 8.5 -158t17 -105.5t8.5 -37.5q-1 -16 -34 -16z" />
    <glyph glyph-name="s" unicode="s" horiz-adv-x="517" 
d="M250 -15q-85 0 -148 48t-63 131q0 22 6.5 48t14 42.5t11.5 16.5q1 0 6 -15.5t16.5 -37.5t29 -44.5t49 -38t71.5 -15.5q35 0 62 18.5t27 53.5q0 28 -28 48.5t-67.5 36.5t-79 36t-67.5 59.5t-28 94.5q0 88 60 138t146 50q44 0 82.5 -12t61.5 -28.5t36.5 -31.5t13.5 -23
q0 -16 -31.5 -58t-47.5 -42q-8 0 -17.5 12t-19.5 26.5t-33 26.5t-54 12q-27 0 -50 -11.5t-23 -32.5q0 -28 30 -51t73 -43t86 -44.5t73 -67t30 -98.5q0 -94 -66.5 -149t-161.5 -55z" />
    <glyph glyph-name="t" unicode="t" horiz-adv-x="363" 
d="M268 786q12 0 12 -21q0 -15 -15 -55.5t-15 -44.5q0 -30 20 -30q6 0 19 2.5t19 2.5q26 0 32.5 -14.5t6.5 -46.5q0 -52 -21 -52q-3 0 -19.5 4.5t-26.5 4.5q-20 0 -31.5 -10t-16.5 -35t-6 -45t-1 -63q0 -74 6 -133.5t14 -92.5t16 -54.5t14 -32.5t6 -14q0 -11 -60.5 -41
t-78.5 -30q-25 0 -36.5 101.5t-11.5 176.5q0 54 1.5 97t3 65.5t1.5 27.5q0 4 0.5 16.5t0.5 19t-2 17t-5.5 16t-11 10t-18.5 4.5q-10 0 -22 -6t-17 -6q-9 0 -10.5 6.5t-1.5 24.5q0 53 14 69t46 16q1 0 8 -2t11 -2q5 0 9.5 1.5t7.5 5t5.5 7t4.5 10t3.5 11t3 12.5t2 12.5t2 13
t1.5 11.5q3 25 58 45.5t79 20.5z" />
    <glyph glyph-name="u" unicode="u" horiz-adv-x="556" 
d="M374 640h93q43 0 43 -305q0 -53 -0.5 -95t-2.5 -76l-3.5 -59.5t-6.5 -44.5t-7 -32t-9.5 -21.5t-11 -13t-14 -6.5t-15.5 -2h-19h-9q-36 0 -49 8.5t-10 19.5t-1 19.5t-22 8.5q-4 0 -12 -5.5t-20 -14.5t-18 -13q-38 -23 -74 -23q-35 0 -61 13.5t-49.5 47.5t-36.5 104
t-13 173q0 16 2 58.5t6.5 105t15.5 108t25 45.5h92q2 0 9 0.5t11 0t9.5 -1.5t8 -4.5t2.5 -9.5q0 -1 -11.5 -39t-23 -109.5t-11.5 -155.5q0 -208 85 -208q109 0 109 225q0 53 -8.5 121.5t-17.5 116.5t-9 52q0 12 34 12z" />
    <glyph glyph-name="v" unicode="v" horiz-adv-x="516" 
d="M387 640h66q28 0 35 -8t7 -49q0 -118 -23 -222.5t-55.5 -170.5t-69 -114.5t-63.5 -69.5t-39 -21q-9 0 -32 20t-56.5 69t-63.5 117t-51 179t-21 239q0 21 5 26t26 5h77q2 0 8 0.5t9.5 0.5t9 -1t8.5 -2.5t5.5 -5t2.5 -8.5q0 -9 -2.5 -36t-2.5 -52q0 -70 8 -130t19.5 -97.5
t25 -65t24.5 -39t19 -11.5q18 0 41 41t41 120.5t18 170.5q0 18 -3 48.5t-3 45.5q0 3 0.5 6t0.5 5t1.5 3.5t2 2.5t3 2t3 1.5t4 0.5h4.5h5.5h5.5z" />
    <glyph glyph-name="w" unicode="w" horiz-adv-x="722" 
d="M599 640h55q19 0 25 -1t13 -11t8 -29t1 -58q0 -102 -20.5 -196.5t-50 -157t-62 -110.5t-56 -70t-32.5 -22q-29 0 -93 134q0 1 -3.5 8t-7 14.5t-8 15.5t-9 13t-7.5 5q-8 0 -26 -35q-18 -38 -54.5 -96.5t-54.5 -58.5q-10 0 -32 24.5t-50.5 73.5t-53.5 112.5t-42.5 153
t-17.5 182.5q0 18 0.5 32.5t1 25.5t3 19t3.5 13.5t5 9t5.5 6t7.5 3t8 0.5h10h11h79q20 -2 22 -9q1 -2 1 -6q0 -1 -3 -14t-5.5 -41.5t-2.5 -68.5q0 -79 12.5 -153t27.5 -112.5t24 -38.5q6 0 15.5 8.5t21.5 32t22.5 57.5t17 92t5.5 130q0 21 -3 61t-3 46q0 16 15 16h99
q1 0 5.5 -0.5t6.5 -1t5 -1.5t4 -4t1 -7q0 -1 -4.5 -48.5t-4.5 -78.5q0 -86 13 -159t28.5 -108t27.5 -35t29.5 40.5t31 110.5t13.5 140q0 38 -6.5 83.5t-6.5 53.5q0 4 1 6.5t3.5 4t5 2.5t6.5 1.5t6.5 0.5h7h5.5z" />
    <glyph glyph-name="x" unicode="x" horiz-adv-x="510" 
d="M446 0h-75h-6.5h-6h-5t-5 0.5t-3.5 1.5t-3 2.5t-2 4t-1.5 5.5t-0.5 7q0 60 -20 113.5t-42.5 79.5t-37.5 26q-23 0 -50 -58t-27 -136q0 -32 -5.5 -39t-33.5 -7h-62h-8h-6.5h-5t-4.5 1t-3.5 1.5t-3 2.5t-1.5 4t-1 5.5t-0.5 7.5t-0.5 10q0 58 18 112t40 85.5t40 56.5t18 31
q0 11 -16 34.5t-36 51t-36 81.5t-16 118q0 28 6.5 33t34.5 5h73q24 0 28 -5t4 -16q0 -81 27.5 -139.5t52.5 -58.5q9 0 21.5 15t26.5 57t18 101q1 7 2.5 17t1.5 12.5t2.5 7.5t3.5 5.5t7 2t10.5 1.5h15.5h50q18 0 24.5 -1t12 -8.5t5.5 -24.5q0 -55 -18 -104.5t-39 -76.5
t-39 -49.5t-18 -29.5q0 -14 21 -37.5t45.5 -50t45.5 -81.5t21 -125q0 -39 -5 -45.5t-33 -6.5z" />
    <glyph glyph-name="y" unicode="y" horiz-adv-x="513" 
d="M26 23v88q0 41 29 41q52 0 87.5 10.5t46.5 21t11 18.5q0 10 -18 29t-43.5 47.5t-51 68t-43.5 104t-18 142.5q0 35 4.5 41t33.5 6h82h6h7t6 -0.5t6.5 -1.5t5 -3t3.5 -5.5t1 -7.5q0 -5 -4.5 -31.5t-4.5 -43.5q0 -41 15.5 -84.5t36 -73.5t39.5 -49.5t27 -19.5q28 0 47.5 66
t19.5 131q0 29 -5.5 66.5t-5.5 41.5t1.5 6.5t4 4t5 2.5t7 1.5t6.5 0.5h6.5h5.5h89q3 0 5.5 -1.5t4 -4.5l3 -6t2 -8t1 -9t0.5 -10.5v-11.5v-13.5v-13.5q3 -107 -34 -213.5t-98.5 -185.5t-142.5 -128.5t-162 -49.5q-16 0 -20 9t-4 29z" />
    <glyph glyph-name="z" unicode="z" horiz-adv-x="467" 
d="M397 0h-321h-11h-10.5t-8.5 0.5t-8.5 2.5t-6 5t-4.5 8t-1 12q0 83 37.5 171t82 146t82 104t37.5 53q0 20 -45 20q-51 0 -86.5 -13t-36.5 -13q-14 0 -28 56.5t-14 74.5q0 5 3 8t9 4t10 1.5t11 -0.5h8h301h9h8t6.5 -0.5t6.5 -1t5 -2t4 -4t2.5 -5.5t2 -7.5t0.5 -10.5
q0 -97 -12 -119q-10 -20 -69.5 -91t-107.5 -143t-48 -116q0 -14 8.5 -18t32.5 -4q52 0 84.5 8t45.5 15.5t17 7.5q12 0 28 -58.5t16 -76.5q0 -14 -39 -14z" />
    <glyph glyph-name="braceleft" unicode="{" horiz-adv-x="400" 
d="M15 423q0 4 6 6.5t15.5 5t20.5 16.5t20.5 37t15.5 70t6 112q0 52 7 87t15.5 52.5t27 26.5t30 10t36.5 1h9q1 0 23.5 0.5t40 0t39.5 -1t35 -3.5t13 -8q0 -15 -11.5 -22t-29.5 -7.5t-38 -6t-38 -14.5t-29.5 -35.5t-11.5 -67.5q0 -29 6 -79.5t6 -81.5q0 -29 -16.5 -51.5
t-33 -33t-16.5 -13.5t16.5 -13.5t33 -33t16.5 -51.5q0 -31 -6 -81.5t-6 -78.5q0 -41 11.5 -67.5t29.5 -35.5t38 -14.5t38 -6t29.5 -7.5t11.5 -22q0 -5 -13 -8t-35 -3.5t-39.5 -1t-40 0t-23.5 0.5h-9q-25 0 -37 1t-30 10t-26.5 26.5t-15.5 52.5t-7 87q0 65 -6 112t-15.5 69.5
t-20.5 36.5t-20.5 16.5t-15.5 5t-6 6.5z" />
    <glyph glyph-name="bar" unicode="|" horiz-adv-x="341" 
d="M103 946h133v-1261h-133v1261z" />
    <glyph glyph-name="braceright" unicode="}" horiz-adv-x="400" 
d="M385 423q0 -4 -6 -6.5t-15.5 -5t-20.5 -16.5t-20.5 -36.5t-15.5 -69.5t-6 -112q0 -52 -7 -87t-15.5 -52.5t-27 -26.5t-30 -10t-36.5 -1h-9q-1 0 -23.5 -0.5t-40 0t-39.5 1t-35 3.5t-13 8q0 15 11.5 22t29.5 7.5t38 6t38 14.5t29.5 35.5t11.5 67.5q0 28 -6 78.5t-6 81.5
q0 29 16.5 51.5t33 33t16.5 13.5t-16.5 13.5t-33 33t-16.5 51.5q0 31 6 81.5t6 79.5q0 41 -11.5 67.5t-29.5 35.5t-38 14.5t-38 6t-29.5 7.5t-11.5 22q0 5 13 8t35 3.5t39.5 1t40 0t23.5 -0.5h9q25 0 37 -1t30 -10t26.5 -26.5t15.5 -52.5t7 -87q0 -65 6 -112t15.5 -70
t20.5 -37t20.5 -16.5t15.5 -5t6 -6.5z" />
    <glyph glyph-name="asciitilde" unicode="~" 
d="M486 412l54 -47q-24 -54 -63 -87.5t-84 -33.5q-30 0 -54.5 9.5t-62.5 34.5q-21 14 -30.5 20t-26 12t-32.5 6t-29.5 -6t-26.5 -21.5t-18.5 -23t-19.5 -29.5l-55 48q25 52 66 85.5t90 33.5q15 0 28.5 -2t27.5 -8t20 -9t20.5 -11.5t15.5 -8.5q6 -3 17.5 -10.5t16 -10.5
t13.5 -8t14.5 -7t13 -3.5t14.5 -1.5q27 0 47 19.5t44 59.5z" />
    <glyph glyph-name="uni00A0" unicode="&#xa0;" horiz-adv-x="290" 
 />
    <glyph glyph-name="exclamdown" unicode="&#xa1;" horiz-adv-x="325" 
d="M161 847q47 0 80 -32t33 -78t-33.5 -78t-80.5 -32q-45 0 -77.5 32t-32.5 77q0 46 32.5 78.5t78.5 32.5zM218 0h-133q-35 0 -35 19q0 3 20 48t39.5 114t19.5 131q0 60 -8 150l-8 90q0 14 70 14q31 0 61 -161t30 -259q0 -27 -0.5 -48t-2 -36.5t-2.5 -26t-5 -17.5t-6 -11
t-8 -5.5t-8.5 -2t-11 0t-12.5 0.5z" />
    <glyph glyph-name="cent" unicode="&#xa2;" 
d="M208 420q0 -117 72 -159q0 15 -2 62t-2 73q0 46 9 133t10 97q-43 -25 -65 -85.5t-22 -120.5zM491 341q3 0 6 -6t6 -20t3 -33q0 -38 -11.5 -70.5t-28 -52t-34.5 -33t-30.5 -19t-16.5 -5.5q-3 0 -7.5 -6.5t-4.5 -9.5q0 -5 12.5 -21t12.5 -23q0 -12 -28.5 -21t-53.5 -9
q-5 0 -9 4.5t-7 13t-4.5 14.5t-4 16.5t-2.5 12.5q-6 19 -28 19q-26 0 -56.5 17.5t-61 51t-50.5 94t-20 136.5q0 80 19 145t46 103.5t59 65t55.5 36t38.5 9.5q7 0 12 12.5t9.5 28.5t9.5 21q21 14 54 14q11 0 17.5 -7.5t6.5 -18.5q0 -9 -5 -21.5t-5 -14.5q0 -12 5 -12
q39 0 75.5 -30t36.5 -68q0 -28 -14.5 -58t-39.5 -30q-6 0 -19 17t-30.5 34.5t-33.5 17.5q-2 -20 -8.5 -88t-10 -112t-3.5 -77q0 -9 12 -111q35 0 62 14.5t39 32.5t20 32.5t10 14.5z" />
    <glyph glyph-name="sterling" unicode="&#xa3;" 
d="M390 500q17 0 28.5 -7.5t11.5 -19.5q0 -18 -17.5 -54.5t-38.5 -36.5q-12 0 -38 6t-40 6q-11 0 -11 -12q0 -10 10.5 -40t10.5 -75q0 -64 -31 -108q36 11 39 11q22 0 54 -9t56 -9q40 -1 62.5 26t26 60.5t7 61.5t9.5 28q9 0 20.5 -16.5t21 -51t9.5 -75.5q0 -54 -15.5 -95.5
t-40 -63t-48 -31.5t-44.5 -10q-54 0 -109.5 20t-89.5 20q-56 0 -90 -15q-56 -25 -93 -25q-12 0 -20.5 2t-13.5 6.5t-8.5 7.5t-5 11.5t-2 11t-0.5 12.5l1 9v25v38t3 26t10.5 19t19.5 5q11 0 28 -3t33 -3q40 -3 58 18t18 76q0 53 -15.5 100.5t-32.5 47.5t-47.5 -6t-39.5 -6
q-17 0 -29.5 9t-12.5 22q0 16 15 51.5t33 35.5q6 0 17 -5.5t15 -5.5q11 0 11 32q0 3 -5.5 20.5t-5.5 39.5q0 110 68.5 177.5t172.5 67.5q53 0 97 -14.5t69 -35.5t38.5 -40t13.5 -32q0 -14 -45 -46t-60 -32q-9 0 -19 11t-19 25t-29 25t-48 11q-34 0 -63.5 -32t-29.5 -78
q0 -60 15.5 -79.5t44.5 -19.5q18 0 59 5.5t51 5.5z" />
    <glyph glyph-name="currency" unicode="&#xa4;" horiz-adv-x="597" 
d="M536 167l-56 -53l-70 83q-46 -38 -112 -38q-70 0 -113 39l-67 -84l-58 53l75 82q-47 65 -47 154q0 97 48 153l-75 80l58 54l66 -82q45 41 113 41q71 0 115 -40l67 83l56 -56l-76 -80q50 -56 50 -153q0 -92 -51 -153zM299 558h-2q-50 0 -83.5 -44t-33.5 -111t33.5 -110
t85.5 -43q51 0 84.5 43t33.5 110t-33.5 111t-84.5 44z" />
    <glyph glyph-name="yen" unicode="&#xa5;" 
d="M464 811h67q29 0 38.5 -11.5t9.5 -41.5q0 -73 -24.5 -141t-53.5 -108t-53.5 -73.5t-24.5 -45.5q0 -3 3 -5t11 -2.5t15.5 -0.5t21.5 0.5t24 0.5q22 0 42.5 -40t20.5 -59q0 -13 -9.5 -16t-35.5 -3q-34 0 -69 11.5t-49 11.5q-70 0 -70 -205q0 -10 5.5 -33.5t5.5 -39.5
q0 -11 -62.5 -18t-95.5 -7q-15 0 -23 26t-8 47q0 50 11 90.5t22.5 62.5t11.5 29q-1 27 -8.5 37.5t-31.5 10.5q-21 0 -52 -11q-26 -12 -43 -12q-50 0 -50 96q0 15 16.5 18.5t52.5 3.5h13q39 0 45 8q3 4 3 9q0 7 -21.5 37.5t-48 70t-48 107.5t-21.5 141q0 38 11 46.5t48 8.5
h55q47 0 55 -16q2 -4 2 -10q0 -3 -4.5 -35.5t-4.5 -42.5q0 -66 26 -132t55.5 -103t45.5 -37q15 0 49 43.5t64 111t30 122.5q0 19 -4.5 50t-4.5 32q0 5 2 8.5t5 5t8 2.5t8 1h9.5h7.5z" />
    <glyph glyph-name="brokenbar" unicode="&#xa6;" horiz-adv-x="341" 
d="M103 852h133v-441h-133v441zM103 221h133v-441h-133v441z" />
    <glyph glyph-name="section" unicode="&#xa7;" horiz-adv-x="608" 
d="M501 816l-24 -113q-51 31 -125 31q-48 0 -75 -17t-27 -44t30.5 -46t101.5 -43q92 -38 133.5 -83.5t41.5 -112.5q0 -84 -81 -152q21 -16 34.5 -48.5t13.5 -62.5q0 -62 -36 -108.5t-89.5 -68t-114.5 -21.5q-124 0 -194 46l28 114q24 -17 66 -30.5t83 -13.5q45 0 76.5 18.5
t31.5 53.5q0 32 -27 48.5t-104 41.5q-95 30 -142.5 75.5t-47.5 121.5q0 43 24.5 83.5t69.5 61.5q-47 50 -47 112q0 94 65.5 143.5t172.5 49.5q92 0 162 -36zM189 427v-1q0 -29 23 -48.5t76 -37.5q90 -34 108 -46q31 17 31 64q0 63 -93 94q-78 26 -106 39q-39 -24 -39 -64z
" />
    <glyph glyph-name="dieresis" unicode="&#xa8;" horiz-adv-x="567" 
d="M398 708q-38 0 -63.5 21.5t-25.5 58.5t25.5 58.5t63.5 21.5t63.5 -21.5t25.5 -58.5t-25.5 -58.5t-63.5 -21.5zM169 708q-38 0 -63.5 21.5t-25.5 58.5t25.5 58.5t63.5 21.5t63.5 -21.5t25.5 -58.5t-25.5 -58.5t-63.5 -21.5z" />
    <glyph glyph-name="copyright" unicode="&#xa9;" horiz-adv-x="928" 
d="M464 158q-104 0 -160 73t-56 172q0 107 63 190t174 83q52 0 97 -22t45 -65q0 -64 -65 -64q-10 0 -11.5 14t-14 28t-48.5 14q-65 0 -93.5 -44.5t-28.5 -110.5q0 -78 38.5 -114t89.5 -36q30 0 54 9t37.5 22t23 26t14 22t5.5 9q6 0 10 -24t4 -41q0 -64 -53 -102.5
t-125 -38.5zM464 -15q-206 0 -318.5 112.5t-112.5 318.5t112.5 318.5t318.5 112.5t318.5 -112.5t112.5 -318.5t-112.5 -318.5t-318.5 -112.5zM464 80q158 0 247 89t89 247t-89 247t-247 89t-247 -89t-89 -247t89 -247t247 -89z" />
    <glyph glyph-name="ordfeminine" unicode="&#xaa;" horiz-adv-x="400" 
d="M239 572v27v7.5v7.5t-0.5 6t-1 5.5t-2.5 4t-4.5 3.5t-6.5 2t-9 1q-29 0 -50.5 -18t-21.5 -40q0 -15 16.5 -24.5t42.5 -9.5q37 0 37 28zM216 426q-51 0 -88.5 11.5t-56.5 26.5t-30 36.5t-13.5 35t-2.5 28.5q0 53 53 93.5t114 50.5q3 0 11.5 1t11.5 2t8.5 3t7.5 6t2 9
q0 29 -61 29q-20 0 -34.5 -10t-22.5 -20t-13 -10q-31 0 -49 17t-18 39q0 33 34 56t80 23q4 0 26 0.5t35 0.5t36 -3t38.5 -10t32.5 -20.5t27 -32.5q13 -25 13 -263q0 -28 2.5 -53.5t2.5 -31.5q0 -14 -146 -14z" />
    <glyph glyph-name="guillemotleft" unicode="&#xab;" horiz-adv-x="608" 
d="M319 367l109 165l4 6q4 6 6 8.5t5.5 7t7.5 6.5t8 2q9 0 50 -26q5 -3 12 -7.5t11 -7t9 -6t7.5 -5.5t5 -5t3.5 -6t1 -6q0 -13 -25 -43l-86 -109q-15 -18 -15 -25t15 -25l86 -109q25 -30 25 -43q0 -3 -1 -6t-3.5 -6t-5 -5t-7.5 -5.5t-9 -6t-11 -7t-12 -7.5q-41 -26 -50 -26
q-4 0 -8 2t-7.5 6.5t-5.5 7t-6 8.5l-4 6l-109 165q-19 26 -19 51t19 51zM69 367l109 165l4 6q4 6 6 8.5t5.5 7t7.5 6.5t8 2q9 0 50 -26q5 -3 12 -7.5t11 -7t9 -6t7.5 -5.5t5 -5t3.5 -6t1 -6q0 -13 -25 -43l-86 -109q-15 -18 -15 -25t15 -25l86 -109q25 -30 25 -43
q0 -3 -1 -6t-3.5 -6t-5 -5t-7.5 -5.5t-9 -6t-11 -7t-12 -7.5q-41 -26 -50 -26q-4 0 -8 2t-7.5 6.5t-5.5 7t-6 8.5l-4 6l-109 165q-19 26 -19 51t19 51z" />
    <glyph glyph-name="logicalnot" unicode="&#xac;" 
d="M529 158h-92v230h-386v93h478v-323z" />
    <glyph glyph-name="uni00AD" unicode="&#xad;" horiz-adv-x="250" 
d="M194 251h-148q-1 0 -10.5 -0.5t-13 0t-10 2t-9.5 5.5t-3 11q0 20 15.5 65t40.5 45h148q1 0 10.5 0.5t13 0t10 -2t9.5 -5.5t3 -11q0 -20 -15.5 -65t-40.5 -45z" />
    <glyph glyph-name="registered" unicode="&#xae;" horiz-adv-x="928" 
d="M416 436q25 0 81.5 36t56.5 73q0 26 -22 39t-52 13q-47 0 -66 -25t-19 -99q0 -37 21 -37zM322 669h187q90 0 126.5 -32.5t36.5 -79.5q0 -32 -17 -59t-37.5 -41t-37.5 -26t-17 -17q0 -3 20 -24.5t44.5 -49.5t44.5 -73t20 -90q0 -7 -16 -7h-96q-24 0 -26 7q-8 68 -37.5 129
t-47.5 61t-42.5 -18t-24.5 -40q0 -20 6 -52t12 -56l6 -24q0 -7 -23 -7h-90q-19 0 -23 5q-1 2 -2 5q-14 41 -14 203l6 178q6 68 16 89q9 19 26 19zM464 -15q-206 0 -318.5 112.5t-112.5 318.5t112.5 318.5t318.5 112.5t318.5 -112.5t112.5 -318.5t-112.5 -318.5
t-318.5 -112.5zM464 80q158 0 247 89t89 247t-89 247t-247 89t-247 -89t-89 -247t89 -247t247 -89z" />
    <glyph glyph-name="macron" unicode="&#xaf;" horiz-adv-x="500" 
d="M329 708h-168q-1 0 -10.5 -0.5t-13 0t-10 2t-9.5 5.5t-3 11q0 19 15.5 59.5t40.5 40.5h168q1 0 10.5 0.5t13 0t10 -2t9.5 -5.5t3 -11q0 -19 -15.5 -59.5t-40.5 -40.5z" />
    <glyph glyph-name="degree" unicode="&#xb0;" horiz-adv-x="414" 
d="M202 837h2q74 0 118.5 -54t44.5 -130q0 -85 -47.5 -134.5t-117.5 -49.5q-68 0 -114.5 49.5t-46.5 134.5q0 82 47 133t114 51zM203 776h-1q-39 0 -63 -34t-24 -88q0 -55 24.5 -90t64.5 -35q41 0 64.5 33.5t23.5 88.5q0 56 -22.5 90.5t-66.5 34.5z" />
    <glyph glyph-name="plusminus" unicode="&#xb1;" 
d="M524 364h-189v-232h-94v232h-191v94h191v222h94v-222h189v-94zM529 -9h-475v92h475v-92z" />
    <glyph glyph-name="twosuperior" unicode="&#xb2;" horiz-adv-x="350" 
d="M134 463q0 -9 12 -9l15 2q15 3 27 3q11 0 34 -6t31 -6q46 0 46 38q0 5 -2.5 12.5t-3 10t2.5 4.5q3 0 11.5 -10t16.5 -32.5t8 -48.5q0 -42 -31 -72t-64 -30q-15 0 -57 8q-40 8 -55 8q-18 0 -48 -8t-36 -8q-25 0 -25 32q0 57 22.5 102.5t54 73.5t63.5 51.5t54.5 48.5
t22.5 52q0 26 -12.5 39t-41.5 13q-30 0 -53.5 -20t-36.5 -40t-17 -20t-25 33.5t-21 38.5q0 29 44.5 66t106.5 37q68 0 112 -34.5t44 -96.5q0 -51 -31 -94.5t-68.5 -67t-68.5 -43t-31 -27.5z" />
    <glyph glyph-name="threesuperior" unicode="&#xb3;" horiz-adv-x="350" 
d="M72 811h215h8h9t8 -0.5t7 -2.5t4 -5.5t2 -8.5q0 -43 -24.5 -83.5t-49 -64.5t-24.5 -28t11 -9t26.5 -13.5t31 -21.5t26.5 -38t11 -57q0 -73 -46 -122t-123 -49q-42 0 -78.5 16t-52.5 31t-16 20q0 4 32 54t36 50q5 0 15.5 -10.5t26.5 -21.5t35 -11q26 0 39.5 14.5
t13.5 32.5q0 77 -104 85q-23 0 -23 12q0 11 55 61t55 58q0 17 -27 17q-21 0 -59 -10.5t-44 -10.5q-7 0 -17.5 45t-10.5 58q0 3 1 5.5t3.5 4t4.5 2.5t5.5 1h6h6h5.5z" />
    <glyph glyph-name="acute" unicode="&#xb4;" horiz-adv-x="385" 
d="M129 719l76 142q4 8 7 12t5 8.5t5.5 6t5.5 3t7.5 2t8 0.5h12h14.5q1 0 12.5 0.5t18 0t16 -2.5t14 -7.5t4.5 -13.5q0 -13 -38 -58.5t-88.5 -87t-78.5 -38.5q-13 0 -13 7q0 6 12 26z" />
    <glyph glyph-name="mu" unicode="&#xb5;" horiz-adv-x="556" 
d="M374 640h93q15 0 24.5 -27t13 -80.5t4.5 -93.5t1 -103q0 -38 -1.5 -66.5t-4 -50t-6.5 -36t-9 -23.5t-12 -14.5t-15.5 -7.5t-18.5 -2h-21h-15q-21 0 -33 5t-13.5 12t-1 16t2.5 16t-1.5 12t-13.5 5q-3 0 -24.5 -19.5t-40.5 -19.5q-65 0 -80 -9q-16 -10 -16 -39
q0 -21 9.5 -60t9.5 -41q0 -14 -32 -14h-82q-20 0 -26.5 4t-12.5 40t-6 119v244q0 233 49 233h92q2 0 9 0.5t11 0t9.5 -1.5t8 -4.5t2.5 -9.5q0 -4 -11.5 -35t-23 -78t-11.5 -90q0 -68 26.5 -96t58.5 -28q16 0 31.5 5t34 18t30.5 45t13 78q0 41 -8.5 83.5t-17.5 69.5t-9 31
q0 12 34 12z" />
    <glyph glyph-name="paragraph" unicode="&#xb6;" horiz-adv-x="583" 
d="M334 -61h-97v385h-9q-30 0 -60.5 13t-61 39t-49 76t-18.5 116q1 130 80 202.5t236 72.5q100 0 150 -13v-891h-98v802h-73v-802z" />
    <glyph glyph-name="periodcentered" unicode="&#xb7;" horiz-adv-x="290" 
d="M144 226q-46 0 -78.5 32.5t-32.5 78.5q0 45 32.5 77t77.5 32q47 0 80.5 -32t33.5 -78t-33 -78t-80 -32z" />
    <glyph glyph-name="cedilla" unicode="&#xb8;" horiz-adv-x="500" 
d="M113 -109q0 18 79 74t118 57q18 -1 31.5 -0.5t22.5 1t15 0t8.5 -3.5t2.5 -9q0 -4 -14.5 -14.5t-29 -25.5t-14.5 -28q0 -8 19 -16.5t37.5 -24t18.5 -41.5q0 -38 -42 -66t-91 -39.5t-89 -11.5q-36 0 -36 13q0 7 40 25.5t40 38.5q0 22 -18 36t-40 18t-40 8t-18 9z" />
    <glyph glyph-name="onesuperior" unicode="&#xb9;" horiz-adv-x="350" 
d="M110 468q0 48 3.5 123t3.5 101q0 22 -13.5 34.5t-26.5 19.5t-13 15t17.5 23t49.5 28.5t63 13.5q52 0 52 -22q0 -3 -4.5 -29t-9 -68.5t-4.5 -83.5q0 -44 11 -141.5t11 -121.5q0 -13 -46.5 -23t-71.5 -10q-10 0 -13 3.5t-6 34.5t-3 103z" />
    <glyph glyph-name="ordmasculine" unicode="&#xba;" horiz-adv-x="400" 
d="M200 435q-79 0 -134.5 53t-55.5 159q0 81 48.5 143.5t141.5 62.5t141.5 -62.5t48.5 -143.5q0 -106 -55.5 -159t-134.5 -53zM200 563q72 0 72 97q0 41 -17 69.5t-55 28.5q-37 0 -54.5 -28.5t-17.5 -69.5t17 -69t55 -28z" />
    <glyph glyph-name="guillemotright" unicode="&#xbb;" horiz-adv-x="608" 
d="M180 532l109 -165q19 -26 19 -51t-19 -51l-109 -165l-4 -6q-4 -6 -6 -8.5t-5.5 -7t-7.5 -6.5t-8 -2q-9 0 -50 26q-5 3 -12 7.5t-11 7t-9 6t-7.5 5.5t-5 5t-3.5 6t-1 6q0 13 25 43l86 109q15 18 15 25t-15 25l-86 109q-25 30 -25 43q0 3 1 6t3.5 6t5 5t7.5 5.5t9 6t11 7
t12 7.5q41 26 50 26q4 0 8 -2t7.5 -6.5t5.5 -7t6 -8.5zM430 532l109 -165q19 -26 19 -51t-19 -51l-109 -165l-4 -6q-4 -6 -6 -8.5t-5.5 -7t-7.5 -6.5t-8 -2q-9 0 -50 26q-5 3 -12 7.5t-11 7t-9 6t-7.5 5.5t-5 5t-3.5 6t-1 6q0 13 25 43l86 109q15 18 15 25t-15 25l-86 109
q-25 30 -25 43q0 3 1 6t3.5 6t5 5t7.5 5.5t9 6t11 7t12 7.5q41 26 50 26q4 0 8 -2t7.5 -6.5t5.5 -7t6 -8.5z" />
    <glyph glyph-name="onequarter" unicode="&#xbc;" horiz-adv-x="867" 
d="M760 0h-118v105h-198v78l196 305h120v-291h59v-92h-59v-105zM642 197v86q0 52 2 75l-2 2q-29 -52 -30 -54l-81 -108l1 -1h110zM253 -10h-98l382 831h98zM253 330h-127v375h-3l-69 -34l-26 90l109 56h116v-487z" />
    <glyph glyph-name="onehalf" unicode="&#xbd;" horiz-adv-x="906" 
d="M253 -10h-98l381 831h98zM253 330h-127v375h-3l-69 -34l-26 90l109 56h116v-487zM519 0v77l75 78q66 65 92.5 102.5t26.5 69.5q0 24 -18 41.5t-52 17.5q-47 0 -90 -32l-29 92q24 18 67.5 32t90.5 14q73 0 118 -39.5t45 -104.5q0 -34 -8.5 -62t-33 -58.5t-40 -46
t-55.5 -53.5l-27 -18v-3h170v-107h-332z" />
    <glyph glyph-name="threequarters" unicode="&#xbe;" horiz-adv-x="927" 
d="M820 0h-117v105h-198v78l196 305h119v-291h59v-92h-59v-105zM703 197v86q0 52 2 75l-2 2q-2 -4 -13 -25t-17 -30l-82 -107l1 -1h111zM314 -10h-99l382 831h98zM68 701l-22 90q53 32 147 32q69 0 113 -32.5t44 -88.5q0 -77 -91 -114v-3q44 -7 75 -40t31 -73
q0 -66 -52 -107t-141 -41q-41 0 -82.5 8t-60.5 20l21 93q40 -26 94 -26q40 0 64.5 17t24.5 43q0 30 -29.5 47.5t-75.5 17.5h-29v84h26q41 0 69 14t28 37q0 48 -71 48q-44 0 -83 -26z" />
    <glyph glyph-name="questiondown" unicode="&#xbf;" horiz-adv-x="480" 
d="M348 527v-72q0 -41 -15.5 -70.5t-38 -48t-45 -35.5t-38 -42.5t-15.5 -59.5t18 -60t51 -26q25 0 43 15.5t28 31t16 15.5q8 0 43 -40t35 -49q0 -28 -52.5 -64.5t-115.5 -36.5q-92 0 -152 70.5t-60 164.5q0 50 20.5 92.5t49.5 70t58 50t49.5 44.5t20.5 43q0 9 0.5 14.5t1 10
t3.5 7t4.5 4t7.5 2t9 0.5h12.5h14.5h12.5h11.5t8.5 -0.5t7 -2.5t4 -5.5t3 -9t0.5 -13.5zM296 627q-46 0 -78.5 32.5t-32.5 78.5q0 45 32.5 77t77.5 32q47 0 80.5 -32t33.5 -78t-33 -78t-80 -32z" />
    <glyph glyph-name="Agrave" unicode="&#xc0;" horiz-adv-x="698" 
d="M592 0h-112q-38 0 -38 12q0 9 19 46.5t38.5 91.5t19.5 104q0 32 -25.5 47t-62.5 15q-236 0 -236 -130q0 -35 16.5 -76t32.5 -70t16 -33q0 -7 -19 -7h-143q-65 0 -65 220q0 121 31.5 229t76 178t94.5 122t86.5 75t52.5 23q13 0 43 -17.5t73.5 -63.5t82 -111t65.5 -174.5
t27 -240.5q0 -39 -1.5 -71.5t-3 -56t-5.5 -42t-7 -30.5t-8.5 -20t-9 -12.5t-10 -6.5t-9.5 -2t-10 0.5t-9 0.5zM378 676q-40 0 -100.5 -88.5t-60.5 -143.5q0 -19 19 -19l75 13q75 13 128 13q28 0 39.5 6.5t11.5 26.5q0 47 -42 119.5t-70 72.5zM337 1054l76 -142
q12 -20 12 -26q0 -7 -13 -7q-28 -3 -78.5 38.5t-88.5 87t-38 58.5q0 8 4.5 13.5t14 7.5t16 2.5t18 0t12.5 -0.5h14.5h12t8 -0.5t7.5 -2t5.5 -3t5.5 -6t5 -8.5t7 -12z" />
    <glyph glyph-name="Aacute" unicode="&#xc1;" horiz-adv-x="698" 
d="M592 0h-112q-38 0 -38 12q0 9 19 46.5t38.5 91.5t19.5 104q0 32 -25.5 47t-62.5 15q-236 0 -236 -130q0 -35 16.5 -76t32.5 -70t16 -33q0 -7 -19 -7h-143q-65 0 -65 220q0 121 31.5 229t76 178t94.5 122t86.5 75t52.5 23q13 0 43 -17.5t73.5 -63.5t82 -111t65.5 -174.5
t27 -240.5q0 -39 -1.5 -71.5t-3 -56t-5.5 -42t-7 -30.5t-8.5 -20t-9 -12.5t-10 -6.5t-9.5 -2t-10 0.5t-9 0.5zM378 676q-40 0 -100.5 -88.5t-60.5 -143.5q0 -19 19 -19l75 13q75 13 128 13q28 0 39.5 6.5t11.5 26.5q0 47 -42 119.5t-70 72.5zM316 912l76 142q4 8 7 12t5 8.5
t5.5 6t5.5 3t7.5 2t8 0.5h12h14.5q1 0 12.5 0.5t18 0t16 -2.5t14 -7.5t4.5 -13.5q0 -13 -38 -58.5t-88.5 -87t-78.5 -38.5q-13 0 -13 7q0 6 12 26z" />
    <glyph glyph-name="Acircumflex" unicode="&#xc2;" horiz-adv-x="698" 
d="M592 0h-112q-38 0 -38 12q0 9 19 46.5t38.5 91.5t19.5 104q0 32 -25.5 47t-62.5 15q-236 0 -236 -130q0 -35 16.5 -76t32.5 -70t16 -33q0 -7 -19 -7h-143q-65 0 -65 220q0 121 31.5 229t76 178t94.5 122t86.5 75t52.5 23q13 0 43 -17.5t73.5 -63.5t82 -111t65.5 -174.5
t27 -240.5q0 -39 -1.5 -71.5t-3 -56t-5.5 -42t-7 -30.5t-8.5 -20t-9 -12.5t-10 -6.5t-9.5 -2t-10 0.5t-9 0.5zM378 676q-40 0 -100.5 -88.5t-60.5 -143.5q0 -19 19 -19l75 13q75 13 128 13q28 0 39.5 6.5t11.5 26.5q0 47 -42 119.5t-70 72.5zM440 1039l108 -107
q13 -11 13 -19q0 -3 -18 -12.5t-42 -18t-37 -8.5q-5 0 -21 13l-60 59q-23 23 -30 23q-12 0 -33 -25l-37 -40q-30 -30 -43 -30q-10 0 -36.5 12t-26.5 23q0 12 22 34l100 107q24 25 34 28q9 3 26 3q21 0 34.5 -5t20.5 -11t26 -26z" />
    <glyph glyph-name="Atilde" unicode="&#xc3;" horiz-adv-x="698" 
d="M592 0h-112q-38 0 -38 12q0 9 19 46.5t38.5 91.5t19.5 104q0 32 -25.5 47t-62.5 15q-236 0 -236 -130q0 -35 16.5 -76t32.5 -70t16 -33q0 -7 -19 -7h-143q-65 0 -65 220q0 121 31.5 229t76 178t94.5 122t86.5 75t52.5 23q13 0 43 -17.5t73.5 -63.5t82 -111t65.5 -174.5
t27 -240.5q0 -39 -1.5 -71.5t-3 -56t-5.5 -42t-7 -30.5t-8.5 -20t-9 -12.5t-10 -6.5t-9.5 -2t-10 0.5t-9 0.5zM378 676q-40 0 -100.5 -88.5t-60.5 -143.5q0 -19 19 -19l75 13q75 13 128 13q28 0 39.5 6.5t11.5 26.5q0 47 -42 119.5t-70 72.5zM271 1061q39 0 76 -16
q83 -32 116 -32q20 0 32.5 6.5t16 14t7.5 14t11 6.5q24 0 24 -13q0 -4 -2 -14.5t-10.5 -30t-23 -36t-44 -29t-67.5 -12.5q-43 0 -109 24q-61 23 -83 23q-18 0 -27 -9t-11 -18t-3 -9q-30 0 -30 14q0 40 34 78.5t93 38.5z" />
    <glyph glyph-name="Adieresis" unicode="&#xc4;" horiz-adv-x="698" 
d="M592 0h-112q-38 0 -38 12q0 9 19 46.5t38.5 91.5t19.5 104q0 32 -25.5 47t-62.5 15q-236 0 -236 -130q0 -35 16.5 -76t32.5 -70t16 -33q0 -7 -19 -7h-143q-65 0 -65 220q0 121 31.5 229t76 178t94.5 122t86.5 75t52.5 23q13 0 43 -17.5t73.5 -63.5t82 -111t65.5 -174.5
t27 -240.5q0 -39 -1.5 -71.5t-3 -56t-5.5 -42t-7 -30.5t-8.5 -20t-9 -12.5t-10 -6.5t-9.5 -2t-10 0.5t-9 0.5zM378 676q-40 0 -100.5 -88.5t-60.5 -143.5q0 -19 19 -19l75 13q75 13 128 13q28 0 39.5 6.5t11.5 26.5q0 47 -42 119.5t-70 72.5zM484 901q-38 0 -63.5 21.5
t-25.5 58.5t25.5 58.5t63.5 21.5t63.5 -21.5t25.5 -58.5t-25.5 -58.5t-63.5 -21.5zM255 901q-38 0 -63.5 21.5t-25.5 58.5t25.5 58.5t63.5 21.5t63.5 -21.5t25.5 -58.5t-25.5 -58.5t-63.5 -21.5z" />
    <glyph glyph-name="Aring" unicode="&#xc5;" horiz-adv-x="698" 
d="M592 0h-112q-38 0 -38 12q0 9 19 46.5t38.5 91.5t19.5 104q0 32 -25.5 47t-62.5 15q-236 0 -236 -130q0 -35 16.5 -76t32.5 -70t16 -33q0 -7 -19 -7h-143q-65 0 -65 220q0 121 31.5 229t76 178t94.5 122t86.5 75t52.5 23q13 0 43 -17.5t73.5 -63.5t82 -111t65.5 -174.5
t27 -240.5q0 -39 -1.5 -71.5t-3 -56t-5.5 -42t-7 -30.5t-8.5 -20t-9 -12.5t-10 -6.5t-9.5 -2t-10 0.5t-9 0.5zM378 676q-40 0 -100.5 -88.5t-60.5 -143.5q0 -19 19 -19l75 13q75 13 128 13q28 0 39.5 6.5t11.5 26.5q0 47 -42 119.5t-70 72.5zM369 870q-52 0 -87.5 34
t-35.5 83q0 47 35 80.5t86 33.5q54 0 89.5 -32.5t35.5 -82.5q0 -48 -36 -82t-87 -34zM369 932q23 0 37 16t14 40q0 21 -15.5 36t-36.5 15t-35.5 -15.5t-14.5 -36.5q0 -23 14 -39t37 -16z" />
    <glyph glyph-name="AE" unicode="&#xc6;" horiz-adv-x="1055" 
d="M378 676q-40 0 -100.5 -88.5t-60.5 -143.5q0 -19 19 -19l75 13q75 13 128 13q28 0 39.5 6.5t11.5 26.5q0 50 -41.5 121t-70.5 71zM241 0h-143q-65 0 -65 220q0 121 31.5 229t76 178t94.5 122t86.5 75t52.5 23q25 0 86 -54t79 -85q11 52 16.5 75t16 35.5t16.5 13t28 0.5
h370q48 0 48 -17q0 -8 -34 -78t-43 -70q-5 0 -21.5 11.5t-48.5 23.5t-75 12q-60 0 -110.5 -35.5t-50.5 -101.5q0 -57 31 -57q22 0 91.5 23.5t115.5 23.5q14 0 29.5 -5t15.5 -16q0 -5 -30 -84.5t-38 -79.5q-1 0 -32.5 10t-54.5 10q-46 0 -86.5 -34.5t-40.5 -101.5
q0 -62 33.5 -100t94.5 -38q43 0 83.5 16.5t66.5 33t34 16.5q10 0 46 -84t36 -95q0 -5 -2.5 -8.5t-7.5 -5t-8 -2t-11 0.5h-8h-529q-38 0 -38 12q0 8 16 39.5t32 85.5t16 117q0 35 -19 48.5t-56 13.5q-236 0 -236 -130q0 -35 16.5 -76t32.5 -70t16 -33q0 -7 -19 -7z" />
    <glyph glyph-name="Ccedilla" unicode="&#xc7;" horiz-adv-x="645" 
d="M186 -121q0 12 44 47.5t89 60.5q-72 8 -129.5 45.5t-92.5 94.5t-53.5 125t-18.5 141q0 83 23.5 162.5t67.5 145.5t115 106t159 40q35 0 71.5 -8t71 -24t56.5 -45.5t22 -67.5q0 -43 -27.5 -67t-75.5 -24q-13 0 -17.5 14.5t-6.5 32.5t-24 32.5t-65 14.5q-69 0 -118 -43.5
t-69.5 -103.5t-20.5 -127q0 -68 21.5 -122t55 -84.5t69.5 -46t71 -15.5q46 0 81 15t53 36.5t29 43t16 36.5t7 15q9 0 15.5 -37t6.5 -53q0 -77 -36.5 -129.5t-93.5 -78.5q-77 -51 -77 -81q0 -8 18.5 -16.5t37.5 -24t19 -41.5q0 -38 -42 -66t-91 -39.5t-89 -11.5q-36 0 -36 13
q0 7 40 25.5t40 38.5q0 22 -18 36t-40 18t-40 8t-18 9z" />
    <glyph glyph-name="Egrave" unicode="&#xc8;" horiz-adv-x="597" 
d="M551 0h-459q-29 -1 -35 19.5t-6 100.5q0 69 -1 116q0 111 32 353.5t52 242.5h394q48 0 48 -17q0 -8 -34 -78t-43 -70q-5 0 -21.5 11.5t-48.5 23.5t-75 12q-58 0 -100 -35t-42 -102q0 -57 32 -57q10 0 74 23.5t113 23.5q14 0 29.5 -5t15.5 -16q0 -5 -30 -84.5t-38 -79.5
q-1 0 -32.5 10t-54.5 10q-46 0 -85.5 -34.5t-39.5 -101.5q0 -62 32.5 -100t93.5 -38q43 0 83.5 16.5t66.5 33t34 16.5q10 0 46 -84t36 -95q0 -5 -2.5 -8.5t-7.5 -5t-8 -2t-11 0.5h-8zM346 1054l76 -142q12 -20 12 -26q0 -7 -13 -7q-28 -3 -78.5 38.5t-88.5 87t-38 58.5
q0 8 4.5 13.5t14 7.5t16 2.5t18 0t12.5 -0.5h14.5h12t8 -0.5t7.5 -2t5.5 -3t5.5 -6t5 -8.5t7 -12z" />
    <glyph glyph-name="Eacute" unicode="&#xc9;" horiz-adv-x="597" 
d="M551 0h-459q-29 -1 -35 19.5t-6 100.5q0 69 -1 116q0 111 32 353.5t52 242.5h394q48 0 48 -17q0 -8 -34 -78t-43 -70q-5 0 -21.5 11.5t-48.5 23.5t-75 12q-58 0 -100 -35t-42 -102q0 -57 32 -57q10 0 74 23.5t113 23.5q14 0 29.5 -5t15.5 -16q0 -5 -30 -84.5t-38 -79.5
q-1 0 -32.5 10t-54.5 10q-46 0 -85.5 -34.5t-39.5 -101.5q0 -62 32.5 -100t93.5 -38q43 0 83.5 16.5t66.5 33t34 16.5q10 0 46 -84t36 -95q0 -5 -2.5 -8.5t-7.5 -5t-8 -2t-11 0.5h-8zM295 912l76 142q4 8 7 12t5 8.5t5.5 6t5.5 3t7.5 2t8 0.5h12h14.5q1 0 12.5 0.5t18 0
t16 -2.5t14 -7.5t4.5 -13.5q0 -13 -38 -58.5t-88.5 -87t-78.5 -38.5q-13 0 -13 7q0 6 12 26z" />
    <glyph glyph-name="Ecircumflex" unicode="&#xca;" horiz-adv-x="597" 
d="M551 0h-459q-29 -1 -35 19.5t-6 100.5q0 69 -1 116q0 111 32 353.5t52 242.5h394q48 0 48 -17q0 -8 -34 -78t-43 -70q-5 0 -21.5 11.5t-48.5 23.5t-75 12q-58 0 -100 -35t-42 -102q0 -57 32 -57q10 0 74 23.5t113 23.5q14 0 29.5 -5t15.5 -16q0 -5 -30 -84.5t-38 -79.5
q-1 0 -32.5 10t-54.5 10q-46 0 -85.5 -34.5t-39.5 -101.5q0 -62 32.5 -100t93.5 -38q43 0 83.5 16.5t66.5 33t34 16.5q10 0 46 -84t36 -95q0 -5 -2.5 -8.5t-7.5 -5t-8 -2t-11 0.5h-8zM410 1049l108 -107q13 -11 13 -19q0 -3 -18 -12.5t-42 -18t-37 -8.5q-5 0 -21 13l-60 59
q-23 23 -30 23q-12 0 -33 -25l-37 -40q-30 -30 -43 -30q-10 0 -36.5 12t-26.5 23q0 12 22 34l100 107q24 25 34 28q9 3 26 3q21 0 34.5 -5t20.5 -11t26 -26z" />
    <glyph glyph-name="Edieresis" unicode="&#xcb;" horiz-adv-x="597" 
d="M551 0h-459q-29 -1 -35 19.5t-6 100.5q0 69 -1 116q0 111 32 353.5t52 242.5h394q48 0 48 -17q0 -8 -34 -78t-43 -70q-5 0 -21.5 11.5t-48.5 23.5t-75 12q-58 0 -100 -35t-42 -102q0 -57 32 -57q10 0 74 23.5t113 23.5q14 0 29.5 -5t15.5 -16q0 -5 -30 -84.5t-38 -79.5
q-1 0 -32.5 10t-54.5 10q-46 0 -85.5 -34.5t-39.5 -101.5q0 -62 32.5 -100t93.5 -38q43 0 83.5 16.5t66.5 33t34 16.5q10 0 46 -84t36 -95q0 -5 -2.5 -8.5t-7.5 -5t-8 -2t-11 0.5h-8zM413 901q-38 0 -63.5 21.5t-25.5 58.5t25.5 58.5t63.5 21.5t63.5 -21.5t25.5 -58.5
t-25.5 -58.5t-63.5 -21.5zM184 901q-38 0 -63.5 21.5t-25.5 58.5t25.5 58.5t63.5 21.5t63.5 -21.5t25.5 -58.5t-25.5 -58.5t-63.5 -21.5z" />
    <glyph glyph-name="Igrave" unicode="&#xcc;" horiz-adv-x="327" 
d="M239 0h-122h-3q-10 0 -15.5 2t-13.5 20t-12 53.5t-7.5 106.5t-3.5 174q0 217 14.5 332.5t26 129.5t26.5 14h2h108h6h7.5t7 -0.5t7 -1.5t5 -2.5t4 -4.5t1.5 -7q0 -2 -5.5 -23t-13.5 -56.5t-15.5 -79t-13 -100.5t-5.5 -111q0 -72 5 -141.5t12.5 -119t15 -88t12.5 -61
t5 -25.5q0 -11 -15 -11h-20zM151 1054l76 -142q12 -20 12 -26q0 -7 -13 -7q-28 -3 -78.5 38.5t-88.5 87t-38 58.5q0 8 4.5 13.5t14 7.5t16 2.5t18 0t12.5 -0.5h14.5h12t8 -0.5t7.5 -2t5.5 -3t5.5 -6t5 -8.5t7 -12z" />
    <glyph glyph-name="Iacute" unicode="&#xcd;" horiz-adv-x="327" 
d="M239 0h-122h-3q-10 0 -15.5 2t-13.5 20t-12 53.5t-7.5 106.5t-3.5 174q0 217 14.5 332.5t26 129.5t26.5 14h2h108h6h7.5t7 -0.5t7 -1.5t5 -2.5t4 -4.5t1.5 -7q0 -2 -5.5 -23t-13.5 -56.5t-15.5 -79t-13 -100.5t-5.5 -111q0 -72 5 -141.5t12.5 -119t15 -88t12.5 -61
t5 -25.5q0 -11 -15 -11h-20zM120 912l76 142q4 8 7 12t5 8.5t5.5 6t5.5 3t7.5 2t8 0.5h12h14.5q1 0 12.5 0.5t18 0t16 -2.5t14 -7.5t4.5 -13.5q0 -13 -38 -58.5t-88.5 -87t-78.5 -38.5q-13 0 -13 7q0 6 12 26z" />
    <glyph glyph-name="Icircumflex" unicode="&#xce;" horiz-adv-x="327" 
d="M239 0h-122h-3q-10 0 -15.5 2t-13.5 20t-12 53.5t-7.5 106.5t-3.5 174q0 217 14.5 332.5t26 129.5t26.5 14h2h108h6h7.5t7 -0.5t7 -1.5t5 -2.5t4 -4.5t1.5 -7q0 -2 -5.5 -23t-13.5 -56.5t-15.5 -79t-13 -100.5t-5.5 -111q0 -72 5 -141.5t12.5 -119t15 -88t12.5 -61
t5 -25.5q0 -11 -15 -11h-20zM254 1049l108 -107q13 -11 13 -19q0 -3 -18 -12.5t-42 -18t-37 -8.5q-5 0 -21 13l-60 59q-23 23 -30 23q-12 0 -33 -25l-37 -40q-30 -30 -43 -30q-10 0 -36.5 12t-26.5 23q0 12 22 34l100 107q24 25 34 28q9 3 26 3q21 0 34.5 -5t20.5 -11
t26 -26z" />
    <glyph glyph-name="Idieresis" unicode="&#xcf;" horiz-adv-x="327" 
d="M239 0h-122h-3q-10 0 -15.5 2t-13.5 20t-12 53.5t-7.5 106.5t-3.5 174q0 217 14.5 332.5t26 129.5t26.5 14h2h108h6h7.5t7 -0.5t7 -1.5t5 -2.5t4 -4.5t1.5 -7q0 -2 -5.5 -23t-13.5 -56.5t-15.5 -79t-13 -100.5t-5.5 -111q0 -72 5 -141.5t12.5 -119t15 -88t12.5 -61
t5 -25.5q0 -11 -15 -11h-20zM278 901q-38 0 -63.5 21.5t-25.5 58.5t25.5 58.5t63.5 21.5t63.5 -21.5t25.5 -58.5t-25.5 -58.5t-63.5 -21.5zM49 901q-38 0 -63.5 21.5t-25.5 58.5t25.5 58.5t63.5 21.5t63.5 -21.5t25.5 -58.5t-25.5 -58.5t-63.5 -21.5z" />
    <glyph glyph-name="Eth" unicode="&#xd0;" horiz-adv-x="670" 
d="M-12 383v74q0 17 15 17h48q2 90 6.5 156.5t10.5 104.5t14.5 60.5t16 29.5t17.5 7h173q40 0 85.5 -17t94.5 -56.5t87.5 -97t63.5 -147t25 -196.5q0 -91 -27 -160t-92 -113.5t-162 -44.5h-258q-36 0 -46 70t-10 286v10h-47q-15 0 -15 17zM206 522v-48h121q19 0 30 -23
l22 -50q6 -12 6 -20q0 -15 -22 -15h-157q0 -61 7.5 -106t19 -70t29 -39.5t32.5 -18.5t34 -4q23 0 47.5 11.5t50 36t41.5 72t16 111.5q0 87 -20.5 158.5t-51.5 112.5t-63 62.5t-58 21.5q-37 0 -60.5 -52.5t-23.5 -139.5z" />
    <glyph glyph-name="Ntilde" unicode="&#xd1;" horiz-adv-x="709" 
d="M604 0h-105q-20 0 -28 8t-14.5 35t-15 64t-36 111t-69.5 160q-23 48 -68 121.5t-65 73.5q-7 0 -11.5 -10.5t-6 -29.5t-1.5 -34t0.5 -34.5t0.5 -20.5q0 -124 10.5 -220.5t20.5 -148t10 -66.5q0 -4 -2 -6t-5.5 -2.5t-6.5 -1t-7.5 0t-6.5 0.5h-93h-3q-10 0 -15.5 2t-13.5 20
t-12 53.5t-7.5 106.5t-3.5 174q0 217 14.5 332.5t26 129.5t26.5 14h2h79q71 0 301 -426q11 -18 17 -18q8 0 8 57q0 82 -13 170.5t-25.5 144.5t-12.5 61q0 3 1 5t3.5 3.5t5.5 2t7 0.5h7.5h8.5h8h76h2q18 0 29 -14.5t24.5 -129t13.5 -332.5q0 -103 -3.5 -174t-7.5 -106.5
t-12.5 -53.5t-13.5 -20t-15 -2h-3zM277 1061q39 0 76 -16q83 -32 116 -32q20 0 32.5 6.5t16 14t7.5 14t11 6.5q24 0 24 -13q0 -4 -2 -14.5t-10.5 -30t-23 -36t-44 -29t-67.5 -12.5q-43 0 -109 24q-61 23 -83 23q-18 0 -27 -9t-11 -18t-3 -9q-30 0 -30 14q0 40 34 78.5
t93 38.5z" />
    <glyph glyph-name="Ograve" unicode="&#xd2;" horiz-adv-x="712" 
d="M406 -15h-100q-97 0 -162 44.5t-92 113.5t-27 160q0 129 43 254t120.5 207.5t167.5 82.5t167.5 -82.5t120.5 -207.5t43 -254q0 -91 -27 -160t-92 -113.5t-162 -44.5zM356 163q169 0 169 162q0 154 -56 257t-113 103t-113 -103t-56 -257q0 -162 169 -162zM314 1054
l76 -142q12 -20 12 -26q0 -7 -13 -7q-28 -3 -78.5 38.5t-88.5 87t-38 58.5q0 8 4.5 13.5t14 7.5t16 2.5t18 0t12.5 -0.5h14.5h12t8 -0.5t7.5 -2t5.5 -3t5.5 -6t5 -8.5t7 -12z" />
    <glyph glyph-name="Oacute" unicode="&#xd3;" horiz-adv-x="712" 
d="M406 -15h-100q-97 0 -162 44.5t-92 113.5t-27 160q0 129 43 254t120.5 207.5t167.5 82.5t167.5 -82.5t120.5 -207.5t43 -254q0 -91 -27 -160t-92 -113.5t-162 -44.5zM356 163q169 0 169 162q0 154 -56 257t-113 103t-113 -103t-56 -257q0 -162 169 -162zM293 912l76 142
q4 8 7 12t5 8.5t5.5 6t5.5 3t7.5 2t8 0.5h12h14.5q1 0 12.5 0.5t18 0t16 -2.5t14 -7.5t4.5 -13.5q0 -13 -38 -58.5t-88.5 -87t-78.5 -38.5q-13 0 -13 7q0 6 12 26z" />
    <glyph glyph-name="Ocircumflex" unicode="&#xd4;" horiz-adv-x="712" 
d="M406 -15h-100q-97 0 -162 44.5t-92 113.5t-27 160q0 129 43 254t120.5 207.5t167.5 82.5t167.5 -82.5t120.5 -207.5t43 -254q0 -91 -27 -160t-92 -113.5t-162 -44.5zM356 163q169 0 169 162q0 154 -56 257t-113 103t-113 -103t-56 -257q0 -162 169 -162zM447 1049
l108 -107q13 -11 13 -19q0 -3 -18 -12.5t-42 -18t-37 -8.5q-5 0 -21 13l-60 59q-23 23 -30 23q-12 0 -33 -25l-37 -40q-30 -30 -43 -30q-10 0 -36.5 12t-26.5 23q0 12 22 34l100 107q24 25 34 28q9 3 26 3q21 0 34.5 -5t20.5 -11t26 -26z" />
    <glyph glyph-name="Otilde" unicode="&#xd5;" horiz-adv-x="712" 
d="M406 -15h-100q-97 0 -162 44.5t-92 113.5t-27 160q0 129 43 254t120.5 207.5t167.5 82.5t167.5 -82.5t120.5 -207.5t43 -254q0 -91 -27 -160t-92 -113.5t-162 -44.5zM356 163q169 0 169 162q0 154 -56 257t-113 103t-113 -103t-56 -257q0 -162 169 -162zM278 1061
q39 0 76 -16q83 -32 116 -32q20 0 32.5 6.5t16 14t7.5 14t11 6.5q24 0 24 -13q0 -4 -2 -14.5t-10.5 -30t-23 -36t-44 -29t-67.5 -12.5q-43 0 -109 24q-61 23 -83 23q-18 0 -27 -9t-11 -18t-3 -9q-30 0 -30 14q0 40 34 78.5t93 38.5z" />
    <glyph glyph-name="Odieresis" unicode="&#xd6;" horiz-adv-x="712" 
d="M406 -15h-100q-97 0 -162 44.5t-92 113.5t-27 160q0 129 43 254t120.5 207.5t167.5 82.5t167.5 -82.5t120.5 -207.5t43 -254q0 -91 -27 -160t-92 -113.5t-162 -44.5zM356 163q169 0 169 162q0 154 -56 257t-113 103t-113 -103t-56 -257q0 -162 169 -162zM481 901
q-38 0 -63.5 21.5t-25.5 58.5t25.5 58.5t63.5 21.5t63.5 -21.5t25.5 -58.5t-25.5 -58.5t-63.5 -21.5zM252 901q-38 0 -63.5 21.5t-25.5 58.5t25.5 58.5t63.5 21.5t63.5 -21.5t25.5 -58.5t-25.5 -58.5t-63.5 -21.5z" />
    <glyph glyph-name="multiply" unicode="&#xd7;" 
d="M536 101l-68 -60l-182 211l-181 -210l-68 59l193 217l-188 216l67 62l184 -210l178 211l66 -61l-191 -217z" />
    <glyph glyph-name="Oslash" unicode="&#xd8;" horiz-adv-x="712" 
d="M118 46l-61 -74q-19 -25 -33 -25q-16 0 -28 10t-12 25q0 12 14 33l73 91q-46 88 -46 197q0 129 43 254t120.5 207.5t167.5 82.5q119 0 211 -132l66 81q1 1 4.5 6t5 6.5t5.5 6t6.5 6.5t6.5 4.5t8 3.5t9 1q14 0 24.5 -9.5t10.5 -23.5q0 -13 -21 -39l-87 -109
q82 -159 82 -346q0 -91 -27 -160t-92 -113.5t-162 -44.5h-100q-102 0 -188 61zM498 517l-260 -324q38 -30 118 -30q169 0 169 162q0 100 -27 192zM194 250l273 342q-21 37 -50.5 65t-60.5 28q-57 0 -113.5 -103.5t-55.5 -256.5q0 -17 7 -75z" />
    <glyph glyph-name="Ugrave" unicode="&#xd9;" horiz-adv-x="673" 
d="M483 832h98q8 0 14 -4t15 -25t15 -58.5t10.5 -111.5t4.5 -177q0 -471 -304 -471q-144 0 -223.5 112t-79.5 332q0 146 10.5 244t21 128.5t19.5 30.5h139q22 0 22 -13q0 -4 -12.5 -47t-25 -126.5t-12.5 -185.5q0 -154 43.5 -225.5t97.5 -71.5q20 0 36 3t40.5 19.5t41 45
t28.5 85t12 134.5q0 73 -5 136t-12 102t-14.5 67.5t-12.5 44t-5 19.5q0 13 38 13zM294 1054l76 -142q12 -20 12 -26q0 -7 -13 -7q-28 -3 -78.5 38.5t-88.5 87t-38 58.5q0 8 4.5 13.5t14 7.5t16 2.5t18 0t12.5 -0.5h14.5h12t8 -0.5t7.5 -2t5.5 -3t5.5 -6t5 -8.5t7 -12z" />
    <glyph glyph-name="Uacute" unicode="&#xda;" horiz-adv-x="673" 
d="M483 832h98q8 0 14 -4t15 -25t15 -58.5t10.5 -111.5t4.5 -177q0 -471 -304 -471q-144 0 -223.5 112t-79.5 332q0 146 10.5 244t21 128.5t19.5 30.5h139q22 0 22 -13q0 -4 -12.5 -47t-25 -126.5t-12.5 -185.5q0 -154 43.5 -225.5t97.5 -71.5q20 0 36 3t40.5 19.5t41 45
t28.5 85t12 134.5q0 73 -5 136t-12 102t-14.5 67.5t-12.5 44t-5 19.5q0 13 38 13zM303 912l76 142q4 8 7 12t5 8.5t5.5 6t5.5 3t7.5 2t8 0.5h12h14.5q1 0 12.5 0.5t18 0t16 -2.5t14 -7.5t4.5 -13.5q0 -13 -38 -58.5t-88.5 -87t-78.5 -38.5q-13 0 -13 7q0 6 12 26z" />
    <glyph glyph-name="Ucircumflex" unicode="&#xdb;" horiz-adv-x="673" 
d="M483 832h98q8 0 14 -4t15 -25t15 -58.5t10.5 -111.5t4.5 -177q0 -471 -304 -471q-144 0 -223.5 112t-79.5 332q0 146 10.5 244t21 128.5t19.5 30.5h139q22 0 22 -13q0 -4 -12.5 -47t-25 -126.5t-12.5 -185.5q0 -154 43.5 -225.5t97.5 -71.5q20 0 36 3t40.5 19.5t41 45
t28.5 85t12 134.5q0 73 -5 136t-12 102t-14.5 67.5t-12.5 44t-5 19.5q0 13 38 13zM408 1049l108 -107q13 -11 13 -19q0 -3 -18 -12.5t-42 -18t-37 -8.5q-5 0 -21 13l-60 59q-23 23 -30 23q-12 0 -33 -25l-37 -40q-30 -30 -43 -30q-10 0 -36.5 12t-26.5 23q0 12 22 34
l100 107q24 25 34 28q9 3 26 3q21 0 34.5 -5t20.5 -11t26 -26z" />
    <glyph glyph-name="Udieresis" unicode="&#xdc;" horiz-adv-x="673" 
d="M483 832h98q8 0 14 -4t15 -25t15 -58.5t10.5 -111.5t4.5 -177q0 -471 -304 -471q-144 0 -223.5 112t-79.5 332q0 146 10.5 244t21 128.5t19.5 30.5h139q22 0 22 -13q0 -4 -12.5 -47t-25 -126.5t-12.5 -185.5q0 -154 43.5 -225.5t97.5 -71.5q20 0 36 3t40.5 19.5t41 45
t28.5 85t12 134.5q0 73 -5 136t-12 102t-14.5 67.5t-12.5 44t-5 19.5q0 13 38 13zM451 901q-38 0 -63.5 21.5t-25.5 58.5t25.5 58.5t63.5 21.5t63.5 -21.5t25.5 -58.5t-25.5 -58.5t-63.5 -21.5zM222 901q-38 0 -63.5 21.5t-25.5 58.5t25.5 58.5t63.5 21.5t63.5 -21.5
t25.5 -58.5t-25.5 -58.5t-63.5 -21.5z" />
    <glyph glyph-name="Yacute" unicode="&#xdd;" horiz-adv-x="644" 
d="M505 832h75q29 0 38.5 -11.5t9.5 -41.5q0 -73 -19.5 -138.5t-49 -111.5t-63.5 -97.5t-63.5 -97.5t-49 -111.5t-19.5 -139.5q0 -11 3 -32.5t3 -31.5q0 -19 -46 -19h-116q-31 0 -31 58q0 52 16.5 105t33.5 88.5t17 47.5q0 8 -23.5 34.5t-57 66.5t-67 90t-57 121t-23.5 145
q0 53 11 64.5t48 11.5h80q47 0 55 -16q2 -4 2 -10q0 -3 -4.5 -35.5t-4.5 -42.5q0 -66 26 -132t56 -103t46 -37q15 0 49 43.5t64 111t30 122.5q0 19 -4.5 50t-4.5 32q0 5 2 8.5t5 5t8 2.5t8 1h9.5h7.5zM309 912l76 142q4 8 7 12t5 8.5t5.5 6t5.5 3t7.5 2t8 0.5h12h14.5
q1 0 12.5 0.5t18 0t16 -2.5t14 -7.5t4.5 -13.5q0 -13 -38 -58.5t-88.5 -87t-78.5 -38.5q-13 0 -13 7q0 6 12 26z" />
    <glyph glyph-name="Thorn" unicode="&#xde;" horiz-adv-x="624" 
d="M77 342v143q0 347 47 347h141q14 0 14 -10q0 -4 -2 -16l-18 -96q32 -2 49 -2q24 0 72 2t72 2q71 0 121 -49t50 -132q0 -84 -48 -148t-146 -136l-141 -104q-15 -10 -15 -25t4 -31l13 -51q4 -20 4 -25q0 -11 -27 -11h-155q-16 0 -19 21q-16 109 -16 321zM240 429l6 -102
q2 -22 5.5 -31t14.5 -9q15 0 63.5 33.5t95 86t46.5 91.5q0 86 -104 86q-72 0 -100 -25t-28 -74q0 -34 1 -56z" />
    <glyph glyph-name="germandbls" unicode="&#xdf;" horiz-adv-x="557" 
d="M182 0h-73q-25 0 -32 6q-21 21 -25 187q-2 78 -2 213q0 177 12 252.5t40 119.5q57 90 162 90q71 0 123.5 -48.5t52.5 -125.5q0 -50 -18 -83.5t-35.5 -47.5t-17.5 -17q0 -2 17.5 -13t42.5 -34t50.5 -56.5t43 -92.5t17.5 -130q0 -65 -17.5 -113.5t-45.5 -73.5t-58 -36.5
t-61 -11.5q-37 0 -73.5 21t-36.5 37q0 10 33 68.5t43 58.5q4 0 15.5 -7.5t20.5 -7.5q34 0 34 69q0 100 -42 184t-74 84q-7 0 -19.5 -9.5t-14.5 -9.5q-15 0 -15 50q0 45 7.5 58t28.5 18q22 5 36.5 26.5t14.5 50.5q0 23 -13 40t-36 17q-15 0 -23.5 -2.5t-21 -17.5t-19.5 -44.5
t-12.5 -87.5t-5.5 -142q0 -83 9.5 -182t18.5 -165t9 -69q0 -13 -7 -18t-33 -5z" />
    <glyph glyph-name="agrave" unicode="&#xe0;" horiz-adv-x="520" 
d="M331 197v44v13v14t-0.5 12.5t-2.5 12.5l-5 10t-7.5 8.5t-11 4.5t-15.5 2q-46 0 -83.5 -33t-37.5 -78q0 -40 30 -64.5t72 -24.5q21 0 34 5t18.5 17t7 23.5t1.5 33.5zM33 184q0 89 72 152.5t164 79.5q18 3 27 6t17 12t8 25q0 36 -30 57t-67 21q-35 0 -57 -13.5t-28 -29.5
t-11.5 -29.5t-12.5 -13.5q-25 0 -46 25t-21 57q0 54 51.5 88t123.5 34q169 0 220 -139q23 -64 23 -389q0 -23 4 -55.5t4 -48.5q0 -23 -183 -23q-258 0 -258 184zM248 861l76 -142q12 -20 12 -26q0 -7 -13 -7q-28 -3 -78.5 38.5t-88.5 87t-38 58.5q0 8 4.5 13.5t14 7.5
t16 2.5t18 0t12.5 -0.5h14.5h12t8 -0.5t7.5 -2t5.5 -3t5.5 -6t5 -8.5t7 -12z" />
    <glyph glyph-name="aacute" unicode="&#xe1;" horiz-adv-x="520" 
d="M331 197v44v13v14t-0.5 12.5t-2.5 12.5l-5 10t-7.5 8.5t-11 4.5t-15.5 2q-46 0 -83.5 -33t-37.5 -78q0 -40 30 -64.5t72 -24.5q21 0 34 5t18.5 17t7 23.5t1.5 33.5zM33 184q0 89 72 152.5t164 79.5q18 3 27 6t17 12t8 25q0 36 -30 57t-67 21q-35 0 -57 -13.5t-28 -29.5
t-11.5 -29.5t-12.5 -13.5q-25 0 -46 25t-21 57q0 54 51.5 88t123.5 34q169 0 220 -139q23 -64 23 -389q0 -23 4 -55.5t4 -48.5q0 -23 -183 -23q-258 0 -258 184zM227 719l76 142q4 8 7 12t5 8.5t5.5 6t5.5 3t7.5 2t8 0.5h12h14.5q1 0 12.5 0.5t18 0t16 -2.5t14 -7.5
t4.5 -13.5q0 -13 -38 -58.5t-88.5 -87t-78.5 -38.5q-13 0 -13 7q0 6 12 26z" />
    <glyph glyph-name="acircumflex" unicode="&#xe2;" horiz-adv-x="520" 
d="M331 197v44v13v14t-0.5 12.5t-2.5 12.5l-5 10t-7.5 8.5t-11 4.5t-15.5 2q-46 0 -83.5 -33t-37.5 -78q0 -40 30 -64.5t72 -24.5q21 0 34 5t18.5 17t7 23.5t1.5 33.5zM33 184q0 89 72 152.5t164 79.5q18 3 27 6t17 12t8 25q0 36 -30 57t-67 21q-35 0 -57 -13.5t-28 -29.5
t-11.5 -29.5t-12.5 -13.5q-25 0 -46 25t-21 57q0 54 51.5 88t123.5 34q169 0 220 -139q23 -64 23 -389q0 -23 4 -55.5t4 -48.5q0 -23 -183 -23q-258 0 -258 184zM321 856l108 -107q13 -11 13 -19q0 -3 -18 -12.5t-42 -18t-37 -8.5q-5 0 -21 13l-60 59q-23 23 -30 23
q-12 0 -33 -25l-37 -40q-30 -30 -43 -30q-10 0 -36.5 12t-26.5 23q0 12 22 34l100 107q24 25 34 28q9 3 26 3q21 0 34.5 -5t20.5 -11t26 -26z" />
    <glyph glyph-name="atilde" unicode="&#xe3;" horiz-adv-x="520" 
d="M331 197v44v13v14t-0.5 12.5t-2.5 12.5l-5 10t-7.5 8.5t-11 4.5t-15.5 2q-46 0 -83.5 -33t-37.5 -78q0 -40 30 -64.5t72 -24.5q21 0 34 5t18.5 17t7 23.5t1.5 33.5zM33 184q0 89 72 152.5t164 79.5q18 3 27 6t17 12t8 25q0 36 -30 57t-67 21q-35 0 -57 -13.5t-28 -29.5
t-11.5 -29.5t-12.5 -13.5q-25 0 -46 25t-21 57q0 54 51.5 88t123.5 34q169 0 220 -139q23 -64 23 -389q0 -23 4 -55.5t4 -48.5q0 -23 -183 -23q-258 0 -258 184zM182 868q39 0 76 -16q83 -32 116 -32q20 0 32.5 6.5t16 14t7.5 14t11 6.5q24 0 24 -13q0 -4 -2 -14.5
t-10.5 -30t-23 -36t-44 -29t-67.5 -12.5q-43 0 -109 24q-61 23 -83 23q-18 0 -27 -9t-11 -18t-3 -9q-30 0 -30 14q0 40 34 78.5t93 38.5z" />
    <glyph glyph-name="adieresis" unicode="&#xe4;" horiz-adv-x="520" 
d="M331 197v44v13v14t-0.5 12.5t-2.5 12.5l-5 10t-7.5 8.5t-11 4.5t-15.5 2q-46 0 -83.5 -33t-37.5 -78q0 -40 30 -64.5t72 -24.5q21 0 34 5t18.5 17t7 23.5t1.5 33.5zM33 184q0 89 72 152.5t164 79.5q18 3 27 6t17 12t8 25q0 36 -30 57t-67 21q-35 0 -57 -13.5t-28 -29.5
t-11.5 -29.5t-12.5 -13.5q-25 0 -46 25t-21 57q0 54 51.5 88t123.5 34q169 0 220 -139q23 -64 23 -389q0 -23 4 -55.5t4 -48.5q0 -23 -183 -23q-258 0 -258 184zM375 708q-38 0 -63.5 21.5t-25.5 58.5t25.5 58.5t63.5 21.5t63.5 -21.5t25.5 -58.5t-25.5 -58.5t-63.5 -21.5z
M146 708q-38 0 -63.5 21.5t-25.5 58.5t25.5 58.5t63.5 21.5t63.5 -21.5t25.5 -58.5t-25.5 -58.5t-63.5 -21.5z" />
    <glyph glyph-name="aring" unicode="&#xe5;" horiz-adv-x="520" 
d="M331 197v44v13v14t-0.5 12.5t-2.5 12.5l-5 10t-7.5 8.5t-11 4.5t-15.5 2q-46 0 -83.5 -33t-37.5 -78q0 -40 30 -64.5t72 -24.5q21 0 34 5t18.5 17t7 23.5t1.5 33.5zM33 184q0 89 72 152.5t164 79.5q18 3 27 6t17 12t8 25q0 36 -30 57t-67 21q-35 0 -57 -13.5t-28 -29.5
t-11.5 -29.5t-12.5 -13.5q-25 0 -46 25t-21 57q0 54 51.5 88t123.5 34q169 0 220 -139q23 -64 23 -389q0 -23 4 -55.5t4 -48.5q0 -23 -183 -23q-258 0 -258 184zM250 677q-52 0 -87.5 34t-35.5 83q0 47 35 80.5t86 33.5q54 0 89.5 -32.5t35.5 -82.5q0 -48 -36 -82t-87 -34z
M250 739q23 0 37 16t14 40q0 21 -15.5 36t-36.5 15t-35.5 -15.5t-14.5 -36.5q0 -23 14 -39t37 -16z" />
    <glyph glyph-name="ae" unicode="&#xe6;" horiz-adv-x="821" 
d="M580 537q-56 0 -92 -47.5t-36 -97.5q0 -22 18 -22q26 0 110 29.5t84 61.5q0 34 -26.5 55t-57.5 21zM331 197v44v13v14t-0.5 12.5t-2.5 12.5l-5 10t-7.5 8.5t-11 4.5t-15.5 2q-46 0 -83.5 -33t-37.5 -78q0 -40 30 -64.5t72 -24.5q21 0 34 5t18.5 17t7 23.5t1.5 33.5z
M33 184q0 89 72 152.5t164 79.5q18 3 27 6t17 12t8 25q0 36 -30 57t-67 21q-35 0 -57 -13.5t-28 -29.5t-11.5 -29.5t-12.5 -13.5q-25 0 -46 25t-21 57q0 54 51.5 88t123.5 34q123 0 189 -82q71 82 173 82q87 0 145 -47.5t58 -132.5q0 -60 -33 -100.5t-80.5 -59.5t-95 -33.5
t-80.5 -33.5t-33 -47q0 -33 42 -57t84 -24q46 0 80 13t50 31t26 36.5t14.5 31.5t7.5 13q10 0 14 -22.5t4 -37.5q0 -92 -62.5 -146t-155.5 -54q-77 0 -135 46q-1 -1 -3.5 -6.5t-4.5 -7t-8.5 -5.5t-16.5 -5.5t-27 -3.5t-42.5 -2.5t-59.5 -0.5q-137 0 -188.5 48t-51.5 136z" />
    <glyph glyph-name="ccedilla" unicode="&#xe7;" horiz-adv-x="488" 
d="M97 -99q0 10 32 38.5t71 52.5q-88 23 -133.5 107t-45.5 189q0 67 17 130.5t50.5 117t89.5 86.5t127 33q64 0 107 -30.5t43 -73.5q0 -27 -17 -57.5t-42 -30.5q-8 0 -16.5 18.5t-28.5 37t-55 18.5q-48 0 -81.5 -39t-46 -86.5t-12.5 -94.5q0 -77 36.5 -127.5t104.5 -50.5
q30 0 55 10t39.5 24.5t24.5 29.5t15.5 25t7.5 10q3 0 6 -6t6 -20t3 -33q0 -114 -84 -165q-2 -2 -18 -14.5t-26 -24t-10 -23.5q0 -8 19 -16.5t37.5 -24t18.5 -41.5q0 -38 -42 -66t-91 -39.5t-89 -11.5q-36 0 -36 13q0 7 40 25.5t40 38.5q0 22 -18 36t-40 18t-40 8t-18 9z" />
    <glyph glyph-name="egrave" unicode="&#xe8;" horiz-adv-x="525" 
d="M274 -15q-126 0 -189.5 88.5t-63.5 219.5q0 171 79.5 266.5t188.5 95.5q87 0 145 -47.5t58 -132.5q0 -60 -33 -100.5t-80.5 -59.5t-95 -33.5t-80.5 -33.5t-33 -47q0 -33 42 -57t84 -24q46 0 80 13t50 31t26 36.5t14.5 31.5t7.5 13q10 0 14 -22.5t4 -37.5
q0 -92 -62.5 -146t-155.5 -54zM284 537q-56 0 -92 -47.5t-36 -97.5q0 -22 18 -22q26 0 110 29.5t84 61.5q0 34 -26.5 55t-57.5 21zM280 861l76 -142q12 -20 12 -26q0 -7 -13 -7q-28 -3 -78.5 38.5t-88.5 87t-38 58.5q0 8 4.5 13.5t14 7.5t16 2.5t18 0t12.5 -0.5h14.5h12
t8 -0.5t7.5 -2t5.5 -3t5.5 -6t5 -8.5t7 -12z" />
    <glyph glyph-name="eacute" unicode="&#xe9;" horiz-adv-x="525" 
d="M274 -15q-126 0 -189.5 88.5t-63.5 219.5q0 171 79.5 266.5t188.5 95.5q87 0 145 -47.5t58 -132.5q0 -60 -33 -100.5t-80.5 -59.5t-95 -33.5t-80.5 -33.5t-33 -47q0 -33 42 -57t84 -24q46 0 80 13t50 31t26 36.5t14.5 31.5t7.5 13q10 0 14 -22.5t4 -37.5
q0 -92 -62.5 -146t-155.5 -54zM284 537q-56 0 -92 -47.5t-36 -97.5q0 -22 18 -22q26 0 110 29.5t84 61.5q0 34 -26.5 55t-57.5 21zM229 719l76 142q4 8 7 12t5 8.5t5.5 6t5.5 3t7.5 2t8 0.5h12h14.5q1 0 12.5 0.5t18 0t16 -2.5t14 -7.5t4.5 -13.5q0 -13 -38 -58.5t-88.5 -87
t-78.5 -38.5q-13 0 -13 7q0 6 12 26z" />
    <glyph glyph-name="ecircumflex" unicode="&#xea;" horiz-adv-x="525" 
d="M274 -15q-126 0 -189.5 88.5t-63.5 219.5q0 171 79.5 266.5t188.5 95.5q87 0 145 -47.5t58 -132.5q0 -60 -33 -100.5t-80.5 -59.5t-95 -33.5t-80.5 -33.5t-33 -47q0 -33 42 -57t84 -24q46 0 80 13t50 31t26 36.5t14.5 31.5t7.5 13q10 0 14 -22.5t4 -37.5
q0 -92 -62.5 -146t-155.5 -54zM284 537q-56 0 -92 -47.5t-36 -97.5q0 -22 18 -22q26 0 110 29.5t84 61.5q0 34 -26.5 55t-57.5 21zM334 856l108 -107q13 -11 13 -19q0 -3 -18 -12.5t-42 -18t-37 -8.5q-5 0 -21 13l-60 59q-23 23 -30 23q-12 0 -33 -25l-37 -40
q-30 -30 -43 -30q-10 0 -36.5 12t-26.5 23q0 12 22 34l100 107q24 25 34 28q9 3 26 3q21 0 34.5 -5t20.5 -11t26 -26z" />
    <glyph glyph-name="edieresis" unicode="&#xeb;" horiz-adv-x="525" 
d="M274 -15q-126 0 -189.5 88.5t-63.5 219.5q0 171 79.5 266.5t188.5 95.5q87 0 145 -47.5t58 -132.5q0 -60 -33 -100.5t-80.5 -59.5t-95 -33.5t-80.5 -33.5t-33 -47q0 -33 42 -57t84 -24q46 0 80 13t50 31t26 36.5t14.5 31.5t7.5 13q10 0 14 -22.5t4 -37.5
q0 -92 -62.5 -146t-155.5 -54zM284 537q-56 0 -92 -47.5t-36 -97.5q0 -22 18 -22q26 0 110 29.5t84 61.5q0 34 -26.5 55t-57.5 21zM377 708q-38 0 -63.5 21.5t-25.5 58.5t25.5 58.5t63.5 21.5t63.5 -21.5t25.5 -58.5t-25.5 -58.5t-63.5 -21.5zM148 708q-38 0 -63.5 21.5
t-25.5 58.5t25.5 58.5t63.5 21.5t63.5 -21.5t25.5 -58.5t-25.5 -58.5t-63.5 -21.5z" />
    <glyph glyph-name="igrave" unicode="&#xec;" horiz-adv-x="266" 
d="M167 0h-68q-27 0 -33 5q-16 14 -19 128q-1 58 -1 198q0 57 0.5 101t2 76t2.5 55t5 37.5t5 23t7 12.5t7.5 4.5t9.5 0t10 -0.5h55q30 0 36.5 -2.5t6.5 -12.5q0 -9 -6 -64t-6 -119q0 -71 4 -138.5t9.5 -115t11.5 -84t10 -57t4 -21.5q0 -8 -2.5 -13t-5.5 -8t-10 -4
l-10.5 -1.5t-12.5 0t-12 0.5zM121 861l76 -142q12 -20 12 -26q0 -7 -13 -7q-28 -3 -78.5 38.5t-88.5 87t-38 58.5q0 8 4.5 13.5t14 7.5t16 2.5t18 0t12.5 -0.5h14.5h12t8 -0.5t7.5 -2t5.5 -3t5.5 -6t5 -8.5t7 -12z" />
    <glyph glyph-name="iacute" unicode="&#xed;" horiz-adv-x="266" 
d="M167 0h-68q-27 0 -33 5q-16 14 -19 128q-1 58 -1 198q0 57 0.5 101t2 76t2.5 55t5 37.5t5 23t7 12.5t7.5 4.5t9.5 0t10 -0.5h55q30 0 36.5 -2.5t6.5 -12.5q0 -9 -6 -64t-6 -119q0 -71 4 -138.5t9.5 -115t11.5 -84t10 -57t4 -21.5q0 -8 -2.5 -13t-5.5 -8t-10 -4
l-10.5 -1.5t-12.5 0t-12 0.5zM70 719l76 142q4 8 7 12t5 8.5t5.5 6t5.5 3t7.5 2t8 0.5h12h14.5q1 0 12.5 0.5t18 0t16 -2.5t14 -7.5t4.5 -13.5q0 -13 -38 -58.5t-88.5 -87t-78.5 -38.5q-13 0 -13 7q0 6 12 26z" />
    <glyph glyph-name="icircumflex" unicode="&#xee;" horiz-adv-x="266" 
d="M167 0h-68q-27 0 -33 5q-16 14 -19 128q-1 58 -1 198q0 57 0.5 101t2 76t2.5 55t5 37.5t5 23t7 12.5t7.5 4.5t9.5 0t10 -0.5h55q30 0 36.5 -2.5t6.5 -12.5q0 -9 -6 -64t-6 -119q0 -71 4 -138.5t9.5 -115t11.5 -84t10 -57t4 -21.5q0 -8 -2.5 -13t-5.5 -8t-10 -4
l-10.5 -1.5t-12.5 0t-12 0.5zM204 856l108 -107q13 -11 13 -19q0 -3 -18 -12.5t-42 -18t-37 -8.5q-5 0 -21 13l-60 59q-23 23 -30 23q-12 0 -33 -25l-37 -40q-30 -30 -43 -30q-10 0 -36.5 12t-26.5 23q0 12 22 34l100 107q24 25 34 28q9 3 26 3q21 0 34.5 -5t20.5 -11
t26 -26z" />
    <glyph glyph-name="idieresis" unicode="&#xef;" horiz-adv-x="266" 
d="M167 0h-68q-27 0 -33 5q-16 14 -19 128q-1 58 -1 198q0 57 0.5 101t2 76t2.5 55t5 37.5t5 23t7 12.5t7.5 4.5t9.5 0t10 -0.5h55q30 0 36.5 -2.5t6.5 -12.5q0 -9 -6 -64t-6 -119q0 -71 4 -138.5t9.5 -115t11.5 -84t10 -57t4 -21.5q0 -8 -2.5 -13t-5.5 -8t-10 -4
l-10.5 -1.5t-12.5 0t-12 0.5zM248 708q-38 0 -63.5 21.5t-25.5 58.5t25.5 58.5t63.5 21.5t63.5 -21.5t25.5 -58.5t-25.5 -58.5t-63.5 -21.5zM19 708q-38 0 -63.5 21.5t-25.5 58.5t25.5 58.5t63.5 21.5t63.5 -21.5t25.5 -58.5t-25.5 -58.5t-63.5 -21.5z" />
    <glyph glyph-name="eth" unicode="&#xf0;" horiz-adv-x="544" 
d="M145 346q0 -33 6 -64.5t19.5 -62t39.5 -49t62 -18.5t62 18.5t39.5 49t19.5 62t6 64.5q0 32 -6 63.5t-20 61t-40 48t-61 18.5t-61 -18.5t-40 -48t-20 -61t-6 -63.5zM157 677l-42 47l101 43q-54 30 -93 30q-5 0 -5 4q0 3 3 5l86 62q10 6 14 6q15 0 58.5 -17t68.5 -34
l114 51l42 -49l-106 -45q125 -126 125 -375q0 -215 -70 -317.5t-181 -102.5q-45 0 -88 20t-80.5 59t-60 106t-22.5 151q0 155 64 244.5t163 89.5q60 0 104 -37h2q-25 65 -79 110z" />
    <glyph glyph-name="ntilde" unicode="&#xf1;" horiz-adv-x="552" 
d="M441 0h-86h-6h-7t-6 0.5t-6.5 1.5t-5 2.5t-3.5 4.5t-1 7q0 2 5.5 20t13 48.5t14.5 70t12.5 95t5.5 112.5q0 32 -2 55.5t-9 50t-23 40.5t-40 14q-18 0 -35 -8t-37 -28.5t-32 -68.5t-12 -118q0 -53 7.5 -121.5t14.5 -115.5t7 -49q0 -13 -27 -13h-85h-6q-20 -1 -27.5 8.5
t-13 63.5t-5.5 175q0 71 1 127t3.5 99t6 74.5t8.5 53t11 35.5t13.5 21.5t16 10.5t18.5 4t21 0h13h14.5h15h13t12 -1t8.5 -3t6 -5.5t2 -8.5q0 -4 -4.5 -16t-4.5 -20q0 -19 15 -19q3 0 46 20.5t81 20.5q14 0 26.5 -2t36 -16.5t39.5 -40.5t29 -80t13 -128q0 -109 -3.5 -182.5
t-8 -111t-14 -56t-15.5 -21t-19 -2.5h-5zM188 868q39 0 76 -16q83 -32 116 -32q20 0 32.5 6.5t16 14t7.5 14t11 6.5q24 0 24 -13q0 -4 -2 -14.5t-10.5 -30t-23 -36t-44 -29t-67.5 -12.5q-43 0 -109 24q-61 23 -83 23q-18 0 -27 -9t-11 -18t-3 -9q-30 0 -30 14q0 40 34 78.5
t93 38.5z" />
    <glyph glyph-name="ograve" unicode="&#xf2;" horiz-adv-x="544" 
d="M272 -15q-45 0 -88 20t-80.5 59t-60 106t-22.5 151q0 85 25.5 158.5t84 124.5t141.5 51t141.5 -51t84 -124.5t25.5 -158.5q0 -84 -22.5 -151t-60 -106t-80.5 -59t-88 -20zM272 152q36 0 62 18.5t39.5 49t19.5 62t6 64.5q0 32 -6 63.5t-20 61t-40 48t-61 18.5t-61 -18.5
t-40 -48t-20 -61t-6 -63.5q0 -33 6 -64.5t19.5 -62t39.5 -49t62 -18.5zM290 861l76 -142q12 -20 12 -26q0 -7 -13 -7q-28 -3 -78.5 38.5t-88.5 87t-38 58.5q0 8 4.5 13.5t14 7.5t16 2.5t18 0t12.5 -0.5h14.5h12t8 -0.5t7.5 -2t5.5 -3t5.5 -6t5 -8.5t7 -12z" />
    <glyph glyph-name="oacute" unicode="&#xf3;" horiz-adv-x="544" 
d="M272 -15q-45 0 -88 20t-80.5 59t-60 106t-22.5 151q0 85 25.5 158.5t84 124.5t141.5 51t141.5 -51t84 -124.5t25.5 -158.5q0 -84 -22.5 -151t-60 -106t-80.5 -59t-88 -20zM272 152q36 0 62 18.5t39.5 49t19.5 62t6 64.5q0 32 -6 63.5t-20 61t-40 48t-61 18.5t-61 -18.5
t-40 -48t-20 -61t-6 -63.5q0 -33 6 -64.5t19.5 -62t39.5 -49t62 -18.5zM209 719l76 142q4 8 7 12t5 8.5t5.5 6t5.5 3t7.5 2t8 0.5h12h14.5q1 0 12.5 0.5t18 0t16 -2.5t14 -7.5t4.5 -13.5q0 -13 -38 -58.5t-88.5 -87t-78.5 -38.5q-13 0 -13 7q0 6 12 26z" />
    <glyph glyph-name="ocircumflex" unicode="&#xf4;" horiz-adv-x="544" 
d="M272 -15q-45 0 -88 20t-80.5 59t-60 106t-22.5 151q0 85 25.5 158.5t84 124.5t141.5 51t141.5 -51t84 -124.5t25.5 -158.5q0 -84 -22.5 -151t-60 -106t-80.5 -59t-88 -20zM272 152q36 0 62 18.5t39.5 49t19.5 62t6 64.5q0 32 -6 63.5t-20 61t-40 48t-61 18.5t-61 -18.5
t-40 -48t-20 -61t-6 -63.5q0 -33 6 -64.5t19.5 -62t39.5 -49t62 -18.5zM343 856l108 -107q13 -11 13 -19q0 -3 -18 -12.5t-42 -18t-37 -8.5q-5 0 -21 13l-60 59q-23 23 -30 23q-12 0 -33 -25l-37 -40q-30 -30 -43 -30q-10 0 -36.5 12t-26.5 23q0 12 22 34l100 107
q24 25 34 28q9 3 26 3q21 0 34.5 -5t20.5 -11t26 -26z" />
    <glyph glyph-name="otilde" unicode="&#xf5;" horiz-adv-x="544" 
d="M272 -15q-45 0 -88 20t-80.5 59t-60 106t-22.5 151q0 85 25.5 158.5t84 124.5t141.5 51t141.5 -51t84 -124.5t25.5 -158.5q0 -84 -22.5 -151t-60 -106t-80.5 -59t-88 -20zM272 152q36 0 62 18.5t39.5 49t19.5 62t6 64.5q0 32 -6 63.5t-20 61t-40 48t-61 18.5t-61 -18.5
t-40 -48t-20 -61t-6 -63.5q0 -33 6 -64.5t19.5 -62t39.5 -49t62 -18.5zM194 868q39 0 76 -16q83 -32 116 -32q20 0 32.5 6.5t16 14t7.5 14t11 6.5q24 0 24 -13q0 -4 -2 -14.5t-10.5 -30t-23 -36t-44 -29t-67.5 -12.5q-43 0 -109 24q-61 23 -83 23q-18 0 -27 -9t-11 -18
t-3 -9q-30 0 -30 14q0 40 34 78.5t93 38.5z" />
    <glyph glyph-name="odieresis" unicode="&#xf6;" horiz-adv-x="544" 
d="M272 -15q-45 0 -88 20t-80.5 59t-60 106t-22.5 151q0 85 25.5 158.5t84 124.5t141.5 51t141.5 -51t84 -124.5t25.5 -158.5q0 -84 -22.5 -151t-60 -106t-80.5 -59t-88 -20zM272 152q36 0 62 18.5t39.5 49t19.5 62t6 64.5q0 32 -6 63.5t-20 61t-40 48t-61 18.5t-61 -18.5
t-40 -48t-20 -61t-6 -63.5q0 -33 6 -64.5t19.5 -62t39.5 -49t62 -18.5zM387 708q-38 0 -63.5 21.5t-25.5 58.5t25.5 58.5t63.5 21.5t63.5 -21.5t25.5 -58.5t-25.5 -58.5t-63.5 -21.5zM158 708q-38 0 -63.5 21.5t-25.5 58.5t25.5 58.5t63.5 21.5t63.5 -21.5t25.5 -58.5
t-25.5 -58.5t-63.5 -21.5z" />
    <glyph glyph-name="divide" unicode="&#xf7;" 
d="M293 462h-2q-25 0 -46 23t-21 54q0 30 21.5 53.5t47.5 23.5q28 0 48 -23t20 -54q0 -32 -20 -54.5t-48 -22.5zM529 282h-478v94h478v-94zM292 196h1q25 0 46 -22.5t21 -53.5q0 -30 -21 -54t-47 -24q-29 0 -49.5 23.5t-20.5 54.5q0 32 20 54t50 22z" />
    <glyph glyph-name="oslash" unicode="&#xf8;" horiz-adv-x="544" 
d="M440 578l29 40l7 9l10.5 13.5t11.5 9.5t15 5q36 0 36 -34q0 -19 -23 -45l-46 -59q43 -88 43 -196q0 -84 -22.5 -151t-60 -106t-80.5 -59t-88 -20q-93 0 -160 70l-37 -46q-1 -1 -4.5 -5.5t-5.5 -7t-6 -5.5t-8.5 -4.5t-9.5 -1.5q-15 0 -27 9.5t-12 25.5q0 13 19 34l48 59
q-48 80 -48 208q0 85 25.5 158.5t84 124.5t141.5 51q106 0 168 -77zM393 405l-185 -231q30 -22 64 -22q36 0 62 18.5t39.5 49t19.5 62t6 64.5q0 32 -6 59zM165 232l199 250q-30 55 -92 55q-35 0 -61 -18.5t-40 -48t-20 -61t-6 -63.5q0 -66 20 -114z" />
    <glyph glyph-name="ugrave" unicode="&#xf9;" horiz-adv-x="556" 
d="M374 640h93q43 0 43 -305q0 -53 -0.5 -95t-2.5 -76l-3.5 -59.5t-6.5 -44.5t-7 -32t-9.5 -21.5t-11 -13t-14 -6.5t-15.5 -2h-19h-9q-36 0 -49 8.5t-10 19.5t-1 19.5t-22 8.5q-4 0 -12 -5.5t-20 -14.5t-18 -13q-38 -23 -74 -23q-35 0 -61 13.5t-49.5 47.5t-36.5 104
t-13 173q0 16 2 58.5t6.5 105t15.5 108t25 45.5h92q2 0 9 0.5t11 0t9.5 -1.5t8 -4.5t2.5 -9.5q0 -1 -11.5 -39t-23 -109.5t-11.5 -155.5q0 -208 85 -208q109 0 109 225q0 53 -8.5 121.5t-17.5 116.5t-9 52q0 12 34 12zM266 861l76 -142q12 -20 12 -26q0 -7 -13 -7
q-28 -3 -78.5 38.5t-88.5 87t-38 58.5q0 8 4.5 13.5t14 7.5t16 2.5t18 0t12.5 -0.5h14.5h12t8 -0.5t7.5 -2t5.5 -3t5.5 -6t5 -8.5t7 -12z" />
    <glyph glyph-name="uacute" unicode="&#xfa;" horiz-adv-x="556" 
d="M374 640h93q43 0 43 -305q0 -53 -0.5 -95t-2.5 -76l-3.5 -59.5t-6.5 -44.5t-7 -32t-9.5 -21.5t-11 -13t-14 -6.5t-15.5 -2h-19h-9q-36 0 -49 8.5t-10 19.5t-1 19.5t-22 8.5q-4 0 -12 -5.5t-20 -14.5t-18 -13q-38 -23 -74 -23q-35 0 -61 13.5t-49.5 47.5t-36.5 104
t-13 173q0 16 2 58.5t6.5 105t15.5 108t25 45.5h92q2 0 9 0.5t11 0t9.5 -1.5t8 -4.5t2.5 -9.5q0 -1 -11.5 -39t-23 -109.5t-11.5 -155.5q0 -208 85 -208q109 0 109 225q0 53 -8.5 121.5t-17.5 116.5t-9 52q0 12 34 12zM245 719l76 142q4 8 7 12t5 8.5t5.5 6t5.5 3t7.5 2
t8 0.5h12h14.5q1 0 12.5 0.5t18 0t16 -2.5t14 -7.5t4.5 -13.5q0 -13 -38 -58.5t-88.5 -87t-78.5 -38.5q-13 0 -13 7q0 6 12 26z" />
    <glyph glyph-name="ucircumflex" unicode="&#xfb;" horiz-adv-x="556" 
d="M374 640h93q43 0 43 -305q0 -53 -0.5 -95t-2.5 -76l-3.5 -59.5t-6.5 -44.5t-7 -32t-9.5 -21.5t-11 -13t-14 -6.5t-15.5 -2h-19h-9q-36 0 -49 8.5t-10 19.5t-1 19.5t-22 8.5q-4 0 -12 -5.5t-20 -14.5t-18 -13q-38 -23 -74 -23q-35 0 -61 13.5t-49.5 47.5t-36.5 104
t-13 173q0 16 2 58.5t6.5 105t15.5 108t25 45.5h92q2 0 9 0.5t11 0t9.5 -1.5t8 -4.5t2.5 -9.5q0 -1 -11.5 -39t-23 -109.5t-11.5 -155.5q0 -208 85 -208q109 0 109 225q0 53 -8.5 121.5t-17.5 116.5t-9 52q0 12 34 12zM349 856l108 -107q13 -11 13 -19q0 -3 -18 -12.5
t-42 -18t-37 -8.5q-5 0 -21 13l-60 59q-23 23 -30 23q-12 0 -33 -25l-37 -40q-30 -30 -43 -30q-10 0 -36.5 12t-26.5 23q0 12 22 34l100 107q24 25 34 28q9 3 26 3q21 0 34.5 -5t20.5 -11t26 -26z" />
    <glyph glyph-name="udieresis" unicode="&#xfc;" horiz-adv-x="556" 
d="M374 640h93q43 0 43 -305q0 -53 -0.5 -95t-2.5 -76l-3.5 -59.5t-6.5 -44.5t-7 -32t-9.5 -21.5t-11 -13t-14 -6.5t-15.5 -2h-19h-9q-36 0 -49 8.5t-10 19.5t-1 19.5t-22 8.5q-4 0 -12 -5.5t-20 -14.5t-18 -13q-38 -23 -74 -23q-35 0 -61 13.5t-49.5 47.5t-36.5 104
t-13 173q0 16 2 58.5t6.5 105t15.5 108t25 45.5h92q2 0 9 0.5t11 0t9.5 -1.5t8 -4.5t2.5 -9.5q0 -1 -11.5 -39t-23 -109.5t-11.5 -155.5q0 -208 85 -208q109 0 109 225q0 53 -8.5 121.5t-17.5 116.5t-9 52q0 12 34 12zM393 708q-38 0 -63.5 21.5t-25.5 58.5t25.5 58.5
t63.5 21.5t63.5 -21.5t25.5 -58.5t-25.5 -58.5t-63.5 -21.5zM164 708q-38 0 -63.5 21.5t-25.5 58.5t25.5 58.5t63.5 21.5t63.5 -21.5t25.5 -58.5t-25.5 -58.5t-63.5 -21.5z" />
    <glyph glyph-name="yacute" unicode="&#xfd;" horiz-adv-x="513" 
d="M26 23v88q0 41 29 41q52 0 87.5 10.5t46.5 21t11 18.5q0 10 -18 29t-43.5 47.5t-51 68t-43.5 104t-18 142.5q0 35 4.5 41t33.5 6h82h6h7t6 -0.5t6.5 -1.5t5 -3t3.5 -5.5t1 -7.5q0 -5 -4.5 -31.5t-4.5 -43.5q0 -41 15.5 -84.5t36 -73.5t39.5 -49.5t27 -19.5q28 0 47.5 66
t19.5 131q0 29 -5.5 66.5t-5.5 41.5t1.5 6.5t4 4t5 2.5t7 1.5t6.5 0.5h6.5h5.5h89q3 0 5.5 -1.5t4 -4.5l3 -6t2 -8t1 -9t0.5 -10.5v-11.5v-13.5v-13.5q3 -107 -34 -213.5t-98.5 -185.5t-142.5 -128.5t-162 -49.5q-16 0 -20 9t-4 29zM243 719l76 142q4 8 7 12t5 8.5t5.5 6
t5.5 3t7.5 2t8 0.5h12h14.5q1 0 12.5 0.5t18 0t16 -2.5t14 -7.5t4.5 -13.5q0 -13 -38 -58.5t-88.5 -87t-78.5 -38.5q-13 0 -13 7q0 6 12 26z" />
    <glyph glyph-name="thorn" unicode="&#xfe;" horiz-adv-x="525" 
d="M181 334q0 -23 1.5 -36t12.5 -26t32 -13q65 0 113 52t48 116q0 48 -34 79t-82 31q-20 0 -30.5 -2t-24 -12.5t-20 -31t-11.5 -60t-5 -97.5zM46 163v331q0 102 6 185.5t15.5 128.5t20.5 45h101q31 0 31 -21q0 -2 -7.5 -32t-15 -69.5t-7.5 -64.5q0 -14 11 -14q4 0 22 2
q5 0 13 0.5t10 0.5q135 0 200.5 -58.5t65.5 -152.5q0 -56 -25 -114.5t-61 -101t-75.5 -70t-68.5 -27.5q-17 0 -53 43q-4 4 -9 10.5t-8.5 10.5l-7 8t-6.5 6t-5 2q-7 0 -7 -36q0 -31 5 -68.5t9.5 -63.5t4.5 -29q0 -14 -23 -14h-102q-13 0 -20 11t-10.5 47t-3.5 105z" />
    <glyph glyph-name="ydieresis" unicode="&#xff;" horiz-adv-x="513" 
d="M26 23v88q0 41 29 41q52 0 87.5 10.5t46.5 21t11 18.5q0 10 -18 29t-43.5 47.5t-51 68t-43.5 104t-18 142.5q0 35 4.5 41t33.5 6h82h6h7t6 -0.5t6.5 -1.5t5 -3t3.5 -5.5t1 -7.5q0 -5 -4.5 -31.5t-4.5 -43.5q0 -41 15.5 -84.5t36 -73.5t39.5 -49.5t27 -19.5q28 0 47.5 66
t19.5 131q0 29 -5.5 66.5t-5.5 41.5t1.5 6.5t4 4t5 2.5t7 1.5t6.5 0.5h6.5h5.5h89q3 0 5.5 -1.5t4 -4.5l3 -6t2 -8t1 -9t0.5 -10.5v-11.5v-13.5v-13.5q3 -107 -34 -213.5t-98.5 -185.5t-142.5 -128.5t-162 -49.5q-16 0 -20 9t-4 29zM371 708q-38 0 -63.5 21.5t-25.5 58.5
t25.5 58.5t63.5 21.5t63.5 -21.5t25.5 -58.5t-25.5 -58.5t-63.5 -21.5zM142 708q-38 0 -63.5 21.5t-25.5 58.5t25.5 58.5t63.5 21.5t63.5 -21.5t25.5 -58.5t-25.5 -58.5t-63.5 -21.5z" />
    <glyph glyph-name="dotlessi" unicode="&#x131;" horiz-adv-x="266" 
d="M167 0h-68q-27 0 -33 5q-16 14 -19 128q-1 58 -1 198q0 57 0.5 101t2 76t2.5 55t5 37.5t5 23t7 12.5t7.5 4.5t9.5 0t10 -0.5h55q30 0 36.5 -2.5t6.5 -12.5q0 -9 -6 -64t-6 -119q0 -71 4 -138.5t9.5 -115t11.5 -84t10 -57t4 -21.5q0 -8 -2.5 -13t-5.5 -8t-10 -4
l-10.5 -1.5t-12.5 0t-12 0.5z" />
    <glyph glyph-name="Lslash" unicode="&#x141;" horiz-adv-x="551" 
d="M380 640q20 0 20 -20q0 -16 -22.5 -64t-41.5 -48q-24 0 -49.5 -8.5t-42.5 -17t-20 -8.5q-28 0 -28 -175q0 -94 33 -132.5t82 -38.5q40 0 77.5 21t62 42.5t33.5 21.5q12 0 35 -92.5t23 -105.5q0 -6 -3 -9.5t-9 -4.5t-10.5 -1.5t-12 0t-8.5 0.5h-407q-29 -1 -35 19.5
t-6 100.5q0 69 -1 116q0 20 2.5 74.5t2.5 58.5q0 26 -25 26q-8 0 -23.5 -12.5t-31.5 -12.5q-9 0 -13.5 5t-4.5 8v12q0 28 15 71.5t44 43.5q34 0 51 26t17 62q0 40 19 137t31 97h159q19 0 19 -10q0 -21 -33 -97.5t-33 -99.5q0 -20 34 -20q18 0 51.5 17.5t48.5 17.5z" />
    <glyph glyph-name="lslash" unicode="&#x142;" horiz-adv-x="257" 
d="M191 0h-105q-31 0 -31 358q1 83 -1.5 102.5t-13.5 19.5q-4 0 -21 -12.5t-28 -12.5q-21 0 -21 30q0 10 2.5 24t14.5 32t31 18q20 1 30 21t12 45q0 76 8.5 152t27.5 76h95h5h8t7.5 -0.5t8 -2t6 -3.5t5 -5t1.5 -8q0 -4 -15 -83.5t-15 -88.5q0 -12 5.5 -22t12.5 -10
q4 0 20.5 12.5t24.5 12.5q6 0 9.5 -1.5t4.5 -5.5t1.5 -6.5t0 -8.5t-0.5 -8q0 -27 -9.5 -39t-22.5 -17t-26 -13.5t-22.5 -38t-9.5 -82.5q0 -77 4 -147.5t9.5 -117.5t11 -82t9.5 -54.5t4 -21.5q0 -5 -2.5 -8t-7.5 -3.5t-9 -1t-10 0t-8 0.5z" />
    <glyph glyph-name="OE" unicode="&#x152;" horiz-adv-x="1077" 
d="M356 163q169 0 169 162q0 154 -56 257t-113 103t-113 -103t-56 -257q0 -162 169 -162zM406 -15h-100q-97 0 -162 44.5t-92 113.5t-27 160q0 129 43 254t120.5 207.5t167.5 82.5q62 0 108 -32t99 -94q10 46 15.5 67t15.5 32t16 11.5t28 0.5h370q48 0 48 -17q0 -8 -34 -78
t-43 -70q-5 0 -21.5 11.5t-48.5 23.5t-75 12q-60 0 -110.5 -35.5t-50.5 -101.5q0 -57 31 -57q22 0 91.5 23.5t115.5 23.5q14 0 29.5 -5t15.5 -16q0 -5 -30 -84.5t-38 -79.5q-1 0 -32.5 10t-54.5 10q-47 0 -88.5 -34.5t-41.5 -101.5q0 -62 34.5 -100t96.5 -38q43 0 83.5 16.5
t66.5 33t34 16.5q10 0 46 -84t36 -95q0 -5 -2.5 -8.5t-7.5 -5t-8 -2t-11 0.5h-8h-437q-56 0 -56 22q-49 -37 -132 -37z" />
    <glyph glyph-name="oe" unicode="&#x153;" horiz-adv-x="892" 
d="M651 537q-56 0 -92 -47.5t-36 -97.5q0 -22 18 -22q26 0 110 29.5t84 61.5q0 34 -26.5 55t-57.5 21zM272 152q36 0 62 18.5t39.5 49t19.5 62t6 64.5q0 32 -6 63.5t-20 61t-40 48t-61 18.5t-61 -18.5t-40 -48t-20 -61t-6 -63.5q0 -33 6 -64.5t19.5 -62t39.5 -49t62 -18.5z
M21 321q0 85 25.5 158.5t84 124.5t141.5 51q119 0 190 -102q77 102 194 102q87 0 145 -47.5t58 -132.5q0 -60 -33 -100.5t-80.5 -59.5t-95 -33.5t-80.5 -33.5t-33 -47q0 -33 42 -57t84 -24q46 0 80 13t50 31t26 36.5t14.5 31.5t7.5 13q10 0 14 -22.5t4 -37.5
q0 -92 -62.5 -146t-155.5 -54q-115 0 -192 92q-26 -40 -76 -66t-101 -26q-45 0 -88 20t-80.5 59t-60 106t-22.5 151z" />
    <glyph glyph-name="Scaron" unicode="&#x160;" horiz-adv-x="646" 
d="M488 622q-8 0 -22.5 14t-31.5 31t-48 31t-66 14q-43 0 -78.5 -21.5t-35.5 -61.5q0 -11 3 -20.5t7 -17.5t13 -16t15 -13.5t19 -12t19 -10t21 -9t19.5 -7.5t20 -7t17.5 -6q144 -48 198.5 -115.5t54.5 -150.5q0 -46 -17 -90t-50.5 -82.5t-92 -62.5t-134.5 -24
q-116 0 -201 61.5t-85 173.5q0 38 13.5 71.5t27.5 48.5t20 15q4 0 8 -21t14 -50.5t29 -59.5t61.5 -51t102.5 -21t101 25t41 70q0 26 -13.5 46.5t-40 35t-46 22.5t-48.5 17q-63 20 -109 44.5t-71.5 48.5t-40 53.5t-18.5 53t-4 52.5q0 35 13 71.5t40.5 73t81 59.5t125.5 23
q67 0 127 -21t90.5 -45t30.5 -40q0 -23 -30 -71t-50 -48zM249 1063l60 -59q23 -23 30 -23q12 0 33 25l37 40q30 30 43 30q10 0 36.5 -12t26.5 -23q0 -12 -22 -34l-100 -107q-24 -25 -34 -28q-9 -3 -26 -3q-21 0 -34.5 5t-20.5 11t-26 26l-108 107q-13 11 -13 19q0 3 18 12.5
t42 18t37 8.5q5 0 21 -13z" />
    <glyph glyph-name="scaron" unicode="&#x161;" horiz-adv-x="517" 
d="M250 -15q-85 0 -148 48t-63 131q0 22 6.5 48t14 42.5t11.5 16.5q1 0 6 -15.5t16.5 -37.5t29 -44.5t49 -38t71.5 -15.5q35 0 62 18.5t27 53.5q0 28 -28 48.5t-67.5 36.5t-79 36t-67.5 59.5t-28 94.5q0 88 60 138t146 50q44 0 82.5 -12t61.5 -28.5t36.5 -31.5t13.5 -23
q0 -16 -31.5 -58t-47.5 -42q-8 0 -17.5 12t-19.5 26.5t-33 26.5t-54 12q-27 0 -50 -11.5t-23 -32.5q0 -28 30 -51t73 -43t86 -44.5t73 -67t30 -98.5q0 -94 -66.5 -149t-161.5 -55zM185 870l60 -59q23 -23 30 -23q12 0 33 25l37 40q30 30 43 30q10 0 36.5 -12t26.5 -23
q0 -12 -22 -34l-100 -107q-24 -25 -34 -28q-9 -3 -26 -3q-21 0 -34.5 5t-20.5 11t-26 26l-108 107q-13 11 -13 19q0 3 18 12.5t42 18t37 8.5q5 0 21 -13z" />
    <glyph glyph-name="Ydieresis" unicode="&#x178;" horiz-adv-x="644" 
d="M505 832h75q29 0 38.5 -11.5t9.5 -41.5q0 -73 -19.5 -138.5t-49 -111.5t-63.5 -97.5t-63.5 -97.5t-49 -111.5t-19.5 -139.5q0 -11 3 -32.5t3 -31.5q0 -19 -46 -19h-116q-31 0 -31 58q0 52 16.5 105t33.5 88.5t17 47.5q0 8 -23.5 34.5t-57 66.5t-67 90t-57 121t-23.5 145
q0 53 11 64.5t48 11.5h80q47 0 55 -16q2 -4 2 -10q0 -3 -4.5 -35.5t-4.5 -42.5q0 -66 26 -132t56 -103t46 -37q15 0 49 43.5t64 111t30 122.5q0 19 -4.5 50t-4.5 32q0 5 2 8.5t5 5t8 2.5t8 1h9.5h7.5zM437 901q-38 0 -63.5 21.5t-25.5 58.5t25.5 58.5t63.5 21.5t63.5 -21.5
t25.5 -58.5t-25.5 -58.5t-63.5 -21.5zM208 901q-38 0 -63.5 21.5t-25.5 58.5t25.5 58.5t63.5 21.5t63.5 -21.5t25.5 -58.5t-25.5 -58.5t-63.5 -21.5z" />
    <glyph glyph-name="Zcaron" unicode="&#x17d;" horiz-adv-x="620" 
d="M535 0h-452h-14h-13t-11 0.5t-10.5 2.5t-7.5 5t-6.5 7.5t-3 11t-1.5 15.5q0 65 34 147.5t82 156.5t96 140t82 116.5t34 68.5q0 43 -62 43q-36 0 -64.5 -9t-42.5 -19.5t-25.5 -19.5t-16.5 -9q-16 0 -42 75.5t-26 90.5q0 4 3.5 6t9 2.5t10 1t10.5 0t7 -0.5h460q15 0 27 -8
t12 -24q0 -40 -57 -128.5t-125 -175t-125 -176t-57 -131.5q0 -30 29.5 -45.5t67.5 -15.5q36 0 66.5 11.5t47 25t31 25t20.5 11.5q12 0 45 -88.5t33 -97.5q0 -15 -45 -15zM236 1063l60 -59q23 -23 30 -23q12 0 33 25l37 40q30 30 43 30q10 0 36.5 -12t26.5 -23q0 -12 -22 -34
l-100 -107q-24 -25 -34 -28q-9 -3 -26 -3q-21 0 -34.5 5t-20.5 11t-26 26l-108 107q-13 11 -13 19q0 3 18 12.5t42 18t37 8.5q5 0 21 -13z" />
    <glyph glyph-name="zcaron" unicode="&#x17e;" horiz-adv-x="467" 
d="M397 0h-321h-11h-10.5t-8.5 0.5t-8.5 2.5t-6 5t-4.5 8t-1 12q0 83 37.5 171t82 146t82 104t37.5 53q0 20 -45 20q-51 0 -86.5 -13t-36.5 -13q-14 0 -28 56.5t-14 74.5q0 5 3 8t9 4t10 1.5t11 -0.5h8h301h9h8t6.5 -0.5t6.5 -1t5 -2t4 -4t2.5 -5.5t2 -7.5t0.5 -10.5
q0 -97 -12 -119q-10 -20 -69.5 -91t-107.5 -143t-48 -116q0 -14 8.5 -18t32.5 -4q52 0 84.5 8t45.5 15.5t17 7.5q12 0 28 -58.5t16 -76.5q0 -14 -39 -14zM160 870l60 -59q23 -23 30 -23q12 0 33 25l37 40q30 30 43 30q10 0 36.5 -12t26.5 -23q0 -12 -22 -34l-100 -107
q-24 -25 -34 -28q-9 -3 -26 -3q-21 0 -34.5 5t-20.5 11t-26 26l-108 107q-13 11 -13 19q0 3 18 12.5t42 18t37 8.5q5 0 21 -13z" />
    <glyph glyph-name="florin" unicode="&#x192;" 
d="M133 525q0 12 5 28.5t23.5 34t46.5 17.5q17 0 29 13t16.5 27.5t10 40.5t8.5 36q14 45 53.5 74.5t79.5 29.5q99 0 119 -11q11 -6 11 -16q0 -15 -19 -61t-30 -46q-7 0 -25.5 3t-23.5 3q-19 0 -33 -23.5t-14 -43.5q0 -11 7 -18.5t18 -7.5q3 0 28 7.5t50 7.5q13 0 21 -10
t8 -21q0 -22 -13.5 -57t-27.5 -35q-9 0 -28 6.5t-28 6.5q-19 0 -31 -7.5t-16.5 -24.5t-5 -27t-0.5 -32q0 -228 -53 -331t-131 -103q-143 0 -143 37q0 24 19 85t43 61q6 0 17 -8t22 -8q22 0 39.5 23.5t27 57t15.5 76t7.5 73.5t1.5 57q0 4 0.5 13.5t0 14t-1 12.5t-2.5 12.5
t-5.5 9.5t-10 7t-14.5 2q-9 0 -28.5 -8t-30.5 -8q-9 0 -10.5 6.5t-1.5 24.5z" />
    <glyph glyph-name="circumflex" unicode="&#x2c6;" horiz-adv-x="550" 
d="M346 856l108 -107q13 -11 13 -19q0 -3 -18 -12.5t-42 -18t-37 -8.5q-5 0 -21 13l-60 59q-23 23 -30 23q-12 0 -33 -25l-37 -40q-30 -30 -43 -30q-10 0 -36.5 12t-26.5 23q0 12 22 34l100 107q24 25 34 28q9 3 26 3q21 0 34.5 -5t20.5 -11t26 -26z" />
    <glyph glyph-name="caron" unicode="&#x2c7;" horiz-adv-x="550" 
d="M201 840l60 -59q23 -23 30 -23q12 0 33 25l37 40q30 30 43 30q10 0 36.5 -12t26.5 -23q0 -12 -22 -34l-100 -107q-24 -25 -34 -28q-9 -3 -26 -3q-21 0 -34.5 5t-20.5 11t-26 26l-108 107q-13 11 -13 19q0 3 18 12.5t42 18t37 8.5q5 0 21 -13z" />
    <glyph glyph-name="uni02C9" unicode="&#x2c9;" horiz-adv-x="500" 
d="M329 708h-168q-1 0 -10.5 -0.5t-13 0t-10 2t-9.5 5.5t-3 11q0 19 15.5 59.5t40.5 40.5h168q1 0 10.5 0.5t13 0t10 -2t9.5 -5.5t3 -11q0 -19 -15.5 -59.5t-40.5 -40.5z" />
    <glyph glyph-name="breve" unicode="&#x2d8;" horiz-adv-x="400" 
d="M210 721q-81 0 -130.5 35.5t-49.5 74.5q0 18 17 27.5t43 9.5q48 0 69 -23q27 -29 71 -29q37 0 71 29q25 23 49 23q13 0 16.5 -7t3.5 -30q0 -31 -44.5 -70.5t-115.5 -39.5z" />
    <glyph glyph-name="dotaccent" unicode="&#x2d9;" horiz-adv-x="500" 
d="M250 708q-38 0 -63.5 21.5t-25.5 58.5t25.5 58.5t63.5 21.5t63.5 -21.5t25.5 -58.5t-25.5 -58.5t-63.5 -21.5z" />
    <glyph glyph-name="ring" unicode="&#x2da;" horiz-adv-x="400" 
d="M200 677q-52 0 -87.5 34t-35.5 83q0 47 35 80.5t86 33.5q54 0 89.5 -32.5t35.5 -82.5q0 -48 -36 -82t-87 -34zM200 739q23 0 37 16t14 40q0 21 -15.5 36t-36.5 15t-35.5 -15.5t-14.5 -36.5q0 -23 14 -39t37 -16z" />
    <glyph glyph-name="ogonek" unicode="&#x2db;" horiz-adv-x="400" 
d="M44 -118q0 60 56 90t150 30v-7q-11 -4 -19.5 -18.5t-8.5 -35.5q0 -28 24 -43.5t53 -17.5t53 -2.5t24 -2.5q0 -5 -6 -13t-21.5 -18t-37.5 -18t-58.5 -14t-79.5 -6q-50 0 -89.5 24t-39.5 52z" />
    <glyph glyph-name="tilde" unicode="&#x2dc;" horiz-adv-x="410" 
d="M127 868q39 0 76 -16q83 -32 116 -32q20 0 32.5 6.5t16 14t7.5 14t11 6.5q24 0 24 -13q0 -4 -2 -14.5t-10.5 -30t-23 -36t-44 -29t-67.5 -12.5q-43 0 -109 24q-61 23 -83 23q-18 0 -27 -9t-11 -18t-3 -9q-30 0 -30 14q0 40 34 78.5t93 38.5z" />
    <glyph glyph-name="hungarumlaut" unicode="&#x2dd;" horiz-adv-x="567" 
d="M299 719l76 142q4 8 7 12t5 8.5t5.5 6t5.5 3t7.5 2t8 0.5h12h14.5q1 0 12.5 0.5t18 0t16 -2.5t14 -7.5t4.5 -13.5q0 -13 -38 -58.5t-88.5 -87t-78.5 -38.5q-13 0 -13 7q0 6 12 26zM74 719l76 142q4 8 7 12t5 8.5t5.5 6t5.5 3t7.5 2t8 0.5h12h14.5q1 0 12.5 0.5t18 0
t16 -2.5t14 -7.5t4.5 -13.5q0 -13 -38 -58.5t-88.5 -87t-78.5 -38.5q-13 0 -13 7q0 6 12 26z" />
    <glyph glyph-name="uni03A9" unicode="&#x3a9;" horiz-adv-x="722" 
d="M167 131v3q-119 139 -119 320q0 152 88 260.5t227 108.5q75 0 135.5 -33.5t96.5 -87.5t55 -115t19 -122q0 -100 -34.5 -187t-85.5 -144v-3h136v-131h-279v95q45 34 72 111q33 89 33 221q0 113 -38.5 186t-111.5 73q-71 0 -113 -73.5t-42 -192.5q0 -120 31 -206.5
t75 -118.5v-95h-279v131h134z" />
    <glyph glyph-name="uni03BC" unicode="&#x3bc;" horiz-adv-x="556" 
d="M374 640h93q15 0 24.5 -27t13 -80.5t4.5 -93.5t1 -103q0 -38 -1.5 -66.5t-4 -50t-6.5 -36t-9 -23.5t-12 -14.5t-15.5 -7.5t-18.5 -2h-21h-15q-21 0 -33 5t-13.5 12t-1 16t2.5 16t-1.5 12t-13.5 5q-3 0 -24.5 -19.5t-40.5 -19.5q-65 0 -80 -9q-16 -10 -16 -39
q0 -21 9.5 -60t9.5 -41q0 -14 -32 -14h-82q-20 0 -26.5 4t-12.5 40t-6 119v244q0 233 49 233h92q2 0 9 0.5t11 0t9.5 -1.5t8 -4.5t2.5 -9.5q0 -4 -11.5 -35t-23 -78t-11.5 -90q0 -68 26.5 -96t58.5 -28q16 0 31.5 5t34 18t30.5 45t13 78q0 41 -8.5 83.5t-17.5 69.5t-9 31
q0 12 34 12z" />
    <glyph glyph-name="pi" unicode="&#x3c0;" horiz-adv-x="644" 
d="M621 473h-70v-309q0 -104 13 -164h-149q-19 38 -19 161v312h-127q-5 -104 -22.5 -243t-43.5 -230h-149q25 105 43 244t20 229q-59 0 -96 -10l-17 108q50 41 181 41h446z" />
    <glyph glyph-name="endash" unicode="&#x2013;" horiz-adv-x="500" 
d="M469 257h-448q-1 0 -10.5 -0.5t-13 0t-10 2t-9.5 5.5t-3 11q0 19 15.5 59.5t40.5 40.5h448q1 0 10.5 0.5t13 0t10 -2t9.5 -5.5t3 -11q0 -19 -15.5 -59.5t-40.5 -40.5z" />
    <glyph glyph-name="emdash" unicode="&#x2014;" horiz-adv-x="1000" 
d="M969 257h-948q-1 0 -10.5 -0.5t-13 0t-10 2t-9.5 5.5t-3 11q0 19 15.5 59.5t40.5 40.5h948q1 0 10.5 0.5t13 0t10 -2t9.5 -5.5t3 -11q0 -19 -15.5 -59.5t-40.5 -40.5z" />
    <glyph glyph-name="quoteleft" unicode="&#x2018;" horiz-adv-x="340" 
d="M270 657l-83 -67q-26 -19 -38 -19q-40 0 -69.5 36t-29.5 77q0 53 34 92.5t73.5 55t72.5 15.5q8 0 8 -5q0 -1 -6.5 -11.5t-13 -28.5t-6.5 -36q0 -29 12 -48t27 -25t27 -10t12 -7q0 -6 -20 -19z" />
    <glyph glyph-name="quoteright" unicode="&#x2019;" horiz-adv-x="340" 
d="M70 761l83 67q26 19 38 19q40 0 69.5 -36t29.5 -77q0 -53 -34 -92.5t-73.5 -55t-72.5 -15.5q-8 0 -8 5q0 1 6.5 11.5t13 28.5t6.5 36q0 29 -12 48t-27 25t-27 10t-12 7q0 6 20 19z" />
    <glyph glyph-name="quotesinglbase" unicode="&#x201a;" horiz-adv-x="340" 
d="M70 126l83 67q26 19 38 19q40 0 69.5 -36t29.5 -77q0 -53 -34 -92.5t-73.5 -55t-72.5 -15.5q-8 0 -8 5q0 1 6.5 11.5t13 28.5t6.5 36q0 29 -12 48t-27 25t-27 10t-12 7q0 6 20 19z" />
    <glyph glyph-name="quotedblleft" unicode="&#x201c;" horiz-adv-x="615" 
d="M545 657l-83 -67q-26 -19 -38 -19q-40 0 -69.5 36t-29.5 77q0 53 34 92.5t73.5 55t72.5 15.5q8 0 8 -5q0 -1 -6.5 -11.5t-13 -28.5t-6.5 -36q0 -29 12 -48t27 -25t27 -10t12 -7q0 -6 -20 -19zM270 657l-83 -67q-26 -19 -38 -19q-40 0 -69.5 36t-29.5 77q0 53 34 92.5
t73.5 55t72.5 15.5q8 0 8 -5q0 -1 -6.5 -11.5t-13 -28.5t-6.5 -36q0 -29 12 -48t27 -25t27 -10t12 -7q0 -6 -20 -19z" />
    <glyph glyph-name="quotedblright" unicode="&#x201d;" horiz-adv-x="615" 
d="M70 761l83 67q26 19 38 19q40 0 69.5 -36t29.5 -77q0 -53 -34 -92.5t-73.5 -55t-72.5 -15.5q-8 0 -8 5q0 1 6.5 11.5t13 28.5t6.5 36q0 29 -12 48t-27 25t-27 10t-12 7q0 6 20 19zM345 761l83 67q26 19 38 19q40 0 69.5 -36t29.5 -77q0 -53 -34 -92.5t-73.5 -55
t-72.5 -15.5q-8 0 -8 5q0 1 6.5 11.5t13 28.5t6.5 36q0 29 -12 48t-27 25t-27 10t-12 7q0 6 20 19z" />
    <glyph glyph-name="quotedblbase" unicode="&#x201e;" horiz-adv-x="615" 
d="M70 126l83 67q26 19 38 19q40 0 69.5 -36t29.5 -77q0 -53 -34 -92.5t-73.5 -55t-72.5 -15.5q-8 0 -8 5q0 1 6.5 11.5t13 28.5t6.5 36q0 29 -12 48t-27 25t-27 10t-12 7q0 6 20 19zM345 126l83 67q26 19 38 19q40 0 69.5 -36t29.5 -77q0 -53 -34 -92.5t-73.5 -55
t-72.5 -15.5q-8 0 -8 5q0 1 6.5 11.5t13 28.5t6.5 36q0 29 -12 48t-27 25t-27 10t-12 7q0 6 20 19z" />
    <glyph glyph-name="dagger" unicode="&#x2020;" horiz-adv-x="582" 
d="M213 841h154l-12 -246l184 10v-146l-184 10l12 -530h-154l11 530l-183 -10v146l183 -10z" />
    <glyph glyph-name="daggerdbl" unicode="&#x2021;" horiz-adv-x="582" 
d="M216 841h144l-9 -231l189 10v-141l-189 11v-202l189 11v-140l-189 10l9 -230h-144l7 230l-182 -10v140l183 -11v202l-183 -11v141l183 -10z" />
    <glyph glyph-name="bullet" unicode="&#x2022;" horiz-adv-x="400" 
d="M200 200q-86 0 -143 57t-57 143t57 143t143 57t143 -57t57 -143t-57 -143t-143 -57z" />
    <glyph glyph-name="ellipsis" unicode="&#x2026;" horiz-adv-x="1000" 
d="M166 -15q-46 0 -78.5 32.5t-32.5 78.5q0 45 32.5 77t77.5 32q47 0 80.5 -32t33.5 -78t-33 -78t-80 -32zM499 -15q-46 0 -78.5 32.5t-32.5 78.5q0 45 32.5 77t77.5 32q47 0 80.5 -32t33.5 -78t-33 -78t-80 -32zM832 -15q-46 0 -78.5 32.5t-32.5 78.5q0 45 32.5 77t77.5 32
q47 0 80.5 -32t33.5 -78t-33 -78t-80 -32z" />
    <glyph glyph-name="perthousand" unicode="&#x2030;" horiz-adv-x="1293" 
d="M1090 493h2q74 0 123 -63.5t49 -180.5q0 -123 -50.5 -189.5t-126.5 -66.5q-77 0 -126.5 65.5t-49.5 178.5q0 122 50.5 189t128.5 67zM1088 399h-1q-63 0 -63 -156q0 -157 64 -157q62 0 62 157q0 156 -62 156zM685 493h1q75 0 123.5 -63.5t48.5 -180.5q0 -123 -50 -189.5
t-126 -66.5q-77 0 -127 65.5t-50 179.5q0 121 51 188t129 67zM682 398q-63 0 -63 -155q0 -156 64 -156q62 0 62 156q0 79 -14.5 117t-48.5 38zM209 823h2q75 0 123 -63.5t48 -180.5q0 -124 -50 -190.5t-127 -66.5q-76 0 -126.5 66t-50.5 180q0 121 51.5 188t129.5 67z
M206 728h-1q-63 0 -63 -155q0 -157 65 -157q61 0 61 157q0 155 -62 155zM282 -10h-83l398 831h83z" />
    <glyph glyph-name="guilsinglleft" unicode="&#x2039;" horiz-adv-x="358" 
d="M69 367l109 165l4 6q4 6 6 8.5t5.5 7t7.5 6.5t8 2q9 0 50 -26q5 -3 12 -7.5t11 -7t9 -6t7.5 -5.5t5 -5t3.5 -6t1 -6q0 -13 -25 -43l-86 -109q-15 -18 -15 -25t15 -25l86 -109q25 -30 25 -43q0 -3 -1 -6t-3.5 -6t-5 -5t-7.5 -5.5t-9 -6t-11 -7t-12 -7.5q-41 -26 -50 -26
q-4 0 -8 2t-7.5 6.5t-5.5 7t-6 8.5l-4 6l-109 165q-19 26 -19 51t19 51z" />
    <glyph glyph-name="guilsinglright" unicode="&#x203a;" horiz-adv-x="358" 
d="M180 532l109 -165q19 -26 19 -51t-19 -51l-109 -165l-4 -6q-4 -6 -6 -8.5t-5.5 -7t-7.5 -6.5t-8 -2q-9 0 -50 26q-5 3 -12 7.5t-11 7t-9 6t-7.5 5.5t-5 5t-3.5 6t-1 6q0 13 25 43l86 109q15 18 15 25t-15 25l-86 109q-25 30 -25 43q0 3 1 6t3.5 6t5 5t7.5 5.5t9 6t11 7
t12 7.5q41 26 50 26q4 0 8 -2t7.5 -6.5t5.5 -7t6 -8.5z" />
    <glyph glyph-name="fraction" unicode="&#x2044;" horiz-adv-x="231" 
d="M-25 -10h-98l380 832h98z" />
    <glyph glyph-name="Euro" unicode="&#x20ac;" 
d="M533 789v-147q-41 43 -127 43q-119 0 -138 -140h233l-34 -107h-210q0 -4 -0.5 -14.5t-0.5 -16.5t0.5 -18.5t0.5 -17.5h188l-34 -107h-142q17 -140 138 -140q82 0 126 40v-146q-43 -32 -156 -32q-233 0 -272 278h-86l33 107h42q-1 9 -1 36q0 20 1 31h-75l33 107h51
q39 280 274 280q103 0 156 -36z" />
    <glyph glyph-name="afii61289" unicode="&#x2113;" horiz-adv-x="546" 
d="M472 214l59 -65q-76 -161 -222 -161q-96 0 -143.5 53t-54.5 134q0 9 -1 13q-5 -4 -24 -20t-29 -24l-36 83q10 9 29.5 26t33 29.5t25.5 25.5v292q0 141 56.5 216t143.5 75q75 0 112 -57.5t37 -151.5q0 -179 -198 -390v-62q1 -55 24 -85t61 -30q66 0 127 99zM260 588v-149
q50 65 79 132.5t29 119.5q0 43 -11.5 64t-39.5 21q-57 0 -57 -188z" />
    <glyph glyph-name="trademark" unicode="&#x2122;" horiz-adv-x="1000" 
d="M567 333h-66h-7q-24 0 -27 11q-14 39 -14 202l6 179q6 64 16 88q5 11 11.5 15t23.5 4h57q21 0 32.5 -6t33.5 -34q26 -33 43.5 -64.5t23.5 -44t11 -12.5q4 0 9.5 12.5t24.5 43.5t48 65q18 20 30.5 28.5t19 10t22.5 1.5h47q26 0 33 -19q10 -21 16 -88l6 -179
q0 -163 -14 -202l-2 -4t-2 -3t-3 -2l-3 -1.5t-4 -0.5h-5h-6h-7h-79h-6.5h-6h-5.5h-5t-4.5 0.5t-3.5 1t-2.5 1.5t-2 2.5t-0.5 3.5q0 1 4 15.5t10 39.5t12 56t10 74.5t4 87.5q0 86 -20 86q-12 0 -42 -74q-21 -47 -32.5 -97.5t-19.5 -66t-33 -15.5q-19 0 -29.5 12t-14.5 30.5
t-16.5 58t-30.5 78.5q-2 3 -10 24t-16 35.5t-12 14.5q-19 0 -19 -86q0 -44 4 -87.5t10 -74.5t12 -56t10 -39.5t4 -15.5q0 -9 -24 -9zM246 333h-69q-2 0 -7 -0.5t-7.5 -0.5t-7.5 2.5t-8 8t-6.5 16.5t-5 27t-3 40.5t-1.5 56.5q0 63 7.5 121t14.5 91t7 35q0 16 -14 16
q-24 0 -77 -31t-55 -31q-7 0 -8 4q-1 3 -1 10q0 15 10 56.5t17 53.5q5 9 63 21t119 12q78 0 137.5 -16.5t59.5 -37.5q0 -18 -16 -50.5t-23 -32.5q-4 0 -15 10.5t-29.5 21t-39.5 10.5q-39 0 -39 -162q0 -69 8.5 -125.5t17.5 -85.5t9 -30q0 -10 -38 -10z" />
    <glyph glyph-name="Omega" unicode="&#x2126;" horiz-adv-x="722" 
d="M167 131v3q-119 139 -119 320q0 152 88 260.5t227 108.5q75 0 135.5 -33.5t96.5 -87.5t55 -115t19 -122q0 -100 -34.5 -187t-85.5 -144v-3h136v-131h-279v95q45 34 72 111q33 89 33 221q0 113 -38.5 186t-111.5 73q-71 0 -113 -73.5t-42 -192.5q0 -120 31 -206.5
t75 -118.5v-95h-279v131h134z" />
    <glyph glyph-name="estimated" unicode="&#x212e;" horiz-adv-x="1014" 
d="M974 394h-757q-6 0 -6 -5v-229q0 -14 10 -26q120 -125 286 -125q89 0 167 37.5t134 102.5h67q-63 -75 -160.5 -119t-208.5 -44q-193 0 -330 123t-137 296q0 115 62.5 212t170 153t234.5 56q194 0 331 -123t137 -298v-11zM802 424v230q0 16 -11 27q-123 120 -284 120
q-163 0 -285 -124q-11 -11 -11 -28v-225q0 -8 6 -8h580q5 0 5 8z" />
    <glyph glyph-name="partialdiff" unicode="&#x2202;" horiz-adv-x="618" 
d="M113 729l-41 124q82 65 197 65q125 0 210.5 -113.5t85.5 -326.5q0 -228 -79.5 -357.5t-222.5 -129.5q-70 0 -122.5 43t-76 104t-23.5 128q0 141 66.5 224.5t163.5 83.5q51 0 88.5 -24.5t52.5 -51.5h1q1 7 1 34q0 98 -46 175t-121 77q-73 0 -134 -55zM279 127h1
q33 0 60 38.5t41.5 90t19.5 108.5q-9 28 -35.5 54t-64.5 26q-48 0 -77.5 -56t-29.5 -131q0 -56 23 -93t62 -37z" />
    <glyph glyph-name="Delta" unicode="&#x2206;" horiz-adv-x="690" 
d="M28 0v93l230 733h184l219 -730v-96h-633zM185 130h314l-97 297q-7 31 -29 108.5t-27 103.5h-3q-4 -22 -24.5 -92t-28.5 -103z" />
    <glyph glyph-name="product" unicode="&#x220f;" horiz-adv-x="773" 
d="M743 664h-101v-776h-155v776h-202v-776h-155v776h-102v147h715v-147z" />
    <glyph glyph-name="summation" unicode="&#x2211;" horiz-adv-x="587" 
d="M567 -112h-540v106l244 358l-238 345v114h518v-135h-314v-3l207 -291l-234 -340v-3h357v-151z" />
    <glyph glyph-name="minus" unicode="&#x2212;" 
d="M529 282h-478v94h478v-94z" />
    <glyph glyph-name="uni2215" unicode="&#x2215;" horiz-adv-x="231" 
d="M-25 -10h-98l380 832h98z" />
    <glyph glyph-name="uni2219" unicode="&#x2219;" horiz-adv-x="290" 
d="M144 226q-46 0 -78.5 32.5t-32.5 78.5q0 45 32.5 77t77.5 32q47 0 80.5 -32t33.5 -78t-33 -78t-80 -32z" />
    <glyph glyph-name="radical" unicode="&#x221a;" horiz-adv-x="639" 
d="M646 979l-236 -1134h-122l-150 497l-79 -31l-24 90l197 80l95 -336q3 -15 8 -39.5t8 -41.5t5 -29l2 -2q1 3 6.5 48t10.5 73l173 825h106z" />
    <glyph glyph-name="infinity" unicode="&#x221e;" horiz-adv-x="858" 
d="M806 335v-1q0 -90 -53.5 -144t-126.5 -54q-52 0 -98 26.5t-97 96.5q-47 -60 -94 -91.5t-109 -31.5q-72 0 -124 54t-52 138q0 86 53 140.5t133 54.5q58 0 104.5 -30t91.5 -90q52 61 82 82q53 38 116 38q74 -1 124 -52.5t50 -135.5zM239 221h2q40 0 71 26t73 77
q-25 34 -34 46t-30 33t-40.5 28.5t-44.5 7.5q-46 0 -72 -31t-26 -81q0 -44 29.5 -75t71.5 -31zM623 439h-1q-16 0 -31.5 -6t-26.5 -12t-26.5 -21t-21.5 -22t-21.5 -25t-17.5 -21q49 -65 80 -88t71 -23q41 0 66.5 33.5t25.5 72.5q0 48 -27 80t-70 32z" />
    <glyph glyph-name="integral" unicode="&#x222b;" horiz-adv-x="453" 
d="M420 995l-15 -113q-18 9 -36 9q-34 0 -53 -30q-26 -37 -26 -191q0 -93 7.5 -267t7.5 -284q0 -161 -36 -234q-42 -89 -152 -89q-54 0 -86 18l18 116q24 -11 45 -11q30 0 44 21q25 40 25 175q0 111 -7.5 290t-7.5 279q0 104 15 165.5t51 101.5q49 55 137 55q38 0 69 -11z
" />
    <glyph glyph-name="approxequal" unicode="&#x2248;" 
d="M486 523l54 -48q-25 -54 -64 -87t-83 -33q-50 0 -117 43q-55 38 -89 38q-7 0 -13.5 -1.5t-11.5 -3t-11 -5.5t-9.5 -6.5t-9.5 -9t-8.5 -9t-8 -11t-7 -10.5t-8 -11.5t-7.5 -11.5l-54 48q24 52 65.5 85t90.5 33q9 0 18.5 -1t17 -2.5t16 -5t13.5 -5.5t13.5 -6.5t11.5 -6
t11.5 -6.5t9.5 -6q3 -2 11.5 -7.5t11.5 -7.5t10 -6.5t10 -6l9 -4.5t9.5 -4t8.5 -2.5t9.5 -2t9.5 -0.5q27 0 47 19.5t44 60.5zM486 311l54 -48q-25 -54 -64 -87t-84 -33q-49 0 -116 43q-50 33 -72 37q-8 2 -17 2q-7 0 -13.5 -1.5t-11.5 -3t-11 -6t-9.5 -6.5t-9.5 -9
t-8.5 -9.5t-8 -11t-7 -11t-8 -12t-7.5 -11.5l-54 48q23 52 65 85.5t91 33.5q11 0 21 -1t20 -4t16.5 -5t16.5 -7.5t13 -7t13 -7.5t11 -7q8 -4 23.5 -14t23 -14.5t19 -8.5t22.5 -4q20 0 37 12t27.5 26t27.5 42z" />
    <glyph glyph-name="notequal" unicode="&#x2260;" 
d="M433 587l-40 -94h136v-91h-167l-61 -147h228v-90h-260l-51 -122l-70 27l41 95h-138v90h170l60 147h-230v91h262l49 119z" />
    <glyph glyph-name="lessequal" unicode="&#x2264;" 
d="M526 114l-469 249v99l468 249v-106l-384 -191v-2l385 -192v-106zM531 -20h-478v93h478v-93z" />
    <glyph glyph-name="greaterequal" unicode="&#x2265;" 
d="M60 711l469 -249v-99l-469 -249v106l384 192v2l-384 191v106zM530 -20h-476v93h476v-93z" />
    <glyph glyph-name="lozenge" unicode="&#x25ca;" horiz-adv-x="638" 
d="M585 405l-207 -461h-127l-198 461l207 462h127zM447 401l-103 253q-16 50 -21 80h-4q-9 -46 -21 -80l-107 -246l105 -259q10 -31 18 -74h6q11 54 19 71z" />
    </font>
</defs>
</svg>
