<?xml version="1.0" encoding="utf-8"?>
<!-- Generator: Adobe Illustrator 18.1.1, SVG Export Plug-In . SVG Version: 6.00 Build 0)  -->
<svg version="1.1" id="Layer_1" xmlns="http://www.w3.org/2000/svg" xmlns:xlink="http://www.w3.org/1999/xlink" x="0px" y="0px"
	 width="148.1px" height="36px" viewBox="-365.1 343 148.1 36" enable-background="new -365.1 343 148.1 36" xml:space="preserve">
<g id="guides">
</g>
<g id="Layer_2">
	<g>
		<g>
			<path fill="#333333" d="M-321.6,353.7c-0.6,0-1,0.2-1.4,0.6c-0.3,0.4-0.5,1-0.5,1.8c0,1.6,0.6,2.4,1.8,2.4c0.5,0,1.1-0.1,1.9-0.4
				v1.3c-0.6,0.2-1.3,0.4-2,0.4c-1.1,0-1.9-0.3-2.4-0.9c-0.6-0.6-0.8-1.5-0.8-2.7c0-0.7,0.1-1.4,0.4-1.9c0.3-0.6,0.7-1,1.2-1.3
				c0.5-0.3,1.1-0.4,1.8-0.4c0.7,0,1.4,0.2,2.1,0.5l-0.5,1.2c-0.3-0.1-0.5-0.2-0.8-0.3C-321.1,353.8-321.4,353.7-321.6,353.7z"/>
			<path fill="#333333" d="M-311,356.1c0,1.2-0.3,2.1-0.9,2.7c-0.6,0.6-1.5,0.9-2.6,0.9c-1.1,0-2-0.3-2.6-0.9
				c-0.6-0.6-0.9-1.5-0.9-2.7c0-1.2,0.3-2.1,0.9-2.7c0.6-0.6,1.5-0.9,2.6-0.9c1.1,0,2,0.3,2.6,0.9C-311.3,354-311,354.9-311,356.1z
				 M-316.4,356.1c0,0.8,0.2,1.4,0.5,1.8c0.3,0.4,0.8,0.6,1.4,0.6c1.2,0,1.9-0.8,1.9-2.4c0-1.6-0.6-2.4-1.9-2.4
				c-0.6,0-1.1,0.2-1.4,0.6C-316.2,354.7-316.4,355.3-316.4,356.1z"/>
			<path fill="#333333" d="M-305.9,359.7l-1.8-5.6h0c0.1,1.1,0.1,1.9,0.1,2.3v3.3h-1.4v-7.1h2.1l1.7,5.4h0l1.8-5.4h2.1v7.1h-1.4
				v-3.4c0-0.2,0-0.3,0-0.5c0-0.2,0-0.8,0.1-1.6h0l-1.9,5.6L-305.9,359.7L-305.9,359.7z"/>
			<path fill="#333333" d="M-293.8,354.8c0,0.8-0.2,1.3-0.7,1.7c-0.5,0.4-1.2,0.6-2.1,0.6h-0.7v2.5h-1.6v-7.1h2.3
				c0.9,0,1.6,0.2,2,0.6C-294,353.5-293.8,354-293.8,354.8z M-297.3,355.9h0.5c0.5,0,0.8-0.1,1.1-0.3c0.2-0.2,0.4-0.4,0.4-0.8
				c0-0.4-0.1-0.6-0.3-0.8c-0.2-0.2-0.5-0.3-0.9-0.3h-0.7L-297.3,355.9L-297.3,355.9z"/>
			<path fill="#333333" d="M-285.9,352.6v4.6c0,0.5-0.1,1-0.4,1.4c-0.2,0.4-0.6,0.7-1.1,0.9c-0.5,0.2-1,0.3-1.6,0.3
				c-0.9,0-1.7-0.2-2.2-0.7c-0.5-0.5-0.8-1.1-0.8-1.9v-4.6h1.5v4.3c0,0.5,0.1,0.9,0.3,1.2c0.2,0.3,0.6,0.4,1.1,0.4
				c0.5,0,0.9-0.1,1.1-0.4c0.2-0.3,0.3-0.7,0.3-1.2v-4.3H-285.9z"/>
			<path fill="#333333" d="M-280.8,359.7h-1.6v-5.8h-2v-1.3h5.5v1.3h-2V359.7z"/>
			<path fill="#333333" d="M-272.9,359.7h-4.2v-7.1h4.2v1.2h-2.7v1.6h2.5v1.2h-2.5v1.8h2.7V359.7z"/>
			<path fill="#333333" d="M-269.3,356.9v2.7h-1.6v-7.1h2.1c1,0,1.7,0.2,2.2,0.5c0.5,0.4,0.7,0.9,0.7,1.6c0,0.4-0.1,0.8-0.4,1.1
				c-0.2,0.3-0.6,0.6-1,0.8c1.1,1.6,1.8,2.6,2.2,3.1h-1.7l-1.7-2.7H-269.3z M-269.3,355.7h0.5c0.5,0,0.9-0.1,1.1-0.2
				c0.2-0.2,0.3-0.4,0.3-0.7c0-0.3-0.1-0.6-0.4-0.7c-0.2-0.1-0.6-0.2-1.1-0.2h-0.5L-269.3,355.7L-269.3,355.7z"/>
			<path fill="#EC1C24" d="M-256.1,357.7c0,0.6-0.2,1.1-0.7,1.5c-0.5,0.4-1.1,0.6-2,0.6c-0.8,0-1.5-0.1-2.1-0.4v-1.4
				c0.5,0.2,0.9,0.4,1.3,0.4c0.3,0.1,0.7,0.1,0.9,0.1c0.3,0,0.6-0.1,0.8-0.2c0.2-0.1,0.3-0.3,0.3-0.6c0-0.1,0-0.3-0.1-0.4
				c-0.1-0.1-0.2-0.2-0.4-0.3c-0.2-0.1-0.5-0.3-0.9-0.5c-0.4-0.2-0.8-0.4-1-0.6c-0.2-0.2-0.4-0.4-0.5-0.7c-0.1-0.3-0.2-0.5-0.2-0.9
				c0-0.6,0.2-1.1,0.7-1.5c0.4-0.4,1-0.5,1.8-0.5c0.4,0,0.7,0,1.1,0.1c0.3,0.1,0.7,0.2,1.1,0.4l-0.5,1.2c-0.4-0.2-0.7-0.3-1-0.3
				c-0.3-0.1-0.5-0.1-0.8-0.1c-0.3,0-0.5,0.1-0.7,0.2c-0.2,0.1-0.2,0.3-0.2,0.5c0,0.1,0,0.2,0.1,0.3c0.1,0.1,0.2,0.2,0.3,0.3
				c0.1,0.1,0.5,0.3,1,0.5c0.7,0.3,1.2,0.6,1.4,1C-256.2,356.8-256.1,357.2-256.1,357.7z"/>
			<path fill="#EC1C24" d="M-251.2,353.7c-0.6,0-1,0.2-1.4,0.6c-0.3,0.4-0.5,1-0.5,1.8c0,1.6,0.6,2.4,1.8,2.4c0.5,0,1.1-0.1,1.9-0.4
				v1.3c-0.6,0.2-1.3,0.4-2,0.4c-1.1,0-1.9-0.3-2.4-0.9c-0.6-0.6-0.8-1.5-0.8-2.7c0-0.7,0.1-1.4,0.4-1.9c0.3-0.6,0.7-1,1.2-1.3
				c0.5-0.3,1.1-0.4,1.8-0.4c0.7,0,1.4,0.2,2.1,0.5l-0.5,1.2c-0.3-0.1-0.6-0.2-0.8-0.3C-250.6,353.8-250.9,353.7-251.2,353.7z"/>
			<path fill="#EC1C24" d="M-247.2,359.7v-7.1h1.6v7.1H-247.2z"/>
			<path fill="#EC1C24" d="M-239.1,359.7h-4.2v-7.1h4.2v1.2h-2.7v1.6h2.5v1.2h-2.5v1.8h2.7V359.7z"/>
			<path fill="#EC1C24" d="M-230.6,359.7h-2l-3.2-5.4h0c0.1,0.9,0.1,1.6,0.1,2v3.3h-1.4v-7.1h2l3.2,5.3h0c-0.1-0.9-0.1-1.6-0.1-2
				v-3.4h1.4L-230.6,359.7L-230.6,359.7z"/>
			<path fill="#EC1C24" d="M-225.1,353.7c-0.6,0-1,0.2-1.4,0.6c-0.3,0.4-0.5,1-0.5,1.8c0,1.6,0.6,2.4,1.8,2.4c0.5,0,1.1-0.1,1.9-0.4
				v1.3c-0.6,0.2-1.3,0.4-2,0.4c-1.1,0-1.9-0.3-2.4-0.9c-0.6-0.6-0.8-1.5-0.8-2.7c0-0.7,0.1-1.4,0.4-1.9c0.3-0.6,0.7-1,1.2-1.3
				c0.5-0.3,1.1-0.4,1.8-0.4c0.7,0,1.4,0.2,2.1,0.5l-0.5,1.2c-0.3-0.1-0.5-0.2-0.8-0.3C-224.5,353.8-224.8,353.7-225.1,353.7z"/>
			<path fill="#EC1C24" d="M-216.9,359.7h-4.2v-7.1h4.2v1.2h-2.7v1.6h2.5v1.2h-2.5v1.8h2.7V359.7z"/>
			<path fill="#EC1C24" d="M-321.4,364.8v3.1c0,0.5-0.2,1-0.5,1.3c-0.3,0.3-0.8,0.5-1.4,0.5c-0.6,0-1-0.2-1.3-0.5
				c-0.3-0.3-0.5-0.7-0.5-1.3v-3h0.3v3.1c0,0.5,0.1,0.8,0.4,1.1c0.3,0.3,0.6,0.4,1.1,0.4c0.5,0,0.8-0.1,1.1-0.4
				c0.3-0.3,0.4-0.6,0.4-1v-3.1L-321.4,364.8L-321.4,364.8z"/>
			<path fill="#EC1C24" d="M-315.3,369.5h-0.3l-2.9-4.2h0c0,0.5,0,0.9,0,1.1v3.1h-0.3v-4.7h0.3l2.9,4.2h0c0-0.4,0-0.8,0-1.1v-3.1
				h0.3L-315.3,369.5L-315.3,369.5z"/>
			<path fill="#EC1C24" d="M-312.7,369.5v-4.7h0.3v4.7H-312.7z"/>
			<path fill="#EC1C24" d="M-306.8,364.8h0.4l-1.8,4.7h-0.3l-1.8-4.7h0.4l1.2,3.2c0.2,0.5,0.3,0.8,0.4,1.1c0-0.2,0.1-0.4,0.3-0.8
				L-306.8,364.8z"/>
			<path fill="#EC1C24" d="M-301.9,369.5h-2.7v-4.7h2.7v0.3h-2.3v1.8h2.2v0.3h-2.2v2h2.3V369.5z"/>
			<path fill="#EC1C24" d="M-299.2,367.4v2.1h-0.3v-4.7h1.2c0.6,0,1.1,0.1,1.3,0.3c0.3,0.2,0.4,0.5,0.4,1c0,0.3-0.1,0.6-0.3,0.8
				c-0.2,0.2-0.4,0.4-0.8,0.5l1.3,2.2h-0.4l-1.3-2.1C-298,367.4-299.2,367.4-299.2,367.4z M-299.2,367.1h0.9c0.4,0,0.7-0.1,1-0.3
				c0.2-0.2,0.3-0.4,0.3-0.8c0-0.4-0.1-0.6-0.3-0.8c-0.2-0.2-0.6-0.2-1.1-0.2h-0.8C-299.2,365.1-299.2,367.1-299.2,367.1z"/>
			<path fill="#EC1C24" d="M-291.5,368.3c0,0.4-0.2,0.7-0.4,0.9c-0.3,0.2-0.7,0.3-1.2,0.3c-0.6,0-1.1-0.1-1.4-0.2V369
				c0.4,0.1,0.8,0.2,1.3,0.2c0.4,0,0.7-0.1,1-0.3c0.2-0.2,0.4-0.4,0.4-0.7c0-0.2,0-0.3-0.1-0.4s-0.2-0.2-0.4-0.3
				c-0.2-0.1-0.4-0.2-0.8-0.3c-0.5-0.2-0.8-0.3-1-0.5c-0.2-0.2-0.3-0.5-0.3-0.8c0-0.4,0.1-0.6,0.4-0.9c0.3-0.2,0.7-0.3,1.1-0.3
				c0.5,0,0.9,0.1,1.3,0.3l-0.1,0.3c-0.4-0.2-0.8-0.2-1.2-0.2c-0.4,0-0.6,0.1-0.9,0.2c-0.2,0.2-0.3,0.4-0.3,0.7c0,0.2,0,0.3,0.1,0.4
				c0.1,0.1,0.2,0.2,0.3,0.3c0.1,0.1,0.4,0.2,0.8,0.3c0.4,0.1,0.7,0.3,0.9,0.4c0.2,0.1,0.3,0.3,0.4,0.4
				C-291.6,367.9-291.5,368-291.5,368.3z"/>
			<path fill="#EC1C24" d="M-289.3,369.5v-4.7h0.3v4.7H-289.3z"/>
			<path fill="#EC1C24" d="M-285,369.5h-0.3v-4.4h-1.6v-0.3h3.5v0.3h-1.6V369.5z"/>
			<path fill="#EC1C24" d="M-280.4,367.3l1.4-2.6h0.4l-1.6,2.9v1.8h-0.4v-1.8l-1.6-2.9h0.4L-280.4,367.3z"/>
			<path fill="#EC1C24" d="M-269.5,367.1c0,0.8-0.2,1.3-0.6,1.8c-0.4,0.4-0.9,0.7-1.6,0.7s-1.2-0.2-1.6-0.7c-0.4-0.4-0.6-1-0.6-1.8
				c0-0.8,0.2-1.3,0.6-1.8c0.4-0.4,0.9-0.6,1.6-0.6c0.7,0,1.2,0.2,1.6,0.7C-269.7,365.8-269.5,366.4-269.5,367.1z M-273.5,367.1
				c0,0.7,0.2,1.2,0.5,1.6c0.3,0.4,0.8,0.6,1.3,0.6c0.6,0,1-0.2,1.3-0.6c0.3-0.4,0.5-0.9,0.5-1.6c0-0.7-0.2-1.2-0.5-1.6
				c-0.3-0.4-0.8-0.5-1.3-0.5c-0.6,0-1,0.2-1.3,0.5C-273.4,365.9-273.5,366.4-273.5,367.1z"/>
			<path fill="#EC1C24" d="M-266.9,369.5h-0.3v-4.7h2.7v0.3h-2.3v2h2.2v0.3h-2.2C-266.9,367.4-266.9,369.5-266.9,369.5z"/>
			<path fill="#EC1C24" d="M-257.4,369.5l-1.8-4.4h0c0,0.3,0,0.5,0,0.8v3.5h-0.3v-4.7h0.5l1.7,4.2h0l1.7-4.2h0.5v4.7h-0.3v-3.6
				c0-0.3,0-0.5,0-0.8h0l-1.8,4.4C-257.2,369.5-257.4,369.5-257.4,369.5z"/>
			<path fill="#EC1C24" d="M-250,367.8h-2l-0.7,1.7h-0.4l2-4.7h0.2l1.9,4.7h-0.4L-250,367.8z M-251.9,367.5h1.7l-0.7-1.7
				c-0.1-0.1-0.1-0.3-0.2-0.6c-0.1,0.2-0.1,0.4-0.2,0.6L-251.9,367.5z"/>
			<path fill="#EC1C24" d="M-246.7,367.4v2.1h-0.3v-4.7h1.2c0.6,0,1.1,0.1,1.3,0.3c0.3,0.2,0.4,0.5,0.4,1c0,0.3-0.1,0.6-0.3,0.8
				c-0.2,0.2-0.4,0.4-0.8,0.5l1.3,2.2h-0.4l-1.3-2.1C-245.5,367.4-246.7,367.4-246.7,367.4z M-246.7,367.1h0.9c0.4,0,0.7-0.1,1-0.3
				c0.2-0.2,0.3-0.4,0.3-0.8c0-0.4-0.1-0.6-0.3-0.8c-0.2-0.2-0.6-0.2-1.1-0.2h-0.8V367.1z"/>
			<path fill="#EC1C24" d="M-240.6,367.3l1.4-2.6h0.4l-1.6,2.9v1.8h-0.4v-1.8l-1.6-2.9h0.4L-240.6,367.3z"/>
			<path fill="#EC1C24" d="M-236.9,369.5v-4.7h0.3v4.4h2.3v0.3H-236.9z"/>
			<path fill="#EC1C24" d="M-229.8,367.8h-2l-0.7,1.7h-0.4l2-4.7h0.2l1.9,4.7h-0.4L-229.8,367.8z M-231.7,367.5h1.7l-0.7-1.7
				c-0.1-0.1-0.1-0.3-0.2-0.6c-0.1,0.2-0.1,0.4-0.2,0.6L-231.7,367.5z"/>
			<path fill="#EC1C24" d="M-223.3,369.5h-0.3l-2.9-4.2h0c0,0.5,0,0.9,0,1.1v3.1h-0.3v-4.7h0.3l2.9,4.2h0c0-0.4,0-0.8,0-1.1v-3.1
				h0.3L-223.3,369.5L-223.3,369.5z"/>
			<path fill="#EC1C24" d="M-217,367.1c0,0.8-0.2,1.4-0.6,1.8c-0.4,0.4-1.1,0.6-1.9,0.6h-1.2v-4.7h1.3c0.8,0,1.4,0.2,1.8,0.6
				C-217.2,365.7-217,366.3-217,367.1z M-217.3,367.1c0-0.7-0.2-1.2-0.5-1.5c-0.4-0.3-0.9-0.5-1.6-0.5h-0.9v4.1h0.8
				C-218.1,369.2-217.3,368.5-217.3,367.1z"/>
		</g>
		<g>
			<g>
				<polygon fill="#EC1C24" points="-365,353.8 -365.1,370.5 -350.5,379 -350.5,371.6 -358.7,366.7 -358.7,364.8 -350.5,369.6 
					-350.5,362.5 				"/>
			</g>
			<g>
				<polygon fill="#333333" points="-364.9,352.8 -349.8,361.6 -342.5,357.6 -342.5,359.2 -349.2,363.2 -349.2,379 -335.1,369.3 
					-335.1,352.3 -341.2,348.6 -348.3,352.9 -349.8,352.2 -342.5,347.7 -349.3,343 				"/>
			</g>
		</g>
	</g>
</g>
</svg>
