<?xml version="1.0" encoding="utf-8"?>
<!-- Generator: Adobe Illustrator 19.2.1, SVG Export Plug-In . SVG Version: 6.00 Build 0)  -->
<svg version="1.1" id="Layer_1" xmlns="http://www.w3.org/2000/svg" xmlns:xlink="http://www.w3.org/1999/xlink" x="0px" y="0px"
	 viewBox="0 0 792 576" style="enable-background:new 0 0 792 576;" xml:space="preserve">
<style type="text/css">
	.st0{clip-path:url(#SVGID_2_);}
	.st1{fill:none;stroke:#000000;stroke-width:0.128;stroke-miterlimit:6;}
	.st2{clip-path:url(#SVGID_4_);fill:#FFFFFF;}
	.st3{clip-path:url(#SVGID_4_);fill:#E31837;}
	.st4{clip-path:url(#SVGID_4_);}
	.st5{clip-path:url(#SVGID_4_);fill:#FFD200;}
	.st6{clip-path:url(#SVGID_4_);fill:#FFD24F;}
	.st7{fill:#E31837;}
	.st8{font-family:'Interstate-Light';}
	.st9{font-size:12.674px;}
	.st10{font-family:'Bembo-Italic';}
</style>
<g>
	<g>
		<defs>
			<rect id="SVGID_1_" x="317" y="222.2" width="152.6" height="132.8"/>
		</defs>
		<clipPath id="SVGID_2_">
			<use xlink:href="#SVGID_1_"  style="overflow:visible;"/>
		</clipPath>
		<path class="st0" d="M323.8,311c0.2,0.9,0.9,1.4,1.6,1.4c0.7,0,1.4-0.4,1.4-1.1c0-1.4-3.1-1.8-3.1-3.5c0-0.8,0.7-1.4,1.7-1.4
			c0.8,0,1,0.2,1.3,0.2c0.1,0,0.1,0,0.2-0.1h0.2l0.2,1.2h-0.2c-0.3-0.7-0.9-1.1-1.6-1.1c-0.6,0-1.1,0.4-1.1,0.9
			c0,1.4,3.1,1.8,3.1,3.5c0,1-0.8,1.7-2,1.7c-0.5,0-1.2-0.3-1.4-0.3c-0.1,0-0.2,0-0.2,0.1h-0.2l-0.2-1.5H323.8z"/>
		<path class="st0" d="M336.4,308c-0.3-0.9-1.2-1.5-2.2-1.5c-1.6,0-2.6,1.2-2.6,2.8c0,1.8,1.3,3.1,2.7,3.1c0.8,0,1.7-0.3,2.4-1.4
			h0.2c-0.1,0.4-0.4,1-0.6,1.4c-0.6-0.1-1.1,0.2-2.2,0.2c-2,0-3.4-1.3-3.4-3.1c0-1.9,1.5-3.2,3.5-3.2c1.2,0,1.8,0.4,2.1,0.4
			c0.1,0,0.2,0,0.2-0.1h0.1l0.1,1.4L336.4,308z"/>
		<path class="st0" d="M341.4,309.6v1.8c0,0.6,0.1,0.9,0.8,0.9h0v0.2h-2.4v-0.2h0.1c0.6,0,0.8-0.2,0.8-0.7v-4.3
			c0-0.5-0.2-0.7-0.7-0.7v-0.2h2.3v0.2c-0.7,0-0.8,0.2-0.8,0.9v1.7h3.8v-1.9c0-0.5-0.2-0.7-0.8-0.7h-0.2v-0.2h2.5v0.2
			c-0.6,0-0.7,0.2-0.7,0.8v4c0,0.7,0.2,0.8,0.8,0.8h0.1v0.2h-2.7v-0.2h0.3c0.6,0,0.8-0.2,0.8-0.7v-2H341.4z"/>
		<path class="st0" d="M355.4,309.6c0,1.4-0.8,2.8-2.3,2.8c-1.6,0-2.8-1.3-2.8-3.1c0-1.2,0.7-2.8,2.4-2.8
			C354.2,306.5,355.4,307.8,355.4,309.6 M356.3,309.3c0-1.8-1.6-3-3.4-3c-2.1,0-3.6,1.4-3.6,3.3c0,1.8,1.6,3,3.5,3
			C354.7,312.7,356.3,311.3,356.3,309.3"/>
		<path class="st0" d="M365.6,309.6c0,1.4-0.8,2.8-2.3,2.8c-1.6,0-2.8-1.3-2.8-3.1c0-1.2,0.7-2.8,2.4-2.8
			C364.4,306.5,365.6,307.8,365.6,309.6 M366.5,309.3c0-1.8-1.6-3-3.4-3c-2.1,0-3.6,1.4-3.6,3.3c0,1.8,1.6,3,3.5,3
			C364.9,312.7,366.5,311.3,366.5,309.3"/>
		<path class="st0" d="M373.8,312.5h-4.3v-0.2h0.3c0.4,0,0.6-0.1,0.6-0.6v-4.3c0-0.5-0.2-0.7-0.8-0.7h-0.1v-0.2h2.9v0.2H372
			c-0.6,0-0.8,0.1-0.8,0.7v4.5c0,0.3,0.1,0.4,0.4,0.4h1.4c0.6,0,0.8-0.2,1.4-1.1h0.2L373.8,312.5z"/>
		<path class="st0" d="M387.1,309.6c0,1.4-0.8,2.8-2.3,2.8c-1.6,0-2.8-1.3-2.8-3.1c0-1.2,0.7-2.8,2.4-2.8
			C386,306.5,387.1,307.8,387.1,309.6 M388,309.3c0-1.8-1.6-3-3.4-3c-2.1,0-3.6,1.4-3.6,3.3c0,1.8,1.6,3,3.5,3
			C386.4,312.7,388,311.3,388,309.3"/>
		<path class="st0" d="M394.8,310.2h-0.2c0-0.6-0.2-0.7-0.7-0.7h-1.8v2.1c0,0.5,0.1,0.7,0.8,0.7v0.2h-2.4v-0.2c0.6,0,0.7-0.2,0.7-1
			v-3.8c0-0.6,0-0.9-0.7-0.9v-0.2h4.4v1.1h-0.2c0-0.6-0.2-0.8-0.8-0.8h-1.9v2.3h1.9c0.4,0,0.5-0.2,0.6-0.6h0.2V310.2z"/>
		<path class="st0" d="M403.8,306.6c0.2,0,0.6,0,0.9,0c1.2,0,1.6,0.6,1.6,1.3c0,0.8-0.5,1.1-1.4,1.1h-1.1V306.6z M403,311.5
			c0,0.6-0.2,0.8-1,0.8h-0.2v0.2h3.6c1.6,0,2.1-1.1,2.1-1.8c0-0.8-0.5-1.3-1.4-1.6v0c0.6-0.1,1.1-0.6,1.1-1.2c0-0.5-0.2-0.8-0.6-1.1
			c-0.4-0.3-1.1-0.4-2-0.4c-0.2,0-0.9,0-1.5,0c-0.3,0-1,0.1-1.2,0.1v0.2h0.3c0.7,0,0.8,0.3,0.8,0.8V311.5z M403.8,309.2h1.1
			c1.1,0,1.7,0.8,1.7,1.5c0,0.8-0.4,1.5-1.7,1.5c-0.8,0-1.1-0.3-1.1-1V309.2z"/>
		<path class="st0" d="M417.6,306.5v0.2c-0.7,0-0.9,0.3-0.9,0.9v2.6c0,1.2-0.8,2.5-2.9,2.5c-1.9,0-2.8-1.1-2.8-2.4v-2.8
			c0-0.6-0.2-0.7-0.8-0.7v-0.2h2.5v0.2h-0.1c-0.5,0-0.8,0.1-0.8,0.7v2.7c0,1.3,0.8,2.1,2.2,2.1c1.1,0,2.2-0.5,2.2-2.1v-2.3
			c0-0.9-0.1-1.1-1-1.1v-0.2H417.6z"/>
		<path class="st0" d="M420.6,311c0.2,0.9,0.9,1.4,1.6,1.4c0.7,0,1.3-0.4,1.3-1.1c0-1.4-3.1-1.8-3.1-3.5c0-0.8,0.7-1.4,1.7-1.4
			c0.8,0,1,0.2,1.3,0.2c0.1,0,0.1,0,0.2-0.1h0.2l0.2,1.2h-0.2c-0.3-0.7-0.9-1.1-1.6-1.1c-0.7,0-1.1,0.4-1.1,0.9
			c0,1.4,3.1,1.8,3.1,3.5c0,1-0.8,1.7-2,1.7c-0.5,0-1.2-0.3-1.4-0.3c-0.1,0-0.2,0-0.2,0.1h-0.2l-0.2-1.5H420.6z"/>
		<path class="st0" d="M429.8,312.5h-2.4v-0.2c0.6,0,0.7-0.2,0.7-0.8v-4.1c0-0.5-0.2-0.7-0.7-0.7v-0.2h2.4v0.2
			c-0.6,0-0.8,0.1-0.8,0.8v4.1c0,0.6,0.2,0.8,0.8,0.8V312.5z"/>
		<path class="st0" d="M439,312.6l-5-5.3v4.2c0,0.7,0.2,0.8,1,0.8v0.2h-2.3v-0.2h0c0.6,0,0.8-0.2,0.8-0.7v-4.8
			c-0.2-0.2-0.5-0.2-0.8-0.2v-0.2h1.5l4.6,4.8v-3.9c0-0.6-0.2-0.7-1-0.7v-0.2h2.3v0.2c-0.7,0-0.9,0.1-0.9,0.5v5.4H439z"/>
		<path class="st0" d="M447,310.3h-0.2c-0.1-0.7-0.3-0.8-0.7-0.8h-1.7v2.1c0,0.5,0.2,0.5,0.5,0.5h1.5c0.7,0,0.9-0.3,1.1-1.1h0.2
			l-0.2,1.5h-5.2v-0.2h0.3c0.8,0,0.9-0.2,0.9-0.8v-4.1c0-0.5-0.1-0.8-0.8-0.8h-0.2v-0.2h4.7l0.1,1.3h-0.2c-0.1-0.8-0.4-1-0.7-1h-2.1
			v2.4h1.8c0.4,0,0.5-0.2,0.6-0.7h0.2V310.3z"/>
		<path class="st0" d="M451.1,311c0.2,0.9,0.9,1.4,1.6,1.4c0.7,0,1.4-0.4,1.4-1.1c0-1.4-3.1-1.8-3.1-3.5c0-0.8,0.7-1.4,1.7-1.4
			c0.8,0,1,0.2,1.3,0.2c0.1,0,0.1,0,0.2-0.1h0.2l0.2,1.2h-0.2c-0.3-0.7-0.9-1.1-1.6-1.1c-0.6,0-1.1,0.4-1.1,0.9
			c0,1.4,3.1,1.8,3.1,3.5c0,1-0.8,1.7-2,1.7c-0.5,0-1.2-0.3-1.4-0.3c-0.1,0-0.2,0-0.2,0.1h-0.2L451,311H451.1z"/>
		<path class="st0" d="M458.1,311c0.2,0.9,0.9,1.4,1.7,1.4c0.7,0,1.4-0.4,1.4-1.1c0-1.4-3.1-1.8-3.1-3.5c0-0.8,0.7-1.4,1.7-1.4
			c0.8,0,1,0.2,1.3,0.2c0.1,0,0.1,0,0.2-0.1h0.2l0.2,1.2h-0.2c-0.3-0.7-0.9-1.1-1.6-1.1c-0.6,0-1.1,0.4-1.1,0.9
			c0,1.4,3.1,1.8,3.1,3.5c0,1-0.8,1.7-2,1.7c-0.5,0-1.2-0.3-1.4-0.3c-0.1,0-0.2,0-0.2,0.1h-0.2l-0.2-1.5H458.1z"/>
		<path class="st0" d="M325.6,288.7c0.4,0,0.6,0,1,0c3.1,0,4,1.5,4,3.5c0,2.6-1.5,3.6-3.8,3.6c-0.5,0-0.8,0-1.3,0V288.7z
			 M325.6,296.2c0.3,0,0.6,0,1,0c0.5,0,0.9,0,1.4,0c0.5,0.3,1.2,1,2.1,1.9l1.3,1.4c1.8,1.9,2.7,2.7,6.3,2.5v-0.4
			c-1.6-0.1-2.8-0.9-4-2.2l-1.6-1.7c-1-1-1.6-1.6-2.3-2.2c1.7-0.5,2.7-1.9,2.7-3.5c0-2.2-1.7-3.8-5.5-3.8c-1.3,0-1.7,0-2.6,0.1
			c-0.8,0-2.1,0.1-2.6,0.1v0.4h0.4c1.2,0,1.5,0.4,1.5,1.7v9c0,1.4-0.4,1.8-1.6,1.8h-0.3v0.4h5.8v-0.4h-0.5c-1.1,0-1.6-0.3-1.6-1.6
			V296.2z"/>
		<path class="st0" d="M342.8,295.6c0,1.9-1,3.8-3,3.8c-2,0-3.6-1.7-3.6-4.2c0-1.6,0.9-3.7,3.1-3.7
			C341.3,291.4,342.8,293.2,342.8,295.6 M343.9,295.2c0-2.4-2-4.1-4.4-4.1c-2.7,0-4.6,1.8-4.6,4.5c0,2.5,2.1,4.1,4.5,4.1
			C341.9,299.7,343.9,297.8,343.9,295.2"/>
		<path class="st0" d="M347.9,291.3c0.4,0,1.1-0.1,1.4-0.1c2,0,2.7,1.1,2.7,2.3c0,1.3-0.8,2-2.3,2h-1.8V291.3z M346.6,300
			c0,1.1-0.3,1.4-1.6,1.4h-0.4v0.3h6c2.6,0,3.5-1.9,3.5-3.2c0-1.3-0.9-2.4-2.4-2.8v0c1.1-0.2,1.8-1.1,1.8-2.1c0-0.8-0.3-1.4-1-1.9
			c-0.6-0.4-1.8-0.7-3.3-0.7c-0.3,0-1.5,0-2.4,0.1c-0.5,0-1.6,0.1-2,0.1v0.3h0.6c1.1,0,1.3,0.5,1.3,1.5V300z M347.9,295.8h1.8
			c1.9,0,2.9,1.4,2.9,2.7c0,1.3-0.6,2.7-2.8,2.7c-1.4,0-1.9-0.5-1.9-1.8V295.8z"/>
		<path class="st0" d="M361.8,297.8h-0.3c-0.1-1.2-0.4-1.4-1.1-1.4h-2.7v3.7c0,0.8,0.3,0.9,0.9,0.9h2.5c1.1,0,1.5-0.5,1.9-1.9h0.3
			l-0.3,2.6h-8.6v-0.3h0.5c1.3,0,1.5-0.4,1.5-1.4v-7.2c0-1-0.2-1.4-1.3-1.4h-0.4v-0.3h7.8l0.1,2.4h-0.3c-0.2-1.5-0.6-1.8-1.2-1.8
			h-3.4v4.2h2.9c0.6,0,0.9-0.3,0.9-1.3h0.3V297.8z"/>
		<path class="st0" d="M367.2,291.3c0.3,0,0.5,0,0.8,0c2.5,0,3.2,1.2,3.2,2.8c0,2.1-1.2,2.9-3,2.9c-0.4,0-0.6,0-1,0V291.3z
			 M367.2,297.2c0.3,0,0.5,0,0.8,0c0.4,0,0.7,0,1.1,0c0.4,0.3,1,0.8,1.7,1.5l1.1,1.1c1.4,1.5,2.2,2.2,5,2v-0.3
			c-1.3-0.1-2.2-0.7-3.2-1.7l-1.3-1.3c-0.8-0.8-1.2-1.3-1.8-1.8c1.3-0.4,2.2-1.5,2.2-2.8c0-1.7-1.3-3-4.4-3c-1.1,0-1.4,0-2,0.1
			c-0.7,0-1.7,0.1-2,0.1v0.3h0.4c0.9,0,1.2,0.3,1.2,1.4v7.2c0,1.1-0.3,1.4-1.3,1.4h-0.3v0.3h4.6v-0.3h-0.4c-0.9,0-1.3-0.3-1.3-1.3
			V297.2z"/>
		<path class="st0" d="M380.2,300.1c0,0.9,0.3,1.2,1.3,1.2h0.6v0.3H377v-0.3h0.6c1,0,1.3-0.3,1.3-1.2v-8.4H376
			c-0.6,0-0.9,0.4-1.2,1.9h-0.3l0.3-2.8h0.3c0,0.1,0.1,0.2,0.2,0.2c0.1,0,0.2,0.1,0.3,0.1h7.8c0.2,0,0.5-0.1,0.5-0.3h0.3l0.3,2.8
			h-0.3c-0.2-1.5-0.5-1.9-1.2-1.9h-2.8V300.1z"/>
		<path class="st0" d="M392.3,295.4v4.1c0,1.4,0.3,1.9,1.6,1.9h0.1v0.4h-5.1v-0.4h0.1c1.2,0,1.6-0.3,1.6-1.6v-9.4
			c0-1.1-0.3-1.4-1.5-1.5v-0.4h4.9v0.4c-1.4,0-1.7,0.4-1.7,2.1v3.7h8v-4.2c0-1.1-0.3-1.6-1.6-1.6h-0.4v-0.4h5.2v0.4
			c-1.2,0-1.5,0.4-1.5,1.8v8.9c0,1.5,0.4,1.9,1.6,1.9h0.2v0.4h-5.8v-0.4h0.6c1.3,0,1.6-0.5,1.6-1.6v-4.4H392.3z"/>
		<path class="st0" d="M407.9,301.1c0,0.5-0.4,0.8-0.8,0.8c-0.5,0-0.8-0.3-0.8-0.8c0-0.5,0.4-0.8,0.8-0.8
			C407.5,300.3,407.9,300.6,407.9,301.1"/>
		<path class="st0" d="M411.8,298.5c0.4,1.9,1.9,3,3.4,3c1.4,0,2.8-0.8,2.8-2.5c0-3.1-6.5-4-6.5-7.8c0-1.8,1.6-3.1,3.6-3.1
			c1.7,0,2.1,0.5,2.8,0.5c0.2,0,0.2,0,0.4-0.2h0.3l0.4,2.7h-0.4c-0.6-1.5-1.9-2.5-3.3-2.5c-1.3,0-2.3,0.8-2.3,2c0,3,6.5,3.9,6.5,7.8
			c0,2.1-1.8,3.7-4.2,3.7c-1.1,0-2.5-0.6-2.8-0.6c-0.2,0-0.3,0.1-0.4,0.3h-0.3l-0.4-3.3H411.8z"/>
		<path class="st0" d="M427,301.7l-4.1-9.1h0l-0.4,7.7c0,0.9,0.6,1.1,1.3,1.1v0.3h-3.4v-0.3c1.2,0,1.3-0.3,1.4-1.8l0.4-6.7
			c0.1-1.1,0-1.4-1-1.5v-0.3h2.4l3.9,8.6l3.9-8.6h2.4v0.3c-0.8,0.1-1.1,0.1-1.1,0.7l0.5,7.8c0.1,1.6,0.2,1.6,1.4,1.6v0.3h-4.2v-0.3
			c0.8,0,1.5-0.2,1.4-1.1l-0.5-7.7h0l-4,9.1H427z"/>
		<path class="st0" d="M439.7,301.7h-3.9v-0.3c1,0,1.2-0.3,1.2-1.5v-7.3c0-0.9-0.3-1.2-1.2-1.2v-0.3h3.9v0.3c-1,0-1.4,0.2-1.4,1.4
			v7.2c0,1,0.3,1.3,1.4,1.3V301.7z"/>
		<path class="st0" d="M446.2,300.1c0,0.9,0.3,1.2,1.3,1.2h0.6v0.3h-5.1v-0.3h0.6c1,0,1.3-0.3,1.3-1.2v-8.4H442
			c-0.6,0-0.9,0.4-1.2,1.9h-0.3l0.3-2.8h0.3c0,0.1,0.1,0.2,0.2,0.2c0.1,0,0.2,0.1,0.3,0.1h7.8c0.2,0,0.5-0.1,0.5-0.3h0.3l0.3,2.8
			h-0.3c-0.2-1.5-0.5-1.9-1.2-1.9h-2.8V300.1z"/>
		<path class="st0" d="M453.8,296.6v3.3c0,1.1,0.2,1.5,1.3,1.5h0v0.3h-4.1v-0.3h0.1c1,0,1.3-0.3,1.3-1.2v-7.5c0-0.9-0.3-1.1-1.2-1.2
			v-0.3h3.9v0.3c-1.2,0-1.4,0.3-1.4,1.6v3h6.4v-3.4c0-0.9-0.3-1.2-1.3-1.2h-0.3v-0.3h4.2v0.3c-1,0-1.2,0.3-1.2,1.4v7.1
			c0,1.2,0.3,1.5,1.3,1.5h0.2v0.3h-4.6v-0.3h0.5c1.1,0,1.3-0.4,1.3-1.3v-3.5H453.8z"/>
	</g>
	<line class="st1" x1="323.6" y1="317.8" x2="463.7" y2="317.8"/>
	<g>
		<defs>
			<rect id="SVGID_3_" x="317" y="222.2" width="152.6" height="132.8"/>
		</defs>
		<clipPath id="SVGID_4_">
			<use xlink:href="#SVGID_3_"  style="overflow:visible;"/>
		</clipPath>
		<path class="st2" d="M390.8,272c11.4,0,20.7-9.2,20.7-20.6c0-11.4-9.7-20.6-20.7-20.6c-11.4,0-20.8,9.2-20.8,20.6
			C370,262.7,379.4,272,390.8,272"/>
		<path class="st2" d="M400.5,238.3c-2.7,0.4-6.2,0.6-10,0.6c0-4.1,0.1-7.1,0.2-8C394.5,231.6,398,234.3,400.5,238.3"/>
		<path class="st3" d="M405,253c-3.9,0.6-9,0.9-14.5,0.9c0-5.6,0-11,0.1-15.2c3.7,0,7.3-0.2,10-0.6C403.2,242.1,404.8,247.4,405,253
			"/>
		<path class="st2" d="M404.6,253c-1.1-0.2-2-2-1.5-3.8c-1.5,1-3.2-1.1-3-3.1c0.1-1.1,0.8-2,2-1.6c-0.5-1.7-1.1-3.3-1.8-4.7
			c-1.1,0.1-2.2,0.2-3.5,0.3c1.1,1.7,0,3.2-1.5,3c-1.1-0.2-2.2-1.4-1.9-2.7c-0.9,0.6-2.8,0.4-2.9-1.6c3.4,0,6.4-0.1,10-0.6
			c2.9,4.8,4.1,8.9,4.4,14.9C404.9,253,404.7,253,404.6,253"/>
		<path class="st2" d="M379.8,266.9c-2.1-0.4-3.5-0.8-4-1.3c-0.5-0.6-1.2-1.4-1.7-2c-1.2-1.7-1.2-1.8-1.7-2.8c-0.9-1.9-0.9-2-1.3-3
			c-0.6-2.1-0.6-2.1-0.8-3.2c-0.1-1-0.2-2.3-0.3-3.3l0-0.9c0,0.9,2.1,1.7,5.7,2.3c0,0.3,0,0.6,0,0.9
			C375.8,259,377.3,263.6,379.8,266.9"/>
		<path class="st2" d="M390.8,272c-0.1,0-0.2,0-0.3,0c-0.2,0-0.4,0-0.6,0c-1.2-0.1-2.1-0.2-3.1-0.4c-2.7-0.6-5.1-2.3-6.9-4.7
			c1.8,0.3,4.2,0.5,6.9,0.7c1.3,0.1,2.6,0.1,3.9,0.1C390.6,270.4,390.7,272,390.8,272"/>
		<path class="st3" d="M390.6,267.6c-1.3,0-2.6,0-3.9-0.1c-2.7-0.1-5.1-0.3-6.9-0.7c-2.5-3.3-4-7.9-4-13.3c0-0.2,0-0.5,0-0.7
			c2.5,0.4,5.7,0.7,9.4,0.9c1.8,0.1,3.5,0.1,5.3,0.1c0,0.2,0,0.5,0,0.7C390.5,260,390.5,264.5,390.6,267.6"/>
		<path class="st3" d="M390.6,267.9c-0.2,0.7-1.2,1.4-2.6,0.8c0.7,0.9,0.1,1.6-1.1,1.4c-0.9-0.2-2-0.9-2.1-1.6
			c-1.1-0.1-2.1-0.2-3.1-0.3c0.9,1,1.8,1.8,2.9,2.4c0.1-0.1,0.3,0,0.9,0.2c0.8,0.3,1.5,0.7,2.3,1v0c-0.6-0.1-0.7-0.1-1.1-0.2
			c-1.5-0.4-4.3-1.2-6.9-4.7c3.2,0.5,6.3,0.7,10.8,0.7C390.6,267.7,390.6,267.8,390.6,267.9"/>
		<path class="st2" d="M379.8,266.9L379.8,266.9c-2.9-4.1-4-8-4-14c1.6,0.5,2.1,2.9,1.6,4.2c1.5-0.6,3.5,2.1,2.8,3.8
			c-0.3,0.8-1.1,1-2,0.6c0.5,1.5,1,3,1.8,4.2c1.1,0.1,2.3,0.3,3.6,0.4c-1.1-1.3-0.2-2.4,1.2-2.3c1.2,0.1,2.8,1.1,2.5,2.5
			c1.1-0.5,3-0.1,3.2,1.4c-1.3,0-3.4,0-6-0.2C383,267.3,381.4,267,379.8,266.9"/>
		<path class="st3" d="M379.8,266.9c-2.4-0.4-3.4-0.8-4-1.3c-0.5-0.5-1.1-1.3-1.6-1.8c0.1,0.1,0.1,0.2,0.4,0.4
			c-0.2-0.3-1.3-1.7-1.4-2.3c0.6-0.1,2.5,2.9,2.5,2.9c0.6,0.2,1.3,0.4,2.2,0.6c-0.8-1.3-1.6-2.7-2.1-4.3c-1.3,0.6-2.9-2.8-2.4-4.2
			c0.1-0.3,0.4-0.9,1.3-0.2c-0.7-1.5-0.5-3.8,1.1-3.8C375.9,257.9,376.6,262.2,379.8,266.9"/>
		<path class="st4" d="M404.9,256.5L404.9,256.5c0.1-1,0.1-1.9,0.1-2.9c0-0.2,0-0.5,0-0.7c0,0,0,0,0,0c0,0.2,0,0.5,0,0.7
			C405,254.6,405,255.6,404.9,256.5"/>
		<path class="st4" d="M394,271.7L394,271.7c5.7-0.9,10.1-6.9,10.9-15.2l0,0C404,264.8,399.7,270.8,394,271.7"/>
		<path class="st4" d="M400.8,269.4c-1.4,0.7-1.7,0.9-3.2,1.4c-0.4,0.1-1,0.3-1.5,0.5c2.9-0.8,5.5-2.4,7.5-4.7
			c-0.4,1-0.7,1.5-2.2,2.5C401.2,269.2,401,269.3,400.8,269.4"/>
		<path class="st5" d="M401.4,269c1.2-0.9,1.8-1.4,2.2-2.5c3-3.4,4.8-8.1,4.8-13.6c0-0.2,0-0.5,0-0.7c0.9-0.2,1.7-0.5,2.2-0.8
			c0,0.2,0,0.5,0,0.7C410.7,259.4,407,265.7,401.4,269"/>
		<path class="st4" d="M395.2,263.7c-1.4-1.4-1.4-1.4-4.7-4.5c0-1.4,0-3,0-4.6c0-0.2,0-0.5,0-0.7c1.8,0,3.6,0,5.3-0.1
			c0,0.2,0,0.5,0,0.7C395.8,257.9,395.6,261.1,395.2,263.7"/>
		<path class="st5" d="M391.7,272l-0.1,0c-0.3,0-0.4,0-0.5,0l-0.2,0c-0.1,0-0.2-5.1-0.3-12.8c3.1,2.9,3.4,3.2,4.7,4.5
			C394.5,268.7,393.2,271.9,391.7,272"/>
		<path class="st4" d="M392.6,271.9c-0.2,0-0.4,0-0.5,0c-0.1,0-0.3,0-0.4,0c1.5-0.1,2.8-3.2,3.5-8.2c1.5,1.6,2.2,2.3,2.9,3.5
			C396.7,270,394.8,271.7,392.6,271.9"/>
		<path class="st5" d="M398.1,267.2c-0.7-1.1-1.1-1.7-2.9-3.5c0.4-2.6,0.6-5.8,0.6-9.2c0-0.2,0-0.5,0-0.7c1.7-0.1,3.3-0.2,4.9-0.3
			c0,0.2,0,0.5,0,0.7C400.6,259.5,399.7,264.1,398.1,267.2"/>
		<path class="st4" d="M398.5,269.8c0.3-0.8,0.2-1.3-0.4-2.5c1.6-3.2,2.6-7.7,2.6-13c0-0.2,0-0.5,0-0.7c0.6,0,1.1-0.1,1.7-0.2
			c0.8,0.9,1.7,2,2.5,3.2C404.3,262.4,401.9,267.2,398.5,269.8"/>
		<path class="st5" d="M394,271.7c-0.2,0-0.4,0.1-0.5,0.1c-0.5,0.1-0.5,0.1-0.7,0.1l-0.1,0c2.1-0.2,4-1.9,5.4-4.7
			c0.6,1.1,0.7,1.6,0.4,2.5C397.1,270.8,395.6,271.5,394,271.7"/>
		<path class="st5" d="M396.2,271.3l-0.5,0.1c-0.8,0.2-0.8,0.2-1.3,0.3l-0.4,0.1c4-0.6,7.4-3.8,9.3-8.6c0.5,1.4,0.7,2.1,0.3,3.4
			C401.6,268.8,399.1,270.5,396.2,271.3"/>
		<path class="st4" d="M395.7,271.4c-0.8,0.2-0.8,0.2-1.3,0.3l-0.4,0.1c1.6-0.3,3.1-0.9,4.5-1.9c-0.5,0.7-0.8,1-2.3,1.5L395.7,271.4
			z"/>
		<path class="st4" d="M403.7,266.5c0.3-1.2,0.3-1.8-0.3-3.4c1.1-2.7,1.7-5.9,1.7-9.5c0-0.2,0-0.5,0-0.7c1.3-0.2,2.5-0.4,3.4-0.7
			c0,0.2,0,0.5,0,0.7C408.4,258.4,406.6,263.2,403.7,266.5"/>
		<path class="st6" d="M400.8,269.4c0.2-0.1,0.4-0.2,0.6-0.3l-0.2,0.1L400.8,269.4z"/>
		<path class="st4" d="M410.8,252.1c0,7.4-3.8,13.7-9.6,17.1l0,0l0.2-0.1C407,265.7,410.7,259.5,410.8,252.1
			c-0.1-0.2-0.1-0.4-0.1-0.6c0,0,0.1,0,0.1-0.1C410.8,251.6,410.8,251.9,410.8,252.1"/>
		<path class="st5" d="M403.3,263.1c-0.7-1.5-1.2-2.3-2.9-4.3c0.2-1.5,0.3-3,0.3-4.6c0-0.2,0-0.5,0-0.7c1.6-0.1,3-0.3,4.3-0.5
			c0,0.2,0,0.5,0,0.7C405,257.2,404.4,260.4,403.3,263.1"/>
		<path class="st4" d="M400.4,258.8c-1.2-1.4-1.8-2.1-4.6-5c1.6-0.1,2.9-0.1,4.9-0.3c0,0.2,0,0.5,0,0.7
			C400.6,255.8,400.6,257.3,400.4,258.8"/>
		<path class="st4" d="M375.8,252.9C375.8,252.9,375.8,252.9,375.8,252.9c0-1.2,0.1-2.4,0.3-3.6l0,0
			C376,250.5,375.9,251.7,375.8,252.9"/>
		<path class="st4" d="M376.1,249.3L376.1,249.3c1.2-8.6,6.2-15.8,12.4-18l0,0C382.3,233.6,377.4,240.8,376.1,249.3"/>
		<path class="st4" d="M388.5,231.4L388.5,231.4c0.7-0.3,1.5-0.5,2.2-0.6C390,230.9,389.3,231.1,388.5,231.4"/>
		<path class="st6" d="M378.4,237.4c0.7-1.6,1.3-2.4,2.8-3.7c2.9-1.7,6.1-2.8,9.6-2.9C386,231.2,381.6,233.7,378.4,237.4"/>
		<path class="st4" d="M372.6,252.2c-0.8-0.2-1.5-0.5-1.9-0.8c0.2-7.5,4.4-14.1,10.4-17.7c-1.4,1.3-2.1,2-2.8,3.7
			C375,241.3,372.8,246.6,372.6,252.2"/>
		<path class="st5" d="M390.5,253.9c-1.7,0-3.5,0-5.3-0.1c-0.1,0-0.1,0-0.2,0c0-3.7,0.3-7.3,0.8-10.5c1.5,1.9,2.3,2.8,4.6,5.2
			C390.5,250.3,390.5,252.1,390.5,253.9"/>
		<path class="st5" d="M385.9,243.3c-1.4-2-2-3-2.6-4.8c1.9-4.1,4.5-6.9,7.4-7.7C388.7,231.9,386.9,236.9,385.9,243.3"/>
		<path class="st4" d="M385.1,253.8c-1.8-0.1-3.5-0.2-5-0.3c0.1-5.5,1.3-10.8,3.3-14.9c0.6,1.7,1.1,2.7,2.6,4.8
			C385.4,246.5,385.1,250.1,385.1,253.8"/>
		<path class="st5" d="M380.1,253.4c-0.6-0.1-1.1-0.1-1.7-0.2c-0.7-1.1-1.6-2.4-2.3-3.9c0.9-6,3.6-11.4,7.3-14.8
			c-0.5,1.4-0.6,2.2-0.2,4C381.4,242.6,380.1,247.9,380.1,253.4"/>
		<path class="st4" d="M383.3,238.5c-0.4-1.7-0.4-2.5,0.2-4c2.2-2,4.6-3.3,7.3-3.7C387.9,231.6,385.2,234.4,383.3,238.5"/>
		<path class="st4" d="M378.1,242.4c-0.3-2-0.3-3.1,0.3-4.9c3.2-3.7,7.6-6.2,12.4-6.6c-1.1,0.2-1.4,0.2-2.2,0.6
			C384.1,232.9,380.3,237,378.1,242.4"/>
		<path class="st5" d="M383.5,234.5c0.7-1.2,1.2-1.8,2.9-2.7c1.4-0.5,2.9-0.9,4.4-1C388.1,231.2,385.6,232.5,383.5,234.5"/>
		<path class="st5" d="M375.8,252.9c-1.2-0.2-2.3-0.4-3.2-0.7c0.2-5.6,2.3-10.9,5.7-14.8c-0.5,1.7-0.7,2.8-0.3,4.9
			C376.7,245.5,375.9,249.1,375.8,252.9"/>
		<path class="st5" d="M381.2,233.7c1.5-1.1,2.4-1.6,4.7-2.3c1.6-0.4,3.2-0.6,4.9-0.6C387.3,230.9,384,232,381.2,233.7"/>
		<path class="st5" d="M370.7,251.4c-0.4-0.3-0.7-0.6-0.6-0.8l0-0.7c0.6-9,7.1-16.4,15.8-18.5c-2,0.6-3,1.1-4.7,2.3
			C375.1,237.3,370.9,243.9,370.7,251.4"/>
		<path class="st4" d="M380.1,253.4c-1.6-0.2-3-0.3-4.2-0.5c0.1-3.7,0.9-7.3,2.3-10.5c0.5,2.1,0.9,3.2,2.4,5.7
			C380.2,249.8,380.1,251.6,380.1,253.4"/>
		<path class="st5" d="M380.1,253.4c0-1.8,0.2-3.7,0.4-5.4c1.3,1.9,2,3,4.6,5.8C383.3,253.7,382.1,253.6,380.1,253.4"/>
		<path class="st4" d="M386.4,231.8c1.2-0.5,2.1-0.9,4.4-1C389.3,230.9,387.8,231.3,386.4,231.8"/>
		<path class="st4" d="M410.8,251.4c0.5-0.3,0.8-0.6,0.8-0.9c0.3,8.6-4.6,15.3-10.3,18.7l0,0l0.2-0.1c5.6-3.4,9.3-9.6,9.3-16.9
			c0-0.2,0-0.5,0-0.7C410.7,251.4,410.8,251.4,410.8,251.4c0,0.2,0,0.5,0,0.7"/>
		<path class="st3" d="M400.6,238.1L400.6,238.1C400.6,238.1,400.6,238.1,400.6,238.1C400.6,238.1,400.6,238.1,400.6,238.1
			c0.2,0,0.4-0.1,0.6-0.1c1.2-0.2,3.8-0.8,3.8-1.6c0,0,1.1,1,1.9,2.5c0.1,0.2,0.2,0.3,0.2,0.5c0.1,0.2,0.1,0.3,0.1,0.5c0,0,0,0,0,0
			c0,0.1,0,0.1,0,0.2c0,0,0,0,0,0.1c0,0.4-0.3,0.5-0.6,0.3c0,0-0.1,0-0.1,0c-1.1-0.5-1.4-1.5-1.6-1.9c-0.5,0.2-1.4,0.6-2.2,0.7
			c-0.1,0-0.2,0.1-0.3,0.1c0.9,1.4,1.7,3.2,2.3,4.8c1-1.1,2.7,0.9,2.7,2.8c0,1.1-0.5,2.1-1.5,1.8c0.8,1.5,0.6,3.8-1,4.2
			C404.7,248,403.9,243.5,400.6,238.1L400.6,238.1"/>
		<path class="st3" d="M400.8,234.3C400.8,234.2,400.8,234.2,400.8,234.3C400.8,234.2,400.8,234.2,400.8,234.3
			C400.8,234.2,400.8,234.2,400.8,234.3c0-0.1,0-0.1,0-0.1c0,0,0,0,0.1,0l0,0c0,0,0.1-0.6,2.5,1c-4-3.1-8.1-4-10.5-4.3
			c0.3,0.1,0.5,0.2,0.6,0.2c0.1,0.1,0.2,0.1,0.3,0.2c0,0,0,0,0,0c0.3,0,0.6,0.1,0.8,0.1h0c0.1,0,0.2,0.1,0.3,0.1c0,0,0,0,0,0
			c0.1,0,0.2,0.1,0.2,0.1c0,0,0,0,0.1,0c0.1,0,0.1,0.1,0.2,0.1c0,0,0,0,0.1,0c0.1,0,0.2,0.1,0.3,0.1v0c0.7,0.4,1.3,0.8,1.3,1.1
			c-0.1,0.1-0.1,0.1-0.5,0c1.2,0.9,3,2.5,4,3.7c0.7-0.1,1.8-0.3,2.3-0.5C402.8,236.2,401,234.9,400.8,234.3"/>
		<path class="st2" d="M404.9,236.4c-0.5-0.5-1-0.9-1.5-1.3c-1-0.7-1.6-1-1.9-1.1l0,0c0,0-1.2-0.4-0.5,0.5l0,0
			c0.5,0.7,1.8,1.6,1.8,1.6c-0.5,0.2-1.5,0.3-2.3,0.4c-1-1.2-2.8-2.8-4-3.7c0.3,0.1,0.4,0.1,0.5,0c0-0.3-0.6-0.7-1.3-1.1v0
			c-0.1,0-0.2-0.1-0.3-0.1c0,0,0,0-0.1,0c-0.1,0-0.1-0.1-0.2-0.1c0,0,0,0-0.1,0c-0.1,0-0.2-0.1-0.2-0.1c0,0,0,0,0,0
			c-0.1,0-0.2-0.1-0.3-0.1c-0.2-0.1-0.5-0.1-0.8-0.1c0,0,0,0,0,0c0,0,0,0,0,0l-0.1,0c0,0,0,0,0,0c-0.1-0.1-0.2-0.1-0.3-0.2
			c-0.1-0.1-0.3-0.1-0.6-0.2c-0.6-0.1-1.1-0.1-1.4-0.1c-0.3,0-0.5,0-0.5,0c0,0,0,0,0,0c-0.1,0-0.1,0-0.1,0l0.1,0c-0.1,0-0.1,0-0.2,0
			c0.1,0,0.3,0,0.4,0.1c0.3,0.1,1,0.3,1.5,0.4c3.1,1.1,5.9,3.5,8,6.8c0,0,0.1,0,0.1,0c1.9-0.3,3-0.7,3.7-1c0,0,0,0,0,0
			C405,236.7,404.9,236.4,404.9,236.4L404.9,236.4z"/>
		<path class="st3" d="M400.6,238.1L400.6,238.1c-3.4-5-6.5-6.4-9.3-7.2c0.1,0,0.1,0,0.2,0.1c-0.1,0-0.3-0.1-0.4-0.1
			c0,0-0.1,0-0.1,0c0.1,0,0.2,0,0.3,0.1c-0.1,0-0.2-0.1-0.3-0.1c0,0-0.1,0-0.1,0c0,0,0,0,0,0c-0.1,0-0.1,0-0.2,0
			c0.6,0.7,1.4,0.9,1.7,1c-0.1,0.3,0,0.7,0.9,1.4c0.1,0.1,0.3,0.2,0.4,0.2c1.3,0.7,1.6,0.2,1.7-0.1c0,0,0,0,0,0
			c0.4,0.3,1.2,0.9,2.1,1.9c0.5,0.6,1,1.1,1.3,1.7c-0.8,0.1-1.9,0.2-3,0.3c-0.1-1.3-1-2-1.6-2.2c-1.3-0.5-1.7,1.1-1.2,2.1
			c-1-0.6-2.3-0.1-2.4,1.6C394.7,238.7,397.5,238.5,400.6,238.1"/>
		<path class="st4" d="M390.5,248.5c-2-2.1-3.1-3.3-4.6-5.2c1-6.4,2.8-11.3,4.9-12.5C390.6,232.3,390.5,239.7,390.5,248.5"/>
		<path class="st4" d="M365.9,236l0.1,0.1c-0.2,0.4-0.1,0.7,0.3,0.9l1.7,0.8c0.8,0.4,1.4,1.3,0.7,2.6c-0.6,1.2-1.6,1.5-2.5,1
			l-1.8-0.9c-0.4-0.2-0.5-0.1-0.7,0.3l-0.1-0.1l0.8-1.6l0.1,0.1l0,0.1c-0.2,0.3-0.2,0.5,0.2,0.7l1.7,0.9c0.8,0.4,1.6,0.2,2-0.8
			c0.4-0.7,0.4-1.6-0.6-2.1l-1.5-0.7c-0.6-0.3-0.8-0.3-1,0.3l-0.1-0.1L365.9,236z"/>
		<path class="st4" d="M373.1,233.9l-5.2,0.3l2.3,1.9c0.4,0.3,0.5,0.3,0.9-0.1l0.1,0.1l-1,1.2l-0.1-0.1l0,0c0.3-0.3,0.3-0.5,0-0.7
			l-2.6-2.2c-0.2,0-0.3,0.2-0.5,0.3l-0.1-0.1l0.7-0.8l4.7-0.3l-2.1-1.8c-0.3-0.3-0.5-0.2-0.8,0.2l-0.1-0.1l1-1.2l0.1,0.1
			c-0.3,0.4-0.3,0.5-0.1,0.7l3,2.5L373.1,233.9z"/>
		<path class="st4" d="M375.6,231.7l-1.3,1.1l-0.1-0.1c0.3-0.3,0.3-0.4,0-0.8l-1.9-2.3c-0.2-0.3-0.4-0.3-0.7-0.1l-0.1-0.1l1.3-1.1
			l0.1,0.1c-0.3,0.3-0.4,0.5-0.1,0.8l1.9,2.3c0.3,0.3,0.4,0.4,0.8,0L375.6,231.7z"/>
		<path class="st4" d="M378.2,230.1l-3.2-2.5c-0.4-0.3-0.5-0.3-0.9-0.1l-0.1-0.1l1.6-1l0.1,0.1c-0.5,0.3-0.6,0.5-0.3,0.7l2.7,2.1
			l-0.5-3c0-0.2-0.1-0.3-0.1-0.4c-0.1-0.2-0.3-0.2-0.7,0.1l-0.1-0.1l1.4-0.8l0.1,0.1c-0.3,0.2-0.4,0.4-0.3,0.9l0.6,3.9L378.2,230.1z
			"/>
		<path class="st4" d="M383.3,226l-0.1,0c-0.2-0.4-0.4-0.5-0.6-0.4l-1.1,0.4l0.5,1.4c0.1,0.3,0.2,0.3,0.5,0.2l1-0.4
			c0.5-0.2,0.5-0.4,0.5-1l0.1,0l0.2,1l-3.5,1.2l0-0.1l0.2-0.1c0.5-0.2,0.6-0.4,0.4-0.8l-1-2.8c-0.1-0.4-0.3-0.5-0.7-0.3l-0.1,0
			l0-0.1l3.2-1.1l0.4,0.9l-0.1,0c-0.3-0.5-0.5-0.6-0.7-0.5l-1.4,0.5l0.6,1.6l1.2-0.4c0.2-0.1,0.3-0.2,0.2-0.6l0.1,0L383.3,226z"/>
		<path class="st4" d="M386,222.6c0.1,0,0.2,0,0.3-0.1c1.1-0.1,1.4,0.3,1.5,1c0.1,0.8-0.4,1.2-1.1,1.3c-0.2,0-0.3,0-0.4,0L386,222.6
			z M386.2,225c0.1,0,0.2,0,0.4,0c0.2,0,0.3,0,0.5-0.1c0.2,0.1,0.4,0.3,0.8,0.5l0.5,0.4c0.7,0.5,1,0.8,2.2,0.6l0-0.1
			c-0.5,0-1-0.2-1.4-0.5l-0.6-0.5c-0.4-0.3-0.6-0.5-0.9-0.6c0.5-0.2,0.8-0.7,0.8-1.2c-0.1-0.7-0.7-1.2-2-1c-0.4,0.1-0.6,0.1-0.9,0.1
			c-0.3,0-0.7,0.1-0.9,0.1l0,0.1l0.2,0c0.4,0,0.5,0.1,0.6,0.5l0.3,2.9c0.1,0.5-0.1,0.6-0.5,0.6l-0.1,0l0,0.1l2-0.2l0-0.1l-0.2,0
			c-0.4,0-0.6,0-0.6-0.5L386.2,225z"/>
		<path class="st4" d="M391.6,225.4c0.1,0.6,0.6,1,1.1,1.1c0.5,0,1-0.2,1-0.7c0.1-1-2.1-1.5-2-2.7c0-0.6,0.6-1,1.3-0.9
			c0.6,0,0.7,0.2,0.9,0.2c0.1,0,0.1,0,0.1-0.1l0.1,0l0,0.9l-0.1,0c-0.2-0.5-0.6-0.9-1.1-0.9c-0.5,0-0.8,0.2-0.8,0.6
			c-0.1,1,2.1,1.4,2,2.7c-0.1,0.7-0.7,1.1-1.5,1.1c-0.4,0-0.9-0.3-0.9-0.3c-0.1,0-0.1,0-0.1,0.1l-0.1,0l-0.1-1.1L391.6,225.4z"/>
		<path class="st4" d="M396.9,227.3l-1.7-0.4l0-0.1c0.4,0.1,0.5,0,0.6-0.5l0.6-2.9c0.1-0.4,0-0.5-0.4-0.6l0-0.1l1.6,0.4l0,0.1
			c-0.4-0.1-0.6,0-0.7,0.4l-0.6,2.9c-0.1,0.4,0,0.6,0.5,0.7L396.9,227.3z"/>
		<path class="st4" d="M400.4,227.8c-0.1,0.3-0.1,0.5,0.3,0.7l0.2,0.1l0,0.1l-2-0.8l0-0.1l0.2,0.1c0.4,0.2,0.6,0.1,0.7-0.3l1.3-3.2
			l-1.1-0.4c-0.3-0.1-0.4,0-0.8,0.5l-0.1,0l0.5-1l0.1,0c0,0,0,0.1,0,0.1c0,0,0.1,0.1,0.1,0.1l3.1,1.2c0.1,0,0.2,0.1,0.2,0l0.1,0
			l-0.3,1.1l-0.1,0c0.1-0.6,0.1-0.8-0.2-0.9l-1.1-0.4L400.4,227.8z"/>
		<path class="st4" d="M407.5,228.2c0.4-0.2,0.4-0.4,0-0.6l0.1-0.1l1.3,0.9l-0.1,0.1c-0.4-0.2-0.7-0.2-1,0l-2,1l-0.6,0.9
			c-0.2,0.3-0.2,0.5,0.2,0.7l0.1,0.1l-0.1,0.1l-1.6-1.1l0.1-0.1l0.1,0.1c0.4,0.2,0.6,0.2,0.7-0.1l0.5-0.8l0-2.3
			c0-0.6-0.1-0.8-0.4-1.1l0.1-0.1l1.5,1l-0.1,0.1c-0.4-0.3-0.6-0.2-0.6,0.2l0,2L407.5,228.2z"/>
		<path class="st4" d="M413.3,236.5c-0.8,0.6-1.9,0.8-2.6-0.1c-0.7-0.9-0.5-2.1,0.6-2.9c0.7-0.5,1.9-0.8,2.6,0.2
			C414.5,234.5,414.3,235.7,413.3,236.5 M413.8,236.9c1-0.8,1-2.2,0.2-3.2c-0.9-1.2-2.3-1.4-3.4-0.6c-1,0.8-1,2.2-0.2,3.3
			C411.2,237.4,412.7,237.7,413.8,236.9"/>
		<path class="st4" d="M415.3,241.2l0-0.1c0.4-0.2,0.4-0.4,0.3-0.7l-0.6-1.2l-1.4,0.7c-0.4,0.2-0.4,0.3-0.2,0.8l-0.1,0.1l-0.7-1.5
			l0.1-0.1c0.2,0.4,0.3,0.4,0.8,0.2l2.5-1.2c0.4-0.2,0.6-0.3,0.4-0.8l0.1-0.1l1.3,2.8l-0.7,0.4l-0.1-0.1c0.4-0.2,0.5-0.4,0.3-0.8
			l-0.6-1.2l-1.5,0.7l0.6,1.2c0.1,0.2,0.3,0.3,0.6,0.2l0.1,0.1L415.3,241.2z"/>
		<path class="st4" d="M366.6,268.4l2.5-4.6l0,0l-3.4,2.2c-0.4,0.2-0.3,0.6,0,0.9l-0.1,0.1l-1.1-1.5l0.1-0.1
			c0.4,0.5,0.5,0.5,1.2,0.1l2.9-1.9c0.5-0.3,0.6-0.4,0.3-0.9l0.1-0.1l0.8,1.1l-2.4,4.4l4.9-0.9l0.8,1.1l-0.1,0.1
			c-0.3-0.3-0.4-0.5-0.6-0.3l-3.1,2.6c-0.6,0.5-0.6,0.6-0.2,1.1l-0.1,0.1l-1.3-1.8l0.1-0.1c0.2,0.3,0.6,0.6,0.9,0.3l3.1-2.5l0,0
			l-5.1,1L366.6,268.4z"/>
		<path class="st4" d="M375.4,273.2l-1.2-0.9l1.8-1.2L375.4,273.2z M375.3,273.6l-0.5,1.7c0,0.1-0.1,0.2-0.1,0.4
			c-0.1,0.2-0.3,0.1-0.7-0.2l-0.2-0.1l-0.1,0.1l2,1.4l0.1-0.1c-0.4-0.3-0.5-0.4-0.3-0.9l1.4-5.1l-0.6-0.5l-0.1,0.2l-3.9,2.6
			c-0.7,0.5-0.8,0.5-1.3,0.1l-0.1,0.1l1.7,1.2l0.1-0.1l-0.1-0.1c-0.4-0.3-0.5-0.5-0.4-0.7c0.1-0.1,0.3-0.2,0.5-0.3l1.2-0.8
			L375.3,273.6z"/>
		<path class="st4" d="M381,273.5c0.2,0,0.3,0.1,0.4,0.1c1.3,0.5,1.4,1.2,1.2,2c-0.4,1-1.1,1.2-2,0.9c-0.2-0.1-0.3-0.1-0.5-0.2
			L381,273.5z M380,276.4c0.1,0.1,0.2,0.1,0.4,0.2c0.2,0.1,0.4,0.1,0.6,0.2c0.2,0.2,0.4,0.6,0.6,1.1l0.4,0.7c0.5,1,0.7,1.5,2.2,1.9
			l0.1-0.1c-0.6-0.3-1-0.8-1.3-1.4l-0.4-0.9c-0.3-0.5-0.4-0.9-0.6-1.2c0.8,0,1.4-0.3,1.6-1c0.3-0.9-0.2-1.7-1.7-2.3
			c-0.5-0.2-0.7-0.2-1.1-0.4c-0.3-0.1-0.9-0.3-1.1-0.3l-0.1,0.2l0.2,0.1c0.5,0.2,0.6,0.4,0.4,0.9l-1.3,3.5c-0.2,0.6-0.4,0.6-0.9,0.5
			l-0.1,0l-0.1,0.2l2.4,0.8l0.1-0.2l-0.2-0.1c-0.5-0.2-0.6-0.4-0.4-0.9L380,276.4z"/>
		<path class="st4" d="M390.1,276.2c0.3-0.5,0.2-0.6-0.4-0.7l0-0.2l2,0.2l0,0.2c-0.6,0-0.9,0.2-1.2,0.6l-1.7,2.4l-0.1,1.3
			c0,0.5,0.1,0.7,0.7,0.7l0.1,0l0,0.2l-2.4-0.2l0-0.2l0.2,0c0.5,0,0.7-0.1,0.8-0.6l0.1-1.2l-1.4-2.6c-0.4-0.7-0.6-0.9-1.1-0.9l0-0.2
			l2.4,0.2l0,0.2c-0.7-0.1-0.8,0.1-0.5,0.5l1.2,2.3L390.1,276.2z"/>
		<path class="st4" d="M397.4,280.2l-3.9,0.7l0-0.2l0.3,0c0.4-0.1,0.5-0.2,0.5-0.7l-0.7-3.9c-0.1-0.5-0.3-0.6-0.8-0.5l-0.1,0l0-0.2
			l2.6-0.4l0,0.2l-0.3,0.1c-0.6,0.1-0.7,0.2-0.6,0.7l0.7,4c0,0.2,0.2,0.3,0.4,0.3l1.3-0.2c0.5-0.1,0.6-0.3,1.1-1.2l0.2,0
			L397.4,280.2z"/>
		<path class="st4" d="M401.7,275.8l-1.4,0.6l-0.1-2.2L401.7,275.8z M402,276.1l1.2,1.3c0.1,0.1,0.2,0.2,0.2,0.3
			c0.1,0.2-0.1,0.4-0.5,0.5l-0.2,0.1l0.1,0.2l2.3-0.9l-0.1-0.2c-0.4,0.2-0.6,0.2-1-0.2l-3.6-3.8l-0.7,0.3l0.1,0.2l0.2,4.7
			c0,0.8,0,1-0.5,1.2l0.1,0.2l1.9-0.8l-0.1-0.2l-0.1,0.1c-0.5,0.2-0.7,0.2-0.8,0c0-0.1,0-0.4-0.1-0.6l-0.1-1.5L402,276.1z"/>
		<path class="st4" d="M411.6,272.7l-6.6-0.8l2.4,2.9c0.4,0.5,0.6,0.5,1.2,0l0.1,0.1l-1.6,1.3l-0.1-0.1l0,0c0.4-0.4,0.4-0.6,0.2-0.9
			l-2.8-3.4c-0.2,0-0.5,0.1-0.7,0.3l-0.1-0.1l1.1-0.9l6,0.7l-2.3-2.7c-0.3-0.4-0.5-0.4-1.1,0l-0.1-0.1l1.6-1.3l0.1,0.1
			c-0.5,0.4-0.5,0.6-0.3,0.9l3.2,3.8L411.6,272.7z"/>
		<path class="st4" d="M410.3,265.8c0.1-0.1,0.2-0.3,0.4-0.6c0.7-1,1.3-1.4,1.8-1.5c0.7-0.2,1.4,0.1,2,0.4c0.8,0.5,1.1,1.2,1.2,1.7
			c0.2,0.8,0,1.3-0.6,2.3c-0.4,0.6-0.5,0.5-0.8,0.3L410.3,265.8z M413.7,268.9c0.4,0.3,0.4,0.5,0.2,0.9l-0.1,0.1l0.1,0.1l1.5-2.4
			c1.2-1.9,0.4-3.6-0.7-4.4c-1.2-0.8-2.8-0.6-4.1,1.4c-0.3,0.4-0.5,0.8-0.8,1.3c-0.3,0.4-0.5,0.8-0.6,1.1l0.1,0.1l0.1-0.2
			c0.3-0.4,0.5-0.5,1-0.2L413.7,268.9z"/>
		<path class="st4" d="M362.3,249.5v3.8c0,0.2,0,0.2,0.2,0.2h0.4v0.1h-1.6v-0.1h0.4c0.2,0,0.2-0.1,0.2-0.3v-3.3
			c-0.2,0.2-0.6,0.4-0.8,0.5l-0.1-0.1c0.4-0.3,0.9-0.7,1.1-1H362.3z"/>
		<path class="st4" d="M366.1,252.8c0,0.5-0.4,0.9-0.9,0.9c-0.5,0-0.9-0.4-0.9-1c0-0.4,0.2-0.8,0.7-1
			C365.8,252.1,366.1,252.4,366.1,252.8 M366.4,250.5c0-0.5-0.5-0.9-1.2-0.9c-0.6,0-1.2,0.5-1.2,1.1c0,0.4,0.3,0.8,0.9,1.1
			c-0.6,0.3-1,0.6-1,1.1c0,0.6,0.6,1.1,1.3,1.1c0.7,0,1.3-0.5,1.3-1.2c0-0.5-0.3-0.9-1-1.2C366.1,251.2,366.4,250.9,366.4,250.5
			 M366,250.5c0,0.4-0.2,0.7-0.5,0.9c-0.9-0.4-1-0.6-1-1c0-0.4,0.4-0.7,0.8-0.7C365.7,249.7,366,250,366,250.5"/>
		<path class="st4" d="M415.2,250h1.6c0.1,0,0.2,0,0.2-0.1h0.1l-0.1,0.5h-1.7l-0.1,1.2c0.2-0.1,0.4-0.2,0.7-0.2
			c0.7,0,1.3,0.6,1.3,1.4c0,0.8-0.7,1.4-1.5,1.4c-0.5,0-1-0.2-1-0.4c0-0.1,0.1-0.2,0.2-0.2c0.4,0,0.5,0.5,0.9,0.5
			c0.5,0,0.9-0.5,0.9-1.1c0-0.6-0.4-1.1-1-1.1c-0.2,0-0.5,0.1-0.7,0.3l-0.1,0L415.2,250z"/>
		<path class="st4" d="M420.2,252.9c0,0.7-0.3,1.2-0.8,1.2c-0.4,0-0.9-0.4-0.9-1.5c0-0.2,0-0.3,0-0.4c0.4-0.3,0.7-0.4,0.9-0.4
			C419.8,251.8,420.2,252.2,420.2,252.9 M420.2,249.9c-1.4,0.4-2.2,1.4-2.2,2.6c0,1,0.6,1.7,1.4,1.7c0.7,0,1.3-0.6,1.3-1.3
			c0-0.7-0.5-1.2-1.2-1.2c-0.3,0-0.6,0.1-0.9,0.4C418.7,251.1,419.3,250.5,420.2,249.9L420.2,249.9z"/>
	</g>
	<text transform="matrix(1 0 0 1 339.9697 333.3291)" class="st7 st8 st9">DINGMAN CENTER</text>
	<text transform="matrix(1 0 0 1 318.0308 347.8154)"><tspan x="0" y="0" class="st7 st8 st9">F</tspan><tspan x="6.6" y="0" class="st7 st8 st9">OR</tspan></text>
	<text transform="matrix(1 0 0 1 341.7944 347.8154)" class="st7 st10 st9"> </text>
	<text transform="matrix(1 0 0 1 345.3179 347.8154)" class="st7 st8 st9">ENTREPRENEURSHIP</text>
</g>
</svg>
