<?xml version="1.0" encoding="utf-8"?>
<!-- Generator: Adobe Illustrator 18.1.1, SVG Export Plug-In . SVG Version: 6.00 Build 0)  -->
<svg version="1.1" id="Layer_1" xmlns="http://www.w3.org/2000/svg" xmlns:xlink="http://www.w3.org/1999/xlink" x="0px" y="0px"
	 viewBox="3.9 337.1 608.1 112.5" enable-background="new 3.9 337.1 608.1 112.5" xml:space="preserve">
<g>
	<g>
		<g>
			<path fill="#E03A3E" d="M33.3,358.5c0,3.7-0.6,6.8-1.4,9.6c-1.1,2.5-2.3,4.8-4.2,6.5c-1.7,1.7-3.9,2.8-6.2,3.7
				c-2.3,0.6-4.8,0.8-7.6,0.8H3.9v-40.9h10.7c2.8,0,5.1,0.3,7.3,1.1c2.3,0.8,4.2,2,5.9,3.7s2.8,3.7,3.9,6.2
				C32.7,351.7,33.3,354.8,33.3,358.5z M28.8,358.5c0-5.4-1.1-9.3-3.7-12.1c-2.5-2.5-6.2-3.9-10.7-3.9H8.5v32.7h5.9
				c2.3,0,4.2-0.3,5.9-0.8s3.4-1.7,4.5-2.8c1.1-1.4,2.3-3.1,2.8-5.1C28.5,363.8,28.8,361.6,28.8,358.5z"/>
		</g>
		<g>
			<path fill="#E03A3E" d="M42.6,379.1v-40.9h4.5v40.9H42.6z"/>
		</g>
		<g>
			<path fill="#E03A3E" d="M83.5,379.1l-18-27.9c-0.3-0.3-0.3-0.8-0.6-1.4c-0.3-0.6-0.6-0.8-0.8-1.4c-0.3-0.6-0.6-0.8-0.8-1.4
				c-0.3-0.6-0.6-0.8-0.6-1.1v2.8v30.5h-4.5v-40.9h4.5l17.8,28.5c0.3,0.3,0.6,0.8,0.8,1.1c0.3,0.6,0.6,0.8,0.8,1.4s0.6,0.8,0.8,1.4
				c0.3,0.6,0.6,0.8,0.6,1.1v-2.8v-30.7H88v40.9H83.5z"/>
		</g>
		<g>
			<path fill="#E03A3E" d="M127.2,370.3c-0.8,2.3-1.7,3.9-3.1,5.4c-1.4,1.4-3.1,2.5-4.8,3.1c-2,0.6-3.9,1.1-5.9,1.1
				c-2.5,0-4.8-0.6-6.8-1.7c-2-1.1-3.7-2.5-5.4-4.5c-1.4-2-2.5-4.2-3.4-6.8c-0.8-2.5-1.1-5.4-1.1-8.5c0-3.1,0.3-5.9,1.1-8.5
				s2-4.8,3.4-6.8c1.4-2,3.1-3.4,5.4-4.5c2-1.1,4.2-1.7,6.8-1.7c5.6,0,9.9,2.3,13,6.5l-3.7,2.8c-1.4-1.7-2.8-3.1-4.2-3.9
				c-1.4-0.8-3.1-1.1-5.4-1.1c-1.7,0-3.4,0.3-4.8,1.1c-1.4,0.8-2.8,2-3.7,3.4c-0.8,1.4-2,3.4-2.5,5.4c-0.6,2.5-0.8,5.1-0.8,7.3
				c0,2.3,0.3,4.8,0.8,6.8c0.6,2,1.4,3.9,2.5,5.4c1.1,1.4,2.3,2.5,3.9,3.4c1.4,0.8,3.1,1.1,4.8,1.1c3.4,0,5.9-1.1,7.9-3.1
				c1.7-2,2.8-5.1,2.8-9v-0.3h-7.3v-4.2h11.8v3.9C128.3,365.5,128,368.1,127.2,370.3z"/>
		</g>
		<g>
			<path fill="#E03A3E" d="M167.8,379.1v-27.6v-4.5c0,0.3-0.3,0.8-0.6,1.4s-0.3,1.1-0.6,1.7c0,0.8-0.3,1.4-0.6,2s-0.6,1.1-0.6,1.7
				l-11,26.2l-10.7-26.2c-0.3-0.6-0.6-1.1-0.6-1.7c-0.3-0.6-0.6-1.1-0.6-2c-0.3-0.6-0.3-1.1-0.6-1.7c-0.3-0.6-0.3-1.1-0.6-1.4v4.5
				v27.6h-4.5v-40.9h5.1l9.6,24.5c0.3,0.6,0.6,1.4,0.8,2c0.3,0.8,0.6,1.4,0.8,2.3s0.6,1.4,0.8,2c0.3,0.6,0.3,1.1,0.6,1.7
				c0-0.6,0.3-0.8,0.6-1.7c0.3-0.6,0.6-1.4,0.8-2c0.3-0.8,0.6-1.4,0.8-2.3c0.3-0.8,0.6-1.4,0.8-2l9.9-24.5h5.1v40.9H167.8z"/>
		</g>
		<g>
			<path fill="#E03A3E" d="M209.3,379.1l-3.4-10.4H189l-3.7,10.4h-4.8l14.1-40.9h5.1l14.1,40.9H209.3z M200,351.2
				c-0.3-0.6-0.6-1.4-0.8-2.3c-0.3-0.8-0.6-1.4-0.8-2.3c-0.3-0.8-0.6-1.4-0.6-2s-0.3-1.1-0.3-1.7c0,0.6-0.3,0.8-0.6,1.7
				c-0.3,0.6-0.3,1.4-0.6,2c-0.3,0.8-0.6,1.4-0.8,2.3c-0.3,0.8-0.6,1.4-0.8,2.3l-4.5,13.3h14.1L200,351.2z"/>
		</g>
		<g>
			<path fill="#E03A3E" d="M247.9,379.1l-18-27.9c-0.3-0.3-0.6-0.8-0.8-1.1c-0.3-0.3-0.3-1.1-0.6-1.7s-0.6-0.8-0.8-1.4
				c-0.3-0.6-0.6-0.8-0.6-1.1v2.8v30.5h-4.5v-40.9h4.5l17.8,28.5c0.3,0.3,0.6,0.8,0.8,1.1c0.3,0.6,0.6,0.8,0.8,1.4
				c0.3,0.6,0.6,0.8,0.8,1.4c0.3,0.6,0.6,0.8,0.6,1.1v-2.8v-30.7h4.5v40.9H247.9z"/>
		</g>
		<g>
			<path fill="#E03A3E" d="M300.6,378c-2.3,1.1-4.8,2-7.9,2c-2.5,0-4.8-0.6-6.8-1.7s-3.7-2.5-5.4-4.5c-1.4-2-2.5-4.2-3.4-6.8
				s-1.1-5.4-1.1-8.5c0-3.1,0.3-5.9,1.1-8.5c0.8-2.5,2-4.8,3.4-6.8c1.4-2,3.1-3.4,5.4-4.5c2-1.1,4.2-1.7,6.8-1.7
				c5.6,0,9.9,2.3,13,6.5l-3.7,2.8c-1.4-1.7-2.8-3.1-4.2-3.9c-1.4-0.8-3.1-1.1-5.4-1.1c-1.7,0-3.4,0.3-4.8,1.1
				c-1.4,0.8-2.8,2-3.7,3.4c-1.1,1.4-2,3.4-2.5,5.4s-0.8,4.2-0.8,6.8c0,2.5,0.3,4.8,0.8,6.8s1.4,3.9,2.5,5.4
				c1.1,1.4,2.3,2.5,3.9,3.4c1.4,0.8,3.1,1.1,4.8,1.1c2.3,0,4.2-0.6,5.6-1.4c1.7-0.8,3.1-2.3,4.5-3.9l3.1,2.8
				C304.6,375.1,302.9,376.5,300.6,378z"/>
		</g>
		<g>
			<path fill="#E03A3E" d="M314.7,379.1v-40.9h24.8v4.2h-20.3v13h11.6v3.9h-11.6v15.5h21.2v4.2H314.7z"/>
		</g>
		<g>
			<path fill="#E03A3E" d="M374.3,379.1l-18-27.9c-0.3-0.3-0.6-0.8-0.8-1.1c-0.3-0.3-0.6-0.8-0.8-1.4c-0.3-0.6-0.6-0.8-0.8-1.4
				c-0.3-0.6-0.6-0.8-0.6-1.1v2.8v30.2h-4.5v-40.9h4.5l17.8,28.5c0.3,0.3,0.6,0.8,0.8,1.1c0.3,0.6,0.6,0.8,0.8,1.4s0.6,0.8,0.8,1.4
				s0.6,0.8,0.6,1.1v-2.8v-30.7h4.5v40.9H374.3z"/>
		</g>
		<g>
			<path fill="#E03A3E" d="M403.3,342.4v36.7h-4.5v-36.7h-12.1v-4.2h28.8v4.2H403.3z"/>
		</g>
		<g>
			<path fill="#E03A3E" d="M423.6,379.1v-40.9h24.8v4.2h-20.3v13h11.6v3.9h-11.6v15.5h21.2v4.2H423.6z"/>
		</g>
		<g>
			<path fill="#E03A3E" d="M486.8,349.7c0,3.1-0.8,5.6-2.5,7.6c-1.7,2-4.2,3.1-7.1,3.9l9,17.8h-5.4l-8.7-17.5h-9.6v17.5H458v-40.9
				h16.1c1.7,0,3.4,0.3,5.1,0.6c1.7,0.6,2.8,1.1,3.9,2.3c1.1,0.8,2,2.3,2.8,3.7C486.5,346.1,486.8,347.8,486.8,349.7z M482.3,350
				c0-2.5-0.8-4.5-2.3-5.6c-1.4-1.4-3.4-2-6.2-2h-11.3v15.2h11c3.1,0,5.4-0.6,6.8-2C481.4,354.3,482.3,352.6,482.3,350z"/>
		</g>
		<g>
			<path fill="#E03A3E" d="M515.5,342.4V356h11.3v4.2h-11.3v18.9H511v-40.9h24v4.2H515.5z"/>
		</g>
		<g>
			<path fill="#E03A3E" d="M573.6,358.5c0,3.1-0.3,5.9-1.1,8.5s-2,4.8-3.4,6.8c-1.4,2-3.4,3.4-5.4,4.5s-4.5,1.7-7.1,1.7
				c-2.5,0-4.8-0.6-7.1-1.4c-2-1.1-3.9-2.5-5.4-4.2c-1.4-2-2.5-4.2-3.4-6.8s-1.1-5.4-1.1-8.5c0-3.1,0.3-5.9,1.1-8.5
				c0.8-2.5,2-4.8,3.4-6.8c1.4-2,3.4-3.4,5.4-4.5s4.5-1.7,7.1-1.7c2.5,0,4.8,0.6,7.1,1.4c2,1.1,3.9,2.5,5.4,4.2
				c1.4,2,2.5,4.2,3.4,6.8C573.4,352.6,573.6,355.4,573.6,358.5z M569.1,358.8c0-2.5-0.3-4.8-0.8-7.1s-1.4-3.9-2.5-5.4
				c-1.1-1.4-2.5-2.5-3.9-3.4c-1.4-0.8-3.1-1.1-5.1-1.1c-1.7,0-3.4,0.3-4.8,1.1c-1.4,0.8-2.8,2-3.9,3.4c-1.1,1.4-2,3.1-2.5,5.4
				c-0.6,2-0.8,4.5-0.8,7.1s0.3,4.8,0.8,7.1c0.6,2,1.4,3.9,2.5,5.4c1.1,1.4,2.5,2.5,3.9,3.4c1.4,0.8,3.1,1.1,5.1,1.1
				c1.7,0,3.4-0.3,4.8-1.1c1.4-0.8,2.8-2,3.9-3.4c1.1-1.4,2-3.1,2.5-5.4S569.1,361.3,569.1,358.8z"/>
		</g>
		<g>
			<path fill="#E03A3E" d="M611.7,349.7c0,3.1-0.8,5.6-2.5,7.6c-1.7,2-4.2,3.1-7.1,3.9l9,17.8h-5.4l-8.7-17.5h-9.6v17.5H583v-40.9
				H599c1.7,0,3.4,0.3,5.1,0.6c1.7,0.6,2.8,1.1,3.9,2.3c1.1,0.8,2,2.3,2.8,3.7C611.2,346.1,611.7,347.8,611.7,349.7z M606.9,350
				c0-2.5-0.8-4.5-2.3-5.6c-1.1-1.4-3.4-2-5.9-2h-11.6v15.2h11c3.1,0,5.4-0.6,6.8-2C606.4,354.3,606.9,352.6,606.9,350z"/>
		</g>
	</g>
	<g>
		<g>
			<path fill="#E03A3E" d="M27.9,449.3v-40.9h24.8v4.2h-20v13h11.6v4.2H32.7v15.5h20.9v4.2H27.9V449.3z"/>
		</g>
		<g>
			<path fill="#E03A3E" d="M87.4,449.3l-17.8-27.9c-0.3-0.3-0.6-0.8-0.8-1.1c-0.3-0.6-0.6-0.8-0.8-1.4c-0.3-0.6-0.6-0.8-0.8-1.4
				s-0.6-0.8-0.6-1.1v2.8v30.5H62v-41.2h4.5l17.8,28.5c0.3,0.3,0.6,0.8,0.8,1.1c0.3,0.6,0.6,0.8,0.8,1.4c0.3,0.6,0.6,0.8,0.8,1.4
				s0.6,0.8,0.6,1.1v-2.8v-30.7h4.5v40.9H87.4z"/>
		</g>
		<g>
			<path fill="#E03A3E" d="M116.5,412.4V449H112v-36.7H99.8v-4.2h28.8v4.2H116.5z"/>
		</g>
		<g>
			<path fill="#E03A3E" d="M165.8,420c0,3.1-0.8,5.6-2.5,7.6c-1.7,2-4.2,3.1-7.1,3.9l9,17.8h-5.4l-8.7-17.5h-9.6v17.5h-4.5v-40.9
				h16.1c1.7,0,3.4,0.3,5.1,0.6c1.7,0.6,2.8,1.1,3.9,2.3c1.1,0.8,2,2.3,2.8,3.7C165.6,416.3,165.8,418,165.8,420z M161.3,420
				c0-2.5-0.8-4.5-2.3-5.6s-3.4-2-6.2-2h-11.6v15.2h11c3.1,0,5.4-0.6,6.8-2C160.5,424.5,161.3,422.5,161.3,420z"/>
		</g>
		<g>
			<path fill="#E03A3E" d="M174.9,449.3v-40.9h24.8v4.2h-20.3v13h11.6v4.2h-11.6v15.5h21.2v4.2h-25.7V449.3z"/>
		</g>
		<g>
			<path fill="#E03A3E" d="M237.5,420.5c0,2-0.3,3.9-1.1,5.4c-0.6,1.7-1.7,2.8-2.8,3.9c-1.1,1.1-2.5,2-4.5,2.5
				c-1.7,0.6-3.7,0.8-5.6,0.8h-9.9v16.1H209v-40.9h15.2c2,0,3.7,0.3,5.1,0.8c1.7,0.6,2.8,1.1,4.2,2.3c1.1,1.1,2,2.3,2.8,3.9
				C237.2,416.6,237.5,418.6,237.5,420.5z M233,420.8c0-2.5-0.8-4.8-2.3-6.2c-1.4-1.4-3.7-2.3-6.5-2.3h-10.7V429h9.9
				C229.9,429,233,426.2,233,420.8z"/>
		</g>
		<g>
			<path fill="#E03A3E" d="M274.1,420c0,3.1-0.8,5.6-2.5,7.6c-1.7,2-4.2,3.1-7.1,3.9l9,17.8h-5.4l-8.7-17.5h-9.6v17.5h-4.5v-40.9
				h16.1c1.7,0,3.4,0.3,5.1,0.6c1.7,0.6,2.8,1.1,3.9,2.3c1.1,0.8,2,2.3,2.8,3.7C273.8,416.3,274.1,418,274.1,420z M269.6,420
				c0-2.5-0.8-4.5-2.3-5.6c-1.4-1.1-3.4-2-6.2-2h-11.6v15.2h11c3.1,0,5.4-0.6,6.8-2C269.1,424.5,269.6,422.5,269.6,420z"/>
		</g>
		<g>
			<path fill="#E03A3E" d="M283.2,449.3v-40.9H308v4.2h-20.3v13h11.6v4.2h-11.6v15.5h21.2v4.2h-25.7V449.3z"/>
		</g>
		<g>
			<path fill="#E03A3E" d="M342.9,449.3l-18-27.9c-0.3-0.3-0.6-0.8-0.8-1.1s-0.6-0.8-0.8-1.4s-0.6-0.8-0.8-1.4s-0.6-0.8-0.6-1.1v2.8
				v30.5h-4.5v-41.2h4.5l17.8,28.5c0.3,0.3,0.6,0.8,0.8,1.1c0.3,0.6,0.6,0.8,0.8,1.4s0.6,0.8,0.8,1.4c0.3,0.6,0.6,0.8,0.6,1.1v-2.8
				v-30.7h4.5v40.9H342.9z"/>
		</g>
		<g>
			<path fill="#E03A3E" d="M357.9,449.3v-40.9h24.8v4.2h-20v13h11.6v4.2h-11.6v15.5h21.2v4.2h-25.9V449.3z"/>
		</g>
		<g>
			<path fill="#E03A3E" d="M417.7,445.4c-2.5,2.8-6.2,4.5-11,4.5s-8.7-1.4-11-4.2c-2.5-2.8-3.7-7.3-3.7-13v-24.3h4.5v24.3
				c0,8.7,3.4,13.3,10.4,13.3c3.7,0,6.2-1.1,7.6-3.1c1.4-2.3,2.3-5.4,2.3-9.9v-24.3h4.5v24C421.3,438.3,419.9,442.5,417.7,445.4z"/>
		</g>
		<g>
			<path fill="#E03A3E" d="M460.6,420c0,3.1-0.8,5.6-2.5,7.6c-1.7,2-4.2,3.1-7.1,3.9l9,17.8h-5.4l-8.7-17.5h-9.6v17.5h-4.5v-40.9
				h16.1c1.7,0,3.4,0.3,5.1,0.6c1.7,0.3,2.8,1.1,3.9,2.3c1.1,0.8,2,2.3,2.8,3.7C460.3,416.3,460.6,418,460.6,420z M456,420
				c0-2.5-0.8-4.5-2.3-5.6s-3.4-2-6.2-2H436v15.2h11c3.1,0,5.4-0.6,6.8-2C455.5,424.5,456,422.5,456,420z"/>
		</g>
		<g>
			<path fill="#E03A3E" d="M495,438.6c0,1.7-0.3,3.1-0.8,4.5c-0.6,1.4-1.4,2.5-2.5,3.7c-1.1,1.1-2.5,1.7-4.2,2.3
				c-1.7,0.6-3.7,0.8-5.6,0.8c-2.8,0-5.4-0.6-7.6-1.7s-4.2-2.5-5.9-3.9l3.1-3.4c1.7,1.4,3.1,2.5,5.1,3.7c1.7,0.8,3.7,1.4,5.9,1.4
				c2.8,0,4.8-0.6,6.5-2c1.7-1.1,2.3-3.1,2.3-5.1c0-0.8-0.3-1.7-0.6-2.5c-0.3-0.8-0.8-1.4-1.7-2.3c-0.8-0.6-1.7-1.4-3.1-2
				c-1.1-0.6-2.8-1.4-4.8-2c-2.3-0.8-3.9-1.7-5.6-2.3c-1.4-0.8-2.8-1.7-3.7-2.5c-0.8-0.8-1.7-2-2-3.1c-0.3-1.1-0.6-2.5-0.6-3.9
				c0-1.7,0.3-3.1,0.8-4.5c0.6-1.4,1.4-2.3,2.5-3.4c1.1-0.8,2.5-1.7,3.9-2c1.7-0.6,3.4-0.6,5.4-0.6c2.8,0,5.1,0.3,7.1,1.1
				c2,0.8,3.7,2,5.4,3.1l-2.8,3.7c-1.4-1.1-3.1-2.3-4.5-2.8c-1.4-0.6-3.4-0.8-5.4-0.8c-1.4,0-2.5,0.3-3.7,0.6
				c-1.1,0.3-2,0.8-2.5,1.4c-0.6,0.6-1.1,1.1-1.4,2c-0.3,0.8-0.6,1.4-0.6,2.3c0,0.8,0,1.7,0.3,2.3s0.6,1.4,1.4,2
				c0.6,0.6,1.7,1.4,2.8,2c1.1,0.6,2.8,1.4,5.1,2c2.3,0.8,4.2,1.7,5.6,2.5c1.4,0.8,2.8,1.7,3.7,2.8c0.8,0.8,1.7,2,2,3.1
				C494.7,435.5,495,436.9,495,438.6z"/>
		</g>
		<g>
			<path fill="#E03A3E" d="M529.1,449.3v-19.5h-20.3V449h-4.5v-40.6h4.5v17.5h20.3v-17.5h4.5v40.9H529.1L529.1,449.3z"/>
		</g>
		<g>
			<path fill="#E03A3E" d="M544.9,449.3v-40.9h4.5v40.9H544.9z"/>
		</g>
		<g>
			<path fill="#E03A3E" d="M588.9,420.5c0,2-0.3,3.9-1.1,5.4c-0.6,1.7-1.7,2.8-2.8,3.9c-1.1,1.1-2.5,2-4.5,2.5
				c-1.7,0.6-3.7,0.8-5.6,0.8h-9.9v16.1h-4.5v-40.9h15.2c2,0,3.7,0.3,5.1,0.8c1.7,0.6,2.8,1.1,4.2,2.3c1.1,1.1,2,2.3,2.8,3.9
				S588.9,418.6,588.9,420.5z M584.1,420.8c0-2.5-0.8-4.8-2.3-6.2c-1.4-1.4-3.7-2.3-6.5-2.3h-10.7V429h9.9
				C581,429,584.1,426.2,584.1,420.8z"/>
		</g>
	</g>
</g>
</svg>
