<?xml version="1.0" encoding="utf-8"?>
<!-- Generator: Adobe Illustrator 18.1.1, SVG Export Plug-In . SVG Version: 6.00 Build 0)  -->
<svg version="1.1" id="Layer_1" xmlns="http://www.w3.org/2000/svg" xmlns:xlink="http://www.w3.org/1999/xlink" x="0px" y="0px"
	 viewBox="-189 379 152 40" enable-background="new -189 379 152 40" xml:space="preserve">
<g id="guides">
</g>
<g id="Layer_2">
	<g>
		<g>
			<g>
				<g>
					<circle fill="#FFFFFF" cx="-170.7" cy="396.8" r="12.6"/>
				</g>
				<path fill="#FFD420" d="M-158.1,396.6c0,0.1-0.2,0.2-0.5,0.4c0,0,0,0,0,0c-0.3,0.2-0.8,0.3-1.4,0.5c-0.6,0.2-1.3,0.3-2.1,0.4
					c-0.8,0.1-1.7,0.2-2.7,0.3l0,0c-1.2,0.1-2,0.2-3,0.2c-1,0-2.1,0.1-3.2,0.1c0,0.1,0,0.3,0,0.4c0,1,0,1.9,0,2.8
					c0,4.9,0,4.9,0.2,7.8c7,0,12.6-5.7,12.6-12.6C-158.1,396.8-158.1,396.7-158.1,396.6z"/>
				<path fill="#231F20" d="M-166,408.2L-166,408.2L-166,408.2z"/>
				<g>
					<path fill="#231F20" d="M-170.9,398.9c0,1,0,1.9,0,2.8c2,1.9,2,1.9,2.9,2.8c0.2-1.6,0.3-3.5,0.3-5.6c0-0.1,0-0.3,0-0.4
						c-1.3,0-2.1,0.1-3.2,0.1C-170.9,398.6-170.9,398.7-170.9,398.9z"/>
					<path fill="#231F20" d="M-166.3,406.6c-0.4-0.7-0.8-1.2-1.8-2.2c-0.4,3.1-1.2,5-2.1,5c0.1,0,0.2,0,0.3,0c0.1,0,0.2,0,0.3,0
						C-168.3,409.3-167.1,408.3-166.3,406.6z"/>
					<path fill="#231F20" d="M-164.9,401.4c0,0-0.7,3.8-1.4,5.2c0.4,0.8,0.4,1.1,0.3,1.6c1.2-0.9,2.2-2.3,2.9-4.1
						C-163.5,403.2-163.8,402.7-164.9,401.4z"/>
					<path fill="#231F20" d="M-168.5,409.3c0.3,0,0.3-0.1,0.8-0.2l0.3-0.1c0.9-0.3,1.1-0.4,1.4-0.9c-0.8,0.6-1.7,1-2.7,1.2
						L-168.5,409.3z"/>
					<path fill="#231F20" d="M-162.9,406.2c1.8-2.1,2.9-5,2.9-8.3c0-0.1,0-0.3,0-0.4c-0.6,0.2-1.3,0.3-2.1,0.4c0,0.1,0,0.3,0,0.4
						c0,2.2-0.4,4.1-1,5.8C-162.7,405.1-162.7,405.5-162.9,406.2z"/>
					<path fill="#231F20" d="M-164.7,398.2c-1.2,0.1-2,0.2-3,0.2c1.7,1.8,2.1,2.2,2.8,3.1c0.1-0.9,0.2-1.8,0.2-2.8
						C-164.7,398.5-164.7,398.3-164.7,398.2z"/>
				</g>
				<path fill="#231F20" d="M-173.5,384.9c0.7-0.3,1.4-0.6,2.7-0.7l0,0C-171.7,384.3-172.7,384.5-173.5,384.9"/>
				<g>
					<path fill="#E03A3E" d="M-162.3,397.9c-0.7-0.1-1.2-1.2-0.9-2.3c-0.9,0.6-2-0.7-1.8-1.9c0.1-0.6,0.5-1.2,1.2-1
						c-0.3-1-0.7-2-1.1-2.9c-0.6,0.1-1.4,0.1-2.1,0.2c0.7,1,0,2-0.9,1.8c-0.7-0.1-1.3-0.8-1.1-1.7c-0.6,0.4-1.7,0.2-1.8-1
						c0,2.6,0,5.9,0,9.3c3.4,0,7.3-0.3,8.9-0.6c0,0,0,0,0,0C-162.1,397.9-162.2,397.9-162.3,397.9z"/>
				</g>
				<g>
					<path fill="#E03A3E" d="M-178.9,400.4c0.9-0.4,2.1,1.3,1.7,2.3c-0.2,0.5-0.7,0.6-1.2,0.3c0.3,0.9,0.6,1.8,1.1,2.6
						c0.7,0.1,1.4,0.2,2.2,0.2c-0.7-0.8-0.1-1.5,0.7-1.4c0.7,0,1.7,0.7,1.5,1.5c0.7-0.3,1.8-0.1,2,0.8c0-1.9-0.1-4.7-0.1-8
						c0-0.1,0-0.3,0-0.4c-1.1,0-2.1,0-3.2-0.1c-2.3-0.1-3.8-0.2-5.8-0.6c0,0,0,0,0,0C-178.9,398.1-178.7,399.6-178.9,400.4z"/>
				</g>
				<path fill="#E03A3E" d="M-164.8,388.8L-164.8,388.8L-164.8,388.8C-164.8,388.8-164.7,388.8-164.8,388.8L-164.8,388.8
					C-164.7,388.8-164.7,388.8-164.8,388.8c0.1,0,0.3,0,0.4-0.1c0.7-0.1,2.4-0.5,2.4-1c0,0,0.6,0.6,1.1,1.5c0.1,0.1,0.1,0.2,0.1,0.3
					c0.1,0.2,0.1,0.3,0.1,0.4c0,0.3-0.2,0.3-0.4,0.2c0,0,0,0-0.1,0c-0.7-0.3-0.9-0.9-1-1.1c-0.3,0.1-0.9,0.3-1.3,0.4
					c-0.1,0-0.2,0-0.2,0c0.5,0.9,1,1.9,1.4,3c0.6-0.7,1.6,0.6,1.7,1.7c0,0.7-0.3,1.3-0.9,1.1c0.5,0.9,0.3,2.3-0.6,2.6
					C-162.2,394.8-162.7,392.1-164.8,388.8L-164.8,388.8L-164.8,388.8"/>
				<path fill="#E03A3E" d="M-164.8,388.8L-164.8,388.8L-164.8,388.8L-164.8,388.8L-164.8,388.8c-1.6-2.5-2.9-3.4-4.5-4
					c-0.3-0.1-1.4-0.6-1.5-0.6l0,0l0,0c0.3,0.4,0.9,0.7,1,0.7c0,0.1,0,0.5,0.5,0.8c0.1,0.1,0.2,0.1,0.2,0.1c0.8,0.4,1,0.1,1,0
					c0,0,0,0,0,0c0.3,0.2,0.7,0.6,1.3,1.2c0.3,0.4,0.6,0.7,0.8,1c-0.5,0.1-1.2,0.1-1.9,0.2c0-0.8-0.6-1.2-1-1.3
					c-0.8-0.3-1.1,0.6-0.7,1.3c-0.6-0.3-1.4,0-1.5,1C-168.4,389.1-166.7,389-164.8,388.8L-164.8,388.8L-164.8,388.8"/>
				<path fill="#E03A3E" d="M-164.6,386.5C-164.6,386.5-164.6,386.4-164.6,386.5c0-0.1,0-0.1,0-0.1s0,0,0.1-0.1
					c0.1-0.1,0.5-0.1,1.6,0.6c-2.2-1.7-4.6-2.4-6.6-2.6c-0.3,0-0.8-0.1-0.8-0.1c0.6,0.1,1.1,0.2,1.2,0.3c0.1,0,0.1,0.1,0.2,0.1
					c0,0,0,0,0,0c0.1,0,0.3,0,0.4,0.1c0.2,0.1,0.5,0.2,0.8,0.3c0.3,0.1,0.7,0.4,0.7,0.6c-0.1,0-0.1,0.1-0.3,0
					c0.8,0.5,1.8,1.5,2.5,2.3c0.4-0.1,1.1-0.2,1.4-0.3C-163.4,387.6-164.4,386.9-164.6,386.5z"/>
				<path fill="#E03A3E" d="M-177.5,406.4c-1.1-0.2-1.7-0.4-2.1-0.6c-0.1,0-0.1,0-0.1,0c0,0-0.6-0.6-1.2-1.3
					c-0.4-0.5-0.7-1.1-0.7-1.1c0,0,0.1,0,0.1,0c0.6,0.2,1.5,1.7,1.5,1.8c0.4,0.1,0.8,0.2,1.4,0.4c-0.5-0.8-1-1.7-1.3-2.6
					c-0.8,0.4-1.8-1.7-1.5-2.6c0.1-0.2,0.3-0.6,0.8-0.2c-0.4-0.9-0.3-2.3,0.7-2.3C-179.9,400.9-179.5,403.5-177.5,406.4"/>
				<path fill="#E03A3E" d="M-170.9,407c-0.1,0.4-0.7,0.9-1.6,0.5c0.4,0.5,0.1,1-0.7,0.9c-0.6-0.1-1.2-0.5-1.3-1
					c-0.7-0.1-1.3-0.1-1.9-0.2c0.5,0.6,1.1,1.1,1.8,1.5c0.1,0,0.2,0,0.6,0.1c0.5,0.2,0.9,0.4,1.4,0.6l-0.1,0
					c-0.4-0.1-0.5-0.1-0.7-0.1c-0.9-0.2-2.6-0.7-4.2-2.9l0,0l0,0l0,0c2,0.3,3.9,0.4,6.6,0.5C-170.9,406.9-170.9,407-170.9,407"/>
				<path fill="#FFD420" d="M-170.8,384.2c-6.8,0-12.5,5.5-12.6,12.4l0,0c0,0,0.1,0.1,0.3,0.3l0,0l0,0c0.3,0.2,0.7,0.3,1.2,0.5
					c0.6,0.2,1.3,0.3,1.9,0.4l0,0c1.9,0.3,3.5,0.5,5.8,0.6c1.1,0,2.2,0.1,3.2,0.1c0-0.6,0-4.3,0-7.9c0-0.5,0-0.9,0-1.4
					C-170.9,386.9-170.8,384.5-170.8,384.2L-170.8,384.2z"/>
				<path fill="#231F20" d="M-164.7,408c-0.7,0.4-0.9,0.4-1.8,0.8c-0.3,0.1-0.5,0.2-0.8,0.3c1.7-0.5,4-2.4,4.5-2.8
					c-0.2,0.5-0.4,0.8-0.9,1.2C-163.9,407.5-164.5,407.8-164.7,408z"/>
				<path fill="#231F20" d="M-181.9,397.4c-0.5-0.1-0.9-0.3-1.2-0.5c0.1-4.6,2.7-8.6,6.4-10.9c-0.9,0.8-1.3,1.2-1.7,2.3
					C-180.4,390.7-181.8,394-181.9,397.4"/>
				<path fill="#231F20" d="M-176.6,386.1c0.9-0.7,1.5-1.2,2.9-1.5c1-0.3,1.9-0.4,3-0.4l0,0C-172.9,384.3-174.9,385-176.6,386.1"/>
				<path fill="#231F20" d="M-177.3,398.2c-0.9-0.1-1.8-0.2-2.6-0.3c0.1-2.3,0.5-4.5,1.4-6.4c0.3,1.3,0.6,2,1.5,3.5
					C-177.2,395.9-177.3,397-177.3,398.2"/>
				<path fill="#231F20" d="M-170.9,389.2c0,1.4,0,2.8,0,3.9c0,1.1,0,1.9,0,2c-1.2-1.3-1.9-2-2.8-3.2c0.6-3.9,1.7-7,3-7.8l0,0l0,0
					C-170.8,384.6-170.9,386.8-170.9,389.2z"/>
				<g>
					<path fill="#231F20" d="M-175.3,389c-0.8,1.7-1.4,3.7-1.7,5.8c0.8,1.1,1.3,1.8,2.8,3.5c0-2.3,0.2-4.5,0.5-6.4
						C-174.7,390.7-175,390.1-175.3,389z"/>
				</g>
				<path fill="#231F20" d="M-158.6,397c0,0.1,0,0.3,0,0.4c0,4.5-2.2,8.2-5.6,10.3l-0.1,0.1c1.6-1,3.6-2.7,4.9-5.4
					c1.4-2.7,1.2-5.7,1.2-5.7C-158.2,396.7-158.4,396.8-158.6,397z"/>
				<g>
					<path fill="#231F20" d="M-173.5,384.9c-1.8,0.7-3.5,2-4.9,3.5c-0.4,1.1-0.4,1.8-0.2,3c0.8-1.9,2-3.6,3.3-4.8
						C-174.8,385.8-174.6,385.4-173.5,384.9z"/>
				</g>
				<path fill="#231F20" d="M-175.3,389c-0.2-1-0.2-1.6,0.1-2.5c1.3-1.2,2.8-2.1,4.5-2.4C-172.5,384.7-174.2,386.5-175.3,389"/>
				<path fill="#231F20" d="M-186,387.5L-186,387.5c0,0.3,0,0.4,0.3,0.6l1,0.5c0.5,0.2,0.8,0.8,0.4,1.6c-0.4,0.7-1,0.9-1.5,0.6
					l-1.1-0.6c-0.2-0.1-0.3-0.1-0.5,0.2l-0.1,0l0.5-1l0.1,0l0,0c-0.1,0.2-0.1,0.3,0.1,0.4l1.1,0.5c0.5,0.3,1,0.1,1.3-0.5
					c0.2-0.4,0.3-1-0.4-1.3l-0.9-0.4c-0.4-0.2-0.5-0.2-0.6,0.2l-0.1,0L-186,387.5z"/>
				<path fill="#231F20" d="M-181.6,386.2l-3.2,0.2l1.4,1.2c0.2,0.2,0.3,0.2,0.6-0.1l0.1,0.1l-0.6,0.8l-0.1-0.1l0,0
					c0.2-0.2,0.2-0.3,0-0.4l-1.6-1.3c-0.1,0-0.2,0.1-0.3,0.2l-0.1-0.1l0.4-0.5l2.9-0.2l-1.3-1.1c-0.2-0.2-0.3-0.1-0.5,0.1l-0.1-0.1
					l0.6-0.8l0.1,0.1c-0.2,0.2-0.2,0.3-0.1,0.4L-181.6,386.2L-181.6,386.2z"/>
				<path fill="#231F20" d="M-180,384.8l-0.8,0.7l-0.1-0.1c0.2-0.2,0.2-0.3,0-0.5l-1.2-1.4c-0.1-0.2-0.2-0.2-0.4,0l0-0.1l0.8-0.7
					l0.1,0.1c-0.2,0.2-0.2,0.3-0.1,0.5l1.2,1.4C-180.4,384.9-180.3,385-180,384.8L-180,384.8z"/>
				<path fill="#231F20" d="M-178.5,383.9l-2-1.5c-0.2-0.2-0.3-0.2-0.5-0.1l0-0.1l1-0.6l0,0.1c-0.3,0.2-0.4,0.3-0.2,0.5l1.6,1.3
					l-0.3-1.9c0-0.1,0-0.2-0.1-0.3c-0.1-0.1-0.2-0.1-0.4,0l0-0.1l0.9-0.5l0,0.1c-0.2,0.1-0.2,0.3-0.2,0.5l0.4,2.4L-178.5,383.9z"/>
				<path fill="#231F20" d="M-175.3,381.4L-175.3,381.4c-0.2-0.2-0.3-0.3-0.5-0.2l-0.7,0.2l0.3,0.9c0.1,0.2,0.1,0.2,0.3,0.1l0.6-0.2
					c0.3-0.1,0.3-0.2,0.3-0.6l0.1,0l0.1,0.6l-2.1,0.7l0-0.1l0.1,0c0.3-0.1,0.3-0.2,0.3-0.5l-0.6-1.7c-0.1-0.2-0.2-0.3-0.4-0.2
					l-0.1,0l0-0.1l1.9-0.7l0.2,0.5l-0.1,0c-0.2-0.3-0.3-0.4-0.4-0.3l-0.8,0.3l0.3,1l0.7-0.2c0.1-0.1,0.2-0.1,0.1-0.4l0.1,0
					L-175.3,381.4z"/>
				<path fill="#231F20" d="M-173.7,379.3c0.1,0,0.1,0,0.2,0c0.7-0.1,0.9,0.2,0.9,0.6c0.1,0.5-0.2,0.7-0.7,0.8c-0.1,0-0.2,0-0.3,0
					L-173.7,379.3z M-173.5,380.8c0.1,0,0.1,0,0.2,0c0.1,0,0.2,0,0.3,0c0.1,0.1,0.3,0.2,0.5,0.3l0.3,0.2c0.4,0.3,0.6,0.5,1.4,0.3
					l0-0.1c-0.3,0-0.6-0.1-0.9-0.3l-0.4-0.3c-0.2-0.2-0.4-0.3-0.5-0.4c0.3-0.1,0.5-0.4,0.5-0.8c0-0.4-0.4-0.7-1.2-0.6
					c-0.3,0-0.4,0-0.5,0.1c-0.2,0-0.4,0.1-0.5,0.1l0,0.1l0.1,0c0.2,0,0.3,0,0.4,0.3l0.2,1.8c0,0.3-0.1,0.4-0.3,0.4l-0.1,0l0,0.1
					l1.2-0.1l0-0.1l-0.1,0c-0.2,0-0.3,0-0.4-0.3L-173.5,380.8z"/>
				<path fill="#231F20" d="M-170.3,381c0.1,0.4,0.3,0.6,0.7,0.6c0.3,0,0.6-0.1,0.6-0.5c0.1-0.6-1.3-0.9-1.2-1.6
					c0-0.4,0.4-0.6,0.8-0.6c0.4,0,0.4,0.1,0.6,0.2c0,0,0,0,0.1,0l0.1,0l0,0.5l-0.1,0c-0.1-0.3-0.4-0.5-0.6-0.6
					c-0.3,0-0.5,0.1-0.5,0.4c0,0.6,1.3,0.9,1.2,1.7c0,0.4-0.4,0.7-0.9,0.7c-0.2,0-0.5-0.2-0.6-0.2c0,0-0.1,0-0.1,0l-0.1,0
					L-170.3,381L-170.3,381z"/>
				<path fill="#231F20" d="M-167,382.1l-1-0.2l0-0.1c0.3,0,0.3,0,0.4-0.3l0.4-1.8c0.1-0.2,0-0.3-0.2-0.4l0-0.1l1,0.2l0,0.1
					c-0.3-0.1-0.4,0-0.4,0.3l-0.4,1.8C-167.3,381.9-167.3,382-167,382.1L-167,382.1z"/>
				<path fill="#231F20" d="M-164.8,382.4c-0.1,0.2,0,0.3,0.2,0.4l0.1,0.1l0,0.1l-1.2-0.5l0-0.1l0.1,0.1c0.2,0.1,0.3,0.1,0.4-0.2
					l0.8-2l-0.7-0.3c-0.2-0.1-0.3,0-0.5,0.3l-0.1,0l0.3-0.6l0.1,0c0,0,0,0,0,0.1c0,0,0,0,0.1,0l1.9,0.8c0.1,0,0.1,0,0.1,0l0.1,0
					l-0.2,0.7l-0.1,0c0.1-0.4,0-0.5-0.1-0.6l-0.7-0.3L-164.8,382.4z"/>
				<path fill="#231F20" d="M-160.5,382.7c0.2-0.1,0.2-0.2,0-0.4l0.1-0.1l0.8,0.5l0,0.1c-0.3-0.1-0.4-0.1-0.6,0l-1.3,0.6l-0.4,0.5
					c-0.1,0.2-0.1,0.3,0.1,0.4l0,0l0,0.1l-1-0.7l0-0.1l0.1,0c0.2,0.1,0.3,0.1,0.5-0.1l0.3-0.5l0-1.4c0-0.4,0-0.5-0.3-0.7l0-0.1
					l0.9,0.6l0,0.1c-0.3-0.2-0.3-0.1-0.3,0.1l0,1.3L-160.5,382.7z"/>
				<path fill="#231F20" d="M-157,387.8c-0.5,0.4-1.2,0.5-1.6-0.1c-0.4-0.5-0.3-1.3,0.3-1.8c0.4-0.3,1.1-0.5,1.6,0.1
					C-156.2,386.6-156.4,387.3-157,387.8z M-156.6,388c0.6-0.5,0.6-1.3,0.1-2c-0.5-0.7-1.4-0.9-2.1-0.4c-0.6,0.5-0.6,1.4-0.1,2
					C-158.2,388.4-157.3,388.5-156.6,388z"/>
				<path fill="#231F20" d="M-155.7,390.7L-155.7,390.7c0.2-0.2,0.2-0.3,0.1-0.5l-0.3-0.7l-0.8,0.4c-0.2,0.1-0.3,0.2-0.1,0.5l-0.1,0
					l-0.4-0.9l0.1,0c0.1,0.2,0.2,0.3,0.5,0.1l1.5-0.7c0.2-0.1,0.3-0.2,0.2-0.5l0.1,0l0.8,1.7l-0.5,0.2l0-0.1
					c0.2-0.1,0.3-0.2,0.2-0.5l-0.3-0.7l-0.9,0.4l0.4,0.8c0.1,0.1,0.2,0.2,0.4,0.1l0,0.1L-155.7,390.7z"/>
				<path fill="#231F20" d="M-185.6,407.4l1.5-2.8l0,0l-2.1,1.3c-0.2,0.1-0.2,0.4,0,0.6l-0.1,0.1l-0.7-0.9l0.1-0.1
					c0.2,0.3,0.3,0.3,0.8,0l1.8-1.1c0.3-0.2,0.4-0.3,0.2-0.5l0.1-0.1l0.5,0.7l-1.4,2.7l3-0.6l0.5,0.6l-0.1,0.1
					c-0.2-0.2-0.2-0.3-0.4-0.2l-1.9,1.6c-0.4,0.3-0.4,0.4-0.1,0.7l-0.1,0.1l-0.8-1.1l0.1-0.1c0.1,0.2,0.4,0.4,0.6,0.2l1.9-1.6l0,0
					l-3.1,0.6L-185.6,407.4z"/>
				<path fill="#231F20" d="M-180.2,410.3l-0.8-0.6l1.1-0.8L-180.2,410.3z M-180.2,410.5l-0.3,1c0,0.1,0,0.1-0.1,0.2
					c-0.1,0.1-0.2,0.1-0.5-0.1l-0.1-0.1l-0.1,0.1l1.2,0.9l0.1-0.1c-0.2-0.2-0.3-0.3-0.2-0.6l0.9-3.1l-0.4-0.3l0,0.1l-2.4,1.6
					c-0.4,0.3-0.5,0.3-0.8,0.1l-0.1,0.1l1,0.7l0.1-0.1l-0.1-0.1c-0.2-0.2-0.3-0.3-0.2-0.4c0-0.1,0.2-0.2,0.3-0.2l0.8-0.5
					L-180.2,410.5z"/>
				<path fill="#231F20" d="M-176.7,410.5c0.1,0,0.2,0,0.3,0.1c0.8,0.3,0.9,0.7,0.7,1.2c-0.2,0.6-0.7,0.7-1.2,0.5
					c-0.1,0-0.2-0.1-0.3-0.1L-176.7,410.5z M-177.4,412.2c0.1,0,0.1,0.1,0.3,0.1c0.1,0,0.2,0.1,0.4,0.1c0.1,0.1,0.2,0.3,0.4,0.6
					l0.2,0.5c0.3,0.6,0.5,0.9,1.4,1.2l0-0.1c-0.4-0.2-0.6-0.5-0.8-0.9l-0.3-0.5c-0.2-0.3-0.3-0.5-0.4-0.7c0.5,0,0.8-0.2,1-0.6
					c0.2-0.5-0.1-1.1-1.1-1.4c-0.3-0.1-0.4-0.1-0.7-0.2c-0.2-0.1-0.5-0.2-0.7-0.2l0,0.1l0.1,0c0.3,0.1,0.4,0.2,0.2,0.6l-0.8,2.2
					c-0.1,0.3-0.3,0.4-0.6,0.3l-0.1,0l0,0.1l1.5,0.5l0-0.1l-0.1,0c-0.3-0.1-0.4-0.2-0.3-0.5L-177.4,412.2z"/>
				<path fill="#231F20" d="M-171.2,412.1c0.2-0.3,0.1-0.4-0.2-0.4l0-0.1l1.2,0.1l0,0.1c-0.4,0-0.5,0.1-0.7,0.4l-1,1.5l-0.1,0.8
					c0,0.3,0.1,0.4,0.4,0.4l0.1,0l0,0.1l-1.5-0.1l0-0.1l0.1,0c0.3,0,0.4-0.1,0.5-0.4l0.1-0.8l-0.8-1.6c-0.2-0.4-0.3-0.5-0.7-0.6
					l0-0.1l1.4,0.1l0,0.1c-0.4,0-0.5,0.1-0.3,0.3l0.8,1.4L-171.2,412.1z"/>
				<path fill="#231F20" d="M-166.7,414.6l-2.4,0.4l0-0.1l0.2,0c0.2,0,0.3-0.1,0.3-0.4l-0.4-2.4c0-0.3-0.1-0.4-0.5-0.3l-0.1,0l0-0.1
					l1.6-0.3l0,0.1l-0.2,0c-0.3,0.1-0.4,0.1-0.4,0.4l0.4,2.5c0,0.1,0.1,0.2,0.2,0.2l0.8-0.1c0.3-0.1,0.4-0.2,0.7-0.7l0.1,0
					L-166.7,414.6z"/>
				<path fill="#231F20" d="M-164.1,411.9l-0.9,0.4l-0.1-1.3L-164.1,411.9z M-163.9,412l0.7,0.8c0,0,0.1,0.1,0.1,0.2
					c0.1,0.1,0,0.2-0.3,0.3l-0.1,0.1l0,0.1l1.4-0.6l0-0.1c-0.3,0.1-0.4,0.1-0.6-0.1l-2.2-2.3l-0.4,0.2l0.1,0.1l0.1,2.9
					c0,0.5,0,0.6-0.3,0.7l0,0.1l1.2-0.5l0-0.1l-0.1,0c-0.3,0.1-0.4,0.1-0.5,0c0-0.1,0-0.3,0-0.4l0-0.9L-163.9,412z"/>
				<path fill="#231F20" d="M-158,409.9l-4.1-0.5l1.5,1.8c0.2,0.3,0.4,0.3,0.7,0l0.1,0.1l-1,0.8l-0.1-0.1l0,0
					c0.3-0.2,0.3-0.4,0.1-0.6l-1.7-2.1c-0.2,0-0.3,0.1-0.4,0.2l-0.1-0.1l0.7-0.5l3.7,0.4l-1.4-1.7c-0.2-0.3-0.3-0.2-0.7,0l-0.1-0.1
					l1-0.8l0.1,0.1c-0.3,0.3-0.3,0.4-0.2,0.5l1.9,2.3L-158,409.9z"/>
				<path fill="#231F20" d="M-158.8,405.7c0-0.1,0.1-0.2,0.2-0.4c0.4-0.6,0.8-0.9,1.1-0.9c0.4-0.1,0.9,0,1.2,0.3
					c0.5,0.3,0.7,0.7,0.7,1c0.1,0.5,0,0.8-0.4,1.4c-0.2,0.4-0.3,0.3-0.5,0.2L-158.8,405.7z M-156.7,407.6c0.3,0.2,0.3,0.3,0.1,0.6
					l0,0.1l0.1,0.1l0.9-1.5c0.7-1.2,0.3-2.2-0.4-2.7c-0.8-0.5-1.7-0.4-2.5,0.9c-0.2,0.2-0.3,0.5-0.5,0.8c-0.2,0.3-0.3,0.5-0.4,0.7
					l0.1,0.1l0.1-0.1c0.2-0.3,0.3-0.3,0.6-0.1L-156.7,407.6z"/>
				<path fill="#231F20" d="M-188.2,395.8v2.3c0,0.1,0,0.2,0.2,0.2h0.2v0.1h-1v-0.1h0.2c0.1,0,0.2,0,0.2-0.2v-2
					c-0.1,0.1-0.4,0.3-0.5,0.3l0-0.1c0.2-0.2,0.6-0.5,0.7-0.6C-188.3,395.8-188.2,395.8-188.2,395.8z"/>
				<path fill="#231F20" d="M-185.9,397.8c0,0.3-0.2,0.6-0.5,0.6c-0.3,0-0.5-0.3-0.5-0.6c0-0.3,0.1-0.5,0.4-0.6
					C-186.1,397.3-185.9,397.5-185.9,397.8z M-185.7,396.4c0-0.3-0.3-0.6-0.7-0.6c-0.4,0-0.7,0.3-0.7,0.6c0,0.3,0.2,0.5,0.6,0.7
					c-0.4,0.2-0.6,0.4-0.6,0.7c0,0.4,0.3,0.7,0.8,0.7c0.5,0,0.8-0.3,0.8-0.7c0-0.3-0.2-0.5-0.6-0.7
					C-185.9,396.8-185.7,396.6-185.7,396.4z M-185.9,396.4c0,0.2-0.1,0.4-0.3,0.6c-0.5-0.2-0.6-0.4-0.6-0.6c0-0.3,0.2-0.5,0.5-0.5
					C-186.1,395.9-185.9,396.1-185.9,396.4z"/>
				<path fill="#231F20" d="M-155.8,396.1h1c0.1,0,0.1,0,0.1-0.1h0.1l0,0.3h-1l0,0.7c0.1-0.1,0.3-0.1,0.4-0.1c0.5,0,0.8,0.4,0.8,0.8
					c0,0.5-0.4,0.9-0.9,0.9c-0.3,0-0.6-0.1-0.6-0.3c0-0.1,0.1-0.1,0.1-0.1c0.2,0,0.3,0.3,0.5,0.3c0.3,0,0.6-0.3,0.6-0.7
					c0-0.4-0.3-0.6-0.6-0.6c-0.1,0-0.3,0.1-0.4,0.2l0,0L-155.8,396.1z"/>
				<path fill="#231F20" d="M-152.8,397.9c0,0.5-0.2,0.7-0.5,0.7c-0.3,0-0.6-0.2-0.6-0.9c0-0.1,0-0.2,0-0.3c0.2-0.2,0.4-0.2,0.5-0.2
					C-153,397.2-152.8,397.4-152.8,397.9z M-152.7,396c-0.8,0.2-1.3,0.8-1.3,1.6c0,0.6,0.3,1.1,0.8,1.1c0.4,0,0.8-0.4,0.8-0.8
					c0-0.4-0.3-0.7-0.7-0.7c-0.2,0-0.4,0.1-0.6,0.2C-153.6,396.7-153.3,396.3-152.7,396L-152.7,396z"/>
			</g>
		</g>
		<g>
			<path d="M-142.6,381.4c0-0.6-0.1-0.7-0.6-0.7h-0.2v-0.2c0.3,0,0.7,0,1.2-0.1c0.5,0,1,0,1.4,0c2.3,0,3.3,1.1,3.3,2.6
				c0,1.3-1,2.8-3.2,2.8h-2.7v-0.2h0.1c0.5,0,0.7-0.1,0.7-0.6L-142.6,381.4L-142.6,381.4z M-141.9,385.2c0,0.4,0,0.5,0.7,0.5
				c1.1,0,1.6-0.2,2.2-0.7c0.3-0.3,0.7-1,0.7-1.8c0-0.6-0.2-1.3-0.7-1.8c-0.4-0.4-1-0.7-2.2-0.7c-0.4,0-0.6,0-0.7,0L-141.9,385.2
				L-141.9,385.2z"/>
			<path d="M-134.6,385.8h-2.1v-0.2c0.5,0,0.6-0.2,0.6-0.7v-3.6c0-0.5-0.2-0.6-0.6-0.6v-0.2h2.1v0.2c-0.5,0-0.7,0.1-0.7,0.7v3.6
				c0,0.5,0.1,0.7,0.7,0.7V385.8z"/>
			<path d="M-131.5,386l-1.9-4.6c-0.2-0.5-0.3-0.7-0.8-0.7v-0.2h2.4v0.2c-0.8,0-1,0.2-0.8,0.6l1.5,3.8l1.4-3.5
				c0.1-0.2,0.1-0.4,0.1-0.5c0-0.3-0.2-0.4-0.8-0.4v-0.2h2v0.2c-0.4,0-0.7,0.2-0.9,0.7l-1.8,4.6L-131.5,386L-131.5,386z"/>
			<path d="M-125.9,385.8h-2.1v-0.2c0.5,0,0.6-0.2,0.6-0.7v-3.6c0-0.5-0.2-0.6-0.6-0.6v-0.2h2.1v0.2c-0.5,0-0.7,0.1-0.7,0.7v3.6
				c0,0.5,0.1,0.7,0.7,0.7V385.8z"/>
			<path d="M-125,384.5c0.2,0.8,0.8,1.2,1.4,1.2c0.6,0,1.2-0.3,1.2-1c0-1.2-2.7-1.6-2.7-3.1c0-0.7,0.6-1.2,1.5-1.2
				c0.7,0,0.9,0.2,1.2,0.2c0.1,0,0.1,0,0.2-0.1h0.1l0.1,1.1h-0.1c-0.2-0.6-0.8-1-1.4-1c-0.6,0-1,0.3-1,0.8c0,1.2,2.7,1.5,2.7,3.1
				c0,0.8-0.7,1.5-1.7,1.5c-0.5,0-1.1-0.2-1.2-0.2c-0.1,0-0.1,0-0.2,0.1h-0.1l-0.2-1.3H-125z"/>
			<path d="M-118.9,385.8h-2.1v-0.2c0.5,0,0.6-0.2,0.6-0.7v-3.6c0-0.5-0.2-0.6-0.6-0.6v-0.2h2.1v0.2c-0.5,0-0.7,0.1-0.7,0.7v3.6
				c0,0.5,0.1,0.7,0.7,0.7V385.8z"/>
			<path d="M-114.9,386c-1.7,0-3.1-1.1-3.1-2.7c0-1.7,1.3-2.9,3.1-2.9c1.6,0,3,1.1,3,2.6C-111.9,384.8-113.3,386-114.9,386z
				 M-115.1,380.6c-1.5,0-2.1,1.4-2.1,2.4c0,1.6,1.1,2.7,2.5,2.7c1.4,0,2.1-1.2,2.1-2.4C-112.7,381.7-113.7,380.6-115.1,380.6z"/>
			<path d="M-105.6,385.9l-4.4-4.6v3.7c0,0.6,0.1,0.7,0.9,0.7v0.2h-2v-0.2h0c0.5,0,0.7-0.2,0.7-0.6v-4.2c-0.2-0.1-0.4-0.2-0.7-0.2
				v-0.2h1.3l4,4.2v-3.4c0-0.5-0.2-0.6-0.8-0.6v-0.2h2v0.2c-0.6,0-0.8,0.1-0.8,0.4v4.8H-105.6z"/>
			<path d="M-98.6,386c-1.7,0-3.1-1.1-3.1-2.7c0-1.7,1.3-2.9,3.1-2.9c1.6,0,3,1.1,3,2.6C-95.5,384.8-96.9,386-98.6,386z
				 M-98.7,380.6c-1.5,0-2.1,1.4-2.1,2.4c0,1.6,1.1,2.7,2.5,2.7c1.4,0,2.1-1.2,2.1-2.4C-96.3,381.7-97.3,380.6-98.7,380.6z"/>
			<path d="M-91,383.8h-0.1c0-0.5-0.2-0.6-0.6-0.6h-1.6v1.9c0,0.5,0.1,0.7,0.7,0.7v0.2h-2.1v-0.2c0.5,0,0.6-0.1,0.6-0.8v-3.4
				c0-0.5,0-0.8-0.6-0.8v-0.2h3.8v1H-91c0-0.5-0.2-0.7-0.7-0.7h-1.6v2h1.7c0.3,0,0.5-0.2,0.5-0.5h0.1L-91,383.8L-91,383.8z"/>
		</g>
		<g>
			<path d="M-140.2,399.5h-3.5v-0.3c0.9,0,1.1-0.3,1.1-1.2v-6.1c0-0.8-0.3-1-1.1-1v-0.3h3.5v0.3c-0.9,0-1.2,0.2-1.2,1.2v6.1
				c0,0.8,0.2,1.1,1.2,1.1V399.5z"/>
			<path d="M-129.8,399.6l-7.5-7.8v6.2c0,1,0.2,1.3,1.5,1.3v0.3h-3.3v-0.3h0.1c0.9,0,1.2-0.3,1.2-1v-7.1c-0.3-0.2-0.7-0.3-1.2-0.4
				v-0.3h2.3l6.8,7.1v-5.7c0-0.9-0.3-1-1.4-1.1v-0.3h3.4v0.3c-1.1,0-1.3,0.2-1.3,0.7v8C-129.4,399.6-129.8,399.6-129.8,399.6z"/>
			<path d="M-121,396h-0.2c0-0.8-0.3-1.1-1-1.1h-2.7v3.2c0,0.8,0.2,1.1,1.3,1.1v0.3h-3.5v-0.3c0.9-0.1,1.1-0.2,1.1-1.4v-5.6
				c0-0.9-0.1-1.3-1.1-1.4v-0.3h6.4v1.7h-0.2c0-0.8-0.3-1.2-1.2-1.2h-2.7v3.4h2.8c0.5,0,0.8-0.3,0.8-0.9h0.2V396z"/>
			<path d="M-114.2,399.7c-2.8,0-5.2-1.8-5.2-4.5c0-2.9,2.2-4.9,5.3-4.9c2.7,0,5.1,1.9,5.1,4.4
				C-109.1,397.7-111.4,399.7-114.2,399.7z M-114.5,390.7c-2.5,0-3.5,2.4-3.5,4.1c0,2.7,1.8,4.6,4.1,4.6c2.3,0,3.5-2.1,3.5-4.1
				C-110.4,392.6-112.1,390.7-114.5,390.7z"/>
			<path d="M-105.5,398.1c0,0.9,0.3,1.1,1.2,1.1h0.3v0.3h-4.1v-0.3h0.2c0.8,0,1.2-0.2,1.2-1.2V392c0-0.9-0.2-1.2-1.1-1.2h-0.3v-0.3
				c0.3,0,1.2-0.1,1.8-0.1c0.6,0,0.9,0,1.8,0c2.7,0,3.9,1.1,3.9,2.6c0,1.1-0.7,2-1.9,2.3c0.5,0.4,1,0.8,1.6,1.5l1.1,1.1
				c0.8,0.8,1.7,1.4,2.8,1.5v0.3c-2.5,0.1-3.2-0.4-4.4-1.7l-0.9-1c-0.6-0.6-1.1-1-1.5-1.3c-0.4,0-0.6,0-1,0c-0.3,0-0.5,0-0.7,0
				L-105.5,398.1L-105.5,398.1z M-105.5,395.4c0.3,0,0.6,0,0.9,0c1.6,0,2.6-0.7,2.6-2.4c0-1.3-0.6-2.4-2.8-2.4c-0.3,0-0.5,0-0.7,0
				V395.4z"/>
			<path d="M-90.7,399.5l-3.7-7.7h0l-0.4,6.5c0,0.7,0.5,0.9,1.2,0.9v0.3h-3v-0.3c1.1,0,1.2-0.2,1.3-1.5l0.3-5.6
				c0.1-0.9,0-1.2-0.9-1.3v-0.3h2.2l3.5,7.3l3.5-7.3h2.1v0.3c-0.7,0.1-1,0.1-0.9,0.6l0.5,6.5c0.1,1.3,0.2,1.3,1.3,1.3v0.3h-3.7v-0.3
				c0.7,0,1.3-0.2,1.3-1l-0.4-6.4h0l-3.6,7.7L-90.7,399.5L-90.7,399.5z"/>
			<path d="M-80.5,395.5l-0.8,2.3c-0.1,0.3-0.3,0.7-0.3,0.9c0,0.4,0.4,0.5,1.2,0.5h0.2v0.3h-3.3v-0.3c0.9,0,1.1-0.2,1.6-1.4l2.6-7.2
				l-0.1-0.3h1.3l3,8c0.3,0.8,0.6,0.9,1.3,0.9v0.3h-4v-0.3h0.4c0.8,0,1.1-0.1,1.1-0.5c0-0.2-0.1-0.4-0.2-0.6l-1-2.6
				C-77.5,395.5-80.5,395.5-80.5,395.5z M-79,391.5l-1.2,3.4h2.5L-79,391.5z"/>
			<path d="M-69.4,398.2c0,0.8,0.3,1.1,1.1,1.1h0.5v0.3h-4.5v-0.3h0.5c0.9,0,1.1-0.3,1.1-1.1V391h-2.5c-0.6,0-0.8,0.3-1.1,1.6h-0.3
				l0.2-2.3h0.3c0,0.1,0.1,0.1,0.2,0.2c0.1,0,0.2,0,0.3,0h6.9c0.2,0,0.4,0,0.4-0.2h0.3l0.2,2.3h-0.3c-0.2-1.3-0.5-1.6-1.1-1.6h-2.5
				L-69.4,398.2L-69.4,398.2z"/>
			<path d="M-61,399.5h-3.5v-0.3c0.9,0,1.1-0.3,1.1-1.2v-6.1c0-0.8-0.3-1-1.1-1v-0.3h3.5v0.3c-0.9,0-1.2,0.2-1.2,1.2v6.1
				c0,0.8,0.2,1.1,1.2,1.1V399.5z"/>
			<path d="M-54.4,399.7c-2.8,0-5.2-1.8-5.2-4.5c0-2.9,2.2-4.9,5.3-4.9c2.7,0,5.1,1.9,5.1,4.4C-49.3,397.7-51.6,399.7-54.4,399.7z
				 M-54.7,390.7c-2.5,0-3.5,2.4-3.5,4.1c0,2.7,1.8,4.6,4.1,4.6c2.3,0,3.5-2.1,3.5-4.1C-50.6,392.6-52.3,390.7-54.7,390.7z"/>
			<path d="M-38.7,399.6l-7.5-7.8v6.2c0,1,0.2,1.3,1.5,1.3v0.3h-3.3v-0.3h0.1c0.9,0,1.2-0.3,1.2-1v-7.1c-0.3-0.2-0.7-0.3-1.2-0.4
				v-0.3h2.3l6.8,7.1v-5.7c0-0.9-0.3-1-1.4-1.1v-0.3h3.4v0.3c-1.1,0-1.3,0.2-1.3,0.7v8C-38.4,399.6-38.7,399.6-38.7,399.6z"/>
			<path d="M-138.9,412.4c0,0.8,0.3,1.1,1.1,1.1h0.5v0.3h-4.5v-0.3h0.5c0.9,0,1.1-0.3,1.1-1.1v-7.1h-2.5c-0.6,0-0.8,0.3-1.1,1.6
				h-0.3l0.2-2.3h0.3c0,0.1,0.1,0.1,0.2,0.2c0.1,0,0.2,0,0.3,0h6.9c0.2,0,0.4,0,0.4-0.2h0.3l0.2,2.3h-0.3c-0.2-1.3-0.5-1.6-1.1-1.6
				h-2.5L-138.9,412.4L-138.9,412.4z"/>
			<path d="M-127.9,410.5h-0.3c-0.1-1-0.4-1.1-1-1.1h-2.4v3.1c0,0.7,0.2,0.8,0.8,0.8h2.2c1,0,1.3-0.4,1.7-1.6h0.3l-0.2,2.1h-7.6
				v-0.3h0.4c1.2,0,1.4-0.3,1.4-1.2v-6.1c0-0.8-0.2-1.2-1.1-1.2h-0.3v-0.3h6.9l0.1,2h-0.3c-0.2-1.2-0.5-1.5-1.1-1.5h-3v3.5h2.6
				c0.5,0,0.8-0.2,0.8-1.1h0.3C-127.9,407.8-127.9,410.5-127.9,410.5z"/>
			<path d="M-116.7,407.2c-0.5-1.3-1.7-2.2-3.3-2.2c-2.4,0-3.9,1.7-3.9,4.2c0,2.6,1.9,4.5,4.1,4.5c1.1,0,2.5-0.4,3.5-2.1h0.3
				c-0.2,0.6-0.6,1.5-0.9,2.1c-0.9-0.1-1.6,0.4-3.3,0.4c-2.9,0-5-1.9-5-4.6c0-2.8,2.2-4.8,5.2-4.8c1.8,0,2.6,0.6,3,0.6
				c0.2,0,0.2,0,0.3-0.1h0.2l0.1,2.1C-116.5,407.2-116.7,407.2-116.7,407.2z"/>
			<path d="M-112.7,409.5v2.7c0,0.9,0.2,1.3,1.2,1.3h0v0.3h-3.6v-0.3h0.1c0.8,0,1.1-0.2,1.1-1.1v-6.3c0-0.7-0.2-1-1-1v-0.3h3.4v0.3
				c-1,0-1.2,0.3-1.2,1.4v2.5h5.6v-2.8c0-0.8-0.2-1.1-1.1-1.1h-0.3v-0.3h3.7v0.3c-0.9,0-1.1,0.3-1.1,1.2v6c0,1,0.3,1.3,1.2,1.3h0.1
				v0.3h-4.1v-0.3h0.4c0.9,0,1.1-0.3,1.1-1.1v-2.9L-112.7,409.5L-112.7,409.5z"/>
			<path d="M-94.3,413.9l-7.5-7.8v6.2c0,1,0.2,1.3,1.5,1.3v0.3h-3.3v-0.3h0.1c0.9,0,1.2-0.3,1.2-1v-7.1c-0.3-0.2-0.7-0.3-1.2-0.4
				v-0.3h2.3l6.8,7.1v-5.7c0-0.9-0.3-1-1.4-1.1v-0.3h3.4v0.3c-1.1,0-1.3,0.2-1.3,0.7v8H-94.3z"/>
			<path d="M-86.5,414c-2.8,0-5.2-1.8-5.2-4.5c0-2.9,2.2-4.9,5.3-4.9c2.7,0,5.1,1.9,5.1,4.4C-81.3,412-83.7,414-86.5,414z
				 M-86.8,405c-2.5,0-3.5,2.4-3.5,4.1c0,2.7,1.8,4.6,4.1,4.6c2.3,0,3.5-2.1,3.5-4.1C-82.7,406.8-84.4,405-86.8,405z"/>
			<path d="M-73.8,413.8h-6.4v-0.3h0.5c0.7,0,0.9-0.2,0.9-1v-6.4c0-0.8-0.2-1.1-1.1-1.1h-0.2v-0.3h4.2v0.3h-0.5
				c-0.9,0-1.2,0.1-1.2,1v6.6c0,0.4,0.2,0.5,0.6,0.5h2.1c0.8,0,1.1-0.3,2-1.6h0.3L-73.8,413.8z"/>
			<path d="M-66.7,414c-2.8,0-5.2-1.8-5.2-4.5c0-2.9,2.2-4.9,5.3-4.9c2.7,0,5.1,1.9,5.1,4.4C-61.5,412-63.9,414-66.7,414z M-67,405
				c-2.5,0-3.5,2.4-3.5,4.1c0,2.7,1.8,4.6,4.1,4.6c2.3,0,3.5-2.1,3.5-4.1C-62.9,406.8-64.6,405-67,405z"/>
			<path d="M-51.5,413.1c-1.4,0.7-3.3,0.9-3.9,0.9c-3.2,0-4.6-2.4-4.6-4.5c0-2.2,1.5-4.9,5-4.9c1.5,0,2.6,0.5,2.9,0.5
				c0.1,0,0.2,0,0.3-0.1h0.2v2.3h-0.3c-0.4-1.8-1.6-2.4-2.9-2.4c-2.5,0-3.8,2.1-3.8,4.4c0,3,2.1,4.3,3.7,4.3c0.7,0,1.4-0.1,2.2-0.5
				v-1.8c0-0.8-0.3-1.1-1.1-1.1h-0.5v-0.3h3.9v0.3c-0.7,0-1,0.3-1,0.9L-51.5,413.1L-51.5,413.1z"/>
			<path d="M-42.7,406.1c0.5-0.8,0.2-1-0.7-1v-0.3h3.3v0.3c-1,0.1-1.4,0.5-1.8,1.1l-2.4,4v2.2c0,0.8,0.3,1.1,1.2,1.1h0.2v0.3h-4
				v-0.3h0.3c0.9,0,1.1-0.3,1.1-1v-2l-2.6-4c-0.7-1.1-1-1.3-2-1.3v-0.3h3.8v0.3c-1.1,0-1.2,0.3-0.8,0.9l2.3,3.6L-42.7,406.1z"/>
		</g>
	</g>
</g>
</svg>
