<?xml version="1.0" encoding="utf-8"?>
<!-- Generator: Adobe Illustrator 19.2.1, SVG Export Plug-In . SVG Version: 6.00 Build 0)  -->
<svg version="1.1" id="Layer_1" xmlns="http://www.w3.org/2000/svg" xmlns:xlink="http://www.w3.org/1999/xlink" x="0px" y="0px"
	 viewBox="0 0 208.1 61.7" style="enable-background:new 0 0 208.1 61.7;" xml:space="preserve">
<style type="text/css">
	.st0{fill:#231F20;}
</style>
<g>
	<path class="st0" d="M12.6,7.1C12,5.6,10.7,4.6,8.9,4.6c-2.7,0-4.3,1.9-4.3,4.6c0,2.9,2.1,5,4.5,5c1.3,0,2.8-0.4,3.9-2.4h0.3
		c-0.2,0.7-0.6,1.7-1,2.3c-1-0.1-1.7,0.4-3.6,0.4c-3.2,0-5.6-2.1-5.6-5.1c0-3.1,2.4-5.3,5.7-5.3c2,0,2.9,0.6,3.4,0.6
		c0.2,0,0.3,0,0.3-0.1h0.2l0.1,2.3H12.6z"/>
	<path class="st0" d="M20.5,14.6c-3.1,0-5.7-2-5.7-5c0-3.2,2.4-5.4,5.8-5.4c3,0,5.6,2.1,5.6,4.9C26.1,12.4,23.6,14.6,20.5,14.6z
		 M20.1,4.6c-2.8,0-3.9,2.6-3.9,4.5c0,3,2,5.1,4.6,5.1c2.6,0,3.8-2.3,3.8-4.5C24.6,6.7,22.8,4.6,20.1,4.6z"/>
	<path class="st0" d="M34.4,14.4h-7.1v-0.3h0.5c0.7,0,1-0.2,1-1V6c0-0.8-0.3-1.2-1.3-1.2h-0.2V4.5H32v0.3h-0.6c-1,0-1.3,0.1-1.3,1.1
		v7.3c0,0.4,0.2,0.6,0.6,0.6h2.3c0.9,0,1.2-0.4,2.2-1.7h0.3L34.4,14.4z"/>
	<path class="st0" d="M43.2,14.4h-7.1v-0.3h0.5c0.7,0,1-0.2,1-1V6c0-0.8-0.3-1.2-1.3-1.2h-0.2V4.5h4.7v0.3h-0.6
		c-1,0-1.3,0.1-1.3,1.1v7.3c0,0.4,0.2,0.6,0.6,0.6h2.3c0.9,0,1.2-0.4,2.2-1.7h0.3L43.2,14.4z"/>
	<path class="st0" d="M51.9,10.8h-0.3c-0.1-1.1-0.4-1.3-1.1-1.3h-2.7v3.4c0,0.7,0.3,0.9,0.9,0.9h2.5c1.1,0,1.4-0.4,1.8-1.8h0.3
		L53,14.4h-8.4v-0.3H45c1.3,0,1.5-0.3,1.5-1.3V6.1c0-0.9-0.2-1.3-1.3-1.3h-0.3V4.5h7.6l0.1,2.2h-0.3c-0.2-1.4-0.6-1.6-1.2-1.6h-3.4
		V9h2.8c0.6,0,0.8-0.3,0.9-1.2h0.3V10.8z"/>
	<path class="st0" d="M64.2,13.6c-1.6,0.8-3.6,1-4.3,1c-3.5,0-5.1-2.7-5.1-5c0-2.4,1.7-5.4,5.6-5.4c1.7,0,2.8,0.5,3.2,0.5
		c0.1,0,0.3,0,0.4-0.1h0.2v2.6h-0.3c-0.4-2-1.8-2.6-3.3-2.6c-2.8,0-4.2,2.3-4.2,4.9c0,3.3,2.3,4.7,4.1,4.7c0.7,0,1.5-0.2,2.4-0.6v-2
		c0-0.9-0.3-1.2-1.3-1.2h-0.6v-0.3h4.3v0.3c-0.8,0-1.1,0.3-1.1,1V13.6z"/>
	<path class="st0" d="M73.1,10.8h-0.3c-0.1-1.1-0.4-1.3-1.1-1.3H69v3.4c0,0.7,0.3,0.9,0.9,0.9h2.5c1.1,0,1.4-0.4,1.8-1.8h0.3
		l-0.3,2.4h-8.4v-0.3h0.4c1.3,0,1.5-0.3,1.5-1.3V6.1c0-0.9-0.2-1.3-1.3-1.3h-0.4V4.5h7.6l0.1,2.2h-0.3c-0.2-1.4-0.6-1.6-1.2-1.6H69
		V9h2.8c0.6,0,0.8-0.3,0.9-1.2h0.3V10.8z"/>
	<path class="st0" d="M86.2,14.6c-3.1,0-5.7-2-5.7-5c0-3.2,2.4-5.4,5.8-5.4c3,0,5.6,2.1,5.6,4.9C91.8,12.4,89.3,14.6,86.2,14.6z
		 M85.8,4.6c-2.8,0-3.9,2.6-3.9,4.5c0,3,2,5.1,4.6,5.1c2.6,0,3.8-2.3,3.8-4.5C90.3,6.7,88.5,4.6,85.8,4.6z"/>
	<path class="st0" d="M100.2,10.6h-0.3c0-0.9-0.4-1.2-1.1-1.2h-2.9v3.5c0,0.9,0.2,1.2,1.4,1.2v0.3h-3.9v-0.3c1-0.1,1.2-0.3,1.2-1.6
		V6.3c0-1-0.1-1.5-1.2-1.5V4.5h7.1v1.9h-0.3c0-0.9-0.3-1.3-1.3-1.3h-3v3.7H99c0.6,0,0.9-0.3,0.9-1h0.3V10.6z"/>
	<path class="st0" d="M10.1,39.3H3.5v-0.5c1.7-0.1,2-0.5,2-2.3V24.9c0-1.5-0.5-1.9-2-2v-0.5h6.6v0.5c-1.7,0-2.3,0.4-2.3,2.2v11.5
		c0,1.6,0.4,2.2,2.3,2.2V39.3z"/>
	<path class="st0" d="M29.9,39.5L15.8,24.8v11.7c0,2,0.4,2.4,2.7,2.4v0.5h-6.3v-0.5h0.1c1.7,0,2.2-0.6,2.2-1.8V23.6
		c-0.6-0.4-1.3-0.7-2.3-0.7v-0.5h4.3l12.8,13.4V24.9c0-1.7-0.5-2-2.7-2v-0.5h6.4v0.5c-2,0-2.5,0.4-2.5,1.4v15.2H29.9z"/>
	<path class="st0" d="M46.4,32.8H46c-0.1-1.6-0.6-2.1-1.9-2.1h-5v6c0,1.5,0.3,2.1,2.4,2.1v0.5h-6.6v-0.5c1.7-0.1,2-0.5,2-2.7V25.5
		c0-1.7-0.1-2.5-2-2.6v-0.5h12.2v3.2h-0.5c0-1.6-0.6-2.2-2.3-2.2H39v6.4h5.4c1,0,1.5-0.6,1.6-1.7h0.5V32.8z"/>
	<path class="st0" d="M59.3,39.8c-5.3,0-9.8-3.4-9.8-8.5c0-5.4,4.2-9.3,10-9.3c5.1,0,9.6,3.5,9.6,8.4C69,35.9,64.6,39.8,59.3,39.8z
		 M58.7,22.7c-4.8,0-6.7,4.5-6.7,7.7c0,5.1,3.5,8.7,7.8,8.7c4.4,0,6.6-3.9,6.6-7.8C66.4,26.2,63.2,22.7,58.7,22.7z"/>
	<path class="st0" d="M75.8,36.8c0,1.6,0.7,2,2.2,2h0.6v0.5h-7.7v-0.5h0.5c1.6,0,2.2-0.4,2.2-2.3V25.1c0-1.7-0.5-2.2-2-2.2h-0.6
		v-0.5c0.7,0,2.3-0.1,3.4-0.2c1.1-0.1,1.7-0.1,3.4-0.1c5,0,7.3,2.1,7.3,4.8c0,2-1.4,3.8-3.6,4.4c1,0.8,1.8,1.6,3.1,2.8l2.2,2.2
		c1.6,1.6,3.3,2.6,5.4,2.8v0.5c-4.8,0.2-6-0.8-8.4-3.2l-1.8-1.8c-1.2-1.2-2.2-2-2.8-2.4c-0.7,0-1.1,0.1-1.9,0.1c-0.6,0-1,0-1.4-0.1
		V36.8z M75.8,31.7c0.7,0.1,1.1,0.1,1.7,0.1c3,0,5-1.3,5-4.5c0-2.5-1.1-4.5-5.3-4.5c-0.5,0-0.9,0-1.4,0.1V31.7z"/>
	<path class="st0" d="M103.9,39.3l-6.9-14.5h-0.1l-0.7,12.3c-0.1,1.4,1,1.7,2.2,1.7v0.5h-5.7v-0.5c2,0,2.2-0.4,2.4-2.9l0.7-10.6
		c0.1-1.8,0.1-2.3-1.6-2.4v-0.5h4.1l6.6,13.7l6.5-13.7h4v0.5c-1.3,0.1-1.9,0.1-1.8,1.1l0.9,12.3c0.2,2.5,0.4,2.5,2.4,2.5v0.5h-7
		v-0.5c1.3,0,2.5-0.4,2.4-1.8l-0.8-12.2h-0.1l-6.8,14.5H103.9z"/>
	<path class="st0" d="M123.1,31.8l-1.6,4.3c-0.2,0.5-0.5,1.3-0.5,1.7c0,0.7,0.7,1,2.2,1h0.4v0.5h-6.3v-0.5c1.8,0,2.1-0.3,2.9-2.7
		l5-13.5L125,22h2.4l5.7,15.1c0.5,1.4,1.1,1.7,2.5,1.7v0.5h-7.5v-0.5h0.7c1.6,0,2.1-0.2,2.1-0.9c0-0.4-0.2-0.8-0.3-1.1l-1.8-5H123.1
		z M125.9,24.3l-2.3,6.3h4.7L125.9,24.3z"/>
	<path class="st0" d="M144,36.8c0,1.5,0.5,2,2.2,2h1v0.5h-8.6v-0.5h1c1.7,0,2.2-0.5,2.2-2V23.4H137c-1.1,0-1.6,0.6-2,3h-0.5L135,22
		h0.5c0,0.2,0.1,0.3,0.3,0.3c0.2,0.1,0.4,0.1,0.5,0.1h13.1c0.4,0,0.8-0.1,0.8-0.4h0.5l0.4,4.4h-0.5c-0.4-2.4-0.9-3-2-3H144V36.8z"/>
	<path class="st0" d="M160,39.3h-6.6v-0.5c1.7-0.1,2-0.5,2-2.3V24.9c0-1.5-0.5-1.9-2-2v-0.5h6.6v0.5c-1.7,0-2.3,0.4-2.3,2.2v11.5
		c0,1.6,0.4,2.2,2.3,2.2V39.3z"/>
	<path class="st0" d="M172.5,39.8c-5.3,0-9.8-3.4-9.8-8.5c0-5.4,4.2-9.3,10-9.3c5.1,0,9.6,3.5,9.6,8.4
		C182.2,35.9,177.7,39.8,172.5,39.8z M171.9,22.7c-4.8,0-6.7,4.5-6.7,7.7c0,5.1,3.5,8.7,7.8,8.7c4.4,0,6.6-3.9,6.6-7.8
		C179.6,26.2,176.4,22.7,171.9,22.7z"/>
	<path class="st0" d="M202.1,39.5L188,24.8v11.7c0,2,0.4,2.4,2.8,2.4v0.5h-6.3v-0.5h0.1c1.7,0,2.2-0.6,2.2-1.8V23.6
		c-0.6-0.4-1.3-0.7-2.3-0.7v-0.5h4.3l12.8,13.4V24.9c0-1.7-0.5-2-2.7-2v-0.5h6.4v0.5c-2,0-2.5,0.4-2.5,1.4v15.2H202.1z"/>
	<path class="st0" d="M3.3,56c0.3,1.4,1.4,2.2,2.7,2.2c1.1,0,2.2-0.6,2.2-1.9c0-2.3-5.1-3-5.1-5.8c0-1.3,1.2-2.3,2.8-2.3
		c1.3,0,1.6,0.4,2.2,0.4c0.1,0,0.2,0,0.3-0.2h0.3l0.3,2H8.6c-0.4-1.1-1.5-1.9-2.6-1.9c-1,0-1.8,0.6-1.8,1.5c0,2.3,5.1,2.9,5.1,5.8
		c0,1.6-1.4,2.7-3.2,2.7c-0.9,0-2-0.4-2.2-0.4c-0.1,0-0.3,0.1-0.3,0.2H3.3L3,56H3.3z"/>
	<path class="st0" d="M17.1,57c0,0.9,0.3,1.2,1.3,1.2H19v0.3h-5v-0.3h0.6c1,0,1.3-0.3,1.3-1.2v-7.9H13c-0.6,0-0.9,0.4-1.2,1.8h-0.3
		l0.3-2.6h0.3c0,0.1,0.1,0.2,0.2,0.2c0.1,0,0.2,0,0.3,0h7.6c0.2,0,0.5,0,0.5-0.2h0.3l0.3,2.6h-0.3c-0.2-1.4-0.5-1.8-1.2-1.8h-2.8V57
		z"/>
	<path class="st0" d="M35.3,48.5v0.3c-1.1,0-1.4,0.4-1.4,1.5v4.3c0,2-1.3,4.1-4.7,4.1c-3,0-4.6-1.7-4.6-4V50c0-1-0.3-1.2-1.4-1.2
		v-0.3h4.1v0.3h-0.1c-0.9,0-1.3,0.2-1.3,1.2v4.4c0,2.1,1.3,3.4,3.6,3.4c1.8,0,3.6-0.7,3.6-3.5v-3.7c0-1.5-0.2-1.8-1.6-1.9v-0.3H35.3
		z"/>
	<path class="st0" d="M38.2,50.1c0-1-0.3-1.3-1.2-1.3h-0.3v-0.3c0.6,0,1.4-0.1,2.2-0.1c0.9,0,1.8,0,2.7,0c4.2,0,6.1,2.1,6.1,4.8
		c0,2.4-1.9,5.3-5.9,5.3h-5.1v-0.3H37c0.9,0,1.3-0.2,1.3-1.2V50.1z M39.5,57.2c0,0.7,0,0.9,1.3,0.9c2.1,0,3-0.3,4-1.3
		c0.6-0.6,1.3-1.8,1.3-3.4c0-1.2-0.3-2.5-1.3-3.4c-0.7-0.7-1.9-1.3-4.1-1.3c-0.7,0-1.1,0-1.3,0.1V57.2z"/>
	<path class="st0" d="M54.1,58.4h-3.9v-0.3c1,0,1.2-0.3,1.2-1.4V50c0-0.9-0.3-1.1-1.2-1.1v-0.3h3.9v0.3c-1,0-1.4,0.2-1.4,1.3v6.7
		c0,0.9,0.3,1.3,1.4,1.3V58.4z"/>
	<path class="st0" d="M63.2,54.8h-0.3c-0.1-1.1-0.4-1.3-1.1-1.3h-2.7V57c0,0.7,0.3,0.9,0.9,0.9h2.5c1.1,0,1.4-0.4,1.8-1.8h0.3
		l-0.3,2.4h-8.4v-0.3h0.4c1.3,0,1.5-0.3,1.5-1.3v-6.7c0-0.9-0.2-1.3-1.3-1.3h-0.4v-0.3h7.6l0.1,2.2h-0.3c-0.2-1.4-0.6-1.6-1.2-1.6
		h-3.4V53H62c0.6,0,0.8-0.3,0.9-1.2h0.3V54.8z"/>
	<path class="st0" d="M67.3,56c0.3,1.4,1.4,2.2,2.7,2.2c1.1,0,2.2-0.6,2.2-1.9c0-2.3-5.1-3-5.1-5.8c0-1.3,1.2-2.3,2.8-2.3
		c1.3,0,1.6,0.4,2.2,0.4c0.1,0,0.2,0,0.3-0.2h0.3l0.3,2h-0.3c-0.4-1.1-1.5-1.9-2.6-1.9c-1.1,0-1.8,0.6-1.8,1.5
		c0,2.3,5.1,2.9,5.1,5.8c0,1.6-1.4,2.7-3.2,2.7c-0.9,0-2-0.4-2.2-0.4c-0.1,0-0.3,0.1-0.3,0.2h-0.3L67,56H67.3z"/>
</g>
</svg>
