<?xml version="1.0" encoding="utf-8"?>
<!-- Generator: Adobe Illustrator 19.2.1, SVG Export Plug-In . SVG Version: 6.00 Build 0)  -->
<svg version="1.1" id="Layer_1" xmlns="http://www.w3.org/2000/svg" xmlns:xlink="http://www.w3.org/1999/xlink" x="0px" y="0px"
	 viewBox="0 0 1339.4 282" style="enable-background:new 0 0 1339.4 282;" xml:space="preserve">
<style type="text/css">
	.st0{fill:url(#SVGID_1_);}
	.st1{fill:#CCCCCC;}
	.st2{fill:#FFD520;}
	.st3{fill:#E03A3E;}
	.st4{stroke:#000000;stroke-width:0.2;}
</style>
<g>
	<g>
		<g>
			
				<radialGradient id="SVGID_1_" cx="696.4382" cy="764.4294" r="103.0188" gradientTransform="matrix(0.8911 0 0 0.8911 -476.2707 -543.8414)" gradientUnits="userSpaceOnUse">
				<stop  offset="0" style="stop-color:#FFFFFF"/>
				<stop  offset="0.5149" style="stop-color:#FDFDFD"/>
				<stop  offset="0.7003" style="stop-color:#F6F6F6"/>
				<stop  offset="0.8325" style="stop-color:#EBEBEB"/>
				<stop  offset="0.9387" style="stop-color:#DADADA"/>
				<stop  offset="1" style="stop-color:#CCCCCC"/>
			</radialGradient>
			<path class="st0" d="M144.3,229.1c-50.6,0-91.8-41.3-91.8-91.8s41.3-91.8,91.8-91.8s91.8,41.3,91.8,91.8S194.9,229.1,144.3,229.1
				z"/>
		</g>
		<g>
			<path class="st1" d="M144.3,229.1c-50.6,0-91.8-41.3-91.8-91.8s41.3-91.8,91.8-91.8s91.8,41.3,91.8,91.8S194.9,229.1,144.3,229.1
				z M144.3,46.8c-50,0-90.4,40.7-90.4,90.4c0,50,40.7,90.4,90.4,90.4c50,0,90.4-40.7,90.4-90.4S194.3,46.8,144.3,46.8z"/>
		</g>
		<path class="st2" d="M235.6,135.3c0,0.3-1.6,1.6-3.3,2.7l0,0c-2.5,1.4-5.7,2.5-9.8,3.6c-4.4,1.1-9.6,2.2-15.3,3
			s-12.3,1.6-19.1,2.2l0,0c-8.7,0.8-14.5,1.1-21.6,1.4c-7.4,0.3-15.3,0.5-23.2,0.5c0,1.1,0,1.9,0,3c0,7.1,0,13.9,0,20.2
			c0.3,35,0.3,35,1.4,56.3c50.3,0,91.3-40.7,91.3-91.3C235.6,137.2,235.6,135.9,235.6,135.3z"/>
		<g>
			<path d="M143,152c0,7.1,0,13.9,0,20.2c14.5,13.9,14.5,13.9,20.8,19.9c1.6-11.5,2.5-25.4,2.5-40.7c0-1.1,0-1.9,0-3
				c-9.3,0.3-15.3,0.5-23.2,0.5C143,149.8,143,150.9,143,152z"/>
			<path d="M176.6,207.7c-3.3-5.2-6-8.5-12.6-15.6c-3,22.1-8.7,35.8-15.3,36.1c0.5,0,1.4,0,1.9,0c0.8,0,1.6,0,2.5-0.3
				C162.1,227.2,170.3,220,176.6,207.7z"/>
			<path d="M186.7,170.6c0,0-5.2,27.3-10.1,37.2c2.7,5.5,3,7.7,1.9,11.2c8.7-6.8,16.1-16.9,21-29.5
				C196.3,183.2,194.1,179.6,186.7,170.6z"/>
			<path d="M160.7,227.2c1.9-0.3,1.9-0.3,5.5-1.1l2.2-0.5c6.8-2.2,7.9-3.3,10.1-6.3c-6,4.6-12.3,7.4-19.7,8.5L160.7,227.2z"/>
			<path d="M201.2,204.7c13.1-14.8,21-35.8,21-59.8c0-1.1,0-1.9,0-3c-4.4,1.1-9.6,2.2-15.3,3c0,1.1,0,1.9,0,3
				c0,15.6-2.7,29.8-7.4,41.8C202.3,196.5,202.3,199.6,201.2,204.7z"/>
			<path d="M187.8,146.8c-8.7,0.8-14.5,1.1-21.6,1.4c12.6,13.1,15,16.1,20.5,22.1c0.8-6.6,1.1-13.4,1.1-20.5
				C187.8,149,187.8,147.9,187.8,146.8z"/>
		</g>
		<path d="M124.4,50.9c5.2-2.2,9.8-4.1,19.7-4.6l0,0C137.5,46.8,130.7,48.7,124.4,50.9"/>
		<g>
			<path class="st3" d="M205.5,144.6c-4.6-0.5-8.7-8.7-6.6-16.9c-6.6,4.6-14.2-4.9-13.1-13.7c0.5-4.6,3.6-8.7,9-6.8
				c-2.2-7.4-4.9-14.5-7.9-20.8c-4.6,0.5-9.8,1.1-15.3,1.4c4.9,7.4,0,14.2-6.8,13.1c-4.9-0.8-9.6-6-8.2-12
				c-4.1,2.7-12.3,1.6-12.8-7.1c-0.3,18.6-0.3,42.4-0.3,66.9c24.3,0.3,52.7-2.5,63.9-4.1l0,0C206.4,144.9,205.8,144.9,205.5,144.6z"
				/>
		</g>
		<g>
			<path class="st3" d="M85.6,162.9c6.8-2.7,15.3,9,12.3,16.9c-1.4,3.6-4.9,4.6-8.7,2.5c1.9,6.8,4.6,13.1,7.7,18.6
				c4.9,0.5,10.1,1.1,16.1,1.6c-4.6-5.7-0.8-10.7,5.5-10.4c5.5,0.3,12.6,4.6,10.9,10.9c4.9-2.2,13.1-0.3,14.2,6
				c-0.3-13.7-0.3-33.6-0.5-57.4c0-1.1,0-1.9,0-3c-7.7,0-15.6-0.3-23.2-0.5c-16.4-0.5-27.6-1.6-41.5-4.1l0,0
				C85.3,146.8,87.2,157.2,85.6,162.9z"/>
		</g>
		<path class="st3" d="M187.5,79L187.5,79L187.5,79L187.5,79L187.5,79C187.5,79,187.8,79,187.5,79c1.1-0.3,1.9-0.3,2.7-0.5
			c5.2-1.1,16.9-3.8,16.9-7.4c0,0,4.6,4.6,7.9,11.2c0.3,0.8,0.5,1.4,1.1,2.5c0.3,1.1,0.5,2.5,0.5,3c-0.3,1.9-1.4,1.9-2.7,1.4
			c-0.3,0-0.3,0-0.5-0.3c-4.6-2.2-6.3-6.3-7.1-8.2c-2.5,0.8-6.3,2.5-9.6,3c-0.3,0-1.1,0.3-1.4,0.3c3.8,6.3,7.7,13.9,10.1,21.3
			c4.6-4.6,11.7,4.1,12,12.6c0.3,4.9-1.9,9.3-6.6,7.9c3.6,6.8,2.5,16.7-4.4,18.9C205.8,122.8,202,103.1,187.5,79L187.5,79L187.5,79"
			/>
		<path class="st3" d="M187.5,79L187.5,79L187.5,79L187.5,79L187.5,79C176,61.2,166.7,55,155,50.3c-2.5-0.8-10.4-4.1-10.7-4.1l0,0
			l0,0c2.2,3,6.3,4.9,7.1,5.2c-0.3,1.1,0,3.3,3.8,6c0.5,0.5,1.1,0.8,1.6,1.1c6,3,7.1,0.8,7.4-0.3l0,0c1.9,1.4,5.2,4.1,9.3,8.5
			c2.2,2.7,4.4,4.9,6,7.4c-3.6,0.5-8.5,0.8-13.4,1.4c-0.3-5.7-4.4-8.7-7.1-9.6c-5.7-2.2-7.7,4.6-5.2,9.3c-4.6-2.5-10.1-0.3-10.7,6.8
			C161.3,81.8,173.9,81,187.5,79L187.5,79L187.5,79"/>
		<path class="st3" d="M188.6,62.7c0,0,0-0.3,0-0.5c0-0.3,0.3-0.5,0.3-0.5s0-0.3,0.5-0.5c0.8-0.5,3.6-0.8,11.2,4.4
			c-15.8-12.3-32.8-17.5-47.3-18.9c-1.9-0.3-5.7-0.3-5.7-0.3c4.6,0.3,7.7,1.6,8.5,1.9c0.5,0.3,1.1,0.5,1.4,0.8l0,0
			c0.8,0,1.9,0.3,3.3,0.5c1.4,0.2,3.8,1.4,5.7,2.2c2.2,1.1,5.2,3.3,5.2,4.4c-0.5,0.3-0.5,0.3-1.9,0c5.5,3.8,13.1,11.2,17.8,16.4
			c3-0.5,7.9-1.4,10.1-1.9C197.1,70.8,190.2,65.7,188.6,62.7z"/>
		<path class="st3" d="M96,206.1c-7.9-1.4-12.3-2.5-15.3-4.1c-0.5-0.3-0.5-0.3-0.8-0.3c0,0-4.4-4.4-8.2-9.6
			c-2.7-3.6-5.2-7.7-5.5-8.2c0,0,0.5,0,1.1,0c4.1,1.4,10.4,12.6,10.7,12.6c2.5,0.8,5.7,1.9,9.8,2.7c-3.8-5.7-6.8-12-9.3-18.9
			c-5.7,3-12.8-12-10.7-18.6c0.5-1.4,1.9-4.1,5.7-1.1c-3-6.6-2.2-16.7,4.9-16.7C78.5,166.5,81.5,185.6,96,206.1"/>
		<path class="st3" d="M143.2,210.5c-0.8,3.3-5.2,6.3-11.5,3.6c3,3.8,0.3,7.1-4.6,6.3c-4.1-0.8-8.7-3.8-9-7.1
			c-4.9-0.3-9.6-0.8-13.4-1.4c3.8,4.4,8.2,8.2,12.6,10.7c0.5-0.3,1.4-0.3,4.1,0.8c3.6,1.1,6.8,2.7,10.4,4.1H131
			c-2.7-0.3-3.3-0.5-4.6-0.8c-6.8-1.4-18.3-5.2-30.1-20.5l0,0l0,0l0,0c14.2,2.2,27.9,3,47.5,3.3
			C143.5,209.7,143.5,210.2,143.2,210.5"/>
		<path class="st2" d="M144.3,46.3c-48.9,0-89.9,39.9-91,89.4l0,0c0,0.3,0.5,1.1,2.5,2.2l0,0l0,0c1.9,1.1,4.6,2.5,8.5,3.6
			c4.6,1.1,9.6,2.2,13.9,3l0,0c13.7,2.5,24.9,3.3,41.5,4.1c7.7,0.3,15.6,0.5,23.2,0.5c0-4.6,0-31.2,0.3-56.6c0-3.3,0-6.8,0-10.1
			C143.5,65.4,143.8,48.4,144.3,46.3L144.3,46.3z"/>
		<path d="M187.8,217.3c-5.2,3-6.3,3-13.1,5.7c-1.9,0.8-3.8,1.4-5.7,1.9c12.3-3.3,29-16.9,32-20.5c-1.4,3.3-2.7,5.5-6.3,8.5
			C193.8,214,189.4,216.5,187.8,217.3z"/>
		<path d="M64.3,141.3c-3.8-0.8-6.6-2.2-8.5-3.6c1.1-33.1,19.4-62.3,45.9-78.2c-6.3,5.7-9,9-12.3,16.4
			C74.4,93.3,64.8,116.5,64.3,141.3"/>
		<path d="M101.7,59.6c6.6-4.9,10.4-8.5,21-10.9c7.4-1.9,13.9-2.5,21.3-2.5l0,0C128.8,46.8,114.3,52,101.7,59.6"/>
		<path d="M97.1,146.8c-6.6-0.5-12.8-1.6-18.6-2.5c0.3-16.4,3.8-32.2,9.8-46.5c2.2,9.3,4.4,14.2,10.7,25.1
			C97.9,130.7,97.1,138.6,97.1,146.8"/>
		<path d="M143.2,82.1c0,10.1-0.3,20.2-0.3,28.4c0,7.9,0,13.7,0,14.8c-9-9.3-13.7-14.8-20.2-23c4.4-28.4,12.3-50.8,21.6-55.7l0,0
			l0,0C143.8,48.7,143.5,64.8,143.2,82.1z"/>
		<g>
			<path d="M111.3,81c-5.7,12-10.1,26.5-12.3,42.1c5.5,8.2,9,13.1,20.2,25.1c0-16.4,1.4-32,3.6-46.5C116.2,93,114,88.6,111.3,81z"/>
		</g>
		<path d="M232.1,138.1c0,1.1,0,1.9,0,3c0,32.2-15.6,59-40.2,73.8l-0.5,0.5c11.5-7.1,26.2-19.1,35.5-39.1
			c9.8-19.7,8.7-41.3,8.7-41.3C235.1,136.2,233.4,137.2,232.1,138.1z"/>
		<g>
			<path d="M124.4,50.9C111,56.1,99.3,65.1,89.4,76c-2.7,8.2-2.7,12.8-1.4,21.9c6-13.9,14.2-25.7,24-34.7
				C115.1,58,117,54.7,124.4,50.9z"/>
		</g>
		<path d="M111.3,81c-1.6-7.4-1.9-11.2,0.8-17.8c9.6-8.7,20.5-15.3,32.2-17.2C131.5,49.5,119.7,62.9,111.3,81"/>
	</g>
	<g>
		<g>
			<path d="M43,77.7l-7.4-3.8c-1.6-0.8-1.9-1.6-1.1-3.6V70l-1.1-0.5l-3.6,7.1l1.1,0.5v-0.3c0.8-1.4,1.1-1.9,1.9-1.9
				c0.5,0,1.1,0.3,2.2,0.8l6.6,3.3c4.6,2.5,4.1,6.3,2.7,9c-1.4,2.7-3.3,4.1-5.5,4.1c-1.1,0-2.2-0.3-3.3-0.8l-7.7-3.8
				c-1.4-0.8-1.6-1.4-0.8-2.7l0.3-0.5l-1.1-0.5l-3.8,7.7l1.1,0.5v-0.3c0.5-1.4,1.1-1.6,1.6-1.6c0.3,0,0.8,0,1.4,0.5l8.2,4.1
				c1.1,0.5,2.5,0.8,3.6,0.8c3,0,5.7-1.9,7.7-5.5C49.2,83.7,46.5,79.6,43,77.7z"/>
			<path d="M52.5,48.4c0-0.5,0.3-1.1,1.1-1.9l0.3-0.3l-0.8-0.8l-4.9,6l0.8,0.8l0.3-0.3c1.1-1.1,1.6-1.6,1.9-1.6s0.8,0.3,1.4,0.8
				l9,7.4l-20.5,1.4L37.8,64l0.8,0.8l0.3-0.3c0.5-0.8,1.4-1.1,1.9-1.4l11.5,9.8c0.8,0.8,1.1,1.4,0,3h-0.5l0.8,0.8l4.9-6l-0.8-0.8
				l-0.3,0.3c-0.8,1.1-1.4,1.6-1.9,1.6l0,0c-0.5,0-0.8-0.3-1.6-0.8l-9.6-8.2L66,61.4l0.8-0.8L53.4,49.4
				C52.8,48.7,52.5,48.7,52.5,48.4z"/>
			<path d="M76.3,50.4c-0.8,0.5-1.4,0.8-1.6,0.8c-0.5,0-0.8-0.3-1.6-1.1L64.6,40c-1.4-1.4-1.1-2.2,0.3-3.3l0.3-0.3l-0.8-0.8
				l-6.3,5.2l0.8,0.8l0.3-0.3c0.5-0.5,1.1-0.8,1.4-0.8c0.5,0,0.8,0.3,1.4,0.8l8.5,10.1c1.4,1.4,1.4,1.9,0,3.3L70.2,55l0.8,0.8
				l6.3-5.2L76.3,50.4L76.3,50.4z"/>
			<path d="M88.3,22.2L88.3,22.2L88,21.1l-6.6,3.8l0.5,1.1l0.3-0.3c1.1-0.5,1.6-0.8,2.2-0.8c0.3,0,0.5,0,0.5,0.5
				c0.3,0.3,0.3,0.8,0.5,1.9l2.2,12.8l-11.2-8.7c-0.5-0.3-0.5-0.5-0.5-0.8c0-0.5,0.8-1.1,1.9-1.9l0.3-0.3l-0.5-1.1l-7.9,4.6l0.5,1.1
				h0.3c0.5-0.3,1.1-0.5,1.4-0.5c0.5,0,1.1,0.3,1.9,1.1l14.5,11.2l1.6-1.1l-3-17.8C86.7,23.8,87,22.8,88.3,22.2z"/>
			<path d="M113.5,27.1L113.5,27.1c0.3,3-0.3,3.8-2.2,4.4l-4.6,1.6c-0.3,0-0.5,0.3-0.8,0.3c-0.3,0-0.5-0.3-1.1-1.1l-2.2-6l4.6-1.6
				c0.3,0,0.5-0.3,0.8-0.3c0.5,0,0.8,0.3,1.6,1.6v0.3l1.1-0.3l-2.2-6l-1.1,0.3v0.3c0.5,1.6,0,2.2-0.8,2.5l-4.9,1.6l-2.2-6.6l6-1.9
				c0.3,0,0.5,0,0.5,0c0.5,0,1.1,0.3,2.2,2.2v0.3l1.1-0.3l-1.9-4.4l-14.5,4.9l0.3,1.1l0.8-0.3c0.5-0.3,0.8-0.3,1.4-0.3
				c0.8,0,1.1,0.5,1.6,1.6l4.4,12.3c0.3,0.8,0.3,1.4,0.3,1.9c-0.3,0.5-0.8,0.8-1.9,1.1l-1.1,0.3l0.3,1.1l16.1-5.5l-0.5-5.5
				L113.5,27.1z"/>
			<path d="M143.2,27.1c-2.2,0-4.1-0.5-6.3-2.2l-2.7-2.2c-1.4-1.1-2.5-1.9-3.6-2.5c2.2-1.1,3.6-3.3,3.3-5.5
				c-0.5-3.6-3.8-5.5-9.3-4.6c-1.9,0.3-2.7,0.3-3.8,0.5c-0.3,0-0.8,0.3-1.4,0.3c-1.1,0.3-2.2,0.3-2.5,0.5h-0.3v1.1h0.8
				c0.3,0,0.5,0,0.5,0c0.8,0,1.4,0.3,1.6,1.9l1.6,12.8c0.3,1.9-0.3,2.5-1.9,2.5h-0.8l0.3,1.1l9.3-1.1l-0.3-1.1h-1.1
				c-0.3,0-0.5,0-0.8,0c-1.1,0-1.6-0.3-1.6-1.9l-0.5-4.9c0.3,0,0.8,0,1.4,0c0.8,0,1.4-0.3,1.9-0.3l0,0c0.5,0.3,1.6,1.1,3.3,2.2
				l2.2,1.9c3,2.5,4.6,3.6,10.1,2.5h0.3L143.2,27.1L143.2,27.1z M130.7,15.1c0.3,1.6,0,2.7-0.8,3.6c-0.8,1.1-2.2,1.6-4.1,1.9h-0.6
				c-0.5,0-0.8,0-1.1,0L123,11c0.5,0,0.8,0,1.4-0.3C128.2,10.5,130.1,11.8,130.7,15.1z"/>
			<path d="M154.7,17.3c-2.2-1.6-4.1-3-4.1-4.9c0-1.6,1.4-2.5,3.3-2.5c1.9,0.3,3.8,1.6,4.4,3.8V14h1.1l-0.3-4.4h-0.8l0,0
				C158,9.9,158,9.9,158,9.9l0,0c-0.3,0-0.5-0.3-1.1-0.3c-0.5-0.3-1.4-0.5-3-0.8c-3.3-0.3-6,1.6-6,4.4c-0.3,3,2.5,4.9,4.9,6.8
				c2.2,1.6,4.4,3.3,4.1,5.2c-0.3,2.2-2.5,3.3-4.4,3c-2.5-0.3-4.1-1.9-4.6-4.6v-0.3h-1.1l0.3,5.2h0.8l0,0c0,0,0.3-0.3,0.5-0.3l0,0
				c0,0,0.5,0.3,0.8,0.3c0.8,0.3,2.2,0.8,3.3,0.8c0.3,0,0.5,0,0.8,0l0,0c3.6,0,6-2.2,6.3-4.9C159.9,21.1,157.2,18.9,154.7,17.3z"/>
			<path d="M167.8,11.8L167.8,11.8c1.9,0.5,2.2,1.1,1.9,2.5L167,27.1c-0.3,1.6-0.8,1.9-1.6,1.9c-0.3,0-0.5,0-0.8,0h-0.3l-0.3,1.1
				l7.9,1.6l0.3-1.1h-0.3c-1.1-0.3-1.6-0.5-1.9-0.8s-0.3-0.8,0-1.6l2.7-12.8c0.3-1.6,0.8-1.9,1.6-1.9c0.3,0,0.5,0,1.1,0.3h0.3
				l0.3-1.1l-7.9-1.6L167.8,11.8z"/>
			<path d="M199.8,20.6C199.5,20.6,199.5,20.6,199.8,20.6c-0.3,0-0.5,0-0.8,0l-13.9-5.5c-0.3,0-0.3-0.3-0.5-0.3v-0.2v-0.3l-1.1-0.3
				l-2.5,4.9l1.1,0.3v-0.3c1.1-1.6,1.6-2.5,2.5-2.5c0.3,0,0.3,0,0.5,0.3l4.6,1.9l-5.5,14c-0.5,1.1-0.8,1.4-1.4,1.4
				c-0.3,0-0.8,0-1.4-0.3l-1.4-0.5l-0.5,1.1l9.6,3.8l0.3-1.1l-1.4-0.5c-0.8-0.3-1.4-0.5-1.4-1.1c-0.3-0.3,0-0.8,0.3-1.6l5.5-13.9
				l4.6,1.9c0.8,0.3,1.4,1.1,0.5,3.8v0.3l1.1,0.3l1.6-5.5L199.8,20.6L199.8,20.6z"/>
			<path d="M218.1,33.1L218.1,33.1c1.1,0.8,1.4,1.1,1.4,1.4c0,0.3-0.3,0.5-1.1,0.8l-7.4,3.6v-8.7c0-1.4,0.3-1.4,0.5-1.4
				s0.8,0.3,1.6,0.8l0.3,0.3l0.5-0.8l-7.4-4.9L206,25l0.3,0.3c1.6,1.1,1.9,1.6,1.9,4.6L207.9,40l-2.5,3.6c-0.8,1.4-1.6,1.4-3,0.3
				l-0.8-0.5l-0.5,0.8l7.4,4.9l0.5-0.8l-0.5-0.3c-0.8-0.5-1.1-0.8-1.1-1.4c0-0.5,0-0.8,0.5-1.6l2.5-3.8l9-4.4
				c0.8-0.3,1.4-0.5,2.2-0.5s1.4,0.3,2.2,0.8h0.3l0.5-0.8l-6.3-4.1L218.1,33.1z"/>
			<path d="M247.9,59.6c-2.5-3-5.7-4.9-9.3-4.9c-2.2,0-4.4,0.8-6.6,2.2c-4.4,3.6-4.9,9.8-1.1,15c2.2,3,5.5,4.6,9,4.6l0,0
				c2.5,0,4.6-0.8,6.6-2.2C251.2,71.1,251.7,64.6,247.9,59.6z M248.2,65.9c-0.3,2.5-1.9,4.6-4.1,6.6c-1.9,1.4-3.8,2.2-5.7,2.2
				c-2.2,0-4.1-0.8-5.2-2.7c-3-3.8-1.9-9.3,2.5-12.6c1.6-1.4,3.8-2.2,5.7-2.2c2.2,0,4.1,0.8,5.5,2.7
				C247.9,61.6,248.4,63.7,248.2,65.9z"/>
			<path d="M258.3,76l-1.1,0.5v0.3c0.8,1.6,0.3,2.2-1.4,3L244.9,85c-1.1,0.5-1.6,0.5-1.9,0.5c-0.5,0-0.8-0.3-1.4-1.4v-0.3l-1.1,0.5
				l3.6,7.4l1.1-0.5v-0.3c-0.5-1.1-0.5-1.6-0.5-1.9s0.5-0.5,1.4-1.1l5.7-2.7l2.5,4.9c0.5,1.1,0.5,1.9-1.1,2.7h-0.3l0.5,0.8l5.5-2.5
				l-0.5-0.8h-0.3c-1.1,0.5-1.9,0.3-2.2-0.5l-2.5-5.2l6-3l2.5,5.2c0.8,1.6,0.5,2.2-1.1,3h-0.3l0.5,1.1l3.8-1.9L258.3,76z"/>
		</g>
		<path d="M36.7,214.6l11.2-20.5l0,0l-15,9.6c-1.6,1.1-1.1,2.5-0.3,4.1l-0.5,0.5l-4.9-6.6l0.5-0.5c1.6,2.5,2.5,2.2,5.5,0.3l13.1-8.2
			c2.2-1.4,2.7-1.9,1.4-3.8l0.5-0.5l3.6,4.9l-10.7,19.4l21.6-4.1l3.3,4.6l-0.5,0.5c-1.4-1.4-1.6-2.2-2.7-1.1l-13.7,11.5
			c-2.7,2.5-2.7,2.5-0.8,4.9l-0.5,0.5l-6-8.2l0.5-0.5c1.1,1.6,2.5,2.7,4.1,1.4l13.7-11.2l0,0l-23,4.4L36.7,214.6z"/>
		<path d="M75.8,235.9l-5.5-4.1l8.2-5.5L75.8,235.9z M75.5,237.8l-2.2,7.4c0,0.5-0.3,1.1-0.5,1.6c-0.5,0.8-1.4,0.5-3.3-0.8l-0.8-0.5
			l-0.5,0.5l8.7,6.6l0.5-0.5c-1.6-1.1-1.9-1.9-1.4-4.1l6.3-22.7l-2.7-1.9l-0.3,0.8l-17.5,11.4c-3,1.9-3.6,2.2-5.7,0.5l-0.5,0.5
			l7.4,5.5l0.5-0.5l-0.5-0.3c-1.6-1.4-2.5-2.2-1.6-3c0.3-0.5,1.4-1.1,2.2-1.6l5.5-3.6L75.5,237.8z"/>
		<path d="M100.6,237.3c0.8,0.3,1.1,0.3,1.9,0.5c5.7,2.2,6.3,5.2,5.2,8.7c-1.6,4.4-4.9,5.2-9,3.8c-0.8-0.3-1.4-0.5-2.2-0.8
			L100.6,237.3z M96.2,250.1c0.5,0.3,1.1,0.5,1.9,0.8c1.1,0.3,1.6,0.5,2.5,0.8c0.5,0.8,1.6,2.5,2.7,4.6l1.6,3.3
			c2.2,4.4,3.3,6.6,9.8,8.5l0.3-0.5c-2.7-1.1-4.6-3.3-6-6.3l-1.9-4.1c-1.1-2.5-1.9-3.8-2.7-5.5c3.3,0.3,6-1.4,7.1-4.4
			c1.4-3.8-0.8-7.7-7.7-10.1c-2.5-0.8-3.3-1.1-4.6-1.6c-1.6-0.5-3.8-1.1-4.6-1.4l-0.3,0.8l0.8,0.3c2.2,0.8,2.5,1.6,1.6,4.1L91.2,255
			c-0.8,2.5-1.9,2.7-4.1,1.9l-0.5-0.3l-0.3,0.8l10.7,3.8l0.3-0.8l-0.8-0.3c-2.2-0.8-2.7-1.6-1.9-3.8L96.2,250.1z"/>
		<path d="M141.1,249.3c1.4-2.2,0.8-2.7-1.6-3v-0.8l9,0.8v0.8c-2.7,0-3.8,0.8-5.2,2.7l-7.4,10.4l-0.5,6c-0.3,2.2,0.5,3,3,3.3h0.5
			v0.8l-10.9-0.8v-0.8h0.8c2.5,0.3,3.3-0.5,3.3-2.5l0.5-5.5l-6-11.5c-1.6-3.3-2.5-3.8-5.2-4.1v-0.8l10.4,0.8v0.8
			c-3-0.3-3.3,0.5-2.2,2.5l5.5,10.4L141.1,249.3z"/>
		<path d="M173.9,267l-17.5,3v-0.8l1.4-0.3c1.9-0.3,2.5-1.1,1.9-3l-3-17.2c-0.3-2.2-1.1-2.7-3.6-2.5h-0.5v-0.8l11.5-1.9v0.8
			l-1.4,0.3c-2.5,0.5-3.3,0.8-2.7,3.3l3,18c0.3,1.1,0.5,1.4,1.9,1.1l5.7-1.1c2.2-0.3,2.7-1.4,4.6-5.2h0.8L173.9,267z"/>
		<path d="M192.7,247.4l-6.3,2.7l-0.5-9.8L192.7,247.4z M194.1,248.7l5.2,5.7c0.3,0.3,0.8,0.8,1.1,1.4c0.5,1.1-0.3,1.6-2.5,2.5
			l-0.8,0.3l0.3,0.8l10.1-4.1l-0.3-0.8c-1.9,0.8-2.7,0.8-4.4-0.8l-16.1-16.9l-3.3,1.4l0.5,0.5l0.8,20.8c0.3,3.6,0,4.4-2.5,5.2
			l0.3,0.8l8.5-3.6l-0.3-0.8l-0.5,0.3c-1.9,0.8-3,0.8-3.6,0c-0.3-0.5-0.3-1.9-0.3-2.7l-0.3-6.6L194.1,248.7z"/>
		<path d="M236.7,233.4l-29.5-3.6l10.9,13.1c1.9,2.2,2.7,2.2,5.2,0l0.5,0.5l-7.1,5.7l-0.5-0.5l0,0c1.9-1.6,1.9-2.7,0.8-4.1l-12.3-15
			c-1.1,0-2.2,0.5-3.3,1.4l-0.5-0.5l4.9-3.8l26.8,3l-10.1-12c-1.6-1.9-2.5-1.6-4.9,0.3l-0.5-0.5l7.1-6l0.5,0.5
			c-2.2,1.9-2.5,2.7-1.4,3.8l13.9,16.9L236.7,233.4z"/>
		<path d="M231,202.8c0.3-0.5,0.8-1.4,1.6-2.7c3-4.6,5.7-6.3,8.2-6.8c3.3-0.8,6.3,0.3,8.7,1.9c3.6,2.2,4.9,5.5,5.5,7.4
			c0.8,3.3,0.3,5.7-2.7,10.1c-1.6,2.7-2.2,2.5-3.6,1.6L231,202.8z M246.3,216.8c1.9,1.4,1.9,2.5,0.8,4.1l-0.3,0.5l0.5,0.3l6.8-10.7
			c5.5-8.5,1.9-16.1-3-19.4c-5.5-3.6-12.6-2.5-18,6.3c-1.1,1.6-2.5,3.8-3.6,5.7s-2.2,3.6-2.7,4.9l0.5,0.3l0.5-0.5
			c1.4-1.9,2.2-2.2,4.4-0.8L246.3,216.8z"/>
		<path d="M17.5,130.7v16.9c0,0.8,0.3,1.1,1.1,1.1h1.6v0.5h-7.4v-0.5h1.6c0.8,0,1.1-0.3,1.1-1.1v-14.5c-0.8,0.8-2.5,1.9-3.6,2.5
			l-0.3-0.5c1.6-1.1,4.1-3.3,4.9-4.4H17.5z"/>
		<path d="M34.5,145.2c0,2.2-1.6,4.1-3.8,4.1s-3.8-1.9-3.8-4.4c0-1.9,1.1-3.3,3-4.4C33.1,141.9,34.5,143,34.5,145.2z M35.6,134.8
			c0-2.5-2.5-4.1-5.2-4.1c-3,0-5.2,2.2-5.2,4.6c0,1.9,1.4,3.6,4.1,4.6c-2.7,1.1-4.4,2.7-4.4,4.9c0,2.7,2.5,4.9,5.7,4.9
			s5.7-2.5,5.7-5.5c0-2.2-1.4-3.8-4.4-5.2C34.5,138.1,35.6,136.7,35.6,134.8z M33.9,134.8c0,1.6-0.8,3-2.5,4.1
			c-3.8-1.6-4.6-2.7-4.6-4.4c0-1.9,1.6-3.3,3.6-3.3C32.6,131.2,33.9,132.6,33.9,134.8z"/>
		<path d="M252.5,132.6h6.8c0.5,0,0.8,0,0.8-0.3h0.5l-0.3,2.2h-7.4l-0.3,5.2c0.8-0.5,1.9-0.8,3-0.8c3.3,0,6,2.7,6,6
			c0,3.6-3,6.3-6.8,6.3c-2.5,0-4.4-0.8-4.4-1.9c0-0.5,0.5-0.8,0.8-0.8c1.6,0,2.2,1.9,4.1,1.9c2.2,0,4.1-2.2,4.1-4.9
			s-1.9-4.6-4.4-4.6c-1.1,0-2.2,0.5-3,1.1l-0.3-0.3L252.5,132.6z"/>
		<path d="M275,145.7c0,3.3-1.4,5.2-3.6,5.2c-1.9,0-4.1-1.6-4.1-6.6c0-1.1,0-1.4,0.3-1.9c1.9-1.4,3-1.6,3.8-1.6
			C273.3,140.8,275,142.7,275,145.7z M275,132.3c-6,1.6-9.8,6-9.8,11.5c0,4.4,2.5,7.7,6,7.7c3,0,5.7-2.7,5.7-6c0-3-2.2-5.5-5.2-5.5
			c-1.4,0-2.5,0.5-4.1,1.6c0.5-4.4,3-7.1,7.7-9L275,132.3z"/>
	</g>
</g>
<g>
	<path d="M338.9,118.1c2.5,0.3,4.4,0.3,7.4,0.3c3.8,0,6.3-0.3,10.1-0.3c3.6,2.5,8.7,6.8,15,13.7l9.8,10.1
		c13.1,13.7,19.7,19.7,45.4,18.3v-2.7c-11.2-0.8-20.2-6.6-29-15.6l-11.7-12.3c-6.8-7.4-11.5-11.5-16.7-16.1
		c12-3.8,19.7-13.4,19.7-25.1c0-15.8-12.3-27.6-39.3-27.6c-9.6,0-12.6,0.3-18.6,0.5s-15,0.8-18.6,0.8v3h3.3
		c8.5,0,10.9,2.7,10.9,12.3v65c0,10.4-3,12.8-11.7,12.8h-2.5v3h41.5v-3h-3.3c-8.2,0-11.7-2.2-11.7-11.5V118.1L338.9,118.1z
		 M338.9,64.3c2.7-0.3,4.6-0.3,7.4-0.3C369,64,375,75.2,375,89.7c0,18.6-10.7,26-27.1,26c-3.3,0-5.5,0.3-9-0.3V64.3z"/>
	<path d="M470.6,111c0-17.2-14.5-29.2-31.4-29.2c-19.1,0-32.8,13.4-32.8,32.2c0,17.8,14.8,29.5,32.5,29.5
		C456.1,143.5,470.6,130.1,470.6,111 M462.4,114c0,13.4-7.1,27.1-21.6,27.1s-26-12.6-26-30.3c0-11.5,6.3-27.1,22.1-27.1
		C451.8,84,462.4,96.5,462.4,114"/>
	<path d="M499.3,115.7h12.6c13.7,0,20.8,9.8,20.8,19.1c0,9.6-4.4,19.7-19.9,19.7c-9.8,0-13.4-3.3-13.4-12.6L499.3,115.7L499.3,115.7
		z M489.7,145.4c0,7.7-1.9,10.1-11.5,10.1h-2.7v2.5h42.9c18.9,0,25.4-13.7,25.4-23.5c0-9.6-6.6-16.9-17.5-20.5v-0.3
		c7.9-1.4,13.1-7.9,13.1-15c0-6-2.2-10.1-7.1-13.7c-4.1-3.3-13.1-4.9-23.5-4.9c-2.2,0-11.2,0-17.5,0.3c-3.3,0-11.5,0.5-14.8,0.8v2.2
		h4.1c8.2,0,9,3.8,9,10.9L489.7,145.4L489.7,145.4z M499.3,82.9c3,0,7.7-0.3,10.4-0.3c14.5,0,19.4,7.9,19.4,16.4
		c0,9.6-5.7,14.2-16.9,14.2h-12.8L499.3,82.9L499.3,82.9z"/>
	<path d="M599.9,130.1h-2.2c-0.8-8.7-3.3-9.8-7.9-9.8h-19.7v26.2c0,5.7,1.9,6.8,6.3,6.8h18c8.2,0,10.7-3.3,13.7-13.9h2.2l-1.9,18.3
		h-62v-2.5h3.3c9.3,0,10.9-2.7,10.9-10.1V93.2c0-6.8-1.6-9.8-9.3-9.8h-2.5v-2.5h56l0.8,16.9h-2.2c-1.6-10.4-4.4-12.6-8.7-12.6h-24.6
		v30.3h20.8c4.1,0,6.3-2.2,6.8-9.3h2.2L599.9,130.1L599.9,130.1z"/>
	<path d="M638.4,125.5c1.9,0.3,3.3,0.3,6,0.3c3.3,0,4.9,0,7.9-0.3c2.7,1.9,6.8,5.5,12,10.9l7.7,8.2c10.4,10.9,15.6,15.6,36.1,14.5
		v-2.2c-9-0.5-16.1-5.2-23-12.3l-9.3-9.6c-5.5-5.7-9-9.3-13.4-12.8c9.6-3,15.6-10.7,15.6-19.9c0-12.6-9.6-21.9-31.4-21.9
		c-7.7,0-9.8,0-14.8,0.3c-4.6,0.3-12,0.8-14.8,0.8V84h2.5c6.8,0,8.7,2.2,8.7,9.8v51.9c0,8.2-2.5,10.1-9.3,10.1h-1.6v2.5h33.1v-2.5
		h-2.7c-6.6,0-9.3-1.9-9.3-9.3V125.5L638.4,125.5z M638.4,82.9c2.2-0.3,3.6-0.3,5.7-0.3c18,0,23,8.7,23,20.2
		c0,14.8-8.5,20.5-21.6,20.5c-2.7,0-4.4,0-7.4-0.3V82.8h0.3V82.9z"/>
	<path d="M731.8,146.5c0,6.6,2.2,9,9.3,9h4.4v2.5h-36.9v-2.5h4.4c7.1,0,9.3-2.5,9.3-9V85.6h-20.5c-4.6,0-6.8,2.7-8.5,13.7h-2.2
		l1.9-19.9h2.2c0,0.8,0.5,1.1,1.4,1.4c0.8,0.3,1.6,0.3,2.5,0.3h56.3c1.6,0,3.3-0.3,3.6-1.9h2.2l1.9,19.9h-2.2
		c-1.6-10.9-3.8-13.7-8.5-13.7h-20.2v61.2L731.8,146.5L731.8,146.5z"/>
	<path d="M819.3,112.7v29.2c0,10.1,1.9,13.7,11.7,13.7h0.5v3h-36.9v-3h0.8c8.7,0,11.7-2.5,11.7-11.2V76.1c0-7.9-2.5-10.4-10.7-10.9
		v-3h35v3c-10.4,0-12.3,3-12.3,14.8v26.8h57.4V76.5c0-8.2-2.5-11.2-11.5-11.2h-2.7v-3h37.9v3c-8.7,0.3-11.2,3-11.2,12.6v64.2
		c0,10.9,3,13.4,11.7,13.4h1.4v3h-41.5v-3h4.6c9.6,0,11.5-3.6,11.5-11.5v-31.4h-57.4V112.7z"/>
	<path d="M931.6,153.6c0,3.6-2.7,5.7-6,5.7s-6-2.5-6-5.7c0-3.6,2.5-5.7,6-5.7C928.9,147.9,931.6,150.1,931.6,153.6"/>
	<path d="M959.7,135.1c3,13.7,13.4,21.9,24.9,21.9c9.8,0,20.2-6,20.2-18.3c0-22.4-47.3-29-47.3-56c0-12.8,11.2-22.4,26.2-22.4
		c12.3,0,14.8,3.8,19.9,3.8c1.1,0,1.6-0.3,2.7-1.6h2.5l2.5,19.7h-2.5c-4.1-11.2-13.4-18.3-23.5-18.3c-9.6,0-16.4,6-16.4,14.5
		c0,21.9,47.3,27.9,47.3,56.3c0,15-12.8,26.5-30.1,26.5c-8.2,0-18.3-4.1-20.5-4.1c-1.4,0-2.5,0.8-3,1.9h-2.5l-3-23.5h2.5
		L959.7,135.1L959.7,135.1z"/>
	<path d="M1069.3,158l-29.8-65.9h-0.3l-3.3,55.5c-0.3,6.3,4.1,7.7,9.3,7.9v2.5h-24.3v-2.5c8.5,0,9.6-1.9,10.1-13.1l2.7-48.1
		c0.5-8.2,0.3-10.4-7.1-10.9v-2.2h17.8l28.1,62l28.1-62h17.2v2.2c-5.7,0.5-7.9,0.5-7.7,4.9l3.8,55.7c0.8,11.2,1.6,11.2,10.1,11.2
		v2.5h-29.8v-2.5c5.5,0,10.9-1.6,10.4-8.2l-3.3-55.2h-0.3l-29,66.1L1069.3,158L1069.3,158z"/>
	<path d="M1160.3,158h-28.4v-2.5c7.4-0.3,8.7-2.5,8.7-10.7V92.3c0-6.6-2.2-8.5-8.7-8.7v-2.2h28.4v2.5c-7.4,0-9.8,1.6-9.8,9.8v52.2
		c0,7.4,1.9,9.8,9.8,9.8V158z"/>
	<path d="M1207,146.5c0,6.6,2.2,9,9.3,9h4.4v2.5h-36.9v-2.5h4.4c7.1,0,9.3-2.5,9.3-9V85.6h-20.3c-4.6,0-6.8,2.7-8.5,13.7h-2.2
		l1.9-19.9h2.2c0,0.8,0.5,1.1,1.4,1.4c0.5,0.3,1.4,0.3,2.5,0.3h56.3c1.6,0,3.3-0.3,3.6-1.9h2.2l1.9,19.9h-2.2
		c-1.6-10.9-3.8-13.7-8.5-13.7h-20.2v61.2L1207,146.5L1207,146.5z"/>
	<path d="M1262.2,121.4v23.5c0,7.9,1.6,10.9,9.3,10.9h0.3v2.5h-29.5v-2.5h0.8c6.8,0,9.3-1.9,9.3-9V92.4c0-6.3-1.9-8.2-8.5-8.7v-2.2
		h27.9V84c-8.2,0-9.8,2.5-9.8,11.8v21.3h45.9V92.8c0-6.6-1.9-9-9.3-9h-2.2v-2.2h30.1v2.5c-7.1,0.3-9,2.5-9,10.1v51.1
		c0,8.7,2.5,10.7,9.3,10.7h1.1v2.5h-33.1V156h3.6c7.7,0,9.3-2.7,9.3-9.3v-25.1h-45.5V121.4z"/>
</g>
<g>
	<path class="st4" d="M330.7,228.5c1.6,7.4,7.7,11.8,13.9,11.8c5.5,0,11.5-3.3,11.5-9.8c0-12-26.8-15.6-26.8-30.3
		c0-6.8,6.3-12,14.8-12c7.1,0,8.5,2.2,11.2,2.2c0.5,0,1.1-0.3,1.4-0.8h1.4l1.4,10.7h-1.4c-2.5-6-7.7-9.8-13.4-9.8
		c-5.5,0-9.3,3.3-9.3,7.9c0,11.8,26.8,15,26.8,30.3c0,8.2-7.1,14.2-16.9,14.2c-4.6,0-10.4-2.2-11.5-2.2c-0.8,0-1.4,0.5-1.6,0.8h-1.4
		l-1.6-12.6h1.6v-0.4H330.7z"/>
	<path class="st4" d="M425.8,203.1c-2.7-7.7-9.8-12.8-18.9-12.8c-13.9,0-22.7,10.1-22.7,24c0,15,10.9,26.2,23.5,26.2
		c6.6,0,14.8-2.2,20.2-12.3h1.6c-1.1,3.8-3.3,9-5.2,12c-5.2-0.8-9,2.2-18.9,2.2c-16.9,0-29-11.2-29-26.5c0-16.1,12.6-27.9,29.8-27.9
		c10.4,0,15,3.3,17.5,3.3c0.8,0,1.4-0.3,1.4-0.5h1.4l0.8,12h-1.6v0.3H425.8z"/>
	<path class="st4" d="M455.3,216.5v15.8c0,5.5,1.1,7.4,6.6,7.4h0.3v1.6h-20.8v-1.6h0.5c4.9,0,6.6-1.4,6.6-6v-36.6c0-4.4-1.4-5.5-6-6
		v-1.6h19.7v1.6c-6,0-6.8,1.6-6.8,7.9v14.5h32.5v-16.4c0-4.4-1.4-6-6.6-6h-1.6v-1.6H501v1.6c-4.9,0.3-6.3,1.6-6.3,6.8v34.4
		c0,6,1.6,7.1,6.6,7.1h0.8v1.6h-23.5v-1.6h2.5c5.5,0,6.6-1.9,6.6-6.3v-16.9h-32.2v0.3H455.3z"/>
	<path class="st4" d="M544.4,242.5c-16.4,0-30.1-10.4-30.1-26c0-16.7,12.8-28.4,30.3-28.4c15.8,0,29.2,10.7,29.2,25.7
		C574.2,230.7,560.5,242.5,544.4,242.5z M542.7,190.3c-14.8,0-20.5,13.7-20.5,23.5c0,15.6,10.7,26.5,24,26.5
		c13.7,0,19.9-12,19.9-23.8C566.2,201.2,556.4,190.3,542.7,190.3z"/>
	<path class="st4" d="M619.3,242.5c-16.4,0-30.1-10.4-30.1-26c0-16.7,12.8-28.4,30.3-28.4c15.8,0,29.2,10.7,29.2,25.7
		C649,230.7,635.7,242.5,619.3,242.5z M617.6,190.3c-14.8,0-20.5,13.7-20.5,23.5c0,15.6,10.7,26.5,24,26.5c13.7,0,19.9-12,19.9-23.8
		C641.1,201.2,631.3,190.3,617.6,190.3z"/>
	<path class="st4" d="M697.7,241.1h-37.2v-1.6h2.7c3.8,0,5.2-1.4,5.2-5.5v-36.9c0-4.4-1.4-6.3-6.6-6.3h-1.1v-1.6h24.6v1.6h-3
		c-5.5,0-6.8,0.5-6.8,5.7v38.3c0,2.2,0.8,3,3.3,3h12.3c4.9,0,6.3-1.9,11.8-9h1.4L697.7,241.1z"/>
	<path class="st4" d="M775.3,242.5c-16.4,0-30.1-10.4-30.1-26c0-16.7,12.8-28.4,30.3-28.4c15.8,0,29.2,10.7,29.2,25.7
		C805.1,230.7,791.4,242.5,775.3,242.5z M773.6,190.3c-14.8,0-20.5,13.7-20.5,23.5c0,15.6,10.7,26.5,24,26.5
		c13.7,0,19.9-12,19.9-23.8C797.1,201.2,787.3,190.3,773.6,190.3z"/>
	<path class="st4" d="M854.3,221.1h-1.4c-0.3-4.9-1.9-6.3-6-6.3h-15.3v18.3c0,4.6,1.1,6.3,7.1,6.3v1.6h-20.2v-1.6
		c5.2-0.3,6-1.4,6-8.2v-32.5c0-5.2-0.5-7.7-6.3-7.9v-1.6h37.2v9.8H854c0-4.9-1.6-6.8-6.8-6.8h-15.8v19.7h16.4c3,0,4.6-1.6,4.9-5.2
		h1.4v14.5h0.2V221.1z"/>
	<path class="st4" d="M905.1,198.2c0-4.6-0.5-7.1-6.3-7.1h-3v-1.6c2.5,0,8.2-0.5,10.4-0.5c4.6-0.3,10.9-0.3,12.6-0.3
		c7.4,0,13.7,1.1,16.7,3.3c3.3,2.5,5.2,5.2,5.2,9.3c0,4.6-3.8,9-9.6,10.1v0.3c7.9,2.5,12.3,7.4,12.3,13.9s-4.6,15.8-18,15.8h-30.3
		v-1.6h1.9c6.8,0,8.2-1.6,8.2-6.8L905.1,198.2L905.1,198.2z M912.2,211h9c7.9,0,12-3.3,12-9.6c0-5.7-3.6-11.2-13.7-11.2
		c-1.9,0-5.2,0.3-7.4,0.3V211H912.2z M912.2,230.4c0,6.3,2.5,8.5,9.6,8.5c10.9,0,14.2-6.8,14.2-13.4c0-6.3-4.9-12.8-14.8-12.8h-9
		V230.4z"/>
	<path class="st4" d="M1018.2,189.4v1.6c-5.5,0-7.7,2.5-7.7,7.7v22.4c0,10.4-6.6,21.3-24.6,21.3c-15.8,0-24-9-24-21v-24.3
		c0-5.2-1.4-6.3-7.1-6.3v-1.6h21.3v1.6h-0.8c-4.6,0-6.6,1.4-6.6,6V220c0,11.2,6.6,18,18.9,18c9.3,0,18.9-3.8,18.9-18v-19.4
		c0-7.9-1.4-9.3-8.2-9.8v-1.6h19.9V189.4z"/>
	<path class="st4" d="M1031.1,228.5c1.6,7.4,7.7,11.8,13.9,11.8c5.5,0,11.5-3.3,11.5-9.8c0-12-26.8-15.6-26.8-30.3
		c0-6.8,6.3-12,14.8-12c7.1,0,8.5,2.2,11.2,2.2c0.5,0,1.1-0.3,1.4-0.8h1.4l1.4,10.7h-1.4c-2.5-6-7.7-9.8-13.4-9.8
		c-5.5,0-9.3,3.3-9.3,7.9c0,11.8,26.8,15,26.8,30.3c0,8.2-7.1,14.2-16.9,14.2c-4.6,0-10.4-2.2-11.5-2.2c-0.8,0-1.4,0.5-1.6,0.8h-1.4
		l-1.6-12.6h1.6L1031.1,228.5L1031.1,228.5z"/>
	<path class="st4" d="M1096.4,241.1h-20.2v-1.6c5.2-0.3,6.3-1.6,6.3-7.1v-35.5c0-4.4-1.6-5.7-6.3-6v-1.6h20.2v1.6
		c-5.2,0-7.1,1.1-7.1,6.8v35.2c0,4.9,1.4,6.6,7.1,6.6V241.1z"/>
	<path class="st4" d="M1164.1,241.6l-43.2-45.1v35.8c0,6,1.4,7.1,8.5,7.1v1.6H1110v-1.6h0.3c5.2,0,6.8-1.6,6.8-5.5v-41
		c-1.9-1.4-4.1-1.9-7.1-2.2v-1.6h13.1l39.1,40.7v-33.1c0-5.2-1.4-6-8.2-6.3v-1.6h19.4v1.6c-6.3,0-7.7,1.1-7.7,4.4v46.5h-1.6
		L1164.1,241.6L1164.1,241.6z"/>
	<path class="st4" d="M1223.2,222.5h-1.6c-0.5-6-2.2-6.6-5.7-6.6H1202v17.8c0,3.8,1.4,4.6,4.4,4.6h12.8c5.7,0,7.7-2.2,9.6-9.3h1.4
		l-1.4,12.3h-44.3v-1.6h2.5c6.6,0,7.9-1.9,7.9-6.8v-35c0-4.6-1.1-6.6-6.6-6.6h-1.9v-1.6h39.9l0.5,11.5h-1.4
		c-1.1-7.1-3.3-8.5-6.3-8.5h-17.5v20.5h15c3,0,4.4-1.4,4.9-6.3h1.6L1223.2,222.5L1223.2,222.5z"/>
	<path class="st4" d="M1246.7,228.5c1.6,7.4,7.7,11.8,13.9,11.8c5.5,0,11.5-3.3,11.5-9.8c0-12-26.8-15.6-26.8-30.3
		c0-6.8,6.3-12,14.8-12c7.1,0,8.5,2.2,11.2,2.2c0.5,0,1.1-0.3,1.4-0.8h1.4l1.4,10.7h-1.4c-2.5-6-7.7-9.8-13.4-9.8
		c-5.5,0-9.3,3.3-9.3,7.9c0,11.8,26.8,15,26.8,30.3c0,8.2-7.1,14.2-16.9,14.2c-4.6,0-10.4-2.2-11.5-2.2c-0.8,0-1.4,0.5-1.6,0.8h-1.4
		l-1.6-12.6h1.6L1246.7,228.5L1246.7,228.5z"/>
	<path class="st4" d="M1294.7,228.5c1.6,7.4,7.7,11.8,13.9,11.8c5.5,0,11.5-3.3,11.5-9.8c0-12-26.8-15.6-26.8-30.3
		c0-6.8,6.3-12,14.8-12c7.1,0,8.5,2.2,11.2,2.2c0.5,0,1.1-0.3,1.4-0.8h1.4l1.4,10.7h-1.4c-2.5-6-7.7-9.8-13.4-9.8
		c-5.5,0-9.3,3.3-9.3,7.9c0,11.8,26.8,15,26.8,30.3c0,8.2-7.1,14.2-16.9,14.2c-4.6,0-10.4-2.2-11.5-2.2c-0.8,0-1.4,0.5-1.6,0.8h-1.1
		l-1.6-12.6h1.4v-0.4H1294.7z"/>
</g>
</svg>
