<?xml version="1.0" encoding="utf-8"?>
<!-- Generator: Adobe Illustrator 18.1.1, SVG Export Plug-In . SVG Version: 6.00 Build 0)  -->
<svg version="1.1" id="Layer_1" xmlns="http://www.w3.org/2000/svg" xmlns:xlink="http://www.w3.org/1999/xlink" x="0px" y="0px"
	 viewBox="0 0 612 792" enable-background="new 0 0 612 792" xml:space="preserve">
<g>
	<path fill="#6D6E71" d="M17.2,410.7c6.5,0,10.6-2.3,10.6-9.1v-33.3h6.9v33.5c0,11.3-6.2,15.7-17.5,15.7C6.2,417.3,0,412.9,0,401.6
		v-33.3h6.7v33.5C6.7,408.6,10.9,410.7,17.2,410.7z"/>
	<path fill="#6D6E71" d="M46.1,368.2h11.4L70,407.1l12.6-38.8H94v48.5h-6.7v-40.3H86l-12.5,38.4h-7.3l-12.5-38.4h-1.1v40.3H46v-48.5
		H46.1z"/>
	<path fill="#6D6E71" d="M105.8,368.2h6.7v48.5h-6.7V368.2z"/>
	<path fill="#6D6E71" d="M132.9,368.2h13.8l12.4,48.4h-6.9l-3.1-10.9h-18.8l-3,10.9h-6.7L132.9,368.2z M131.7,399.3h16l-6.2-24.9
		h-3.4L131.7,399.3z"/>
	<path fill="#6D6E71" d="M196.2,415.8c0,0-7.9,1.6-13.4,1.6c-14.7,0-17.9-8.6-17.9-25c0-16.9,3.9-25.1,17.9-25.1
		c6.2,0,13.4,1.7,13.4,1.7l-0.3,6c0,0-7.9-1.2-12.5-1.2c-9.7,0-11.7,5.4-11.7,18.4c0,12.8,1.7,18.3,11.8,18.3
		c4.2,0,12.4-1.2,12.4-1.2L196.2,415.8z"/>
	<path fill="#6D6E71" d="M232.4,375.1c0,0-9.8-1.2-13.8-1.2c-6.3,0-9.5,2.2-9.5,6.7c0,5.1,2.8,6.3,11.2,8.3
		c9.8,2.6,13.7,5.1,13.7,13.7c0,10.2-6.3,14.7-16.1,14.7c-5.2,0-14.8-1.6-14.8-1.6l0.7-6.2c0,0,9,1.2,14,1.2c6.3,0,9.4-2.2,9.4-7.9
		c0-4.6-2.4-6-9.9-7.8c-10.2-2.4-14.9-5.2-14.9-14.2c0-9.1,6.3-13.4,16.4-13.4c5.4,0,14.4,1.6,14.4,1.6L232.4,375.1z"/>
</g>
<g>
	<path fill="#E31837" d="M279.9,365.4c2.8,0,4.7-0.9,4.7-3.9v-16h4v15.9c0,5.6-3,7.8-8.6,7.8c-5.5,0-8.5-2.3-8.5-7.8v-15.9h4v15.9
		C275.3,364.5,277,365.4,279.9,365.4z"/>
	<path fill="#E31837" d="M293.3,369v-16.9h3.9v1.1c0,0,2.4-1.5,4.6-1.5c4.7,0,5.9,2.8,5.9,8.5v8.9h-3.9v-9c0-3.2-0.4-4.8-3-4.8
		c-1.9,0-3.6,0.8-3.6,0.8v13C297.2,369,293.3,369,293.3,369z"/>
	<path fill="#E31837" d="M312.5,345.3h3.9v4h-3.9V345.3z M312.5,352.1h3.9V369h-3.9V352.1z"/>
	<path fill="#E31837" d="M323.3,352.1l3.2,13.7h1.1l3.2-13.7h3.9l-4.3,16.9h-6.9l-4.3-16.9C319.2,352.1,323.3,352.1,323.3,352.1z"/>
	<path fill="#E31837" d="M350.7,365.6l0.1,3c0,0-3.9,0.8-6.9,0.8c-5.1,0-7.1-2.7-7.1-8.6c0-6.2,2.7-9,7.4-9c4.8,0,7.3,2.4,7.3,7.7
		l-0.3,2.8h-10.4c0,2.4,1.1,3.6,3.8,3.6C347.1,365.8,350.7,365.6,350.7,365.6z M347.5,359.2c0-3-0.9-4-3.4-4s-3.5,1.2-3.5,4H347.5z"
		/>
	<path fill="#E31837" d="M355.1,352.1h3.9v1.7c0,0,2.3-1.6,5.1-2.2v4.2c-3.1,0.7-5.1,1.7-5.1,1.7V369h-3.9V352.1z"/>
	<path fill="#E31837" d="M379.5,355.7c0,0-4-0.5-6-0.5c-2,0-2.8,0.4-2.8,1.7c0,1.1,0.7,1.3,3.5,1.7c4.4,0.7,5.9,1.9,5.9,5.2
		c0,3.9-2.6,5.4-6.7,5.4c-2.4,0-6.3-0.8-6.3-0.8l0.1-3.2c0,0,4,0.5,5.8,0.5c2.4,0,3.2-0.5,3.2-1.9c0-1.1-0.5-1.3-3.2-1.9
		c-4.3-0.7-6.2-1.6-6.2-5.2c0-3.9,3-5.4,6.5-5.4c2.4,0,6.5,0.8,6.5,0.8L379.5,355.7z"/>
	<path fill="#E31837" d="M384.3,345.3h3.9v4h-3.9V345.3z M384.3,352.1h3.9V369h-3.9V352.1z"/>
	<path fill="#E31837" d="M397.3,355.6v6.9c0,2.3,0.1,3.2,1.7,3.2c0.9,0,2.7-0.1,2.7-0.1l0.1,3.4c0,0-2.3,0.5-3.5,0.5
		c-3.9,0-5.1-1.5-5.1-6.3v-7.4h-2.2v-3.5h2.2v-5h3.9v5h4.6v3.5h-4.4V355.6z"/>
	<path fill="#E31837" d="M407,352.1l3.5,13.2h0.9l3.5-13.2h3.8l-6.3,24.2h-3.8l1.9-7.3h-2.8l-4.4-16.9H407z"/>
	<path fill="#E31837" d="M444,360.4c0,5.5-1.7,8.9-7.5,8.9c-5.8,0-7.7-3.4-7.7-8.9c0-5.4,1.9-8.7,7.7-8.7
		C442,351.7,444,355.1,444,360.4z M440.1,360.4c0-3.5-0.9-5.2-3.6-5.2c-2.8,0-3.6,1.6-3.6,5.2c0,3.6,0.7,5.4,3.6,5.4
		C439.4,366,440.1,364.1,440.1,360.4z"/>
	<path fill="#E31837" d="M452,369h-3.9v-13.4h-1.9v-3.5h1.9V351c0-4.8,1.2-6.3,4.8-6.3c1.1,0,3.6,0.4,3.6,0.4v3.2
		c0,0-1.6-0.1-2.7-0.1c-1.5,0-1.9,0.7-1.9,2.8v1.1h4.4v3.5H452L452,369L452,369z"/>
	<path fill="#E31837" d="M467.8,345.5h6.5l5.4,17.9l5.4-17.9h6.5v23.4h-4v-18.4h-0.5l-5.2,17.6h-4l-5.2-17.6h-0.5V369h-4V345.5z"/>
	<path fill="#E31837" d="M509.3,364.9c0.1,0.9,0.4,1.5,1.5,1.6l-0.1,3c-2.2,0-3.2-0.3-4.6-1.2c0,0-2.7,1.2-5.4,1.2
		c-3.4,0-5.1-1.9-5.1-5.4c0-3.6,2-4.8,5.6-5.1l4.2-0.4v-1.1c0-1.6-0.8-2.3-2.3-2.3c-2.3,0-6.3,0.3-6.3,0.3l-0.1-2.8
		c0,0,4.2-0.9,6.9-0.9c3.8,0,5.8,1.7,5.8,5.8V364.9z M501.6,361.5c-1.5,0.1-2.3,0.8-2.3,2.3s0.7,2.3,2,2.3c1.5,0,3.9-0.7,3.9-0.7
		v-4.3L501.6,361.5z"/>
	<path fill="#E31837" d="M514.5,352.1h3.9v1.7c0,0,2.3-1.6,5.1-2.2v4.2c-3.1,0.7-5.1,1.7-5.1,1.7V369h-3.9V352.1z"/>
	<path fill="#E31837" d="M528.7,352.1l3.5,13.2h0.9l3.5-13.2h3.8l-6.3,24.2h-3.8l1.9-7.3h-2.8l-4.4-16.9H528.7z"/>
	<path fill="#E31837" d="M543.3,345.1h3.9V369h-3.9V345.1z"/>
	<path fill="#E31837" d="M565,364.9c0.1,0.9,0.4,1.5,1.5,1.6l-0.1,3c-2.2,0-3.2-0.3-4.6-1.2c0,0-2.7,1.2-5.4,1.2
		c-3.4,0-5.1-1.9-5.1-5.4c0-3.6,2-4.8,5.6-5.1l4.2-0.4v-1.1c0-1.6-0.8-2.3-2.3-2.3c-2.3,0-6.3,0.3-6.3,0.3l-0.1-2.8
		c0,0,4.2-0.9,6.9-0.9c3.8,0,5.8,1.7,5.8,5.8V364.9z M557.4,361.5c-1.5,0.1-2.3,0.8-2.3,2.3s0.7,2.3,2,2.3c1.5,0,3.9-0.7,3.9-0.7
		v-4.3L557.4,361.5z"/>
	<path fill="#E31837" d="M570.2,369v-16.9h3.9v1.1c0,0,2.4-1.5,4.6-1.5c4.7,0,5.9,2.8,5.9,8.5v8.9h-3.9v-9c0-3.2-0.4-4.8-3-4.8
		c-1.9,0-3.6,0.8-3.6,0.8v13C574.1,369,570.2,369,570.2,369z"/>
	<path fill="#E31837" d="M603,369h-3.9v-0.8c0,0-2.4,1.2-4.4,1.2c-4.4,0-6.5-2.6-6.5-9c0-6,2.3-8.7,7-8.7c1.3,0,3.6,0.4,3.8,0.4
		v-6.9h3.9V369H603z M599.1,365v-9.5c-0.1,0-2.2-0.3-3.5-0.3c-2.3,0-3.4,1.5-3.4,5.2c0,4,1.1,5.2,3.1,5.4
		C597.1,365.8,599.1,365,599.1,365z"/>
	<path fill="#E31837" d="M273,382.6h4V406h-4V382.6z"/>
	<path fill="#E31837" d="M282.1,406.1v-16.9h3.9v1.1c0,0,2.4-1.5,4.6-1.5c4.7,0,5.9,2.8,5.9,8.5v8.9h-3.9v-9c0-3.2-0.4-4.8-3-4.8
		c-1.9,0-3.6,0.8-3.6,0.8v13H282.1z"/>
	<path fill="#E31837" d="M313.3,392.8c0,0-4-0.5-6-0.5c-2,0-2.8,0.4-2.8,1.7c0,1.1,0.7,1.3,3.5,1.7c4.4,0.7,5.9,1.9,5.9,5.2
		c0,3.9-2.6,5.4-6.7,5.4c-2.4,0-6.3-0.8-6.3-0.8l0.1-3.2c0,0,4,0.5,5.8,0.5c2.4,0,3.2-0.5,3.2-1.9c0-1.1-0.5-1.3-3.2-1.9
		c-4.3-0.7-6.2-1.6-6.2-5.2c0-3.9,3-5.4,6.5-5.4c2.4,0,6.5,0.8,6.5,0.8L313.3,392.8z"/>
	<path fill="#E31837" d="M322.3,392.7v6.9c0,2.3,0.1,3.2,1.7,3.2c0.9,0,2.7-0.1,2.7-0.1l0.1,3.4c0,0-2.3,0.5-3.5,0.5
		c-3.9,0-5.1-1.5-5.1-6.3v-7.4h-2.2v-3.5h2.2v-5h3.9v5h4.6v3.5h-4.4V392.7z"/>
	<path fill="#E31837" d="M330.3,382.4h3.9v4h-3.9V382.4z M330.3,389.2h3.9v16.9h-3.9V389.2z"/>
	<path fill="#E31837" d="M343.3,392.7v6.9c0,2.3,0.1,3.2,1.7,3.2c0.9,0,2.7-0.1,2.7-0.1l0.1,3.4c0,0-2.3,0.5-3.5,0.5
		c-3.9,0-5.1-1.5-5.1-6.3v-7.4h-1.9v-3.5h2.2v-5h3.9v5h4.6v3.5h-4.7V392.7z"/>
	<path fill="#E31837" d="M365.2,389.2v16.9h-3.9v-0.8c0,0-2.7,1.2-4.4,1.2c-4.8,0-5.9-2.6-5.9-8.5v-8.9h3.9v8.9c0,3.6,0.3,5,2.8,5
		c1.5,0,3.6-0.8,3.6-0.8v-13H365.2L365.2,389.2z"/>
	<path fill="#E31837" d="M374.5,392.7v6.9c0,2.3,0.1,3.2,1.7,3.2c0.9,0,2.7-0.1,2.7-0.1l0.1,3.4c0,0-2.3,0.5-3.5,0.5
		c-3.9,0-5.1-1.5-5.1-6.3v-7.4h-2.2v-3.5h2.2v-5h3.9v5h4.6v3.5h-4.4V392.7z"/>
	<path fill="#E31837" d="M395.3,402.7v3c0,0-3.9,0.8-6.9,0.8c-5.1,0-7.1-2.7-7.1-8.6c0-6.2,2.7-9,7.4-9c4.8,0,7.3,2.4,7.3,7.7
		l-0.3,2.8h-10.4c0,2.4,1.1,3.6,3.8,3.6C391.7,402.9,395.3,402.7,395.3,402.7z M392.1,396.3c0-3-0.9-4-3.4-4c-2.4,0-3.5,1.2-3.5,4
		H392.1z"/>
	<path fill="#E31837" d="M412,406.1h-3.9v-13.4h-1.9v-3.5h1.9v-1.1c0-4.8,1.2-6.3,4.8-6.3c1.1,0,3.6,0.4,3.6,0.4v3.2
		c0,0-1.6-0.1-2.7-0.1c-1.5,0-1.9,0.7-1.9,2.8v1.1h4.4v3.5H412L412,406.1L412,406.1z"/>
	<path fill="#E31837" d="M433.6,397.5c0,5.5-1.7,8.9-7.5,8.9c-5.8,0-7.7-3.4-7.7-8.9c0-5.4,1.9-8.7,7.7-8.7
		C431.7,388.8,433.6,392.2,433.6,397.5z M429.7,397.5c0-3.5-0.9-5.2-3.6-5.2c-2.8,0-3.6,1.6-3.6,5.2c0,3.6,0.7,5.4,3.6,5.4
		S429.7,401.2,429.7,397.5z"/>
	<path fill="#E31837" d="M437.7,389.2h3.9v1.7c0,0,2.3-1.6,5.1-2.2v4.2c-3.1,0.7-5.1,1.7-5.1,1.7v11.4h-3.9V389.2z"/>
	<path fill="#E31837" d="M461.9,382.6h7.8l5.5,23.4h-4l-1.3-4.6h-8.5l-1.2,4.6h-4L461.9,382.6z M462.3,397.7h6.9l-2.6-11.3h-1.6
		L462.3,397.7z"/>
	<path fill="#E31837" d="M492.2,406.1h-3.9v-0.8c0,0-2.4,1.2-4.4,1.2c-4.4,0-6.5-2.6-6.5-9c0-6,2.3-8.7,7-8.7c1.3,0,3.6,0.4,3.8,0.4
		v-6.9h3.9v23.8H492.2z M488.3,402.1v-9.5c-0.1,0-2.2-0.3-3.5-0.3c-2.3,0-3.4,1.5-3.4,5.2c0,4,1.1,5.2,3.1,5.4
		C486.2,402.8,488.3,402.1,488.3,402.1z"/>
	<path fill="#E31837" d="M499.4,389.2l3.2,13.7h1.1l3.2-13.7h3.9l-4.3,16.9h-6.9l-4.3-16.9C495.3,389.2,499.4,389.2,499.4,389.2z"/>
	<path fill="#E31837" d="M526.5,402c0.1,0.9,0.4,1.5,1.5,1.6l-0.1,3c-2.2,0-3.2-0.3-4.6-1.2c0,0-2.7,1.2-5.4,1.2
		c-3.4,0-5.1-1.9-5.1-5.4c0-3.6,2-4.8,5.6-5.1l4.2-0.4v-1.1c0-1.6-0.8-2.3-2.3-2.3c-2.3,0-6.3,0.3-6.3,0.3l-0.1-2.8
		c0,0,4.2-0.9,6.9-0.9c3.8,0,5.8,1.7,5.8,5.8V402z M519,398.6c-1.5,0.1-2.3,0.8-2.3,2.3c0,1.5,0.7,2.3,2,2.3c1.5,0,3.9-0.7,3.9-0.7
		v-4.2L519,398.6z"/>
	<path fill="#E31837" d="M531.8,406.1v-16.9h3.9v1.1c0,0,2.4-1.5,4.6-1.5c4.7,0,5.9,2.8,5.9,8.5v8.9h-3.9v-9c0-3.2-0.4-4.8-3-4.8
		c-1.9,0-3.6,0.8-3.6,0.8v13H531.8z"/>
	<path fill="#E31837" d="M562.1,389.5l-0.1,3.4c0,0-2.7-0.3-3.9-0.3c-3.5,0-4.3,1.3-4.3,5c0,4,0.7,5.4,4.3,5.4
		c1.3,0,3.9-0.3,3.9-0.3l0.1,3.4c0,0-3.5,0.7-5.2,0.7c-5.1,0-7-2.6-7-9c0-6,2-8.6,7.1-8.6C558.8,388.8,562.1,389.5,562.1,389.5z"/>
	<path fill="#E31837" d="M578.7,402.7v3c0,0-3.9,0.8-6.9,0.8c-5.1,0-7.1-2.7-7.1-8.6c0-6.2,2.7-9,7.4-9c4.8,0,7.3,2.4,7.3,7.7
		l-0.3,2.8h-10.4c0,2.4,1.1,3.6,3.8,3.6S578.7,402.7,578.7,402.7z M575.4,396.3c0-3-0.9-4-3.4-4s-3.5,1.2-3.5,4H575.4z"/>
	<path fill="#E31837" d="M596.8,406.1h-3.9v-0.8c0,0-2.4,1.2-4.4,1.2c-4.6,0-6.5-2.6-6.5-9c0-6,2.3-8.7,7-8.7c1.3,0,3.6,0.4,3.8,0.4
		v-6.9h3.9v23.8H596.8z M592.9,402.1v-9.5c-0.1,0-2.2-0.3-3.5-0.3c-2.3,0-3.4,1.5-3.4,5.2c0,4,1.1,5.2,3.1,5.4
		C590.8,402.8,592.9,402.1,592.9,402.1z"/>
	<path fill="#E31837" d="M287,441.6c0,0-3.9,0.8-6.6,0.8c-7.1,0-8.7-4-8.7-12.1c0-8.5,2-12.1,8.7-12.1c3,0,6.7,0.9,6.7,0.9l-0.1,3.5
		c0,0-3.9-0.5-6-0.5c-4,0-5.1,2-5.1,8.2c0,5.9,0.8,8.2,5.2,8.2c1.9,0,5.9-0.5,5.9-0.5L287,441.6z"/>
	<path fill="#E31837" d="M305,433.6c0,5.5-1.7,8.9-7.5,8.9s-7.7-3.4-7.7-8.9c0-5.4,1.9-8.7,7.7-8.7C303.1,424.8,305,428.2,305,433.6
		z M301.1,433.6c0-3.5-0.9-5.2-3.6-5.2c-2.8,0-3.6,1.6-3.6,5.2c0,3.6,0.7,5.4,3.6,5.4C300.4,438.9,301.1,437.2,301.1,433.6z"/>
	<path fill="#E31837" d="M309,442v-16.8h3.8v0.9c0,0,1.5-0.8,3-1.1c0.7-0.1,1.2-0.3,1.7-0.3c1.7,0.1,3,0.5,3.8,1.5
		c1.5-0.5,3.9-1.5,5.9-1.5c4.6,0,5.9,2.6,5.9,8.5v8.9h-3.8v-7.3c0-4.6,0-6.3-2.8-6.3c-1.6,0-3.6,0.8-3.6,0.8c0.1,0.3,0.3,2.6,0.3,4
		v8.7h-3.9v-8.7c0-3.6-0.4-5-2.8-5c-1.5,0-3.5,0.8-3.5,0.8v12.9H309V442z"/>
	<path fill="#E31837" d="M338.1,425.2h3.9v0.9c0,0,2.3-1.3,4.2-1.3c4.4,0,6.5,2.3,6.5,8.6c0,7-2.4,9-7.5,9c-1.3,0-3-0.3-3.1-0.3v7.1
		h-3.9V425.2L338.1,425.2z M342,429.3v9.5c0.1,0,1.7,0.3,2.8,0.3c3.1,0,3.9-1.5,3.9-5.5c0-3.8-1.2-5.1-3.2-5.1
		C344,428.3,342,429.3,342,429.3z"/>
	<path fill="#E31837" d="M370.6,425.2v16.9h-3.9v-0.8c0,0-2.7,1.2-4.4,1.2c-4.8,0-5.9-2.6-5.9-8.5v-8.9h3.9v8.9c0,3.6,0.3,5,2.8,5
		c1.5,0,3.6-0.8,3.6-0.8v-13H370.6z"/>
	<path fill="#E31837" d="M379.9,428.7v6.9c0,2.3,0,3.2,1.7,3.2c0.9,0,2.7-0.1,2.7-0.1l0.1,3.4c0,0-2.3,0.5-3.5,0.5
		c-3.9,0-5.1-1.5-5.1-6.3v-7.4h-2.2v-3.6h2.2v-5h3.9v5h4.6v3.5H379.9z"/>
	<path fill="#E31837" d="M400.7,438.7l0.1,3c0,0-3.9,0.8-6.9,0.8c-5.1,0-7.1-2.7-7.1-8.6c0-6.2,2.7-9,7.4-9c4.8,0,7.3,2.4,7.3,7.7
		l-0.3,2.8h-10.4c0,2.4,1.1,3.6,3.8,3.6C397.1,438.9,400.7,438.7,400.7,438.7z M397.5,432.2c0-3-0.9-4-3.4-4c-2.4,0-3.5,1.2-3.5,4
		H397.5z"/>
	<path fill="#E31837" d="M405.1,425.2h3.9v1.7c0,0,2.3-1.6,5.1-2.2v4.2c-3.1,0.7-5.1,1.7-5.1,1.7v11.4h-3.9V425.2z"/>
	<path fill="#E31837" d="M439.1,422.7c0,0-4.7-0.5-6.7-0.5c-2.8,0-4.2,0.9-4.2,2.8c0,2,1.2,2.6,5.1,3.6c4.8,1.5,6.6,2.7,6.6,6.9
		c0,4.8-3.2,7.1-7.9,7.1c-2.6,0-7.1-0.9-7.1-0.9l0.4-3.5c0,0,4.3,0.5,6.7,0.5c2.8,0,4-0.9,4-3.1c0-1.9-0.9-2.6-4.4-3.4
		c-5.1-1.3-7.1-2.8-7.1-7.1c0-4.4,3.1-6.7,8.1-6.7c2.6,0,7,0.8,7,0.8L439.1,422.7z"/>
	<path fill="#E31837" d="M447.9,428.7v6.9c0,2.3,0.1,3.2,1.7,3.2c0.9,0,2.7-0.1,2.7-0.1l0.1,3.4c0,0-2.3,0.5-3.5,0.5
		c-3.9,0-5.1-1.5-5.1-6.3v-7.4h-2.2v-3.6h2.2v-5h3.9v5h4.6v3.5H447.9z"/>
	<path fill="#E31837" d="M469.8,425.2v16.9h-3.9v-0.8c0,0-2.7,1.2-4.4,1.2c-4.8,0-5.9-2.6-5.9-8.5v-8.9h3.9v8.9c0,3.6,0.3,5,2.8,5
		c1.5,0,3.6-0.8,3.6-0.8v-13H469.8z"/>
	<path fill="#E31837" d="M488.5,442h-3.9v-0.8c0,0-2.4,1.2-4.4,1.2c-4.6,0-6.5-2.6-6.5-9c0-6,2.3-8.7,7-8.7c1.3,0,3.6,0.4,3.8,0.4
		v-6.9h3.9V442H488.5z M484.6,438.1v-9.5c-0.1,0-2.2-0.3-3.5-0.3c-2.3,0-3.4,1.5-3.4,5.2c0,4,1.1,5.2,3.1,5.4
		C482.4,438.8,484.6,438.1,484.6,438.1z"/>
	<path fill="#E31837" d="M493.6,418.4h3.9v4h-3.9V418.4z M493.6,425.2h3.9v16.9h-3.9V425.2z"/>
	<path fill="#E31837" d="M515.2,438.7v3c0,0-3.9,0.8-6.9,0.8c-5.1,0-7.1-2.7-7.1-8.6c0-6.2,2.7-9,7.4-9c4.8,0,7.3,2.4,7.3,7.7
		l-0.3,2.8h-10.4c0,2.4,1.1,3.6,3.8,3.6C511.7,438.9,515.2,438.7,515.2,438.7z M512,432.2c0-3-0.9-4-3.4-4c-2.4,0-3.5,1.2-3.5,4H512
		z"/>
	<path fill="#E31837" d="M531.8,428.9c0,0-4-0.5-6-0.5c-2,0-2.8,0.4-2.8,1.7c0,1.1,0.7,1.3,3.5,1.7c4.4,0.7,5.9,1.9,5.9,5.2
		c0,3.9-2.6,5.4-6.7,5.4c-2.4,0-6.3-0.8-6.3-0.8l0.1-3.2c0,0,4,0.5,5.8,0.5c2.4,0,3.2-0.5,3.2-1.9c0-1.1-0.5-1.3-3.2-1.9
		c-4.3-0.7-6.2-1.6-6.2-5.2c0-3.9,3-5.4,6.5-5.4c2.4,0,6.5,0.8,6.5,0.8L531.8,428.9z"/>
</g>
<line fill="none" stroke="#A7A9AC" stroke-width="1.1232" stroke-miterlimit="10" x1="253" y1="445.4" x2="253" y2="336.3"/>
</svg>
