<?xml version="1.0" encoding="utf-8"?>
<!-- Generator: Adobe Illustrator 15.1.0, SVG Export Plug-In . SVG Version: 6.00 Build 0)  -->
<!DOCTYPE svg PUBLIC "-//W3C//DTD SVG 1.0//EN" "http://www.w3.org/TR/2001/REC-SVG-20010904/DTD/svg10.dtd">
<svg version="1.0" id="Layer_1" xmlns="http://www.w3.org/2000/svg" xmlns:xlink="http://www.w3.org/1999/xlink" x="0px" y="0px"
	 width="488.958px" height="130px" viewBox="0 0 488.958 130" enable-background="new 0 0 488.958 130" xml:space="preserve">
<g>
	<rect x="43.669" y="52.73" fill="#00467F" width="8.958" height="50.895"/>
	<path fill="#00467F" d="M162.029,94.938c-3.381,0-5.212-2.162-5.212-4.84c0-2.463,1.548-4.438,5.227-5.451l19.182-5.266v15.558
		H162.029z M190.323,65.809c0-6.492-4.117-13.079-14.149-13.079h-18.9c-3.072,0-4.14,1.267-4.421,3.883
		c-0.115,1.073-0.514,4.803-0.514,4.803h22.312c4.727,0,6.575,2.224,6.575,5.799v2.96l-18.866,5.129
		c-10.081,2.77-14.943,7.153-14.943,14.815c0,8.287,6.463,13.507,14.046,13.507h28.861V65.809z"/>
	<path fill="#00467F" d="M124.541,67.215c0-3.578,1.847-5.799,6.573-5.799h15.111c0,0-0.399-3.729-0.513-4.804
		c-0.285-2.616-1.352-3.882-4.421-3.882h-11.701c-10.029,0-14.146,6.587-14.146,13.079v37.819h9.098V67.215z"/>
	<path fill="#00467F" d="M89.449,61.416c4.725,0,6.572,2.224,6.572,5.799v36.411h9.101V65.809c0-6.492-4.12-13.077-14.151-13.077
		H63.247v50.895h8.962v-42.21H89.449z"/>
	<path fill="#00467F" d="M31.403,76.863c-0.279-2.615-1.35-3.884-4.419-3.884H9.1v-5.764c0-3.575,1.844-5.8,6.57-5.8h21.519
		c0,0-0.399-3.729-0.514-4.801c-0.283-2.617-1.352-3.883-4.42-3.883H14.151C4.117,52.731,0,59.317,0,65.809v37.817h9.1V81.667
		h22.817C31.917,81.667,31.52,77.935,31.403,76.863"/>
	<g>
		<defs>
			<path id="SVGID_1_" d="M212.683,53.745c0.015,0.039,0.03,0.07,0.042,0.107v-3.025l-1.927-2.162L212.683,53.745z M209.729,45.798
				l2.997,3.352v-6.388l-5.2-2.885L209.729,45.798z M207.686,43.521l-1.663-4.478l-4.646-2.571L207.686,43.521z M206.932,38.268
				l5.793,3.215v-7.506l-8.27-2.355L206.932,38.268z M199.11,33.931l6.316,3.499l-2.3-6.188l-8.62-2.445L199.11,33.931z
				 M194.156,31.188l1.973,1.09l-3.632-4.052l-4.088-1.167C190.439,28.42,192.364,29.798,194.156,31.188 M203.978,30.324
				l8.747,2.487v-7.899l-11.289-1.415L203.978,30.324z M193.114,27.238l9.529,2.709l-2.456-6.607l-11.894-1.491L193.114,27.238z
				 M182.379,23.29c0.952,0.559,1.888,1.122,2.801,1.693l5.921,1.682l-4.494-5.028l-9.236-1.155
				C179.101,21.411,180.775,22.345,182.379,23.29 M163.721,13.903c0.939,0.407,1.861,0.813,2.768,1.229
				c2.794,1.259,5.483,2.557,8.057,3.871l10.922,1.365l-5.788-6.464H163.721z M181.178,13.903l5.977,6.679l12.595,1.578
				l-3.074-8.257H181.178z M197.876,13.903l3.12,8.411l11.729,1.469v-9.879H197.876z M123.844,0
				c7.823,2.21,15.219,4.543,22.039,6.933c5.352,1.883,10.454,3.845,15.225,5.85h17.568L167.243,0H123.844z M168.734,0
				l11.448,12.783h16.077L191.515,0H168.734z M192.702,0l4.754,12.783h15.269V0H192.702z"/>
		</defs>
		<clipPath id="SVGID_2_">
			<use xlink:href="#SVGID_1_"  overflow="visible"/>
		</clipPath>
		
			<linearGradient id="SVGID_3_" gradientUnits="userSpaceOnUse" x1="75.333" y1="774.3496" x2="77.5347" y2="774.3496" gradientTransform="matrix(40.3672 0 0 -40.3672 -2917.158 31285.293)">
			<stop  offset="0" style="stop-color:#00467F"/>
			<stop  offset="0.1472" style="stop-color:#005E98"/>
			<stop  offset="0.3998" style="stop-color:#0080BE"/>
			<stop  offset="0.6343" style="stop-color:#0099D9"/>
			<stop  offset="0.8416" style="stop-color:#00A9E9"/>
			<stop  offset="1" style="stop-color:#00AEEF"/>
		</linearGradient>
		<rect x="123.844" clip-path="url(#SVGID_2_)" fill="url(#SVGID_3_)" width="88.881" height="53.853"/>
	</g>
	<g>
		<defs>
			<path id="SVGID_4_" d="M213.855,82.953v11.8c0.383-0.4,3.92-4.074,9.29-9.647l-3.817-10.269L213.855,82.953z M213.855,70.986
				v9.967l4.991-7.409l-3.016-8.105L213.855,70.986z M220.093,73.691l3.914,10.521c2.814-2.916,6.084-6.32,9.642-10.005
				l-7.932-8.857L220.093,73.691z M213.855,67.659l1.378-3.851l-1.378-3.703V67.659z M216.42,63.805l3.194,8.596l5.331-7.916
				l-6.267-7.009L216.42,63.805z M226.364,64.389l8.06,9.009c3.678-3.813,7.632-7.92,11.679-12.132l-12.837-7.117L226.364,64.389z
				 M213.855,56.898l1.955,5.273l2.022-5.642l-3.977-4.448V56.898z M219.102,56.277l6.49,7.25l6.691-9.924l-10.201-5.656
				L219.102,56.277z M213.855,50.409l4.4,4.918l2.837-7.933l-7.237-4.009V50.409z M233.894,53.217l13.015,7.219
				c4.19-4.356,8.479-8.806,12.661-13.145l-18.194-5.17L233.894,53.217z M222.464,46.885l10.442,5.786l7.333-10.871l-14.494-4.122
				L222.464,46.885z M213.855,42.109l7.616,4.223l3.205-8.961l-10.82-3.076V42.109z M242.032,41.146l18.417,5.233
				c4.689-4.865,9.221-9.57,13.315-13.819l-23.932-3.004L242.032,41.146z M226.126,36.625l14.772,4.197l7.69-11.421l-19.032-2.384
				L226.126,36.625z M213.855,33.129l11.194,3.184l3.374-9.438l-14.568-1.82V33.129z M213.855,13.903v10.021l14.946,1.877
				l4.256-11.898H213.855z M234.245,13.903l-4.3,12.04l19.347,2.421l9.752-14.461H234.245z M260.391,13.903l-9.849,14.622
				l24.185,3.03c9.549-9.91,16.485-17.107,17.012-17.652H260.391z"/>
		</defs>
		<clipPath id="SVGID_5_">
			<use xlink:href="#SVGID_4_"  overflow="visible"/>
		</clipPath>
		
			<linearGradient id="SVGID_6_" gradientUnits="userSpaceOnUse" x1="76.5649" y1="773.9092" x2="78.7671" y2="773.9092" gradientTransform="matrix(35.3721 0 0 -35.3721 -2494.4321 27429.125)">
			<stop  offset="0" style="stop-color:#00467F"/>
			<stop  offset="0.1555" style="stop-color:#004E88"/>
			<stop  offset="0.4096" style="stop-color:#0065A0"/>
			<stop  offset="0.7284" style="stop-color:#008AC8"/>
			<stop  offset="1" style="stop-color:#00AEEF"/>
		</linearGradient>
		<rect x="213.855" y="13.903" clip-path="url(#SVGID_5_)" fill="url(#SVGID_6_)" width="77.883" height="80.85"/>
	</g>
	<polygon fill="#00467F" points="215.379,116.034 215.379,119.611 219.284,119.611 219.284,120.82 215.379,120.82 215.379,125.82 
		213.875,125.82 213.875,114.793 219.498,114.793 219.498,116.034 	"/>
	<path fill="#00467F" d="M221.995,116.086c-0.54,0-0.982-0.41-0.982-0.951c0-0.538,0.443-0.964,0.982-0.964
		c0.537,0,0.98,0.426,0.98,0.964C222.975,115.658,222.532,116.086,221.995,116.086 M221.26,117.702h1.469v8.12h-1.469V117.702z"/>
	<path fill="#00467F" d="M230.668,125.822v-5.23c0-1.16-0.31-1.828-1.39-1.828c-1.338,0-2.303,1.372-2.303,3.168v3.89h-1.469v-8.121
		h1.42c0,0.492-0.033,1.228-0.132,1.713h0.035c0.471-1.11,1.47-1.863,2.857-1.863c1.862,0,2.452,1.161,2.452,2.598v5.673H230.668z"
		/>
	<path fill="#00467F" d="M239.065,125.822c0-0.572,0-1.162,0.078-1.617h-0.03c-0.394,0.992-1.422,1.763-2.762,1.763
		c-1.338,0-2.254-0.887-2.254-2.189c0-1.75,1.781-2.794,4.887-2.794v-0.539c0-1.127-0.443-1.75-1.783-1.75
		c-0.768,0-1.698,0.246-2.353,0.605l-0.309-1.189c0.782-0.328,1.861-0.577,2.891-0.577c2.352,0,3.021,1.097,3.021,2.682v3.265
		c0,0.771,0.015,1.635,0.033,2.34H239.065z M238.983,122.011c-2.683,0-3.449,0.736-3.449,1.553c0,0.723,0.489,1.242,1.242,1.242
		c1.324,0,2.207-1.306,2.207-2.578V122.011z"/>
	<path fill="#00467F" d="M248.404,125.822v-5.23c0-1.16-0.309-1.828-1.387-1.828c-1.339,0-2.302,1.372-2.302,3.168v3.89h-1.471
		v-8.121h1.422c0,0.492-0.033,1.228-0.132,1.713h0.034c0.476-1.11,1.471-1.863,2.857-1.863c1.862,0,2.45,1.161,2.45,2.598v5.673
		H248.404z"/>
	<path fill="#00467F" d="M255.642,125.95c-1.947,0-3.565-0.933-3.565-3.921c0-2.616,1.345-4.461,3.958-4.461
		c0.736,0,1.438,0.134,1.992,0.346l-0.275,1.254c-0.509-0.212-1.181-0.374-1.85-0.374c-1.471,0-2.272,1.259-2.272,3.041
		c0,1.583,0.509,2.841,2.305,2.841c0.686,0,1.339-0.134,1.899-0.391l0.227,1.221C257.373,125.787,256.476,125.95,255.642,125.95"/>
	<path fill="#00467F" d="M260.747,116.086c-0.537,0-0.979-0.41-0.979-0.951c0-0.538,0.443-0.964,0.979-0.964
		c0.542,0,0.98,0.426,0.98,0.964C261.728,115.658,261.29,116.086,260.747,116.086 M260.011,117.702h1.471v8.12h-1.471V117.702z"/>
	<path fill="#00467F" d="M268.368,125.822c0-0.572,0-1.162,0.082-1.617h-0.031c-0.392,0.992-1.418,1.763-2.762,1.763
		c-1.336,0-2.252-0.887-2.252-2.189c0-1.75,1.779-2.794,4.882-2.794v-0.539c0-1.127-0.441-1.75-1.781-1.75
		c-0.768,0-1.697,0.246-2.352,0.605l-0.31-1.189c0.788-0.328,1.862-0.577,2.895-0.577c2.351,0,3.019,1.097,3.019,2.682v3.265
		c0,0.771,0.016,1.635,0.033,2.34H268.368z M268.287,122.011c-2.681,0-3.446,0.736-3.446,1.553c0,0.723,0.49,1.242,1.245,1.242
		c1.318,0,2.202-1.306,2.202-2.578V122.011z"/>
	<rect x="272.659" y="113.896" fill="#00467F" width="1.467" height="11.924"/>
	<rect x="280.469" y="114.795" fill="#00467F" width="1.502" height="11.027"/>
	<path fill="#00467F" d="M290.016,125.822v-5.23c0-1.16-0.31-1.828-1.39-1.828c-1.336,0-2.299,1.372-2.299,3.168v3.89h-1.472v-8.121
		h1.42c0,0.492-0.03,1.228-0.129,1.713h0.031c0.475-1.11,1.474-1.863,2.859-1.863c1.861,0,2.45,1.161,2.45,2.598v5.673H290.016z"/>
	<path fill="#00467F" d="M299.311,125.822c0-0.457,0.033-1.179,0.132-1.651l-0.036-0.018c-0.456,1.097-1.454,1.814-2.726,1.814
		c-1.996,0-2.989-1.452-2.989-3.821c0-2.843,1.634-4.558,4.197-4.558c0.438,0,0.881,0.028,1.372,0.08v-3.771h1.471v11.926H299.311z
		 M299.262,118.928c-0.491-0.135-0.979-0.181-1.436-0.181c-1.552,0-2.581,0.929-2.581,3.263c0,1.75,0.573,2.748,1.792,2.748
		c1.471,0,2.224-1.715,2.224-3.139V118.928z"/>
	<path fill="#00467F" d="M308.431,125.822c0-0.49,0.048-1.226,0.13-1.716h-0.035c-0.473,1.109-1.466,1.86-2.855,1.86
		c-1.864,0-2.438-1.16-2.438-2.595v-5.671h1.457v5.226c0,1.162,0.327,1.832,1.39,1.832c1.337,0,2.317-1.376,2.317-3.168v-3.889
		h1.455v8.121H308.431z"/>
	<path fill="#00467F" d="M313.823,125.967c-0.619,0-1.291-0.068-1.797-0.21l0.133-1.309c0.522,0.212,1.191,0.323,1.798,0.323
		c1.044,0,1.765-0.472,1.765-1.239c0-1.832-3.776-0.688-3.776-3.542c0-1.389,1.079-2.437,3.234-2.437
		c0.494,0,1.079,0.063,1.568,0.167l-0.109,1.209c-0.479-0.165-1.046-0.247-1.588-0.247c-1.078,0-1.583,0.456-1.583,1.164
		c0,1.792,3.789,0.763,3.789,3.525C317.255,124.854,315.948,125.967,313.823,125.967"/>
	<path fill="#00467F" d="M321.96,125.95c-1.669,0-2.177-0.689-2.177-2.433v-4.678h-1.665v-1.138h1.665v-2.63l1.47-0.41v3.041h2.272
		v1.138h-2.272v4.151c0,1.343,0.248,1.7,1.164,1.7c0.374,0,0.735-0.049,1.025-0.13l0.147,1.209
		C323.117,125.886,322.481,125.95,321.96,125.95"/>
	<path fill="#00467F" d="M329.356,119.005c-1.715-0.311-2.531,0.952-2.531,3.548v3.269h-1.467v-8.12h1.419
		c0,0.509-0.05,1.254-0.181,1.926h0.036c0.338-1.127,1.172-2.237,2.789-2.077L329.356,119.005z"/>
	<path fill="#00467F" d="M334.496,126.505c-0.979,2.613-2.009,3.479-3.823,3.479c-0.293,0-0.684-0.046-0.947-0.099l0.163-1.308
		c0.262,0.089,0.671,0.134,0.982,0.134c0.832,0,1.552-0.41,2.14-2.008l0.324-0.881l-3.072-8.12h1.669l1.535,4.214
		c0.261,0.734,0.438,1.372,0.618,2.008h0.037c0.145-0.573,0.49-1.599,0.797-2.5l1.309-3.723h1.601L334.496,126.505z"/>
	<path fill="#00467F" d="M348.218,125.822l-3.612-4.951h-0.193v4.951h-1.507v-11.026c0.754-0.052,1.553-0.071,2.762-0.071
		c2.172,0,3.739,0.771,3.739,2.878c0,1.88-1.485,2.973-3.231,3.105c0.308,0.391,0.664,0.797,0.945,1.173l3.007,3.94H348.218z
		 M345.406,115.951c-0.375,0-0.701,0.018-0.993,0.037v3.753c0.163,0.018,0.49,0.033,0.928,0.033c1.584,0,2.5-0.799,2.5-1.973
		C347.841,116.475,347.011,115.951,345.406,115.951"/>
	<path fill="#00467F" d="M357.66,121.718h-5.314c-0.063,2.124,0.835,3.053,2.568,3.053c0.783,0,1.601-0.163,2.318-0.486l0.211,1.176
		c-0.816,0.326-1.798,0.506-2.808,0.506c-2.469,0-3.806-1.309-3.806-4.166c0-2.435,1.327-4.25,3.625-4.25
		c2.29,0,3.252,1.553,3.252,3.416C357.706,121.163,357.688,121.392,357.66,121.718 M354.39,118.631
		c-1.062,0-1.827,0.798-1.991,2.042h3.805C356.235,119.429,355.535,118.631,354.39,118.631"/>
	<path fill="#00467F" d="M362.799,130c-2.092,0-3.415-0.863-3.415-2.433c0-0.946,0.624-1.746,1.354-2.156
		c-0.491-0.211-0.799-0.668-0.799-1.208c0-0.575,0.361-1.111,0.898-1.372c-0.736-0.444-1.191-1.179-1.191-2.24
		c0-1.633,1.223-3.041,3.443-3.041c0.443,0,0.736,0.051,1.145,0.15h2.762v1.158h-1.338c0.404,0.327,0.653,0.868,0.653,1.504
		c0,1.666-1.13,2.938-3.43,2.938c-0.328,0-0.573-0.028-0.87-0.11c-0.34,0.162-0.521,0.425-0.521,0.687
		c0,0.457,0.407,0.586,1.39,0.637l1.486,0.048c1.745,0.063,2.727,0.88,2.727,2.351C367.094,128.628,365.343,130,362.799,130
		 M363.941,125.786l-1.569-0.064c-0.147,0-0.346,0-0.475-0.017c-0.637,0.438-1.042,0.98-1.042,1.6c0,0.968,0.915,1.536,2.187,1.536
		c1.652,0,2.563-0.749,2.563-1.746C365.606,126.313,365.086,125.822,363.941,125.786 M363.025,118.648
		c-1.227,0-1.926,0.781-1.926,1.81c0,1.132,0.671,1.786,1.88,1.786c1.155,0,1.874-0.653,1.874-1.786
		C364.853,119.348,364.204,118.648,363.025,118.648"/>
	<path fill="#00467F" d="M373.875,125.822c0-0.49,0.051-1.226,0.127-1.716h-0.028c-0.474,1.109-1.47,1.86-2.861,1.86
		c-1.861,0-2.435-1.16-2.435-2.595v-5.671h1.457v5.226c0,1.162,0.325,1.832,1.386,1.832c1.343,0,2.318-1.376,2.318-3.168v-3.889
		h1.458v8.121H373.875z"/>
	<rect x="378.073" y="113.896" fill="#00467F" width="1.471" height="11.924"/>
	<path fill="#00467F" d="M386.542,125.822c0-0.572,0-1.162,0.08-1.617h-0.034c-0.393,0.992-1.418,1.763-2.762,1.763
		c-1.337,0-2.253-0.887-2.253-2.189c0-1.75,1.78-2.794,4.887-2.794v-0.539c0-1.127-0.444-1.75-1.782-1.75
		c-0.77,0-1.696,0.246-2.351,0.605l-0.315-1.189c0.787-0.328,1.868-0.577,2.896-0.577c2.35,0,3.018,1.097,3.018,2.682v3.265
		c0,0.771,0.015,1.635,0.034,2.34H386.542z M386.459,122.011c-2.681,0-3.45,0.736-3.45,1.553c0,0.723,0.49,1.242,1.243,1.242
		c1.324,0,2.207-1.306,2.207-2.578V122.011z"/>
	<path fill="#00467F" d="M393.038,125.95c-1.664,0-2.171-0.689-2.171-2.433v-4.678h-1.663v-1.138h1.663v-2.63l1.472-0.41v3.041h2.27
		v1.138h-2.27v4.151c0,1.343,0.243,1.7,1.16,1.7c0.373,0,0.735-0.049,1.028-0.13l0.145,1.209
		C394.199,125.886,393.564,125.95,393.038,125.95"/>
	<path fill="#00467F" d="M399.219,125.969c-2.207,0-3.644-1.277-3.644-4.133c0-2.388,1.5-4.285,3.952-4.285
		c2.078,0,3.659,1.145,3.659,4.069C403.187,124.07,401.616,125.969,399.219,125.969 M399.399,118.776
		c-1.181,0-2.288,0.898-2.288,2.911c0,1.958,0.8,3.038,2.288,3.038c1.206,0,2.252-0.947,2.252-3.023
		C401.651,119.855,400.9,118.776,399.399,118.776"/>
	<path fill="#00467F" d="M409.228,119.005c-1.714-0.311-2.531,0.952-2.531,3.548v3.269h-1.468v-8.12h1.421
		c0,0.509-0.049,1.254-0.183,1.926h0.035c0.339-1.127,1.173-2.237,2.793-2.077L409.228,119.005z"/>
	<path fill="#00467F" d="M414.48,126.505c-0.979,2.613-2.013,3.479-3.822,3.479c-0.293,0-0.689-0.046-0.947-0.099l0.162-1.308
		c0.265,0.089,0.668,0.134,0.982,0.134c0.831,0,1.552-0.41,2.136-2.008l0.329-0.881l-3.072-8.12h1.669l1.535,4.214
		c0.26,0.734,0.44,1.372,0.621,2.008h0.032c0.149-0.573,0.487-1.599,0.802-2.5l1.301-3.723h1.606L414.48,126.505z"/>
	<path fill="#00467F" d="M429.715,125.822l-0.911-2.58h-4.688l-0.916,2.58h-1.535l4.018-11.026h1.668l4.052,11.026H429.715z
		 M426.942,117.977c-0.198-0.537-0.345-1.027-0.477-1.501h-0.03c-0.135,0.474-0.279,0.964-0.461,1.488l-1.466,4.083h3.903
		L426.942,117.977z"/>
	<path fill="#00467F" d="M437.982,125.822c0-0.49,0.046-1.226,0.135-1.716h-0.036c-0.474,1.109-1.472,1.86-2.858,1.86
		c-1.864,0-2.435-1.16-2.435-2.595v-5.671h1.452v5.226c0,1.162,0.327,1.832,1.391,1.832c1.341,0,2.316-1.376,2.316-3.168v-3.889
		h1.457v8.121H437.982z"/>
	<path fill="#00467F" d="M444.789,125.95c-1.668,0-2.175-0.689-2.175-2.433v-4.678h-1.664v-1.138h1.664v-2.63l1.47-0.41v3.041h2.272
		v1.138h-2.272v4.151c0,1.343,0.246,1.7,1.162,1.7c0.375,0,0.735-0.049,1.029-0.13l0.149,1.209
		C445.947,125.886,445.31,125.95,444.789,125.95"/>
	<path fill="#00467F" d="M453.291,125.822v-5.23c0-1.16-0.31-1.828-1.389-1.828c-1.336,0-2.301,1.372-2.301,3.168v3.89h-1.471
		v-11.926h1.471v3.853c0,0.525-0.032,1.192-0.149,1.617l0.034,0.017c0.471-1.109,1.472-1.832,2.825-1.832
		c1.862,0,2.451,1.161,2.451,2.598v5.673H453.291z"/>
	<path fill="#00467F" d="M460.412,125.969c-2.203,0-3.641-1.277-3.641-4.133c0-2.388,1.5-4.285,3.951-4.285
		c2.075,0,3.661,1.145,3.661,4.069C464.383,124.07,462.811,125.969,460.412,125.969 M460.595,118.776
		c-1.182,0-2.291,0.898-2.291,2.911c0,1.958,0.801,3.038,2.291,3.038c1.205,0,2.252-0.947,2.252-3.023
		C462.847,119.855,462.095,118.776,460.595,118.776"/>
	<path fill="#00467F" d="M470.423,119.005c-1.714-0.311-2.531,0.952-2.531,3.548v3.269h-1.468v-8.12h1.419
		c0,0.509-0.047,1.254-0.182,1.926h0.036c0.339-1.127,1.173-2.237,2.793-2.077L470.423,119.005z"/>
	<path fill="#00467F" d="M472.845,116.086c-0.538,0-0.979-0.41-0.979-0.951c0-0.538,0.44-0.964,0.979-0.964
		c0.539,0,0.979,0.426,0.979,0.964C473.824,115.658,473.384,116.086,472.845,116.086 M472.11,117.702h1.471v8.12h-1.471V117.702z"/>
	<path fill="#00467F" d="M478.857,125.95c-1.663,0-2.171-0.689-2.171-2.433v-4.678h-1.669v-1.138h1.669v-2.63l1.472-0.41v3.041h2.27
		v1.138h-2.27v4.151c0,1.343,0.238,1.7,1.16,1.7c0.373,0,0.729-0.049,1.028-0.13l0.147,1.209
		C480.019,125.886,479.384,125.95,478.857,125.95"/>
	<path fill="#00467F" d="M485.628,126.505c-0.983,2.613-2.009,3.479-3.826,3.479c-0.29,0-0.687-0.046-0.945-0.099l0.163-1.308
		c0.258,0.089,0.669,0.134,0.978,0.134c0.834,0,1.551-0.41,2.141-2.008l0.326-0.881l-3.069-8.12h1.666l1.534,4.214
		c0.261,0.734,0.443,1.372,0.622,2.008h0.03c0.151-0.573,0.49-1.599,0.804-2.5l1.304-3.723h1.604L485.628,126.505z"/>
</g>
</svg>
