<?xml version="1.0" encoding="UTF-8" standalone="no"?>
<!-- Generator: Adobe Illustrator 16.0.3, SVG Export Plug-In . SVG Version: 6.00 Build 0)  -->

<svg
   xmlns:dc="http://purl.org/dc/elements/1.1/"
   xmlns:cc="http://creativecommons.org/ns#"
   xmlns:rdf="http://www.w3.org/1999/02/22-rdf-syntax-ns#"
   xmlns:svg="http://www.w3.org/2000/svg"
   xmlns="http://www.w3.org/2000/svg"
   xmlns:sodipodi="http://sodipodi.sourceforge.net/DTD/sodipodi-0.dtd"
   xmlns:inkscape="http://www.inkscape.org/namespaces/inkscape"
   version="1.1"
   x="0px"
   y="0px"
   width="120"
   height="120"
   viewBox="0 0 120 120"
   enable-background="new 0 0 150 150"
   xml:space="preserve"
   id="svg2"
   inkscape:version="0.48.5 r10040"
   sodipodi:docname="lts.svg"><metadata
     id="metadata458"><rdf:RDF><cc:Work
         rdf:about=""><dc:format>image/svg+xml</dc:format><dc:type
           rdf:resource="http://purl.org/dc/dcmitype/StillImage" /></cc:Work></rdf:RDF></metadata><defs
     id="defs456" /><sodipodi:namedview
     pagecolor="#ffffff"
     bordercolor="#666666"
     borderopacity="1"
     objecttolerance="10"
     gridtolerance="10"
     guidetolerance="10"
     inkscape:pageopacity="0"
     inkscape:pageshadow="2"
     inkscape:window-width="640"
     inkscape:window-height="480"
     id="namedview454"
     showgrid="false"
     fit-margin-top="0"
     fit-margin-left="0"
     fit-margin-right="0"
     fit-margin-bottom="0"
     inkscape:zoom="1.5733333"
     inkscape:cx="60"
     inkscape:cy="60"
     inkscape:window-x="75"
     inkscape:window-y="34"
     inkscape:window-maximized="0"
     inkscape:current-layer="svg2" /><g
     id="guides"
     transform="translate(-15,-15)" /><g
     id="Layer_2"
     transform="translate(-15,-15)"><g
       id="g6"><g
         id="g8"><g
           id="g10"><path
             d="m 131.66,80.581 2.037,0.2 c 0.19,-1.923 0.283,-3.849 0.283,-5.781 h -2.049 c 10e-4,1.864 -0.087,3.726 -0.271,5.581 z"
             id="path12"
             inkscape:connector-curvature="0"
             style="fill:#182e6f" /></g><g
           id="g14"><path
             d="m 130.847,86.108 2.008,0.4 c 0.375,-1.896 0.657,-3.809 0.843,-5.726 l -2.037,-0.202 c -0.181,1.86 -0.453,3.703 -0.814,5.528 z"
             id="path16"
             inkscape:connector-curvature="0"
             style="fill:#182e6f" /></g><g
           id="g18"><path
             d="m 129.496,91.531 1.955,0.594 c 0.562,-1.847 1.03,-3.722 1.403,-5.616 l -2.008,-0.4 c -0.358,1.833 -0.814,3.639 -1.35,5.422 z"
             id="path20"
             inkscape:connector-curvature="0"
             style="fill:#182e6f" /></g><g
           id="g22"><path
             d="m 127.609,96.791 1.893,0.782 c 0.74,-1.779 1.389,-3.602 1.949,-5.447 l -1.955,-0.593 c -0.54,1.783 -1.168,3.539 -1.887,5.258 z"
             id="path24"
             inkscape:connector-curvature="0"
             style="fill:#182e6f" /></g><g
           id="g26"><path
             d="m 125.218,101.84 1.808,0.969 c 0.91,-1.705 1.736,-3.45 2.477,-5.235 l -1.893,-0.78 c -0.713,1.717 -1.51,3.404 -2.392,5.046 z"
             id="path28"
             inkscape:connector-curvature="0"
             style="fill:#182e6f" /></g><g
           id="g30"><path
             d="m 122.344,106.63 1.7,1.138 c 1.071,-1.604 2.071,-3.261 2.981,-4.958 l -1.808,-0.968 c -0.873,1.642 -1.838,3.237 -2.873,4.788 z"
             id="path32"
             inkscape:connector-curvature="0"
             style="fill:#182e6f" /></g><g
           id="g34"><path
             d="m 119.009,111.118 1.585,1.299 c 1.223,-1.495 2.378,-3.042 3.45,-4.648 l -1.701,-1.139 c -1.034,1.551 -2.152,3.047 -3.334,4.488 z"
             id="path36"
             inkscape:connector-curvature="0"
             style="fill:#182e6f" /></g><g
           id="g38"><path
             d="m 115.254,115.255 1.449,1.447 c 1.363,-1.362 2.664,-2.794 3.891,-4.284 l -1.586,-1.3 c -1.178,1.441 -2.435,2.822 -3.754,4.137 z"
             id="path40"
             inkscape:connector-curvature="0"
             style="fill:#182e6f" /></g><g
           id="g42"><path
             d="m 111.118,119.008 1.3,1.584 c 1.49,-1.229 2.922,-2.525 4.284,-3.889 l -1.448,-1.448 c -1.315,1.318 -2.694,2.577 -4.136,3.753 z"
             id="path44"
             inkscape:connector-curvature="0"
             style="fill:#182e6f" /></g><g
           id="g46"><path
             d="m 106.635,122.342 1.132,1.702 c 1.608,-1.073 3.155,-2.228 4.651,-3.452 l -1.301,-1.583 c -1.439,1.182 -2.935,2.299 -4.482,3.333 z"
             id="path48"
             inkscape:connector-curvature="0"
             style="fill:#182e6f" /></g><g
           id="g50"><path
             d="m 101.844,125.217 0.965,1.807 c 1.7,-0.91 3.357,-1.908 4.955,-2.979 l -1.132,-1.7 c -1.55,1.034 -3.148,1.996 -4.788,2.872 z"
             id="path52"
             inkscape:connector-curvature="0"
             style="fill:#182e6f" /></g><g
           id="g54"><path
             d="m 96.791,127.611 0.782,1.892 c 1.784,-0.741 3.53,-1.569 5.235,-2.479 l -0.965,-1.806 c -1.643,0.884 -3.332,1.679 -5.052,2.393 z"
             id="path56"
             inkscape:connector-curvature="0"
             style="fill:#182e6f" /></g><g
           id="g58"><path
             d="m 91.531,129.496 0.595,1.955 c 1.847,-0.559 3.668,-1.207 5.446,-1.948 l -0.781,-1.891 c -1.717,0.714 -3.476,1.346 -5.26,1.884 z"
             id="path60"
             inkscape:connector-curvature="0"
             style="fill:#182e6f" /></g><g
           id="g62"><path
             d="m 86.111,130.846 0.398,2.008 c 1.896,-0.373 3.771,-0.842 5.615,-1.402 l -0.595,-1.955 c -1.783,0.536 -3.589,0.989 -5.418,1.349 z"
             id="path64"
             inkscape:connector-curvature="0"
             style="fill:#182e6f" /></g><g
           id="g66"><path
             d="m 80.581,131.66 0.202,2.037 c 1.917,-0.186 3.832,-0.468 5.726,-0.844 l -0.398,-2.006 c -1.827,0.361 -3.671,0.634 -5.53,0.813 z"
             id="path68"
             inkscape:connector-curvature="0"
             style="fill:#182e6f" /></g><g
           id="g70"><path
             d="m 75.001,131.932 v 2.047 c 1.932,0 3.859,-0.092 5.781,-0.281 l -0.203,-2.037 c -1.851,0.181 -3.715,0.27 -5.578,0.271 z"
             id="path72"
             inkscape:connector-curvature="0"
             style="fill:#182e6f" /></g><g
           id="g74"><path
             d="m 80.5,130.765 0,0 c 1.824,-0.173 3.639,-0.441 5.438,-0.798 l 0,0 h 10e-4 c 0.001,0 0.002,-0.001 0.003,-0.001 l 0,0 c 1.793,-0.356 3.574,-0.8 5.326,-1.333 l 0,0 c 1.757,-0.529 3.483,-1.149 5.18,-1.853 l 0,0 c 0.001,0 0.002,0 0.005,0 l 0,0 0,0 c 1.691,-0.703 3.346,-1.486 4.966,-2.354 l 0,0 c 1.615,-0.862 3.186,-1.809 4.71,-2.832 l 0,0 h 10e-4 c 0.001,-10e-4 0.002,-0.002 0.003,-0.002 l 0,0 c 1.522,-1.018 2.999,-2.115 4.415,-3.277 l 0,0 c 1.418,-1.164 2.777,-2.396 4.073,-3.693 l 0,0 c 0.001,0 0.002,-0.001 0.002,-0.001 10e-4,0 10e-4,0 0.002,0 l 0,0 c 1.296,-1.299 2.529,-2.657 3.691,-4.074 l 0,0 c 1.164,-1.418 2.261,-2.895 3.275,-4.418 l 0,0 0,0 c 0.003,0 0.003,-0.001 0.003,-0.001 v -0.001 c 1.024,-1.522 1.97,-3.094 2.832,-4.707 l 0,0 h 0.001 c 0,-0.002 10e-4,-0.003 10e-4,-0.003 l 0,0 c 0.864,-1.621 1.65,-3.273 2.352,-4.969 l 0,0 0.001,-10e-4 c 0,-0.001 10e-4,-0.002 10e-4,-0.003 l 0,0 c 0.702,-1.696 1.323,-3.423 1.852,-5.179 l 0,0 c 0.533,-1.751 0.978,-3.533 1.335,-5.327 l 0,0 c 0,-0.001 0,-0.001 0,-0.001 v -0.002 l 0,0 c 0.354,-1.8 0.623,-3.612 0.796,-5.44 h 0.001 c 0.18,-1.823 0.269,-3.661 0.269,-5.494 l 0,0 c 0,-0.001 0,-0.002 0,-0.003 l 0,0 0,0 c 0,-1.833 -0.089,-3.67 -0.27,-5.492 h 0.001 c -0.174,-1.828 -0.444,-3.643 -0.797,-5.442 l 0,0 v -0.002 c 0,-10e-4 0,-0.002 0,-0.003 l 0,0 c -0.359,-1.793 -0.803,-3.573 -1.336,-5.327 l 0,0 c -0.528,-1.754 -1.15,-3.482 -1.853,-5.179 l 0,0 c 0,0 0,0 -0.001,0 0,0 0,-10e-4 -10e-4,-0.003 l 0,0 c -0.701,-1.693 -1.485,-3.349 -2.353,-4.968 l 0,0 c 0,0 0,-10e-4 -10e-4,-0.002 0,0 0,-10e-4 -0.001,-10e-4 l 0,0 c -0.859,-1.615 -1.807,-3.184 -2.832,-4.707 l 0,0 V 43.87 c 0,-10e-4 0,-10e-4 0,-0.003 l 0,0 c -1.02,-1.523 -2.116,-2.999 -3.281,-4.419 l 0,0 c -1.162,-1.416 -2.393,-2.772 -3.689,-4.069 l 0,0 c -10e-4,-10e-4 -10e-4,-0.002 -0.002,-0.002 l -0.001,-0.002 0,0 c -1.297,-1.298 -2.657,-2.527 -4.074,-3.691 l 0,0 c -1.417,-1.163 -2.896,-2.26 -4.421,-3.28 l 0,0 c -1.521,-1.022 -3.091,-1.968 -4.705,-2.829 v -10e-4 c -0.001,0 -0.001,-0.001 -0.004,-0.001 l 0,0 v -0.001 c -1.619,-0.867 -3.271,-1.65 -4.967,-2.352 l 0,0 c 0,0 0,-10e-4 -0.001,-10e-4 -0.001,0 -0.002,0 -0.003,-0.001 l 0,0 c -1.695,-0.701 -3.421,-1.32 -5.175,-1.851 l 0,0 0,0 c -0.001,-0.001 -0.001,-0.001 -0.002,-0.001 l 0,0 c -1.755,-0.534 -3.535,-0.978 -5.329,-1.332 v -10e-4 c -10e-4,0 -10e-4,0 -0.003,0 -10e-4,0 -10e-4,0 -0.002,0 l 0,0 c -1.799,-0.356 -3.613,-0.624 -5.441,-0.799 l 0,0 C 78.668,19.053 76.831,18.967 75,18.967 l 0,0 c -0.001,0 -0.002,0 -0.003,0 0,0 0,0 -0.002,0 l 0,0 c -1.831,0 -3.668,0.087 -5.49,0.267 l 0,0 c -10e-4,0 -10e-4,10e-4 -0.002,10e-4 0,0 0,0 -0.002,0 l 0,0 c -1.825,0.174 -3.64,0.441 -5.438,0.799 l 0,0 h -0.002 c -0.001,0.001 -0.002,0.001 -0.003,0.002 l 0,0 c -1.793,0.354 -3.573,0.798 -5.327,1.331 l 0,0 c 0,0 -0.002,10e-4 -0.003,10e-4 l -0.001,0.001 0,0 c -1.754,0.528 -3.479,1.147 -5.175,1.851 l 0,0 0,0 c 0,0 -10e-4,0 -0.003,0 l 0,0 c -1.693,0.703 -3.349,1.487 -4.968,2.354 l 0,0 c -1.615,0.861 -3.186,1.809 -4.71,2.832 l 0,0 -0.001,0.001 c -10e-4,0.001 -10e-4,0.001 -0.003,0.002 l 0,0 c -1.522,1.018 -3,2.114 -4.415,3.276 l 0,0 c -1.418,1.165 -2.776,2.396 -4.073,3.693 l 0,0 c -10e-4,10e-4 -0.002,10e-4 -0.002,10e-4 h -0.001 -10e-4 c -1.296,1.298 -2.525,2.654 -3.69,4.073 l 0,0 c 0,0 0,0 0,0.001 0,0 0,0 -10e-4,0 l 0,0 c -1.164,1.418 -2.26,2.895 -3.277,4.418 l 0,0 c 0,0 -0.002,0 -0.003,0 v 0.002 l 0,0 c -1.022,1.523 -1.968,3.094 -2.829,4.707 h -10e-4 c -0.001,0 -0.001,0.002 -0.001,0.003 H 25.57 l 0,0 c -0.866,1.621 -1.649,3.273 -2.351,4.969 l 0,0 -0.001,0.002 c 0,10e-4 -0.001,0.002 -0.001,0.002 l 0,0 c -0.701,1.695 -1.321,3.421 -1.851,5.174 l 0,0 c 0,0.001 0,0.002 0,0.003 -0.002,0.001 -0.002,0.002 -0.002,0.002 l 0,0 c -0.533,1.752 -0.977,3.533 -1.331,5.327 h -0.001 c 0,0.001 0,0.001 0,0.001 0,0 0,10e-4 0,0.002 l 0,0 c -0.356,1.8 -0.625,3.612 -0.799,5.44 l 0,0 c 0,0 0,0.001 0,0.002 0,10e-4 0,10e-4 0,10e-4 l 0,0 c -0.181,1.821 -0.268,3.66 -0.268,5.491 l 0,0 c 0,0 0,0.002 0,0.003 l 0,0 0,0 c 0,1.834 0.088,3.671 0.268,5.493 l 0,0 c 0.001,0 0.001,10e-4 0.001,10e-4 l 0,0 0,0 c 0.173,1.827 0.441,3.642 0.799,5.441 l 0,0 v 0.001 c 10e-4,0.002 10e-4,0.002 10e-4,0.003 l 0,0 c 0.355,1.793 0.799,3.574 1.332,5.328 l 0,0 0.001,10e-4 c 0,0 10e-4,0.001 10e-4,0.002 l 0,0 c 0.527,1.754 1.147,3.479 1.851,5.175 l 0,0 0,0 c 0,0 0,10e-4 0,0.003 l 0,0 c 0.703,1.693 1.487,3.349 2.354,4.968 l 0,0 c 0.861,1.615 1.809,3.186 2.832,4.71 l 0,0 c 1.018,1.523 2.115,3.002 3.279,4.42 l 0,0 c 1.164,1.417 2.396,2.775 3.693,4.072 l 0,0 c 0,10e-4 10e-4,0.002 10e-4,0.002 v 0.002 l 0,0 c 1.299,1.298 2.657,2.527 4.074,3.691 l 0,0 c 1.418,1.164 2.895,2.26 4.418,3.277 l 0,0 0,0 0.002,0.003 0,0 c 1.523,1.022 3.094,1.968 4.707,2.83 l 0,0 v 0.001 c 0.002,0 0.003,0 0.003,0.002 l 0,0 c 1.621,0.865 3.273,1.649 4.969,2.351 l 0,0 c 0,0.001 0.002,0.001 0.002,0.001 l 0.002,0.001 0,0 c 1.695,0.701 3.421,1.321 5.174,1.851 l 0,0 c 1.755,0.534 3.537,0.978 5.332,1.334 l 0,0 c 10e-4,0 10e-4,0 10e-4,0 0,0 0.001,0 0.002,0 l 0,0 c 1.801,0.356 3.615,0.625 5.443,0.799 l 0,0 c 1.823,0.182 3.66,0.268 5.491,0.268 l 0,0 c 1.837,0 3.677,-0.086 5.502,-0.268 z M 53.604,126.67 c -1.692,-0.701 -3.348,-1.482 -4.96,-2.35 -1.611,-0.863 -3.186,-1.805 -4.705,-2.826 -1.521,-1.017 -2.99,-2.111 -4.405,-3.273 l 0,0 c -1.415,-1.16 -2.775,-2.388 -4.069,-3.684 -1.295,-1.294 -2.522,-2.653 -3.684,-4.069 -1.161,-1.414 -2.256,-2.882 -3.271,-4.401 l 0,0 c -1.022,-1.521 -1.967,-3.095 -2.829,-4.707 -0.864,-1.611 -1.647,-3.268 -2.349,-4.961 -0.7,-1.687 -1.318,-3.41 -1.847,-5.165 -0.533,-1.75 -0.976,-3.522 -1.331,-5.318 -0.355,-1.798 -0.623,-3.605 -0.797,-5.432 -0.181,-1.817 -0.268,-3.651 -0.268,-5.48 l 0,0 c 0,-1.828 0.086,-3.663 0.267,-5.483 0.175,-1.824 0.442,-3.634 0.796,-5.43 0.356,-1.798 0.799,-3.569 1.332,-5.32 0.527,-1.756 1.146,-3.48 1.846,-5.166 0.702,-1.692 1.482,-3.347 2.35,-4.959 0.863,-1.612 1.805,-3.187 2.827,-4.707 1.016,-1.519 2.109,-2.987 3.271,-4.401 l 0,0 c 1.162,-1.413 2.39,-2.775 3.684,-4.069 l 0,0 c 1.295,-1.295 2.655,-2.524 4.071,-3.685 1.415,-1.163 2.883,-2.257 4.402,-3.275 1.521,-1.02 3.093,-1.963 4.704,-2.823 l 0,0 c 1.611,-0.867 3.27,-1.649 4.963,-2.352 l 0,0 c 1.687,-0.7 3.41,-1.317 5.165,-1.847 1.75,-0.533 3.522,-0.976 5.318,-1.331 1.795,-0.355 3.605,-0.622 5.428,-0.797 l 0,0 c 1.82,-0.181 3.654,-0.268 5.482,-0.268 l 0,0 c 1.832,0 3.665,0.086 5.484,0.267 1.824,0.175 3.635,0.442 5.431,0.797 1.798,0.355 3.571,0.798 5.321,1.331 1.756,0.528 3.478,1.146 5.164,1.847 1.692,0.7 3.35,1.482 4.962,2.35 1.611,0.862 3.184,1.805 4.705,2.826 l 0,0 c 1.521,1.017 2.989,2.109 4.401,3.271 1.415,1.162 2.775,2.389 4.071,3.686 1.295,1.292 2.521,2.652 3.684,4.066 l 0,0 c 1.16,1.415 2.256,2.882 3.27,4.403 l 0,0 c 1.023,1.521 1.969,3.095 2.828,4.707 0.867,1.609 1.65,3.267 2.351,4.958 0.7,1.688 1.323,3.413 1.848,5.169 l 0,0 c 0.533,1.75 0.976,3.521 1.332,5.317 0.356,1.796 0.621,3.605 0.798,5.429 l 0,0 c 0.18,1.82 0.266,3.654 0.266,5.483 0,1.829 -0.086,3.663 -0.266,5.481 l 0,0 c -0.176,1.825 -0.441,3.635 -0.797,5.432 -0.356,1.798 -0.799,3.568 -1.331,5.32 l 0,0 c -0.526,1.756 -1.147,3.479 -1.848,5.166 -0.7,1.692 -1.482,3.348 -2.35,4.96 -0.862,1.612 -1.804,3.186 -2.825,4.704 -1.017,1.521 -2.111,2.989 -3.271,4.403 l 0,0 c -1.16,1.414 -2.391,2.777 -3.684,4.071 -1.296,1.295 -2.66,2.523 -4.072,3.685 l 0,0 c -1.412,1.161 -2.883,2.257 -4.403,3.272 -1.52,1.021 -3.091,1.965 -4.704,2.826 -1.613,0.865 -3.266,1.648 -4.959,2.349 -1.686,0.7 -3.412,1.319 -5.164,1.847 l 0,0 c -1.753,0.534 -3.524,0.977 -5.321,1.332 -1.796,0.355 -3.606,0.623 -5.432,0.797 l 0,0 c -1.818,0.182 -3.652,0.268 -5.48,0.268 -1.83,0 -3.666,-0.086 -5.485,-0.268 l 0,0 c -1.823,-0.174 -3.633,-0.441 -5.428,-0.795 -1.798,-0.357 -3.569,-0.799 -5.321,-1.332 l 0,0 c -1.757,-0.528 -3.481,-1.147 -5.166,-1.846 z"
             id="path76"
             inkscape:connector-curvature="0"
             style="fill:#182e6f" /></g><g
           id="g78"><path
             d="m 69.219,133.697 c 1.922,0.189 3.849,0.281 5.781,0.281 v -2.047 c -1.864,-0.001 -3.726,-0.09 -5.579,-0.271 l -0.202,2.037 z"
             id="path80"
             inkscape:connector-curvature="0"
             style="fill:#182e6f" /></g><g
           id="g82"><path
             d="m 63.892,130.848 -0.4,2.006 c 1.895,0.376 3.809,0.658 5.726,0.844 l 0.202,-2.037 c -1.86,-0.18 -3.703,-0.453 -5.528,-0.813 z"
             id="path84"
             inkscape:connector-curvature="0"
             style="fill:#182e6f" /></g><g
           id="g86"><path
             d="m 58.469,129.496 -0.594,1.955 c 1.847,0.561 3.722,1.029 5.616,1.402 l 0.4,-2.008 c -1.833,-0.359 -3.639,-0.812 -5.422,-1.349 z"
             id="path88"
             inkscape:connector-curvature="0"
             style="fill:#182e6f" /></g><g
           id="g90"><path
             d="m 53.209,127.612 -0.782,1.891 c 1.779,0.741 3.602,1.39 5.447,1.948 l 0.594,-1.955 c -1.784,-0.538 -3.54,-1.17 -5.259,-1.884 z"
             id="path92"
             inkscape:connector-curvature="0"
             style="fill:#182e6f" /></g><g
           id="g94"><path
             d="m 48.16,125.218 -0.969,1.806 c 1.705,0.91 3.45,1.738 5.235,2.479 l 0.781,-1.892 c -1.718,-0.714 -3.405,-1.509 -5.047,-2.393 z"
             id="path96"
             inkscape:connector-curvature="0"
             style="fill:#182e6f" /></g><g
           id="g98"><path
             d="m 43.37,122.344 -1.138,1.7 c 1.604,1.071 3.261,2.069 4.959,2.979 l 0.967,-1.807 c -1.642,-0.875 -3.237,-1.837 -4.788,-2.872 z"
             id="path100"
             inkscape:connector-curvature="0"
             style="fill:#182e6f" /></g><g
           id="g102"><path
             d="m 38.882,119.01 -1.299,1.582 c 1.495,1.225 3.042,2.38 4.648,3.452 l 1.139,-1.701 c -1.551,-1.035 -3.048,-2.152 -4.488,-3.333 z"
             id="path104"
             inkscape:connector-curvature="0"
             style="fill:#182e6f" /></g><g
           id="g106"><path
             d="m 34.745,115.255 -1.447,1.448 c 1.362,1.363 2.795,2.661 4.284,3.889 l 1.3,-1.584 c -1.441,-1.176 -2.822,-2.435 -4.137,-3.753 z"
             id="path108"
             inkscape:connector-curvature="0"
             style="fill:#182e6f" /></g><g
           id="g110"><path
             d="m 30.992,111.118 -1.583,1.3 c 1.228,1.49 2.524,2.922 3.888,4.284 l 1.448,-1.447 c -1.317,-1.314 -2.577,-2.696 -3.753,-4.137 z"
             id="path112"
             inkscape:connector-curvature="0"
             style="fill:#182e6f" /></g><g
           id="g114"><path
             d="m 27.658,106.63 -1.701,1.139 c 1.072,1.606 2.227,3.153 3.451,4.649 l 1.583,-1.3 c -1.182,-1.441 -2.298,-2.937 -3.333,-4.488 z"
             id="path116"
             inkscape:connector-curvature="0"
             style="fill:#182e6f" /></g><g
           id="g118"><path
             d="m 24.783,101.842 -1.806,0.969 c 0.909,1.696 1.907,3.354 2.979,4.958 l 1.699,-1.139 c -1.034,-1.55 -1.995,-3.146 -2.872,-4.788 z"
             id="path120"
             inkscape:connector-curvature="0"
             style="fill:#182e6f" /></g><g
           id="g122"><path
             d="m 22.388,96.794 -1.891,0.78 c 0.741,1.784 1.569,3.529 2.479,5.234 l 1.806,-0.968 c -0.883,-1.642 -1.679,-3.329 -2.394,-5.046 z"
             id="path124"
             inkscape:connector-curvature="0"
             style="fill:#182e6f" /></g><g
           id="g126"><path
             d="m 20.504,91.534 -1.955,0.592 c 0.559,1.847 1.207,3.668 1.948,5.447 l 1.89,-0.782 c -0.713,-1.719 -1.345,-3.475 -1.883,-5.257 z"
             id="path128"
             inkscape:connector-curvature="0"
             style="fill:#182e6f" /></g><g
           id="g130"><path
             d="m 19.154,86.109 -2.008,0.4 c 0.373,1.894 0.842,3.769 1.402,5.615 l 1.955,-0.594 c -0.537,-1.781 -0.991,-3.588 -1.349,-5.421 z"
             id="path132"
             inkscape:connector-curvature="0"
             style="fill:#182e6f" /></g><g
           id="g134"><path
             d="m 18.34,80.581 -2.037,0.202 c 0.185,1.918 0.468,3.83 0.844,5.726 l 2.006,-0.4 C 18.792,84.284 18.519,82.44 18.34,80.581 z"
             id="path136"
             inkscape:connector-curvature="0"
             style="fill:#182e6f" /></g><g
           id="g138"><path
             d="m 18.07,75.001 h -2.049 c 0,1.932 0.092,3.858 0.281,5.781 l 2.037,-0.201 C 18.158,78.726 18.07,76.864 18.07,75.001 z"
             id="path140"
             inkscape:connector-curvature="0"
             style="fill:#182e6f" /></g><g
           id="g142"><path
             d="m 18.34,69.419 -2.037,-0.2 C 16.114,71.142 16.022,73.068 16.022,75 h 2.049 c -0.001,-1.863 0.087,-3.726 0.269,-5.581 z"
             id="path144"
             inkscape:connector-curvature="0"
             style="fill:#182e6f" /></g><g
           id="g146"><path
             d="m 19.152,63.892 -2.006,-0.4 c -0.376,1.896 -0.659,3.809 -0.844,5.726 l 2.037,0.202 c 0.18,-1.86 0.453,-3.703 0.813,-5.528 z"
             id="path148"
             inkscape:connector-curvature="0"
             style="fill:#182e6f" /></g><g
           id="g150"><path
             d="m 20.504,58.469 -1.955,-0.594 c -0.561,1.847 -1.029,3.722 -1.402,5.616 l 2.008,0.4 c 0.357,-1.833 0.811,-3.639 1.349,-5.422 z"
             id="path152"
             inkscape:connector-curvature="0"
             style="fill:#182e6f" /></g><g
           id="g154"><path
             d="m 22.387,53.209 -1.89,-0.782 c -0.741,1.779 -1.39,3.602 -1.948,5.447 l 1.955,0.594 c 0.538,-1.784 1.17,-3.54 1.883,-5.259 z"
             id="path156"
             inkscape:connector-curvature="0"
             style="fill:#182e6f" /></g><g
           id="g158"><path
             d="m 24.782,48.16 -1.806,-0.969 c -0.91,1.705 -1.738,3.45 -2.479,5.235 l 1.891,0.781 c 0.715,-1.718 1.511,-3.405 2.394,-5.047 z"
             id="path160"
             inkscape:connector-curvature="0"
             style="fill:#182e6f" /></g><g
           id="g162"><path
             d="m 27.656,43.37 -1.699,-1.138 c -1.072,1.604 -2.07,3.261 -2.98,4.959 l 1.807,0.967 c 0.876,-1.642 1.837,-3.237 2.872,-4.788 z"
             id="path164"
             inkscape:connector-curvature="0"
             style="fill:#182e6f" /></g><g
           id="g166"><path
             d="m 30.991,38.882 -1.583,-1.299 c -1.225,1.495 -2.379,3.042 -3.451,4.648 l 1.7,1.139 c 1.036,-1.551 2.152,-3.047 3.334,-4.488 z"
             id="path168"
             inkscape:connector-curvature="0"
             style="fill:#182e6f" /></g><g
           id="g170"><path
             d="m 34.745,34.745 -1.448,-1.447 c -1.363,1.362 -2.66,2.795 -3.889,4.284 l 1.584,1.3 c 1.176,-1.441 2.435,-2.822 3.753,-4.137 z"
             id="path172"
             inkscape:connector-curvature="0"
             style="fill:#182e6f" /></g><g
           id="g174"><path
             d="m 38.882,30.992 -1.3,-1.583 c -1.49,1.229 -2.922,2.524 -4.284,3.888 l 1.447,1.448 c 1.314,-1.317 2.696,-2.576 4.137,-3.753 z"
             id="path176"
             inkscape:connector-curvature="0"
             style="fill:#182e6f" /></g><g
           id="g178"><path
             d="m 43.37,27.658 -1.139,-1.701 c -1.606,1.072 -3.153,2.227 -4.648,3.451 l 1.299,1.583 c 1.44,-1.182 2.937,-2.297 4.488,-3.333 z"
             id="path180"
             inkscape:connector-curvature="0"
             style="fill:#182e6f" /></g><g
           id="g182"><path
             d="M 48.158,24.783 47.19,22.977 c -1.697,0.909 -3.355,1.907 -4.958,2.979 l 1.138,1.699 c 1.55,-1.034 3.146,-1.994 4.788,-2.872 z"
             id="path184"
             inkscape:connector-curvature="0"
             style="fill:#182e6f" /></g><g
           id="g186"><path
             d="m 53.207,22.388 -0.78,-1.891 c -1.785,0.741 -3.53,1.569 -5.235,2.479 l 0.969,1.806 c 1.641,-0.883 3.328,-1.679 5.046,-2.394 z"
             id="path188"
             inkscape:connector-curvature="0"
             style="fill:#182e6f" /></g><g
           id="g190"><path
             d="m 58.467,20.505 -0.593,-1.956 c -1.847,0.559 -3.668,1.207 -5.447,1.948 l 0.782,1.89 c 1.719,-0.713 3.475,-1.345 5.258,-1.882 z"
             id="path192"
             inkscape:connector-curvature="0"
             style="fill:#182e6f" /></g><g
           id="g194"><path
             d="m 63.891,19.154 -0.4,-2.007 c -1.894,0.372 -3.769,0.841 -5.615,1.401 l 0.594,1.956 c 1.781,-0.538 3.588,-0.992 5.421,-1.35 z"
             id="path196"
             inkscape:connector-curvature="0"
             style="fill:#182e6f" /></g><g
           id="g198"><path
             d="m 69.419,18.34 -0.202,-2.037 c -1.917,0.185 -3.831,0.468 -5.726,0.845 l 0.4,2.006 c 1.825,-0.362 3.669,-0.635 5.528,-0.814 z"
             id="path200"
             inkscape:connector-curvature="0"
             style="fill:#182e6f" /></g><g
           id="g202"><path
             d="m 74.999,18.07 v -2.049 c -1.932,0 -3.858,0.093 -5.781,0.281 l 0.201,2.037 c 1.855,-0.181 3.717,-0.269 5.58,-0.269 z"
             id="path204"
             inkscape:connector-curvature="0"
             style="fill:#182e6f" /></g><g
           id="g206"><path
             d="M 80.781,16.303 C 78.86,16.115 76.932,16.022 75.001,16.022 L 75,18.07 c 1.864,0 3.728,0.088 5.579,0.27 l 0.202,-2.037 z"
             id="path208"
             inkscape:connector-curvature="0"
             style="fill:#182e6f" /></g><g
           id="g210"><path
             d="m 86.108,19.153 0.4,-2.006 c -1.894,-0.377 -3.809,-0.66 -5.726,-0.845 l -0.202,2.037 c 1.86,0.18 3.703,0.453 5.528,0.814 z"
             id="path212"
             inkscape:connector-curvature="0"
             style="fill:#182e6f" /></g><g
           id="g214"><path
             d="m 91.53,20.505 0.595,-1.956 C 90.278,17.988 88.403,17.52 86.509,17.148 l -0.397,2.007 c 1.827,0.357 3.634,0.811 5.418,1.35 z"
             id="path216"
             inkscape:connector-curvature="0"
             style="fill:#182e6f" /></g><g
           id="g218"><path
             d="m 96.791,22.387 0.78,-1.89 c -1.777,-0.741 -3.6,-1.39 -5.445,-1.948 l -0.595,1.956 c 1.784,0.537 3.543,1.169 5.26,1.882 z"
             id="path220"
             inkscape:connector-curvature="0"
             style="fill:#182e6f" /></g><g
           id="g222"><path
             d="m 101.844,24.782 0.965,-1.806 c -1.705,-0.91 -3.451,-1.738 -5.235,-2.479 l -0.782,1.891 c 1.718,0.715 3.407,1.511 5.052,2.394 z"
             id="path224"
             inkscape:connector-curvature="0"
             style="fill:#182e6f" /></g><g
           id="g226"><path
             d="m 106.631,27.656 1.133,-1.699 c -1.598,-1.072 -3.255,-2.07 -4.955,-2.98 l -0.965,1.807 c 1.64,0.876 3.238,1.837 4.787,2.872 z"
             id="path228"
             inkscape:connector-curvature="0"
             style="fill:#182e6f" /></g><g
           id="g230"><path
             d="m 111.117,30.991 1.301,-1.583 c -1.496,-1.225 -3.043,-2.379 -4.651,-3.451 l -1.135,1.7 c 1.549,1.037 3.045,2.152 4.485,3.334 z"
             id="path232"
             inkscape:connector-curvature="0"
             style="fill:#182e6f" /></g><g
           id="g234"><path
             d="m 115.254,34.745 1.447,-1.448 c -1.361,-1.363 -2.794,-2.659 -4.283,-3.889 l -1.3,1.584 c 1.442,1.177 2.821,2.435 4.136,3.753 z"
             id="path236"
             inkscape:connector-curvature="0"
             style="fill:#182e6f" /></g><g
           id="g238"><path
             d="m 119.008,38.882 1.586,-1.3 c -1.227,-1.49 -2.527,-2.922 -3.891,-4.284 l -1.449,1.447 c 1.319,1.314 2.576,2.696 3.754,4.137 z"
             id="path240"
             inkscape:connector-curvature="0"
             style="fill:#182e6f" /></g><g
           id="g242"><path
             d="m 122.343,43.37 1.701,-1.139 c -1.072,-1.606 -2.228,-3.153 -3.45,-4.648 l -1.585,1.299 c 1.182,1.441 2.3,2.937 3.334,4.488 z"
             id="path244"
             inkscape:connector-curvature="0"
             style="fill:#182e6f" /></g><g
           id="g246"><path
             d="m 125.217,48.158 1.809,-0.968 c -0.91,-1.697 -1.91,-3.355 -2.981,-4.958 l -1.7,1.138 c 1.034,1.55 1.999,3.146 2.872,4.788 z"
             id="path248"
             inkscape:connector-curvature="0"
             style="fill:#182e6f" /></g><g
           id="g250"><path
             d="m 127.609,53.207 1.893,-0.78 c -0.74,-1.785 -1.566,-3.53 -2.477,-5.235 l -1.808,0.969 c 0.883,1.641 1.68,3.328 2.392,5.046 z"
             id="path252"
             inkscape:connector-curvature="0"
             style="fill:#182e6f" /></g><g
           id="g254"><path
             d="m 129.495,58.467 1.956,-0.593 c -0.561,-1.847 -1.209,-3.668 -1.949,-5.447 l -1.893,0.782 c 0.719,1.719 1.347,3.475 1.886,5.258 z"
             id="path256"
             inkscape:connector-curvature="0"
             style="fill:#182e6f" /></g><g
           id="g258"><path
             d="m 130.847,63.891 2.008,-0.399 c -0.373,-1.895 -0.842,-3.77 -1.403,-5.616 l -1.955,0.594 c 0.535,1.781 0.991,3.588 1.35,5.421 z"
             id="path260"
             inkscape:connector-curvature="0"
             style="fill:#182e6f" /></g><g
           id="g262"><path
             d="m 131.66,69.419 2.037,-0.202 c -0.186,-1.918 -0.468,-3.83 -0.843,-5.726 l -2.008,0.4 c 0.362,1.825 0.634,3.669 0.814,5.528 z"
             id="path264"
             inkscape:connector-curvature="0"
             style="fill:#182e6f" /></g><g
           id="g266"><path
             d="m 131.66,69.419 c 0.184,1.855 0.271,3.717 0.271,5.58 h 2.049 c 0,-1.932 -0.093,-3.858 -0.283,-5.78 l -2.037,0.2 z"
             id="path268"
             inkscape:connector-curvature="0"
             style="fill:#182e6f" /></g><g
           id="g270"><path
             d="m 135,74.997 0,0 0,0 c -0.001,-1.96 -0.095,-3.923 -0.287,-5.878 l 0,0 0,0 c 0,-0.003 0,-0.003 0,-0.003 v -0.001 c -0.188,-1.951 -0.475,-3.899 -0.853,-5.821 h 10e-4 C 133.476,61.363 133,59.458 132.427,57.577 l 0,0 c -0.566,-1.88 -1.232,-3.729 -1.979,-5.544 l 0,0 c 0,-0.001 -0.001,-0.002 -0.001,-0.003 l -0.001,-0.002 0,0 c -0.755,-1.813 -1.598,-3.586 -2.526,-5.322 l 0,0 c 0,0 0,0 0,-0.001 v -10e-4 l 0,0 c -0.925,-1.729 -1.936,-3.409 -3.029,-5.044 l 0,0 c -1.089,-1.634 -2.261,-3.207 -3.51,-4.724 l 0,0 c -0.001,-10e-4 -0.002,-0.002 -0.002,-0.002 -0.001,-10e-4 -0.002,-0.002 -0.002,-0.002 v -0.001 c -1.242,-1.515 -2.564,-2.972 -3.949,-4.357 l 0,0 c -1.39,-1.389 -2.848,-2.71 -4.361,-3.955 l 0,0 c 0,0 -0.003,-0.001 -0.004,-0.001 0,0 -0.001,0 -0.002,0 l 0,0 c -1.517,-1.25 -3.09,-2.421 -4.721,-3.51 l 0,0 0,0 c 0,0 -0.001,-0.001 -0.003,-0.002 l 0,0 c -1.636,-1.094 -3.315,-2.103 -5.048,-3.03 l 0,0 v -0.001 l 0,0 0,0 c -1.734,-0.926 -3.506,-1.769 -5.323,-2.521 l 0,0 c -10e-4,0 -0.002,-10e-4 -0.003,-0.003 l 0,0 0,0 c -1.811,-0.748 -3.665,-1.414 -5.545,-1.983 l 0,0 c -0.001,0 -0.003,0 -0.004,0 h -0.001 l 0,0 C 90.537,17 88.633,16.523 86.705,16.142 l 0,0 c -1.923,-0.38 -3.873,-0.667 -5.825,-0.854 l 0,0 c 0,0 -10e-4,0 -0.002,0 -0.002,0 -0.002,0 -0.002,0 l 0,0 C 78.925,15.093 76.958,15 75,15 l 0,0 c -0.001,0 -0.002,0 -0.003,0 0,0 -0.002,0 -0.003,0 l 0,0 c -1.958,0 -3.92,0.093 -5.874,0.287 l 0,0 c -0.002,0 -0.004,0 -0.004,0 h -0.001 l 0,0 c -1.953,0.189 -3.9,0.475 -5.824,0.854 l 0,0 c -1.929,0.382 -3.833,0.858 -5.71,1.426 l 0,0 H 57.58 c -10e-4,0 -0.003,0.001 -0.003,0.001 v 10e-4 c -1.88,0.569 -3.729,1.235 -5.544,1.984 l 0,0 c -0.001,0 -0.002,0 -0.003,0 0,0 -10e-4,0 -0.002,0 l 0,0 c -1.813,0.755 -3.586,1.598 -5.322,2.523 l 0,0 c 0,0 0,0.001 -0.001,0.002 l -10e-4,0.001 0,0 c -1.729,0.927 -3.409,1.936 -5.044,3.028 l 0,0 c 0,0 0,0.002 0,0.003 l 0,0 0,0 c -1.635,1.087 -3.209,2.259 -4.724,3.508 l 0,0 c -10e-4,0.001 -10e-4,0.002 -10e-4,0.002 -0.002,10e-4 -0.002,0.002 -0.004,0.002 l 0,0 c -1.515,1.243 -2.972,2.564 -4.357,3.952 l 0,0 c -0.002,0 -0.002,0 -0.002,0 l -0.002,0.001 0,0 c -1.387,1.387 -2.707,2.845 -3.951,4.361 l 0,0 -0.002,10e-4 v 0.001 l 0,0 c -1.249,1.515 -2.421,3.09 -3.509,4.722 l 0,0 c 0,0 0,0 -0.001,0 0,0 0,0.001 -10e-4,0.001 l 0,0 c -1.094,1.638 -2.103,3.317 -3.03,5.046 l 0,0 c -0.001,10e-4 -0.001,0.003 -0.001,0.003 v 0.002 l 0,0 c -0.926,1.734 -1.769,3.504 -2.522,5.321 l 0,0 0,0 c 0,0 -0.001,10e-4 -0.002,0.003 l 0,0 c -0.748,1.812 -1.414,3.665 -1.983,5.545 l 0,0 0,0 c 0,0 0,10e-4 0,0.003 l 0,0 c -0.568,1.881 -1.045,3.782 -1.427,5.71 l 0,0 c -0.379,1.924 -0.666,3.872 -0.854,5.824 l 0,0 c 0,0 0,0.001 0,0.002 0,10e-4 0,0.003 0,0.003 l 0,0 C 15.093,71.075 15,73.041 15,75 l 0,0 c 0,0.002 0,0.002 0,0.002 v 0.001 l 0,0 c 0,1.961 0.093,3.923 0.287,5.878 l 0,0 c 0,0.003 0,0.003 0,0.003 v 0.001 l 0,0 c 0.188,1.951 0.475,3.899 0.854,5.821 l 0,0 c 0,10e-4 0,0.002 0,0.002 0,0 0,0 0,0.001 l 0,0 c 0.384,1.929 0.861,3.834 1.429,5.714 l 0,0 c 0.569,1.882 1.235,3.73 1.983,5.549 l 0,0 c 0.756,1.813 1.599,3.586 2.524,5.322 l 0,0 c 0,0 10e-4,0 0.002,0.001 l 10e-4,0.001 0,0 c 0.926,1.729 1.936,3.409 3.028,5.044 l 0,0 c 0,0 0.001,0 0.003,10e-4 l 0,0 0,0 c 1.087,1.634 2.259,3.208 3.508,4.724 l 0,0 c 0,0 0.002,0 0.002,0.002 0.001,0 0.002,0.001 0.002,0.001 v 0.001 c 1.242,1.515 2.564,2.972 3.951,4.358 l 0,0 c 0,0 0,10e-4 0,0.002 l 0.002,0.001 0,0 c 1.387,1.387 2.845,2.708 4.361,3.951 l 0,0 c 1.516,1.25 3.09,2.422 4.723,3.511 l 0,0 v 0.001 c 0.002,0 0.002,0.001 0.002,0.001 l 0,0 c 1.637,1.094 3.317,2.103 5.046,3.029 l 0,0 0.001,0.001 c 10e-4,10e-4 0.002,10e-4 0.004,10e-4 l 0,0 c 1.734,0.927 3.504,1.769 5.321,2.522 l 0,0 v 0.001 c 0,0 0.002,0.001 0.003,0.001 l 0,0 c 1.812,0.75 3.665,1.414 5.545,1.983 l 0,0 0,0 c 0,0 10e-4,0 0.004,0 l 0,0 c 1.88,0.568 3.781,1.045 5.709,1.427 l 0,0 c 1.925,0.379 3.875,0.666 5.829,0.855 v -0.002 C 71.075,134.907 73.042,135 75,135 l 0,0 c 0.001,0 0.002,0 0.003,0 0,0 0.002,0 0.003,0 l 0,0 c 1.958,0 3.92,-0.093 5.874,-0.287 l 0,0 c 1.955,-0.189 3.905,-0.475 5.831,-0.854 l 0,0 c 1.927,-0.383 3.828,-0.859 5.708,-1.427 l 0,0 c 0.002,-10e-4 0.003,-0.002 0.004,-0.003 l 0,0 0,0 c 1.879,-0.568 3.729,-1.234 5.544,-1.982 l 0,0 c 0.002,0 0.003,0 0.004,0 10e-4,0 10e-4,0 10e-4,0 l 0,0 c 1.813,-0.756 3.586,-1.599 5.317,-2.524 l 0,0 c 0.004,-0.001 0.005,-0.001 0.006,-0.001 0.001,0 0.001,0 0.001,0 l 0,0 c 1.729,-0.928 3.41,-1.938 5.044,-3.03 l 0,0 c 0,0 0,0 0,-10e-4 v -0.002 l 0,0 c 1.635,-1.087 3.209,-2.259 4.727,-3.508 l 0,0 c 1.514,-1.244 2.973,-2.567 4.361,-3.955 l 0,0 c 1.388,-1.387 2.709,-2.847 3.957,-4.365 l 0,0 c 1.248,-1.515 2.419,-3.09 3.506,-4.721 l 0,0 c 10e-4,-0.001 10e-4,-0.001 0.002,-0.001 l 0.001,-0.001 0,0 c 1.093,-1.637 2.104,-3.317 3.026,-5.045 l 0,0 v -0.001 c 0.003,-0.001 0.004,-0.003 0.005,-0.005 l 0,0 c 0.926,-1.733 1.767,-3.504 2.523,-5.32 l 0,0 c 0.001,-0.001 0.001,-0.001 0.001,-0.002 v -0.002 l 0,0 c 0.749,-1.812 1.414,-3.665 1.981,-5.545 l 0,0 0,0 c 0.001,-0.001 0.001,-0.001 0.002,-0.003 l 0,0 c 0.567,-1.881 1.045,-3.782 1.429,-5.71 l 0,0 c 0.377,-1.924 0.664,-3.872 0.852,-5.824 l 0,0 C 134.905,78.926 135,76.962 135,75 l 0,0 c 0,-0.001 0,-0.002 0,-0.003 z m -1.261,11.684 c -0.382,1.924 -0.854,3.827 -1.425,5.702 l 0,0 c -0.566,1.877 -1.229,3.724 -1.979,5.531 -0.753,1.814 -1.593,3.59 -2.519,5.316 -0.922,1.726 -1.934,3.408 -3.024,5.036 -1.092,1.629 -2.263,3.207 -3.506,4.721 l 0,0 c -1.237,1.513 -2.558,2.968 -3.941,4.351 l 0,0 c -1.388,1.385 -2.843,2.707 -4.354,3.948 l 0,0 c -1.515,1.241 -3.092,2.411 -4.719,3.503 -1.627,1.092 -3.311,2.1 -5.037,3.025 -1.728,0.924 -3.5,1.766 -5.314,2.519 -1.805,0.749 -3.653,1.413 -5.528,1.979 -1.877,0.568 -3.784,1.044 -5.711,1.427 l 0,0 c -1.92,0.382 -3.863,0.665 -5.813,0.852 -1.946,0.192 -3.909,0.286 -5.862,0.286 l 0,0 c -1.958,0 -3.921,-0.093 -5.87,-0.286 -1.949,-0.187 -3.896,-0.47 -5.816,-0.852 l 0,0 c -1.924,-0.382 -3.829,-0.857 -5.705,-1.424 -1.877,-0.568 -3.724,-1.233 -5.531,-1.981 -1.813,-0.753 -3.587,-1.594 -5.314,-2.519 l 0,0 c -1.726,-0.925 -3.409,-1.933 -5.038,-3.025 l 0,0 c -1.627,-1.091 -3.205,-2.261 -4.718,-3.504 l 0,0 c -1.513,-1.239 -2.968,-2.558 -4.351,-3.942 l 0,0 c -1.385,-1.387 -2.705,-2.84 -3.948,-4.354 -1.241,-1.515 -2.409,-3.09 -3.502,-4.718 -1.092,-1.629 -2.101,-3.311 -3.026,-5.038 -0.924,-1.726 -1.765,-3.5 -2.518,-5.313 -0.75,-1.809 -1.414,-3.656 -1.982,-5.533 -0.566,-1.876 -1.042,-3.781 -1.424,-5.708 -0.383,-1.916 -0.664,-3.86 -0.853,-5.809 -0.192,-1.948 -0.286,-3.912 -0.286,-5.869 0,-1.957 0.094,-3.92 0.286,-5.866 0.187,-1.949 0.47,-3.894 0.851,-5.813 l 0,0 c 0.383,-1.927 0.858,-3.834 1.425,-5.711 0.568,-1.876 1.233,-3.723 1.98,-5.53 0.753,-1.813 1.595,-3.584 2.519,-5.312 0.926,-1.728 1.933,-3.412 3.026,-5.041 1.091,-1.627 2.261,-3.203 3.502,-4.716 1.241,-1.515 2.56,-2.97 3.945,-4.354 1.386,-1.384 2.84,-2.704 4.353,-3.946 1.514,-1.24 3.092,-2.411 4.72,-3.502 1.627,-1.093 3.31,-2.101 5.036,-3.025 1.726,-0.924 3.5,-1.766 5.313,-2.519 1.809,-0.748 3.654,-1.413 5.531,-1.98 1.878,-0.567 3.783,-1.044 5.71,-1.427 l 0,0 c 1.92,-0.381 3.863,-0.664 5.813,-0.852 1.947,-0.191 3.91,-0.286 5.865,-0.286 1.959,0 3.922,0.095 5.869,0.286 1.949,0.188 3.893,0.471 5.81,0.851 l 0,0 c 1.926,0.383 3.833,0.858 5.711,1.425 1.876,0.567 3.721,1.234 5.527,1.979 1.814,0.755 3.592,1.597 5.317,2.522 1.725,0.925 3.409,1.931 5.038,3.024 1.627,1.092 3.203,2.261 4.718,3.503 1.513,1.24 2.967,2.56 4.353,3.943 l 0,0 c 1.384,1.387 2.705,2.841 3.946,4.355 l 0,0 c 1.242,1.513 2.412,3.091 3.503,4.718 1.092,1.627 2.1,3.31 3.024,5.036 0.926,1.726 1.766,3.5 2.521,5.313 0.747,1.809 1.411,3.654 1.979,5.531 0.569,1.878 1.044,3.783 1.427,5.71 l 0,0 c 0.382,1.919 0.664,3.864 0.852,5.811 0.193,1.949 0.284,3.911 0.284,5.867 0,1.957 -0.088,3.922 -0.284,5.871 l 0,0 c -0.192,1.948 -0.474,3.894 -0.856,5.814 z"
             id="path272"
             inkscape:connector-curvature="0"
             style="fill:#182e6f" /></g><g
           id="g274"><path
             d="m 34.499,98.781 c 0.076,-0.044 0.095,-0.094 0.049,-0.175 -0.144,-0.272 -0.274,-0.546 -0.421,-0.834 -0.604,0.297 -1.182,0.591 -1.78,0.886 -0.331,-0.654 -0.647,-1.294 -0.982,-1.92 -0.113,-0.214 -0.097,-0.377 0.017,-0.582 0.304,-0.544 0.58,-1.103 0.881,-1.651 0.071,-0.143 0.094,-0.256 0.016,-0.408 -0.323,-0.592 -0.639,-1.185 -0.803,-1.841 -0.003,-0.014 -0.01,-0.023 -0.01,-0.036 -0.033,-0.121 -0.11,-0.17 -0.235,-0.187 -0.307,-0.041 -0.604,-0.101 -0.911,-0.142 -0.141,-0.017 -0.221,-0.068 -0.262,-0.199 -0.323,-0.951 -0.641,-1.907 -0.965,-2.858 -0.047,-0.135 -0.022,-0.229 0.077,-0.327 0.218,-0.213 0.426,-0.44 0.646,-0.663 0.076,-0.081 0.134,-0.149 0.085,-0.285 -0.114,-0.298 -0.204,-0.601 -0.333,-0.979 -0.137,0.149 -0.226,0.248 -0.322,0.345 -1.098,1.154 -2.2,2.313 -3.295,3.47 -0.199,0.202 -0.467,0.382 -0.556,0.622 -0.092,0.272 0.157,0.556 0.212,0.839 0.048,0.256 0.199,0.35 0.447,0.391 1.561,0.245 3.123,0.504 4.684,0.755 0.335,0.058 0.668,0.116 1.057,0.188 -0.409,0.741 -0.795,1.446 -1.174,2.15 -0.045,-0.018 -0.058,-0.021 -0.066,-0.03 -0.033,-0.033 -0.072,-0.065 -0.109,-0.096 -0.461,-0.441 -0.994,-0.577 -1.592,-0.359 -0.645,0.227 -1.109,0.635 -1.231,1.337 -0.072,0.431 0.044,0.83 0.233,1.209 0.592,1.172 1.184,2.344 1.777,3.515 0.131,0.26 0.138,0.262 0.403,0.126 1.44,-0.73 2.888,-1.464 4.332,-2.192 0.038,-0.022 0.085,-0.045 0.131,-0.069 z m -7.856,-7.503 c 0.086,-0.239 0.843,-1.073 1.623,-1.78 0.271,0.701 0.482,1.409 0.744,2.171 -0.827,-0.135 -1.6,-0.266 -2.367,-0.391 z m 4.61,7.946 c -0.312,0.138 -0.611,0.303 -0.915,0.459 -0.128,0.07 -0.192,0.049 -0.261,-0.079 -0.428,-0.867 -0.863,-1.728 -1.302,-2.589 -0.07,-0.149 -0.096,-0.304 -0.117,-0.466 0.008,-0.317 0.193,-0.514 0.47,-0.631 0.28,-0.119 0.496,-0.084 0.708,0.121 0.105,0.109 0.189,0.23 0.254,0.357 0.423,0.831 0.836,1.664 1.26,2.49 0.087,0.163 0.1,0.255 -0.097,0.338 z"
             id="path276"
             inkscape:connector-curvature="0"
             style="fill:#182e6f" /></g><g
           id="g278"><path
             d="m 124.747,82.189 c -0.208,0.375 -0.364,0.772 -0.482,1.188 -0.229,0.761 -0.444,1.526 -0.667,2.296 -0.067,0.223 -0.146,0.441 -0.283,0.636 -0.346,0.473 -0.916,0.431 -1.184,-0.1 -0.119,-0.232 -0.163,-0.486 -0.17,-0.744 -0.023,-0.763 0.135,-1.493 0.407,-2.197 0.25,-0.645 0.614,-1.226 1.07,-1.749 0.063,-0.071 0.187,-0.139 0.071,-0.269 -0.223,-0.243 -0.441,-0.49 -0.664,-0.731 -0.197,0.117 -0.326,0.263 -0.452,0.406 -0.516,0.567 -0.861,1.226 -1.096,1.943 -0.332,1.008 -0.541,2.035 -0.435,3.106 0.043,0.458 0.174,0.895 0.453,1.271 0.711,0.958 2.091,0.965 2.796,0.005 0.128,-0.163 0.228,-0.353 0.319,-0.533 0.262,-0.493 0.403,-1.025 0.55,-1.56 0.153,-0.525 0.3,-1.061 0.458,-1.587 0.076,-0.248 0.18,-0.486 0.368,-0.67 0.253,-0.241 0.563,-0.204 0.733,0.104 0.111,0.183 0.146,0.386 0.155,0.603 0.027,0.602 -0.085,1.19 -0.274,1.767 -0.203,0.667 -0.532,1.268 -0.951,1.818 -0.074,0.097 -0.166,0.179 -0.059,0.318 0.195,0.247 0.387,0.505 0.566,0.748 0.121,-0.026 0.174,-0.103 0.225,-0.165 1.227,-1.398 1.68,-3.05 1.57,-4.873 -0.025,-0.406 -0.183,-0.78 -0.41,-1.13 -0.488,-0.737 -1.949,-1.103 -2.614,0.099 z"
             id="path280"
             inkscape:connector-curvature="0"
             style="fill:#182e6f" /></g><g
           id="g282"><path
             d="m 42.96,109.225 c -0.976,-1.031 -1.954,-2.064 -2.938,-3.1 -0.261,-0.271 -0.569,-0.498 -0.934,-0.634 -0.448,-0.17 -0.867,-0.11 -1.248,0.179 -0.505,0.393 -0.759,0.892 -0.621,1.581 -0.098,0.006 -0.154,0.013 -0.22,0.014 -0.994,0.028 -1.634,0.962 -1.309,1.91 0.116,0.336 0.328,0.602 0.563,0.854 0.91,0.964 1.817,1.93 2.729,2.886 0.061,0.064 0.098,0.143 0.2,0.168 0.138,-0.069 0.241,-0.198 0.356,-0.306 1.121,-1.06 2.242,-2.122 3.366,-3.183 0.21,-0.199 0.213,-0.203 0.056,-0.369 z m -3.103,1.789 c -0.194,0.159 -0.383,0.345 -0.563,0.524 -0.098,0.101 -0.179,0.103 -0.275,-0.006 -0.138,-0.152 -0.283,-0.305 -0.422,-0.455 -0.563,-0.587 -1.118,-1.178 -1.672,-1.769 -0.146,-0.149 -0.275,-0.313 -0.275,-0.542 -0.002,-0.42 0.445,-0.673 0.857,-0.493 0.126,0.06 0.225,0.149 0.316,0.248 0.672,0.713 1.351,1.431 2.028,2.142 0.128,0.131 0.167,0.218 0.006,0.351 z m 1.623,-1.541 c -0.241,0.229 -0.484,0.448 -0.721,0.668 -0.125,-0.049 -0.186,-0.146 -0.265,-0.222 -0.665,-0.705 -1.331,-1.41 -1.999,-2.117 -0.117,-0.123 -0.232,-0.251 -0.304,-0.406 -0.12,-0.27 -0.074,-0.482 0.151,-0.7 0.192,-0.193 0.414,-0.229 0.669,-0.104 0.158,0.082 0.292,0.191 0.409,0.321 0.691,0.725 1.383,1.455 2.072,2.189 0.175,0.182 0.17,0.191 -0.012,0.371 z"
             id="path284"
             inkscape:connector-curvature="0"
             style="fill:#182e6f" /></g><g
           id="g286"><path
             d="m 83.268,28.845 c 0.194,0.042 0.38,0.098 0.574,0.146 0.265,0.066 0.266,0.066 0.341,-0.205 0.268,-1.056 0.537,-2.111 0.814,-3.165 0.033,-0.133 0.039,-0.284 0.16,-0.463 0.566,1.277 1.123,2.516 1.686,3.772 1.109,-0.843 2.19,-1.655 3.272,-2.47 -0.012,0.317 -0.071,0.586 -0.145,0.858 -0.238,0.938 -0.47,1.878 -0.726,2.813 -0.049,0.195 -0.003,0.263 0.178,0.298 0.178,0.038 0.355,0.097 0.533,0.136 0.265,0.065 0.267,0.065 0.339,-0.217 0.247,-0.95 0.491,-1.9 0.732,-2.851 0.165,-0.611 0.32,-1.23 0.477,-1.85 0.071,-0.27 0.068,-0.271 -0.206,-0.345 -0.187,-0.049 -0.382,-0.083 -0.566,-0.15 -0.241,-0.082 -0.433,-0.041 -0.639,0.121 -0.839,0.66 -1.694,1.293 -2.547,1.936 -0.097,0.071 -0.183,0.166 -0.32,0.199 -0.035,-0.06 -0.072,-0.123 -0.098,-0.187 -0.468,-1.04 -0.937,-2.084 -1.396,-3.126 -0.074,-0.169 -0.159,-0.28 -0.359,-0.313 -0.23,-0.041 -0.45,-0.119 -0.678,-0.172 -0.264,-0.07 -0.271,-0.064 -0.348,0.207 -0.168,0.663 -0.34,1.325 -0.508,1.993 -0.232,0.928 -0.465,1.855 -0.709,2.779 -0.043,0.16 -0.016,0.223 0.139,0.256 z"
             id="path288"
             inkscape:connector-curvature="0"
             style="fill:#182e6f" /></g><g
           id="g290"><path
             d="m 90.972,30.725 c -0.064,0.121 -0.062,0.199 0.09,0.255 0.169,0.062 0.33,0.144 0.502,0.225 0.305,0.138 0.307,0.138 0.445,-0.162 0.451,-1.001 0.907,-2.01 1.359,-3.01 0.051,-0.108 0.074,-0.234 0.206,-0.328 0.341,1.331 0.671,2.637 1.004,3.976 1.245,-0.641 2.438,-1.252 3.631,-1.859 0.02,0.015 0.043,0.032 0.055,0.051 -0.535,1.2 -1.073,2.4 -1.625,3.616 0.286,0.13 0.547,0.235 0.797,0.366 0.149,0.076 0.217,0.024 0.271,-0.114 0.165,-0.371 0.333,-0.739 0.503,-1.104 0.512,-1.143 1.017,-2.282 1.537,-3.418 0.076,-0.171 0.076,-0.263 -0.107,-0.332 -0.207,-0.082 -0.416,-0.172 -0.607,-0.275 -0.205,-0.114 -0.381,-0.094 -0.582,0.015 -0.954,0.502 -1.916,0.988 -2.878,1.48 -0.106,0.058 -0.202,0.141 -0.343,0.137 -0.103,-0.128 -0.103,-0.3 -0.138,-0.443 -0.267,-1.027 -0.52,-2.047 -0.78,-3.066 -0.033,-0.137 -0.038,-0.286 -0.221,-0.35 -0.319,-0.123 -0.628,-0.277 -0.933,-0.413 -0.104,0.09 -0.131,0.201 -0.171,0.301 -0.607,1.335 -1.209,2.678 -1.817,4.022 -0.066,0.14 -0.132,0.286 -0.198,0.43 z"
             id="path292"
             inkscape:connector-curvature="0"
             style="fill:#182e6f" /></g><g
           id="g294"><path
             d="m 34.146,43.043 c 1.186,1.04 2.381,2.085 3.572,3.126 0.074,0.062 0.15,0.123 0.245,0.196 0.231,-0.261 0.458,-0.519 0.701,-0.796 -0.252,-0.221 -0.493,-0.43 -0.731,-0.641 -0.249,-0.221 -0.492,-0.44 -0.739,-0.656 0.02,-0.046 0.03,-0.085 0.054,-0.112 0.476,-0.545 0.957,-1.091 1.427,-1.638 0.104,-0.122 0.207,-0.139 0.357,-0.119 0.643,0.076 1.294,0.136 1.938,0.195 0.104,0.011 0.228,0.061 0.318,-0.035 0.242,-0.271 0.479,-0.546 0.755,-0.864 -0.856,-0.101 -1.646,-0.198 -2.419,-0.288 -0.006,-0.052 -0.013,-0.065 -0.009,-0.075 0.022,-0.069 0.05,-0.141 0.067,-0.206 0.219,-0.646 0.08,-1.213 -0.416,-1.682 -0.502,-0.477 -1.076,-0.676 -1.753,-0.441 -0.356,0.122 -0.638,0.365 -0.884,0.649 -0.845,0.965 -1.692,1.938 -2.544,2.91 -0.042,0.043 -0.075,0.093 -0.12,0.141 -0.059,0.064 -0.051,0.125 0.013,0.186 0.059,0.052 0.11,0.098 0.168,0.15 z m 1.312,-0.548 c 0.639,-0.717 1.266,-1.438 1.899,-2.153 0.166,-0.187 0.359,-0.334 0.631,-0.338 0.542,-0.014 0.893,0.551 0.627,1.025 -0.063,0.117 -0.147,0.226 -0.236,0.327 -0.586,0.675 -1.174,1.354 -1.766,2.025 -0.192,0.212 -0.195,0.212 -0.396,0.036 -0.244,-0.207 -0.479,-0.421 -0.725,-0.625 -0.11,-0.093 -0.148,-0.166 -0.034,-0.297 z"
             id="path296"
             inkscape:connector-curvature="0"
             style="fill:#182e6f" /></g><g
           id="g298"><path
             d="m 23.129,74.253 c 0.043,0.001 0.096,0.005 0.143,0.007 0.979,0.075 1.961,0.144 2.937,0.212 0.575,0.035 1.155,0.07 1.729,0.112 0.159,0.007 0.248,-0.017 0.246,-0.214 0,-0.207 0.021,-0.413 0.051,-0.62 0.024,-0.161 -0.03,-0.216 -0.189,-0.227 -0.503,-0.032 -1.006,-0.077 -1.503,-0.116 -0.278,-0.024 -0.284,-0.028 -0.269,-0.299 0.041,-0.632 0.104,-1.27 0.135,-1.91 0.01,-0.211 0.088,-0.329 0.259,-0.433 0.556,-0.319 1.096,-0.655 1.636,-0.989 0.107,-0.063 0.231,-0.108 0.232,-0.259 0.021,-0.35 0.041,-0.698 0.068,-1.107 -0.73,0.43 -1.413,0.826 -2.144,1.256 -0.028,-0.111 -0.036,-0.168 -0.056,-0.228 -0.242,-0.777 -0.778,-1.151 -1.631,-1.151 -0.809,0 -1.368,0.409 -1.609,1.15 -0.072,0.236 -0.103,0.48 -0.123,0.725 -0.084,1.237 -0.166,2.473 -0.248,3.711 -0.023,0.353 -0.023,0.353 0.336,0.38 z m 0.71,-1.245 c 0.075,-0.977 0.129,-1.954 0.229,-2.932 0.048,-0.529 0.396,-0.777 0.879,-0.687 0.308,0.056 0.469,0.225 0.521,0.533 0.028,0.211 0.007,0.42 0,0.627 -0.062,0.829 -0.11,1.662 -0.176,2.493 -0.021,0.271 -0.028,0.274 -0.309,0.26 -0.315,-0.012 -0.639,-0.048 -0.954,-0.062 -0.17,-0.007 -0.203,-0.08 -0.19,-0.232 z"
             id="path300"
             inkscape:connector-curvature="0"
             style="fill:#182e6f" /></g><g
           id="g302"><path
             d="m 99.162,118.239 c -0.365,0.062 -0.719,0.159 -1.064,0.296 -0.604,0.234 -1.203,0.477 -1.81,0.718 -0.157,0.063 -0.323,0.111 -0.491,0.132 -0.233,0.027 -0.448,-0.004 -0.582,-0.214 -0.146,-0.222 -0.117,-0.444 0.008,-0.659 0.15,-0.246 0.364,-0.434 0.598,-0.59 0.871,-0.586 1.824,-0.896 2.883,-0.861 0.443,0.014 0.443,0.008 0.52,-0.414 0.103,-0.561 0.223,-0.59 -0.48,-0.605 -1.613,-0.039 -2.975,0.592 -4.157,1.658 -0.158,0.135 -0.274,0.313 -0.377,0.495 -0.32,0.585 -0.278,1.161 0.094,1.702 0.359,0.515 0.888,0.617 1.473,0.535 0.438,-0.063 0.855,-0.199 1.268,-0.365 0.491,-0.2 0.976,-0.398 1.463,-0.594 0.217,-0.09 0.45,-0.157 0.685,-0.144 0.349,0.017 0.486,0.282 0.321,0.592 -0.113,0.194 -0.277,0.345 -0.457,0.47 -0.502,0.351 -1.036,0.599 -1.632,0.737 -0.396,0.103 -0.799,0.159 -1.203,0.151 -0.15,-0.006 -0.221,0.053 -0.256,0.194 -0.049,0.237 -0.122,0.473 -0.185,0.723 0.063,0.024 0.085,0.041 0.11,0.044 1.645,0.155 3.027,-0.42 4.223,-1.51 0.201,-0.184 0.332,-0.427 0.441,-0.672 0.328,-0.743 -0.175,-2.012 -1.393,-1.819 z"
             id="path304"
             inkscape:connector-curvature="0"
             style="fill:#182e6f" /></g><g
           id="g306"><path
             d="m 103.799,112.431 c -0.19,-0.282 -0.163,-0.261 -0.442,-0.073 -1.277,0.877 -2.554,1.746 -3.829,2.619 -0.186,0.125 -0.457,0.227 -0.512,0.395 -0.061,0.207 0.204,0.387 0.326,0.582 0.152,0.238 0.158,0.236 0.42,0.061 1.075,-0.734 2.142,-1.463 3.22,-2.199 0.098,-0.069 0.187,-0.16 0.334,-0.18 0.196,0.275 0.388,0.559 0.575,0.841 0.15,0.216 0.15,0.221 -0.057,0.369 -0.527,0.361 -1.053,0.72 -1.582,1.079 -0.193,0.132 -0.379,0.264 -0.578,0.393 -0.064,0.05 -0.156,0.099 -0.076,0.206 0.179,0.226 0.294,0.497 0.519,0.689 0.833,-0.565 1.653,-1.128 2.476,-1.688 0.241,0.312 0.441,0.6 0.639,0.931 -1.227,0.838 -2.413,1.654 -3.611,2.471 0.199,0.293 0.373,0.544 0.546,0.797 0.066,-0.026 0.107,-0.049 0.15,-0.075 1.388,-0.947 2.77,-1.896 4.161,-2.846 0.213,-0.141 0.213,-0.147 0.047,-0.393 -0.904,-1.33 -1.818,-2.658 -2.726,-3.979 z"
             id="path308"
             inkscape:connector-curvature="0"
             style="fill:#182e6f" /></g><g
           id="g310"><path
             d="m 116.545,97.324 c -0.02,-0.012 -0.037,-0.024 -0.058,-0.042 -0.133,-0.097 -0.22,-0.06 -0.286,0.082 -0.014,0.044 -0.044,0.079 -0.076,0.125 -0.854,1.402 -1.701,2.807 -2.563,4.21 -0.043,0.063 -0.076,0.126 -0.112,0.191 -0.062,0.082 -0.062,0.153 0.036,0.213 0.234,0.139 0.464,0.274 0.682,0.408 0.135,-0.084 0.174,-0.205 0.24,-0.308 0.656,-1.077 1.314,-2.156 1.971,-3.236 0.044,-0.07 0.091,-0.14 0.133,-0.22 0.059,-0.114 0.137,-0.117 0.24,-0.049 0.261,0.161 0.51,0.331 0.785,0.478 0.179,0.095 0.174,0.184 0.07,0.343 -0.424,0.687 -0.839,1.381 -1.26,2.071 -0.06,0.103 -0.151,0.192 -0.168,0.338 0.204,0.128 0.418,0.248 0.612,0.39 0.155,0.104 0.223,0.07 0.315,-0.076 0.348,-0.583 0.701,-1.161 1.051,-1.733 0.135,-0.218 0.21,-0.555 0.43,-0.611 0.242,-0.07 0.453,0.22 0.688,0.351 0.32,0.18 0.277,0.157 0.114,0.433 -0.644,1.059 -1.286,2.114 -1.931,3.173 -0.059,0.103 -0.143,0.192 -0.162,0.33 0.206,0.13 0.411,0.241 0.6,0.377 0.162,0.118 0.25,0.063 0.338,-0.089 0.501,-0.831 1.004,-1.657 1.51,-2.483 0.401,-0.651 0.789,-1.3 1.197,-1.965 -0.064,-0.046 -0.091,-0.074 -0.122,-0.093 -1.424,-0.869 -2.846,-1.74 -4.274,-2.608 z"
             id="path312"
             inkscape:connector-curvature="0"
             style="fill:#182e6f" /></g><g
           id="g314"><path
             d="m 52.197,33.802 c 0.133,0.279 0.134,0.279 0.422,0.141 1.204,-0.58 2.404,-1.16 3.609,-1.742 0.317,-0.151 0.643,-0.306 0.96,-0.466 0.244,-0.118 0.244,-0.121 0.121,-0.38 -0.069,-0.152 -0.16,-0.303 -0.222,-0.465 -0.06,-0.138 -0.127,-0.14 -0.252,-0.08 -0.426,0.215 -0.862,0.421 -1.292,0.627 -0.815,0.395 -1.635,0.786 -2.447,1.19 -0.167,0.079 -0.257,0.071 -0.332,-0.108 -0.111,-0.274 -0.248,-0.537 -0.385,-0.8 -0.067,-0.136 -0.058,-0.22 0.09,-0.282 0.237,-0.104 0.465,-0.221 0.695,-0.335 0.556,-0.268 1.108,-0.535 1.655,-0.806 0.082,-0.036 0.226,-0.06 0.166,-0.192 -0.114,-0.256 -0.216,-0.517 -0.385,-0.748 -0.224,0.021 -0.4,0.169 -0.599,0.247 -0.042,0.019 -0.086,0.043 -0.135,0.065 -0.597,0.284 -1.192,0.566 -1.781,0.861 -0.176,0.095 -0.265,0.065 -0.342,-0.113 -0.068,-0.179 -0.166,-0.354 -0.248,-0.527 -0.125,-0.271 -0.125,-0.273 0.143,-0.405 0.972,-0.473 1.948,-0.935 2.912,-1.411 0.249,-0.122 0.528,-0.198 0.735,-0.396 -0.095,-0.279 -0.239,-0.537 -0.377,-0.791 -0.003,-0.011 -0.011,-0.017 -0.05,-0.048 -1.614,0.779 -3.241,1.568 -4.88,2.358 0.042,0.098 0.066,0.166 0.099,0.234 0.707,1.453 1.412,2.912 2.12,4.372 z"
             id="path316"
             inkscape:connector-curvature="0"
             style="fill:#182e6f" /></g><g
           id="g318"><path
             d="m 63.188,26.392 c 0.184,0.972 0.376,1.945 0.551,2.927 0.036,0.173 0.079,0.251 0.283,0.21 1.668,-0.321 3.345,-0.64 5.021,-0.958 0.306,-0.056 0.306,-0.062 0.258,-0.366 -0.023,-0.134 -0.051,-0.261 -0.078,-0.393 -0.049,-0.267 -0.053,-0.272 -0.297,-0.224 -1.17,0.219 -2.337,0.444 -3.506,0.665 -0.238,0.046 -0.529,0.202 -0.706,0.096 -0.209,-0.127 -0.15,-0.469 -0.202,-0.716 -0.116,-0.557 -0.104,-0.555 0.471,-0.66 0.737,-0.139 1.474,-0.284 2.206,-0.424 0.115,-0.016 0.231,-0.024 0.193,-0.179 -0.007,-0.041 -0.007,-0.063 -0.012,-0.085 -0.027,-0.146 -0.048,-0.294 -0.078,-0.438 -0.062,-0.297 -0.07,-0.303 -0.353,-0.247 -0.686,0.129 -1.374,0.269 -2.063,0.392 -0.202,0.038 -0.441,0.18 -0.601,0.081 -0.185,-0.116 -0.116,-0.406 -0.179,-0.612 -0.006,-0.014 -0.008,-0.026 -0.012,-0.038 -0.075,-0.519 -0.111,-0.406 0.355,-0.503 1.203,-0.236 2.408,-0.456 3.61,-0.683 0.278,-0.049 0.278,-0.052 0.229,-0.323 -0.026,-0.157 -0.075,-0.31 -0.081,-0.47 -0.017,-0.216 -0.114,-0.218 -0.291,-0.182 -1.617,0.313 -3.232,0.611 -4.841,0.921 -0.289,0.05 -0.291,0.057 -0.23,0.367 0.119,0.61 0.236,1.227 0.353,1.842 z"
             id="path320"
             inkscape:connector-curvature="0"
             style="fill:#182e6f" /></g><g
           id="g322"><path
             d="m 37.568,104.555 c 0.09,-0.468 0.054,-0.931 -0.078,-1.385 -0.283,-0.984 -0.816,-1.8 -1.65,-2.399 -0.658,-0.475 -1.395,-0.741 -2.213,-0.6 -1.363,0.233 -2.245,1.324 -2.236,2.738 0.005,0.447 0.074,0.881 0.259,1.294 0.511,1.158 1.275,2.062 2.534,2.44 1.586,0.477 3.098,-0.463 3.384,-2.088 z m -3.398,0.997 c -0.944,-0.376 -1.74,-1.555 -1.74,-2.573 0.006,-1.353 1.334,-2.185 2.536,-1.551 0.907,0.484 1.454,1.287 1.603,2.297 0.192,1.372 -1.111,2.343 -2.399,1.827 z"
             id="path324"
             inkscape:connector-curvature="0"
             style="fill:#182e6f" /></g><g
           id="g326"><path
             d="m 26.494,81.94 c 0.972,-0.285 1.537,-0.989 1.83,-1.909 0.351,-1.094 0.258,-2.175 -0.222,-3.219 -0.149,-0.33 -0.36,-0.613 -0.612,-0.87 -0.514,-0.524 -1.137,-0.791 -1.878,-0.796 -0.154,0.015 -0.317,0.021 -0.476,0.044 -1.066,0.194 -1.725,0.877 -2.109,1.847 -0.341,0.862 -0.313,1.751 -0.092,2.636 0.146,0.581 0.428,1.095 0.841,1.527 0.757,0.79 1.67,1.04 2.718,0.74 z m -2.319,-4.888 c 0.672,-1.017 2.051,-1.071 2.812,-0.118 0.349,0.439 0.479,0.956 0.526,1.503 0.011,0.108 0.002,0.221 0.002,0.329 0.007,0.512 -0.092,0.995 -0.386,1.43 -0.601,0.888 -1.848,1.014 -2.62,0.261 -0.507,-0.486 -0.685,-1.114 -0.73,-1.788 -0.038,-0.578 0.069,-1.129 0.396,-1.617 z"
             id="path328"
             inkscape:connector-curvature="0"
             style="fill:#182e6f" /></g><g
           id="g330"><path
             d="m 104.482,38.641 c 0.9,-1.013 1.77,-2.004 2.672,-3.016 0.08,0.174 0.064,0.303 0.064,0.437 0.043,1.397 0.068,2.793 0.104,4.193 0.027,0.938 0.027,0.938 0.739,1.537 0.218,0.19 0.221,0.191 0.421,-0.04 1.063,-1.207 2.128,-2.415 3.189,-3.614 0.066,-0.076 0.158,-0.13 0.15,-0.261 -0.171,-0.149 -0.342,-0.304 -0.517,-0.453 -0.253,-0.222 -0.214,-0.242 -0.447,0.021 -0.747,0.846 -1.487,1.697 -2.242,2.542 -0.07,0.079 -0.123,0.209 -0.274,0.213 -0.019,-0.631 -0.046,-1.239 -0.063,-1.855 -0.031,-1.139 -0.058,-2.281 -0.087,-3.421 -0.009,-0.136 0.002,-0.261 -0.129,-0.364 -0.265,-0.216 -0.519,-0.447 -0.802,-0.698 -1.199,1.359 -2.387,2.709 -3.592,4.064 0.291,0.253 0.547,0.475 0.814,0.715 z"
             id="path332"
             inkscape:connector-curvature="0"
             style="fill:#182e6f" /></g><g
           id="g334"><path
             d="m 120.889,62.684 c -0.519,1.012 -0.463,2.062 -0.127,3.113 0.235,0.728 0.636,1.349 1.261,1.804 1.253,0.921 3.009,0.573 3.815,-0.745 0.345,-0.56 0.517,-1.167 0.496,-1.778 0,-0.36 -0.027,-0.682 -0.092,-0.992 -0.207,-0.927 -0.623,-1.725 -1.398,-2.305 -1.343,-1.012 -3.191,-0.585 -3.955,0.903 z m 4.402,1.74 c 0.094,0.509 0.051,1 -0.133,1.487 -0.477,1.229 -2.059,1.437 -2.877,0.554 -0.462,-0.5 -0.763,-1.292 -0.768,-2.178 -0.01,-0.265 0.053,-0.564 0.16,-0.851 0.402,-1.063 1.827,-1.502 2.773,-0.648 0.492,0.441 0.732,1.011 0.845,1.636 z"
             id="path336"
             inkscape:connector-curvature="0"
             style="fill:#182e6f" /></g><g
           id="g338"><path
             d="m 121.835,68.965 c -0.308,0.021 -0.31,0.019 -0.294,0.345 0.01,0.183 0.039,0.361 0.041,0.548 0.001,0.162 0.071,0.199 0.229,0.187 0.84,-0.062 1.686,-0.121 2.532,-0.172 0.416,-0.03 0.846,-0.049 1.277,-0.074 -0.029,0.151 -0.14,0.222 -0.221,0.308 -1.122,1.188 -2.239,2.375 -3.354,3.559 -0.102,0.105 -0.228,0.191 -0.212,0.368 0.034,0.309 0.053,0.613 0.07,0.916 0.007,0.095 0.04,0.139 0.134,0.139 0.071,-0.003 0.142,-0.008 0.22,-0.011 1.271,-0.079 2.541,-0.155 3.813,-0.24 0.347,-0.018 0.688,-0.046 1.029,-0.06 0.17,-0.008 0.25,-0.063 0.224,-0.243 -0.028,-0.206 -0.045,-0.413 -0.045,-0.626 0,-0.18 -0.073,-0.232 -0.245,-0.218 -0.516,0.043 -1.023,0.076 -1.547,0.104 -0.741,0.052 -1.482,0.095 -2.226,0.142 -0.009,-0.027 -0.015,-0.049 -0.027,-0.076 0.079,-0.085 0.146,-0.163 0.222,-0.24 0.99,-1.041 1.979,-2.082 2.96,-3.13 0.194,-0.205 0.462,-0.384 0.552,-0.629 0.092,-0.272 0.01,-0.603 0,-0.906 -0.014,-0.307 -0.022,-0.312 -0.324,-0.293 -0.998,0.061 -2.006,0.117 -3.004,0.184 -0.604,0.03 -1.203,0.08 -1.804,0.118 z"
             id="path340"
             inkscape:connector-curvature="0"
             style="fill:#182e6f" /></g><g
           id="g342"><path
             d="m 113.639,103.164 c -0.188,-0.159 -0.376,-0.317 -0.566,-0.471 -0.06,-0.054 -0.125,-0.09 -0.186,-0.009 -0.203,0.239 -0.408,0.48 -0.612,0.729 1.038,0.872 2.045,1.717 3.049,2.562 0.011,0.006 0.011,0.021 0.011,0.031 -0.006,0.051 -0.043,-0.011 -0.018,0.031 -0.053,0.05 -0.113,0.042 -0.176,0.046 -1.465,0.079 -2.934,0.158 -4.406,0.239 -0.306,0.019 -0.641,-0.043 -0.905,0.09 -0.264,0.131 -0.412,0.442 -0.609,0.672 -0.182,0.218 -0.212,0.204 0.052,0.428 0.672,0.551 1.336,1.109 2.002,1.664 0.589,0.489 1.176,0.972 1.755,1.465 0.126,0.111 0.221,0.125 0.327,-0.027 0.157,-0.213 0.338,-0.414 0.528,-0.646 -1.029,-0.896 -2.077,-1.709 -3.122,-2.638 0.172,-0.021 0.262,-0.036 0.341,-0.039 1.113,-0.056 2.23,-0.116 3.339,-0.172 0.571,-0.035 1.131,-0.069 1.691,-0.104 0.123,-0.008 0.235,-0.027 0.322,-0.139 0.212,-0.271 0.438,-0.53 0.662,-0.802 -0.086,-0.08 -0.153,-0.146 -0.225,-0.207 -1.086,-0.905 -2.17,-1.803 -3.254,-2.703 z"
             id="path344"
             inkscape:connector-curvature="0"
             style="fill:#182e6f" /></g><g
           id="g346"><path
             d="m 77.834,28.218 c 0.599,0.285 1.231,0.398 1.892,0.405 0.817,0.01 1.582,-0.177 2.241,-0.681 0.896,-0.696 1.201,-1.627 0.97,-2.709 -0.205,-0.98 -0.878,-1.592 -1.751,-1.997 -0.619,-0.293 -1.293,-0.396 -1.97,-0.368 -0.845,0.037 -1.61,0.292 -2.254,0.864 -1.053,0.942 -1.156,2.577 -0.234,3.646 0.312,0.357 0.674,0.642 1.106,0.84 z m 0.292,-4.044 c 0.414,-0.216 0.848,-0.314 1.311,-0.305 0.703,0.021 1.364,0.183 1.898,0.676 0.555,0.506 0.699,1.136 0.479,1.844 -0.158,0.502 -0.508,0.846 -0.988,1.025 -0.974,0.379 -1.933,0.287 -2.818,-0.268 -1.144,-0.71 -1.04,-2.36 0.118,-2.972 z"
             id="path348"
             inkscape:connector-curvature="0"
             style="fill:#182e6f" /></g><g
           id="g350"><path
             d="m 30.614,49.131 c 0.274,1.422 1.707,2.331 3.126,2.036 1.731,-0.356 3.203,-2.482 2.979,-4.25 -0.209,-1.588 -1.675,-2.609 -3.226,-2.276 -1.809,0.393 -2.991,2.429 -2.948,3.817 -0.014,0.213 0.021,0.439 0.069,0.673 z m 2.983,-3.452 c 0.979,-0.243 2.176,0.562 2.114,1.744 0,1.033 -0.849,2.252 -1.788,2.628 -0.99,0.397 -2.149,-0.272 -2.341,-1.312 -0.218,-1.223 0.813,-2.758 2.015,-3.06 z"
             id="path352"
             inkscape:connector-curvature="0"
             style="fill:#182e6f" /></g><g
           id="g354"><path
             d="m 114.342,49.469 c 0.167,0.292 0.323,0.57 0.466,0.854 0.065,0.12 0.161,0.127 0.279,0.126 0.257,-0.015 0.52,-10e-4 0.769,-0.036 0.266,-0.036 0.392,0.082 0.508,0.3 0.426,0.799 0.863,1.598 1.314,2.387 0.115,0.204 0.143,0.361 -0.016,0.558 -0.178,0.206 -0.299,0.446 -0.46,0.662 -0.08,0.117 -0.085,0.218 -0.009,0.338 0.15,0.261 0.291,0.533 0.457,0.822 0.047,-0.041 0.065,-0.052 0.079,-0.073 1.065,-1.618 2.13,-3.235 3.195,-4.853 0.09,-0.136 0.083,-0.236 0.002,-0.367 -0.13,-0.22 -0.257,-0.442 -0.368,-0.675 -0.076,-0.158 -0.18,-0.213 -0.351,-0.202 -0.306,0.021 -0.612,0.027 -0.917,0.03 -1.362,0.024 -2.725,0.035 -4.085,0.062 -0.276,0.005 -0.557,-0.028 -0.863,0.067 z m 5.429,0.929 c -0.447,0.685 -0.873,1.333 -1.303,1.98 -0.196,-0.2 -0.966,-1.576 -1.096,-1.98 0.802,0 1.566,0 2.399,0 z"
             id="path356"
             inkscape:connector-curvature="0"
             style="fill:#182e6f" /></g><g
           id="g358"><path
             d="m 121.19,88.849 c -0.795,0.168 -1.403,0.627 -1.866,1.279 -0.447,0.632 -0.698,1.338 -0.831,2.101 -0.139,0.758 -0.008,1.463 0.337,2.141 0.043,0.08 0.058,0.186 0.184,0.224 0.201,-0.178 0.396,-0.357 0.612,-0.525 0.118,-0.094 0.118,-0.182 0.058,-0.312 -0.253,-0.54 -0.288,-1.115 -0.139,-1.69 0.165,-0.676 0.442,-1.301 0.99,-1.765 1.031,-0.857 2.479,-0.271 2.784,0.854 0.278,1.031 -0.243,2.511 -1.16,3.178 -0.167,0.118 -0.438,0.138 -0.492,0.346 -0.06,0.205 -0.022,0.438 -0.022,0.659 0,0.088 0.011,0.171 0.018,0.287 0.572,-0.15 1.043,-0.409 1.436,-0.777 0.686,-0.667 1.063,-1.49 1.249,-2.412 0.151,-0.739 0.075,-1.462 -0.25,-2.149 -0.512,-1.086 -1.742,-1.691 -2.908,-1.439 z"
             id="path360"
             inkscape:connector-curvature="0"
             style="fill:#182e6f" /></g><g
           id="g362"><path
             d="m 111.546,45.417 c 0.22,0.942 0.763,1.692 1.453,2.344 0.584,0.556 1.283,0.839 2.076,0.92 0.177,0.012 0.221,-0.037 0.193,-0.203 -0.028,-0.214 -0.06,-0.434 -0.085,-0.653 -0.016,-0.13 -0.078,-0.187 -0.209,-0.208 -1.274,-0.239 -1.997,-1.099 -2.377,-2.254 -0.368,-1.117 0.322,-2.179 1.456,-2.293 0.619,-0.06 1.156,0.192 1.595,0.614 0.729,0.7 1.21,1.513 1.104,2.572 -0.011,0.106 0.003,0.192 0.104,0.251 0.239,0.149 0.469,0.308 0.742,0.482 0.195,-0.604 0.235,-1.161 0.1,-1.717 -0.357,-1.429 -1.164,-2.507 -2.56,-3.068 -0.823,-0.33 -1.651,-0.295 -2.425,0.205 -1.024,0.657 -1.455,1.781 -1.167,3.008 z"
             id="path364"
             inkscape:connector-curvature="0"
             style="fill:#182e6f" /></g><g
           id="g366"><path
             d="m 71.19,28.294 c 1.062,0.324 2.134,0.241 3.165,-0.181 0.586,-0.238 1.035,-0.646 1.41,-1.18 -0.276,-0.139 -0.53,-0.259 -0.777,-0.391 -0.124,-0.066 -0.2,-0.026 -0.281,0.066 -0.515,0.576 -1.185,0.807 -1.934,0.864 -0.61,0.04 -1.198,-0.038 -1.733,-0.364 -0.982,-0.599 -1.058,-1.993 -0.288,-2.701 0.261,-0.237 0.55,-0.43 0.885,-0.521 1.055,-0.281 2.065,-0.248 2.953,0.49 0.089,0.068 0.155,0.091 0.263,0.045 0.257,-0.117 0.52,-0.223 0.805,-0.341 -0.449,-0.575 -0.993,-0.947 -1.653,-1.159 -0.755,-0.239 -1.521,-0.244 -2.291,-0.095 -0.653,0.131 -1.229,0.412 -1.722,0.863 -0.759,0.692 -1.008,1.559 -0.799,2.54 0.225,1.101 0.968,1.744 1.997,2.065 z"
             id="path368"
             inkscape:connector-curvature="0"
             style="fill:#182e6f" /></g><g
           id="g370"><path
             d="m 48.692,113.849 c -0.235,-0.186 -0.477,-0.366 -0.705,-0.571 -0.123,-0.104 -0.232,-0.102 -0.365,-0.029 -0.24,0.119 -0.496,0.214 -0.734,0.339 -0.177,0.089 -0.304,0.089 -0.462,-0.042 -0.754,-0.613 -1.514,-1.213 -2.282,-1.807 -0.131,-0.104 -0.185,-0.197 -0.14,-0.368 0.072,-0.273 0.115,-0.555 0.16,-0.832 0.021,-0.117 0.055,-0.234 -0.074,-0.329 -0.256,-0.193 -0.502,-0.391 -0.752,-0.586 -0.11,0.113 -0.102,0.239 -0.124,0.356 -0.138,0.732 -0.271,1.467 -0.407,2.204 -0.203,1.072 -0.396,2.141 -0.603,3.212 -0.033,0.173 0.014,0.276 0.155,0.37 0.167,0.119 0.337,0.249 0.484,0.393 0.186,0.161 0.342,0.193 0.586,0.083 1.654,-0.748 3.317,-1.468 4.977,-2.2 0.097,-0.049 0.213,-0.065 0.286,-0.193 z m -5.364,1.289 c 0.104,-0.838 0.301,-1.606 0.427,-2.388 0.271,0.133 1.449,1.043 1.812,1.402 -0.741,0.324 -1.456,0.641 -2.239,0.986 z"
             id="path372"
             inkscape:connector-curvature="0"
             style="fill:#182e6f" /></g><g
           id="g374"><path
             d="m 108.051,108.793 c -1.469,0.329 -2.47,1.263 -3.087,2.601 -0.214,0.462 -0.269,0.964 -0.207,1.482 0.276,0.004 0.511,-0.109 0.771,-0.145 0.17,-0.025 0.234,-0.096 0.246,-0.289 0.065,-1.365 1.445,-2.454 2.344,-2.635 1.418,-0.296 2.39,1.035 2.09,2.097 -0.084,0.289 -0.183,0.557 -0.347,0.802 -0.389,0.558 -0.894,0.979 -1.516,1.257 -0.226,0.099 -0.466,0.203 -0.708,0.169 -0.447,-0.058 -0.68,0.148 -0.811,0.536 -0.039,0.122 -0.14,0.228 -0.172,0.396 0.399,0.077 0.771,0.12 1.16,0.06 1.453,-0.244 2.471,-1.082 3.154,-2.35 0.313,-0.598 0.419,-1.263 0.288,-1.931 -0.299,-1.45 -1.729,-2.385 -3.205,-2.05 z"
             id="path376"
             inkscape:connector-curvature="0"
             style="fill:#182e6f" /></g><g
           id="g378"><path
             d="m 43.217,33.105 c 0.09,0.16 0.186,0.157 0.32,0.06 0.284,-0.194 0.578,-0.38 0.863,-0.565 0.472,-0.31 0.942,-0.615 1.431,-0.93 0.081,0.114 0.155,0.211 0.221,0.312 0.82,1.251 1.641,2.507 2.461,3.758 0.055,0.081 0.104,0.165 0.164,0.246 0.043,0.068 0.108,0.092 0.181,0.041 0.302,-0.212 0.629,-0.377 0.908,-0.624 -0.057,-0.094 -0.108,-0.181 -0.16,-0.263 -0.858,-1.313 -1.724,-2.622 -2.579,-3.938 -0.14,-0.216 -0.139,-0.223 0.069,-0.362 0.535,-0.351 1.071,-0.695 1.6,-1.05 0.216,-0.142 0.449,-0.262 0.637,-0.436 -0.064,-0.271 -0.269,-0.467 -0.405,-0.694 -0.166,-0.271 -0.175,-0.269 -0.438,-0.098 -1.204,0.786 -2.4,1.57 -3.604,2.354 -0.656,0.432 -1.313,0.866 -1.973,1.286 -0.142,0.09 -0.191,0.17 -0.079,0.317 0.14,0.19 0.266,0.385 0.383,0.586 z"
             id="path380"
             inkscape:connector-curvature="0"
             style="fill:#182e6f" /></g><g
           id="g382"><path
             d="m 98.824,33.575 c 0.012,0.641 0.319,1.153 0.727,1.605 0.561,0.609 1.234,1.05 1.992,1.357 0.436,0.183 0.892,0.266 1.364,0.235 0.534,-0.035 0.971,-0.249 1.271,-0.698 0.145,-0.213 0.287,-0.429 0.423,-0.646 0.469,-0.718 0.938,-1.435 1.406,-2.154 0.168,-0.245 0.168,-0.249 -0.092,-0.411 -0.194,-0.135 -0.398,-0.27 -0.633,-0.417 -0.098,0.139 -0.169,0.236 -0.234,0.338 -0.523,0.799 -1.045,1.604 -1.573,2.401 -0.355,0.539 -0.727,0.683 -1.351,0.49 -0.744,-0.229 -1.365,-0.659 -1.883,-1.238 -0.082,-0.089 -0.143,-0.195 -0.202,-0.304 -0.163,-0.33 -0.165,-0.662 0.032,-0.981 0.05,-0.068 0.096,-0.145 0.143,-0.213 0.533,-0.821 1.073,-1.647 1.613,-2.462 0.107,-0.16 0.107,-0.244 -0.064,-0.34 -0.234,-0.132 -0.455,-0.294 -0.672,-0.432 -0.034,0.023 -0.064,0.031 -0.075,0.051 -0.663,1.012 -1.337,2.029 -2.001,3.044 -0.142,0.235 -0.195,0.501 -0.191,0.775 z"
             id="path384"
             inkscape:connector-curvature="0"
             style="fill:#182e6f" /></g><g
           id="g386"><path
             d="m 53.985,117.083 c -0.076,-0.036 -0.145,-0.079 -0.225,-0.126 -1.397,-0.789 -2.795,-1.585 -4.193,-2.371 -0.224,-0.127 -0.436,-0.271 -0.677,-0.361 -0.206,0.186 -0.296,0.443 -0.432,0.676 -0.176,0.3 -0.194,0.254 0.144,0.45 1.185,0.669 2.371,1.338 3.555,2.013 0.105,0.056 0.223,0.104 0.299,0.2 -0.016,0.128 -0.098,0.225 -0.154,0.329 -0.727,1.281 -1.453,2.561 -2.179,3.842 -0.051,0.094 -0.104,0.197 -0.16,0.289 -0.072,0.105 -0.054,0.17 0.06,0.236 0.271,0.143 0.538,0.295 0.799,0.451 0.097,0.053 0.158,0.043 0.213,-0.057 0.034,-0.074 0.084,-0.145 0.122,-0.223 0.932,-1.633 1.855,-3.264 2.78,-4.896 0.032,-0.063 0.063,-0.132 0.108,-0.189 0.079,-0.113 0.079,-0.202 -0.06,-0.263 z"
             id="path388"
             inkscape:connector-curvature="0"
             style="fill:#182e6f" /></g><g
           id="g390"><path
             d="m 27.325,54.517 c 1.134,0.55 2.27,1.096 3.411,1.651 0.379,0.184 0.766,0.373 1.17,0.567 0.13,-0.263 0.24,-0.51 0.371,-0.745 0.084,-0.155 0.082,-0.244 -0.109,-0.329 -0.559,-0.256 -1.102,-0.532 -1.655,-0.793 -0.175,-0.082 -0.234,-0.159 -0.118,-0.325 0.038,-0.065 0.061,-0.136 0.095,-0.206 0.341,-0.706 0.679,-1.412 1.029,-2.115 0.07,-0.149 0.077,-0.242 -0.095,-0.311 -0.222,-0.098 -0.438,-0.207 -0.688,-0.326 -0.444,0.912 -0.886,1.81 -1.336,2.733 -0.345,-0.165 -0.668,-0.325 -1.007,-0.486 0.062,-0.141 0.113,-0.252 0.162,-0.361 0.523,-1.081 1.048,-2.165 1.575,-3.249 0.033,-0.063 0.059,-0.126 0.096,-0.194 0.061,-0.111 0.029,-0.177 -0.086,-0.229 -0.16,-0.064 -0.316,-0.148 -0.463,-0.226 -0.315,-0.162 -0.277,-0.099 -0.398,0.147 -0.703,1.455 -1.413,2.913 -2.119,4.365 -0.136,0.279 -0.135,0.287 0.165,0.432 z"
             id="path392"
             inkscape:connector-curvature="0"
             style="fill:#182e6f" /></g><g
           id="g394"><path
             d="m 122.162,54.991 c 0.176,0.44 0.204,0.371 -0.222,0.539 -1.121,0.455 -2.245,0.905 -3.372,1.362 -0.371,0.144 -0.371,0.144 -0.227,0.5 0.051,0.111 0.089,0.226 0.143,0.339 0.118,0.299 0.118,0.299 0.41,0.185 0.043,-0.02 0.096,-0.04 0.135,-0.06 1.145,-0.458 2.276,-0.915 3.413,-1.37 0.272,-0.109 0.276,-0.107 0.392,0.168 0.156,0.392 0.316,0.795 0.48,1.188 0.092,0.226 0.183,0.457 0.271,0.686 0.03,0.068 0.06,0.131 0.174,0.122 0.23,-0.101 0.483,-0.199 0.73,-0.307 0.045,-0.022 0.061,-0.071 0.043,-0.126 -0.031,-0.076 -0.059,-0.153 -0.102,-0.239 -0.611,-1.533 -1.231,-3.067 -1.859,-4.598 -0.087,-0.22 -0.098,-0.557 -0.31,-0.622 -0.21,-0.068 -0.446,0.155 -0.681,0.227 -0.185,0.052 -0.181,0.152 -0.116,0.301 0.238,0.563 0.468,1.136 0.698,1.705 z"
             id="path396"
             inkscape:connector-curvature="0"
             style="fill:#182e6f" /></g><g
           id="g398"><path
             d="m 25.418,88.024 c -0.13,-0.627 -0.264,-1.247 -0.392,-1.87 -0.049,-0.27 -0.046,-0.272 0.228,-0.33 0.447,-0.101 0.889,-0.19 1.334,-0.282 0.827,-0.171 1.657,-0.339 2.484,-0.516 0.104,-0.014 0.238,-0.005 0.219,-0.186 -0.032,-0.158 -0.061,-0.324 -0.095,-0.496 -0.088,-0.414 -0.09,-0.415 -0.51,-0.332 -1.221,0.256 -2.447,0.51 -3.668,0.763 -0.248,0.048 -0.253,0.044 -0.31,-0.21 C 24.57,83.931 24.441,83.293 24.31,82.661 24.249,82.39 24.244,82.39 23.987,82.44 c -0.122,0.019 -0.241,0.059 -0.362,0.069 -0.299,0.033 -0.352,0.035 -0.271,0.399 0.242,1.164 0.479,2.327 0.723,3.491 0.123,0.618 0.258,1.244 0.38,1.872 0.036,0.179 0.106,0.256 0.296,0.198 0.143,-0.046 0.284,-0.063 0.43,-0.098 0.296,-0.069 0.296,-0.069 0.235,-0.347 z"
             id="path400"
             inkscape:connector-curvature="0"
             style="fill:#182e6f" /></g><g
           id="g402"><path
             d="m 26.731,65.996 c 0.192,-0.12 0.376,-0.146 0.59,-0.094 0.505,0.111 1.006,0.212 1.51,0.312 0.241,0.053 0.255,0.044 0.297,-0.181 0.048,-0.196 0.063,-0.393 0.122,-0.583 0.069,-0.201 -0.021,-0.256 -0.193,-0.291 -0.521,-0.099 -1.032,-0.216 -1.553,-0.303 -0.213,-0.036 -0.349,-0.138 -0.473,-0.308 -0.723,-0.989 -1.448,-1.976 -2.185,-2.962 -0.071,-0.102 -0.128,-0.23 -0.29,-0.307 -0.07,0.358 -0.127,0.695 -0.213,1.024 -0.037,0.173 -0.005,0.301 0.1,0.441 0.52,0.686 1.029,1.38 1.534,2.069 0.074,0.095 0.158,0.18 0.192,0.297 -0.078,0.116 -0.199,0.156 -0.303,0.219 -0.731,0.441 -1.474,0.878 -2.21,1.318 -0.104,0.063 -0.224,0.104 -0.252,0.25 -0.069,0.383 -0.145,0.77 -0.224,1.148 0.131,-0.006 0.204,-0.069 0.292,-0.123 1.085,-0.637 2.174,-1.276 3.259,-1.926 z"
             id="path404"
             inkscape:connector-curvature="0"
             style="fill:#182e6f" /></g><g
           id="g406"><path
             d="m 58.212,31.065 c 0.082,0.237 0.088,0.24 0.33,0.16 0.839,-0.28 1.677,-0.561 2.516,-0.835 0.618,-0.209 1.231,-0.411 1.847,-0.614 0.088,-0.03 0.204,-0.035 0.199,-0.172 -0.063,-0.177 -0.115,-0.354 -0.174,-0.526 -0.104,-0.307 -0.106,-0.308 -0.41,-0.204 -1.056,0.35 -2.115,0.701 -3.174,1.052 -0.342,0.112 -0.343,0.112 -0.458,-0.22 -0.347,-1.052 -0.688,-2.102 -1.041,-3.146 -0.078,-0.237 -0.065,-0.583 -0.29,-0.675 -0.214,-0.088 -0.479,0.132 -0.729,0.189 -0.18,0.044 -0.23,0.116 -0.168,0.312 0.525,1.559 1.037,3.115 1.552,4.679 z"
             id="path408"
             inkscape:connector-curvature="0"
             style="fill:#182e6f" /></g><g
           id="g410"><path
             d="m 119.707,60.354 c -0.234,0.074 -0.234,0.079 -0.154,0.334 0.049,0.179 0.109,0.352 0.164,0.528 0.082,0.234 0.082,0.237 0.339,0.155 0.964,-0.303 1.937,-0.61 2.909,-0.918 0.6,-0.186 1.195,-0.374 1.782,-0.564 0.088,-0.027 0.221,-0.02 0.184,-0.202 -0.067,-0.208 -0.161,-0.437 -0.21,-0.676 -0.049,-0.209 -0.141,-0.199 -0.316,-0.141 -1.559,0.495 -3.13,0.986 -4.698,1.484 z"
             id="path412"
             inkscape:connector-curvature="0"
             style="fill:#182e6f" /></g><g
           id="g414"><path
             d="m 109.018,42.863 c 0.218,0.237 0.44,0.48 0.694,0.757 0.135,-0.121 0.243,-0.215 0.351,-0.319 1.037,-0.952 2.066,-1.909 3.1,-2.872 0.171,-0.16 0.454,-0.288 0.461,-0.495 0.016,-0.231 -0.276,-0.372 -0.438,-0.551 -0.211,-0.254 -0.194,-0.258 -0.444,-0.027 -1.179,1.094 -2.354,2.187 -3.532,3.276 -0.068,0.067 -0.162,0.117 -0.192,0.231 z"
             id="path416"
             inkscape:connector-curvature="0"
             style="fill:#182e6f" /></g><g
           id="g418"><path
             d="m 118.043,95.407 c -0.234,-0.113 -0.496,-0.385 -0.719,-0.284 -0.207,0.095 -0.246,0.456 -0.386,0.688 -0.095,0.171 -0.027,0.233 0.124,0.305 0.365,0.168 0.729,0.353 1.089,0.526 1.112,0.546 2.226,1.089 3.335,1.626 0.236,0.115 0.243,0.112 0.351,-0.108 0.117,-0.229 0.228,-0.463 0.351,-0.719 -0.077,-0.047 -0.132,-0.082 -0.184,-0.109 -1.322,-0.642 -2.642,-1.29 -3.961,-1.925 z"
             id="path420"
             inkscape:connector-curvature="0"
             style="fill:#182e6f" /></g></g><g
         id="g422"><g
           id="g424"><g
             id="g426"><path
               d="m 49.357,37.794 c 0,0 66.329,13.978 32.342,75.866 -3.696,6.729 -3.704,5.308 -2.721,3.342 C 89.514,95.87 102.186,62.485 56.023,41.016 51.372,38.85 48.724,37.756 49.357,37.794 z"
               id="path428"
               inkscape:connector-curvature="0"
               style="fill:#182e6f" /></g></g><g
           id="g430"><g
             id="g432"><path
               d="m 70.175,117.936 c 0,0 -56.228,-37.861 -1.489,-82.463 5.946,-4.844 5.424,-3.53 3.774,-2.072 -17.698,15.633 -41.979,41.813 -7.251,79.041 3.5,3.752 5.534,5.763 4.966,5.494 z"
               id="path434"
               inkscape:connector-curvature="0"
               style="fill:#182e6f" /></g></g><g
           id="g436"><g
             id="g438"><path
               d="m 117.495,70.882 c 0,0 -52.464,-42.928 -79.386,22.345 -2.926,7.098 -1.818,6.209 -0.902,4.215 9.865,-21.451 27.938,-52.254 73.601,-29.736 4.602,2.272 7.116,3.642 6.687,3.176 z"
               id="path440"
               inkscape:connector-curvature="0"
               style="fill:#182e6f" /></g></g><g
           id="g442"><g
             id="g444"><path
               d="m 43.159,105.719 c 0,0 67.326,7.876 54.822,-61.612 -1.36,-7.556 -1.822,-6.211 -1.517,-4.034 3.257,23.385 4.636,59.067 -45.962,64.716 -5.096,0.568 -7.955,0.765 -7.343,0.93 z"
               id="path446"
               inkscape:connector-curvature="0"
               style="fill:#182e6f" /></g></g><g
           id="g448"><g
             id="g450"><path
               d="m 74.942,114.176 c -5.283,0 -10.418,-1.036 -15.242,-3.081 -4.67,-1.973 -8.857,-4.798 -12.454,-8.394 -3.596,-3.602 -6.422,-7.79 -8.398,-12.454 -2.039,-4.829 -3.075,-9.96 -3.075,-15.249 0,-5.288 1.036,-10.416 3.075,-15.248 1.977,-4.664 4.803,-8.852 8.398,-12.453 3.597,-3.595 7.784,-6.42 12.454,-8.393 4.824,-2.045 9.959,-3.08 15.242,-3.08 5.289,0 10.424,1.035 15.249,3.08 4.669,1.973 8.856,4.798 12.454,8.393 3.597,3.602 6.42,7.789 8.393,12.453 2.045,4.832 3.08,9.96 3.08,15.248 0,5.289 -1.035,10.42 -3.08,15.249 -1.973,4.664 -4.796,8.853 -8.393,12.454 -3.598,3.596 -7.785,6.421 -12.454,8.394 -4.825,2.045 -9.96,3.081 -15.249,3.081 z m 0,-77.437 c -21.095,0 -38.255,17.165 -38.255,38.259 0,21.097 17.16,38.262 38.255,38.262 21.094,0 38.26,-17.165 38.26,-38.262 0,-21.094 -17.166,-38.259 -38.26,-38.259 z"
               id="path452"
               inkscape:connector-curvature="0"
               style="fill:#182e6f" /></g></g></g></g></g></svg>