<?xml version="1.0" encoding="UTF-8" standalone="no"?>
<!DOCTYPE svg PUBLIC "-//W3C//DTD SVG 1.1//EN" "http://www.w3.org/Graphics/SVG/1.1/DTD/svg11.dtd">
<!-- Created with Inkscape (http://www.inkscape.org/) -->
<svg
   xmlns:svg="http://www.w3.org/2000/svg"
   xmlns:xlink="http://www.w3.org/1999/xlink"
   xmlns="http://www.w3.org/2000/svg"
   version="1.1"
   width="400"
   height="136"
   id="svg2">
  <defs
     id="defs4" />
  <g
     id="g2459">
    <path
       d="M 175.09989,117.76416 C 175.09989,121.41651 173.61534,123.09383 171.18961,123.09383 C 168.89245,123.09383 167.33756,121.356 167.33756,117.76416 L 167.33756,106.91845 L 163.92213,106.91845 L 163.92213,117.51728 C 163.92213,123.40122 166.72142,125.81918 171.0659,125.81918 C 175.53652,125.81918 178.51774,123.27536 178.51774,117.51728 L 178.51774,106.91845 L 175.09989,106.91845 L 175.09989,117.76416 z M 156.09916,114.66366 C 153.61521,113.73665 152.56002,113.05169 152.56002,111.6285 C 152.56002,110.51271 153.4915,109.39934 155.60431,109.39934 C 157.40178,109.39934 158.64617,109.89794 159.33023,110.26583 L 160.14042,107.53807 C 159.20167,107.04431 157.7147,106.60864 155.66253,106.60864 C 151.63097,106.60864 149.08396,108.90558 149.08396,111.94073 C 149.08396,114.60073 151.0682,116.27563 154.11734,117.32849 C 156.47272,118.19499 157.46485,119.06632 157.46485,120.42657 C 157.46485,121.97562 156.22288,122.96313 154.05184,122.96313 C 152.3126,122.96313 150.63642,122.40886 149.58123,121.79167 L 148.77831,124.57994 C 149.83108,125.19956 151.88325,125.81918 153.86507,125.81918 C 158.64617,125.81918 160.88027,123.21727 160.88027,120.1797 C 160.88027,117.51728 159.33023,115.90047 156.09916,114.66366 z M 119.21839,123.09383 C 115.92668,123.09383 114.06372,119.9304 114.06372,116.27563 C 114.06372,112.55793 115.86361,109.33399 119.21839,109.33399 C 122.63381,109.33399 124.37306,112.62086 124.37306,116.14977 C 124.37306,120.05626 122.51253,123.09383 119.21839,123.09383 z M 119.34453,106.60864 C 119.34453,106.60864 119.27661,106.60864 119.21839,106.60864 C 114.06372,106.66915 110.52458,110.70392 110.52458,116.33856 C 110.52458,121.79167 113.81872,125.81918 119.09468,125.81918 C 119.15775,125.81918 119.21839,125.81918 119.21839,125.81918 C 124.31242,125.75382 128.03834,122.22491 128.03834,116.02875 C 128.03834,110.70392 124.80727,106.60864 119.34453,106.60864 z M 297.60887,117.26798 L 304.62407,117.26798 L 304.62407,114.47729 L 297.60887,114.47729 L 297.60887,109.70914 L 305.05828,109.70914 L 305.05828,106.91845 L 294.19344,106.91845 L 294.19344,125.50695 L 305.49248,125.50695 L 305.49248,122.71867 L 297.60887,122.71867 L 297.60887,117.26798 z M 185.7828,122.65574 L 185.7828,106.91845 L 182.36737,106.91845 L 182.36737,125.50695 L 193.41656,125.50695 L 193.41656,122.65574 L 185.7828,122.65574 z M 142.56602,113.36391 C 142.56602,116.21028 142.62424,118.63066 142.87167,121.10912 L 142.8086,121.10912 C 141.94746,119.06632 140.88742,116.95817 139.64545,114.91054 L 134.80369,106.91845 L 130.95164,106.91845 L 130.95164,125.50695 L 134.05657,125.50695 L 134.05657,118.81703 C 134.05657,115.77703 134.05657,113.36391 133.87221,110.94596 L 133.99593,110.88545 C 134.92498,112.9936 136.10631,115.28327 137.35071,117.32849 L 142.19246,125.50695 L 145.72917,125.50695 L 145.72917,106.91845 L 142.56602,106.91845 L 142.56602,113.36391 z M 205.58887,109.7745 L 205.58887,106.91845 L 191.55603,106.91845 L 191.55603,109.7745 L 196.89021,109.7745 L 196.89021,125.50695 L 200.24984,125.50695 L 200.24984,109.7745 L 205.58887,109.7745 z M 266.00405,111.69144 C 265.38064,112.9936 264.8203,114.1699 264.38852,115.35104 L 264.32788,115.35104 C 263.8306,114.10939 263.33333,113.05169 262.71234,111.69144 L 260.47582,106.91845 L 256.62376,106.91845 L 262.46734,117.76416 L 262.46734,125.50695 L 265.88277,125.50695 L 265.88277,117.64072 L 272.08778,106.91845 L 268.23815,106.91845 L 266.00405,111.69144 z M 234.95473,113.36391 C 234.95473,116.21028 235.02023,118.63066 235.27008,121.10912 L 235.20458,121.10912 C 234.3386,119.06632 233.21548,116.95817 232.03658,114.91054 L 227.19483,106.91845 L 223.2797,106.91845 L 223.2797,125.50695 L 226.45498,125.50695 L 226.45498,118.81703 C 226.45498,115.77703 226.38706,113.36391 226.26335,110.94596 L 226.38706,110.88545 C 227.25547,112.9936 228.49745,115.28327 229.67877,117.32849 L 234.58359,125.50695 L 238.12758,125.50695 L 238.12758,106.91845 L 234.95473,106.91845 L 234.95473,113.36391 z M 286.37047,114.66366 C 283.88409,113.73665 282.83133,113.05169 282.83133,111.6285 C 282.83133,110.51271 283.70216,109.39934 285.87562,109.39934 C 287.61486,109.39934 288.91748,109.89794 289.59426,110.26583 L 290.40445,107.53807 C 289.47297,107.04431 287.986,106.60864 285.93384,106.60864 C 281.895,106.60864 279.35769,108.90558 279.35769,111.94073 C 279.35769,114.60073 281.33951,116.27563 284.37894,117.32849 C 286.7416,118.19499 287.67551,119.06632 287.67551,120.42657 C 287.67551,121.97562 286.49175,122.96313 284.3183,122.96313 C 282.58148,122.96313 280.9053,122.40886 279.79189,121.79167 L 279.04234,124.57994 C 280.09511,125.19956 282.14485,125.81918 284.07573,125.81918 C 288.91748,125.81918 291.14915,123.21727 291.14915,120.1797 C 291.14915,117.51728 289.59426,115.90047 286.37047,114.66366 z M 212.41729,117.69881 L 210.00127,117.69881 L 211.48581,113.05169 C 211.79873,112.00608 212.10922,110.70392 212.35422,109.5857 L 212.41729,109.5857 L 212.41729,109.64622 C 212.73021,110.70392 212.98006,111.94073 213.34634,113.11461 L 214.84302,117.69881 L 212.41729,117.69881 z M 212.41729,106.91845 L 210.37483,106.91845 L 204.96788,123.58759 L 204.34447,125.50695 L 207.88846,125.50695 L 209.49914,120.2402 L 215.39609,120.2402 L 217.07712,125.50695 L 220.73511,125.50695 L 214.65139,106.91845 L 212.41729,106.91845 z M 332.56604,115.40913 C 331.82133,117.64072 331.13485,119.9304 330.70065,122.09906 L 330.64001,122.09906 C 330.14515,119.86747 329.51932,117.69881 328.7819,115.35104 L 326.23488,106.91845 L 322.50654,106.91845 L 328.59026,125.50695 L 332.43989,125.50695 L 338.89719,106.91845 L 335.29983,106.91845 L 332.56604,115.40913 z M 357.34241,109.39934 C 358.89248,109.39934 360.13201,109.7745 361.00284,110.13997 L 361.74999,107.41463 C 361.06349,107.04431 359.44796,106.60864 357.21144,106.60864 C 351.50369,106.60864 347.21501,110.32634 347.21501,116.40149 C 347.21501,122.09906 350.81479,125.81918 356.78453,125.81918 C 359.01615,125.81918 360.75785,125.323 361.56561,124.94784 L 361.00284,122.28784 C 360.13201,122.65574 358.7057,122.96313 357.34241,122.96313 C 353.24051,122.96313 350.81479,120.36607 350.81479,116.27563 C 350.81479,111.75194 353.55101,109.39934 357.34241,109.39934 z M 340.88628,125.50695 L 344.30171,125.50695 L 344.30171,106.91845 L 340.88628,106.91845 L 340.88628,125.50695 z M 251.16587,109.39934 C 252.65285,109.39934 253.89482,109.7745 254.76565,110.13997 L 255.51035,107.41463 C 254.82872,107.04431 253.27141,106.60864 250.97424,106.60864 C 245.32472,106.60864 241.04088,110.32634 241.04088,116.40149 C 241.04088,122.09906 244.64309,125.81918 250.54246,125.81918 C 252.78141,125.81918 254.57887,125.323 255.38422,124.94784 L 254.82872,122.28784 C 253.89482,122.65574 252.47092,122.96313 251.10523,122.96313 C 247.00332,122.96313 244.64309,120.36607 244.64309,116.27563 C 244.64309,111.75194 247.37689,109.39934 251.16587,109.39934 z M 385.21889,114.66366 C 382.73498,113.73665 381.62157,113.05169 381.62157,111.6285 C 381.62157,110.51271 382.55061,109.39934 384.72406,109.39934 C 386.46331,109.39934 387.76595,109.89794 388.44755,110.26583 L 389.25291,107.53807 C 388.26077,107.04431 386.77136,106.60864 384.78228,106.60864 C 380.7483,106.60864 378.20613,108.90558 378.20613,111.94073 C 378.20613,114.60073 380.12731,116.27563 383.2371,117.32849 C 385.59004,118.19499 386.52397,119.06632 386.52397,120.42657 C 386.52397,121.97562 385.28199,122.96313 383.17404,122.96313 C 381.43235,122.96313 379.7586,122.40886 378.64034,121.79167 L 377.89079,124.57994 C 378.88289,125.19956 380.93508,125.81918 382.92416,125.81918 C 387.70529,125.81918 390.00002,123.21727 390.00002,120.1797 C 390.00002,117.51728 388.44755,115.90047 385.21889,114.66366 z M 367.89677,117.26798 L 374.90957,117.26798 L 374.90957,114.47729 L 367.89677,114.47729 L 367.89677,109.70914 L 375.28312,109.70914 L 375.28312,106.91845 L 364.47893,106.91845 L 364.47893,125.50695 L 375.71733,125.50695 L 375.71733,122.71867 L 367.89677,122.71867 L 367.89677,117.26798 z M 66.255044,112.62086 L 66.255044,107.10482 C 65.942121,107.10482 65.631632,107.10482 65.323561,107.10482 C 59.734684,107.10482 54.148235,107.10482 48.617574,107.10482 C 48.309504,107.10482 48.003861,107.10482 47.68852,107.10482 L 47.68852,112.62086 L 53.158536,112.62086 L 53.158536,126.25 L 60.789875,126.25 L 60.789875,112.62086 L 66.255044,112.62086 z M 105.12491,109.39934 C 106.67495,109.39934 107.91935,109.7745 108.78533,110.13997 L 109.53246,107.41463 C 108.78533,107.04431 107.23287,106.60864 104.99877,106.60864 C 99.286181,106.60864 95.002351,110.32634 95.002351,116.40149 C 95.002351,122.09906 98.602131,125.81918 104.5015,125.81918 C 106.79866,125.81918 108.53791,125.323 109.34568,124.94784 L 108.78533,122.28784 C 107.91935,122.65574 106.49059,122.96313 105.05941,122.96313 C 100.96479,122.96313 98.602131,120.36607 98.602131,116.27563 C 98.602131,111.75194 101.33835,109.39934 105.12491,109.39934 z M 314.68114,115.28327 C 314.43614,115.35104 314.12565,115.35104 313.87337,115.35104 L 311.82848,115.35104 L 311.82848,109.45985 C 312.20447,109.39934 312.88125,109.33399 313.94129,109.33399 C 314.18629,109.33399 314.43614,109.33399 314.68114,109.33399 C 316.48103,109.5857 317.60172,110.51271 317.60172,112.31105 C 317.60172,113.9206 316.48103,115.03882 314.68114,115.28327 z M 317.60172,116.70888 L 317.60172,116.65079 C 319.34096,116.02875 320.95407,114.35143 320.95407,112.00608 C 320.95407,110.39169 320.39858,109.08953 319.34096,108.28354 C 318.28092,107.35654 316.79395,106.91845 314.68114,106.79743 C 314.37793,106.7345 314.00436,106.7345 313.62837,106.7345 C 311.63928,106.7345 309.77874,106.91845 308.4737,107.16775 L 308.4737,125.50695 L 311.82848,125.50695 L 311.82848,117.82467 L 313.56773,117.82467 C 314.00436,117.88518 314.37793,117.88518 314.68114,118.00862 C 315.86247,118.31842 316.48103,119.24785 316.91523,121.10912 C 317.41979,123.40122 317.85156,124.94784 318.15964,125.50695 L 321.6357,125.50695 C 321.26699,124.76389 320.76486,122.65574 320.20937,120.30313 C 319.7121,118.50479 318.90676,117.20263 317.60172,116.70888 z M 71.715356,107.10482 L 65.323561,123.83204 L 64.394507,126.25 L 71.904561,126.25 L 75.817261,114.7871 L 79.729961,126.25 L 87.179371,126.25 L 79.848821,107.10482 C 77.119881,107.10482 74.454002,107.10482 71.715356,107.10482 z M 28.566502,112.62086 L 28.566502,107.10482 C 28.253584,107.10482 27.947942,107.10482 27.635024,107.10482 C 21.733225,107.10482 15.901774,107.10482 9.999979,107.10482 L 9.999979,112.62086 L 15.465143,112.62086 L 15.465143,126.25 L 23.09891,126.25 L 23.09891,112.62086 L 28.566502,112.62086 z M 42.160283,107.10482 C 39.491985,107.10482 36.763037,107.10482 34.094735,107.10482 L 27.635024,123.83204 L 26.701118,126.25 L 34.216024,126.25 L 38.128724,114.7871 L 42.038998,126.25 L 49.556328,126.25 L 48.617574,123.83204 L 42.160283,107.10482 z M 211.54646,77.648835 L 211.54646,64.022115 L 217.01405,64.022115 L 217.01405,58.503655 C 216.70113,58.503655 216.39548,58.503655 216.08499,58.503655 C 210.49612,58.503655 204.90481,58.503655 199.379,58.503655 C 199.06608,58.503655 198.76044,58.503655 198.50816,58.503655 L 198.50816,64.022115 L 203.84719,64.022115 L 203.84719,77.648835 L 211.54646,77.648835 z M 183.11449,45.126225 C 185.2831,46.118585 187.64333,46.922145 190.1297,47.481255 L 194.03997,28.582945 C 194.22433,27.346135 194.41354,26.293275 194.16126,24.865255 C 193.91141,23.875315 193.17157,23.379135 191.92959,23.195185 C 189.00659,23.379135 186.02779,23.628435 183.11449,23.996335 C 178.95195,24.497355 174.85004,25.175055 170.75298,25.857605 C 170.44007,26.912895 170.31878,28.026265 170.31878,29.142055 C 170.31878,35.769055 175.41281,41.655405 183.11449,45.126225 z M 195.77679,19.538005 C 196.89021,19.230615 198.38688,20.099525 198.1346,21.399275 L 198.1346,22.202835 L 198.07639,48.471185 L 200.68162,48.471185 L 200.68162,21.399275 C 200.43905,20.099525 201.98424,19.230615 203.10735,19.538005 C 205.77565,19.538005 210.43304,19.908315 215.709,20.653795 C 219.24814,21.210475 223.09777,21.893025 226.76062,22.759525 C 224.71088,18.797365 220.79818,15.452405 215.709,13.157885 C 211.05161,10.986805 205.40451,9.749995 199.379,9.749995 C 193.35349,9.749995 187.76704,10.986805 183.11449,13.097375 C 177.95982,15.452405 173.98405,18.797365 171.93674,22.820035 C 175.59474,21.893025 179.50744,21.210475 183.11449,20.714305 C 188.39288,19.908315 193.11092,19.538005 195.77679,19.538005 z M 166.2193,77.648835 L 173.85549,77.648835 L 173.85549,64.022115 L 179.32793,64.022115 L 179.32793,58.503655 C 179.01016,58.503655 178.69967,58.503655 178.39403,58.503655 C 172.49223,58.503655 166.66078,58.503655 160.75898,58.503655 L 160.75898,64.022115 L 166.2193,64.022115 L 166.2193,77.648835 z M 230.48654,77.648835 L 237.99902,77.648835 L 230.61025,58.503655 C 227.94195,58.503655 225.21301,58.503655 222.53743,58.503655 L 216.08499,75.298645 L 215.15109,77.648835 L 222.66357,77.648835 L 226.57627,66.190765 L 230.48654,77.648835 z M 192.98236,58.503655 C 190.25099,58.503655 187.52204,58.503655 184.85374,58.503655 L 178.39403,75.298645 L 177.46255,77.648835 L 184.97503,77.648835 L 188.88773,66.190765 L 192.798,77.648835 L 200.24984,77.648835 L 199.379,75.298645 L 192.98236,58.503655 z M 206.88906,23.195185 C 205.715,23.379135 204.96788,23.875315 204.65739,24.865255 C 204.4706,26.293275 204.65739,27.346135 204.84659,28.582945 L 208.6938,47.418325 C 211.17532,46.859215 213.53798,46.060495 215.709,45.126225 C 223.35247,41.592475 228.37616,35.769055 228.37616,29.142055 C 228.37616,28.026265 228.25244,26.912895 228.00502,25.857605 C 223.90554,25.112125 219.80606,24.434425 215.709,23.938245 C 212.79085,23.628435 209.80963,23.379135 206.88906,23.195185"
       id="path2492"
       style="fill:#4e84c4;fill-opacity:1;fill-rule:evenodd;stroke:none" />
  </g>
</svg>
