<?xml version="1.0" encoding="utf-8"?>
<!-- Generator: Adobe Illustrator 16.0.3, SVG Export Plug-In . SVG Version: 6.00 Build 0)  -->
<!DOCTYPE svg PUBLIC "-//W3C//DTD SVG 1.1//EN" "http://www.w3.org/Graphics/SVG/1.1/DTD/svg11.dtd">
<svg version="1.1" xmlns="http://www.w3.org/2000/svg" xmlns:xlink="http://www.w3.org/1999/xlink" x="0px" y="0px" width="217px"
	 height="100px" viewBox="0 0 217 100" enable-background="new 0 0 217 100" xml:space="preserve">
<g id="guides">
</g>
<g id="Layer_2">
	<g>
		<polygon fill-rule="evenodd" clip-rule="evenodd" fill="#004FA2" points="128.271,37.894 105.024,37.894 105.024,45.473 
			112.794,45.473 112.794,61.691 120.373,61.691 120.373,45.473 128.271,45.473 128.271,37.894 128.271,37.894 		"/>
		<polygon fill-rule="evenodd" clip-rule="evenodd" fill="#004FA2" points="150.982,61.629 143.656,37.894 134.434,37.894 
			127.107,61.629 134.687,61.629 139.046,44.752 143.403,61.629 150.982,61.629 150.982,61.629 		"/>
		<polygon fill-rule="evenodd" clip-rule="evenodd" fill="#004FA2" points="174.188,37.894 150.944,37.894 150.944,45.473 
			158.714,45.473 158.714,61.691 166.293,61.691 166.293,45.473 174.188,45.473 174.188,37.894 174.188,37.894 		"/>
		<polygon fill-rule="evenodd" clip-rule="evenodd" fill="#004FA2" points="196.648,61.629 189.321,37.894 180.1,37.894 
			172.772,61.629 180.353,61.629 184.711,44.752 189.068,61.629 196.648,61.629 196.648,61.629 		"/>
		<path fill-rule="evenodd" clip-rule="evenodd" fill="#004FA2" d="M48.508,63.346c1.651-7.017,2.876-13.86,2.876-13.86
			s0.615-2.259-0.616-3.799c-1.231-1.539-5.03-1.026-5.03-1.026s-5.899,0.07-11.912,0.796c-5.354,0.645-10.819,1.706-12.833,2.115
			c-0.413,1.437-0.641,2.916-0.641,4.431c0,10.567,10.561,19.533,25.223,22.734C46.344,71.942,47.501,67.618,48.508,63.346
			L48.508,63.346z"/>
		<path fill-rule="evenodd" clip-rule="evenodd" fill="#004FA2" d="M59.404,58.932c-0.07-8.499,0.169-16.427,0.169-16.427
			s-0.274-1.195,0.488-1.778c0.779-0.596,2.592-0.582,2.592-0.582s7.027,0.197,14.903,1.207c5.75,0.739,11.967,1.926,14.774,2.485
			C87.168,34.601,73.498,28,57.443,28C41.326,28,27.616,34.653,22.5,43.945c2.462-0.497,9.152-1.802,15.316-2.594
			c7.874-1.01,14.901-1.207,14.901-1.207s1.813-0.014,2.592,0.582c0.762,0.583,0.488,1.778,0.488,1.778s0.239,7.928,0.169,16.427
			c-0.057,6.512-0.257,13.344-0.38,17.039C56.202,75.99,56.82,76,57.443,76c0.786,0,1.565-0.021,2.34-0.053
			C59.661,72.248,59.462,65.432,59.404,58.932L59.404,58.932z"/>
		<path fill-rule="evenodd" clip-rule="evenodd" fill="#004FA2" d="M81.546,45.456c-6.013-0.726-11.912-0.796-11.912-0.796
			s-3.797-0.513-5.031,1.026c-1.23,1.54-0.613,3.799-0.613,3.799s1.223,6.844,2.874,13.86c0.995,4.222,2.136,8.493,2.906,11.293
			c14.426-3.288,24.766-12.181,24.766-22.637c0-1.552-0.234-3.064-0.669-4.532C91.54,47.006,86.496,46.052,81.546,45.456
			L81.546,45.456z"/>
	</g>
</g>
</svg>
