<?xml version="1.0" encoding="utf-8"?>
<!-- Generator: Adobe Illustrator 16.0.3, SVG Export Plug-In . SVG Version: 6.00 Build 0)  -->
<!DOCTYPE svg PUBLIC "-//W3C//DTD SVG 1.1//EN" "http://www.w3.org/Graphics/SVG/1.1/DTD/svg11.dtd">
<svg version="1.1" xmlns="http://www.w3.org/2000/svg" xmlns:xlink="http://www.w3.org/1999/xlink" x="0px" y="0px" width="192px"
	 height="100px" viewBox="0 0 192 100" enable-background="new 0 0 192 100" xml:space="preserve">
<g id="guides">
</g>
<g id="Layer_2">
	<g>
		<g>
			<g>
				<path fill="#FFFFFF" d="M38.281,62.516c6.984,0,12.703-5.662,12.703-12.646s-5.95-12.598-12.703-12.592
					c-6.984,0.007-12.741,5.607-12.741,12.592S31.297,62.516,38.281,62.516z"/>
				<polygon fill-rule="evenodd" clip-rule="evenodd" fill="none" points="50.104,46.625 50.103,46.622 50.099,46.622 				"/>
				<path fill="#FFFFFF" d="M44.202,41.859c-1.636,0.25-3.828,0.395-6.125,0.393c0.03-2.513,0.072-4.328,0.121-4.877
					C40.524,37.771,42.639,39.448,44.202,41.859"/>
				<path fill="#EE3E42" d="M46.932,50.89c-2.368,0.36-5.541,0.57-8.865,0.567c-0.003-3.424,0.013-6.727,0.043-9.299
					c2.294,0.002,4.485-0.144,6.12-0.393C45.829,44.233,46.851,47.471,46.932,50.89"/>
				<path fill="#FFFFFF" d="M46.724,50.872c-0.657-0.104-1.211-1.2-0.92-2.332c-0.927,0.641-1.969-0.676-1.816-1.893
					c0.08-0.645,0.503-1.218,1.239-0.951c-0.3-1.03-0.674-2.004-1.113-2.9c-0.653,0.083-1.37,0.151-2.131,0.206
					c0.676,1.021,0.013,1.971-0.93,1.819c-0.685-0.109-1.322-0.826-1.145-1.681c-0.556,0.386-1.697,0.232-1.8-0.986
					c2.097-0.011,3.94-0.081,6.125-0.39l0,0c1.766,2.913,2.524,5.467,2.706,9.108C46.875,50.873,46.787,50.883,46.724,50.872"/>
				<path fill="#FFFFFF" d="M31.544,59.404c-1.306-0.219-2.173-0.499-2.466-0.803c-0.322-0.362-0.744-0.854-1.043-1.236
					c-0.725-1.061-0.739-1.081-1.058-1.69c-0.557-1.176-0.566-1.198-0.785-1.852c-0.366-1.269-0.373-1.293-0.485-1.983
					c-0.071-0.6-0.137-1.402-0.16-2.005l0.01-0.549c-0.021,0.537,1.274,1.046,3.516,1.423c-0.004,0.178-0.007,0.356-0.007,0.535
					C29.07,54.546,30.011,57.404,31.544,59.404"/>
				<path fill="#FFFFFF" d="M38.239,62.516c-0.059-0.001-0.138-0.001-0.196-0.002c-0.116-0.003-0.232-0.008-0.349-0.011
					c-0.764-0.042-1.263-0.114-1.918-0.234c-1.647-0.377-3.108-1.396-4.242-2.887c1.119,0.188,2.556,0.329,4.229,0.401
					c0.79,0.034,1.586,0.052,2.368,0.052C38.161,61.529,38.199,62.514,38.239,62.516"/>
				<path fill="#EE3E42" d="M38.131,59.835c-0.783-0.001-1.578-0.018-2.368-0.052c-1.67-0.072-3.106-0.214-4.225-0.4
					c-1.519-1.999-2.449-4.847-2.455-8.136c-0.001-0.145,0.001-0.288,0.005-0.431c1.522,0.254,3.479,0.447,5.755,0.546
					c1.076,0.048,2.159,0.069,3.227,0.071c0,0.144,0,0.287,0,0.431C38.075,55.152,38.098,57.938,38.131,59.835"/>
				<path fill="#EE3E42" d="M38.111,60.01c-0.108,0.438-0.722,0.856-1.593,0.502c0.407,0.537,0.055,0.999-0.66,0.87
					c-0.556-0.101-1.216-0.548-1.267-0.995c-0.688-0.053-1.315-0.118-1.874-0.196c0.53,0.617,1.121,1.12,1.761,1.494
					c0.075-0.031,0.194-0.023,0.573,0.108c0.485,0.17,0.937,0.417,1.421,0.59c0,0,0,0.001,0,0.002
					c-0.38-0.059-0.429-0.065-0.697-0.117c-0.912-0.263-2.611-0.751-4.241-2.886h-0.001h0.001l0,0
					c1.964,0.303,3.875,0.434,6.598,0.451C38.126,59.887,38.124,59.957,38.111,60.01"/>
				<path fill="#FFFFFF" d="M31.534,59.382L31.534,59.382c-1.749-2.504-2.438-4.902-2.456-8.553
					c0.989,0.326,1.262,1.771,1.007,2.582c0.94-0.362,2.121,1.262,1.708,2.349c-0.19,0.501-0.686,0.64-1.204,0.338
					c0.28,0.949,0.644,1.816,1.077,2.584c0.665,0.092,1.411,0.171,2.229,0.232c-0.656-0.808-0.13-1.469,0.745-1.424
					c0.752,0.038,1.746,0.662,1.533,1.516c0.678-0.306,1.825-0.055,1.959,0.832c-0.823-0.007-2.068-0.016-3.662-0.126
					C33.486,59.644,32.517,59.458,31.534,59.382"/>
				<polyline fill="#E03A3E" points="31.534,59.382 31.534,59.382 31.534,59.382 				"/>
				<polyline fill="#E03A3E" points="31.534,59.382 31.534,59.382 31.534,59.382 				"/>
				<path fill="#EE3E42" d="M31.534,59.382c-1.446-0.262-2.072-0.465-2.479-0.806c-0.293-0.331-0.681-0.776-0.955-1.124
					c0.05,0.063,0.083,0.104,0.218,0.262c-0.132-0.166-0.794-1.011-0.842-1.384c0.359-0.057,1.518,1.75,1.529,1.769
					c0.352,0.131,0.809,0.254,1.36,0.365c-0.519-0.781-0.953-1.66-1.288-2.619c-0.789,0.398-1.796-1.686-1.477-2.565
					c0.065-0.18,0.274-0.553,0.809-0.149c-0.403-0.927-0.296-2.302,0.675-2.3C29.106,53.903,29.531,56.534,31.534,59.382"/>
				<path d="M46.875,53.065l-0.016-0.022c0.055-0.566,0.084-1.149,0.083-1.748c-0.001-0.14-0.003-0.279-0.006-0.419
					c0.006-0.001,0.013-0.001,0.019-0.003c0.003,0.14,0.005,0.279,0.006,0.419C46.961,51.899,46.933,52.491,46.875,53.065"/>
				<path d="M40.199,62.366l-0.007,0.001c3.484-0.542,6.17-4.24,6.667-9.324l0.016,0.022C46.371,58.136,43.684,61.822,40.199,62.366
					"/>
				<path fill="#231F20" d="M44.405,60.924c-0.86,0.442-1.04,0.534-1.96,0.88c-0.271,0.089-0.634,0.202-0.908,0.28
					c1.772-0.478,3.347-1.491,4.591-2.901c-0.265,0.588-0.446,0.923-1.373,1.538C44.64,60.79,44.523,60.858,44.405,60.924"/>
				<path fill="#FFD420" d="M44.755,60.721c0.763-0.527,1.085-0.838,1.373-1.538c1.822-2.064,2.937-4.979,2.932-8.309
					c-0.001-0.141-0.003-0.28-0.007-0.419c0.576-0.151,1.038-0.317,1.364-0.495c0.005,0.139,0.007,0.278,0.007,0.418
					C50.431,54.845,48.168,58.66,44.755,60.721"/>
				<path fill="#231F20" d="M40.949,57.446c-0.844-0.846-0.844-0.846-2.871-2.766c-0.005-0.887-0.008-1.829-0.01-2.816
					c0-0.14-0.001-0.279-0.001-0.419c1.1,0.001,2.182-0.021,3.225-0.064c0.002,0.14,0.002,0.279,0.002,0.419
					C41.298,53.924,41.172,55.841,40.949,57.446"/>
				<path fill="#FFD420" d="M38.779,62.504l-0.08,0.004c-0.175,0.004-0.255,0.007-0.327,0.007l-0.133,0.001
					c-0.073-0.003-0.138-3.134-0.161-7.835c1.896,1.795,2.095,1.981,2.871,2.766C40.519,60.53,39.725,62.463,38.779,62.504"/>
				<path fill="#231F20" d="M39.38,62.465c-0.101,0.009-0.234,0.019-0.336,0.026c-0.079,0.004-0.186,0.01-0.265,0.013
					c0.944-0.041,1.737-1.971,2.168-5.05c0.916,0.962,1.319,1.432,1.762,2.152C41.848,61.308,40.688,62.349,39.38,62.465"/>
				<path fill="#FFD420" d="M42.709,59.606c-0.436-0.686-0.701-1.048-1.762-2.152c0.225-1.607,0.351-3.526,0.347-5.654
					c0-0.14,0-0.279-0.002-0.419c1.044-0.044,2.047-0.108,2.986-0.191c0.003,0.14,0.004,0.279,0.004,0.419
					C44.287,54.874,43.69,57.669,42.709,59.606"/>
				<path fill="#231F20" d="M42.965,61.16c0.159-0.501,0.145-0.797-0.252-1.562c0.979-1.938,1.574-4.729,1.569-7.99
					c0-0.14-0.001-0.279-0.004-0.419c0.352-0.031,0.695-0.065,1.029-0.102c0.466,0.549,1.045,1.232,1.552,1.955
					C46.506,56.666,45.04,59.586,42.965,61.16"/>
				<path fill="#FFD420" d="M40.192,62.367c-0.095,0.013-0.221,0.031-0.314,0.044c-0.297,0.035-0.297,0.035-0.45,0.05l-0.048,0.004
					c1.311-0.117,2.471-1.159,3.333-2.866c0.343,0.683,0.453,0.995,0.252,1.562C42.128,61.795,41.192,62.212,40.192,62.367"/>
				<path fill="#FFD420" d="M41.537,62.084l-0.307,0.077c-0.508,0.115-0.508,0.115-0.783,0.164l-0.248,0.041
					c2.473-0.387,4.543-2.354,5.718-5.275c0.324,0.865,0.427,1.27,0.209,2.094C44.883,60.594,43.31,61.607,41.537,62.084"/>
				<path fill="#231F20" d="M41.23,62.161c-0.508,0.115-0.508,0.115-0.783,0.164l-0.248,0.041c0.996-0.156,1.927-0.568,2.76-1.195
					c-0.291,0.433-0.489,0.623-1.422,0.913L41.23,62.161"/>
				<path fill="#231F20" d="M46.126,59.185c0.173-0.725,0.168-1.128-0.209-2.094c0.668-1.663,1.046-3.634,1.044-5.799
					c-0.001-0.14-0.003-0.279-0.006-0.419c0.8-0.122,1.508-0.263,2.098-0.418c0.004,0.139,0.006,0.278,0.007,0.419
					C49.064,54.203,47.949,57.12,46.126,59.185"/>
				<path fill="#FFD520" d="M44.405,60.924c0.114-0.063,0.227-0.128,0.338-0.195l-0.128,0.076L44.405,60.924"/>
				<path fill="#231F20" d="M50.483,50.345c0.007,4.538-2.341,8.41-5.862,10.457l-0.006,0.003l0.128-0.076
					c3.42-2.061,5.688-5.879,5.681-10.351c0-0.14-0.002-0.279-0.007-0.418c0.021-0.012,0.04-0.022,0.059-0.034
					C50.48,50.065,50.482,50.205,50.483,50.345"/>
				<path fill="#FFD420" d="M45.902,57.089c-0.447-0.91-0.751-1.396-1.775-2.654c0.103-0.892,0.156-1.837,0.155-2.826
					c0-0.14-0.001-0.279-0.004-0.419c0.962-0.085,1.856-0.19,2.658-0.313c0.003,0.14,0.005,0.279,0.006,0.419
					C46.945,53.458,46.568,55.428,45.902,57.089"/>
				<path fill="#231F20" d="M44.126,54.445c-0.732-0.841-1.1-1.264-2.834-3.064c0.981-0.05,1.755-0.089,2.986-0.198
					c0.003,0.143,0.004,0.284,0.004,0.426C44.283,52.601,44.229,53.551,44.126,54.445"/>
				<path fill="#231F20" d="M29.082,50.827c-0.006-0.001-0.012-0.002-0.018-0.002c0.017-0.745,0.081-1.479,0.188-2.2l0.014,0.03
					C29.161,49.366,29.099,50.092,29.082,50.827"/>
				<path fill="#231F20" d="M29.266,48.655l-0.014-0.03c0.775-5.213,3.818-9.642,7.627-11l-0.016,0.007
					C33.064,39.002,30.032,43.438,29.266,48.655"/>
				<path fill="#231F20" d="M36.863,37.632l0.016-0.007c0.441-0.157,0.893-0.272,1.351-0.345l0,0
					C37.766,37.354,37.309,37.472,36.863,37.632"/>
				<path fill="#FFD420" d="M30.629,41.354c0.443-0.992,0.768-1.488,1.707-2.292c1.749-1.05,3.758-1.69,5.894-1.782
					C35.288,37.546,32.616,39.074,30.629,41.354"/>
				<path fill="#231F20" d="M27.13,50.4c-0.515-0.15-0.913-0.311-1.181-0.479c0.141-4.576,2.684-8.636,6.387-10.859
					c-0.875,0.777-1.266,1.241-1.707,2.292C28.551,43.74,27.225,46.951,27.13,50.4"/>
				<path fill="#FFD420" d="M38.067,51.445c-1.066-0.001-2.148-0.023-3.225-0.07c-0.032-0.002-0.064-0.004-0.097-0.005
					c0.017-2.258,0.199-4.46,0.506-6.431c0.917,1.151,1.398,1.71,2.818,3.193C38.067,49.21,38.066,50.32,38.067,51.445"/>
				<path fill="#FFD420" d="M35.253,44.931c-0.859-1.194-1.228-1.815-1.582-2.92c1.18-2.488,2.786-4.255,4.559-4.73
					C36.968,37.992,35.865,41.003,35.253,44.931"/>
				<path fill="#231F20" d="M34.746,51.37c-1.105-0.05-2.134-0.121-3.073-0.211c0.053-3.395,0.808-6.639,1.997-9.148
					c0.363,1.06,0.657,1.66,1.583,2.92C34.946,46.904,34.763,49.109,34.746,51.37"/>
				<path fill="#FFD420" d="M31.673,51.159c-0.354-0.034-0.693-0.071-1.02-0.109c-0.423-0.649-0.951-1.458-1.388-2.395
					c0.543-3.692,2.22-6.993,4.5-9.093c-0.304,0.839-0.364,1.336-0.1,2.458C32.479,44.528,31.726,47.77,31.673,51.159"/>
				<path fill="#231F20" d="M33.666,42.021c-0.228-1.032-0.247-1.559,0.1-2.458c1.32-1.216,2.842-2.029,4.464-2.282
					C36.455,37.756,34.847,39.526,33.666,42.021"/>
				<path fill="#231F20" d="M30.45,44.372c-0.186-1.229-0.186-1.87,0.182-3.02c1.985-2.279,4.657-3.807,7.598-4.072l0,0
					c-0.7,0.117-0.827,0.139-1.351,0.345C34.168,38.592,31.844,41.116,30.45,44.372"/>
				<path fill="#FFD420" d="M33.774,39.546c0.426-0.738,0.706-1.095,1.775-1.657c0.857-0.316,1.756-0.524,2.68-0.608
					C36.612,37.532,35.093,38.339,33.774,39.546"/>
				<path fill="#FFD420" d="M29.064,50.825c-0.758-0.128-1.407-0.271-1.935-0.425c0.095-3.45,1.422-6.662,3.502-9.048
					c-0.323,1.068-0.399,1.686-0.182,3.02C29.617,46.32,29.116,48.529,29.064,50.825"/>
				<path fill="#231F20" d="M32.348,39.056c0.929-0.669,1.45-0.985,2.896-1.427c0.957-0.228,1.957-0.349,2.985-0.349l0,0
					C36.098,37.372,34.094,38.01,32.348,39.056"/>
				<path fill="#FFD420" d="M25.949,49.922c-0.266-0.167-0.401-0.34-0.396-0.516l0.021-0.44c0.365-5.529,4.366-10.076,9.67-11.337
					c-1.197,0.38-1.864,0.661-2.896,1.427C28.639,41.277,26.09,45.342,25.949,49.922"/>
				<path fill="#231F20" d="M31.673,51.159c-0.962-0.094-1.83-0.205-2.591-0.332c0.052-2.293,0.551-4.501,1.381-6.448
					c0.322,1.278,0.581,1.96,1.483,3.476C31.785,48.925,31.689,50.033,31.673,51.159"/>
				<path fill="#FFD420" d="M31.673,51.165c0.017-1.131,0.112-2.245,0.275-3.321c0.776,1.155,1.253,1.837,2.798,3.526
					C33.688,51.316,32.923,51.278,31.673,51.165"/>
				<path fill="#231F20" d="M35.55,37.889c0.705-0.285,1.315-0.531,2.68-0.608l0,0C37.306,37.364,36.407,37.572,35.55,37.889"/>
				<path fill="none" stroke="#000000" stroke-width="0" stroke-linecap="round" stroke-linejoin="round" d="M50.953,49.793
					c-0.013,0.682-0.032,1.712-0.396,3.176c-0.329,1.321-0.904,2.485-1.098,2.821c-0.655,1.139-1.873,3.258-4.839,5.012"/>
				<path fill="#231F20" stroke="#000000" stroke-width="0" stroke-linecap="round" stroke-linejoin="round" d="M50.499,49.914
					c0.324-0.188,0.476-0.377,0.47-0.563c0.174,5.287-2.804,9.389-6.326,11.436l-0.014,0.008l0.134-0.08
					c3.418-2.059,5.686-5.877,5.679-10.349c0-0.14-0.003-0.279-0.007-0.419c0.021-0.011,0.042-0.023,0.063-0.035
					c0.004,0.14,0.007,0.279,0.007,0.419"/>
				<polygon fill-rule="evenodd" clip-rule="evenodd" fill="none" points="50.104,46.625 50.103,46.622 50.099,46.622 				"/>
				<path fill="#EE3E42" d="M44.247,41.759L44.247,41.759L44.247,41.759c0.004,0,0.006-0.001,0.01-0.001l0,0
					c0,0,0.003-0.001,0.006-0.001c0.124-0.021,0.238-0.04,0.351-0.061c0.723-0.134,2.3-0.479,2.3-0.957c0,0,0.702,0.642,1.174,1.518
					c0.057,0.096,0.105,0.194,0.142,0.296c0.042,0.1,0.07,0.192,0.085,0.276c0.004,0.005,0.008,0.011,0.011,0.016
					c0.003,0.04,0.003,0.076,0.001,0.109c-0.001,0.014-0.001,0.027-0.003,0.04c-0.027,0.272-0.194,0.277-0.375,0.197
					c-0.02-0.008-0.038-0.015-0.059-0.023c-0.65-0.293-0.862-0.889-0.988-1.135c-0.331,0.104-0.877,0.341-1.331,0.43
					c-0.053,0.011-0.149,0.033-0.204,0.043c0.535,0.882,1.046,1.934,1.412,2.953c0.637-0.655,1.634,0.56,1.682,1.732
					c0.028,0.688-0.281,1.303-0.911,1.081c0.504,0.934,0.343,2.302-0.613,2.602c-0.159-3.068-0.68-5.791-2.701-9.109l0,0l0,0"/>
				<path fill-rule="evenodd" clip-rule="evenodd" fill="#EE3E42" d="M44.361,39.406c-0.003-0.002-0.006-0.004-0.01-0.006
					c0.003,0,0.006,0.001,0.009,0.001c-0.003-0.01-0.006-0.019-0.009-0.028c0.01-0.013,0.022-0.028,0.031-0.041
					c0.016-0.001,0.028-0.003,0.042-0.004l-0.003-0.004c0,0,0.092-0.386,1.544,0.618c-2.469-1.928-4.974-2.476-6.457-2.62
					c0.157,0.046,0.275,0.092,0.364,0.137c0.078,0.038,0.133,0.074,0.172,0.108c0.004,0,0.007-0.002,0.007-0.002
					c0.18,0.021,0.343,0.052,0.489,0.088l0,0l0,0c0.053,0.019,0.105,0.037,0.159,0.058c0.007,0.002,0.013,0.005,0.02,0.008
					c0.046,0.018,0.093,0.035,0.14,0.055c0.012,0.004,0.023,0.01,0.035,0.015c0.043,0.018,0.086,0.036,0.13,0.055
					c0.013,0.006,0.026,0.012,0.04,0.017c0.055,0.025,0.111,0.05,0.166,0.076v0.003c0.446,0.218,0.808,0.463,0.81,0.65
					c-0.066,0.04-0.087,0.053-0.283,0c0.748,0.534,1.82,1.538,2.455,2.277c0.436-0.082,1.085-0.176,1.385-0.275
					C45.574,40.612,44.492,39.799,44.361,39.406z"/>
				<path fill-rule="evenodd" clip-rule="evenodd" fill="#FFFFFF" d="M46.906,40.749c-0.312-0.293-0.625-0.562-0.94-0.807
					c-0.588-0.406-0.952-0.585-1.179-0.653l0.002-0.003c0,0-0.725-0.233-0.314,0.321l0.002-0.002
					c0.314,0.417,1.101,1.004,1.12,0.985c-0.3,0.1-0.949,0.193-1.385,0.275c-0.635-0.739-1.707-1.743-2.455-2.277
					c0.196,0.053,0.217,0.04,0.283,0c-0.002-0.188-0.363-0.433-0.81-0.65v-0.003c-0.055-0.026-0.111-0.051-0.166-0.076
					c-0.014-0.005-0.027-0.011-0.04-0.017c-0.044-0.019-0.087-0.037-0.13-0.055c-0.012-0.005-0.023-0.011-0.035-0.015
					c-0.047-0.02-0.094-0.038-0.14-0.055c-0.007-0.003-0.013-0.006-0.02-0.008c-0.054-0.021-0.106-0.039-0.159-0.058l0,0
					c-0.146-0.036-0.31-0.067-0.489-0.088c0,0-0.003,0.002-0.007,0.002c0.011,0.009,0.018,0.017,0.026,0.025l-0.048-0.023
					c0.01,0,0.018-0.002,0.021-0.002c-0.039-0.034-0.094-0.07-0.172-0.108c-0.089-0.045-0.207-0.091-0.364-0.137
					c-0.36-0.036-0.661-0.047-0.887-0.049c-0.169-0.007-0.306-0.008-0.335,0.002c-0.002,0.002-0.003,0.002-0.003,0.004
					c-0.052,0.002-0.082,0.004-0.082,0.004l0.057,0.018c-0.031-0.005-0.064-0.01-0.097-0.015c0.079,0.013,0.158,0.028,0.237,0.044
					c0.196,0.065,0.607,0.175,0.917,0.255c1.899,0.668,3.61,2.166,4.931,4.174c0.021-0.002,0.039-0.006,0.059-0.009
					c1.177-0.197,1.827-0.415,2.295-0.631c0,0,0.002-0.001,0.003-0.002c0.336-0.186,0.299-0.368,0.299-0.368H46.906z"/>
				<path fill-rule="evenodd" clip-rule="evenodd" fill="#EE3E42" d="M44.233,41.765L44.233,41.765L44.233,41.765L44.233,41.765
					L44.233,41.765c-2.062-3.038-3.957-3.946-5.682-4.392c0.045,0.014,0.089,0.026,0.134,0.041c-0.08-0.021-0.162-0.043-0.234-0.062
					c-0.021-0.007-0.04-0.014-0.057-0.019c0.052,0.013,0.104,0.025,0.157,0.039c-0.06-0.017-0.12-0.033-0.183-0.049
					c-0.022-0.006-0.039-0.012-0.051-0.017c0.005,0.003,0.011,0.006,0.018,0.01c-0.04-0.009-0.08-0.018-0.121-0.026l0,0l0,0
					c0.369,0.408,0.886,0.58,1.011,0.617c-0.035,0.153-0.009,0.458,0.523,0.845c0.083,0.059,0.163,0.106,0.239,0.145
					c0.822,0.43,1.004,0.095,1.042-0.039c0.005-0.004,0.01-0.007,0.015-0.011c0.251,0.185,0.739,0.578,1.279,1.189
					c0.311,0.373,0.604,0.698,0.825,1.025c-0.508,0.063-1.182,0.124-1.848,0.171c-0.038-0.807-0.62-1.209-0.986-1.345
					c-0.801-0.298-1.064,0.646-0.718,1.308c-0.634-0.343-1.384-0.037-1.489,0.964C40.613,42.146,42.33,42.035,44.233,41.765
					L44.233,41.765L44.233,41.765"/>
				<path fill="#231F20" d="M38.07,48.133c-1.244-1.306-1.91-2.036-2.818-3.193c0.611-3.933,1.715-6.947,2.978-7.659l0,0l0,0
					C38.148,38.205,38.085,42.732,38.07,48.133"/>
			</g>
			<path fill="#231F20" d="M23.009,40.464l0.072,0.036c-0.123,0.258-0.065,0.4,0.179,0.521l1.031,0.511
				c0.473,0.235,0.83,0.788,0.42,1.617c-0.361,0.729-0.963,0.896-1.508,0.625l-1.115-0.553c-0.244-0.121-0.316-0.071-0.449,0.187
				l-0.072-0.036l0.486-0.98l0.073,0.035l-0.018,0.035c-0.104,0.209-0.092,0.329,0.129,0.439l1.061,0.525
				c0.516,0.256,0.975,0.108,1.257-0.461c0.213-0.431,0.251-0.959-0.396-1.28l-0.89-0.441c-0.366-0.182-0.46-0.157-0.633,0.152
				l-0.072-0.035L23.009,40.464z"/>
			<path fill="#231F20" d="M27.419,39.2l-3.188,0.201l1.397,1.177c0.234,0.197,0.327,0.187,0.561-0.09l0.062,0.053l-0.637,0.755
				l-0.062-0.052l0.011-0.014c0.17-0.202,0.157-0.325,0.007-0.451l-1.603-1.35c-0.115,0.03-0.213,0.094-0.312,0.204l-0.063-0.052
				l0.431-0.512l2.893-0.187l-1.297-1.092c-0.198-0.168-0.283-0.14-0.51,0.115l-0.062-0.052l0.642-0.762l0.063,0.052
				c-0.206,0.244-0.208,0.332-0.081,0.439l1.817,1.531L27.419,39.2z"/>
			<path fill="#231F20" d="M28.969,37.83l-0.797,0.661l-0.051-0.063c0.194-0.179,0.194-0.267,0.012-0.486l-1.159-1.396
				c-0.146-0.178-0.25-0.175-0.441-0.032l-0.052-0.063l0.796-0.661l0.052,0.063c-0.206,0.171-0.24,0.277-0.059,0.496l1.154,1.39
				c0.161,0.194,0.268,0.217,0.493,0.028L28.969,37.83z"/>
			<path fill="#231F20" d="M30.538,36.853l-1.963-1.52c-0.228-0.179-0.305-0.207-0.528-0.076l-0.041-0.07l1.011-0.592l0.041,0.07
				c-0.333,0.205-0.369,0.33-0.2,0.458l1.626,1.258l-0.309-1.857c-0.02-0.126-0.041-0.213-0.071-0.265
				c-0.064-0.11-0.182-0.1-0.432,0.046l-0.041-0.069l0.853-0.5l0.04,0.07c-0.19,0.112-0.238,0.258-0.192,0.537l0.391,2.403
				L30.538,36.853z"/>
			<path fill="#231F20" d="M33.667,34.355l-0.076,0.025c-0.132-0.274-0.219-0.28-0.384-0.224l-0.681,0.235l0.296,0.858
				c0.063,0.185,0.145,0.197,0.294,0.146l0.62-0.215c0.281-0.097,0.329-0.234,0.311-0.615l0.072-0.025l0.143,0.622l-2.139,0.737
				l-0.026-0.076l0.113-0.039c0.321-0.111,0.348-0.219,0.264-0.461l-0.586-1.699c-0.077-0.226-0.163-0.304-0.433-0.211l-0.09,0.03
				l-0.025-0.076l1.933-0.667l0.226,0.549l-0.072,0.025c-0.171-0.324-0.296-0.362-0.441-0.313l-0.85,0.293l0.342,0.991l0.721-0.249
				c0.145-0.05,0.189-0.142,0.13-0.383l0.076-0.026L33.667,34.355z"/>
			<path fill="#231F20" d="M35.282,32.297c0.075-0.019,0.131-0.024,0.211-0.034c0.651-0.077,0.866,0.206,0.912,0.6
				c0.061,0.507-0.225,0.743-0.694,0.799c-0.097,0.012-0.159,0.023-0.263,0.022L35.282,32.297z M35.458,33.764
				c0.067-0.004,0.124-0.006,0.216-0.018c0.114-0.013,0.182-0.025,0.287-0.042c0.109,0.056,0.272,0.161,0.48,0.324l0.313,0.246
				c0.421,0.332,0.63,0.471,1.366,0.348l-0.009-0.076c-0.328,0.018-0.604-0.107-0.884-0.328l-0.374-0.294
				c-0.223-0.175-0.363-0.278-0.535-0.383c0.336-0.143,0.52-0.435,0.482-0.752c-0.052-0.432-0.441-0.711-1.224-0.618
				c-0.274,0.032-0.359,0.047-0.532,0.076c-0.172,0.029-0.428,0.077-0.529,0.089l0.01,0.08l0.093-0.011
				c0.245-0.029,0.326,0.038,0.357,0.3l0.212,1.781c0.034,0.283-0.047,0.362-0.297,0.392l-0.072,0.009l0.01,0.08l1.197-0.143
				l-0.009-0.08l-0.098,0.012c-0.237,0.028-0.347-0.022-0.377-0.277L35.458,33.764z"/>
			<path fill="#231F20" d="M38.73,34.009c0.06,0.385,0.34,0.629,0.671,0.654c0.285,0.022,0.599-0.12,0.625-0.455
				c0.049-0.612-1.3-0.905-1.242-1.648c0.028-0.353,0.37-0.591,0.804-0.557c0.357,0.028,0.421,0.14,0.569,0.151
				c0.034,0.003,0.052-0.005,0.08-0.036l0.067,0.005l0.03,0.545l-0.072-0.006c-0.095-0.315-0.352-0.531-0.645-0.554
				c-0.28-0.022-0.488,0.124-0.507,0.362c-0.046,0.603,1.304,0.87,1.243,1.651c-0.032,0.417-0.427,0.698-0.923,0.658
				c-0.233-0.018-0.522-0.155-0.582-0.16c-0.038-0.003-0.069,0.017-0.088,0.041l-0.073-0.007l-0.038-0.652L38.73,34.009z"/>
			<path fill="#231F20" d="M42.006,35.126l-1.011-0.221l0.018-0.079c0.261,0.044,0.329-0.012,0.39-0.29l0.386-1.772
				c0.05-0.226-0.016-0.305-0.246-0.368l0.017-0.079l1.012,0.221l-0.018,0.079c-0.262-0.058-0.366-0.019-0.427,0.259l-0.385,1.766
				c-0.053,0.245-0.005,0.344,0.282,0.406L42.006,35.126z"/>
			<path fill="#231F20" d="M44.153,35.432c-0.085,0.213-0.043,0.317,0.198,0.413l0.146,0.059l-0.03,0.075l-1.247-0.496l0.03-0.075
				l0.146,0.059c0.243,0.096,0.344,0.049,0.429-0.165l0.775-1.956l-0.689-0.273c-0.158-0.063-0.266,0-0.463,0.325l-0.071-0.028
				l0.317-0.616l0.075,0.03c-0.005,0.024,0.004,0.047,0.025,0.064c0.021,0.017,0.046,0.032,0.073,0.043l1.905,0.755
				c0.056,0.022,0.12,0.034,0.146-0.01l0.075,0.029l-0.191,0.667l-0.071-0.028c0.079-0.372,0.044-0.492-0.114-0.555l-0.689-0.273
				L44.153,35.432z"/>
			<path fill="#231F20" d="M48.49,35.709c0.244-0.119,0.217-0.225-0.01-0.376l0.045-0.067l0.8,0.535l-0.044,0.067
				c-0.254-0.143-0.42-0.116-0.63-0.016l-1.253,0.602l-0.355,0.532c-0.126,0.187-0.107,0.307,0.108,0.451l0.046,0.03l-0.045,0.067
				l-0.975-0.65l0.045-0.067l0.068,0.045c0.219,0.146,0.338,0.107,0.453-0.066l0.334-0.499l0.027-1.405
				c0.009-0.389-0.039-0.493-0.265-0.654l0.045-0.066l0.941,0.629l-0.044,0.067c-0.277-0.185-0.34-0.13-0.343,0.104l-0.018,1.254
				L48.49,35.709z"/>
			<path fill="#231F20" d="M52.009,40.781c-0.48,0.367-1.17,0.476-1.591-0.077c-0.415-0.545-0.297-1.316,0.337-1.799
				c0.406-0.311,1.143-0.497,1.598,0.099C52.778,39.563,52.64,40.302,52.009,40.781z M52.364,41.015
				c0.609-0.465,0.628-1.347,0.141-1.986c-0.551-0.723-1.423-0.876-2.098-0.362c-0.634,0.483-0.634,1.368-0.128,2.032
				C50.78,41.354,51.68,41.536,52.364,41.015z"/>
			<path fill="#231F20" d="M53.258,43.678l-0.031-0.066c0.22-0.113,0.25-0.228,0.162-0.412l-0.34-0.712l-0.842,0.402
				c-0.215,0.103-0.274,0.188-0.136,0.477L51.997,43.4l-0.445-0.934l0.073-0.036c0.129,0.231,0.199,0.25,0.511,0.102l1.507-0.719
				c0.247-0.117,0.348-0.19,0.225-0.461l0.072-0.035l0.822,1.723l-0.453,0.217l-0.032-0.065c0.222-0.11,0.277-0.231,0.163-0.47
				l-0.349-0.73l-0.903,0.431l0.363,0.762c0.067,0.142,0.182,0.173,0.353,0.105l0.03,0.065L53.258,43.678z"/>
			<path fill="#231F20" d="M23.438,60.351l1.533-2.828l-0.006-0.009l-2.069,1.319c-0.234,0.149-0.161,0.353-0.026,0.558
				l-0.084,0.061l-0.664-0.917l0.083-0.061c0.233,0.322,0.332,0.31,0.75,0.041l1.79-1.137c0.304-0.193,0.376-0.26,0.196-0.546
				l0.079-0.058l0.482,0.665l-1.45,2.673l2.987-0.554l0.471,0.647l-0.08,0.058c-0.174-0.203-0.238-0.284-0.382-0.166l-1.894,1.589
				c-0.387,0.321-0.361,0.355-0.128,0.678l-0.084,0.061l-0.821-1.133l0.085-0.061c0.149,0.208,0.354,0.369,0.574,0.182l1.881-1.56
				l-0.007-0.01l-3.144,0.607L23.438,60.351z"/>
			<path fill="#231F20" d="M28.831,63.295l-0.759-0.558l1.124-0.748L28.831,63.295z M28.764,63.542l-0.294,1.015
				c-0.015,0.057-0.031,0.146-0.083,0.216c-0.091,0.122-0.202,0.081-0.452-0.104l-0.114-0.083l-0.061,0.083l1.205,0.887l0.062-0.083
				c-0.219-0.161-0.278-0.272-0.195-0.569l0.873-3.108l-0.382-0.28l-0.031,0.125l-2.4,1.593c-0.421,0.278-0.505,0.291-0.794,0.086
				l-0.061,0.083l1.013,0.745l0.062-0.083l-0.07-0.052c-0.241-0.177-0.323-0.305-0.235-0.423c0.045-0.063,0.199-0.152,0.29-0.213
				l0.761-0.501L28.764,63.542z"/>
			<path fill="#231F20" d="M32.256,63.466c0.096,0.022,0.162,0.046,0.26,0.08c0.79,0.281,0.874,0.727,0.705,1.203
				c-0.219,0.616-0.679,0.725-1.248,0.522c-0.118-0.041-0.196-0.063-0.314-0.123L32.256,63.466z M31.624,65.246
				c0.08,0.034,0.145,0.063,0.258,0.103c0.139,0.05,0.223,0.074,0.353,0.113c0.095,0.127,0.221,0.339,0.366,0.645l0.219,0.458
				c0.295,0.619,0.457,0.896,1.368,1.174l0.033-0.094c-0.386-0.165-0.631-0.466-0.827-0.876l-0.261-0.549
				c-0.156-0.327-0.259-0.524-0.396-0.74c0.464,0.025,0.841-0.205,0.977-0.59c0.186-0.523-0.102-1.064-1.051-1.4
				c-0.333-0.118-0.438-0.149-0.651-0.215c-0.215-0.064-0.535-0.153-0.658-0.198l-0.034,0.098l0.113,0.04
				c0.298,0.105,0.352,0.229,0.238,0.547l-0.766,2.159c-0.122,0.345-0.259,0.389-0.562,0.281l-0.087-0.031l-0.035,0.098l1.452,0.515
				l0.034-0.098l-0.118-0.042c-0.287-0.102-0.382-0.222-0.272-0.53L31.624,65.246z"/>
			<path fill="#231F20" d="M37.799,65.131c0.199-0.283,0.104-0.385-0.243-0.414l0.009-0.104l1.226,0.104l-0.008,0.104
				c-0.372-0.004-0.542,0.129-0.715,0.37l-1.03,1.448l-0.069,0.813c-0.024,0.288,0.068,0.411,0.399,0.439l0.07,0.006L37.429,68
				l-1.491-0.127l0.009-0.103l0.103,0.008c0.336,0.029,0.445-0.087,0.468-0.354l0.065-0.764l-0.837-1.591
				c-0.23-0.439-0.35-0.526-0.7-0.567l0.009-0.103l1.442,0.122l-0.009,0.104c-0.423-0.036-0.459,0.064-0.317,0.328l0.754,1.413
				L37.799,65.131z"/>
			<path fill="#231F20" d="M42.323,67.576l-2.399,0.406l-0.017-0.103l0.176-0.03c0.248-0.041,0.325-0.138,0.279-0.411l-0.401-2.378
				c-0.049-0.284-0.154-0.388-0.492-0.33l-0.076,0.012l-0.017-0.101l1.584-0.268l0.017,0.102l-0.199,0.034
				c-0.348,0.059-0.433,0.111-0.376,0.443l0.417,2.475c0.024,0.145,0.093,0.188,0.248,0.162l0.789-0.133
				c0.316-0.054,0.393-0.193,0.652-0.717l0.096-0.017L42.323,67.576z"/>
			<path fill="#231F20" d="M44.921,64.857l-0.868,0.362l-0.063-1.348L44.921,64.857z M45.099,65.042l0.719,0.774
				c0.04,0.041,0.107,0.102,0.141,0.183c0.06,0.14-0.033,0.215-0.32,0.334l-0.13,0.055l0.039,0.096l1.382-0.577l-0.04-0.095
				c-0.251,0.104-0.377,0.099-0.59-0.126l-2.214-2.35l-0.437,0.183l0.091,0.093l0.129,2.877c0.021,0.505-0.01,0.582-0.334,0.724
				l0.039,0.096l1.161-0.484l-0.04-0.096l-0.081,0.033c-0.275,0.116-0.428,0.12-0.484-0.016c-0.029-0.07-0.027-0.248-0.031-0.358
				l-0.038-0.91L45.099,65.042z"/>
			<path fill="#231F20" d="M50.987,62.933l-4.053-0.479l1.487,1.801c0.25,0.302,0.369,0.31,0.726,0.015l0.065,0.079l-0.974,0.805
				l-0.065-0.08l0.017-0.013c0.261-0.216,0.271-0.373,0.111-0.566l-1.705-2.063c-0.152,0.012-0.289,0.068-0.439,0.186l-0.066-0.08
				l0.659-0.544l3.679,0.428l-1.38-1.671c-0.211-0.255-0.325-0.239-0.668,0.029l-0.065-0.079l0.981-0.812l0.065,0.08
				c-0.314,0.26-0.336,0.37-0.201,0.533l1.935,2.342L50.987,62.933z"/>
			<path fill="#231F20" d="M50.191,58.743c0.03-0.059,0.097-0.19,0.217-0.379c0.414-0.64,0.784-0.86,1.131-0.935
				c0.443-0.096,0.881,0.051,1.219,0.27c0.471,0.305,0.687,0.742,0.742,1.018c0.1,0.466,0.021,0.778-0.374,1.391
				c-0.234,0.361-0.307,0.334-0.493,0.212L50.191,58.743z M52.305,60.646c0.266,0.171,0.26,0.33,0.1,0.577l-0.05,0.078l0.087,0.056
				l0.946-1.463c0.747-1.157,0.265-2.227-0.425-2.672c-0.755-0.487-1.713-0.35-2.493,0.857c-0.153,0.238-0.329,0.52-0.482,0.777
				c-0.153,0.257-0.289,0.486-0.389,0.662l0.087,0.056l0.059-0.091c0.174-0.27,0.298-0.3,0.595-0.108L52.305,60.646z"/>
			<path fill="#231F20" d="M20.801,48.78v2.332c0,0.12,0.023,0.152,0.149,0.152h0.225v0.074h-1.011v-0.074h0.218
				c0.129,0,0.153-0.036,0.153-0.156v-2.007c-0.13,0.112-0.354,0.262-0.504,0.329L20,49.375c0.233-0.157,0.566-0.458,0.661-0.595
				H20.801z"/>
			<path fill="#231F20" d="M23.128,50.77c0,0.313-0.23,0.556-0.532,0.556c-0.308,0-0.534-0.254-0.534-0.596
				c0-0.261,0.138-0.462,0.412-0.611C22.941,50.332,23.128,50.501,23.128,50.77z M23.304,49.359c0-0.321-0.323-0.579-0.727-0.579
				c-0.396,0-0.729,0.298-0.729,0.651c0,0.273,0.172,0.479,0.549,0.646c-0.395,0.157-0.586,0.378-0.586,0.659
				c0,0.366,0.345,0.66,0.781,0.66c0.447,0,0.793-0.322,0.793-0.74c0-0.31-0.181-0.522-0.604-0.711
				C23.134,49.805,23.304,49.616,23.304,49.359z M23.061,49.355c0,0.229-0.111,0.413-0.336,0.555
				c-0.521-0.221-0.641-0.382-0.641-0.604c0-0.253,0.216-0.453,0.493-0.453C22.857,48.854,23.061,49.065,23.061,49.355z"/>
			<path fill="#231F20" d="M53.065,49.068h0.951c0.073,0,0.097-0.017,0.118-0.052h0.076l-0.045,0.311H53.15l-0.033,0.721
				c0.125-0.067,0.27-0.1,0.435-0.1c0.449,0,0.823,0.376,0.823,0.828c0,0.488-0.406,0.858-0.944,0.858
				c-0.321,0-0.586-0.112-0.586-0.254c0-0.068,0.061-0.125,0.132-0.125c0.217,0,0.294,0.283,0.547,0.283
				c0.297,0,0.551-0.312,0.551-0.678c0-0.37-0.254-0.646-0.6-0.646c-0.147,0-0.305,0.059-0.425,0.161l-0.041-0.028L53.065,49.068z"
				/>
			<path fill="#231F20" d="M56.126,50.859c0,0.455-0.193,0.708-0.475,0.708c-0.254,0-0.548-0.221-0.548-0.898
				c0-0.137,0.009-0.193,0.021-0.249c0.246-0.198,0.427-0.242,0.531-0.242C55.925,50.178,56.126,50.428,56.126,50.859z
				 M56.15,49.017c-0.841,0.237-1.348,0.828-1.348,1.572c0,0.616,0.346,1.046,0.841,1.046c0.43,0,0.784-0.368,0.784-0.813
				c0-0.411-0.318-0.74-0.713-0.74c-0.196,0-0.353,0.063-0.57,0.232c0.089-0.587,0.422-0.981,1.051-1.238L56.15,49.017z"/>
		</g>
		<path d="M71.612,45.099h-2.366l1.163-3.184L71.612,45.099z M71.838,45.689l0.916,2.494c0.055,0.138,0.15,0.343,0.15,0.563
			c0,0.383-0.287,0.466-1.066,0.466h-0.355v0.249h3.761v-0.249c-0.684,0-0.972-0.137-1.245-0.864l-2.857-7.589h-1.19l0.124,0.301
			l-2.489,6.796c-0.433,1.192-0.584,1.342-1.475,1.356v0.249h3.163v-0.249h-0.219c-0.752,0-1.108-0.137-1.108-0.507
			c0-0.192,0.179-0.604,0.274-0.863l0.793-2.152H71.838z"/>
		<path d="M77.526,48.973c0,0.413-0.313,0.646-0.693,0.646c-0.395,0-0.693-0.261-0.693-0.646c0-0.384,0.299-0.646,0.693-0.646
			C77.213,48.327,77.526,48.574,77.526,48.973z"/>
		<path d="M85.339,48.053c0,2.75-1.121,4.59-2.831,4.59c-0.753,0-1.327-0.311-1.327-0.731c0-0.287,0.219-0.548,0.493-0.548
			c0.465,0,0.834,0.644,1.408,0.644c0.656,0,1.122-0.492,1.122-2.011V42.69c0-1.204-0.124-1.478-1.107-1.478h-0.151v-0.249h3.461
			v0.249c-0.875,0.027-1.067,0.273-1.067,0.999V48.053z"/>
		<path d="M92.638,45.099h-2.366l1.162-3.184L92.638,45.099z M92.863,45.689l0.916,2.494c0.055,0.138,0.15,0.343,0.15,0.563
			c0,0.383-0.287,0.466-1.066,0.466h-0.356v0.249h3.762v-0.249c-0.684,0-0.971-0.137-1.245-0.864l-2.857-7.589h-1.189l0.122,0.301
			l-2.488,6.796c-0.433,1.192-0.584,1.342-1.475,1.356v0.249h3.163v-0.249H90.08c-0.752,0-1.107-0.137-1.107-0.507
			c0-0.192,0.178-0.604,0.272-0.863l0.794-2.152H92.863z"/>
		<path d="M101.884,49.461l-3.487-7.291h-0.027l-0.363,6.165c-0.039,0.698,0.473,0.85,1.088,0.877v0.249h-2.833v-0.249
			c0.998,0,1.121-0.22,1.189-1.466l0.328-5.329c0.054-0.904,0.027-1.151-0.821-1.206v-0.246h2.055l3.297,6.904l3.282-6.904h2.011
			v0.246c-0.67,0.055-0.931,0.068-0.902,0.534l0.438,6.206c0.082,1.261,0.191,1.261,1.19,1.261v0.249h-3.517v-0.249
			c0.644,0,1.273-0.179,1.218-0.904l-0.396-6.138h-0.027l-3.405,7.291H101.884z"/>
		<path d="M114.683,46.381h-0.25c-0.109-0.971-0.37-1.08-0.933-1.08h-2.317v2.911c0,0.629,0.233,0.752,0.741,0.752h2.111
			c0.949,0,1.236-0.369,1.578-1.535h0.246l-0.22,2.032h-7.261v-0.249h0.383c1.095,0,1.285-0.302,1.285-1.125v-5.781
			c0-0.766-0.178-1.093-1.094-1.093h-0.301v-0.248h6.564l0.109,1.896h-0.247c-0.178-1.156-0.515-1.4-1.003-1.4h-2.894v3.345h2.455
			c0.493,0,0.727-0.231,0.795-1.021h0.25V46.381z"/>
		<path d="M117.066,47.376c0.286,1.217,1.242,1.927,2.309,1.927c0.916,0,1.886-0.533,1.886-1.612c0-1.968-4.386-2.569-4.386-4.96
			c0-1.135,1.037-1.972,2.431-1.972c1.149,0,1.382,0.332,1.859,0.332c0.109,0,0.164-0.027,0.246-0.127h0.218l0.232,1.726h-0.232
			c-0.382-0.984-1.256-1.612-2.2-1.612c-0.902,0-1.53,0.519-1.53,1.284c0,1.94,4.386,2.46,4.386,4.974
			c0,1.34-1.188,2.332-2.786,2.332c-0.752,0-1.709-0.364-1.899-0.364c-0.123,0-0.219,0.067-0.272,0.158h-0.232l-0.286-2.085H117.066
			z"/>
		<path d="M134.427,43.189c-0.451-1.276-1.628-2.112-3.118-2.112c-2.284,0-3.707,1.659-3.707,3.964c0,2.482,1.777,4.307,3.856,4.307
			c1.081,0,2.408-0.37,3.337-2.03h0.261c-0.177,0.618-0.548,1.469-0.876,2.004c-0.875-0.124-1.477,0.346-3.09,0.346
			c-2.777,0-4.779-1.814-4.779-4.352c0-2.662,2.057-4.557,4.916-4.557c1.723,0,2.462,0.523,2.885,0.536
			c0.151,0,0.22-0.041,0.247-0.082h0.205l0.123,1.978L134.427,43.189z"/>
		<path d="M141.967,49.461h-6.113v-0.249h0.45c0.629,0,0.862-0.205,0.862-0.904v-6.068c0-0.725-0.219-1.026-1.081-1.026h-0.191
			v-0.249h4.035v0.249h-0.506c-0.889,0-1.122,0.096-1.122,0.943v6.302c0,0.369,0.15,0.506,0.547,0.506h2.012
			c0.807,0,1.053-0.314,1.914-1.491h0.247L141.967,49.461z"/>
		<path d="M148.675,45.099h-2.366l1.162-3.184L148.675,45.099z M148.9,45.689l0.916,2.494c0.055,0.138,0.149,0.343,0.149,0.563
			c0,0.383-0.286,0.466-1.065,0.466h-0.355v0.249h3.761v-0.249c-0.685,0-0.972-0.137-1.245-0.864l-2.858-7.589h-1.189l0.123,0.301
			l-2.488,6.796c-0.434,1.192-0.584,1.342-1.475,1.356v0.249h3.162v-0.249h-0.219c-0.751,0-1.107-0.137-1.107-0.507
			c0-0.192,0.178-0.604,0.273-0.863l0.794-2.152H148.9z"/>
		<path d="M154.837,41.104c0.247-0.027,0.424-0.027,0.685-0.027c2.106,0,2.682,0.99,2.682,2.27c0,1.65-0.999,2.298-2.518,2.298
			c-0.314,0-0.52,0.013-0.849-0.027V41.104z M154.837,45.868c0.22,0.013,0.397,0.026,0.698,0.026c0.369,0,0.588-0.014,0.93-0.026
			c0.328,0.218,0.808,0.615,1.41,1.219l0.905,0.904c1.22,1.217,1.835,1.737,4.229,1.628v-0.246
			c-1.053-0.068-1.888-0.576-2.694-1.384l-1.082-1.081c-0.645-0.645-1.057-1.027-1.563-1.415c1.124-0.331,1.824-1.197,1.824-2.229
			c0-1.403-1.14-2.438-3.672-2.438c-0.89,0-1.162,0.014-1.723,0.04c-0.562,0.042-1.396,0.098-1.725,0.098v0.249h0.301
			c0.794,0,1.026,0.247,1.026,1.098v5.764c0,0.918-0.287,1.138-1.095,1.138h-0.232v0.249h3.871v-0.249h-0.314
			c-0.766,0-1.095-0.206-1.095-1.028V45.868z"/>
		<path d="M167.53,49.461v-0.249c0.629-0.015,0.889-0.124,0.889-0.385c0-0.232-0.301-0.699-1.682-2.085
			c-1.095-1.097-1.423-1.3-2.024-1.234v2.565c0,0.864,0.246,1.139,1.094,1.139h0.178v0.249h-3.747v-0.249h0.246
			c0.875,0,1.095-0.302,1.095-1.001V42.2c0-0.822-0.37-0.987-1.095-0.987h-0.246v-0.249h3.692v0.249h-0.123
			c-0.82,0-1.094,0.261-1.094,1.083v2.962c0.533-0.055,0.958-0.302,1.532-0.878c1.066-1.068,1.9-2.303,1.9-2.742
			c0-0.314-0.205-0.425-0.943-0.425v-0.249h3.597v0.249c-0.971,0.014-1.395,0.151-1.805,0.563c-0.425,0.425-1.286,2.139-2.723,3.235
			c0.246,0.041,0.493,0.247,1.095,0.84c1.436,1.44,2.202,2.511,2.653,2.964c0.232,0.233,0.588,0.397,1.519,0.397v0.249H167.53z"/>
		<path d="M66.247,58.379c0.153,0.645,0.66,1.021,1.227,1.021c0.486,0,1.001-0.282,1.001-0.855c0-1.043-2.329-1.362-2.329-2.63
			c0-0.602,0.552-1.048,1.291-1.048c0.61,0,0.734,0.178,0.987,0.178c0.059,0,0.088-0.014,0.131-0.075h0.116l0.123,0.924h-0.123
			c-0.203-0.522-0.668-0.855-1.168-0.855c-0.479,0-0.813,0.275-0.813,0.681c0,1.029,2.33,1.305,2.33,2.638
			c0,0.71-0.632,1.237-1.48,1.237c-0.399,0-0.907-0.193-1.009-0.193c-0.065,0-0.116,0.036-0.145,0.08h-0.124l-0.152-1.102H66.247z"
			/>
		<path d="M74.494,56.158c-0.238-0.677-0.862-1.12-1.653-1.12c-1.211,0-1.966,0.88-1.966,2.102c0,1.316,0.943,2.283,2.045,2.283
			c0.573,0,1.277-0.196,1.771-1.076h0.138c-0.094,0.327-0.29,0.778-0.464,1.063c-0.465-0.065-0.784,0.185-1.639,0.185
			c-1.474,0-2.532-0.963-2.532-2.309c0-1.41,1.088-2.418,2.604-2.418c0.913,0,1.306,0.28,1.53,0.283c0.079,0,0.115-0.021,0.13-0.043
			h0.109l0.065,1.055L74.494,56.158z"/>
		<path d="M77.01,57.321v1.382c0,0.473,0.094,0.641,0.582,0.641h0.021v0.137h-1.822v-0.137h0.043c0.428,0,0.573-0.116,0.573-0.531
			V55.62c0-0.377-0.124-0.485-0.522-0.515V54.97h1.729v0.136c-0.517,0-0.604,0.138-0.604,0.695v1.26h2.852v-1.427
			c0-0.383-0.124-0.528-0.575-0.528h-0.139V54.97h1.867v0.136c-0.436,0.015-0.552,0.146-0.552,0.594v3.012
			c0,0.517,0.146,0.633,0.581,0.633h0.072v0.137h-2.056v-0.137h0.226c0.473,0,0.575-0.168,0.575-0.546v-1.477H77.01z"/>
		<path d="M86.702,57.344c0,1.033-0.566,2.079-1.749,2.079c-1.169,0-2.091-0.959-2.091-2.319c0-0.873,0.508-2.065,1.785-2.065
			C85.846,55.038,86.702,55.99,86.702,57.344z M87.384,57.104c0-1.31-1.176-2.236-2.547-2.236c-1.547,0-2.657,1.014-2.657,2.462
			c0,1.359,1.197,2.265,2.62,2.265C86.208,59.594,87.384,58.573,87.384,57.104z"/>
		<path d="M93.144,57.344c0,1.033-0.566,2.079-1.75,2.079c-1.168,0-2.091-0.959-2.091-2.319c0-0.873,0.508-2.065,1.785-2.065
			C92.286,55.038,93.144,55.99,93.144,57.344z M93.824,57.104c0-1.31-1.175-2.236-2.547-2.236c-1.546,0-2.656,1.014-2.656,2.462
			c0,1.359,1.197,2.265,2.62,2.265C92.649,59.594,93.824,58.573,93.824,57.104z"/>
		<path d="M98.063,59.48H94.82v-0.137h0.239c0.334,0,0.457-0.108,0.457-0.479V55.65c0-0.385-0.116-0.545-0.573-0.545h-0.102V54.97
			h2.141v0.136h-0.269c-0.472,0-0.596,0.051-0.596,0.501v3.345c0,0.195,0.08,0.268,0.291,0.268h1.066
			c0.428,0,0.559-0.166,1.015-0.796h0.131L98.063,59.48z"/>
		<path d="M106.548,57.344c0,1.033-0.567,2.079-1.75,2.079c-1.169,0-2.091-0.959-2.091-2.319c0-0.873,0.509-2.065,1.786-2.065
			C105.69,55.038,106.548,55.99,106.548,57.344z M107.229,57.104c0-1.31-1.175-2.236-2.547-2.236c-1.547,0-2.656,1.014-2.656,2.462
			c0,1.359,1.197,2.265,2.619,2.265C106.054,59.594,107.229,58.573,107.229,57.104z"/>
		<path d="M111.522,57.748h-0.124c-0.015-0.421-0.167-0.552-0.518-0.552h-1.347v1.589c0,0.406,0.088,0.559,0.634,0.559v0.137h-1.766
			v-0.137c0.45-0.029,0.529-0.123,0.529-0.711v-2.845c0-0.464-0.036-0.675-0.543-0.683V54.97h3.258v0.856h-0.123
			c-0.007-0.421-0.152-0.596-0.604-0.596h-1.385v1.705h1.442c0.269,0,0.4-0.152,0.422-0.464h0.124V57.748z"/>
		<path d="M118.254,57.849h-0.137c-0.058-0.515-0.195-0.573-0.492-0.573h-1.224v1.545c0,0.334,0.124,0.398,0.392,0.398h1.115
			c0.506,0,0.657-0.195,0.839-0.818h0.131l-0.116,1.08h-3.847v-0.137h0.203c0.58,0,0.682-0.159,0.682-0.595v-3.063
			c0-0.406-0.095-0.581-0.58-0.581h-0.159V54.97h3.477l0.058,1.008h-0.13c-0.095-0.617-0.275-0.747-0.536-0.747h-1.527v1.784h1.297
			c0.261,0,0.384-0.123,0.419-0.543h0.137V57.849z"/>
		<path d="M124.594,59.537L120.84,55.6v3.113c0,0.522,0.116,0.631,0.732,0.631v0.137h-1.684v-0.137h0.029
			c0.45,0,0.595-0.152,0.595-0.486v-3.569c-0.167-0.117-0.355-0.175-0.609-0.183V54.97h1.14l3.412,3.564v-2.891
			c0-0.443-0.13-0.523-0.71-0.538V54.97h1.697v0.136c-0.544,0-0.66,0.095-0.66,0.378v4.054H124.594z"/>
		<path d="M130.721,59.146c-0.719,0.366-1.639,0.448-1.941,0.448c-1.591,0-2.331-1.22-2.331-2.277c0-1.093,0.762-2.449,2.534-2.449
			c0.777,0,1.292,0.236,1.445,0.236c0.064,0,0.123-0.015,0.167-0.043h0.103v1.17l-0.146,0.001c-0.196-0.91-0.813-1.193-1.491-1.193
			c-1.277,0-1.93,1.062-1.93,2.234c0,1.487,1.045,2.15,1.879,2.15c0.333,0,0.703-0.072,1.109-0.277v-0.918
			c0-0.415-0.145-0.554-0.58-0.554h-0.269v-0.125h1.958v0.125c-0.362,0.021-0.507,0.146-0.507,0.459V59.146z"/>
		<path d="M133.972,59.48h-1.763v-0.137c0.449-0.021,0.544-0.138,0.544-0.624v-3.092c0-0.391-0.138-0.5-0.544-0.522V54.97h1.763
			v0.136c-0.457,0-0.616,0.103-0.616,0.589v3.076c0,0.428,0.116,0.573,0.616,0.573V59.48z"/>
		<path d="M139.688,59.537l-3.753-3.938v3.113c0,0.522,0.116,0.631,0.731,0.631v0.137h-1.683v-0.137h0.028
			c0.45,0,0.596-0.152,0.596-0.486v-3.569c-0.167-0.117-0.355-0.175-0.609-0.183V54.97h1.14l3.412,3.564v-2.891
			c0-0.443-0.132-0.523-0.71-0.538V54.97h1.697v0.136c-0.544,0-0.66,0.095-0.66,0.378v4.054H139.688z"/>
		<path d="M144.497,57.849h-0.137c-0.058-0.515-0.195-0.573-0.493-0.573h-1.223v1.545c0,0.334,0.123,0.398,0.391,0.398h1.115
			c0.506,0,0.658-0.195,0.84-0.818h0.13l-0.115,1.08h-3.848v-0.137h0.203c0.58,0,0.683-0.159,0.683-0.595v-3.063
			c0-0.406-0.095-0.581-0.581-0.581h-0.159V54.97h3.478l0.057,1.008h-0.13c-0.095-0.617-0.275-0.747-0.535-0.747h-1.527v1.784h1.296
			c0.261,0,0.384-0.123,0.42-0.543h0.137V57.849z"/>
		<path d="M149.276,57.849h-0.136c-0.059-0.515-0.195-0.573-0.492-0.573h-1.224v1.545c0,0.334,0.122,0.398,0.391,0.398h1.115
			c0.506,0,0.658-0.195,0.839-0.818h0.131l-0.116,1.08h-3.847v-0.137h0.203c0.581,0,0.682-0.159,0.682-0.595v-3.063
			c0-0.406-0.095-0.581-0.58-0.581h-0.16V54.97h3.477l0.059,1.008h-0.131c-0.094-0.617-0.274-0.747-0.534-0.747h-1.527v1.784h1.296
			c0.26,0,0.383-0.123,0.42-0.543h0.136V57.849z"/>
		<path d="M152.136,55.053c0.131-0.015,0.225-0.015,0.363-0.015c1.116,0,1.422,0.521,1.422,1.197c0,0.87-0.53,1.211-1.335,1.211
			c-0.167,0-0.276,0.008-0.45-0.015V55.053z M152.136,57.568c0.116,0.007,0.21,0.015,0.37,0.015c0.196,0,0.313-0.008,0.493-0.015
			c0.174,0.116,0.428,0.327,0.747,0.647l0.479,0.48c0.646,0.651,0.972,0.921,2.241,0.863v-0.125
			c-0.559-0.036-1.001-0.306-1.429-0.736l-0.573-0.576c-0.341-0.343-0.558-0.547-0.826-0.756c0.595-0.174,0.964-0.631,0.964-1.175
			c0-0.74-0.602-1.29-1.943-1.29c-0.472,0-0.616,0.008-0.913,0.021c-0.298,0.018-0.741,0.047-0.914,0.047v0.136h0.159
			c0.421,0,0.544,0.131,0.544,0.58v3.055c0,0.487-0.152,0.604-0.58,0.604h-0.123v0.137h2.052v-0.137h-0.166
			c-0.407,0-0.581-0.108-0.581-0.546V57.568z"/>
		<path d="M159.075,59.48h-1.762v-0.137c0.449-0.021,0.543-0.138,0.543-0.624v-3.092c0-0.391-0.137-0.5-0.543-0.522V54.97h1.762
			v0.136c-0.457,0-0.616,0.103-0.616,0.589v3.076c0,0.428,0.115,0.573,0.616,0.573V59.48z"/>
		<path d="M164.792,59.537l-3.754-3.938v3.113c0,0.522,0.116,0.631,0.732,0.631v0.137h-1.684v-0.137h0.029
			c0.449,0,0.595-0.152,0.595-0.486v-3.569c-0.167-0.117-0.355-0.175-0.609-0.183V54.97h1.14l3.412,3.564v-2.891
			c0-0.443-0.131-0.523-0.71-0.538V54.97h1.697v0.136c-0.544,0-0.66,0.095-0.66,0.378v4.054H164.792z"/>
		<path d="M170.919,59.146c-0.719,0.366-1.64,0.448-1.942,0.448c-1.591,0-2.33-1.22-2.33-2.277c0-1.093,0.762-2.449,2.533-2.449
			c0.777,0,1.293,0.236,1.445,0.236c0.065,0,0.124-0.015,0.168-0.043h0.102v1.17l-0.146,0.001c-0.196-0.91-0.813-1.193-1.491-1.193
			c-1.277,0-1.93,1.062-1.93,2.234c0,1.487,1.045,2.15,1.879,2.15c0.333,0,0.703-0.072,1.109-0.277v-0.918
			c0-0.415-0.146-0.554-0.581-0.554h-0.268v-0.125h1.958v0.125c-0.363,0.021-0.507,0.146-0.507,0.459V59.146z"/>
	</g>
</g>
</svg>
