<?xml version="1.0" encoding="utf-8"?>
<!-- Generator: Adobe Illustrator 18.1.1, SVG Export Plug-In . SVG Version: 6.00 Build 0)  -->
<svg version="1.1" id="Layer_1" xmlns="http://www.w3.org/2000/svg" xmlns:xlink="http://www.w3.org/1999/xlink" x="0px" y="0px"
	 width="112.1px" height="48px" viewBox="-369 337 112.1 48" enable-background="new -369 337 112.1 48" xml:space="preserve">
<g id="guides">
</g>
<g id="Layer_2">
	<g>
		<g>
			<g>
				<defs>
					<rect id="SVGID_1_" x="-369" y="337" width="111.8" height="47.7"/>
				</defs>
				<clipPath id="SVGID_2_">
					<use xlink:href="#SVGID_1_"  overflow="visible"/>
				</clipPath>
				<path clip-path="url(#SVGID_2_)" fill="#C44B13" d="M-369,374.5c0,0.7,0.4,1,1,1h7.6c0.7,0,1-0.4,1-1v-28.2h-9.7
					C-369,346.4-369,374.5-369,374.5z M-353.2,374.5c0,0.3,0.1,0.5,0.3,0.7c0.2,0.2,0.4,0.3,0.7,0.3h6.9c0.3,0,0.5-0.1,0.7-0.3
					c0.2-0.2,0.3-0.5,0.3-0.7v-28.2h-9V374.5z M-338,346.4v28.2c0,0.3,0.1,0.5,0.3,0.7c0.2,0.2,0.4,0.3,0.7,0.3h7.7
					c0.3,0,0.5-0.1,0.7-0.3c0.2-0.2,0.3-0.5,0.3-0.7v-28.2H-338"/>
			</g>
			<g>
				<defs>
					<rect id="SVGID_3_" x="-369" y="337" width="111.8" height="47.7"/>
				</defs>
				<clipPath id="SVGID_4_">
					<use xlink:href="#SVGID_3_"  overflow="visible"/>
				</clipPath>
				<path clip-path="url(#SVGID_4_)" fill="#2A394C" d="M-311.6,338v37.5h-8.7c-0.7,0-1-0.3-1-1V338c0-0.7,0.3-1,1-1h7.6
					C-311.9,337-311.6,337.4-311.6,338"/>
			</g>
			<g>
				<defs>
					<rect id="SVGID_5_" x="-369" y="337" width="111.8" height="47.7"/>
				</defs>
				<clipPath id="SVGID_6_">
					<use xlink:href="#SVGID_5_"  overflow="visible"/>
				</clipPath>
				<path clip-path="url(#SVGID_6_)" fill="#ECC10C" d="M-279.7,338v37.5h-8.7c-0.7,0-1-0.3-1-1V338c0-0.7,0.3-1,1-1h7.6
					C-280,337-279.7,337.4-279.7,338"/>
			</g>
			<g>
				<defs>
					<rect id="SVGID_7_" x="-369" y="337" width="111.8" height="47.7"/>
				</defs>
				<clipPath id="SVGID_8_">
					<use xlink:href="#SVGID_7_"  overflow="visible"/>
				</clipPath>
				<path clip-path="url(#SVGID_8_)" fill="#ECC10C" d="M-256.9,338v37.5h-8.7c-0.7,0-1-0.3-1-1V338c0-0.7,0.3-1,1-1h7.6
					C-257.3,337-256.9,337.4-256.9,338"/>
			</g>
		</g>
		<path fill="#822912" d="M-328.3,343.4v2.9H-369V338c0-0.7,0.4-1,1.1-1h33.2c0.9,0,1.7,0.2,2.5,0.5c0.8,0.3,1.5,0.8,2,1.4
			c0.6,0.6,1,1.2,1.4,2C-328.5,341.7-328.3,342.6-328.3,343.4"/>
		<path fill="#385B7D" d="M-295.4,367.3v7.3c0,0.3-0.1,0.5-0.3,0.7c-0.2,0.2-0.4,0.3-0.7,0.3h-15.2v-9.4h15.2c0.3,0,0.5,0.1,0.7,0.3
			C-295.5,366.7-295.4,367-295.4,367.3"/>
		<g>
			<rect x="-279.7" y="351.4" fill="#FEE502" width="13" height="9.4"/>
			<path fill="#4D4C4E" d="M-362.8,379.9c0,0,0,0.1,0,0.1c0,0.1,0,0.1,0,0.2v4.6c0,0,0,0.1,0,0.1c0,0-0.1,0-0.1,0h-1.2
				c0,0-0.1,0-0.1,0c0,0,0-0.1,0-0.1v-4.3h-1v4.3c0,0,0,0.1,0,0.1c0,0-0.1,0-0.1,0h-1.1c0,0-0.1,0-0.1,0c0,0,0-0.1,0-0.1v-4.3h-1
				v4.3c0,0.1-0.1,0.2-0.2,0.2h-1.2c-0.1,0-0.2-0.1-0.2-0.2v-5.6c0,0,0-0.1,0-0.1c0,0,0.1-0.1,0.1-0.1h5c0,0,0.1,0,0.2,0
				c0.1,0,0.1,0,0.1,0L-362.8,379.9z M-356.5,379.9c0,0,0,0.1,0,0.2c0,0.1,0,0.1,0,0.2v4.6c0,0,0,0.1,0,0.1c0,0-0.1,0-0.1,0h-1.2
				c0,0-0.1,0-0.1,0c0,0,0-0.1,0-0.1v-1.5c0,0,0-0.1,0-0.1c0,0-0.1,0-0.1,0h-1.7c0,0-0.1,0-0.1,0c0,0,0,0.1,0,0.1v1.5
				c0,0,0,0.1,0,0.1c0,0-0.1,0-0.1,0h-1.2c0,0-0.1,0-0.1,0c0,0,0-0.1,0-0.1v-4.7c0,0,0-0.1,0-0.1c0-0.1,0-0.1,0-0.1l0.8-0.8
				c0,0,0.1,0,0.1,0c0.1,0,0.1,0,0.2,0h2.7c0,0,0.1,0,0.2,0c0.1,0,0.1,0,0.1,0L-356.5,379.9z M-358,380.4h-2v1.5h2V380.4z
				 M-351.3,379c0,0,0.1,0,0.1,0.1c0,0,0,0.1,0,0.1v4.6c0,0,0,0.1,0,0.2c0,0.1,0,0.1,0,0.1l-0.8,0.8c0,0-0.1,0-0.1,0.1
				c-0.1,0-0.1,0-0.2,0h-2.2c0,0-0.1,0-0.2,0c-0.1,0-0.1,0-0.1-0.1l-0.8-0.8c0,0,0-0.1-0.1-0.1c0-0.1,0-0.1,0-0.2v-1.7
				c0,0,0-0.1,0-0.1c0,0,0.1,0,0.1,0h1.2c0,0,0.1,0,0.1,0c0,0,0,0.1,0,0.1v1.2c0,0,0,0.1,0,0.1c0,0,0.1,0,0.1,0h1.2c0,0,0.1,0,0.1,0
				c0,0,0-0.1,0-0.1v-4.2c0,0,0-0.1,0-0.1c0,0,0.1-0.1,0.1-0.1C-352.4,379-351.3,379-351.3,379z M-344.9,379.9c0,0,0,0.1,0,0.1
				c0,0.1,0,0.1,0,0.2v3.7c0,0,0,0.1,0,0.2c0,0.1,0,0.1,0,0.1l-0.8,0.8c0,0-0.1,0-0.2,0.1c-0.1,0-0.1,0-0.2,0h-2.7c0,0-0.1,0-0.2,0
				c-0.1,0-0.1,0-0.1-0.1l-0.8-0.8c0,0,0-0.1-0.1-0.1c0-0.1,0-0.1,0-0.2v-3.7c0,0,0-0.1,0-0.2c0-0.1,0-0.1,0.1-0.1l0.8-0.8
				c0,0,0.1,0,0.1,0c0.1,0,0.1,0,0.2,0h2.7c0,0,0.1,0,0.2,0c0.1,0,0.1,0,0.2,0L-344.9,379.9z M-346.3,380.5h-2v3.1h2V380.5z
				 M-338.4,384.9c0,0,0,0.1,0,0.1c0,0,0,0-0.1,0h-1.4c0,0-0.1,0-0.1,0c0,0-0.1-0.1-0.1-0.1l-1-1.6c0,0,0,0-0.1,0h-1c0,0,0,0,0,0
				v1.6c0,0.1-0.1,0.2-0.2,0.2h-1.2c-0.1,0-0.2-0.1-0.2-0.2v-5.6c0,0,0-0.1,0-0.1c0,0,0.1-0.1,0.1-0.1h3.7c0,0,0.1,0,0.2,0
				c0.1,0,0.1,0,0.2,0l0.8,0.8c0,0,0,0.1,0,0.1c0,0.1,0,0.1,0,0.2v1.9c0,0,0,0.1,0,0.1c0,0,0,0.1-0.1,0.1l-0.8,0.8L-338.4,384.9z
				 M-340.1,380.4h-2.1v1.4h2.1V380.4z M-330.4,383.6c0,0,0.1,0,0.1,0c0,0,0,0.1,0,0.1v1.1c0,0,0,0.1,0,0.1c0,0-0.1,0-0.1,0h-3.7
				c-0.1,0-0.2-0.1-0.2-0.2v-5.6c0-0.1,0.1-0.2,0.2-0.2h1.2c0.1,0,0.2,0.1,0.2,0.2v4.2c0,0,0,0.1,0,0.1c0,0,0.1,0,0.1,0
				L-330.4,383.6L-330.4,383.6z M-327.9,380.4C-328,380.4-328,380.5-327.9,380.4l0,1c0,0,0,0,0,0h2.4c0,0,0.1,0,0.1,0
				c0,0,0,0.1,0,0.1v0.9c0,0.1-0.1,0.2-0.2,0.2h-2.4c0,0,0,0,0,0v0.9c0,0,0,0,0,0h2.9c0,0,0.1,0,0.1,0c0,0,0,0.1,0,0.1v1.1
				c0,0,0,0.1,0,0.1c0,0-0.1,0-0.1,0h-3.2c0,0-0.1,0-0.2,0c-0.1,0-0.1,0-0.1-0.1l-0.8-0.8c0,0,0-0.1-0.1-0.1c0-0.1,0-0.1,0-0.2v-3.7
				c0,0,0-0.1,0-0.2c0-0.1,0-0.1,0.1-0.1l0.8-0.8c0,0,0.1,0,0.1,0c0.1,0,0.1,0,0.2,0h3.2c0,0,0.1,0,0.1,0.1c0,0,0,0.1,0,0.1v1.1
				c0,0,0,0.1,0,0.1c0,0-0.1,0-0.1,0L-327.9,380.4L-327.9,380.4z M-318.7,379.9c0,0,0,0.1,0,0.2c0,0.1,0,0.1,0,0.2v4.6
				c0,0,0,0.1,0,0.1c0,0-0.1,0-0.1,0h-1.2c0,0-0.1,0-0.1,0c0,0,0-0.1,0-0.1v-1.5c0,0,0-0.1,0-0.1c0,0-0.1,0-0.1,0h-1.7
				c0,0-0.1,0-0.1,0c0,0,0,0.1,0,0.1v1.5c0,0,0,0.1,0,0.1c0,0-0.1,0-0.1,0h-1.2c0,0-0.1,0-0.1,0c0,0,0-0.1,0-0.1v-4.7
				c0,0,0-0.1,0-0.1c0-0.1,0-0.1,0-0.1l0.8-0.8c0,0,0.1,0,0.1,0c0.1,0,0.1,0,0.2,0h2.7c0,0,0.1,0,0.2,0c0.1,0,0.1,0,0.1,0
				L-318.7,379.9z M-320.1,380.4h-2v1.5h2V380.4z M-312.5,381.8c0,0,0.1,0,0.1,0.1c0,0,0,0.1,0,0.1v1.9c0,0,0,0.1,0,0.2
				c0,0.1,0,0.1,0,0.1l-0.8,0.8c0,0-0.1,0-0.2,0.1c-0.1,0-0.1,0-0.2,0h-2.7c0,0-0.1,0-0.2,0c-0.1,0-0.1,0-0.1-0.1l-0.8-0.8
				c0,0,0-0.1-0.1-0.1c0-0.1,0-0.1,0-0.2v-3.7c0,0,0-0.1,0-0.2c0-0.1,0-0.1,0.1-0.1l0.8-0.8c0,0,0.1,0,0.1,0c0.1,0,0.1,0,0.2,0h3.4
				c0,0,0.1,0,0.1,0.1c0,0,0,0.1,0,0.1v1.1c0,0,0,0.1,0,0.1c0,0-0.1,0-0.1,0h-2.9c0,0-0.1,0-0.1,0c0,0,0,0.1,0,0.1v2.8
				c0,0,0,0.1,0,0.1c0,0,0.1,0,0.1,0h1.7c0,0,0.1,0,0.1,0c0,0,0-0.1,0-0.1v-1.5c0,0,0-0.1,0-0.1c0,0,0.1-0.1,0.1-0.1L-312.5,381.8
				L-312.5,381.8z M-306.2,379c0,0,0.1,0,0.1,0.1c0,0,0,0.1,0,0.1v4.7h0c0,0,0,0.1,0,0.1c0,0,0,0.1,0,0.1l-0.8,0.8
				c0,0-0.1,0-0.1,0.1c-0.1,0-0.1,0-0.2,0h-2.7c0,0-0.1,0-0.2,0c-0.1,0-0.1,0-0.1-0.1l-0.8-0.8c0,0,0-0.1-0.1-0.1c0-0.1,0-0.1,0-0.2
				v-4.6c0,0,0-0.1,0-0.1c0,0,0.1-0.1,0.1-0.1h1.2c0,0,0.1,0,0.1,0.1c0,0,0,0.1,0,0.1v4.2c0,0,0,0.1,0,0.1c0,0,0.1,0,0.1,0h1.7
				c0,0,0.1,0,0.1,0c0,0,0-0.1,0-0.1v-4.2c0,0,0-0.1,0-0.1c0,0,0.1-0.1,0.1-0.1L-306.2,379L-306.2,379z M-303.2,380.4
				C-303.3,380.4-303.3,380.5-303.2,380.4l0,1c0,0,0,0,0,0h2.4c0,0,0.1,0,0.1,0c0,0,0,0.1,0,0.1v0.9c0,0.1-0.1,0.2-0.2,0.2h-2.4
				c0,0,0,0,0,0v0.9c0,0,0,0,0,0h2.9c0,0,0.1,0,0.1,0c0,0,0,0.1,0,0.1v1.1c0,0,0,0.1,0,0.1c0,0-0.1,0-0.1,0h-3.2c0,0-0.1,0-0.2,0
				c-0.1,0-0.1,0-0.1-0.1l-0.8-0.8c0,0,0-0.1-0.1-0.1c0-0.1,0-0.1,0-0.2v-3.7c0,0,0-0.1,0-0.2c0-0.1,0-0.1,0.1-0.1l0.8-0.8
				c0,0,0.1,0,0.1,0c0.1,0,0.1,0,0.2,0h3.2c0,0,0.1,0,0.1,0.1c0,0,0,0.1,0,0.1v1.1c0,0,0,0.1,0,0.1c0,0-0.1,0-0.1,0L-303.2,380.4
				L-303.2,380.4z M-291.2,379c0,0,0.1,0,0.1,0.1c0,0,0.1,0.1,0.1,0.1v5.6c0,0,0,0.1-0.1,0.1c0,0-0.1,0-0.1,0h-1.2c0,0-0.1,0-0.1,0
				c0,0,0-0.1,0-0.1v-2c0,0,0-0.1,0-0.1c0,0-0.1,0-0.1,0h-1.7c0,0-0.1,0-0.1,0c0,0,0,0.1,0,0.1v2c0,0.1-0.1,0.2-0.2,0.2h-1.2
				c-0.1,0-0.2-0.1-0.2-0.2v-5.6c0-0.1,0.1-0.2,0.2-0.2h1.2c0.1,0,0.2,0.1,0.2,0.2v1.9c0,0.1,0.1,0.2,0.2,0.2h1.7c0,0,0.1,0,0.1,0
				c0,0,0-0.1,0-0.1v-1.9c0,0,0-0.1,0-0.1c0,0,0.1-0.1,0.1-0.1H-291.2z M-284.8,379.9c0,0,0,0.1,0,0.2c0,0.1,0,0.1,0,0.2v4.6
				c0,0,0,0.1,0,0.1c0,0-0.1,0-0.1,0h-1.2c0,0-0.1,0-0.1,0c0,0,0-0.1,0-0.1v-1.5c0,0,0-0.1,0-0.1c0,0-0.1,0-0.1,0h-1.7
				c0,0-0.1,0-0.1,0c0,0,0,0.1,0,0.1v1.5c0,0,0,0.1,0,0.1c0,0-0.1,0-0.1,0h-1.2c0,0-0.1,0-0.1,0c0,0,0-0.1,0-0.1v-4.7
				c0,0,0-0.1,0-0.1c0-0.1,0-0.1,0-0.1l0.8-0.8c0,0,0.1,0,0.1,0c0.1,0,0.1,0,0.2,0h2.7c0,0,0.1,0,0.2,0c0.1,0,0.1,0,0.1,0
				L-284.8,379.9z M-286.2,380.4h-2v1.5h2V380.4z M-281.8,380.5c0,0-0.1,0-0.1,0c0,0,0,0.1,0,0.1v2.8c0,0,0,0.1,0,0.1
				c0,0,0.1,0,0.1,0h2.7c0,0,0.1,0,0.1,0c0,0,0,0.1,0,0.1v1.1c0,0,0,0.1,0,0.1c0,0-0.1,0-0.1,0h-3.2c0,0-0.1,0-0.2,0
				c-0.1,0-0.1,0-0.1-0.1l-0.8-0.8c0,0,0-0.1-0.1-0.1c0-0.1,0-0.1,0-0.2v-3.7c0,0,0-0.1,0-0.2c0-0.1,0-0.1,0.1-0.1l0.8-0.8
				c0,0,0.1,0,0.1,0c0,0,0.1,0,0.1,0h3.3c0,0,0.1,0,0.1,0.1c0,0,0,0.1,0,0.1v1.1c0,0,0,0.1,0,0.1c0,0-0.1,0-0.1,0H-281.8z
				 M-274.1,381.6C-274.2,381.6-274.2,381.6-274.1,381.6l2,3.3c0,0,0,0.1,0,0.1c0,0-0.1,0-0.1,0h-1.4c0,0-0.1,0-0.1,0
				c0,0-0.1-0.1-0.1-0.1l-1.3-2.3c0,0,0,0,0,0l-0.7,0.8c0,0-0.1,0.1-0.1,0.1c0,0.1,0,0.1,0,0.1v1.3c0,0.1-0.1,0.2-0.2,0.2h-1.2
				c-0.1,0-0.2-0.1-0.2-0.2v-5.6c0-0.1,0.1-0.2,0.2-0.2h1.2c0.1,0,0.2,0.1,0.2,0.2v2.5l2.2-2.6c0,0,0.1-0.1,0.1-0.1
				c0.1,0,0.1,0,0.1,0h1.4c0,0,0.1,0,0.1,0c0,0,0,0.1,0,0.1L-274.1,381.6z M-269.6,384.8c0,0.1-0.1,0.2-0.2,0.2h-1.2
				c-0.1,0-0.2-0.1-0.2-0.2v-5.6c0-0.1,0.1-0.2,0.2-0.2h1.2c0.1,0,0.2,0.1,0.2,0.2V384.8z M-263.3,379.9c0,0,0,0.1,0,0.1
				c0,0.1,0,0.1,0,0.2v4.6c0,0,0,0.1-0.1,0.1c0,0-0.1,0-0.1,0h-1.2c0,0-0.1,0-0.1,0c0,0,0-0.1,0-0.1v-4.2c0,0,0-0.1,0-0.1
				c0,0-0.1,0-0.1,0h-1.7c0,0-0.1,0-0.1,0c0,0,0,0.1,0,0.1v4.2c0,0.1-0.1,0.2-0.2,0.2h-1.2c-0.1,0-0.2-0.1-0.2-0.2v-5.6
				c0,0,0-0.1,0-0.1c0,0,0.1-0.1,0.1-0.1h3.7c0,0,0.1,0,0.2,0c0.1,0,0.1,0,0.1,0L-263.3,379.9z M-257.1,381.8c0,0,0.1,0,0.1,0.1
				c0,0,0,0.1,0,0.1v1.9c0,0,0,0.1,0,0.2c0,0.1,0,0.1,0,0.1l-0.8,0.8c0,0-0.1,0-0.2,0.1c-0.1,0-0.1,0-0.2,0h-2.7c0,0-0.1,0-0.2,0
				c-0.1,0-0.1,0-0.1-0.1l-0.8-0.8c0,0,0-0.1-0.1-0.1c0-0.1,0-0.1,0-0.2v-3.7c0,0,0-0.1,0-0.2c0-0.1,0-0.1,0.1-0.1l0.8-0.8
				c0,0,0.1,0,0.1,0c0.1,0,0.1,0,0.2,0h3.4c0,0,0.1,0,0.1,0.1c0,0,0,0.1,0,0.1v1.1c0,0,0,0.1,0,0.1c0,0-0.1,0-0.1,0h-2.9
				c0,0-0.1,0-0.1,0c0,0,0,0.1,0,0.1v2.8c0,0,0,0.1,0,0.1c0,0,0.1,0,0.1,0h1.7c0,0,0.1,0,0.1,0c0,0,0-0.1,0-0.1v-1.5
				c0,0,0-0.1,0-0.1c0,0,0.1-0.1,0.1-0.1L-257.1,381.8L-257.1,381.8z"/>
		</g>
	</g>
</g>
</svg>
