<?xml version="1.0" encoding="utf-8"?>
<!-- Generator: Adobe Illustrator 18.1.1, SVG Export Plug-In . SVG Version: 6.00 Build 0)  -->
<svg version="1.1" id="Layer_1" xmlns="http://www.w3.org/2000/svg" xmlns:xlink="http://www.w3.org/1999/xlink" x="0px" y="0px"
	 width="117px" height="54px" viewBox="-381 334 117 54" enable-background="new -381 334 117 54" xml:space="preserve">
<g id="guides">
</g>
<g id="Layer_2">
	<g>
		<g>
			<g>
				<polygon fill="#250E0B" points="-370.6,362.4 -357.9,344.7 -349.7,361 				"/>
			</g>
			<g>
				<polygon fill="#66130C" points="-349.3,366 -370.6,362.4 -349.7,361 				"/>
			</g>
			<g>
				<polyline fill="#33120E" points="-338.7,372.5 -349.3,366 -349.7,361 				"/>
			</g>
			<g>
				<polygon fill="#8D181B" points="-338.7,372.5 -352.6,387.2 -349.3,366 				"/>
			</g>
			<g>
				<polygon fill="#700F12" points="-333.6,380.6 -352.6,387.2 -338.7,372.5 				"/>
			</g>
			<g>
				<polygon fill="#3C160B" points="-333.6,380.6 -338.7,372.5 -323.6,373.1 				"/>
			</g>
			<g>
				<polygon fill="#871719" points="-323,388 -333.6,380.6 -323.6,373.1 				"/>
			</g>
			<g>
				<polygon fill="#49140F" points="-302.5,388 -323,388 -323.6,373.1 				"/>
			</g>
			<g>
				<polygon fill="#250D0B" points="-302.5,388 -323.6,373.1 -312.8,367.1 				"/>
			</g>
			<g>
				<polygon fill="#7F1917" points="-302.5,388 -312.8,367.1 -303.9,361 				"/>
			</g>
			<g>
				<polygon fill="#9E1C20" points="-278.2,354.5 -287.9,351.6 -264,351.6 				"/>
			</g>
			<g>
				<polygon fill="#991E1F" points="-377,362 -370.6,362.4 -375.3,356.5 				"/>
			</g>
			<g>
				<polygon fill="#25130A" points="-312.8,367.1 -311.9,351.6 -303.9,361 				"/>
			</g>
			<g>
				<polygon fill="#250D0B" points="-370.6,362.4 -377,362 -372.4,367.7 				"/>
			</g>
			<g>
				<polygon fill="#53120C" points="-322.2,360 -311.9,351.6 -312.8,367.1 				"/>
			</g>
			<g>
				<polygon fill="#831618" points="-323.6,373.1 -322.2,360 -312.8,367.1 				"/>
			</g>
			<g>
				<polygon fill="#5D140B" points="-338.7,372.5 -322.2,360 -323.6,373.1 				"/>
			</g>
			<g>
				<polygon fill="#991E1F" points="-349.7,361 -322.2,360 -338.7,372.5 				"/>
			</g>
			<g>
				<polygon fill="#991E1F" points="-357.9,344.7 -345.6,346.6 -349.7,361 				"/>
			</g>
			<g>
				<polygon fill="#30170D" points="-345.6,346.6 -346.3,358 -349.7,361 				"/>
			</g>
			<g>
				<polygon fill="#4A170D" points="-328,342.2 -322.2,360 -349.7,361 				"/>
			</g>
			<g>
				<polygon fill="#741112" points="-328,342.2 -321.6,341.8 -322.2,360 				"/>
			</g>
			<g>
				<polygon fill="#9E1C20" points="-321.6,341.8 -311.9,351.6 -322.2,360 				"/>
			</g>
			<g>
				<polygon fill="#6B0D0E" points="-321.6,341.8 -313.1,334.8 -311.9,351.6 				"/>
			</g>
			<g>
				<polygon fill="#280F0D" points="-313.1,334.8 -301.2,336.6 -311.9,351.6 				"/>
			</g>
			<g>
				<polygon fill="#53120C" points="-301.2,336.6 -298.2,346 -311.9,351.6 				"/>
			</g>
			<g>
				<polygon fill="#961B1E" points="-298.2,346 -303.9,361 -311.9,351.6 				"/>
			</g>
			<g>
				<polygon fill="#AC1E23" points="-298.2,346 -289.4,363.1 -303.9,361 				"/>
			</g>
			<g>
				<polygon fill="#54130B" points="-287.9,351.6 -289.4,363.1 -298.2,346 				"/>
			</g>
			<g>
				<polygon fill="#280F0D" points="-278.2,354.5 -289.4,363.1 -287.9,351.6 				"/>
			</g>
			<g>
				<polygon fill="#3B140E" points="-303.9,361 -289.4,363.1 -302.5,388 				"/>
			</g>
			<g>
				<polygon fill="#210D0C" points="-289.4,363.1 -279,369.5 -302.5,388 				"/>
			</g>
			<g>
				<polygon fill="#6B160F" points="-278.2,354.5 -279,369.5 -289.4,363.1 				"/>
			</g>
			<g>
				<polygon fill="#B01F24" points="-278.2,354.5 -264,351.6 -279,369.5 				"/>
			</g>
			<g>
				<polygon fill="#210D0B" points="-328,342.2 -346.3,358 -345.6,346.6 				"/>
			</g>
			<g>
				<polygon fill="#A22021" points="-328,342.2 -345.6,346.6 -339.1,334 				"/>
			</g>
			<g>
				<polygon fill="#33120E" points="-354.2,368.1 -351,376.6 -349.3,366 				"/>
			</g>
			<g>
				<polyline fill="#73191B" points="-361.2,371.2 -375.6,377.8 -370.6,362.4 -361.2,371.2 				"/>
			</g>
			<g>
				<polygon fill="#421211" points="-361.2,371.2 -370.6,362.4 -349.3,366 				"/>
			</g>
			<g>
				<polygon fill="#73191B" points="-357.9,344.7 -370.6,362.4 -381,349.1 				"/>
			</g>
		</g>
		<g>
			<path fill="#FFFFFF" d="M-369.2,357.8c-1.5,0-2.2,0.5-2.2,1.6c0,0.5,0.2,0.8,0.5,1c0.3,0.2,1.1,0.4,2.2,0.6
				c1.2,0.2,2,0.5,2.4,0.8c0.5,0.3,0.7,1,0.7,2c0,1-0.3,1.7-0.9,2.1c-0.6,0.4-1.5,0.7-2.7,0.7c-0.7,0-1.6-0.1-2.7-0.3l-0.5-0.1
				l0.1-1c1.4,0.2,2.5,0.3,3.3,0.3c0.8,0,1.3-0.1,1.8-0.4c0.4-0.3,0.6-0.7,0.6-1.3c0-0.6-0.2-1-0.5-1.3c-0.3-0.2-1.1-0.4-2.2-0.6
				c-1.1-0.2-1.9-0.4-2.4-0.8c-0.5-0.3-0.7-0.9-0.7-1.9c0-0.9,0.3-1.6,1-2c0.6-0.4,1.4-0.6,2.4-0.6c0.8,0,1.7,0.1,2.8,0.2l0.5,0.1
				l0,1C-367.3,357.9-368.4,357.8-369.2,357.8z"/>
			<path fill="#FFFFFF" d="M-358.5,357.9h-3.2v4.7c0,1.2,0.1,2,0.3,2.4c0.2,0.4,0.6,0.6,1.2,0.6l1.7-0.1l0.1,1
				c-0.8,0.1-1.5,0.2-1.9,0.2c-1,0-1.6-0.2-2-0.7c-0.4-0.5-0.6-1.4-0.6-2.7v-5.2h-1.4v-1h1.4v-3h1.1v3h3.2V357.9z"/>
			<path fill="#FFFFFF" d="M-350.3,359.7v5.1c0,0.5,0.5,0.7,1.2,0.8l-0.1,0.9c-1,0-1.7-0.3-2.1-0.8c-1.2,0.5-2.4,0.8-3.6,0.8
				c-0.8,0-1.5-0.2-1.9-0.7c-0.4-0.5-0.7-1.2-0.7-2.1c0-0.9,0.2-1.6,0.7-2c0.4-0.4,1.1-0.7,2.1-0.8l3.2-0.3v-0.9
				c0-0.7-0.2-1.2-0.5-1.5c-0.3-0.3-0.7-0.5-1.2-0.5c-0.8,0-1.9,0.1-3.1,0.2l-0.6,0.1l-0.1-0.9c1.4-0.3,2.6-0.4,3.6-0.4
				c1,0,1.8,0.2,2.3,0.7C-350.5,358-350.3,358.7-350.3,359.7z M-356.2,363.7c0,1.3,0.5,1.9,1.6,1.9c0.5,0,1-0.1,1.5-0.2
				c0.5-0.1,1-0.2,1.3-0.3l0.5-0.2v-3.4l-3.1,0.3c-0.6,0.1-1.1,0.2-1.3,0.5C-356.1,362.7-356.2,363.1-356.2,363.7z"/>
			<path fill="#FFFFFF" d="M-347.3,366.4v-9.4h1.1v1.4c0.5-0.3,1-0.6,1.7-0.9c0.7-0.3,1.3-0.5,1.9-0.6v1.1c-0.5,0.1-1.1,0.3-1.7,0.5
				c-0.6,0.2-1.1,0.4-1.4,0.6l-0.5,0.3v7.1C-346.2,366.4-347.3,366.4-347.3,366.4z"/>
			<path fill="#FFFFFF" d="M-336.1,357.9h-3.2v4.7c0,1.2,0.1,2,0.3,2.4c0.2,0.4,0.6,0.6,1.2,0.6l1.7-0.1l0.1,1
				c-0.8,0.1-1.5,0.2-1.9,0.2c-1,0-1.6-0.2-2-0.7c-0.4-0.5-0.6-1.4-0.6-2.7v-5.2h-1.4v-1h1.4v-3h1.1v3h3.2V357.9z"/>
			<path fill="#FFFFFF" d="M-328.4,356.9h1.1v9.4h-1.1v-0.7c-1,0.6-1.9,0.9-2.9,0.9c-1.3,0-2.1-0.3-2.5-1c-0.4-0.7-0.6-1.9-0.6-3.7
				v-4.9h1.1v4.9c0,1.5,0.1,2.4,0.4,2.9c0.3,0.5,0.9,0.8,1.8,0.8c0.4,0,0.9-0.1,1.4-0.2c0.5-0.1,0.8-0.3,1.1-0.4l0.4-0.2
				C-328.4,364.8-328.4,356.9-328.4,356.9z"/>
			<path fill="#FFFFFF" d="M-324.4,370.6v-13.7h1.1v0.7c1-0.6,2-0.9,3.1-0.9c1.1,0,1.9,0.4,2.4,1.2c0.5,0.8,0.8,2,0.8,3.8
				c0,1.7-0.3,3-0.9,3.8c-0.6,0.8-1.7,1.2-3.1,1.2c-0.8,0-1.5-0.1-2.3-0.2v4.3L-324.4,370.6L-324.4,370.6z M-320.5,357.8
				c-0.4,0-0.9,0.1-1.3,0.2c-0.5,0.1-0.9,0.3-1.1,0.4l-0.4,0.2v6.7c0.9,0.2,1.6,0.2,2.2,0.2c1.1,0,1.8-0.3,2.3-0.9
				c0.4-0.6,0.7-1.6,0.7-3c0-1.4-0.2-2.4-0.6-3C-319.1,358.1-319.7,357.8-320.5,357.8z"/>
			<path fill="#FFFFFF" d="M-307.5,357.8c-1.5,0-2.2,0.5-2.2,1.6c0,0.5,0.2,0.8,0.5,1c0.3,0.2,1.1,0.4,2.2,0.6
				c1.2,0.2,2,0.5,2.4,0.8c0.5,0.3,0.7,1,0.7,2c0,1-0.3,1.7-0.9,2.1c-0.6,0.4-1.5,0.7-2.7,0.7c-0.7,0-1.6-0.1-2.7-0.3l-0.5-0.1
				l0.1-1c1.4,0.2,2.5,0.3,3.3,0.3s1.3-0.1,1.8-0.4c0.4-0.3,0.6-0.7,0.6-1.3c0-0.6-0.2-1-0.5-1.3c-0.3-0.2-1.1-0.4-2.2-0.6
				c-1.1-0.2-1.9-0.4-2.4-0.8c-0.5-0.3-0.7-0.9-0.7-1.9c0-0.9,0.3-1.6,1-2c0.6-0.4,1.4-0.6,2.4-0.6c0.8,0,1.7,0.1,2.8,0.2l0.5,0.1
				l0,1C-305.6,357.9-306.7,357.8-307.5,357.8z"/>
			<path fill="#FFFFFF" d="M-300.5,366.4h-1.1v-13.6h1.1v4.7c1.1-0.5,2.1-0.7,3.1-0.7c1.3,0,2.1,0.3,2.5,1c0.4,0.7,0.6,1.9,0.6,3.7
				v5h-1.1v-4.9c0-1.4-0.1-2.4-0.4-2.9c-0.3-0.5-0.9-0.8-1.8-0.8c-0.4,0-0.9,0.1-1.4,0.2c-0.5,0.1-0.9,0.2-1.1,0.3l-0.4,0.2
				C-300.5,358.4-300.5,366.4-300.5,366.4z"/>
			<path fill="#FFFFFF" d="M-285.3,365.4l0.6-0.1l0,0.9c-1.4,0.2-2.6,0.3-3.6,0.3c-1.4,0-2.3-0.4-2.9-1.2c-0.5-0.8-0.8-2-0.8-3.7
				c0-3.3,1.3-5,3.9-5c1.2,0,2.2,0.4,2.8,1.1c0.6,0.7,0.9,1.9,0.9,3.4l0,0.9h-6.4c0,1.2,0.2,2,0.6,2.6c0.4,0.6,1.1,0.8,2,0.8
				C-287.2,365.5-286.3,365.5-285.3,365.4z M-290.8,361.2h5.3c0-1.2-0.2-2.1-0.6-2.7c-0.4-0.5-1.1-0.8-2-0.8c-0.9,0-1.6,0.3-2,0.8
				C-290.6,359.1-290.8,360-290.8,361.2z"/>
			<path fill="#FFFFFF" d="M-281.9,366.4v-13.6h1.1v13.6H-281.9z"/>
			<path fill="#FFFFFF" d="M-277.7,366.4v-13.6h1.1v13.6H-277.7z"/>
		</g>
	</g>
</g>
</svg>
