<?xml version="1.0" encoding="utf-8"?>
<!-- Generator: Adobe Illustrator 18.1.1, SVG Export Plug-In . SVG Version: 6.00 Build 0)  -->
<svg version="1.1" id="Layer_1" xmlns="http://www.w3.org/2000/svg" xmlns:xlink="http://www.w3.org/1999/xlink" x="0px" y="0px"
	 width="950px" height="751.8px" viewBox="45 -16.8 950 751.8" enable-background="new 45 -16.8 950 751.8" xml:space="preserve">
<path fill="#C90202" d="M45.1-16.7c293,0.2,586,0,878.9,0.1c23.6-0.1,47.3,0.1,70.9-0.1c0.3,152.6,0,305.2,0.1,457.8
	c0,98,0,196,0,294c-316.7,0-633.3,0-950,0C45,484.4,44.9,233.9,45.1-16.7z"/>
<path fill="#FFFDFD" d="M426,49c14.3,0,28.7,0,43.1,0c0,14.4,0,28.7,0,43.1c-14.4,0-28.7,0-43.1,0C426,77.7,426,63.4,426,49z"/>
<path fill="#FFFDFD" d="M569.6,49c14.4,0.1,28.7-0.1,43.1,0.1c-0.1,14.3-0.1,28.6,0,42.8c-14.4,0.3-28.8,0.1-43.1,0.2
	C569.6,77.7,569.5,63.4,569.6,49z"/>
<path fill="#FFFDFD" d="M437.5,99.3c6.7-0.1,13.4,0,20.1,0c-0.1,28.7,0.1,57.5-0.1,86.2c-6.6-0.1-13.3-0.1-19.9,0
	C437.4,156.8,437.6,128,437.5,99.3z"/>
<path fill="#FFFDFD" d="M581.1,99.2c6.7,0.1,13.3,0.1,19.9,0c0.2,28.7,0,57.4,0.1,86.2c-6.7,0-13.4,0-20.1,0
	C581.1,156.7,581,128,581.1,99.2z"/>
<path fill="#FFFDFD" d="M232.2,195.5c191.4,0.1,382.9-0.1,574.3,0.1c-0.1,105.2,0,210.3,0,315.5c0.1,30.2-0.2,60.4,0.1,90.5
	c-34.5,0.5-69.1,0.1-103.6,0.2c-156.9,0-313.8,0-470.8,0C232.2,466.3,232.1,330.9,232.2,195.5z"/>
<path fill="#C90202" d="M339.8,264.5c24-0.4,47.9,0,71.9-0.1c-0.1,24,0.2,47.9-0.2,71.9c-23.9-0.2-47.8,0-71.6-0.1
	C339.8,312.3,340,288.4,339.8,264.5z"/>
<path fill="#C90202" d="M627.1,264.3c23.9,0.2,47.8,0.1,71.6,0.1c0.1,23.9,0,47.8,0.1,71.7c-23.9,0.2-47.9,0-71.8,0.1
	C627.1,312.2,626.8,288.2,627.1,264.3z"/>
<path fill="#FFFDFD" d="M138.9,278.8c23.9-0.1,47.8,0.1,71.6-0.1c0.3,35.9,0.2,71.9,0,107.8c-23.9-0.2-47.8,0-71.7-0.1
	C138.9,350.5,138.9,314.6,138.9,278.8z"/>
<path fill="#FFFDFD" d="M828,278.8c23.9,0,47.9-0.1,71.8,0c-0.2,35.9,0.3,71.9-0.3,107.8c-23.8-0.4-47.7,0-71.6-0.2
	C828,350.5,828,314.6,828,278.8z"/>
<path fill="#C90202" d="M501.5,429.5c-0.1-12-0.2-24,0-36c11.9,0.2,23.8,0,35.8,0.1c0,12,0,23.9,0,35.9
	C525.3,429.5,513.4,429.4,501.5,429.5z"/>
<path fill="#C90202" d="M395.6,476.5c12-0.1,23.9,0.2,35.9,0.2c-0.5,13.5-1,27.1-1.5,40.6c59.4,0.5,118.8,1,178.2,1.6
	c0.8-11.9,0.9-23.9,1.4-35.8c0.2-1.5-0.3-3.4,0.6-4.7c11.6-0.1,23.2,0.2,34.8,0.2c-0.2,21.8-0.4,43.6-0.6,65.4
	c-83.1-0.6-166.2-1.8-249.3-2.2C395,520,395.5,498.3,395.6,476.5z"/>
</svg>
