<?xml version="1.0" encoding="utf-8"?>
<!-- Generator: Adobe Illustrator 18.1.1, SVG Export Plug-In . SVG Version: 6.00 Build 0)  -->
<svg version="1.1" id="Layer_1" xmlns="http://www.w3.org/2000/svg" xmlns:xlink="http://www.w3.org/1999/xlink" x="0px" y="0px"
	 viewBox="0 0 633.2 225.2" enable-background="new 0 0 633.2 225.2" xml:space="preserve">
<linearGradient id="SVGID_1_" gradientUnits="userSpaceOnUse" x1="370.2173" y1="110.9964" x2="615.4502" y2="110.9964">
	<stop  offset="0" style="stop-color:#DA1C5C"/>
	<stop  offset="0.2883" style="stop-color:#1C75BC"/>
	<stop  offset="0.6564" style="stop-color:#FFDE17"/>
	<stop  offset="0.8834" style="stop-color:#F26522"/>
</linearGradient>
<path fill="url(#SVGID_1_)" d="M370.2,19.7c66.7,20.7,188.4,126.4,245.2,192.5c-49.8-63.9-137-188.6-185.3-202.4
	C423.9,10.2,370.2,19.7,370.2,19.7z"/>
<path d="M23.5,152.6V31.5C23.5,23.1,29,19,34.9,19c3.8,0,7.6,1.4,10.8,4.8l84.6,99.4l84.6-99.4c2.8-3.4,7-4.8,10.8-4.8
	c6,0,11.4,4.1,11.4,12.5v121.1h-24V63.2l-74.2,87.2c-2.3,2.7-5.1,3.9-8.6,3.9c-3.5,0-6.3-1.3-8.6-3.9L47.5,63.2v89.4H23.5z"/>
<g>
	<path d="M49.8,204.1L45.5,188L39,202.9c-0.4,1-1.1,1.5-2.1,1.5c-0.9,0-1.6-0.5-2.1-1.5L28.4,188L24,204.1h-3.9l5.9-21.6
		c0.3-1.1,0.9-1.6,2-1.6c0.9,0,1.6,0.5,2,1.4l7.1,16.2l7.1-16.2c0.4-0.9,1.1-1.4,1.9-1.4c1,0,1.6,0.5,1.9,1.6l5.9,21.6H49.8z"/>
	<path d="M56.7,204.1v-22.9h4v22.9H56.7z"/>
	<path d="M64.9,204.1v-22.9h13.3c6.5,0,11.2,4.6,11.2,11.2c0,6.7-4.7,11.7-11.2,11.7H64.9z M78.2,200.1c4.1,0,7.2-3.2,7.2-7.5
		c0-4.3-3-7.4-7.2-7.4h-9.3v14.9H78.2z"/>
	<path d="M91.6,193.8v-2.7h7.6v2.7H91.6z"/>
	<path d="M123.6,204.1l-3.4-5.8h-10.9l1.9-3.2h7l-5.1-8.6l-10.4,17.6h-4.6l13.2-22c0.5-0.8,1.1-1.3,2-1.3c0.9,0,1.5,0.5,1.9,1.3
		l13.2,22H123.6z"/>
	<path d="M134.2,204.1v-18.9h-8.7v-4h21.4v4h-8.7v18.9H134.2z"/>
	<path d="M149.6,204.1v-22.9h4v18.9H169v4H149.6z"/>
	<path d="M195.8,204.1l-3.4-5.8h-10.9l1.9-3.2h7l-5.1-8.6l-10.4,17.6h-4.6l13.2-22c0.5-0.8,1.1-1.3,2-1.3c0.9,0,1.5,0.5,1.9,1.3
		l13.2,22H195.8z"/>
	<path d="M206.9,187.3v16.8h-3.8v-20.8c0-1.5,0.8-2.4,2.1-2.4c0.6,0,1.1,0.2,1.7,0.8l16.2,16.1V181h3.8v21c0,1.5-0.8,2.4-2,2.4
		c-0.7,0-1.3-0.3-1.8-0.9L206.9,187.3z"/>
	<path d="M238.1,204.1v-18.9h-8.7v-4h21.4v4h-8.7v18.9H238.1z"/>
	<path d="M253.7,204.1v-22.9h4v22.9H253.7z"/>
	<path d="M272.3,204.1c-6.4,0-11.1-5-11.1-11.7c0-6.8,4.7-11.2,11.1-11.2h12.4v4h-12.4c-4.1,0-7.1,3.1-7.1,7.4c0,4.3,3,7.5,7.1,7.5
		h12.4v4H272.3z"/>
	<path d="M307.8,204.1c-6.4,0-11.1-5-11.1-11.7c0-6.8,4.7-11.2,11.1-11.2h12.4v4h-12.4c-4.1,0-7.1,3.1-7.1,7.4c0,4.3,3,7.5,7.1,7.5
		h12.4v4H307.8z"/>
	<path d="M344.8,204.1l-5.8-6.4h-8.6v-3.5h9.6c2.9,0,4.4-1.6,4.4-4.6c0-3-1.6-4.4-4.4-4.4h-12.5v18.9h-4v-22.9H340
		c5.2,0,8.3,3.3,8.3,8.4c0,3.8-1.8,6.5-4.7,7.6l6.9,7H344.8z"/>
	<path d="M362.5,204.1c-6.4,0-11.1-5-11.1-11.7c0-6.8,4.7-11.2,11.1-11.2h5.6c6.6,0,11.2,4.6,11.2,11.2c0,6.7-4.7,11.7-11.2,11.7
		H362.5z M368.1,200.1c4.2,0,7.2-3.2,7.2-7.5c0-4.3-3-7.4-7.2-7.4h-5.6c-4.1,0-7.1,3.1-7.1,7.4c0,4.3,3,7.5,7.1,7.5H368.1z"/>
	<path d="M382.6,204.1v-4h17.2c2.1,0,3.3-1.2,3.3-3c0-2-1.2-3-3.3-3h-10.5c-4.3,0-7-2.7-7-6.5c0-3.7,2.5-6.4,7.1-6.4h16.5v4h-16.5
		c-1.8,0-2.9,1.1-2.9,2.8c0,1.7,1.1,2.8,2.9,2.8h10.5c4.6,0,7.1,2.2,7.1,6.6c0,3.8-2.3,6.7-7.1,6.7H382.6z"/>
	<path d="M410.4,204.1v-4h17.2c2.1,0,3.3-1.2,3.3-3c0-2-1.2-3-3.3-3H417c-4.3,0-7-2.7-7-6.5c0-3.7,2.5-6.4,7.1-6.4h16.5v4h-16.5
		c-1.8,0-2.9,1.1-2.9,2.8c0,1.7,1.1,2.8,2.9,2.8h10.5c4.6,0,7.1,2.2,7.1,6.6c0,3.8-2.3,6.7-7.1,6.7H410.4z"/>
	<path d="M459.5,204.1l-5.8-6.4h-8.6v-3.5h9.6c2.9,0,4.4-1.6,4.4-4.6c0-3-1.6-4.4-4.4-4.4h-12.5v18.9h-4v-22.9h16.5
		c5.2,0,8.3,3.3,8.3,8.4c0,3.8-1.8,6.5-4.7,7.6l6.9,7H459.5z"/>
	<path d="M477.2,204.1c-6.4,0-11.1-5-11.1-11.7c0-6.8,4.7-11.2,11.1-11.2h5.6c6.6,0,11.2,4.6,11.2,11.2c0,6.7-4.7,11.7-11.2,11.7
		H477.2z M482.8,200.1c4.2,0,7.2-3.2,7.2-7.5c0-4.3-3-7.4-7.2-7.4h-5.6c-4.1,0-7.1,3.1-7.1,7.4c0,4.3,3,7.5,7.1,7.5H482.8z"/>
	<path d="M518.1,204.1l-3.4-5.8h-10.9l1.9-3.2h7l-5.1-8.6l-10.4,17.6h-4.6l13.2-22c0.5-0.8,1.1-1.3,2-1.3c0.9,0,1.5,0.5,1.9,1.3
		l13.2,22H518.1z"/>
	<path d="M525.4,204.1v-22.9h13.3c6.5,0,11.2,4.6,11.2,11.2c0,6.7-4.7,11.7-11.2,11.7H525.4z M538.7,200.1c4.1,0,7.2-3.2,7.2-7.5
		c0-4.3-3-7.4-7.2-7.4h-9.3v14.9H538.7z"/>
	<path d="M553.2,204.1v-4h17.2c2.1,0,3.3-1.2,3.3-3c0-2-1.2-3-3.3-3h-10.5c-4.3,0-7-2.7-7-6.5c0-3.7,2.5-6.4,7.1-6.4h16.5v4h-16.5
		c-1.8,0-2.9,1.1-2.9,2.8c0,1.7,1.1,2.8,2.9,2.8h10.5c4.6,0,7.1,2.2,7.1,6.6c0,3.8-2.3,6.7-7.1,6.7H553.2z"/>
</g>
<g>
	<path d="M414.4,158l-26.1-38.2h-73.1l12.7-19.2h47.4l-34.4-50.8L270.8,154H240l88.8-130c3.2-4.7,7.2-7.7,13.2-7.7
		c5.9,0,9.8,3,13,7.7l87,126L414.4,158z"/>
</g>
<linearGradient id="SVGID_2_" gradientUnits="userSpaceOnUse" x1="379.8828" y1="89.2117" x2="557.5054" y2="89.2117">
	<stop  offset="0" style="stop-color:#DA1C5C"/>
	<stop  offset="0.2883" style="stop-color:#1C75BC"/>
	<stop  offset="0.6564" style="stop-color:#FFDE17"/>
	<stop  offset="0.8834" style="stop-color:#F26522"/>
</linearGradient>
<path fill="url(#SVGID_2_)" d="M551.4,7.1c-28.5,70.7-85.8,122.3-171.6,164.2c85.7-13.7,158.1-66,177.6-117.4
	C557.9,47,551.4,7.1,551.4,7.1z"/>
</svg>
