<?xml version="1.0" encoding="utf-8"?>
<!-- Generator: Adobe Illustrator 18.1.1, SVG Export Plug-In . SVG Version: 6.00 Build 0)  -->
<svg version="1.1" id="Layer_1" xmlns="http://www.w3.org/2000/svg" xmlns:xlink="http://www.w3.org/1999/xlink" x="0px" y="0px"
	 width="176.3px" height="48px" viewBox="-350.6 339 176.3 48" enable-background="new -350.6 339 176.3 48" xml:space="preserve">
<g id="guides">
</g>
<g id="Layer_2">
	<g>
		<polygon fill="#004FA2" points="-242.7,348.9 -266,348.9 -266,356.5 -258.2,356.5 -258.2,372.7 -250.6,372.7 -250.6,356.5 
			-242.7,356.5 -242.7,348.9 		"/>
		<polygon fill="#004FA2" points="-220,372.6 -227.3,348.9 -236.6,348.9 -243.9,372.6 -236.3,372.6 -232,355.8 -227.6,372.6 
			-220,372.6 		"/>
		<polygon fill="#004FA2" points="-196.8,348.9 -220.1,348.9 -220.1,356.5 -212.3,356.5 -212.3,372.7 -204.7,372.7 -204.7,356.5 
			-196.8,356.5 -196.8,348.9 		"/>
		<polygon fill="#004FA2" points="-174.4,372.6 -181.7,348.9 -190.9,348.9 -198.2,372.6 -190.6,372.6 -186.3,355.8 -181.9,372.6 
			-174.4,372.6 		"/>
		<path fill="#004FA2" d="M-322.5,374.3c1.7-7,2.9-13.9,2.9-13.9s0.6-2.3-0.6-3.8c-1.2-1.5-5-1-5-1s-5.9,0.1-11.9,0.8
			c-5.4,0.6-10.8,1.7-12.8,2.1c-0.4,1.4-0.6,2.9-0.6,4.4c0,10.6,10.6,19.5,25.2,22.7C-324.7,382.9-323.5,378.6-322.5,374.3
			L-322.5,374.3z"/>
		<path fill="#004FA2" d="M-311.6,369.9c-0.1-8.5,0.2-16.4,0.2-16.4s-0.3-1.2,0.5-1.8c0.8-0.6,2.6-0.6,2.6-0.6s7,0.2,14.9,1.2
			c5.8,0.7,12,1.9,14.8,2.5c-5.2-9.2-18.8-15.8-34.9-15.8c-16.1,0-29.8,6.7-34.9,15.9c2.5-0.5,9.2-1.8,15.3-2.6
			c7.9-1,14.9-1.2,14.9-1.2s1.8,0,2.6,0.6c0.8,0.6,0.5,1.8,0.5,1.8s0.2,7.9,0.2,16.4c-0.1,6.5-0.3,13.3-0.4,17c0.6,0,1.2,0,1.9,0
			c0.8,0,1.6,0,2.3-0.1C-311.3,383.2-311.5,376.4-311.6,369.9L-311.6,369.9z"/>
		<path fill="#004FA2" d="M-289.5,356.5c-6-0.7-11.9-0.8-11.9-0.8s-3.8-0.5-5,1c-1.2,1.5-0.6,3.8-0.6,3.8s1.2,6.8,2.9,13.9
			c1,4.2,2.1,8.5,2.9,11.3c14.4-3.3,24.8-12.2,24.8-22.6c0-1.6-0.2-3.1-0.7-4.5C-279.5,358-284.5,357.1-289.5,356.5L-289.5,356.5z"
			/>
	</g>
</g>
</svg>
