<?xml version="1.0" encoding="utf-8"?>
<!-- Generator: Adobe Illustrator 19.2.0, SVG Export Plug-In . SVG Version: 6.00 Build 0)  -->
<svg version="1.1" id="Layer_1" xmlns="http://www.w3.org/2000/svg" xmlns:xlink="http://www.w3.org/1999/xlink" x="0px" y="0px"
	 viewBox="0 0 87 74.7" style="enable-background:new 0 0 87 74.7;" xml:space="preserve">
<style type="text/css">
	.st0{fill:#806D60;}
	.st1{fill:#A68E7C;}
	.st2{fill:#CCF2FF;}
	.st3{fill:#FFFFFF;}
	.st4{fill:#FFEF40;}
	.st5{fill:#FF3F46;}
	.st6{fill:#FFAF40;}
</style>
<g>
	<rect x="8.3" y="11" class="st0" width="4.6" height="56.7"/>
	<rect x="73" y="11" class="st0" width="4.6" height="56.7"/>
	<rect x="12.9" y="13.3" class="st1" width="60" height="31.1"/>
	<rect x="17.7" y="18.4" transform="matrix(0.9687 -0.2483 0.2483 0.9687 -4.504 5.6106)" class="st2" width="4.6" height="4.6"/>
	
		<rect x="46.7" y="15.2" transform="matrix(0.9926 -0.1213 0.1213 0.9926 -2.2913 6.4779)" class="st3" width="10.6" height="13.6"/>
	
		<rect x="29.3" y="25.7" transform="matrix(0.9931 0.1175 -0.1175 0.9931 4.0619 -3.8393)" class="st3" width="10.6" height="13.6"/>
	
		<rect x="49.8" y="28.2" transform="matrix(0.9637 0.2669 -0.2669 0.9637 10.0283 -12.7869)" class="st4" width="4.6" height="4.6"/>
	<rect x="20.7" y="21.2" transform="matrix(0.9637 0.2669 -0.2669 0.9637 7.101 -5.2908)" class="st4" width="4.6" height="4.6"/>
	<rect x="61.6" y="33.7" transform="matrix(0.9687 -0.2483 0.2483 0.9687 -6.9353 16.9982)" class="st2" width="4.6" height="4.6"/>
	<circle class="st5" cx="30.8" cy="26.1" r="0.3"/>
	<circle class="st6" cx="55.7" cy="15.6" r="0.3"/>
	<circle class="st2" cx="69.1" cy="17.7" r="0.3"/>
	<circle class="st5" cx="69.1" cy="19.3" r="0.3"/>
	<circle class="st6" cx="69.1" cy="20.9" r="0.3"/>
	<circle class="st6" cx="69.1" cy="22.6" r="0.3"/>
</g>
</svg>
