<?xml version="1.0" encoding="utf-8"?>
<!-- Generator: Adobe Illustrator 19.2.1, SVG Export Plug-In . SVG Version: 6.00 Build 0)  -->
<svg version="1.1" id="Layer_1" xmlns="http://www.w3.org/2000/svg" xmlns:xlink="http://www.w3.org/1999/xlink" x="0px" y="0px"
	 viewBox="0 0 109.2 144.3" style="enable-background:new 0 0 109.2 144.3;" xml:space="preserve">
<style type="text/css">
	.st0{fill:#806D60;}
	.st1{fill:#1A2E33;}
	.st2{fill:#538DA6;}
	.st3{fill:#7F6C5F;}
	.st4{fill:#A68E7C;}
</style>
<g>
	<g>
		<g>
			<g>
				
					<rect x="59.4" y="-0.6" transform="matrix(0.7071 0.7071 -0.7071 0.7071 32.2901 -36.4862)" class="st0" width="1.6" height="42.7"/>
				<polygon class="st1" points="78.9,12.2 80.1,11 75.3,6.2 68.3,13.2 73.1,18 72.1,19 76.5,23.5 83.3,16.6 				"/>
			</g>
			<g>
				
					<rect x="48.9" y="-0.4" transform="matrix(-0.7071 0.7071 -0.7071 -0.7071 99.1928 -0.5587)" class="st0" width="1.6" height="41.4"/>
				<polygon class="st2" points="30.3,12.2 29.2,11 34,6.2 41,13.2 36.2,18 37.2,19 32.8,23.5 25.9,16.6 				"/>
			</g>
		</g>
		<g>
			<rect x="74.4" y="37.5" class="st3" width="9.5" height="8.1"/>
			<rect x="91.6" y="37.5" class="st3" width="9.5" height="8.1"/>
			<rect x="74.4" y="45.6" class="st4" width="26.9" height="73.3"/>
		</g>
		<g>
			<rect x="8.1" y="37.5" class="st3" width="9.5" height="8.1"/>
			<rect x="25.3" y="37.5" class="st3" width="9.5" height="8.1"/>
			<rect x="8.1" y="45.6" class="st4" width="26.9" height="73.3"/>
		</g>
		<g>
			<rect x="41.3" y="20.5" class="st3" width="9.5" height="8.7"/>
			<rect x="58.5" y="20.5" class="st3" width="9.5" height="8.7"/>
			<rect x="41.3" y="29.2" class="st4" width="26.9" height="78.2"/>
		</g>
		<g>
			<rect x="0.3" y="96.2" class="st3" width="9.5" height="8.1"/>
			<rect x="20.2" y="96.2" class="st3" width="9.5" height="8.1"/>
			<rect x="40.1" y="96.2" class="st3" width="9.5" height="8.1"/>
			<rect x="60" y="96.2" class="st3" width="9.5" height="8.1"/>
			<rect x="79.8" y="96.2" class="st3" width="9.5" height="8.1"/>
			<rect x="99.7" y="96.2" class="st3" width="9.5" height="8.1"/>
			<rect x="0.3" y="104.4" class="st4" width="109" height="40.7"/>
		</g>
	</g>
	<rect x="44.4" y="115.2" class="st3" width="19.7" height="29.8"/>
</g>
</svg>
