<?xml version="1.0" encoding="utf-8"?>
<!-- Generator: Adobe Illustrator 19.2.1, SVG Export Plug-In . SVG Version: 6.00 Build 0)  -->
<svg version="1.1" id="Layer_1" xmlns="http://www.w3.org/2000/svg" xmlns:xlink="http://www.w3.org/1999/xlink" x="0px" y="0px"
	 viewBox="0 0 113.3 137.8" style="enable-background:new 0 0 113.3 137.8;" xml:space="preserve">
<style type="text/css">
	.st0{fill:#A68E7C;}
	.st1{fill:#7F6C5F;}
	.st2{fill:#806D60;}
	.st3{fill:#FF7040;}
	.st4{fill:#FF4046;}
	.st5{fill:#FFAF40;}
	.st6{fill:#FFEF40;}
</style>
<g>
	<g>
		<g>
			<rect x="26.8" class="st0" width="9.5" height="130.2"/>
			<rect x="43.9" class="st1" width="9.5" height="8.1"/>
			<rect x="61.1" class="st1" width="9.5" height="8.1"/>
			<rect x="78.3" class="st0" width="9.5" height="130.2"/>
			<rect x="26.8" class="st1" width="9.5" height="8.1"/>
			<rect x="78.3" class="st1" width="9.5" height="8.1"/>
			<rect x="31.5" y="8.1" class="st0" width="55.6" height="119.4"/>
		</g>
		<g>
			<g>
				
					<rect x="61.4" y="35.9" transform="matrix(0.7071 0.7071 -0.7071 0.7071 58.6769 -27.2133)" class="st2" width="1.6" height="42.7"/>
				<polygon class="st3" points="80.9,48.7 82.1,47.5 77.3,42.7 70.3,49.7 75.1,54.5 74.1,55.5 78.5,59.9 85.3,53.1 				"/>
			</g>
			<g>
				
					<rect x="89.1" y="35.8" transform="matrix(0.7071 0.7071 -0.7071 0.7071 66.9281 -46.7747)" class="st2" width="1.6" height="43.2"/>
				<polygon class="st4" points="108.9,48.7 110,47.5 105.2,42.7 98.2,49.7 103,54.5 102,55.5 106.4,59.9 113.3,53.1 				"/>
			</g>
			<g>
				
					<rect x="50.9" y="36.1" transform="matrix(-0.7071 0.7071 -0.7071 -0.7071 128.408 60.3161)" class="st2" width="1.6" height="41.4"/>
				<polygon class="st5" points="32.3,48.7 31.2,47.5 36,42.7 43,49.7 38.2,54.5 39.2,55.5 34.8,59.9 27.9,53.1 				"/>
			</g>
			<g>
				
					<rect x="23.6" y="35.8" transform="matrix(-0.7071 0.7071 -0.7071 -0.7071 82.1159 80.6229)" class="st2" width="1.6" height="43"/>
				<polygon class="st6" points="4.4,48.7 3.2,47.5 8.1,42.7 15.1,49.7 10.2,54.5 11.3,55.5 6.8,59.9 0,53.1 				"/>
			</g>
		</g>
		<g>
			<rect x="11.1" y="58.7" class="st1" width="9.5" height="8.1"/>
			<rect x="27.9" y="58.7" class="st1" width="9.5" height="8.1"/>
			<rect x="44.6" y="58.7" class="st1" width="9.5" height="8.1"/>
			<rect x="61.4" y="58.7" class="st1" width="9.5" height="8.1"/>
			<rect x="78.1" y="58.7" class="st1" width="9.5" height="8.1"/>
			<rect x="94.9" y="58.7" class="st1" width="9.5" height="8.1"/>
			<rect x="11.1" y="66.9" class="st0" width="93.2" height="70.5"/>
		</g>
	</g>
	<rect x="47.4" y="107.6" class="st1" width="19.7" height="29.8"/>
</g>
</svg>
