<?xml version="1.0" encoding="utf-8"?>
<!-- Generator: Adobe Illustrator 19.2.1, SVG Export Plug-In . SVG Version: 6.00 Build 0)  -->
<svg version="1.1" id="Layer_1" xmlns="http://www.w3.org/2000/svg" xmlns:xlink="http://www.w3.org/1999/xlink" x="0px" y="0px"
	 viewBox="0 0 52 88.9" style="enable-background:new 0 0 52 88.9;" xml:space="preserve">
<style type="text/css">
	.st0{fill:#806D60;}
	.st1{fill:#A68E7C;}
	.st2{enable-background:new    ;}
	.st3{fill:#FFFFFF;}
</style>
<g>
	<g>
		<rect x="0.4" y="0.5" class="st0" width="5.7" height="88.4"/>
		<polygon class="st1" points="30,7 30,1 6,1 6,36 30,36 30,41 52,41 52,7 		"/>
	</g>
	<g class="st2">
		<path class="st3" d="M26.2,26.9c-2.1,0-3.9-0.9-4.5-3l2.5-0.7c0.2,0.8,0.9,1.4,1.9,1.4c0.8,0,1.6-0.4,1.6-1.4
			c0-1.2-1.2-1.5-2.3-1.5h-0.7v-2h0.8c1,0,2-0.3,2-1.3c0-0.8-0.7-1.2-1.4-1.2c-0.8,0-1.4,0.5-1.6,1.3L22,17.8
			c0.5-1.9,2.3-2.9,4.2-2.9c2,0,4,1,4,3.2c0,1.2-0.8,2.2-1.9,2.5v0c1.3,0.3,2.2,1.4,2.2,2.6C30.5,25.8,28.3,26.9,26.2,26.9z"/>
	</g>
</g>
</svg>
