<?xml version="1.0" encoding="utf-8"?>
<!-- Generator: Adobe Illustrator 19.2.1, SVG Export Plug-In . SVG Version: 6.00 Build 0)  -->
<svg version="1.1" id="Layer_1" xmlns="http://www.w3.org/2000/svg" xmlns:xlink="http://www.w3.org/1999/xlink" x="0px" y="0px"
	 viewBox="0 0 52 88.9" style="enable-background:new 0 0 52 88.9;" xml:space="preserve">
<style type="text/css">
	.st0{fill:#806D60;}
	.st1{fill:#A68E7C;}
	.st2{enable-background:new    ;}
	.st3{fill:#FFFFFF;}
</style>
<g>
	<g>
		<rect x="0.4" y="0.5" class="st0" width="5.7" height="88.4"/>
		<polygon class="st1" points="30,7 30,1 6,1 6,36 30,36 30,41 52,41 52,7 		"/>
	</g>
	<g class="st2">
		<path class="st3" d="M22.3,26.6v-2.2l4.4-4c0.6-0.5,0.9-1.1,0.9-1.7c0-0.8-0.6-1.4-1.4-1.4c-0.9,0-1.5,0.7-1.6,1.7L22,18.6
			c0.3-2.3,2.1-3.6,4.3-3.6c2.1,0,4.1,1.1,4.1,3.5c0,1.6-0.9,2.6-2,3.5l-2.6,2.3h4.6v2.3H22.3z"/>
	</g>
</g>
</svg>
