<?xml version="1.0" encoding="utf-8"?>
<!-- Generator: Adobe Illustrator 19.2.1, SVG Export Plug-In . SVG Version: 6.00 Build 0)  -->
<svg version="1.1" id="Layer_1" xmlns="http://www.w3.org/2000/svg" xmlns:xlink="http://www.w3.org/1999/xlink" x="0px" y="0px"
	 viewBox="0 0 282.3 75.8" style="enable-background:new 0 0 282.3 75.8;" xml:space="preserve">
<style type="text/css">
	.st0{fill:#1A2E33;}
	.st1{fill:#538DA6;}
</style>
<g>
	<g>
		<rect x="169.4" y="10.7" class="st0" width="16.4" height="65.1"/>
		<rect x="172.1" y="5.4" class="st1" width="11.1" height="5.4"/>
		<rect x="174.8" class="st1" width="5.7" height="5.4"/>
	</g>
	<g>
		<rect x="137" y="30.5" class="st1" width="19.6" height="32.1"/>
		<rect x="140.2" y="62.6" class="st0" width="13.2" height="6.4"/>
		<rect x="143.4" y="69" class="st0" width="6.8" height="6.8"/>
		<rect x="140.2" y="10.9" class="st1" width="13.2" height="19.6"/>
		<rect x="143.4" y="4.4" class="st0" width="6.8" height="6.4"/>
	</g>
	<g>
		<rect x="198.5" y="22.6" class="st0" width="83.9" height="53.3"/>
		<rect x="221.5" y="30.3" class="st1" width="52.8" height="38.2"/>
		<rect x="206.5" y="30.1" class="st1" width="7.5" height="8"/>
		<rect x="206.5" y="45.7" class="st1" width="7.5" height="7.5"/>
		<rect x="206.5" y="60.8" class="st1" width="7.5" height="7.5"/>
	</g>
	<g>
		<rect x="6.4" y="17.7" class="st0" width="51.8" height="58.2"/>
		<rect x="19.6" y="4.4" class="st1" width="6.4" height="6.8"/>
		<rect x="38.9" y="4.4" class="st1" width="6.4" height="6.8"/>
		<rect x="45.3" y="4.4" class="st0" width="12.8" height="6.8"/>
		<rect x="6.4" y="4.4" class="st0" width="13.2" height="6.8"/>
		<rect x="38.9" y="11.2" class="st0" width="25.7" height="19.3"/>
		<rect y="11.2" class="st0" width="26.1" height="19.3"/>
		<rect y="30.5" class="st1" width="12.8" height="6.4"/>
		<rect x="51.8" y="30.5" class="st1" width="12.8" height="6.4"/>
		<rect x="19.6" y="11.2" class="st1" width="25.7" height="6.4"/>
	</g>
	<g>
		<rect x="79.3" y="13.1" class="st1" width="44.9" height="62.7"/>
		<rect x="79.3" y="13.1" class="st0" width="8.9" height="62.7"/>
	</g>
</g>
</svg>
