<?xml version="1.0" encoding="utf-8"?>
<!-- Generator: Adobe Illustrator 21.0.0, SVG Export Plug-In . SVG Version: 6.00 Build 0)  -->
<svg version="1.1" id="Layer_1" xmlns="http://www.w3.org/2000/svg" xmlns:xlink="http://www.w3.org/1999/xlink" x="0px" y="0px"
	 viewBox="0 0 1153 564" style="enable-background:new 0 0 1153 564;" xml:space="preserve">
<style type="text/css">
	.st0{fill:url(#SVGID_1_);}
	.st1{fill:#FEFEFE;}
	.st2{fill:#FECC40;}
	.st3{fill:#FEAE40;}
	.st4{fill:#FE8D40;}
	.st5{fill:#FEEE40;}
	.st6{fill:#9C8552;}
	.st7{fill:#666D5D;}
	.st8{fill:#335767;}
	.st9{fill:#1A2533;}
</style>
<linearGradient id="SVGID_1_" gradientUnits="userSpaceOnUse" x1="576.5" y1="0" x2="576.5" y2="565">
	<stop  offset="0" style="stop-color:#345767"/>
	<stop  offset="0.3028" style="stop-color:#F7AC41"/>
	<stop  offset="1" style="stop-color:#FFAF40"/>
</linearGradient>
<rect class="st0" width="1153" height="565"/>
<g>
	<path class="st1" d="M240.6,279.6c0,18,0,36,0,54c-59.2,0-118.4,0-177.6,0.1c-2.1,0-2.5-0.4-2.5-2.5c0.1-13.2,0.1-26.4,0.1-39.6
		c2.8,0,5.6-0.2,8.3,0.1c2.9,0.3,4.3-0.5,3.7-3.6c-0.4-2,0.5-2.5,2.5-2.5c3.2,0.2,6.3,0.1,9.5,0.1c0,3.4,0,6.8,0,10.1
		c0,1.2,0.3,1.7,1.6,1.8c4.1,0.3,4.3,0.3,4.3-3.8c0-1.6,0.4-2.3,2.2-2.2c3.3,0.1,6.6,0.1,9.8,0.1c0,1.2,0.2,2.4,0,3.6
		c-0.3,2.5,1.2,2.4,2.9,2.4c1.7,0,3.3,0.3,3.2-2.5c-0.2-4.5,0-9-0.1-13.5c0-1.2,0-2,1.7-2.1c4.3-0.3,4.3-0.4,4.3-4.8
		c0-1.2,0.1-2.4,0-3.6c-0.4-2.8,0.5-4.1,3.5-3.6c1.9,0.3,2.9-0.4,2.5-2.4c-0.6-3.2,0.9-4,3.8-3.6c1,0.1,2.2,0.3,2.3-1.5
		c0-1.4-0.8-3.5,0.5-4.2c1.2-0.7,3.1-0.3,4.7-0.3c1,0,2-0.1,3,0c2.9,0.4,4.3-0.4,3.8-3.6c-0.2-1.1-0.4-2.4,1.6-2.4
		c6.9,0.1,13.8,0,20.7,0c1.1,0,1.6,0.3,1.7,1.5c0.5,4.5,0.6,4.5,5.2,4.5c1.4,0,2.8,0.1,4.2,0c2.2-0.3,2.9,0.7,2.6,2.7
		c-0.5,2.9,0.8,3.7,3.4,3.3c1.8-0.3,3,0.3,2.6,2.4c-0.6,3.1,0.8,4.1,3.7,3.6c1.9-0.3,2.4,0.6,2.3,2.4c-0.1,2.2,0.1,4.4-0.1,6.6
		c-0.3,2.6,0.7,3.5,3.2,3c2.4-0.4,3,0.7,2.9,3c-0.2,6.3,0.1,12.6-0.1,18.9c-0.1,2.5,1.4,2.2,2.9,2.1c1.4-0.1,3.4,0.8,3.2-2
		c-0.2-3.3,0-6.6,0-9.9c1,0,2,0.1,3-0.1c2.6-0.4,3.4,0.7,3,3.1c-0.4,2.4,0.6,3.3,2.9,2.9c1-0.1,2,0,3,0c6.1,0,6.1,0,6.1-5.9
		c4,0,7.9-0.1,11.9-0.1c6.1,0,6.1,0,6.1-6C234.6,279.6,234.6,279.6,240.6,279.6z"/>
	<path class="st2" d="M216.6,291.7c-0.1,5.9-0.1,5.9-6.1,5.9c-1,0-2-0.1-3,0c-2.3,0.3-3.3-0.6-2.9-2.9c0.4-2.4-0.4-3.5-3-3.1
		c-1,0.1-2,0.1-3,0.1c0-5.2,0-10.4,0-15.6c0-1.2,0.1-2.3-1.7-2.5c-4.3-0.4-4.3-0.5-4.3-4.9c0-1.4-0.1-2.8,0-4.2
		c0.3-2.3-0.7-3.2-2.9-2.8c-2.5,0.4-3.5-0.6-3.2-3.1c0.3-1.8-0.2-3.2-2.5-2.9c-3,0.5-3.9-0.9-3.5-3.7c0.3-1.9-0.7-2.4-2.4-2.4
		c-2.1,0.1-4.2-0.2-6.3,0.1c-2.7,0.3-3.6-0.7-3.3-3.4c0.2-1.2,0.3-2.7-1.8-2.7c-10.8,0-21.6,0-32.4,0c-1.2,0-1.7,0.5-1.8,1.7
		c-0.4,4.3-0.5,4.3-4.7,4.3c-1.6,0-3.2,0.1-4.8,0c-2-0.2-2.7,0.7-2.5,2.6c0.3,2.5-0.3,3.9-3.2,3.4c-2.2-0.4-3.2,0.6-2.8,2.8
		c0.4,2.5-0.6,3.6-3.1,3.2c-2.5-0.4-3.1,0.9-2.9,3.1c0.1,2.2,0,4.4,0.1,6.6c0.1,1.6-0.4,2.6-2.2,2.3c-3.6-0.6-4.3,1.2-3.9,4.2
		c0.1,0.6,0,1.2,0,1.8c-3.1,0-6.2-0.1-9.3,0c-2,0.1-2.9-0.5-2.8-2.7c0.1-4,0.2-8,0-11.9c-0.2-2.7,0.7-3.9,3.5-3.4
		c2.2,0.4,2.7-0.8,2.6-2.8c-0.1-2.3,0.1-4.6-0.1-6.9c-0.1-1.8,0.6-2.7,2.4-2.4c3.2,0.6,4.1-1,3.6-3.8c-0.1-0.7,0-1.4,0-2.1
		c0.4,0,0.8-0.1,1.2-0.1c4.4-0.1,4.5-0.1,4.8-4.3c0.1-1.3,0.5-1.7,1.8-1.7c2.3,0.1,4.6-0.2,6.9,0.1c2.7,0.3,3.9-0.6,3.4-3.4
		c-0.4-2,0.4-2.8,2.6-2.7c3.7,0.2,7.4,0.1,11.1,0c2.5,0,5.7,0.9,3.9-3.7c-0.2-0.5,0.5-1.4,0.4-2.2c8,0,16,0,24,0
		c0,1.1,0.1,2.2,0,3.3c-0.3,2.4,0.7,2.8,2.9,2.8c3.9-0.2,7.8,0.2,11.7-0.1c2.9-0.2,4,0.7,3.5,3.6c-0.3,2,0.5,2.6,2.5,2.5
		c2.5-0.2,5,0,7.5-0.1c1.5-0.1,2.1,0.4,2.1,2c0.1,4,0.2,4,4.2,4c0.6,0,1.2,0.1,1.8,0.1c0,0.4,0,0.8,0,1.2c0,4.2,0,4.3,4.2,4.7
		c1.3,0.1,1.8,0.6,1.8,1.8c0,2.3,0.2,4.6,0,6.9c-0.2,2.6,0.6,3.8,3.3,3.3c2.3-0.4,2.9,0.8,2.8,2.9c-0.1,3.9,0.1,7.8-0.1,11.7
		c-0.2,2.8,0.7,3.9,3.5,3.4c1.9-0.3,2.7,0.5,2.6,2.5C216.5,285.3,216.6,288.5,216.6,291.7z"/>
	<path class="st3" d="M216.6,291.7c0-3.2-0.1-6.4,0-9.6c0.1-2-0.7-2.8-2.6-2.5c-2.8,0.4-3.7-0.7-3.5-3.4c0.2-3.9,0-7.8,0.1-11.7
		c0.1-2.1-0.5-3.3-2.8-2.9c-2.7,0.5-3.5-0.7-3.3-3.3c0.2-2.3,0-4.6,0-6.9c0-1.2-0.5-1.7-1.8-1.8c-4.3-0.4-4.2-0.5-4.2-4.7
		c0-0.4,0-0.8,0-1.2c9.3,0,18.5,0,27.8-0.1c2,0,2.5,0.7,2.2,2.4c-0.6,3.1,0.8,4.1,3.7,3.6c1.5-0.2,2.3,0.1,2.4,2c0,4,0.1,4,4.2,4
		c0.6,0,1.2,0,1.8,0c0,8,0,16,0,24c-6,0-6,0-6,6c0,6,0,6-6.1,6C224.6,291.6,220.6,291.6,216.6,291.7z"/>
	<path class="st3" d="M102.6,243.7c0,0.7-0.1,1.4,0,2.1c0.4,2.8-0.4,4.4-3.6,3.8c-1.8-0.3-2.5,0.5-2.4,2.4c0.1,2.3-0.1,4.6,0.1,6.9
		c0.1,2-0.4,3.1-2.6,2.8c-2.8-0.5-3.6,0.7-3.5,3.4c0.2,4,0.2,8,0,11.9c-0.1,2.2,0.7,2.7,2.8,2.7c3.1-0.1,6.2,0,9.3,0c0,4,0,8,0,12
		c-3.3,0-6.6,0.1-9.8-0.1c-1.7-0.1-2.1,0.6-2.2,2.2c0,4.1-0.2,4.2-4.3,3.8c-1.4-0.1-1.6-0.7-1.6-1.8c0-3.4,0-6.8,0-10.1
		c0-3.1-0.1-6.2,0.1-9.3c0.1-2.3-0.8-3.1-2.9-2.8c-2.5,0.4-3.5-0.7-3.1-3.1c0.3-1.8-0.2-3.2-2.5-2.9c-3,0.5-3.9-0.9-3.5-3.7
		c0.3-1.9-0.6-2.4-2.4-2.4c-3.2,0.1-6.4,0-9.6,0c0-2,0-4,0-6c1,0,2-0.1,3,0c2.6,0.4,3.2-0.7,3.1-3.1c-0.2-4.1,0.1-8.2-0.1-12.3
		c-0.1-2.1,0.5-3,2.6-2.6c3.1,0.6,3.8-0.9,3.4-3.6c-0.3-1.7,0.3-2.6,2.2-2.4c2.6,0.2,5.2,0.1,7.8,0c1.6-0.1,2.1,0.5,2,2.1
		c-0.1,2.5,0.1,5-0.1,7.5c-0.1,1.9,0.5,2.6,2.5,2.5C92.2,243.5,97.4,243.7,102.6,243.7z"/>
	<path class="st4" d="M60.6,261.6c3.2,0,6.4,0.1,9.6,0c1.8-0.1,2.7,0.5,2.4,2.4c-0.4,2.8,0.5,4.2,3.5,3.7c2.3-0.4,2.7,1,2.5,2.9
		c-0.3,2.5,0.6,3.5,3.1,3.1c2.2-0.3,3.1,0.5,2.9,2.8c-0.2,3.1-0.1,6.2-0.1,9.3c-3.2,0-6.3,0.1-9.5-0.1c-1.9-0.1-2.8,0.5-2.5,2.5
		c0.6,3.1-0.8,3.9-3.7,3.6c-2.8-0.3-5.5-0.1-8.3-0.1C60.6,281.6,60.6,271.6,60.6,261.6z"/>
	<path class="st5" d="M102.6,291.6c0-4,0-8,0-12c0-0.6,0.1-1.2,0-1.8c-0.4-3,0.3-4.9,3.9-4.2c1.8,0.3,2.2-0.7,2.2-2.3
		c-0.1-2.2,0.1-4.4-0.1-6.6c-0.2-2.2,0.4-3.5,2.9-3.1c2.5,0.4,3.5-0.7,3.1-3.2c-0.4-2.2,0.6-3.2,2.8-2.8c2.8,0.5,3.5-1,3.2-3.4
		c-0.3-1.9,0.4-2.8,2.5-2.6c1.6,0.1,3.2,0,4.8,0c4.2,0,4.3,0,4.7-4.3c0.1-1.3,0.6-1.8,1.8-1.7c10.8,0,21.6,0,32.4,0
		c2.1,0,1.9,1.5,1.8,2.7c-0.3,2.6,0.6,3.7,3.3,3.4c2.1-0.2,4.2,0,6.3-0.1c1.8-0.1,2.7,0.5,2.4,2.4c-0.4,2.8,0.5,4.2,3.5,3.7
		c2.3-0.4,2.7,1,2.5,2.9c-0.4,2.5,0.7,3.5,3.2,3.1c2.2-0.3,3.1,0.5,2.9,2.8c-0.2,1.4,0,2.8,0,4.2c0,4.4,0,4.5,4.3,4.9
		c1.8,0.2,1.7,1.3,1.7,2.5c0,5.2,0,10.4,0,15.6c0,3.3-0.1,6.6,0,9.9c0.1,2.9-1.8,1.9-3.2,2c-1.5,0.1-2.9,0.4-2.9-2.1
		c0.2-6.3,0-12.6,0.1-18.9c0.1-2.3-0.5-3.4-2.9-3c-2.4,0.4-3.4-0.5-3.2-3c0.2-2.2-0.1-4.4,0.1-6.6c0.1-1.8-0.4-2.7-2.3-2.4
		c-2.9,0.5-4.3-0.5-3.7-3.6c0.4-2.1-0.8-2.6-2.6-2.4c-2.6,0.4-3.9-0.5-3.4-3.3c0.4-2-0.4-3-2.6-2.7c-1.4,0.2-2.8,0-4.2,0
		c-4.6,0-4.7,0-5.2-4.5c-0.1-1.2-0.6-1.5-1.7-1.5c-6.9,0-13.8,0.1-20.7,0c-2,0-1.8,1.3-1.6,2.4c0.6,3.2-0.9,4-3.8,3.6
		c-1-0.1-2,0-3,0c-1.6,0-3.5-0.4-4.7,0.3c-1.3,0.7-0.5,2.8-0.5,4.2c0,1.8-1.2,1.6-2.3,1.5c-2.8-0.4-4.4,0.4-3.8,3.6
		c0.4,2-0.7,2.7-2.5,2.4c-3-0.5-3.9,0.8-3.5,3.6c0.2,1.2,0,2.4,0,3.6c0,4.4,0,4.5-4.3,4.8c-1.6,0.1-1.7,0.9-1.7,2.1
		c0,4.5-0.2,9,0.1,13.5c0.1,2.8-1.5,2.4-3.2,2.5c-1.7,0.1-3.3,0.1-2.9-2.4C102.7,294.1,102.6,292.8,102.6,291.6z"/>
</g>
<g>
	<path class="st6" d="M1151.7,298.8c0,87.7,0,175.4,0.1,263.1c0,2.2-0.5,2.8-2.8,2.8c-382.2-0.1-764.5-0.1-1146.7,0
		c-2.2,0-2.8-0.5-2.8-2.8c0.1-86.1,0.1-172.2,0.1-258.3c2.3-0.9,4.6-1.8,7-2.6c2.5-0.8,4.4-0.3,5.9,1.5c2,2.4,4.9,3.4,7.2,5.3
		c3.7,2.9,7.3,2.8,11.4,1.1c14.2-5.7,28.6-11.2,42.8-16.9c1.6-0.6,3-0.5,4,0.8c3.7,4.4,8.7,7.3,12.8,11.2c0.7,0.7,1.9,1.1,2,2.2
		c0.6,4.7,4.1,7.6,6.5,11.3c1.3,1.9,2.5,1.9,4.5,1.3c4.1-1.2,7.9-4,12.5-2.5c0.5,0.1,1.2-0.1,1.7-0.4c8.7-3.9,17.9-6.4,26.9-9.6
		c5-1.8,9.7-3,14.2,0.9c0.3,0.3,0.7,0.3,1.1,0.6c1.7,1.1,3,1,4.8-0.2c8.5-5.8,16.8-11.8,25.8-16.8c1.2-0.7,2.3-0.9,3.6-0.9
		c1.3,0,2.5,0,3.6-1.1c5.5-5.7,11.3-11,16.2-17.2c2.3-2.9,4.2-6.3,8.1-7.8c2.7-1,5.2-2.5,7.7-3.9c2.4-1.3,4.1-3,5.5-5.6
		c3.1-6,5.7-12.6,12.8-15.3c2-0.8,3.6-1.4,5.2,0.7c4.5,6,9.2,11.8,13.4,18c2.3,3.4,4.9,5.6,8.9,6.5c2.3,0.5,4.6,1.2,7,1.7
		c7.8,1.4,15,4.2,20.4,10.2c6.4,7.2,13.5,13.9,19.5,21.4c1,1.3,2,1.4,3.2,0.4c2.2-1.7,4.2-1.3,6.4,0.4c3.3,2.6,6.9,4.7,10.3,7.2
		c15.8,11.6,30.9,23.9,47.1,34.9c2.6,1.8,5.2,2.9,8.6,2.1c2.9-0.6,5-1.9,6.7-4c2.2-2.7,4.7-3.6,8.1-2c2.5,1.2,5.3,1.9,8,2.5
		c9.5,2.3,19.1,4.4,28.3,8.2c1.4,0.6,2.7,0.1,4-0.6c4.7-2.5,9.7-4.7,14.1-7.7c4.7-3.2,9.3-2.9,13.8-0.5c3.4,1.8,6,1.3,9.1-0.6
		c9.1-5.5,18.3-11,27.8-16c1.9-1,3.6-1.1,5.6-0.2c4.2,1.8,8.5,3.4,12.8,5.1c1,0.4,2,0.7,2.8,0c2-1.6,4.1-1,6.1-0.1
		c2,0.8,4.1,1.6,6,2.6c10,5.2,20.7,7.4,31.8,8.6c0.8,0.1,1.4-0.2,1.9-0.7c3.1-2.7,6.9-4.5,9.5-7.7c1.2-1.4,2.6-2.2,4.4-1.1
		c1.3,0.8,2.5,0,3.6-0.6c5.7-2.7,11-6,16.2-9.5c5.1-3.4,10.3-5.8,17-4.7c6.2,1.1,12.7,0.6,19.1-0.4c2.1-0.3,3.5-1.2,4.5-3.3
		c1.1-2.2,2-4.7,4.4-5.9c9.4-4.5,19-8.6,28.7-12.3c1.2-0.5,2.5-0.4,3.4,0.5c2.3,2.4,3.8,1,5.5-0.8c7-7.2,14-14.5,22.9-19.5
		c2.4-1.4,3.8-1.3,4.8,1.2c1.4,3.3,4.2,5.5,5.9,8.6c0.8,1.5,2.1,2.3,3.9,2.3c3.9,0.1,6.9,1.6,9.6,4.6c5,5.7,10.4,11,15.6,16.5
		c0.9,0.9,1.9,1.4,3.1,1.6c5.1,0.8,10.2,1.7,15.4,1.9c2.4,0.1,5-0.3,7.1,0.9c9.5,5.3,20,7.7,29.9,11.8c0.9,0.4,1.8,0.5,2.6,0.4
		c2.1-0.3,3.6,0.6,5.1,2c4.6,4.3,9.3,8.5,14,12.7c5.1,4.6,5.1,4.6,10.8,0.6c1.2-0.8,2.2-1.6,4-0.8c4.8,2.3,9.3,1,13-2.4
		c1.6-1.4,2.9-2.1,4.9-1.3c1.8,0.7,4.2,0.5,4.9,2.9c1.1,3.6,4.1,5.2,6.8,7.3c1.7,1.3,3.2,1.5,5-0.2c5.1-4.9,10.3-9.8,15.6-14.5
		c5.4-4.8,10.6-9.7,18.8-10.3c5.3-0.4,10.7-1.6,16.1-1.6c2.2,0,3.9-1.1,5.5-3c2.4-2.8,3-6.5,5.4-9.3c5.1-6,11.2-11.1,16.7-16.8
		c7.3-7.5,13.4-16.1,21.8-22.5c2-1.5,3.4-1.7,5.2,0c3,2.8,6,5.5,8.9,8.4c1.6,1.6,3.2,2.2,5.6,1.5c4-1.2,8.1-1.9,10.5,3
		c0.2,0.3,0.6,0.5,0.9,0.8c4.6,4.5,9.1,9,13.5,13.6c6.9,7.2,13.1,15.1,21.6,20.6c6.8,4.4,13.8,8.4,20.7,12.5
		c2.2,1.3,3.9,1.4,6.2,0.1c9.5-5,19.1-10,29.2-13.7c1.7-0.6,3.3-0.7,4.8,0.6c2.1,1.8,4.1,1.5,6.6,0.2
		C1133.2,307.3,1142.4,302.9,1151.7,298.8z"/>
</g>
<g>
	<path class="st7" d="M1152.7,242.8c0,105.7,0,211.4,0.1,317.1c0,2.2-0.5,2.8-2.8,2.8c-382.2-0.1-764.5-0.1-1146.7,0
		c-2.2,0-2.8-0.5-2.8-2.8C0.6,450.6,0.6,341.3,0.6,232c3,1.6,5.9,3.4,8.2,5.9c2.8,3,6.5,4.7,9.7,7c0.9,0.6,1.8,0.3,2.8,0
		c9.6-2.3,17.9-7.1,26-12.5c4.1-2.7,7.9-5.8,12.3-7.9c1-0.5,1.9-1.2,3-0.5c4,2.5,8.3,4.7,10.9,8.8c3.8,6.1,8.8,11.4,11.9,17.9
		c1.4,2.9,3.9,4,6.9,3.4c2.2-0.4,3.8,0.3,5.6,1.4c2.7,1.6,4.3,4.6,7.1,5.9c3.1,1.5,5.2,3.5,6,6.9c0.3,1.1,1.2,2,2.3,2.1
		c5.5,0.3,9.3,3.7,13,7.3c3.7,3.6,7.4,7.3,11.1,10.9c1,0.9,1.7,2,2.1,3.2c0.9,3.3,2.6,6.2,4,9.3c2.3,5.2,8.7,7.1,13.6,3.9
		c1.2-0.8,2.3-1.2,3.6-0.5c1.9,0.9,4,1.5,5.7,2.6c1.3,0.9,2.3,0.8,3.5,0.1c3.4-2.2,6.7-4.3,10.1-6.5c2.1-1.4,4.6-1.7,6.5-0.4
		c4.7,3.4,10.2,5.2,14.9,8.7c6.1,4.6,13.2,6.9,21,6.4c6.7-0.4,13.4,0.2,19.7,2.4c5.2,1.8,9.9,4.6,15.1,6.6
		c9.6,3.7,19.5,6.3,28.6,11.2c1.5,0.8,2.2,1.8,2.3,3.5c0.7,7.2,3.3,13.8,6.4,20.2c1.4,2.9,3.4,4,6.4,3.5c2-0.3,3.3,0.4,3.9,2.3
		c1.3,4.2,5.5,5.9,7.6,9.4c0.4,0.7,1.5,0.8,2.4,0.9c4.9,0.3,9.7,0.6,14.6,1.3c2.5,0.3,5.2,0.9,5.2,4.5c0,1,0.6,2.2,1.2,3
		c1.9,2.7,3.5,5.5,7,6.9c2.7,1.1,4.7,3.9,6.9,6.1c1.4,1.4,2.1,1.3,3.5,0c4.2-4,5.9-4,10.3-0.5c4.6,3.7,9.3,5,14.7,1.7
		c0.9-0.6,2.2-1.3,3.1-0.5c3,2.6,7.1,3.2,10.1,6c3,2.8,6.5,4.9,9.8,7.4c1.6,1.2,3.3,1.5,5.2,0.8c5.4-2,10.8-3.9,16.3-5.8
		c1.4-0.5,2.4-1.3,3.3-2.4c2.4-2.9,3.8-6.8,7.2-8.7c5.8-3.3,10.4-8.6,17.1-10.3c0.8-0.2,1.5-1,2.3-1.4c6-2.8,10.1-8,15.3-11.8
		c3.7-2.6,7.2-2.1,10.2-0.1c4.4,2.9,9.5,3.3,14.1,5.5c3.1,1.5,6.5,2.9,10.1,3.5c5.2,0.8,10.4,0.5,15.6,0.4c3.1-0.1,5.3-1.7,7.4-4
		c5.2-5.7,11.3-9.9,19.3-10.6c1.7-0.1,3.7,0.2,5-1.4c0.9-1.2,2-1.8,3.5-2.1c1.8-0.4,2.5-1.3,1.1-3.1c-1.4-1.8-2.5-3.7-1.3-6.2
		c1.4-2.9,4.1-5,5.4-8.1c0.3-0.7,1.4-0.6,2.2-0.5c1.4,0.3,2.9,0.7,4.3,1.1c8.4,2.3,16.5,5.6,25.1,7c8.7,1.4,17.1,4.6,26,5
		c1.7,0.1,3.2,0.7,3.9,2.3c1.7,3.5,3.4,5.9,8.2,5.8c3.5-0.1,7,0.7,10.5-0.4c2.3-0.7,4.5-1.6,6.9-2.1c9.7-1.9,17.8-6.9,25.2-13.2
		c4.4-3.7,8.7-7.8,14.1-10.1c5.5-2.4,10.5-5.7,15.7-8.7c1.5-0.9,2.8-1.2,4.5-0.6c6.2,2,12.6,2.7,18.6,5.4c3.5,1.6,7.4,2.6,11.2,3.2
		c10.3,1.7,20.7,3,31,4.7c6.9,1.1,13.6,3.1,20.7,3c2.3,0,4.3-0.4,6-2.1c3.5-3.6,7.5-5.1,12.7-4c2.8,0.6,5.8,1.1,8.6-1.3
		c3.9-3.3,8.1-6.1,13.3-7.6c5.5-1.5,10.8-4,15.6-7.2c1.4-0.9,2.8-1.3,4.5-0.6c4.4,1.8,9.1,3.1,13.3,5.3c2.8,1.5,4.8,0.9,7-0.8
		c0.6-0.5,1.5-0.8,1.9-1.4c1.6-2.3,3.7-1.8,5.8-1.1c2.7,0.9,5.1,2.8,8,3c5.3,0.4,10.5,0.8,15.8,1c6.2,0.3,12.5,1.4,18.4-1.8
		c3-1.6,5.7-3.7,9-4.8c9.3-3.1,16.3-9.6,22.1-16.8c5.6-7,6.2-4.7,10.2-0.6c2.3,2.4,4.9,3.1,8.1,2.1c7.6-2.4,15.6-3.6,22.2-9
		c4.3-3.5,9.6-5.7,14.4-8.5c4.3-2.5,4.6-3.6,2.1-7.8c-0.5-0.9-0.9-1.8-0.5-2.8c2-5.1,1.4-10.3,0.5-15.6c-0.5-3,0.7-4,3.7-4.5
		c4-0.7,7,1,9.6,3.7c4.2,4.3,9.9,5,15.1,5.5c4.9,0.4,9.3,1.5,13.5,3.7c1.1,0.6,2.2,1,3.4,1c4.7,0,9.4,0,14.1,0
		c1.3,0,2.7-0.2,3.6-1.2c3.7-4.6,8.2-8.4,11.4-13.4c2.8-4.4,6.2-8.4,10.1-11.7c3.6-3,8.3-4.3,12.3-6.6c3.2-1.8,5.7-1.3,8.3,1.2
		c2.8,2.7,6.1,4.2,10.2,3.8c3.7-0.4,7.4-0.1,11.1-0.1c1.2,0,2.5,0,3.3,1c1.7,1.8,3.9,2.7,5.7,4.3c1.6,1.4,2.6,1,3.8-0.6
		C1146.9,247.6,1149.3,244.7,1152.7,242.8z"/>
</g>
<g>
	<path class="st8" d="M1152.7,256.2c0,101.9,0,203.8,0.1,305.7c0,2.2-0.5,2.8-2.8,2.8c-382.2-0.1-764.5-0.1-1146.7,0
		c-2.2,0-2.8-0.5-2.8-2.8c0.1-93.7,0.1-187.4,0.1-281.1c1.7-0.9,3.8-1.9,5.4-1.1c3.6,1.9,6.8-0.1,10.1-0.4c0.8-0.1,1.4-0.4,1.7-1.1
		c1.4-3,3.7-5.4,4.9-8.5c1.7-4.1,5.4-6.4,9.8-6.9c7.4-0.9,14.8-1.2,22.1-3.1c2.1-0.5,4.2-0.3,6.1,0.9c1.9,1.4,4.1,2,6.3,2.6
		c5.3,1.5,10.6,2.7,14.8,7c5.2,5.2,11.4,9.4,16.6,14.6c3.6,3.7,7.9,5.7,12.6,7c4.8,1.3,8.5,3.7,10.6,8.2c0.4,0.9,1.2,1.5,1.9,2.3
		c2,2.5,4.8,1.7,7.4,1.6c6.1-0.3,9.7,1.9,10.7,7.1c0.6,3.1,2.1,5.9,2.5,9c0.3,2,1.4,2.8,3.3,2.7c5.9-0.2,10.4,3,14.4,6.6
		c2,1.8,3.6,0.6,5.2,0.3c1.2-0.2,0.4-1.9,0.5-2.9c0.7,0,1.4,0,2.1,0c1.3,0,0.9-1.1,0.9-1.8c0.1-0.9-0.3-1.3-1.2-1.2
		c-0.7,0.1-1.7-0.4-1.8,0.9c0,0.7,0,1.4,0,2.1c-6.2-0.2-6.1-0.2-6.1-4c0-1.4,0.1-2.4,1.9-2.1c0.7,0.1,1.2-0.2,1.1-1
		c-0.2-1.5,0.4-2.2,2-2c1,0.1,1.1-0.6,1-1.4c0-0.9-0.2-1.9,0-2.7c0.5-1.8-1.9-5.2,2.6-5.1c0.1,0,0.3-0.9,0.4-1.3c0-1.5,0-3,0-4.5
		c0-1.5-0.6-3.4,2.1-3.1c0.8,0.1,0.8-0.6,0.9-1.2c0-0.9,0-1.8,0-2.7c0-0.9-0.4-2,1.3-2.1c1.3,0,1.8,0.4,1.7,1.7
		c-0.1,0.6-0.1,1.4,0.8,1.3c2.7-0.4,2.1,1.5,2.2,3c0.1,1.4-0.7,3.4,2.1,3.1c1.3-0.1,0.7,1.1,0.9,1.8c0.4,1.7-1.4,4.6,2.5,4.2
		c0.4,0,0.6,0.5,0.5,1c-0.2,1.6,0.4,2.1,2,2c1.3-0.1,0.9,1,1,1.7c0.1,0.9-0.2,1.3-1.2,1.3c-1.1,0-2.2,0-3.3,0c-0.8,0-1.6,0-1.5,1.2
		c0.1,0.9-0.2,1.9,1.3,1.8c0.7,0,1.8-0.3,1.7,1c-0.1,1.5,0.3,2.3,2,2c0.7-0.1,1.2,0.3,1,1.1c-0.2,1.6,0.5,2.1,2,2
		c1.1-0.1,1,0.7,1,1.4c0,0.6-0.2,1.5,0.6,1.5c3.7-0.3,2.1,2.4,2.4,4c0.1,0.8,0.5,2.1-1.2,2.1c-1.2,0-1.9-0.3-1.7-1.7
		c0.1-1-0.3-1.4-1.4-1.4c-1,0-1.8,0.1-1.6,1.4c0.2,1.4-0.5,1.7-1.7,1.6c-1.2-0.1-1.3,0.6-1.3,1.5c0,0.9,0.1,1.7,1.2,1.5
		c1.5-0.2,2,0.5,1.8,1.9c-0.1,0.7,0.2,1.2,1,1.1c1.5-0.2,2.2,0.4,2,2c-0.1,0.8,0.3,1.1,1.1,1c2.6-0.1,2,4,4.9,3.6
		c-0.3,2,0.6,2.4,2.5,2.6c1.1,0.1,0.9,2.1,0.3,2.5c-1.4,0.9-3.1,0.3-4.7,0.4c-1.3,0.1-1.1-0.9-1.1-1.7c0.1-1.1-0.4-1.4-1.4-1.3
		c-0.8,0-1.7-0.1-1.6,1.2c0.2,1.4-0.3,2.1-1.8,1.9c-1.2-0.2-1.2,0.7-1.2,1.5c0,0.9,0.2,1.6,1.3,1.5c1.2-0.2,1.9,0.2,1.7,1.6
		c-0.1,1,0.3,1.5,1.4,1.4c0.2,0,0.5-0.1,0.6,0c1,1.6,2.1,3.2,4,3.9c0.1,0,0,0.4,0,0.6c-0.1,1.2,0.3,1.6,1.5,1.5
		c0.5,0,1.4-0.2,1.4,0.6c0.1,2.1,1.7,1.7,2.9,1.7c1.7,0.1,3.4,0,5.1,0.1c1,0,2,0.1,2.3,1.4c0.7,3.2,0.6,6.9,4.4,8.5
		c0.3,0.1,0.5,0.6,0.7,1c2,4.6,2,4.7,6.7,4.1c5.5-0.8,11,1.9,16.6,0.2c0.3-0.1,0.7,0.3,1,0.5c4.8,3.6,10.7,5.4,15.1,9.6
		c1.4,1.4,2.7,1,4.3,0.4c10.7-3.9,20.7-9.5,31.6-13.2c1.7-0.6,2.8-0.9,4.3,1c1.4,1.8,4.2,3.1,6.4,2.4c3.4-1,6.9-1.8,10.2-3.2
		c3.8-1.6,7.9-2.7,11.8-4c2-0.7,2.8,0.1,2.7,2.1c-0.2,2.9-0.5,5.8-0.5,8.7c0.2,8.3-3.7,14.4-10.1,19.1c-5.9,4.4-12.3,8.2-12.6,16.8
		c-0.1,1.9-0.3,3.8-1.2,5.5c-0.2,0.5-0.2,1.3,0,1.7c0.5,0.7,1.2,0.1,1.8-0.1c2.3-0.8,4.5-1.5,6.8-2.3c2.9-0.9,6.7,1.5,5.9,3.7
		c-0.8,2.2,0.1,3.5,1.4,5c1.8,2.1,4.3,3.9,4.5,6.9c0.1,1.5,0.6,2,1.7,2.3c4.5,1.4,9.1,1.9,13.8,2c-3.1-0.7-2.9-0.9-1.6-3.9
		c0.5-1.2,2.5-0.9,2.1-2.7c-0.4-1.5,0.9-2.2,1.9-2.8c0.5-0.3,1.1-0.3,1.1-1.1c-0.1-0.9-0.7-0.7-1.3-0.8c-0.6-0.1-1.5,0.4-1.6-0.7
		c-0.1-0.9-0.1-1.7,0.9-2.5c2.4-2.1,2.6-3.4,2.1-6.8c-0.1-0.6-0.1-1.6,0.2-1.7c2.5-1.2,2.5-4.2,4.2-5.6c1.5-1.3,1.3-2.4,1.7-3.8
		c0.3-1.1,0.9-2.8,2.2-2.7c1.4,0.1,0.7,1.8,0.7,2.7c0.1,2.6,0.9,4.6,2.8,6.5c1.9,1.8,2.4,5,1.1,7c-1.7,2.7-0.5,3.5,1.4,4.7
		c2.5,1.7,2.3,3.4-0.5,4.8c-1.1,0.6-0.7,1.7-0.5,2.4c0.3,0.9,1,0.7,1.7,0c2.3-2.3,5.6-3.9,4.8-8.1c-0.3-1.5,1-2.6,2.1-3.2
		c1.1-0.5,0.7-1.3,0.8-1.9c0.1-0.7-0.2-1.1-1-1.2c-0.8-0.1-1.8,0.5-2.1-1c-0.3-1.5,0.7-2.3,1.5-2.9c2.2-1.6,2.5-3.8,2.4-6.3
		c-1,1.2-2.9,1.2-3.4,3c-0.3-1.2-1.1-2.3,0.3-3.1c0.5-0.3,0.6-1,0.3-1.3c-2-1.7,1.1-2.9,0.4-4.5c3.7-1.4,2.2-5.8,4.5-8
		c1.7-1.6,1.2-3.9,1.2-6c0-0.5-0.1-1.1,0.6-1.2c0.5-0.1,1.2,0,1.1,0.6c-0.1,3.1,3.5,3.9,4,6.7c0.1,0.5,0.1,1.2,0.8,1.7
		c3.9,2.7,3.9,2.9,2.4,6.7c-0.1,0.3,0,0.6,0,0.9c-0.3,2.9,2,4.3,3.8,5.4c1.4,0.9,1.2,2,0.9,2.6c-0.5,1.1-1.3,0.6-1.9-0.3
		c-0.3-0.4-3,1.7-2.7,1.8c1.9,1,1.5,3.3,3,4.6c3.1,2.6,3.7,4.2,3,7.6c0,0.2,0,0.4,0,0.6c-1,3.2,2.4,4.1,3.6,6
		c1.2,1.8,2.1,2.4-0.4,3.5c-0.4,0.2-2.2,1-1.2,2.4c0.8,1.2,4.2,1.1,5.2,0c1.8-2.2,5.2-1.9,6.4,0.6c1.5,3,3.8,5.1,7.3,4.5
		c9.8-1.8,18.7-5.6,25.7-13.1c1.1-1.2,2.2-2.5,3.2-3.9c0.9-1.3,2.1-1.5,3.3-0.3c1.1,1.1,2.5,1.5,4,1.8c2.6,0.6,5.5,0.9,7.6,2.5
		c2.8,2.2,6.2,2.5,9.3,3.6c2.4,0.9,3.4,0,4.4-2c0.5-1,0.9-2.7,2.3-2.3c2.6,0.7,5.8,0.2,7.7,2.4c2.1,2.4,2.5,0.9,2.8-0.8
		c0.9-5.2,4.1-8,9.1-9.7c2.8-0.9,4-0.4,5,2.1c1.9,4.8,4.2,9.4,6.5,14c1,2.1,1.9,3.6,4.6,2.3c1.2-0.6,2.7-0.6,4.1-0.6
		c3.9,0,7.8-0.6,11,2.9c1.7,1.9,4.4,1,5.6-1.3c1.6-2.9,3.8-5.3,6.3-7.5c1.2-1,2.5-2.1,3.3-3.4c2.9-4.8,7.5-7.1,12.7-8.1
		c2.7-0.5,5.6-0.1,8.1-0.9c2-0.6,3.5-0.4,4.9,0.9c1.7,1.6,3.9,1.9,5.9,2.4c1.7,0.4,3.9,0.4,4.1-2.2c0.2-4,2.7-6.5,5.3-9
		c3.9-3.9,4.2-4.3,8.4-0.8c3.2,2.7,5.6,1.9,8.4,0c1.3-0.9,2.6-1.8,3.7-3c0.6-0.7,1.2-1.2,2.2-1.5c7.4-2.2,14.4-5.2,20.8-9.5
		c0.8-0.5,1.6-1,2.5-0.7c4.1,1.1,8.3,1.6,11.5,5.1c3.4,3.9,7.4,7.2,11.9,10c4.6,2.8,8.8,2.7,11.2-2.4c2.4-5.1,6.6-6.8,11.5-8
		c2.1-0.5,3.7-0.4,5.6,0.8c3.3,2.1,6.8,4.6,11.1,3c4-1.5,6.3,0.7,8.5,3.3c1.7,2,3.5,2.6,5.7,1.1c5.1-3.7,10.6-7,14.4-12.2
		c2.4-3.3,4.7-6.9,9-7.8c6.1-1.2,11.5-4.4,17.6-5.3c0.4-0.1,0.7-0.4,1-0.6c7-5.2,14.4-10,20.8-16c4.4-4,9.8-3.3,15-2.9
		c3.1,0.2,5.9,2.4,9.2,2.1c0.9-0.1,1.5,0.8,2.3,1.3c2.8,2,2.8,5.5,4.4,8.2c0.7,1.1,0.9,3.1,2.1,3c3.8,0,8.3,1.2,11.3-1.5
		c6.9-6.1,15.2-9.7,23.2-14c1.6-0.9,3.7-2.1,5.4-1.2c5.2,3.1,12.2,1.9,16.7,6.7c0.3,0.3,0.9,0.3,1.4,0.3c2.6,0.4,5.1,0.8,7.7,1.1
		c3.2,0.5,5.9-0.1,7.7-3.2c1.2-2,2.9-3.8,4.2-5.8c1.3-2,2.7-3.1,5.3-3.1c4.8,0,6.4-1.6,7.3-6.3c1-5.3,4.6-9.2,7.6-13.3
		c0.5-0.7,1.4-1.1,2.3-1.4c5.5-1.6,11-2.9,16.7-2.2c3.4,0.4,6.5,0,9.5-1.6c1.6-0.9,3.3-1.5,5.1-1.5c2.3,0,3.7-1.1,5-2.8
		c2.2-2.9,4.5-5.9,6.9-8.7c2.5-2.9,5.8-4.4,9.6-3.4c4.6,1.1,8.9-0.2,12.3-2.6c4.1-2.8,7.3-3.2,11.4-0.7c2,1.2,4.4,4,6.9,0.5
		c0.2-0.3,1.1-0.2,1.7-0.2c2.1-0.1,4.2-0.2,6.3-0.1c1.5,0,2.5-0.5,3.1-1.8c1.6-3.6,2.9-4.1,6.4-2.5c1.6,0.8,3.1,1.4,4.6-0.2
		c0.7-0.7,1.6-0.6,2.4,0.1c1.2,1.1,2.4,2.2,3.7,3c2,1.3,0.4,4.8,3,5.3c2.2,0.4,4.4-0.2,6.8,0.3c3.7,0.7,8,3.7,10.8-1.8
		c0.3-0.5,1.8-0.3,1.3-1.6c-1.2,0.8-1.4-2.6-3-0.7c-0.7,0.8-1.8,0.4-3,0c1.8-2.2,3.7-4.1,5.7-5.9c0.5-0.5,2.7-1,1.1-2.8
		c-1.3-1.4-2.2-1.5-3.2,0.2c-1.2-2.2-0.2-3.6,1.2-4.3c1.8-0.8,1.8-3.3,4-3.5c0.4,0,0.5-1.2-0.6-1.4c-0.7-0.1-1.6,0.3-2.4-0.8
		c4-2,3.1-7.4,7.2-9.6c0.1,1.1,0,2.5,0.4,2.7c2.9,1.3,1.4,4.3,2.7,6.3c0.7,1.1,0.1,3,2,3.8c1.1,0.5,1.4,1.5,1.2,2.7
		c-0.2,1.3-1.2,0.7-1.9,0.8c-0.5,0.1-1,0-1.1,0.7c-0.1,0.7,0.3,0.9,1,1.2c1.3,0.4,1.9,1.6,2.5,3.3c0.8-3,1.6-5.4,2-7.9
		c0.5-2.7,2.1-3.1,4.3-2.6c1.6,0.4,3,0.5,4.7,0.1c4.6-1.1,4.8-0.8,7.6,3.4c0.9,1.4,2,2.7,3.1,4c0.9,1.1,1.5,1,2-0.4
		c0.7-2,1.7-3.8,2.4-5.8c2.1-5.7,2.2-5.8,8.1-5.5c1.8,0.1,3.3,0.2,4.2-2.1c0.7-1.7,2.5-2.9,4.7-2.3c2.8,0.7,3-1.3,2.5-2.9
		c-0.9-3.1-0.9-6.3-1.6-9.3c-0.5-2.1,0-3.2,2.3-3.6c1.8-0.3,4.1-0.2,5.3-1.6c1.7-1.9,3.8-1.9,5.9-2.2c13.7-1.4,27.4-2.9,41-4.2
		c1.1-0.1,2.1-0.3,2.2-1.5c0.5-4.5,3.7-5.2,7.4-5c1.7,0.1,2.4-0.7,3-2.2C1149.4,260.6,1150.5,258,1152.7,256.2z"/>
</g>
<g>
	<path class="st9" d="M1020.7,364.7c-6-0.1-6-0.1-6-6.3c0-0.5,0-1,0-1.5c0-4,0-4.1,4.2-4.2c1.4,0,1.9-0.3,1.9-1.8
		c-0.1-2.6,0.1-5.2-0.1-7.8c-0.1-1.9,0.4-2.8,2.4-2.4c3,0.6,4.2-0.6,3.6-3.6c-0.4-1.9,0.5-2.7,2.4-2.4c2.6,0.5,4.3-0.2,3.6-3.3
		c-0.5-2.3,0.5-2.9,2.7-2.7c2,0.2,4-0.2,6,0.1c2.8,0.4,3.4-0.7,3.4-3.4c0-2.3-0.7-3.1-2.8-2.7c-2.8,0.5-3.5-0.7-3.3-3.4
		c0.2-4,0.2-8,0-12c-0.1-2.3,0.6-3,2.8-2.7c1.1,0.2,2.2,0,3.3,0.1l-0.1-0.1c0,1.5,0.1,3,0,4.4c0,1,0.1,1.5,1.4,1.7
		c4.5,0.4,4.6,0.4,4.6-4c0-0.7,0-1.4,0-2.1l-0.1,0.1c1.5,0,3-0.1,4.4,0c1,0,1.5-0.1,1.7-1.4c0.4-4.5,0.4-4.6-4-4.6
		c-0.7,0-1.4,0-2.1,0l0.1,0.1c0-3.1,0.1-6.2-0.1-9.3c-0.1-2.1,0.4-3.2,2.7-2.8c2.6,0.5,3.8-0.4,3.4-3.3c-0.2-1.6,0-3.2,0-4.8
		c0-4.1,0-4-4.2-4c-1.7,0-1.9,0.7-1.9,2.1c0,4.3-0.1,4.3-4.5,4c-1.1-0.1-1.6-0.4-1.5-1.5c0.1-3,0.1-6,0-9c-0.1-2.1,1.4-1.6,2.4-1.5
		c3,0.5,4.2-0.6,3.6-3.6c-0.4-2,0.5-2.8,2.4-2.4c3,0.6,4.1-0.7,3.6-3.6c-0.2-1.3-0.3-2.4,1.8-2.4c4.2,0,4.2-0.1,4.2-4.5
		c0-0.5,0-1,0-1.5c6.6,0.1,6.6,0.1,6.1-4.6c-0.1-0.7-0.1-1.2-1.1-1.4c-4-0.8-5-0.1-5,4c0,0.7,0,1.4,0,2.1c-3.4,0-6.8-0.1-10.2,0
		c-1.4,0-2.1-0.3-1.8-1.8c0-0.1,0-0.2,0-0.3c0-3.2-1.1-7.4,0.5-9.3c1.6-2,6-0.6,9.1-0.6c2,0,2.6-0.6,2.4-2.5c-0.2-2.5,0.1-5-0.1-7.5
		c-0.1-1.8,0.6-2.1,2.2-2.1c3.9,0,4.5-0.9,3.9-4.8c-0.4-2.1-2-1.1-2.8-1c-2.6,0.2-3.6-0.5-3.3-3.2c0.3-2,0.2-4,0-6
		c-0.2-2.3,0.5-3.3,2.9-2.9c2.7,0.5,3.7-0.6,3.1-3.2c-0.5-2.4,0.7-3.3,2.9-2.8c2.8,0.5,3.6-0.8,3.1-3.2c-0.5-2.5,0.8-3.1,3-2.8
		c2.4,0.4,3.5-0.4,3.1-3c-0.2-1.4,0-2.8,0-4.2c0-4.4,0-4.5,4.5-4.8c1.8-0.1,1.6-1.1,1.5-2.2c-0.4-2.9,0.3-4.6,3.7-3.9
		c2,0.4,2.5-0.6,2.4-2.5c-0.2-2.3,0.1-4.6-0.1-6.9c-0.1-2,0.3-3.1,2.5-2.6c2.8,0.5,3.8-0.4,3.6-3.4c-0.3-4.2,0.1-8.4-0.1-12.6
		c-0.1-2.6,1.5-2.1,2.9-2c1.3,0.1,3.3-1.1,3.2,1.9c-0.2,6.5,0,13-0.1,19.5c0,2.1,0.6,3,2.6,2.5c3-0.6,3.8,0.7,3.5,3.5
		c-0.2,2,0.1,4-0.1,6c-0.2,2.2,0.7,2.9,2.7,2.5c3-0.6,3.8,0.8,3.4,3.6c-0.2,1.2,0,2.4,0,3.6c0,4.5,0,4.6,4.5,4.8
		c2.1,0.1,1.6,1.4,1.5,2.4c-0.5,3,0.7,4.2,3.7,3.6c2.8-0.6,2.4,1.4,2.4,3c0,1.8,0.3,3.3-2.5,3c-3.3-0.3-4.6,1.8-3.5,5.1
		c0.5,1.5,1.7,0.9,2.5,0.8c2.8-0.4,4.1,0.5,3.5,3.5c-0.4,2.1,0.4,2.8,2.6,2.6c2.6-0.2,5.2,0,7.8-0.1c1.3-0.1,1.7,0.4,1.7,1.7
		c-0.1,2.8-0.1,5.6,0,8.4c0.1,1.6-0.5,2-2,2c-4.2,0-4.1,0.1-4.1,4.1c0,1.7,0.7,2.1,2.1,1.9c3.2-0.6,4.7,0.5,4,3.9
		c-0.5,2.5,1.2,2.3,2.7,2.1c2.7-0.4,3.5,0.6,3.4,3.4c-0.2,6-0.2,12,0,18c0.1,2.3-0.6,3-2.8,2.7c-1.1-0.2-2.2,0-3.3,0
		c0.1-6.6,0.1-6.6-4.6-6.1c-1,0.1-1.3,0.4-1.4,1.4c-0.5,4.5-0.4,4.7,4,4.7c0.7,0,1.4,0,2.1,0c0,0.5,0,1,0,1.5c0,4.3,0,4.4,4.2,4.5
		c1.1,0,1.8,0,1.9,1.5c0.3,4.5,0.4,4.5,5.1,4.5c0.3,0,0.6,0,0.9,0c0,10,0,20,0,30c-2,0-4,0-6,0c0.1-6.6,0.1-6.6-4.6-6.1
		c-1,0.1-1.3,0.4-1.4,1.4c-0.5,4.5-0.4,4.7,4,4.7c0.7,0,1.4,0,2.1,0c-0.1,6-0.1,6,6,6c0,14,0,28,0,42c-1,0-2,0.1-3,0
		c-2.5-0.4-3.1,0.5-3.1,3c0,2.5,0.6,3.4,3.1,3c1-0.2,2,0,3,0c0,65.2,0,130.4,0.1,195.6c0,2-0.3,2.5-2.4,2.5
		c-382.5-0.1-764.9-0.1-1147.4,0c-2.1,0-2.4-0.5-2.4-2.5C0.6,491,0.6,421.8,0.6,352.6c1.2,0,2.4-0.1,3.6,0c1.9,0.2,2.8-0.5,2.4-2.4
		c-0.6-3,0.6-4.2,3.6-3.6c1.9,0.4,2.3-0.5,2.5-2.4c0.2-3-0.7-4.1-3.7-3.6c-1.2,0.2-2.5,0.4-2.5-1.8c0-4.2-0.1-4.2-4.4-4.2
		c-0.5,0-1,0-1.5,0c0-4,0-8,0-12c1.1,0,2.2-0.1,3.3,0c2.3,0.3,3.1-0.5,2.7-2.7c-0.5-2.8,0.7-3.8,3.3-3.3c2.3,0.4,3.1-0.6,2.7-2.8
		c-0.6-2.9,0.8-3.7,3.4-3.2c2,0.3,2.8-0.3,2.7-2.5c-0.2-4-0.3-8,0-12c0.2-2.8-0.5-4-3.5-3.6c-0.8,0.1-2.2,0.9-2.6-1
		c-0.7-3.9,0-5,3.8-4.9c1.9,0.1,2.4-0.6,2.3-2.4c-0.2-2.4,0.1-4.8-0.1-7.2c-0.2-2.2,0.7-2.9,2.7-2.5c3,0.6,3.9-0.8,3.4-3.5
		c-0.3-1.9,0.3-2.9,2.4-2.5c3.3,0.7,4.1-1,3.7-3.9c-0.2-1-0.3-2.1,1.5-2.2c4.5-0.3,4.5-0.4,4.5-5.1c0-1.3,0.2-2.6,0-3.9
		c-0.4-2.6,0.7-3.4,3.1-3c2.6,0.5,3.1-0.7,3-3.1c-0.1-2.2-0.4-3.4-2.9-2.9c-2.9,0.6-3.5-0.9-3.3-3.4c0.1-0.8,0.7-2-0.7-2.6
		c-3.1-1.2-5.2,0.2-5.3,3.4c0,0.3,0,0.6,0,0.9c0.1,2.9-2.1,1.5-3.2,1.6c-1.1,0.1-3,1-2.8-1.6c0.1-2.3,0.2-4.6,0-6.9
		c-0.2-2.6,0.4-4,3.3-3.4c2.1,0.4,3.2-0.3,2.8-2.6c-0.5-2.6,0.5-3.9,3.3-3.4c2.2,0.4,3.2-0.4,2.7-2.7c-0.5-2.7,0.6-3.8,3.3-3.3
		c2.3,0.4,2.8-0.6,2.7-2.7c-0.2-5.1-0.1-10.2-0.1-15.3c6.6,0.1,6.6,0.1,6.1-4.6c-0.1-1-0.4-1.3-1.4-1.4c-4.5-0.5-4.7-0.4-4.7,4
		c0,0.7,0,1.4,0,2.1c-6-0.1-6-0.1-6-6.3c0-1,0.1-2,0-3c-0.3-2.1,0.3-3.2,2.7-2.8c2.6,0.5,3.9-0.5,3.3-3.3c-0.4-2.2,0.4-3.2,2.7-2.7
		c3.1,0.6,3.8-0.9,3.3-3.6c-0.3-1.9,0.4-2.8,2.4-2.4c3,0.6,4.1-0.6,3.7-3.6c-0.2-1-0.7-2.3,1.5-2.5c4.5-0.2,4.5-0.4,4.5-5
		c0-1.2,0.1-2.4,0-3.6c-0.4-2.7,0.6-3.8,3.3-3.3c1.8,0.3,3.2-0.1,2.7-2.4c-0.6-3,0.7-4.2,3.6-3.6c2,0.4,2.5-0.5,2.4-2.4
		c-0.2-3.2,0-6.4,0-9.6c2,0,4,0,6,0c0,7.1,0.1,14.2-0.1,21.3c-0.1,2.3,0.6,3.1,2.8,2.7c2.8-0.5,3.7,0.7,3.3,3.3
		c-0.2,1.2-0.1,2.4,0,3.6c0,1.6-0.4,3.5,0.3,4.6c0.7,1.1,2.8,0.4,4.2,0.4c1.6,0,1.4,0.9,1.4,1.9c0,4.6,0.1,9.2,0,13.8
		c0,1.8,0.3,2.7,2.3,2.3c3.1-0.6,4.4,0.6,3.8,3.7c-0.4,2.2,0.9,2.5,2.6,2.2c2.9-0.5,3.9,0.6,3.5,3.5c-0.3,2,0.1,4-0.1,6
		c-0.2,2.2,0.6,2.7,2.7,2.6c3-0.2,4.7,2.4,3.3,5.3c-0.7,1.4-2.1,0.4-3.2,0.7c-0.9,0.2-2.4-0.6-2.6,0.6c-0.3,1.6-0.4,3.5,0.1,5
		c0.4,1,2.2,0.5,3.3,0.4c2-0.2,2.6,0.5,2.4,2.5c-0.2,2.1-0.2,4.2,0,6.3c0.4,2.8-0.8,3.4-3.4,3.4c-2.4,0-3-0.8-2.7-2.9
		c0.4-2.5-0.3-3.8-3.1-3.2c-2.2,0.4-3.3-0.4-3-2.8c0.1-1,0.7-2.7-0.4-3c-1.6-0.5-3.4-0.2-5.1-0.1c-0.7,0.1-0.5,1-0.5,1.6
		c0,2.7,0.1,5.4-0.1,8.1c-0.1,1.9,0.5,2.6,2.3,2.2c3.2-0.6,4.2,0.8,3.7,3.8c-0.1,0.9,0,1.8,0,2.7c0,1.7-0.5,3.7,0.3,5
		c0.8,1.3,2.9,0.4,4.5,0.5c2,0.1,1.3,1.6,1.2,2.4c-0.4,3,0.6,4.3,3.6,3.7c1.9-0.4,2.6,0.4,2.5,2.4c-0.2,3.1,1,7.1-0.5,9
		c-1.6,1.9-5.8,0.4-8.9,0.6c-0.9,0.1-1.8,0-2.7,0c0.1-6.6,0.1-6.6-4.6-6.1c-1,0.1-1.3,0.4-1.4,1.4c-0.5,4.5-0.4,4.7,4,4.7
		c0.7,0,1.4,0,2.1,0c0,3.2,0.1,6.4-0.1,9.6c-0.1,1.9,0.4,2.8,2.4,2.4c3-0.6,4.2,0.6,3.6,3.6c-0.4,2,0.5,2.8,2.4,2.4
		c3.1-0.6,3.8,0.8,3.6,3.7c-0.2,6,0,12-0.1,18c0,1.7,0.2,2.7,2.2,2.4c3-0.6,4.5,0.5,3.8,3.7c-0.5,2.5,1.2,2.5,2.8,2.3
		c2.6-0.4,3.7,0.5,3.2,3.2c-0.5,2.4,0.6,3.3,2.9,2.8c2.7-0.5,3.4,0.6,3.2,3.2c-0.2,2.2-0.2,4.4,0,6.6c0.2,2-0.6,2.4-2.4,2.2
		c-1.4-0.1-2.8,0-4.2,0c-1.7,0-3.7,0.5-5-0.3c-1.3-0.8-0.3-2.9-0.5-4.5c-0.1-0.8-0.3-1.1-1.2-1.3c-4.2-0.7-4.8-0.2-4.8,3.9
		c0,1,0,2,0,3c0,4.7,0,4.7,4.5,5.1c1.2,0.1,1.5,0.5,1.5,1.6c-0.1,2.7,0.1,5.4-0.1,8.1c-0.2,2.1,0.7,2.7,2.5,2.4
		c2.8-0.5,4.2,0.4,3.5,3.4c-0.5,2.5,0.8,3,2.8,2.6c2.6-0.5,3.6,0.5,3.2,3.2c-0.3,2.1-0.2,4.2,0,6.3c0.2,2.1-0.5,2.7-2.6,2.6
		c-3.1-0.2-4.6,2.2-3.4,5.2c0.5,1.4,1.8,0.7,2.6,0.7c2.6-0.3,3.6,0.4,3.5,3.3c-0.2,4-1.5,8.7,0.5,11.7c1.9,2.8,6.5,3.8,10,5.5
		c3.8,1.8,7.8,3.5,12,5.4c0.3-5.8,1.2-11,2.7-16.1c0.2-0.9,0.1-2.5,1.4-2.3c1.5,0.3,0.8,1.7,0.7,2.8c-0.5,3.4-0.3,6.7,0,10.2
		c0.8-2.1,1.5-4.2,2.3-6.3c0.3-0.8,0.3-2.5,1.6-2c1.1,0.4,0.1,1.5,0,2.3c-0.8,3.6-1.7,7.1-2.4,10.7c-0.4,2-0.1,3.6,2.1,4.7
		c7.8,3.8,15.1,8.5,22.4,13.1c0.5,0.3,1,0.6,1.5,0.9c1.3,0.7,2.7,2.1,4,1.4c1.2-0.6,0.3-2.6,0.5-3.9c0.2-2,0.4-4,0.6-6
		c0.1-0.6,0-1.3,0.9-1.3c1,0,1,0.8,1,1.5c0,1.3,0.1,2.6,0.2,3.9c0.3,0,0.5,0,0.8,0c0.3-2.6,0.5-5.2,0.8-7.8c0.1-0.7-0.2-1.9,1-1.8
		c1.1,0.1,0.8,1.2,0.8,2c0,4.4,0.2,8.8,0.1,13.2c-0.1,2.1,0.4,3.4,2.8,3.5c1.2,0.1,2.4,0.7,3.9,1.2c0-2,0.1-3.8,0-5.6
		c-0.2-1.9,0.4-2.6,2.3-2.3c2.7,0.4,4.5-0.2,3.7-3.5c-0.5-2.2,0.6-2.9,2.6-2.5c2.6,0.4,4-0.3,3.4-3.2c-0.4-2.1,0.3-3.2,2.7-2.8
		c2.6,0.5,3.9-0.5,3.3-3.3c-0.6-3,1.3-2.8,3.3-2.8c0.9,0,2.3,0.7,2.6-0.6c0.3-1.6,0.3-3.4-0.2-5c-0.2-0.8-1.8-0.4-2.8-0.3
		c-2.2,0.2-3.4-0.3-3-2.8c0.1-1,0.6-2.7-0.4-3c-1.6-0.5-3.5-0.5-5,0c-1.2,0.4-0.6,2.2-0.5,3.2c0.2,2.1-0.5,2.8-2.6,2.6
		c-2.6-0.2-5.2-0.1-7.8,0c-1.3,0-1.6-0.4-1.7-1.7c-0.2-4.3-0.2-4.4,3.8-4.3c2,0.1,2.5-0.6,2.2-2.4c-0.5-2.8,0.4-4.4,3.5-3.7
		c2.2,0.5,2.8-0.7,2.5-2.7c-0.5-2.7,0.5-3.9,3.3-3.3c2.2,0.4,3.1-0.5,2.7-2.7c-0.4-2.3,0.1-3.9,3-3.3c2.6,0.6,3.4-0.6,3-3.1
		c-0.4-2.2,0.2-3.3,2.8-3c1,0.1,2.7,0.6,3-0.4c0.5-1.6,0.5-3.4,0-5c-0.3-1.2-2-0.6-3-0.5c-2.3,0.2-3.2-0.5-2.9-2.9
		c0.1-1,0.7-2.7-0.5-3c-1.6-0.5-3.4-0.4-5,0c-0.9,0.2-0.5,1.6-0.4,2.4c0.3,2.5-0.4,3.4-3.3,3.6c-3.5,0.1-2.8-1.8-2.8-3.7
		c0-1.2,0-2.4,0-3.6c0-4.5,0-4.6,4.5-4.8c2.1-0.1,1.6-1.5,1.5-2.4c-0.5-3,0.7-4.2,3.7-3.6c2,0.4,2.8-0.5,2.4-2.4
		c-0.6-3.1,0.8-4.1,3.7-3.6c2.1,0.4,2.7-0.7,2.3-2.5c-0.5-2.8,0.4-4.1,3.4-3.5c2.9,0.6,2.6-1.3,2.6-3.1c0-1.9,0-3.2-2.6-2.9
		c-2.6,0.3-5.2,0-7.8,0.1c-1.3,0.1-1.6-0.4-1.7-1.7c-0.2-4.2-0.2-4.4,3.8-4.3c2,0.1,2.5-0.7,2.2-2.4c-0.5-2.9,0.4-4.3,3.6-3.7
		c1.9,0.4,2.7-0.3,2.5-2.4c-0.2-1.5,0-3,0-4.5c0-4.7,0-4.8,4.5-5.1c1.5-0.1,1.5-0.8,1.5-1.9c0-2.7,0.1-5.4-0.1-8.1
		c-0.1-1.8,0.6-2.4,2.2-2.1c3,0.5,4.5-0.4,3.9-3.7c-0.5-2.5,1.1-2.5,2.8-2.3c1.5,0.1,3.6-0.8,3.3,2.2c-0.2,2.4,0.1,4.8-0.1,7.2
		c-0.2,2.1,0.5,3,2.6,2.6c2.9-0.6,3.7,0.6,3.5,3.5c-0.3,4.1,0,8.2-0.1,12.3c-0.1,1.9,0.6,2.6,2.3,2.2c3.2-0.6,4,0.8,3.8,3.8
		c-0.3,3.9,0,7.8-0.1,11.7c-0.1,1.8,0.3,2.9,2.4,2.5c2.9-0.5,4.3,0.4,3.7,3.6c-0.5,2.3,0.8,2.8,2.7,2.4c2.7-0.5,3.6,0.6,3.4,3.3
		c-0.3,2.8,0.9,6.5-0.5,8.1c-1.6,1.8-5.4,0.4-8.3,0.6c-1.1,0.1-2.2,0-3.3,0c0.1-6.6,0.1-6.6-4.6-6.1c-1,0.1-1.3,0.4-1.4,1.4
		c-0.5,4.5-0.4,4.7,4,4.7c0.7,0,1.4,0,2.1,0c0,0.5,0,1,0,1.5c0,4.3,0,4.5,4.2,4.5c2.1,0,2,1.2,1.8,2.4c-0.5,3,0.6,4.2,3.6,3.6
		c2.3-0.5,2.7,0.8,2.4,2.7c-0.5,2.7,0.6,3.8,3.3,3.3c2.7-0.5,2.7,1,2.8,3c0,2.1-0.2,3.4-2.8,3c-1-0.2-2.7-0.6-3,0.4
		c-0.5,1.5-0.4,3.4-0.1,5c0.2,1.1,1.6,0.7,2.3,0.5c3.1-0.5,4,0.8,3.6,3.7c-0.2,1.1,0,2.2,0,3.3c0,4.6,0,4.6,4.5,5
		c1.2,0.1,1.6,0.5,1.5,1.6c0,0.1,0,0.2,0,0.3c-0.1,3.3,1.1,7.5-0.5,9.5c-1.5,2-6,0.4-9.1,0.6c-0.8,0-1.6,0-2.4,0
		c0.1-6.6,0.1-6.6-4.6-6.1c-1,0.1-1.3,0.4-1.4,1.4c-0.5,4.5-0.4,4.7,4,4.7c0.7,0,1.4,0,2.1,0c0,0.5,0,1,0,1.5c0,4.3,0,4.4,4.2,4.5
		c1.4,0,1.9,0.4,1.8,1.9c-0.1,2.7,0.1,5.4-0.1,8.1c-0.1,1.7,0.5,2.1,2.2,2.1c4,0,3.8,0.1,3.9,3.9c0.1,2.6-1.5,1.9-2.9,2.1
		c-1,0.1-2.7-0.6-3,0.4c-0.5,1.6-0.5,3.5,0,5c0.3,1.2,2,0.6,3,0.5c2.4-0.3,3.3,0.6,2.9,2.9c-0.5,2.7,0.6,3.6,3.2,3.1
		c2.5-0.5,3.1,0.7,2.8,2.9c-0.1,1.2,0,2.4,0,3.6c0,1.7-0.5,3.7,0.2,5c0.8,1.3,2.9,0.4,4.5,0.5c2,0.1,1.3,1.5,1.2,2.4
		c-0.2,2.2,0.5,2.6,2.8,3.2c5.7,1.5,9.9-0.6,13.8-4.3c2.8-2.6,5.8-4.7,10.1-4.3c2.9,0.3,5.4,0.9,7.6,3c3.1,2.9,6.9,5.1,8.1,9.7
		c0.5,1.8,2.3,2.6,4.2,2.9c11.9,1.7,23.4,5.3,34.7,9.4c5.8,2.1,11.8,3.4,17.7,5.4c9.9,3.4,20,6.7,29.8,10.4
		c7.5,2.8,15.3,4.4,23.1,5.8c6.5,1.1,12.8,3.1,19.1,4.7c10.5,2.7,21.2,4.8,32,5.8c9.3,0.8,18.6,2.3,28,2.6
		c7.6,0.2,15.2,0.6,22.7-0.1c10.8-1.1,21.5-0.5,32.3,0.7c10.4,1.1,20.9,2,31.3,0.2c3.1-0.5,6.1-1.8,8.9-3.2c5.6-2.8,11.6-3,17.6-3.7
		c8.5-1.1,16.9-2.7,25-5.5c1.6-0.6,2.4-1.6,2.7-3.2c0.4-2.5,0.9-5.1,1.3-7.6c0.2-1.5,0.6-2.9,1.6-4.1c5.2-6.5,11.1-12.3,17.3-17.9
		c1-1,2-1.3,3.5-0.8c2.3,0.8,4.1,0,5.6-2.1c5.6-7.8,13.1-13.6,21.2-18.6c0.5-0.3,1.1-1.1,1.5-0.6c1.7,2.2,4.9,2.2,6.6,4.4
		c0.7,0.9,1.2,1.9,2,2.6c3.6,3.5,5.8,7.5,5,12.7c-0.2,1.4,0.5,2.2,1.6,3c3.6,2.7,6.9,5.8,9.8,9.2c1,1.2,2,1.7,3.8,1.2
		c3.4-0.9,6.8-1.3,7.9-5.5c0.3-1.3,1.9-1.9,3.3-1.5c1.5,0.4,2.6-0.3,3.1-1.2c1.3-2.5,3-4.9,3.4-7.9c0.4-3.1,5.1-6.2,8.1-5.1
		c4,1.5,8,3.1,10.3,7c1.8,3,4.1,1.6,6,0.3c1.6-1,2.7-0.9,3.8,0.6c1.3,1.9,2.8,2.2,5.1,1.8c3.2-0.6,6.5-0.9,9.8-0.9
		c4.5,0,9-0.4,13.5-0.4c1.5,0,2-0.5,1.8-1.9c-0.3-1.9,0.3-2.9,2.4-2.5c2.9,0.6,4.3-0.5,3.6-3.6c-0.5-2.3,0.8-2.7,2.7-2.4
		c2.8,0.5,3.7-0.6,3.3-3.3c-0.2-1.2-0.1-2.4,0-3.6c0-1.6-0.4-3.5,0.3-4.7c0.7-1.1,2.8-0.4,4.2-0.4c1.2,0,1.4-0.5,1.5-1.6
		c0.3-4.3,0.3-4.4-4-4.4c-1.9,0-2.1-0.7-2-2.3c0.1-4.4,0.2-8.8,0-13.2c-0.1-2.1,0.5-3,2.6-2.6c2.9,0.6,3.9-0.6,3.5-3.5
		c-0.3-2.1,0.1-4.2-0.1-6.3c-0.2-1.9,0.6-2.6,2.3-2.2c3.2,0.6,4.2-0.8,3.7-3.8c-0.2-1.1,0-2.2,0-3.3c0-4.5,0-4.6,4.5-4.8
		c1.8-0.1,1.5-1.1,1.5-2.1c0.1-4.1,0.1-4.1,4.2-4c1.5,0,1.8,0.5,1.8,1.9c-0.1,4.6,0.1,9.2-0.1,13.8c-0.1,2,0.6,2.7,2.5,2.4
		c3.2-0.6,4,0.9,3.6,3.7c-0.1,1,0,2,0,3c0,1.6-0.5,3.5,0.2,4.7c0.8,1.4,2.9,0.5,4.4,0.6c1.3,0,1.4,0.7,1.4,1.7c0,2.6-0.2,5.2,0,7.8
		c0.2,2.1-0.5,2.7-2.6,2.6c-3.1-0.2-4.6,2.2-3.4,5.2c0.3,0.8,0.9,0.7,1.4,0.7c3,0,6-0.1,9,0c1.4,0,1.6-0.6,1.6-1.8
		c-0.1-2.6,0.1-5.2-0.1-7.8c-0.1-1.9,0.4-2.9,2.4-2.5c3,0.6,4.3-0.5,3.6-3.6c-0.6-2.8,1.3-2.4,3-2.4c1.7,0,3.4-0.3,3,2.5
		c-0.3,2.5,0.1,5-0.1,7.5c-0.1,1.8,0.6,2.1,2.2,2.1c3.8,0,3.8,0,3.8,4c0,1.6,0.2,3.2,0,4.8c-0.3,2.5,0.4,3.5,3.2,3.3
		c2.3-0.1,3.1-0.6,2.9-3c-0.2-4.3,0-8.6-0.1-12.9c-0.1-1.9,0.5-2.6,2.3-2.3c2.7,0.4,4.5-0.2,3.7-3.5c-0.6-2.6,1.1-2.8,2.9-2.5
		c2.4,0.3,3.5-0.3,3.1-3c-0.4-2.9,1.2-6.9-0.6-8.6c-1.6-1.5-5.5-0.6-8.4-0.4c-2.5,0.2-3.4-0.5-3.1-3.1c0.2-1.3,0-2.6,0-3.9
		c0-4.6,0-4.7,4.5-5c1.5-0.1,1.6-0.9,1.5-1.9c-0.5-3.2,0.4-4.9,4-4.2c1.8,0.4,2.1-0.6,2.1-2.2c-0.1-2.4,0.1-4.8-0.1-7.2
		c-0.2-2.1,0.4-3,2.6-2.6c2.9,0.6,4.1-0.5,3.5-3.5c-0.5-2.6,1-2.7,2.9-2.6c1,0,2.6,0.7,3-0.5c0.4-1.6,0.2-3.4,0-5.1
		c-0.1-0.6-1-0.4-1.6-0.4c-2.7,0-5.4-0.1-8.1,0c-1.6,0.1-2.4-0.3-2.2-2.1c0.2-1.7,0-3.4,0-5.1c0-4.4,0-4.6,4.5-4.8
		c2.1-0.1,1.6-1.5,1.5-2.5c-0.5-3.1,0.7-4.2,3.7-3.6c2,0.4,2.5-0.6,2.4-2.5c-0.2-2.4,0.1-4.8-0.1-7.2c-0.1-1.7,0.2-2.5,2.2-2.4
		c3.9,0.1,4.6-0.9,3.8-4.8c-0.4-2.1-2-1.1-2.8-1c-2.6,0.3-3.5-0.6-3.2-3.2c0.3-2.2,0.2-4.4,0-6.6c-0.2-1.9,0.5-2.6,2.3-2.3
		c2.8,0.5,4.4-0.2,3.7-3.5c-0.6-2.7,1.1-2.7,2.9-2.5c2.4,0.4,3.5-0.4,3.1-3c-0.2-1.4,0-2.8,0-4.2c0-4.4,0-4.6,4.5-4.8
		c2.1-0.1,1.6-1.5,1.5-2.5c-0.5-3.1,0.7-4.2,3.7-3.6c2,0.4,2.5-0.6,2.4-2.5c-0.1-4.4,0-8.8-0.1-13.2c0-1.7,0.2-2.7,2.2-2.3
		c3,0.6,4.4-0.5,3.8-3.7c-0.6-2.9,1.6-2.2,3.1-2.3c1.6-0.1,3-0.4,2.9,2.3c-0.2,6.4,0,12.8-0.1,19.2c-0.1,2.1,0.6,2.9,2.6,2.5
		c3-0.6,3.9,0.7,3.4,3.5c-0.2,1,0,2,0,3c0,1.7-0.5,3.7,0.2,5c0.8,1.3,2.9,0.4,4.5,0.5c1.7,0.1,1.4,1.3,1.2,2.1
		c-0.5,3.2,0.6,4.6,3.9,4c1.7-0.3,2.2,0.4,2.2,2.1c-0.1,6.4-0.2,12.8,0,19.2c0.1,2.3-0.6,3-2.8,2.7c-1.1-0.2-2.2,0-3.3,0
		c0.1-6.6,0.1-6.6-4.6-6.1c-1,0.1-1.3,0.4-1.4,1.4c-0.5,4.5-0.4,4.7,4,4.7c0.7,0,1.4,0,2.1,0c0,3.1,0.1,6.2-0.1,9.3
		c-0.1,2.2,0.4,3.2,2.7,2.8c2.7-0.5,3.8,0.6,3.3,3.3c-0.4,2.3,0.5,3.1,2.7,2.7c2.8-0.5,3.8,0.7,3.3,3.3c-0.4,2.3,0.6,3.1,2.8,2.7
		c2.9-0.6,3.5,0.8,3.3,3.4c-0.2,2.8,0.9,6.4-0.5,8.1c-1.5,1.7-5.3,0.6-8,0.5c-2.8-0.2-4,0.5-3.6,3.5c0.3,2,0.2,4,0,6
		c-0.2,2.1,0.4,3,2.6,2.6c2.9-0.6,4,0.6,3.5,3.5c-0.4,2.1,0.5,3,2.6,2.5c2.9-0.6,3.8,0.7,3.5,3.5c-0.3,2.1,0.1,4.2-0.1,6.3
		c-0.2,2,0.6,2.5,2.4,2.2c2.8-0.5,4.4,0.3,3.7,3.5c-0.6,2.7,1.2,2.5,2.9,2.5c1.6-0.1,3.5,0.5,3.1-2.4c-0.2-1.6,0-3.2,0-4.8
		c0-4.4,0-4.5,4.5-4.8c2.1-0.1,1.6-1.5,1.5-2.5c-0.5-3.1,0.7-4.2,3.7-3.6c2,0.4,2.5-0.6,2.4-2.4
		C1020.6,375,1020.7,369.8,1020.7,364.7c6,0,6,0,6-6c6,0,6,0,6-6c1.5,0,3,0,4.5,0c0.6,0,1.1,0.2,1.5-0.6c1.2-2.8-0.4-5.2-3.3-5.4
		c-2.4-0.2-3,0.7-2.7,2.8c0.1,1.1,0.1,2.2,0.1,3.3c-6.2-0.2-6.2-0.2-6,6C1020.6,358.5,1020.6,358.5,1020.7,364.7z M270.7,382.6
		c-0.1,6.6-0.1,6.6,4.6,6.1c1-0.1,1.3-0.4,1.4-1.4c0.5-4.5,0.4-4.7-4-4.7C272,382.6,271.3,382.6,270.7,382.6c-0.1-1.4,0-2.9,0-4.4
		c0-0.6,0.2-1.4-0.6-1.5c-1.7-0.1-3.5-0.3-5,0.2c-0.9,0.3-0.2,2-0.4,3c-0.4,2.3,0.5,3,2.7,2.7C268.4,382.5,269.6,382.6,270.7,382.6z
		 M1038.7,382.7c-2.1,0-4.1,0-6.2,0c-5.9,0-5.9,0-5.8,6c-6.6-0.1-6.6-0.1-6.1,4.6c0.1,0.7,0.1,1.2,1.1,1.4c4,0.8,5,0.1,5-4
		c0-0.7,0-1.4,0-2.1c2.1,0,4.1,0,6.2,0C1038.8,388.6,1038.8,388.6,1038.7,382.7c6.5,0,6.5,0,6-4.7c-0.1-0.7-0.1-1.2-1.1-1.4
		c-4-0.8-5-0.1-5,4C1038.7,381.3,1038.7,382,1038.7,382.7z M1077.6,244.5c2.3,0.6,3.3,0,3.2-2.7c-0.1-2.1,0-3.5-2.9-3.3
		c-2.1,0.2-3.6,0.1-3.3,2.9C1074.8,243.4,1074.4,245.5,1077.6,244.5z M210.5,429.9c0.2-5.4,0.2-5.4-3.9-5.3c-0.9,0-2.2-0.5-2.1,1.2
		c0.1,1.1-0.3,2.3,1.5,2.5C207.6,428.6,208.9,429.3,210.5,429.9z"/>
	<path class="st9" d="M1044.7,304.7c-0.1-6.1-0.1-6.1,6-6l-0.1-0.1c0,2,0,4,0,6.1l0.1-0.1C1048.7,304.6,1046.7,304.6,1044.7,304.7
		L1044.7,304.7z"/>
</g>
</svg>
