<?xml version="1.0" encoding="utf-8"?>
<!-- Generator: Adobe Illustrator 17.0.0, SVG Export Plug-In . SVG Version: 6.00 Build 0)  -->
<!DOCTYPE svg PUBLIC "-//W3C//DTD SVG 1.1//EN" "http://www.w3.org/Graphics/SVG/1.1/DTD/svg11.dtd">
<svg version="1.1" id="Layer_1" xmlns="http://www.w3.org/2000/svg" xmlns:xlink="http://www.w3.org/1999/xlink" x="0px" y="0px"
	 width="114px" height="114px" viewBox="0 0 114 114" enable-background="new 0 0 114 114" xml:space="preserve">
<g>
	<g>
		<g>
			<polygon fill="#FF7040" points="49.888,28.55 49.888,21.411 42.774,21.411 42.774,28.55 28.551,28.55 28.551,56.998 
				35.662,56.998 35.662,35.663 57,35.663 57,28.55 			"/>
			<polygon fill="#FF4046" points="42.774,7.176 42.774,14.288 35.662,14.288 35.662,21.411 28.551,21.411 28.551,28.55 
				42.774,28.55 42.774,21.411 49.888,21.411 49.888,7.176 			"/>
			<rect x="49.888" y="0.064" fill="#FF4046" width="7.112" height="7.112"/>
			<rect x="71.223" y="21.411" fill="#FF4046" width="7.112" height="7.139"/>
			<rect x="64.11" y="14.288" fill="#FF4046" width="7.112" height="7.123"/>
			<polygon fill="#FF7040" points="78.335,35.663 78.335,28.55 64.11,28.55 64.11,35.663 71.223,35.663 71.223,42.775 
				78.335,42.775 78.335,56.998 85.446,56.998 85.446,35.663 			"/>
			<polygon fill="#FFAF40" points="71.223,42.775 71.223,35.663 35.662,35.663 35.662,64.113 42.774,64.113 42.774,42.775 
				64.11,42.775 64.11,49.889 71.223,49.889 71.223,64.113 78.335,64.113 78.335,42.775 			"/>
			<path fill="#FFEF40" d="M64.11,49.889v-7.113H42.774v28.451h28.448V49.889H64.11z M64.11,64.113H49.888V49.889H57v7.109h7.11
				V64.113z"/>
			<polygon fill="#FFFFFF" points="57,56.998 57,49.889 49.888,49.889 49.888,64.113 64.11,64.113 64.11,56.998 			"/>
		</g>
		<g>
			<path fill="#806D60" d="M113.93,103.27c0,5.896-4.771,10.667-10.668,10.667l0,0c-5.895,0-10.681-4.771-10.681-10.667l0,0
				c0-5.898,4.786-10.689,10.681-10.689l0,0C109.159,92.58,113.93,97.371,113.93,103.27L113.93,103.27z"/>
			<path fill="#806D60" d="M7.764,93l0.002,0.009c0.111-0.032,0.226-0.059,0.338-0.088L7.764,93z"/>
			<path fill="#806D60" d="M113.93,81.894c0-5.895-4.771-10.667-10.668-10.667c-0.957,0-1.88,0.138-2.763,0.374l-0.004-0.015
				L8.75,92.772c0.644-0.122,1.307-0.192,1.986-0.192c5.897,0,10.678,4.791,10.678,10.689c0,4.938-3.357,9.074-7.911,10.293
				l0.004,0.014l92.572-21.366l-0.005-0.018C110.603,90.954,113.93,86.816,113.93,81.894z"/>
			<path fill="#A68E7C" d="M21.414,103.27c0,5.896-4.78,10.667-10.678,10.667l0,0c-5.897,0-10.666-4.771-10.666-10.667l0,0
				c0-5.898,4.768-10.689,10.666-10.689l0,0C16.634,92.58,21.414,97.371,21.414,103.27L21.414,103.27z"/>
			<path fill="#A68E7C" d="M92.581,103.27c0-5.898,4.786-10.689,10.681-10.689c0.678,0,1.338,0.07,1.98,0.191L13.507,71.586
				l-0.004,0.007c-0.89-0.213-1.789-0.366-2.767-0.366c-5.897,0-10.414,4.772-10.414,10.667c0,4.87,3.659,8.985,7.94,10.267
				L8.22,92.196c0.281,0.086,0.419,0.164,0.708,0.188l91.567,21.192l0.004-0.013C95.944,112.346,92.581,108.208,92.581,103.27z"/>
			<path fill="#A68E7C" d="M106.23,93.008L106.232,93l-0.32-0.074C106.018,92.953,106.125,92.978,106.23,93.008z"/>
		</g>
	</g>
</g>
</svg>
