<?xml version="1.0" encoding="utf-8"?>
<!-- Generator: Adobe Illustrator 16.0.3, SVG Export Plug-In . SVG Version: 6.00 Build 0)  -->
<!DOCTYPE svg PUBLIC "-//W3C//DTD SVG 1.1//EN" "http://www.w3.org/Graphics/SVG/1.1/DTD/svg11.dtd">
<svg version="1.1" xmlns="http://www.w3.org/2000/svg" xmlns:xlink="http://www.w3.org/1999/xlink" x="0px" y="0px" width="200px"
	 height="100px" viewBox="0 0 200 100" enable-background="new 0 0 200 100" xml:space="preserve">
<g id="guides">
</g>
<g id="Layer_2">
	<g>
		<g>
			<polygon fill-rule="evenodd" clip-rule="evenodd" fill="#231F20" points="144.738,30 139.092,50.551 104.781,59.932 			"/>
			<polygon fill-rule="evenodd" clip-rule="evenodd" fill="#231F20" points="54.781,30 60.428,50.551 94.737,59.932 			"/>
			<g>
				<path fill="#231F20" d="M25.294,65.065h-3.862v3.775h3.862v-1.284l1.445,0.3v0.713c0,0.549-0.107,0.925-0.319,1.127
					S25.8,70,25.198,70h-3.671c-0.593,0-0.996-0.101-1.208-0.3C20.106,69.5,20,69.124,20,68.569V65.38
					c0-0.549,0.105-0.924,0.315-1.124s0.614-0.301,1.212-0.301h3.671c0.606,0,1.015,0.101,1.225,0.301s0.316,0.575,0.316,1.124
					v0.586l-1.445,0.216V65.065z"/>
				<path fill="#231F20" d="M28.538,70v-6.045h1.426V70H28.538z"/>
				<path fill="#231F20" d="M32.026,70v-6.045h5.293c0.489,0,0.841,0.093,1.056,0.275c0.215,0.185,0.322,0.484,0.322,0.897v1.341
					c0,0.414-0.109,0.713-0.326,0.897c-0.217,0.183-0.568,0.275-1.052,0.275h-3.881V70H32.026z M36.709,64.995h-3.271v1.605h3.271
					c0.248,0,0.419-0.036,0.513-0.111c0.092-0.075,0.139-0.2,0.139-0.377v-0.629c0-0.176-0.047-0.302-0.139-0.376
					C37.128,65.033,36.957,64.995,36.709,64.995z"/>
				<path fill="#231F20" d="M40.198,70v-6.045h1.445v2.297h4.472v-2.297h1.433V70h-1.433v-2.547h-4.472V70H40.198z"/>
				<path fill="#231F20" d="M49.617,70v-6.045h6.304v1.069h-4.858v1.318h2.83v1.04h-2.83v1.487h4.933V70H49.617z"/>
				<path fill="#231F20" d="M57.511,70v-6.045h5.293c0.484,0,0.835,0.093,1.052,0.275c0.217,0.185,0.326,0.484,0.326,0.897v1.425
					c0,0.408-0.109,0.705-0.326,0.886c-0.217,0.182-0.567,0.271-1.052,0.271h-0.808L64.793,70h-2.058l-2.463-2.29h-1.351V70H57.511z
					 M62.193,64.995h-3.271v1.676h3.271c0.249,0,0.42-0.037,0.512-0.111c0.093-0.075,0.14-0.2,0.14-0.378v-0.698
					c0-0.176-0.047-0.302-0.14-0.376C62.613,65.033,62.442,64.995,62.193,64.995z"/>
				<path fill="#231F20" d="M74.313,65.038V70h-1.432v-4.962h-2.836v-1.083h7.111v1.083H74.313z"/>
				<path fill="#231F20" d="M78.454,70v-6.045h6.304v1.069h-4.858v1.318h2.829v1.04h-2.829v1.487h4.933V70H78.454z"/>
				<path fill="#231F20" d="M91.497,65.065h-3.862v3.775h3.862v-1.284l1.445,0.3v0.713c0,0.549-0.107,0.925-0.319,1.127
					S92.003,70,91.401,70H87.73c-0.593,0-0.996-0.101-1.208-0.3c-0.213-0.2-0.319-0.576-0.319-1.131V65.38
					c0-0.549,0.105-0.924,0.315-1.124s0.614-0.301,1.212-0.301h3.671c0.606,0,1.015,0.101,1.226,0.301
					c0.21,0.2,0.315,0.575,0.315,1.124v0.586l-1.445,0.216V65.065z"/>
				<path fill="#231F20" d="M94.741,70v-6.045h1.446v2.297h4.472v-2.297h1.432V70h-1.432v-2.547h-4.472V70H94.741z"/>
				<path fill="#231F20" d="M114.416,65.038h-4.045v1.276h3.828c0.601,0,1.006,0.099,1.214,0.297
					c0.209,0.197,0.313,0.573,0.313,1.127v0.831c0,0.555-0.106,0.931-0.319,1.131c-0.212,0.199-0.615,0.3-1.207,0.3h-3.814
					c-0.606,0-1.017-0.101-1.232-0.3c-0.214-0.2-0.322-0.576-0.322-1.131v-0.168l1.276-0.244v0.713h4.323v-1.383h-3.808
					c-0.602,0-1.009-0.102-1.222-0.304c-0.212-0.201-0.318-0.578-0.318-1.127V65.38c0-0.545,0.106-0.918,0.318-1.12
					c0.213-0.203,0.62-0.305,1.222-0.305h3.488c0.593,0,0.998,0.098,1.219,0.291c0.219,0.192,0.328,0.532,0.328,1.021v0.146
					l-1.241,0.273V65.038z"/>
				<path fill="#231F20" d="M117.504,65.38c0-0.549,0.104-0.924,0.313-1.124c0.207-0.2,0.611-0.301,1.214-0.301h4.546
					c0.606,0,1.014,0.101,1.219,0.301c0.206,0.2,0.309,0.575,0.309,1.124v3.189c0,0.555-0.105,0.931-0.315,1.131
					c-0.21,0.199-0.614,0.3-1.212,0.3h-4.546c-0.603,0-1.007-0.101-1.214-0.3c-0.209-0.2-0.313-0.576-0.313-1.131V65.38z
					 M118.936,68.841h4.736v-3.775h-4.736V68.841z"/>
				<path fill="#231F20" d="M127.024,70v-6.045h1.446v4.915h4.606V70H127.024z"/>
				<path fill="#231F20" d="M135.82,63.955v4.915h4.092v-4.915h1.446v4.614c0,0.549-0.108,0.925-0.322,1.127
					C140.82,69.898,140.412,70,139.811,70h-3.889c-0.598,0-1-0.101-1.212-0.3c-0.21-0.2-0.315-0.576-0.315-1.131v-4.614H135.82z"/>
				<path fill="#231F20" d="M146.915,65.038V70h-1.432v-4.962h-2.836v-1.083h7.111v1.083H146.915z"/>
				<path fill="#231F20" d="M151.056,70v-6.045h1.426V70H151.056z"/>
				<path fill="#231F20" d="M154.402,65.38c0-0.549,0.104-0.924,0.312-1.124s0.613-0.301,1.215-0.301h4.547
					c0.605,0,1.012,0.101,1.218,0.301s0.309,0.575,0.309,1.124v3.189c0,0.555-0.104,0.931-0.315,1.131
					c-0.21,0.199-0.614,0.3-1.211,0.3h-4.547c-0.602,0-1.007-0.101-1.215-0.3c-0.208-0.2-0.312-0.576-0.312-1.131V65.38z
					 M155.834,68.841h4.736v-3.775h-4.736V68.841z"/>
				<path fill="#231F20" d="M163.925,70v-6.045h0.983l4.988,4.015v-4.015h1.296V70h-0.991l-4.975-4.075V70H163.925z"/>
				<path fill="#231F20" d="M178.69,65.038h-4.044v1.276h3.826c0.603,0,1.008,0.099,1.216,0.297
					c0.207,0.197,0.312,0.573,0.312,1.127v0.831c0,0.555-0.106,0.931-0.318,1.131c-0.213,0.199-0.615,0.3-1.209,0.3h-3.813
					c-0.605,0-1.017-0.101-1.231-0.3c-0.215-0.2-0.322-0.576-0.322-1.131v-0.168l1.275-0.244v0.713h4.323v-1.383h-3.808
					c-0.601,0-1.009-0.102-1.221-0.304c-0.213-0.201-0.318-0.578-0.318-1.127V65.38c0-0.545,0.105-0.918,0.318-1.12
					c0.212-0.203,0.62-0.305,1.221-0.305h3.489c0.592,0,0.998,0.098,1.217,0.291c0.221,0.192,0.33,0.532,0.33,1.021v0.146
					l-1.242,0.273V65.038z"/>
			</g>
		</g>
	</g>
</g>
</svg>
