<?xml version="1.0" encoding="utf-8"?>
<!-- Generator: Adobe Illustrator 19.2.1, SVG Export Plug-In . SVG Version: 6.00 Build 0)  -->
<svg version="1.1" id="Layer_1" xmlns="http://www.w3.org/2000/svg" xmlns:xlink="http://www.w3.org/1999/xlink" x="0px" y="0px"
	 viewBox="0 0 195.7 104.4" style="enable-background:new 0 0 195.7 104.4;" xml:space="preserve">
<style type="text/css">
	.st0{fill:#FFFFFF;}
</style>
<polygon class="st0" points="182.7,52.2 182.7,39.1 169.7,39.1 169.7,26.1 156.6,26.1 156.6,13 130.5,13 130.5,26.1 117.4,26.1 
	117.4,39.1 104.4,39.1 104.4,26.1 91.4,26.1 91.4,13 78.3,13 78.3,0 52.2,0 52.2,13 39.1,13 39.1,26.1 26.1,26.1 26.1,39.1 13,39.1 
	13,52.2 0,52.2 0,78.3 13,78.3 13,91.4 26.1,91.4 26.1,104.4 156.6,104.4 156.6,91.4 182.7,91.4 182.7,78.3 195.7,78.3 195.7,52.2 
	"/>
</svg>
