<?xml version="1.0" encoding="utf-8"?>
<!-- Generator: Adobe Illustrator 19.2.1, SVG Export Plug-In . SVG Version: 6.00 Build 0)  -->
<svg version="1.1" id="Layer_1" xmlns="http://www.w3.org/2000/svg" xmlns:xlink="http://www.w3.org/1999/xlink" x="0px" y="0px"
	 viewBox="0 0 266.1 159" style="enable-background:new 0 0 266.1 159;" xml:space="preserve">
<style type="text/css">
	.st0{clip-path:url(#SVGID_2_);fill:#A68E7C;}
	.st1{clip-path:url(#SVGID_2_);}
	.st2{clip-path:url(#SVGID_4_);fill:#7F6C5F;}
	.st3{clip-path:url(#SVGID_2_);fill:#FFFFFF;}
</style>
<g>
	<defs>
		<polygon id="SVGID_1_" points="-0.5,159 70.4,69.3 79.9,65.4 131.7,-0.2 207.5,89.8 218.1,93.1 266.1,159 		"/>
	</defs>
	<clipPath id="SVGID_2_">
		<use xlink:href="#SVGID_1_"  style="overflow:visible;"/>
	</clipPath>
	<polygon class="st0" points="-0.5,159 70.4,69.3 79.9,65.4 131.7,-0.2 207.5,89.8 218.1,93.1 266.1,159 	"/>
	<g class="st1">
		<defs>
			<polygon id="SVGID_3_" points="132.5,0 222.7,158.8 264.7,159.1 156.7,0 			"/>
		</defs>
		<clipPath id="SVGID_4_">
			<use xlink:href="#SVGID_3_"  style="overflow:visible;"/>
		</clipPath>
		<polygon class="st2" points="-0.5,159 70.4,69.3 79.9,65.4 131.7,-0.2 207.5,89.8 218.1,93.1 266.1,159 		"/>
	</g>
	<path class="st3" d="M80.6,42.8c0,0,21.1,20.1,44.1,6.8c16.5-9.6,26.6,2,34.6,5.6c6.1,2.7,13.4-0.8,18.1-19.9
		c4.7-19.1-44.5-47-44.5-47L88.5-0.2L80.6,42.8z"/>
</g>
</svg>
