<?xml version="1.0" encoding="utf-8"?>
<!-- Generator: Adobe Illustrator 21.0.2, SVG Export Plug-In . SVG Version: 6.00 Build 0)  -->
<svg version="1.1" id="Layer_1" xmlns="http://www.w3.org/2000/svg" xmlns:xlink="http://www.w3.org/1999/xlink" x="0px" y="0px"
	 viewBox="0 0 144 26.1" style="enable-background:new 0 0 144 26.1;" xml:space="preserve">
<style type="text/css">
	.st0{fill:#F58758;}
	.st1{fill:#6D6E71;}
</style>
<g id="guides">
</g>
<g id="Layer_2">
	<g>
		<g>
			<path class="st0" d="M30.8,17.7c0.5-1,0.9-1.8,1.4-2.6C34.2,11,36.3,7,38.3,2.9c0.7-1.4,1.6-2.4,3.2-2.7c1.7-0.4,3.2,0.1,4.3,1.5
				c1.2,1.5,1.3,3.1,0.5,4.8c-1.5,3-3.1,6.1-4.6,9.1c-1.3,2.6-2.6,5.1-3.9,7.7c-0.9,1.8-2.4,2.8-4.5,2.8c-1.8,0-3.6,0-5.4,0
				c-1.9,0-3.3-0.9-4.2-2.6c-2.4-4.7-4.8-9.5-7.2-14.3c-0.1-0.2-0.2-0.5-0.4-0.8c-0.2,0.4-0.4,0.6-0.5,0.9
				c-2.4,4.7-4.8,9.4-7.2,14.2c-1,1.9-2.9,2.9-4.8,2.5c-2.9-0.6-4.4-3.6-3-6.3C2.3,16,4.2,12.3,6,8.7c1-2,2-4.1,3.1-6.1
				C10,0.9,11.4,0,13.5,0c1.8,0,3.6,0,5.4,0c2,0,3.4,0.9,4.3,2.6c2.4,4.7,4.8,9.5,7.2,14.2C30.4,17.1,30.5,17.3,30.8,17.7z"/>
		</g>
		<g>
			<path class="st1" d="M80.4,22.2c-0.4,0-0.7,0-1.1,0c0-0.3-0.1-0.6-0.1-0.9c0-1.6,0-3.1,0-4.7c0-0.3,0-0.7-0.1-1
				c-0.3-1.6-1.4-2.2-2.9-1.6c-1.3,0.6-2,1.7-2.1,3c-0.1,1.4-0.1,2.7-0.1,4.1c0,0.3,0,0.7-0.1,1.1c-0.4,0-0.7,0-1.1,0
				c0-3,0-6.1,0-9.2c0.3,0,0.7-0.1,1.1-0.1c0,0.6,0.1,1.2,0.1,1.7c3-2.7,4.7-2.7,6.4,0.1c0.2-0.2,0.3-0.4,0.5-0.6
				c1-1.2,2.4-1.7,3.9-1.3c1.3,0.3,2,1.2,2,2.5c0.1,2.2,0,4.4,0,6.7c0,0.1-0.1,0.2-0.1,0.3c-0.3,0-0.6,0-1,0c0-0.3-0.1-0.6-0.1-0.9
				c0-1.4,0-2.9,0-4.3c0-0.4,0-0.9-0.1-1.3c-0.3-1.6-1.5-2.3-3-1.6c-1.2,0.6-1.8,1.6-2,2.9c-0.1,1.4-0.1,2.8-0.1,4.2
				C80.5,21.5,80.5,21.8,80.4,22.2z"/>
		</g>
		<g>
			<path class="st1" d="M136.7,21c0,0.8,0,1.5,0,2.2c0,0.6,0,1.3,0,2c0,0.8-0.3,0.9-1.2,0.7c0-0.3-0.1-0.5-0.1-0.8
				c0-3.7,0-7.5,0-11.2c0-0.3,0.1-0.5,0.1-0.9c0.4,0,0.7,0,1,0c0.1,0.4,0.1,0.8,0.2,1.3c0.8-1,1.8-1.6,3-1.6c1.8,0,3.2,0.9,3.8,2.6
				c0.5,1.4,0.6,2.8,0.1,4.2c-1,3.2-4.4,4-6.7,1.8C137,21.1,136.9,21.1,136.7,21z M136.5,17.5c0.2,0.8,0.3,1.6,0.7,2.3
				c0.4,1,1.2,1.6,2.4,1.6c1.2,0,2.1-0.5,2.6-1.5c0.8-1.5,0.8-3.1-0.1-4.6c-1-1.8-3.7-1.9-4.7-0.1C136.9,15.8,136.8,16.7,136.5,17.5
				z"/>
		</g>
		<g>
			<path class="st1" d="M108.7,22.2c-0.4,0-0.7,0-1.1,0c0-4.3,0-8.6,0-13c0.4,0,0.7,0,1.2,0c0,1.8,0,3.6,0,5.3c0.1,0,0.1,0,0.2,0
				c0.1-0.1,0.2-0.3,0.3-0.4c1.1-1.3,2.6-1.8,4.2-1.5c1,0.2,1.7,0.8,1.9,1.8c0.1,0.5,0.2,1.1,0.2,1.7c0,1.7,0,3.5,0,5.2
				c0,0.3-0.1,0.5-0.1,0.9c-0.4,0-0.7,0-1.1,0c0-0.3-0.1-0.7-0.1-1c0-1.8,0-3.5-0.1-5.3c-0.1-1.8-1.2-2.5-2.9-1.9
				c-1.5,0.4-2.5,1.9-2.6,3.6c0,1.2,0,2.5,0,3.7C108.8,21.6,108.7,21.8,108.7,22.2z"/>
		</g>
		<g>
			<path class="st1" d="M96.6,17.6c-1.3,0-2.4,0-3.6,0c-1.1,0-2.3,0-3.5,0c0,1.3,0.4,2.2,1.3,2.9c0.7,0.6,1.6,0.9,2.6,0.8
				c0.9-0.2,1.7-0.5,2.6-0.8c0.5,0.3,0.6,0.7,0.1,1.1c-2,1.6-5.4,1.1-7-1c-1.6-2.2-1.1-5.7,1-7.2c1.4-1,3-1.1,4.5-0.4
				c1.5,0.7,2,2.2,2.1,3.8C96.7,17,96.7,17.2,96.6,17.6z M89.7,16.5c1.9,0,3.8,0,5.6,0c0.2-1.5-0.9-2.7-2.4-2.8
				C91.3,13.6,89.8,14.9,89.7,16.5z"/>
		</g>
		<g>
			<path class="st1" d="M125.3,17.6c-2.3,0-4.6,0-7,0c0,1.3,0.4,2.2,1.3,2.9c1.7,1.3,3.4,0.9,5.2-0.2c0.2,0.3,0.3,0.6,0.5,0.9
				c-0.8,0.9-1.8,1.2-2.9,1.3c-2.6,0.3-4.9-1.4-5.4-4c-0.5-2.7,1-5.2,3.5-5.7c3.2-0.6,4.9,1.3,5,4.2
				C125.5,17.1,125.4,17.3,125.3,17.6z M118.4,16.5c1.9,0,3.8,0,5.6,0c0.1-1.5-1-2.8-2.5-2.8C119.9,13.6,118.4,15,118.4,16.5z"/>
		</g>
		<g>
			<path class="st1" d="M64.7,14.6c-0.2-0.3-0.3-0.6-0.4-0.9c0.2-0.2,0.3-0.3,0.5-0.4c1.2-0.7,2.6-0.8,3.9-0.5
				c1.3,0.3,2.1,1.2,2.2,2.5c0.1,2.1,0.1,4.2,0.1,6.4c0,0.2-0.1,0.3-0.2,0.5c-0.3,0-0.6,0-0.9,0c-0.1-0.5-0.1-0.9-0.2-1.5
				c-0.2,0.2-0.3,0.3-0.4,0.4c-1.1,1.3-2.5,1.7-4.1,1.1c-1.1-0.4-1.8-1.1-1.8-2.3c-0.1-1.2,0.4-2,1.4-2.6c1.2-0.7,2.6-0.7,3.9-0.8
				c0.3,0,0.5,0,0.8-0.1c0.3-1.1-0.2-2.2-1.3-2.5c-0.9-0.3-1.8-0.1-2.7,0.3C65.3,14.3,65,14.4,64.7,14.6z M69.7,17.5
				c-1.3,0-2.4,0-3.6,0.4c-1,0.4-1.5,1.2-1.3,2.1c0.2,0.9,1.1,1.6,2.1,1.4c0.5-0.1,1-0.2,1.3-0.5C69.3,20.1,69.7,19,69.7,17.5z"/>
		</g>
		<g>
			<path class="st1" d="M132.1,16.4c0.3-1.1-0.2-2.1-1.2-2.5c-1-0.3-1.9-0.1-2.8,0.3c-0.3,0.1-0.5,0.2-0.9,0.3
				c-0.2-0.3-0.3-0.5-0.5-0.8c0.7-0.8,1.6-0.9,2.4-1.1c0.3-0.1,0.6,0,0.9,0c2,0,3.2,1,3.4,3.1c0.1,2,0,4,0,5.9
				c0,0.2-0.1,0.3-0.1,0.5c-0.3,0-0.6,0-1,0c0-0.5-0.1-0.9-0.1-1.5c-0.2,0.2-0.3,0.3-0.4,0.5c-1,1.2-2.5,1.6-4,1.1
				c-1.1-0.4-1.8-1.1-1.9-2.2c-0.1-1.2,0.3-2.2,1.4-2.8c1.2-0.7,2.5-0.7,3.9-0.8C131.6,16.4,131.9,16.4,132.1,16.4z M132.2,17.6
				c-0.9-0.3-3.1,0-3.9,0.5c-0.7,0.4-0.9,1-0.8,1.8c0.1,0.7,0.6,1.2,1.3,1.4C130.7,21.9,132.6,19.9,132.2,17.6z"/>
		</g>
		<g>
			<path class="st1" d="M62.2,22.2c-0.3,0-0.7,0-1,0c0-0.3-0.1-0.6-0.1-0.9c0-1.5,0-2.9,0-4.4c0-0.2,0-0.5,0-0.7
				c-0.1-2.4-1.7-2.7-3.4-2.1c-1.6,0.6-2.2,1.9-2.2,3.5c0,1.2,0,2.4,0,3.6c0,0.3,0,0.6-0.1,1c-0.4,0-0.7,0-1.2,0.1
				c0-3.1,0-6.2,0-9.3c0.4,0,0.8,0,1.2,0c0,0.6,0.1,1.1,0.1,1.7c0.1-0.1,0.2-0.2,0.3-0.3c1.1-1.4,2.5-1.9,4.2-1.6
				c1.3,0.2,2.2,1,2.3,2.4c0.1,2.2,0.1,4.5,0.1,6.7C62.3,21.9,62.2,22,62.2,22.2z"/>
		</g>
		<g>
			<path class="st1" d="M106.1,14c-0.1,0.2-0.3,0.4-0.5,0.8c-0.4-0.2-0.7-0.3-1-0.5c-1.4-0.7-2.7-0.7-4,0.2c-1.3,1-1.6,2.4-1.3,3.9
				c0.3,1.5,1.2,2.4,2.6,2.8c1.1,0.3,2.1,0.1,3.1-0.5c0.2-0.2,0.5-0.3,0.8-0.5c0.2,0.3,0.4,0.5,0.5,0.7c-0.7,1.3-2.9,1.9-4.8,1.5
				c-2.1-0.4-3.6-2.2-3.7-4.3c-0.2-2.4,1-4.4,3-5.2C102.6,12.3,105.2,12.7,106.1,14z"/>
		</g>
	</g>
</g>
</svg>
