<?xml version="1.0" encoding="utf-8"?>
<!-- Generator: Adobe Illustrator 19.2.1, SVG Export Plug-In . SVG Version: 6.00 Build 0)  -->
<svg version="1.1" id="Layer_1" xmlns="http://www.w3.org/2000/svg" xmlns:xlink="http://www.w3.org/1999/xlink" x="0px" y="0px"
	 viewBox="0 0 40 40" style="enable-background:new 0 0 40 40;" xml:space="preserve">
<style type="text/css">
	.st0{fill:#806D60;}
</style>
<path class="st0" d="M0,0v40h40V0H0z M32.1,26.5c-0.2,0.6-1.3,1-3.2,1.3c-0.1,0.1-0.1,0.4-0.2,0.6c0,0.2-0.1,0.4-0.1,0.6
	c-0.1,0.3-0.3,0.4-0.6,0.4h0l0,0c-0.1,0-0.3,0-0.5-0.1c-0.4-0.1-0.8-0.1-1.3-0.1c-0.3,0-0.6,0-0.9,0.1c-0.6,0.1-1.1,0.5-1.7,0.9
	c-0.9,0.6-1.8,1.3-3.3,1.3c-0.1,0-0.1,0-0.2,0c0,0-0.1,0-0.1,0c-1.5,0-2.5-0.7-3.3-1.3c-0.6-0.4-1.1-0.8-1.7-0.9
	c-0.3-0.1-0.6-0.1-0.9-0.1c-0.5,0-1,0.1-1.3,0.1c-0.2,0-0.4,0.1-0.5,0.1c-0.4,0-0.5-0.2-0.6-0.4c-0.1-0.2-0.1-0.4-0.1-0.6
	c0-0.2-0.1-0.5-0.2-0.6c-1.9-0.3-3-0.7-3.2-1.3c0-0.1,0-0.2-0.1-0.2c0-0.3,0.2-0.5,0.4-0.5c3.3-0.5,4.8-3.9,4.9-4.1c0,0,0,0,0,0
	c0.2-0.4,0.2-0.7,0.1-0.9c-0.2-0.4-0.9-0.7-1.4-0.8c-0.1,0-0.3-0.1-0.4-0.1c-1.1-0.4-1.3-1-1.2-1.3c0.1-0.5,0.7-0.8,1.2-0.8
	c0.1,0,0.3,0,0.4,0.1c0.4,0.2,0.8,0.3,1.1,0.3c0.2,0,0.4-0.1,0.5-0.1c0-0.2,0-0.4,0-0.6c-0.1-1.7-0.2-3.7,0.3-4.9
	c1.6-3.6,5-3.9,6-3.9c0,0,0.4,0,0.4,0c0,0,0,0,0.1,0h0c1,0,4.4,0.3,6,3.9c0.5,1.2,0.4,3.3,0.3,4.9l0,0.1c0,0.2,0,0.4,0,0.5
	c0.1,0,0.2,0.1,0.4,0.1c0.3,0,0.7-0.1,1-0.3c0.2-0.1,0.3-0.1,0.5-0.1c0.2,0,0.4,0,0.5,0.1l0,0c0.5,0.2,0.7,0.5,0.7,0.8
	c0,0.5-0.4,0.9-1.2,1.2c-0.1,0-0.2,0.1-0.4,0.1c-0.5,0.1-1.2,0.4-1.4,0.8c-0.1,0.2-0.1,0.5,0.1,0.9c0,0,0,0,0,0
	c0.1,0.1,1.6,3.5,4.9,4.1c0.3,0,0.4,0.3,0.4,0.5C32.2,26.3,32.1,26.4,32.1,26.5z"/>
</svg>
