<?xml version="1.0" encoding="iso-8859-1"?>
<!-- Generator: Adobe Illustrator 18.1.1, SVG Export Plug-In . SVG Version: 6.00 Build 0)  -->
<!DOCTYPE svg PUBLIC "-//W3C//DTD SVG 1.1//EN" "http://www.w3.org/Graphics/SVG/1.1/DTD/svg11.dtd">
<svg version="1.1" xmlns="http://www.w3.org/2000/svg" xmlns:xlink="http://www.w3.org/1999/xlink" x="0px" y="0px"
	 viewBox="0 0 40 40" style="enable-background:new 0 0 40 40;" xml:space="preserve">
<g id="twitter">
	<g>
		<path style="fill:#7F6C5F;" d="M0,0v40h40V0H0z M29.866,15.822c0.009,0.219,0.015,0.438,0.015,0.658
			c0,6.727-5.12,14.484-14.484,14.484c-2.875,0-5.551-0.842-7.804-2.287c0.398,0.046,0.804,0.071,1.215,0.071
			c2.385,0,4.58-0.814,6.323-2.179c-2.228-0.041-4.108-1.513-4.756-3.535c0.311,0.059,0.63,0.092,0.958,0.092
			c0.465,0,0.914-0.062,1.342-0.179c-2.329-0.468-4.084-2.525-4.084-4.992c0-0.021,0-0.042,0-0.064
			c0.687,0.382,1.472,0.61,2.306,0.637c-1.366-0.913-2.265-2.471-2.265-4.238c0-0.933,0.251-1.808,0.689-2.559
			c2.511,3.08,6.262,5.107,10.494,5.32c-0.088-0.373-0.133-0.762-0.133-1.16c0-2.812,2.28-5.092,5.091-5.092
			c1.464,0,2.788,0.618,3.716,1.608c1.16-0.228,2.249-0.652,3.233-1.236c-0.38,1.189-1.188,2.187-2.238,2.816
			c1.03-0.123,2.011-0.397,2.924-0.802C31.724,14.208,30.861,15.105,29.866,15.822z"/>
	</g>
</g>
<g id="Layer_1">
</g>
</svg>
